<svg width="1440" height="884" viewBox="0 0 1440 884" fill="none" xmlns="http://www.w3.org/2000/svg">
<path d="M1183.39 882.96L1183.98 882.89L1183.78 882.466L1183.39 882.96Z" fill="white" stroke="#7FFF52" stroke-miterlimit="10"/>
<path d="M1410.52 678.181C1410.26 679.756 1410.39 681.096 1409.89 681.449C1409.51 681.642 1409.08 681.72 1408.66 681.675C1408.24 681.629 1407.84 681.462 1407.49 681.19C1407.29 680.788 1407.18 680.334 1407.18 679.873C1407.18 679.413 1407.29 678.959 1407.49 678.557C1407.95 678.087 1409.14 678.322 1410.52 678.181Z" fill="#7FFF52" stroke="#7FFF52" stroke-miterlimit="10"/>
<path d="M1028.7 681.989C1029.99 682.601 1030.86 682.789 1031.38 683.376C1031.45 683.723 1031.44 684.084 1031.35 684.425C1031.26 684.767 1031.09 685.077 1030.86 685.328C1030 685.494 1029.12 685.494 1028.26 685.328L1028.7 681.989Z" fill="#7FFF52" stroke="#7FFF52" stroke-miterlimit="10"/>
<path d="M1299.89 320.064C1300.36 321.075 1300.82 321.969 1301.23 322.886C1301.23 322.999 1301.21 323.112 1301.16 323.214C1301.12 323.316 1301.05 323.405 1300.97 323.473C1300.58 323.638 1299.82 323.85 1299.78 323.732C1299.27 322.664 1298.84 321.556 1298.48 320.417C1298.49 320.292 1298.52 320.172 1298.58 320.062C1298.64 319.953 1298.71 319.857 1298.8 319.782C1299.17 319.849 1299.53 319.943 1299.89 320.064Z" fill="#7FFF52" stroke="#7FFF52" stroke-miterlimit="10"/>
<path d="M997.822 388.199C997.203 389.086 996.476 389.878 995.66 390.55C995.422 390.691 994.297 389.821 994.319 389.515C994.372 389.163 994.495 388.828 994.677 388.532C994.86 388.236 995.099 387.986 995.378 387.799C995.768 387.493 996.481 387.917 997.822 388.199Z" fill="#7FFF52" stroke="#7FFF52" stroke-miterlimit="10"/>
<path d="M1169.53 394.641C1169.5 393.805 1169.61 392.97 1169.84 392.172C1170.4 391.114 1172 391.42 1172.6 392.713C1172.8 393.23 1172.6 394.523 1172.24 394.617C1171.34 394.768 1170.43 394.776 1169.53 394.641Z" fill="#7FFF52" stroke="#7FFF52" stroke-miterlimit="10"/>
<path d="M1320.43 706.276C1321.7 706.864 1322.59 707.028 1323.08 707.592C1323.19 707.926 1323.21 708.283 1323.15 708.629C1323.09 708.974 1322.95 709.297 1322.74 709.567C1321.94 709.77 1321.11 709.818 1320.3 709.708L1320.43 706.276Z" fill="#7FFF52" stroke="#7FFF52" stroke-miterlimit="10"/>
<path d="M1271.41 621.684C1271.78 620.509 1271.8 619.686 1272.19 619.333C1273.12 618.463 1273.96 619.051 1274.35 620.062C1274.55 620.603 1274.35 621.919 1274.09 621.966C1273.19 621.996 1272.29 621.901 1271.41 621.684Z" fill="#7FFF52" stroke="#7FFF52" stroke-miterlimit="10"/>
<path d="M1147.33 702.655C1148.39 703.008 1149.49 703.22 1149.49 703.408C1149.49 704.24 1149.28 705.056 1148.86 705.759C1148.69 706.017 1147.18 705.759 1147.13 705.5C1147.1 704.547 1147.16 703.592 1147.33 702.655Z" fill="#7FFF52" stroke="#7FFF52" stroke-miterlimit="10"/>
<path d="M1232.65 718.29C1233.66 719.019 1234.66 719.395 1234.68 719.818C1234.59 720.733 1234.35 721.624 1233.99 722.451C1233.4 722.099 1232.47 721.84 1232.34 721.37C1232.29 720.332 1232.39 719.293 1232.65 718.29Z" fill="#7FFF52" stroke="#7FFF52" stroke-miterlimit="10"/>
<path d="M1317.07 245.159C1317.66 244.884 1318.29 244.725 1318.93 244.689C1319.48 244.851 1319.95 245.239 1320.23 245.77C1320.23 245.912 1319.86 246.734 1319.54 246.875C1318.92 247.15 1318.24 247.263 1317.57 247.205C1317.35 247.181 1317.14 247.102 1316.95 246.976C1316.77 246.85 1316.61 246.679 1316.49 246.476C1316.4 246.194 1316.81 245.676 1317.07 245.159Z" fill="#7FFF52" stroke="#7FFF52" stroke-miterlimit="10"/>
<path d="M1398.67 461.2C1398.56 460.421 1398.56 459.627 1398.67 458.849C1399.02 457.979 1400.66 458.308 1400.98 459.389C1401.06 459.732 1401.06 460.09 1400.99 460.434C1400.91 460.778 1400.76 461.097 1400.55 461.364C1400.29 461.576 1399.43 461.247 1398.67 461.2Z" fill="#7FFF52" stroke="#7FFF52" stroke-miterlimit="10"/>
<path d="M1246.79 384.719C1246.79 384.249 1246.42 383.685 1246.57 383.308C1246.94 382.368 1248.58 382.509 1249.51 383.614C1249.63 383.81 1249.72 384.035 1249.75 384.271C1249.79 384.508 1249.77 384.749 1249.7 384.978C1249.19 386.059 1247.74 385.895 1246.79 384.719Z" fill="#7FFF52" stroke="#7FFF52" stroke-miterlimit="10"/>
<path d="M1128.45 559.663C1128.69 558.696 1129.03 557.764 1129.47 556.888C1129.6 556.7 1130.94 557.1 1131.18 557.547C1131.3 557.883 1131.35 558.248 1131.3 558.607C1131.25 558.966 1131.12 559.306 1130.92 559.592C1130.57 559.945 1129.69 559.663 1128.45 559.663Z" fill="#7FFF52" stroke="#7FFF52" stroke-miterlimit="10"/>
<path d="M1099.42 416.247L1101.17 415.8C1100.87 416.905 1100.59 418.034 1100.24 419.115C1099.87 419.096 1099.51 419.017 1099.16 418.88C1099.2 417.94 1099.33 417.023 1099.42 416.247Z" fill="#7FFF52" stroke="#7FFF52" stroke-miterlimit="10"/>
<path d="M1403.75 345.009C1404.04 344.267 1404.44 343.578 1404.92 342.964C1405.16 342.729 1405.74 342.964 1406.2 342.964C1406.2 343.646 1406.33 344.516 1406 344.939C1405.68 345.362 1404.88 344.986 1403.75 345.009Z" fill="#7FFF52" stroke="#7FFF52" stroke-miterlimit="10"/>
<path d="M966.947 583.879C966.947 582.868 966.817 582.022 967.12 581.528C967.423 581.034 968.482 580.611 968.828 580.846C969.021 580.954 969.186 581.114 969.307 581.31C969.427 581.507 969.499 581.734 969.517 581.969C969.534 582.205 969.496 582.441 969.406 582.656C969.315 582.871 969.176 583.057 969.001 583.197C968.59 583.714 967.877 583.667 966.947 583.879Z" fill="#7FFF52" stroke="#7FFF52" stroke-miterlimit="10"/>
<path d="M1022.36 497.453L1024.52 497.782C1024.33 498.699 1024.37 499.875 1023.87 500.415C1023.38 500.956 1022.38 500.204 1021.58 500.063L1022.36 497.453Z" fill="#7FFF52" stroke="#7FFF52" stroke-miterlimit="10"/>
<path d="M1326.78 529.24C1326.84 530.031 1326.77 530.828 1326.57 531.591C1326.42 531.769 1326.24 531.904 1326.03 531.984C1325.83 532.064 1325.61 532.086 1325.39 532.049C1325.17 532.011 1324.97 531.915 1324.8 531.769C1324.63 531.624 1324.49 531.433 1324.4 531.215C1324.34 530.879 1324.35 530.532 1324.42 530.199C1324.5 529.866 1324.64 529.555 1324.84 529.287C1325.16 528.958 1325.98 529.24 1326.78 529.24Z" fill="#7FFF52" stroke="#7FFF52" stroke-miterlimit="10"/>
<path d="M1360.71 594.012C1360.88 592.969 1361.21 591.967 1361.7 591.05C1362 590.673 1362.93 590.885 1363.6 590.814C1363.6 591.801 1363.47 592.782 1363.21 593.73C1363.08 594.035 1361.98 593.894 1360.71 594.012Z" fill="#7FFF52" stroke="#7FFF52" stroke-miterlimit="10"/>
<path d="M1431.06 573.487C1432.21 574.005 1433.22 574.146 1433.65 574.733C1434.09 575.321 1433.65 576.12 1433.52 576.849C1432.71 576.787 1431.91 576.564 1431.17 576.191C1430.84 576.05 1431.08 574.945 1431.06 573.487Z" fill="#7FFF52" stroke="#7FFF52" stroke-miterlimit="10"/>
<path d="M1226.79 520.141C1226.2 520.517 1225.55 521.269 1225.06 521.175C1224.3 520.864 1223.63 520.346 1223.11 519.671C1223.11 519.553 1223.35 518.542 1223.61 518.495C1224.2 518.271 1224.84 518.271 1225.42 518.495C1226 518.895 1226.52 519.386 1226.96 519.953L1226.79 520.141Z" fill="#7FFF52" stroke="#7FFF52" stroke-miterlimit="10"/>
<path d="M1159.46 480.714C1160.41 480.921 1161.33 481.261 1162.2 481.725C1162.4 481.889 1162.2 483.347 1161.71 483.606C1161.4 483.731 1161.06 483.778 1160.73 483.741C1160.4 483.704 1160.09 483.586 1159.8 483.394C1159.48 483.112 1159.61 482.148 1159.46 480.714Z" fill="#7FFF52" stroke="#7FFF52" stroke-miterlimit="10"/>
<path d="M1060.07 598.855C1059.64 599.819 1059.4 600.971 1059.03 601.018C1058.23 601.018 1056.87 601.018 1056.63 600.383C1056.07 599.231 1057.06 598.502 1058.06 598.338C1058.75 598.383 1059.43 598.558 1060.07 598.855Z" fill="#7FFF52" stroke="#7FFF52" stroke-miterlimit="10"/>
<path d="M1296.97 444.742L1299.5 445.4C1299.32 446.082 1299.35 447.023 1298.93 447.375C1298.65 447.506 1298.34 447.553 1298.03 447.512C1297.72 447.47 1297.43 447.342 1297.18 447.14C1296.84 446.647 1297.03 445.73 1296.97 444.742Z" fill="#7FFF52" stroke="#7FFF52" stroke-miterlimit="10"/>
<path d="M1045.71 776.69C1045.95 775.797 1045.97 774.833 1046.32 774.645C1046.66 774.457 1047.53 774.786 1048.13 774.88C1048 775.562 1048.03 776.432 1047.66 776.831C1047.29 777.231 1046.58 776.784 1045.71 776.69Z" fill="#7FFF52" stroke="#7FFF52" stroke-miterlimit="10"/>
<path d="M1212.19 803.07C1213.12 803.305 1213.94 803.258 1214.18 803.658C1214.42 804.057 1214.18 804.904 1214.18 805.562C1213.58 805.562 1212.75 805.703 1212.41 805.374C1212.06 805.045 1212.32 804.151 1212.19 803.07Z" fill="#7FFF52" stroke="#7FFF52" stroke-miterlimit="10"/>
<path d="M1399.84 779.536L1401.2 779.865L1400.6 781.628C1400.23 781.416 1399.62 781.275 1399.54 780.946C1399.45 780.617 1399.73 780.006 1399.84 779.536Z" fill="#7FFF52" stroke="#7FFF52" stroke-miterlimit="10"/>
<path d="M1178.79 314.516C1179.39 314.845 1180.17 315.033 1180.43 315.527C1180.69 316.021 1180 316.632 1179.72 317.22C1179.22 316.791 1178.75 316.31 1178.33 315.786C1178.2 315.621 1178.57 315.057 1178.79 314.516Z" fill="#7FFF52" stroke="#7FFF52" stroke-miterlimit="10"/>
<path d="M1186.25 619.545C1186.65 618.758 1187.11 618.01 1187.63 617.311C1187.8 617.1 1188.39 617.311 1188.8 617.311C1188.51 618.176 1188.19 619.023 1187.83 619.85C1187.29 619.822 1186.76 619.719 1186.25 619.545Z" fill="#7FFF52" stroke="#7FFF52" stroke-miterlimit="10"/>
<path d="M1299 795.993L1300.71 796.111L1300.21 798.133L1298.24 797.545L1299 795.993Z" fill="#7FFF52" stroke="#7FFF52" stroke-miterlimit="10"/>
<path d="M1123.91 788.305L1124.17 787.177C1124.49 787.338 1124.8 787.518 1125.1 787.717C1125.12 787.945 1125.06 788.173 1124.93 788.352C1124.59 788.371 1124.25 788.356 1123.91 788.305Z" fill="#7FFF52" stroke="#7FFF52" stroke-miterlimit="10"/>
<path d="M923.489 866.338L924.072 866.267L923.878 865.844L923.489 866.338Z" fill="white" stroke="#7FFF52" stroke-miterlimit="10"/>
<path d="M1304.15 596.739L1303.24 600.478C1302.23 600.009 1301.28 599.409 1300.4 598.691C1300.21 598.503 1300.82 596.927 1301.4 596.34C1301.58 596.116 1301.81 595.944 1302.07 595.84C1302.32 595.735 1302.6 595.701 1302.87 595.741C1303.14 595.78 1303.4 595.892 1303.62 596.066C1303.85 596.24 1304.02 596.472 1304.15 596.739Z" fill="#7FFF52" stroke="#7FFF52" stroke-miterlimit="10"/>
<path d="M1244.9 676.206C1245.53 675.289 1246.05 674.231 1246.27 674.278C1247.31 674.637 1248.31 675.151 1249.23 675.806C1249.36 676.01 1249.44 676.245 1249.46 676.491C1249.49 676.737 1249.46 676.986 1249.38 677.217C1249.24 677.417 1249.06 677.576 1248.86 677.679C1248.65 677.782 1248.42 677.825 1248.19 677.804C1247.07 677.346 1245.97 676.812 1244.9 676.206Z" fill="#7FFF52" stroke="#7FFF52" stroke-miterlimit="10"/>
<path d="M1153.32 665.179C1153.04 666.754 1153.15 668.095 1152.65 668.447C1152.26 668.63 1151.84 668.701 1151.42 668.651C1151.01 668.602 1150.61 668.434 1150.27 668.165C1150.08 667.748 1149.99 667.284 1150.01 666.818C1150.04 666.353 1150.17 665.901 1150.4 665.508C1150.75 665.015 1151.93 665.179 1153.32 665.179Z" fill="#7FFF52" stroke="#7FFF52" stroke-miterlimit="10"/>
<path d="M771.495 662.946C772.771 663.581 773.657 663.769 774.154 664.38C774.652 664.991 773.981 666.167 773.614 666.308C772.756 666.473 771.878 666.473 771.019 666.308L771.495 662.946Z" fill="#7FFF52" stroke="#7FFF52" stroke-miterlimit="10"/>
<path d="M1047.48 305.464C1047.96 306.452 1048.39 307.369 1048.78 308.285C1048.79 308.399 1048.76 308.512 1048.72 308.614C1048.67 308.716 1048.61 308.805 1048.52 308.873C1048.13 309.038 1047.38 309.249 1047.31 309.132C1046.84 308.037 1046.43 306.915 1046.08 305.77C1046.08 305.629 1046.32 305.135 1046.4 305.159C1046.77 305.221 1047.13 305.323 1047.48 305.464Z" fill="#7FFF52" stroke="#7FFF52" stroke-miterlimit="10"/>
<path d="M744.556 368.685C743.901 369.586 743.129 370.378 742.264 371.036C742.026 371.177 740.902 370.283 740.945 369.978C740.995 369.625 741.118 369.289 741.306 368.996C741.493 368.702 741.739 368.459 742.026 368.285C742.48 367.956 743.215 368.379 744.556 368.685Z" fill="#7FFF52" stroke="#7FFF52" stroke-miterlimit="10"/>
<path d="M916.138 377.854C916.131 377.009 916.247 376.167 916.484 375.362C917.068 374.327 918.646 374.657 919.23 375.973C919.446 376.49 919.23 377.784 918.862 377.878C917.957 377.999 917.042 377.991 916.138 377.854Z" fill="#7FFF52" stroke="#7FFF52" stroke-miterlimit="10"/>
<path d="M1062.86 691.84C1064.13 692.428 1065.02 692.616 1065.52 693.204C1065.61 693.539 1065.62 693.893 1065.55 694.233C1065.48 694.574 1065.34 694.891 1065.13 695.155C1064.32 695.324 1063.49 695.324 1062.68 695.155L1062.86 691.84Z" fill="#7FFF52" stroke="#7FFF52" stroke-miterlimit="10"/>
<path d="M1014.99 606.402C1015.36 605.25 1015.4 604.404 1015.79 604.051C1016.72 603.181 1017.58 603.792 1017.95 604.803C1018.15 605.344 1017.95 606.661 1017.67 606.708C1016.77 606.728 1015.87 606.625 1014.99 606.402Z" fill="#7FFF52" stroke="#7FFF52" stroke-miterlimit="10"/>
<path d="M889.912 685.492C890.95 685.845 892.074 686.056 892.074 686.268C892.067 687.106 891.834 687.924 891.404 688.619C891.231 688.878 889.718 688.619 889.696 688.337C889.657 687.383 889.73 686.427 889.912 685.492Z" fill="#7FFF52" stroke="#7FFF52" stroke-miterlimit="10"/>
<path d="M974.925 702.467C975.941 703.196 976.914 703.596 976.936 704.019C976.839 704.938 976.59 705.83 976.201 706.652C975.639 706.276 974.709 706.017 974.601 705.524C974.549 704.492 974.659 703.459 974.925 702.467Z" fill="#7FFF52" stroke="#7FFF52" stroke-miterlimit="10"/>
<path d="M1065.67 230.7C1066.27 230.446 1066.9 230.295 1067.55 230.253C1068.08 230.441 1068.54 230.834 1068.82 231.358C1068.82 231.499 1068.46 232.322 1068.11 232.463C1067.48 232.717 1066.81 232.821 1066.14 232.769C1065.92 232.744 1065.71 232.663 1065.53 232.532C1065.35 232.401 1065.19 232.225 1065.08 232.017C1064.98 231.735 1065.41 231.241 1065.67 230.7Z" fill="#7FFF52" stroke="#7FFF52" stroke-miterlimit="10"/>
<path d="M1144.37 448.01C1144.25 447.232 1144.25 446.438 1144.37 445.659C1144.71 444.789 1146.38 445.142 1146.68 446.223C1146.75 446.569 1146.74 446.925 1146.66 447.267C1146.58 447.609 1146.43 447.927 1146.23 448.198C1145.99 448.41 1145.17 448.081 1144.37 448.01Z" fill="#7FFF52" stroke="#7FFF52" stroke-miterlimit="10"/>
<path d="M993.433 369.131C993.433 368.661 993.087 368.097 993.238 367.721C993.606 366.78 995.27 366.968 996.178 368.097C996.302 368.294 996.382 368.52 996.412 368.757C996.442 368.993 996.421 369.234 996.351 369.461C995.984 370.519 994.47 370.33 993.433 369.131Z" fill="#7FFF52" stroke="#7FFF52" stroke-miterlimit="10"/>
<path d="M872.875 542.218C873.109 541.244 873.466 540.311 873.934 539.444C874.064 539.255 875.405 539.655 875.643 540.125C875.752 540.467 875.781 540.833 875.728 541.189C875.675 541.546 875.542 541.884 875.34 542.171C874.907 542.5 874.107 542.218 872.875 542.218Z" fill="#7FFF52" stroke="#7FFF52" stroke-miterlimit="10"/>
<path d="M845.763 398.332L847.514 397.932C847.211 399.037 846.908 400.142 846.541 401.224C846.171 401.197 845.806 401.109 845.46 400.965C845.519 400.082 845.62 399.203 845.763 398.332Z" fill="#7FFF52" stroke="#7FFF52" stroke-miterlimit="10"/>
<path d="M1151.03 331.914C1151.32 331.182 1151.72 330.5 1152.19 329.892C1152.45 329.657 1153.04 329.892 1153.47 329.892C1153.47 330.574 1153.47 331.467 1153.25 331.891C1153.04 332.314 1152.13 331.914 1151.03 331.914Z" fill="#7FFF52" stroke="#7FFF52" stroke-miterlimit="10"/>
<path d="M711.065 563.871C711.065 562.86 710.957 562.014 711.26 561.52C711.562 561.026 712.622 560.627 712.989 560.838C713.18 560.951 713.341 561.114 713.457 561.313C713.574 561.512 713.642 561.739 713.655 561.975C713.668 562.21 713.625 562.445 713.532 562.657C713.438 562.87 713.296 563.053 713.119 563.189C712.751 563.707 711.973 563.66 711.065 563.871Z" fill="#7FFF52" stroke="#7FFF52" stroke-miterlimit="10"/>
<path d="M767.625 478.315L769.787 478.692C769.571 479.608 769.614 480.761 769.095 481.301C768.576 481.842 767.603 481.066 766.933 480.902L767.625 478.315Z" fill="#7FFF52" stroke="#7FFF52" stroke-miterlimit="10"/>
<path d="M1071.66 514.922C1071.69 515.716 1071.6 516.51 1071.4 517.273C1071.25 517.449 1071.06 517.582 1070.85 517.658C1070.65 517.735 1070.42 517.753 1070.21 517.711C1069.99 517.668 1069.79 517.567 1069.62 517.417C1069.45 517.266 1069.32 517.071 1069.24 516.849C1069.16 516.517 1069.17 516.172 1069.24 515.841C1069.32 515.51 1069.46 515.203 1069.67 514.945C1069.97 514.71 1070.79 514.898 1071.66 514.922Z" fill="#7FFF52" stroke="#7FFF52" stroke-miterlimit="10"/>
<path d="M1104.63 580.211C1104.82 579.175 1105.17 578.181 1105.67 577.272C1105.97 576.896 1106.92 577.108 1107.57 577.061C1107.56 578.041 1107.42 579.015 1107.16 579.952C1107.03 580.282 1105.93 580.117 1104.63 580.211Z" fill="#7FFF52" stroke="#7FFF52" stroke-miterlimit="10"/>
<path d="M1175.26 560.909C1176.18 561.163 1177.05 561.593 1177.84 562.178C1178.14 562.531 1177.84 563.565 1177.69 564.294C1176.87 564.217 1176.07 563.978 1175.33 563.589C1175 563.354 1175.26 562.249 1175.26 560.909Z" fill="#7FFF52" stroke="#7FFF52" stroke-miterlimit="10"/>
<path d="M971.725 504.224C971.142 504.6 970.471 505.353 969.996 505.235C969.232 504.927 968.559 504.399 968.05 503.707C967.942 503.707 968.309 502.602 968.569 502.531C969.172 502.363 969.809 502.413 970.385 502.673C970.955 503.09 971.465 503.597 971.898 504.177L971.725 504.224Z" fill="#7FFF52" stroke="#7FFF52" stroke-miterlimit="10"/>
<path d="M904.939 463.762C905.888 463.973 906.805 464.33 907.663 464.82C907.703 465.152 907.677 465.49 907.588 465.81C907.499 466.13 907.347 466.426 907.144 466.678C906.832 466.8 906.497 466.842 906.167 466.802C905.838 466.761 905.521 466.638 905.241 466.442C904.896 466.16 905.177 465.196 904.939 463.762Z" fill="#7FFF52" stroke="#7FFF52" stroke-miterlimit="10"/>
<path d="M803.97 580.305C803.516 581.269 803.256 582.398 802.91 582.445C802.11 582.445 800.748 582.327 800.51 581.787C799.97 580.635 800.964 579.906 801.959 579.765C802.651 579.831 803.329 580.014 803.97 580.305Z" fill="#7FFF52" stroke="#7FFF52" stroke-miterlimit="10"/>
<path d="M1042.9 430.071L1045.43 430.753C1045.24 431.435 1045.24 432.399 1044.83 432.752C1044.54 432.871 1044.23 432.908 1043.93 432.859C1043.62 432.809 1043.34 432.675 1043.1 432.469C1042.75 431.858 1042.94 430.941 1042.9 430.071Z" fill="#7FFF52" stroke="#7FFF52" stroke-miterlimit="10"/>
<path d="M787.278 757.906C787.516 757.012 787.538 756.048 787.905 755.86C788.273 755.672 789.094 756.025 789.721 756.142C789.57 756.801 789.592 757.671 789.202 758.07C788.813 758.47 788.1 758 787.278 757.906Z" fill="#7FFF52" stroke="#7FFF52" stroke-miterlimit="10"/>
<path d="M953.412 786.895C954.342 787.153 955.164 787.13 955.38 787.529C955.596 787.929 955.38 788.775 955.38 789.434C954.775 789.434 953.975 789.434 953.629 789.199C953.283 788.964 953.477 787.976 953.412 786.895Z" fill="#7FFF52" stroke="#7FFF52" stroke-miterlimit="10"/>
<path d="M1141.3 766.275L1142.64 766.605L1142.01 768.368C1141.64 768.156 1141.06 767.992 1140.97 767.686C1140.89 767.38 1141.17 766.816 1141.3 766.275Z" fill="#7FFF52" stroke="#7FFF52" stroke-miterlimit="10"/>
<path d="M926.473 297.871C927.078 298.223 927.857 298.411 928.095 298.905C928.332 299.399 927.641 300.01 927.381 300.574C926.879 300.145 926.416 299.665 925.997 299.14C925.889 298.952 926.257 298.411 926.473 297.871Z" fill="#7FFF52" stroke="#7FFF52" stroke-miterlimit="10"/>
<path d="M929.867 602.993C930.274 602.212 930.744 601.472 931.273 600.783C931.446 600.571 932.03 600.783 932.44 600.783C932.148 601.647 931.816 602.494 931.446 603.322C930.91 603.28 930.38 603.17 929.867 602.993Z" fill="#7FFF52" stroke="#7FFF52" stroke-miterlimit="10"/>
<path d="M1040.24 781.205H1041.95L1041.41 783.251L1039.46 782.616L1040.24 781.205Z" fill="#7FFF52" stroke="#7FFF52" stroke-miterlimit="10"/>
<path d="M1252.28 425.487V423.488L1254.22 423.864L1253.75 425.98L1252.28 425.487Z" fill="#7FFF52" stroke="#7FFF52" stroke-miterlimit="10"/>
<path d="M865.264 770.743C865.264 770.367 865.459 769.99 865.567 769.638C865.887 769.78 866.191 769.962 866.474 770.178C866.494 770.406 866.432 770.634 866.301 770.813C865.955 770.825 865.607 770.801 865.264 770.743Z" fill="#7FFF52" stroke="#7FFF52" stroke-miterlimit="10"/>
<path d="M1222.83 491.623H1224.23C1224.3 492.236 1224.26 492.857 1224.13 493.456C1224.13 493.715 1223.33 493.668 1222.87 493.739L1222.83 491.623Z" fill="#7FFF52" stroke="#7FFF52" stroke-miterlimit="10"/>
<path d="M648.602 825.641L649.185 825.617L649.034 825.193L648.602 825.641Z" fill="white" stroke="#7FFF52" stroke-miterlimit="10"/>
<path d="M1045.86 586.066L1044.72 589.733C1043.74 589.183 1042.84 588.504 1042.01 587.711C1041.84 587.523 1042.56 585.995 1043.14 585.525C1043.33 585.316 1043.57 585.161 1043.83 585.074C1044.09 584.986 1044.36 584.968 1044.63 585.021C1044.9 585.074 1045.15 585.197 1045.36 585.379C1045.58 585.561 1045.75 585.796 1045.86 586.066Z" fill="#7FFF52" stroke="#7FFF52" stroke-miterlimit="10"/>
<path d="M981.606 660.783C982.276 659.913 982.86 658.878 983.076 658.949C984.102 659.397 985.069 659.99 985.952 660.712C986.06 660.929 986.116 661.171 986.116 661.417C986.116 661.664 986.06 661.906 985.952 662.123C985.805 662.309 985.617 662.452 985.405 662.539C985.193 662.625 984.965 662.652 984.741 662.616C983.665 662.071 982.618 661.458 981.606 660.783Z" fill="#7FFF52" stroke="#7FFF52" stroke-miterlimit="10"/>
<path d="M890.972 642.703C890.583 644.231 890.604 645.571 890.107 645.9C889.707 646.051 889.278 646.087 888.861 646.004C888.445 645.922 888.055 645.724 887.729 645.43C887.571 644.999 887.516 644.532 887.569 644.071C887.622 643.611 887.781 643.173 888.031 642.797C888.399 642.35 889.588 642.703 890.972 642.703Z" fill="#7FFF52" stroke="#7FFF52" stroke-miterlimit="10"/>
<path d="M510.251 611.104C511.483 611.833 512.413 612.092 512.824 612.727C513.235 613.362 512.521 614.514 512.132 614.631C511.271 614.73 510.4 614.666 509.559 614.443L510.251 611.104Z" fill="#7FFF52" stroke="#7FFF52" stroke-miterlimit="10"/>
<path d="M808.856 275.629C809.245 276.664 809.634 277.58 809.958 278.544C809.958 278.659 809.929 278.771 809.876 278.87C809.823 278.969 809.747 279.051 809.656 279.109C809.267 279.25 808.488 279.391 808.445 279.273C808.045 278.152 807.705 277.006 807.429 275.841C807.429 275.676 807.71 275.206 807.796 275.229C808.163 275.315 808.519 275.45 808.856 275.629Z" fill="#7FFF52" stroke="#7FFF52" stroke-miterlimit="10"/>
<path d="M502.554 315.456C501.837 316.256 501.022 316.944 500.132 317.502C499.873 317.502 498.813 316.656 498.878 316.326C498.955 315.984 499.102 315.664 499.308 315.391C499.514 315.119 499.773 314.9 500.067 314.751C500.543 314.563 501.235 315.033 502.554 315.456Z" fill="#7FFF52" stroke="#7FFF52" stroke-miterlimit="10"/>
<path d="M673.121 337.815C673.17 337.007 673.338 336.214 673.618 335.464C674.266 334.476 675.91 334.923 676.32 336.287C676.493 336.828 676.126 338.074 675.823 338.144C674.913 338.167 674.004 338.056 673.121 337.815Z" fill="#7FFF52" stroke="#7FFF52" stroke-miterlimit="10"/>
<path d="M798.997 662.311C800.229 663.016 801.159 663.251 801.57 663.886C801.639 664.229 801.627 664.585 801.537 664.922C801.446 665.259 801.279 665.566 801.051 665.814C800.243 665.977 799.415 665.977 798.608 665.814L798.997 662.311Z" fill="#7FFF52" stroke="#7FFF52" stroke-miterlimit="10"/>
<path d="M756.815 573.487C757.247 572.358 757.355 571.536 757.766 571.136C758.76 570.337 759.56 570.995 759.928 572.053C759.986 572.375 759.981 572.706 759.914 573.026C759.847 573.346 759.719 573.647 759.539 573.91C758.617 573.906 757.7 573.763 756.815 573.487Z" fill="#7FFF52" stroke="#7FFF52" stroke-miterlimit="10"/>
<path d="M626.895 642.656C627.911 643.102 629.057 643.408 629.057 643.596C629.006 644.452 628.72 645.271 628.236 645.947C628.041 646.182 626.549 645.736 626.528 645.524C626.548 644.556 626.672 643.593 626.895 642.656Z" fill="#7FFF52" stroke="#7FFF52" stroke-miterlimit="10"/>
<path d="M710.589 666.143C711.541 666.966 712.492 667.413 712.47 667.859C712.323 668.766 712.022 669.635 711.584 670.422C711.043 669.999 710.114 669.67 710.049 669.176C710.076 668.14 710.259 667.115 710.589 666.143Z" fill="#7FFF52" stroke="#7FFF52" stroke-miterlimit="10"/>
<path d="M831.86 202.581C832.471 202.35 833.117 202.247 833.763 202.276C834.288 202.493 834.714 202.923 834.952 203.475C834.952 203.616 834.52 204.415 834.174 204.533C833.535 204.732 832.864 204.78 832.206 204.674C831.991 204.629 831.787 204.532 831.611 204.39C831.435 204.247 831.291 204.063 831.19 203.851C831.104 203.545 831.666 203.075 831.86 202.581Z" fill="#7FFF52" stroke="#7FFF52" stroke-miterlimit="10"/>
<path d="M896.182 425.369C896.146 424.575 896.234 423.78 896.442 423.018C896.852 422.172 898.474 422.666 898.712 423.771C898.753 424.119 898.722 424.473 898.621 424.807C898.52 425.14 898.352 425.445 898.128 425.699C897.782 425.934 896.961 425.51 896.182 425.369Z" fill="#7FFF52" stroke="#7FFF52" stroke-miterlimit="10"/>
<path d="M750.782 335.088C750.782 334.618 750.501 334.03 750.782 333.677C751.215 332.76 752.944 333.066 753.701 334.265C753.797 334.477 753.846 334.71 753.846 334.947C753.846 335.183 753.797 335.416 753.701 335.629C753.139 336.663 751.669 336.357 750.782 335.088Z" fill="#7FFF52" stroke="#7FFF52" stroke-miterlimit="10"/>
<path d="M619.241 498.441C619.545 497.494 619.96 496.593 620.474 495.76C620.79 495.757 621.103 495.829 621.39 495.971C621.678 496.113 621.933 496.322 622.139 496.583C622.226 496.929 622.233 497.293 622.157 497.643C622.082 497.992 621.927 498.315 621.706 498.582C621.339 498.887 620.452 498.535 619.241 498.441Z" fill="#7FFF52" stroke="#7FFF52" stroke-miterlimit="10"/>
<path d="M601.577 352.839L603.35 352.557C602.961 353.638 602.593 354.72 602.161 355.778C601.8 355.721 601.45 355.602 601.123 355.425C601.229 354.554 601.381 353.691 601.577 352.839Z" fill="#7FFF52" stroke="#7FFF52" stroke-miterlimit="10"/>
<path d="M910.387 310.166C910.749 309.465 911.192 308.817 911.706 308.239C911.965 308.027 912.549 308.239 912.982 308.239C912.982 308.92 912.982 309.814 912.636 310.214C912.29 310.613 911.511 310.166 910.387 310.166Z" fill="#7FFF52" stroke="#7FFF52" stroke-miterlimit="10"/>
<path d="M456.437 507.657C456.566 506.67 456.437 505.8 456.783 505.306C457.129 504.812 458.188 504.507 458.534 504.765C458.717 504.89 458.868 505.064 458.973 505.269C459.078 505.475 459.132 505.706 459.132 505.941C459.132 506.176 459.078 506.407 458.973 506.613C458.868 506.818 458.717 506.992 458.534 507.117C458.08 507.657 457.345 507.422 456.437 507.657Z" fill="#7FFF52" stroke="#7FFF52" stroke-miterlimit="10"/>
<path d="M518.424 426.592L520.456 427.133C520.196 428.002 520.153 429.178 519.591 429.672C519.029 430.165 518.143 429.319 517.429 429.107L518.424 426.592Z" fill="#7FFF52" stroke="#7FFF52" stroke-miterlimit="10"/>
<path d="M819.277 486.497C819.267 487.299 819.136 488.093 818.888 488.848C818.729 489.022 818.532 489.147 818.316 489.213C818.1 489.278 817.871 489.281 817.653 489.222C817.435 489.163 817.235 489.043 817.073 488.875C816.91 488.706 816.791 488.494 816.726 488.261C816.675 487.925 816.7 487.58 816.798 487.257C816.896 486.934 817.064 486.641 817.288 486.403C817.634 486.074 818.434 486.497 819.277 486.497Z" fill="#7FFF52" stroke="#7FFF52" stroke-miterlimit="10"/>
<path d="M847.946 554.208C848.208 553.188 848.617 552.22 849.157 551.34C849.503 550.987 850.433 551.34 851.081 551.34C851.008 552.315 850.804 553.273 850.476 554.185C850.325 554.443 849.244 554.208 847.946 554.208Z" fill="#7FFF52" stroke="#7FFF52" stroke-miterlimit="10"/>
<path d="M919.662 540.384C920.765 540.995 921.673 541.23 922.127 541.865C922.581 542.5 921.954 543.229 921.846 543.957C921.03 543.822 920.245 543.519 919.533 543.064C919.252 542.923 919.576 541.724 919.662 540.384Z" fill="#7FFF52" stroke="#7FFF52" stroke-miterlimit="10"/>
<path d="M720.319 468.159C719.713 468.488 719 469.193 718.524 469.029C717.786 468.66 717.151 468.084 716.686 467.359C716.686 467.218 717.032 466.278 717.27 466.231C717.888 466.118 718.522 466.217 719.086 466.513C719.629 466.971 720.103 467.519 720.492 468.135L720.319 468.159Z" fill="#7FFF52" stroke="#7FFF52" stroke-miterlimit="10"/>
<path d="M656.343 422.642C657.267 422.945 658.153 423.372 658.98 423.912C659.153 424.076 658.764 425.51 658.353 425.722C658.046 425.813 657.723 425.828 657.409 425.767C657.095 425.706 656.797 425.57 656.537 425.369C656.148 425.04 656.364 424.076 656.343 422.642Z" fill="#7FFF52" stroke="#7FFF52" stroke-miterlimit="10"/>
<path d="M548.023 531.168C547.525 532.085 547.179 533.213 546.833 533.213C546.033 533.213 544.671 532.954 544.498 532.367C544.023 531.191 545.06 530.533 546.055 530.486C546.743 530.584 547.409 530.815 548.023 531.168Z" fill="#7FFF52" stroke="#7FFF52" stroke-miterlimit="10"/>
<path d="M796.164 399.507L798.629 400.401C798.413 401.059 798.348 402.023 797.916 402.329C797.62 402.428 797.306 402.443 797.003 402.373C796.7 402.303 796.419 402.15 796.186 401.929C795.883 401.459 796.143 400.565 796.164 399.507Z" fill="#7FFF52" stroke="#7FFF52" stroke-miterlimit="10"/>
<path d="M519.786 706.981C520.11 706.111 520.196 705.171 520.564 705.006C520.932 704.842 521.753 705.241 522.359 705.406C522.142 706.064 522.121 706.934 521.71 707.31C521.299 707.687 520.607 707.146 519.786 706.981Z" fill="#7FFF52" stroke="#7FFF52" stroke-miterlimit="10"/>
<path d="M683.628 748.713C684.536 749.042 685.358 749.089 685.552 749.489C685.747 749.888 685.552 750.735 685.401 751.393C684.817 751.393 683.996 751.393 683.671 751.04C683.347 750.688 683.606 749.818 683.628 748.713Z" fill="#7FFF52" stroke="#7FFF52" stroke-miterlimit="10"/>
<path d="M872.378 742.765L873.697 743.211L872.962 744.928C872.616 744.669 872.032 744.457 871.967 744.152C871.902 743.846 872.226 743.164 872.378 742.765Z" fill="#7FFF52" stroke="#7FFF52" stroke-miterlimit="10"/>
<path d="M688.644 258.843C689.206 259.242 689.985 259.478 690.201 259.995C690.417 260.512 689.66 261.076 689.358 261.617C688.887 261.146 688.46 260.626 688.082 260.065C687.974 259.877 688.385 259.36 688.644 258.843Z" fill="#7FFF52" stroke="#7FFF52" stroke-miterlimit="10"/>
<path d="M672.126 563.472C672.587 562.718 673.108 562.01 673.683 561.356C673.877 561.167 674.439 561.356 674.828 561.356C674.461 562.178 674.115 563.048 673.683 563.824C673.154 563.764 672.632 563.646 672.126 563.472Z" fill="#7FFF52" stroke="#7FFF52" stroke-miterlimit="10"/>
<path d="M770.609 749.818L772.317 750.076L771.646 752.075L769.744 751.276L770.609 749.818Z" fill="#7FFF52" stroke="#7FFF52" stroke-miterlimit="10"/>
<path d="M1005.3 411.263V409.265L1007.23 409.805L1006.62 411.874L1005.3 411.263Z" fill="#7FFF52" stroke="#7FFF52" stroke-miterlimit="10"/>
<path d="M596.756 725.813C596.885 725.437 596.993 725.085 597.123 724.732C597.434 724.894 597.725 725.1 597.987 725.343C597.987 725.343 597.879 725.955 597.793 725.955C597.444 725.942 597.097 725.895 596.756 725.813Z" fill="#7FFF52" stroke="#7FFF52" stroke-miterlimit="10"/>
<path d="M971.617 474.954H973.021C973.052 475.566 972.978 476.18 972.805 476.764C972.805 476.999 971.984 476.905 971.531 476.952L971.617 474.954Z" fill="#7FFF52" stroke="#7FFF52" stroke-miterlimit="10"/>
<path d="M326.344 699.811L326.884 699.976L326.862 699.505L326.344 699.811Z" fill="white" stroke="#7FFF52" stroke-miterlimit="10"/>
<path d="M769.419 590.932L767.366 594.083C766.549 593.26 765.824 592.337 765.203 591.332C765.095 591.097 766.176 589.851 766.868 589.592C767.108 589.426 767.382 589.329 767.666 589.311C767.949 589.293 768.232 589.354 768.488 589.488C768.743 589.623 768.963 589.826 769.126 590.079C769.289 590.331 769.39 590.625 769.419 590.932Z" fill="#7FFF52" stroke="#7FFF52" stroke-miterlimit="10"/>
<path d="M688.471 643.056C689.358 642.421 690.179 641.621 690.352 641.762C691.233 642.482 692.013 643.337 692.666 644.302C692.727 644.538 692.731 644.788 692.678 645.026C692.625 645.265 692.517 645.485 692.363 645.665C692.172 645.807 691.95 645.894 691.72 645.919C691.49 645.943 691.257 645.905 691.044 645.806C690.143 644.939 689.284 644.02 688.471 643.056Z" fill="#7FFF52" stroke="#7FFF52" stroke-miterlimit="10"/>
<path d="M606.139 598.056C605.382 599.443 605.058 600.736 604.474 600.877C604.051 600.902 603.629 600.807 603.25 600.6C602.871 600.394 602.548 600.085 602.312 599.702C602.284 599.253 602.357 598.803 602.527 598.393C602.697 597.983 602.957 597.625 603.285 597.35C603.761 596.998 604.799 597.656 606.139 598.056Z" fill="#7FFF52" stroke="#7FFF52" stroke-miterlimit="10"/>
<path d="M248.834 451.654C249.85 452.736 250.628 453.253 250.888 454.005C250.996 454.358 250.153 455.628 249.742 455.604C248.888 455.445 248.067 455.118 247.32 454.64L248.834 451.654Z" fill="#7FFF52" stroke="#7FFF52" stroke-miterlimit="10"/>
<path d="M621.944 220.685C622.052 221.79 622.182 222.801 622.247 223.835C622.214 223.943 622.158 224.04 622.082 224.118C622.007 224.196 621.915 224.252 621.814 224.282C621.382 224.282 620.625 224.282 620.604 224.07C620.539 222.864 620.539 221.655 620.604 220.45C620.604 220.285 621.036 219.932 621.122 219.979C621.412 220.192 621.686 220.428 621.944 220.685Z" fill="#7FFF52" stroke="#7FFF52" stroke-miterlimit="10"/>
<path d="M317.653 165.552C316.758 166.107 315.798 166.526 314.799 166.798C314.518 166.798 313.739 165.575 313.891 165.293C314.051 164.982 314.275 164.714 314.544 164.51C314.814 164.307 315.123 164.172 315.448 164.118C315.945 164.094 316.485 164.776 317.653 165.552Z" fill="#7FFF52" stroke="#7FFF52" stroke-miterlimit="10"/>
<path d="M475.614 239.023C476.068 238.059 476.241 237.236 476.717 236.813C477.604 236.061 479.052 237.001 479.117 238.435C479.117 239 478.447 240.081 478.144 240.058C477.261 239.842 476.409 239.494 475.614 239.023Z" fill="#7FFF52" stroke="#7FFF52" stroke-miterlimit="10"/>
<path d="M512.781 588.863C513.797 589.921 514.597 590.439 514.943 591.214C515.289 591.99 514.337 592.884 513.948 592.884C513.131 592.777 512.339 592.506 511.613 592.084L512.781 588.863Z" fill="#7FFF52" stroke="#7FFF52" stroke-miterlimit="10"/>
<path d="M495.181 490.753C495.916 489.789 496.219 489.036 496.695 488.848C497.862 488.378 498.468 489.271 498.468 490.353C498.468 490.941 497.797 492.069 497.603 492.022C496.745 491.724 495.93 491.297 495.181 490.753Z" fill="#7FFF52" stroke="#7FFF52" stroke-miterlimit="10"/>
<path d="M352.657 517.555C353.522 518.284 354.516 518.919 354.451 519.107C354.181 519.92 353.692 520.625 353.046 521.129C352.787 521.317 351.468 520.447 351.511 520.212C351.789 519.278 352.174 518.385 352.657 517.555Z" fill="#7FFF52" stroke="#7FFF52" stroke-miterlimit="10"/>
<path d="M426.946 565.611C427.659 566.692 428.459 567.421 428.33 567.821C427.952 568.644 427.439 569.385 426.816 570.007C426.405 569.443 425.605 568.855 425.67 568.338C425.959 567.361 426.389 566.44 426.946 565.611Z" fill="#7FFF52" stroke="#7FFF52" stroke-miterlimit="10"/>
<path d="M662.851 157.582C663.495 157.558 664.138 157.654 664.753 157.864C665.195 158.246 665.494 158.788 665.596 159.392C665.596 159.557 664.926 160.144 664.559 160.144C663.895 160.151 663.238 159.998 662.634 159.698C662.438 159.591 662.266 159.435 662.135 159.243C662.004 159.051 661.915 158.828 661.878 158.593C661.878 158.287 662.44 157.981 662.851 157.582Z" fill="#7FFF52" stroke="#7FFF52" stroke-miterlimit="10"/>
<path d="M667.175 391.067C667.32 390.234 667.606 389.437 668.018 388.716C668.623 388.058 670.072 388.998 670.007 390.127C669.959 390.478 669.839 390.812 669.656 391.105C669.472 391.398 669.23 391.643 668.948 391.82C668.558 392.078 667.867 391.42 667.175 391.067Z" fill="#7FFF52" stroke="#7FFF52" stroke-miterlimit="10"/>
<path d="M550.876 260.065C550.876 259.595 550.876 258.96 551.136 258.678C551.785 257.926 553.298 258.678 553.774 260.112C553.826 260.348 553.829 260.593 553.78 260.83C553.731 261.066 553.633 261.287 553.493 261.476C552.757 262.299 551.439 261.57 550.876 260.065Z" fill="#7FFF52" stroke="#7FFF52" stroke-miterlimit="10"/>
<path d="M382.494 376.773C383.027 375.955 383.66 375.219 384.375 374.586C384.548 374.445 385.672 375.339 385.737 375.856C385.736 376.216 385.652 376.57 385.494 376.886C385.335 377.202 385.107 377.47 384.829 377.666C384.375 377.854 383.64 377.243 382.494 376.773Z" fill="#7FFF52" stroke="#7FFF52" stroke-miterlimit="10"/>
<path d="M403.055 231.617L404.85 231.899C404.201 232.816 403.552 233.757 402.86 234.627C402.525 234.466 402.218 234.243 401.952 233.968C402.28 233.163 402.648 232.379 403.055 231.617Z" fill="#7FFF52" stroke="#7FFF52" stroke-miterlimit="10"/>
<path d="M710.589 284.728C711.113 284.173 711.693 283.684 712.319 283.271C712.643 283.271 713.14 283.553 713.551 283.741C713.27 284.352 713.141 285.245 712.708 285.504C712.276 285.763 711.562 285.151 710.589 284.728Z" fill="#7FFF52" stroke="#7FFF52" stroke-miterlimit="10"/>
<path d="M223.862 336.029C224.229 335.112 224.337 334.242 224.77 333.96C225.202 333.677 226.327 333.63 226.586 333.96C226.752 334.137 226.87 334.359 226.928 334.604C226.986 334.849 226.981 335.106 226.914 335.348C226.847 335.59 226.721 335.807 226.549 335.977C226.377 336.147 226.165 336.262 225.937 336.311C225.44 336.381 224.77 336.029 223.862 336.029Z" fill="#7FFF52" stroke="#7FFF52" stroke-miterlimit="10"/>
<path d="M304.226 277.063L306.042 278.216C305.567 278.991 305.221 280.096 304.572 280.402C303.924 280.708 303.253 279.626 302.561 279.156L304.226 277.063Z" fill="#7FFF52" stroke="#7FFF52" stroke-miterlimit="10"/>
<path d="M577.578 426.333C577.358 427.075 577.029 427.774 576.605 428.402C575.913 429.06 574.573 428.238 574.638 427.18C574.687 426.841 574.803 426.519 574.979 426.235C575.154 425.95 575.385 425.711 575.654 425.534C576.108 425.369 576.8 425.981 577.578 426.333Z" fill="#7FFF52" stroke="#7FFF52" stroke-miterlimit="10"/>
<path d="M587.653 500.016C588.453 498.958 588.864 498.041 589.556 497.665C590.248 497.289 590.788 497.994 591.415 498.205C591.085 499.114 590.641 499.968 590.097 500.745C589.859 500.98 588.886 500.392 587.653 500.016Z" fill="#7FFF52" stroke="#7FFF52" stroke-miterlimit="10"/>
<path d="M660.04 508.598C660.948 509.538 661.769 510.032 662.05 510.761C662.332 511.49 661.532 512.054 661.229 512.712C660.486 512.328 659.812 511.802 659.24 511.16C659.024 510.808 659.607 509.867 660.04 508.598Z" fill="#7FFF52" stroke="#7FFF52" stroke-miterlimit="10"/>
<path d="M487.311 378.536C486.641 378.536 485.776 379.1 485.365 378.818C484.753 378.232 484.297 377.476 484.047 376.632C484.047 376.491 484.652 375.691 484.89 375.738C485.511 375.815 486.093 376.103 486.555 376.561C486.949 377.168 487.262 377.833 487.484 378.536H487.311Z" fill="#7FFF52" stroke="#7FFF52" stroke-miterlimit="10"/>
<path d="M437.627 315.339C438.43 315.901 439.158 316.581 439.789 317.361C439.918 317.549 439.162 318.818 438.708 318.913C438.374 318.906 438.046 318.816 437.75 318.649C437.453 318.481 437.197 318.242 437 317.949C436.848 317.572 437.302 316.726 437.627 315.339Z" fill="#7FFF52" stroke="#7FFF52" stroke-miterlimit="10"/>
<path d="M305.697 386.435C304.983 387.164 304.378 388.152 304.032 388.034C303.253 387.823 302.064 387.141 301.999 386.529C301.848 385.236 303.016 384.931 303.988 385.166C304.551 385.401 305.005 385.895 305.697 386.435Z" fill="#7FFF52" stroke="#7FFF52" stroke-miterlimit="10"/>
<path d="M577.794 335.793L579.956 337.392C579.567 337.956 579.286 338.85 578.767 339.014C578.459 339.027 578.154 338.948 577.883 338.786C577.613 338.625 577.388 338.387 577.232 338.098C577.059 337.533 577.535 336.734 577.794 335.793Z" fill="#7FFF52" stroke="#7FFF52" stroke-miterlimit="10"/>
<path d="M233.267 546.638C233.786 545.909 234.11 545.016 234.521 544.969C234.932 544.922 235.58 545.58 236.121 545.909C235.775 546.473 235.515 547.296 235.018 547.531C234.521 547.767 234.024 547.061 233.267 546.638Z" fill="#7FFF52" stroke="#7FFF52" stroke-miterlimit="10"/>
<path d="M379.791 636.637C380.569 637.225 381.369 637.531 381.456 637.977C381.542 638.424 381.067 639.153 380.829 639.764C380.267 639.482 379.467 639.341 379.25 638.871C379.034 638.401 379.488 637.672 379.791 636.637Z" fill="#7FFF52" stroke="#7FFF52" stroke-miterlimit="10"/>
<path d="M562.508 688.384L563.676 689.231L562.508 690.641C562.249 690.289 561.73 689.912 561.773 689.583C561.817 689.254 562.249 688.69 562.508 688.384Z" fill="#7FFF52" stroke="#7FFF52" stroke-miterlimit="10"/>
<path d="M510.856 167.926C511.31 168.491 511.981 168.961 512.045 169.525C512.11 170.089 511.267 170.371 510.835 170.818C510.504 170.222 510.229 169.592 510.013 168.937C509.948 168.726 510.489 168.349 510.856 167.926Z" fill="#7FFF52" stroke="#7FFF52" stroke-miterlimit="10"/>
<path d="M416.546 455.299C417.19 454.731 417.869 454.212 418.579 453.747C418.817 453.747 419.292 454.053 419.66 454.241C419.117 454.941 418.54 455.608 417.93 456.239C417.93 456.239 417.26 455.934 416.546 455.299Z" fill="#7FFF52" stroke="#7FFF52" stroke-miterlimit="10"/>
<path d="M463.009 664.121L464.588 664.897L463.42 666.59L461.799 665.273L463.009 664.121Z" fill="#7FFF52" stroke="#7FFF52" stroke-miterlimit="10"/>
<path d="M775.452 410.746L776.035 408.841L777.743 409.946L776.619 411.757L775.452 410.746Z" fill="#7FFF52" stroke="#7FFF52" stroke-miterlimit="10"/>
<path d="M302.302 588.181L302.929 587.241C303.181 587.503 303.405 587.794 303.598 588.111C303.598 588.111 303.339 588.651 303.253 588.628C302.922 588.518 302.603 588.368 302.302 588.181Z" fill="#7FFF52" stroke="#7FFF52" stroke-miterlimit="10"/>
<path d="M726.783 461.623L728.145 462.07C728.008 462.674 727.774 463.247 727.453 463.763C727.302 463.951 726.632 463.645 726.178 463.551L726.783 461.623Z" fill="#7FFF52" stroke="#7FFF52" stroke-miterlimit="10"/>
<path d="M75.0026 534.084L75.542 534.319L75.5636 533.848L75.0026 534.084Z" fill="white" stroke="#7FFF52" stroke-miterlimit="10"/>
<path d="M527.05 485.345L524.65 488.213C523.964 487.285 523.377 486.276 522.899 485.204C522.899 484.945 524.023 483.84 524.758 483.676C525.494 483.511 526.683 483.37 527.05 485.345Z" fill="#7FFF52" stroke="#7FFF52" stroke-miterlimit="10"/>
<path d="M440.805 526.231C441.756 525.737 442.664 525.032 442.837 525.196C443.626 526.033 444.296 526.991 444.826 528.041C444.978 528.323 444.675 529.146 444.372 529.358C444.169 529.473 443.943 529.533 443.713 529.533C443.483 529.533 443.257 529.473 443.053 529.358C442.297 528.441 441.67 527.43 440.805 526.231Z" fill="#7FFF52" stroke="#7FFF52" stroke-miterlimit="10"/>
<path d="M364.202 470.557C363.294 471.826 362.819 473.072 362.235 473.143C361.813 473.108 361.406 472.956 361.054 472.7C360.702 472.445 360.416 472.096 360.224 471.685C360.226 471.211 360.34 470.745 360.556 470.334C360.772 469.922 361.082 469.577 361.457 469.334C361.975 469.146 362.927 470.04 364.202 470.557Z" fill="#7FFF52" stroke="#7FFF52" stroke-miterlimit="10"/>
<path d="M26.2044 277.416C27.0693 278.639 27.7827 279.273 27.9557 280.026C27.9557 280.425 27.0476 281.53 26.6585 281.483C25.821 281.21 25.0368 280.772 24.345 280.19L26.2044 277.416Z" fill="#7FFF52" stroke="#7FFF52" stroke-miterlimit="10"/>
<path d="M422.6 98.1698C422.6 99.2984 422.6 100.309 422.6 101.344C422.6 101.485 422.276 101.743 422.125 101.72C421.973 101.696 420.957 101.485 420.957 101.344C420.993 100.139 421.095 98.9383 421.26 97.7467C421.26 97.5821 421.735 97.2999 421.822 97.3705C422.108 97.6042 422.369 97.8724 422.6 98.1698Z" fill="#7FFF52" stroke="#7FFF52" stroke-miterlimit="10"/>
<path d="M126.828 2.7398C125.878 3.15619 124.882 3.43292 123.866 3.56267C123.585 3.56267 122.957 2.22256 123.13 1.94043C123.327 1.6547 123.582 1.42152 123.874 1.25857C124.166 1.09562 124.489 1.0072 124.817 1C125.357 1.04702 125.811 1.77586 126.828 2.7398Z" fill="#7FFF52" stroke="#7FFF52" stroke-miterlimit="10"/>
<path d="M275.319 96.7593C275.903 95.8894 276.162 95.0901 276.681 94.7374C277.633 94.1261 278.973 95.2546 278.843 96.6653C278.843 97.2295 277.979 98.217 277.698 98.1465C276.847 97.8123 276.046 97.345 275.319 96.7593Z" fill="#7FFF52" stroke="#7FFF52" stroke-miterlimit="10"/>
<path d="M272.595 448.88C273.482 450.055 274.217 450.667 274.39 451.419C274.563 452.171 273.59 452.994 273.222 452.971C272.448 452.73 271.717 452.348 271.06 451.842L272.595 448.88Z" fill="#7FFF52" stroke="#7FFF52" stroke-miterlimit="10"/>
<path d="M266.26 349.218C267.082 348.372 267.449 347.643 267.968 347.525C269.157 347.22 269.655 348.183 269.547 349.265C269.547 349.853 268.682 350.887 268.487 350.817C267.688 350.383 266.941 349.846 266.26 349.218Z" fill="#7FFF52" stroke="#7FFF52" stroke-miterlimit="10"/>
<path d="M121.768 356.718C122.547 357.564 123.455 358.34 123.368 358.505C123.005 359.275 122.441 359.913 121.747 360.338C121.466 360.479 120.277 359.445 120.32 359.233C120.707 358.334 121.193 357.489 121.768 356.718Z" fill="#7FFF52" stroke="#7FFF52" stroke-miterlimit="10"/>
<path d="M190.047 414.366C190.631 415.518 191.344 416.365 191.171 416.717C190.847 417.493 190.025 418.034 189.42 418.669C189.074 418.057 188.36 417.352 188.469 416.858C188.87 415.942 189.403 415.101 190.047 414.366Z" fill="#7FFF52" stroke="#7FFF52" stroke-miterlimit="10"/>
<path d="M470.361 41.0151C470.995 41.0896 471.616 41.2721 472.198 41.5559C472.608 41.9803 472.849 42.5628 472.869 43.1781C472.869 43.3662 472.133 43.8599 471.766 43.8129C471.103 43.7293 470.466 43.4799 469.906 43.0841C469.722 42.9531 469.568 42.7759 469.459 42.5673C469.35 42.3587 469.289 42.1248 469.279 41.885C469.301 41.5794 469.906 41.3678 470.361 41.0151Z" fill="#7FFF52" stroke="#7FFF52" stroke-miterlimit="10"/>
<path d="M448.199 273.325C448.653 272.432 448.826 271.609 449.302 271.186C449.778 270.762 451.313 271.75 451.118 272.855C451.04 273.198 450.887 273.516 450.673 273.782C450.459 274.048 450.189 274.254 449.886 274.383C449.453 274.501 448.848 273.772 448.199 273.325Z" fill="#7FFF52" stroke="#7FFF52" stroke-miterlimit="10"/>
<path d="M347.619 127.747C347.749 127.276 347.749 126.642 348.03 126.383C348.765 125.748 350.192 126.736 350.495 128.193C350.523 128.431 350.498 128.672 350.423 128.897C350.347 129.122 350.224 129.324 350.062 129.486C349.219 130.192 348.03 129.322 347.619 127.747Z" fill="#7FFF52" stroke="#7FFF52" stroke-miterlimit="10"/>
<path d="M167.302 221.014C167.946 220.276 168.672 219.628 169.464 219.086C169.658 219.086 170.675 220.026 170.675 220.544C170.634 220.9 170.512 221.24 170.32 221.532C170.127 221.823 169.87 222.058 169.572 222.213C169.053 222.33 168.383 221.649 167.302 221.014Z" fill="#7FFF52" stroke="#7FFF52" stroke-miterlimit="10"/>
<path d="M204.165 79.7612L205.895 80.2785C205.138 81.1013 204.425 81.9477 203.733 82.6295C203.418 82.4172 203.134 82.1558 202.89 81.8537C203.283 81.1335 203.708 80.4352 204.165 79.7612Z" fill="#7FFF52" stroke="#7FFF52" stroke-miterlimit="10"/>
<path d="M503.267 173.593C503.844 173.093 504.485 172.689 505.17 172.394C505.494 172.394 505.927 172.77 506.316 173.005C505.97 173.569 505.754 174.439 505.278 174.651C504.803 174.862 504.24 174.157 503.267 173.593Z" fill="#7FFF52" stroke="#7FFF52" stroke-miterlimit="10"/>
<path d="M14.5076 159.227C14.9832 158.357 15.1994 157.511 15.6535 157.299C16.1075 157.088 17.2318 157.299 17.448 157.558C17.567 157.753 17.6385 157.978 17.6558 158.212C17.6732 158.445 17.6359 158.68 17.5474 158.894C17.4589 159.107 17.3221 159.293 17.1497 159.434C16.9773 159.574 16.7749 159.665 16.5615 159.697C16.021 159.909 15.394 159.486 14.5076 159.227Z" fill="#7FFF52" stroke="#7FFF52" stroke-miterlimit="10"/>
<path d="M100.883 111.595L102.569 112.958C102.007 113.664 101.531 114.722 100.839 114.933C100.148 115.145 99.6287 113.993 99.0016 113.452L100.883 111.595Z" fill="#7FFF52" stroke="#7FFF52" stroke-miterlimit="10"/>
<path d="M355.316 296.319C354.819 297.118 354.581 297.894 354.106 298.247C353.894 298.35 353.661 298.39 353.431 298.362C353.201 298.334 352.981 298.24 352.796 298.088C352.611 297.937 352.466 297.735 352.377 297.502C352.288 297.27 352.257 297.015 352.289 296.766C352.366 296.431 352.517 296.121 352.728 295.863C352.938 295.605 353.203 295.407 353.5 295.284C353.954 295.19 354.56 295.849 355.316 296.319Z" fill="#7FFF52" stroke="#7FFF52" stroke-miterlimit="10"/>
<path d="M356.959 370.777C357.868 369.837 358.386 368.99 359.122 368.685C359.857 368.379 360.289 369.178 360.894 369.461C360.463 370.32 359.924 371.112 359.294 371.812C359.057 372.047 358.17 371.294 356.959 370.777Z" fill="#7FFF52" stroke="#7FFF52" stroke-miterlimit="10"/>
<path d="M427.832 388.998C428.611 390.033 429.389 390.644 429.562 391.349C429.735 392.054 428.913 392.548 428.524 393.159C427.833 392.675 427.226 392.062 426.73 391.349C426.557 391.043 427.357 390.103 427.832 388.998Z" fill="#7FFF52" stroke="#7FFF52" stroke-miterlimit="10"/>
<path d="M271.146 236.789C270.455 236.789 269.547 237.165 269.179 236.789C268.634 236.126 268.268 235.313 268.12 234.438C268.12 234.274 268.811 233.592 269.049 233.662C269.659 233.811 270.206 234.175 270.606 234.697C270.93 235.347 271.171 236.044 271.319 236.766L271.146 236.789Z" fill="#7FFF52" stroke="#7FFF52" stroke-miterlimit="10"/>
<path d="M228.986 167.433C229.748 168.103 230.411 168.896 230.953 169.784C230.953 169.995 230.175 171.147 229.721 171.171C229.389 171.123 229.071 170.992 228.794 170.788C228.516 170.584 228.286 170.313 228.121 169.995C227.948 169.549 228.445 168.749 228.986 167.433Z" fill="#7FFF52" stroke="#7FFF52" stroke-miterlimit="10"/>
<path d="M90.0723 220.332C89.2723 220.967 88.5588 221.837 88.2345 221.696C87.4778 221.366 86.3967 220.544 86.3967 219.909C86.3967 218.616 87.5859 218.475 88.5588 218.851C88.9912 219.062 89.3804 219.697 90.0723 220.332Z" fill="#7FFF52" stroke="#7FFF52" stroke-miterlimit="10"/>
<path d="M365.781 206.484L367.727 208.365C367.273 208.882 366.883 209.728 366.364 209.822C366.058 209.793 365.764 209.675 365.513 209.481C365.262 209.287 365.063 209.023 364.938 208.717C364.829 208.13 365.392 207.401 365.781 206.484Z" fill="#7FFF52" stroke="#7FFF52" stroke-miterlimit="10"/>
<path d="M0 369.625C0.583762 368.967 1.01618 368.121 1.42697 368.121C1.83777 368.121 2.42153 368.873 2.91881 369.273C2.48639 369.79 2.14046 370.566 1.62156 370.73C1.10266 370.895 0.691866 370.119 0 369.625Z" fill="#7FFF52" stroke="#7FFF52" stroke-miterlimit="10"/>
<path d="M135.195 478.551C135.908 479.233 136.643 479.632 136.687 480.079C136.73 480.526 136.168 481.208 135.865 481.772C135.346 481.419 134.546 481.184 134.395 480.69C134.244 480.197 134.784 479.444 135.195 478.551Z" fill="#7FFF52" stroke="#7FFF52" stroke-miterlimit="10"/>
<path d="M310.604 554.373L311.642 555.337L310.345 556.607C310.107 556.207 309.653 555.784 309.718 555.455C309.783 555.125 310.367 554.679 310.604 554.373Z" fill="#7FFF52" stroke="#7FFF52" stroke-miterlimit="10"/>
<path d="M318.345 30.9526C318.734 31.5639 319.339 32.1282 319.361 32.6924C319.383 33.2567 318.474 33.4448 317.999 33.821C317.736 33.1786 317.533 32.5091 317.393 31.8225C317.372 31.6344 317.934 31.3288 318.345 30.9526Z" fill="#7FFF52" stroke="#7FFF52" stroke-miterlimit="10"/>
<path d="M192.166 303.513C192.847 303.016 193.571 302.591 194.328 302.244C194.587 302.244 194.998 302.643 195.344 302.855C194.717 303.443 194.09 304.077 193.398 304.618C193.333 304.665 192.858 304.148 192.166 303.513Z" fill="#7FFF52" stroke="#7FFF52" stroke-miterlimit="10"/>
<path d="M214.673 517.062L216.165 518.025L214.824 519.554L213.354 518.025L214.673 517.062Z" fill="#7FFF52" stroke="#7FFF52" stroke-miterlimit="10"/>
<path d="M553.536 307.345L554.314 305.559L555.892 306.852L554.574 308.521L553.536 307.345Z" fill="#7FFF52" stroke="#7FFF52" stroke-miterlimit="10"/>
<path d="M63.803 420.079L64.5159 419.233C64.7445 419.52 64.9404 419.835 65.0993 420.173C65.0993 420.173 64.7536 420.691 64.6888 420.644C64.3748 420.493 64.0777 420.303 63.803 420.079Z" fill="#7FFF52" stroke="#7FFF52" stroke-miterlimit="10"/>
<path d="M499.376 351.311L500.673 351.945C500.468 352.519 500.175 353.052 499.808 353.521C499.613 353.709 498.986 353.285 498.576 353.144L499.376 351.311Z" fill="#7FFF52" stroke="#7FFF52" stroke-miterlimit="10"/>
</svg>
