<svg width="360" height="634" viewBox="0 0 360 634" fill="none" xmlns="http://www.w3.org/2000/svg">
<path d="M328.496 256.184C328.626 255.196 328.496 254.326 328.842 253.833C329.188 253.339 330.247 253.033 330.593 253.292C330.776 253.417 330.927 253.59 331.032 253.796C331.137 254.001 331.192 254.232 331.192 254.467C331.192 254.702 331.137 254.934 331.032 255.139C330.927 255.345 330.776 255.518 330.593 255.643C330.139 256.184 329.404 255.949 328.496 256.184Z" fill="#7FFF52" stroke="#7FFF52" stroke-width="3" stroke-miterlimit="10"/>
<path d="M198.404 448.338L198.943 448.502L198.922 448.031L198.404 448.338Z" fill="white" stroke="#7FFF52" stroke-width="3" stroke-miterlimit="10"/>
<path d="M120.893 200.181C121.909 201.262 122.688 201.78 122.947 202.532C123.055 202.885 122.212 204.154 121.801 204.131C120.947 203.972 120.126 203.645 119.38 203.167L120.893 200.181Z" fill="#7FFF52" stroke="#7FFF52" stroke-width="3" stroke-miterlimit="10"/>
<path d="M224.716 266.082C225.581 266.81 226.576 267.445 226.511 267.633C226.241 268.446 225.751 269.151 225.105 269.655C224.846 269.843 223.527 268.973 223.57 268.738C223.849 267.804 224.234 266.912 224.716 266.082Z" fill="#7FFF52" stroke="#7FFF52" stroke-width="3" stroke-miterlimit="10"/>
<path d="M299.005 314.138C299.719 315.219 300.519 315.948 300.389 316.348C300.011 317.171 299.498 317.912 298.876 318.534C298.465 317.97 297.665 317.382 297.73 316.865C298.018 315.888 298.449 314.967 299.005 314.138Z" fill="#7FFF52" stroke="#7FFF52" stroke-width="3" stroke-miterlimit="10"/>
<path d="M254.553 125.299C255.086 124.481 255.719 123.746 256.434 123.113C256.607 122.971 257.731 123.865 257.796 124.382C257.795 124.742 257.712 125.096 257.553 125.413C257.395 125.729 257.166 125.997 256.888 126.193C256.434 126.381 255.699 125.769 254.553 125.299Z" fill="#7FFF52" stroke="#7FFF52" stroke-width="3" stroke-miterlimit="10"/>
<path d="M95.9211 84.5551C96.2887 83.6382 96.3968 82.7683 96.8292 82.4862C97.2616 82.204 98.3859 82.157 98.6454 82.4862C98.8111 82.6632 98.9293 82.886 98.9871 83.1307C99.045 83.3754 99.0402 83.6326 98.9735 83.8745C98.9067 84.1165 98.7805 84.3341 98.6083 84.5037C98.4362 84.6734 98.2247 84.7887 97.9967 84.8372C97.4995 84.9078 96.8292 84.5551 95.9211 84.5551Z" fill="#7FFF52" stroke="#7FFF52" stroke-width="3" stroke-miterlimit="10"/>
<path d="M176.286 25.5901L178.102 26.7421C177.626 27.518 177.28 28.623 176.632 28.9286C175.983 29.2343 175.313 28.1528 174.621 27.6825L176.286 25.5901Z" fill="#7FFF52" stroke="#7FFF52" stroke-width="3" stroke-miterlimit="10"/>
<path d="M359.371 127.062C358.7 127.062 357.836 127.627 357.425 127.345C356.812 126.758 356.357 126.003 356.106 125.158C356.106 125.017 356.711 124.218 356.949 124.265C357.57 124.341 358.153 124.629 358.614 125.088C359.009 125.695 359.322 126.36 359.544 127.062H359.371Z" fill="#7FFF52" stroke="#7FFF52" stroke-width="3" stroke-miterlimit="10"/>
<path d="M309.686 63.8655C310.489 64.4273 311.217 65.1078 311.848 65.8874C311.978 66.0755 311.221 67.3451 310.767 67.4391C310.433 67.4328 310.105 67.3424 309.809 67.1752C309.513 67.008 309.256 66.7683 309.059 66.4752C308.908 66.099 309.362 65.2526 309.686 63.8655Z" fill="#7FFF52" stroke="#7FFF52" stroke-width="3" stroke-miterlimit="10"/>
<path d="M177.756 134.962C177.042 135.691 176.437 136.678 176.091 136.561C175.313 136.349 174.124 135.667 174.059 135.056C173.907 133.763 175.075 133.457 176.048 133.692C176.61 133.928 177.064 134.421 177.756 134.962Z" fill="#7FFF52" stroke="#7FFF52" stroke-width="3" stroke-miterlimit="10"/>
<path d="M105.326 295.164C105.845 294.436 106.169 293.542 106.58 293.495C106.991 293.448 107.64 294.106 108.18 294.436C107.834 295 107.575 295.823 107.077 296.058C106.58 296.293 106.083 295.588 105.326 295.164Z" fill="#7FFF52" stroke="#7FFF52" stroke-width="3" stroke-miterlimit="10"/>
<path d="M251.85 385.164C252.629 385.751 253.429 386.057 253.515 386.504C253.602 386.95 253.126 387.679 252.888 388.291C252.326 388.008 251.526 387.867 251.31 387.397C251.094 386.927 251.548 386.198 251.85 385.164Z" fill="#7FFF52" stroke="#7FFF52" stroke-width="3" stroke-miterlimit="10"/>
<path d="M288.606 203.825C289.249 203.257 289.928 202.739 290.638 202.273C290.876 202.273 291.352 202.579 291.719 202.767C291.176 203.467 290.599 204.134 289.989 204.766C289.989 204.766 289.319 204.46 288.606 203.825Z" fill="#7FFF52" stroke="#7FFF52" stroke-width="3" stroke-miterlimit="10"/>
<path d="M335.069 412.648L336.647 413.424L335.479 415.116L333.858 413.8L335.069 412.648Z" fill="#7FFF52" stroke="#7FFF52" stroke-width="3" stroke-miterlimit="10"/>
<path d="M174.361 336.708L174.988 335.768C175.24 336.03 175.465 336.321 175.658 336.637C175.658 336.637 175.398 337.178 175.312 337.155C174.981 337.044 174.662 336.895 174.361 336.708Z" fill="#7FFF52" stroke="#7FFF52" stroke-width="3" stroke-miterlimit="10"/>
<path d="M312.864 274.757C313.816 274.263 314.724 273.558 314.897 273.723C315.685 274.559 316.355 275.518 316.886 276.567C317.037 276.85 316.734 277.672 316.432 277.884C316.228 277.999 316.002 278.06 315.772 278.06C315.543 278.06 315.316 277.999 315.113 277.884C314.356 276.967 313.729 275.956 312.864 274.757Z" fill="#7FFF52" stroke="#7FFF52" stroke-width="3" stroke-miterlimit="10"/>
<path d="M236.262 219.084C235.354 220.353 234.878 221.599 234.294 221.67C233.872 221.635 233.465 221.483 233.113 221.227C232.761 220.972 232.475 220.622 232.283 220.212C232.285 219.738 232.399 219.272 232.615 218.86C232.831 218.448 233.142 218.104 233.516 217.861C234.035 217.673 234.986 218.566 236.262 219.084Z" fill="#7FFF52" stroke="#7FFF52" stroke-width="3" stroke-miterlimit="10"/>
<path d="M144.654 197.407C145.541 198.582 146.276 199.194 146.449 199.946C146.622 200.698 145.649 201.521 145.281 201.498C144.507 201.257 143.776 200.875 143.119 200.369L144.654 197.407Z" fill="#7FFF52" stroke="#7FFF52" stroke-width="3" stroke-miterlimit="10"/>
<path d="M138.32 97.7445C139.141 96.8982 139.509 96.1693 140.028 96.0518C141.217 95.7461 141.714 96.7101 141.606 97.7916C141.606 98.3793 140.741 99.4138 140.547 99.3433C139.748 98.9097 139 98.373 138.32 97.7445Z" fill="#7FFF52" stroke="#7FFF52" stroke-width="3" stroke-miterlimit="10"/>
<path d="M62.1062 162.893C62.69 164.045 63.4034 164.891 63.2305 165.244C62.9062 166.02 62.0846 166.56 61.4792 167.195C61.1333 166.584 60.4198 165.879 60.5279 165.385C60.9294 164.469 61.4621 163.628 62.1062 162.893Z" fill="#7FFF52" stroke="#7FFF52" stroke-width="3" stroke-miterlimit="10"/>
<path d="M320.259 21.8519C320.713 20.9585 320.886 20.1356 321.361 19.7124C321.837 19.2892 323.372 20.2767 323.177 21.3817C323.099 21.725 322.947 22.0431 322.732 22.309C322.518 22.5749 322.248 22.781 321.945 22.9099C321.513 23.0274 320.907 22.2986 320.259 21.8519Z" fill="#7FFF52" stroke="#7FFF52" stroke-width="3" stroke-miterlimit="10"/>
<path d="M227.376 44.8453C226.878 45.6447 226.641 46.4205 226.165 46.7732C225.954 46.8764 225.721 46.9161 225.49 46.8882C225.26 46.8604 225.041 46.7659 224.855 46.6148C224.67 46.4636 224.525 46.2612 224.436 46.0285C224.347 45.7959 224.317 45.5416 224.349 45.292C224.426 44.9572 224.576 44.6477 224.787 44.3898C224.998 44.1319 225.263 43.9332 225.56 43.8108C226.014 43.7168 226.619 44.3751 227.376 44.8453Z" fill="#7FFF52" stroke="#7FFF52" stroke-width="3" stroke-miterlimit="10"/>
<path d="M229.019 119.304C229.927 118.364 230.446 117.517 231.181 117.212C231.916 116.906 232.348 117.705 232.954 117.987C232.522 118.847 231.984 119.638 231.354 120.339C231.116 120.574 230.23 119.821 229.019 119.304Z" fill="#7FFF52" stroke="#7FFF52" stroke-width="3" stroke-miterlimit="10"/>
<path d="M299.892 137.525C300.67 138.559 301.449 139.171 301.622 139.876C301.794 140.581 300.973 141.075 300.584 141.686C299.892 141.202 299.285 140.589 298.789 139.876C298.616 139.57 299.416 138.63 299.892 137.525Z" fill="#7FFF52" stroke="#7FFF52" stroke-width="3" stroke-miterlimit="10"/>
<path d="M7.25422 227.077C7.96771 227.759 8.70281 228.159 8.74605 228.605C8.78929 229.052 8.22715 229.734 7.92446 230.298C7.40556 229.945 6.60559 229.71 6.45425 229.217C6.3029 228.723 6.84343 227.971 7.25422 227.077Z" fill="#7FFF52" stroke="#7FFF52" stroke-width="3" stroke-miterlimit="10"/>
<path d="M182.664 302.899L183.702 303.863L182.404 305.133C182.166 304.733 181.712 304.31 181.777 303.981C181.842 303.652 182.426 303.205 182.664 302.899Z" fill="#7FFF52" stroke="#7FFF52" stroke-width="3" stroke-miterlimit="10"/>
<path d="M64.2251 52.0396C64.9068 51.5422 65.6308 51.1171 66.3872 50.77C66.6466 50.77 67.0574 51.1697 67.4034 51.3813C66.7764 51.9691 66.1493 52.6038 65.4575 53.1446C65.3926 53.1916 64.917 52.6744 64.2251 52.0396Z" fill="#7FFF52" stroke="#7FFF52" stroke-width="3" stroke-miterlimit="10"/>
<path d="M86.7322 265.588L88.224 266.552L86.8835 268.08L85.4133 266.552L86.7322 265.588Z" fill="#7FFF52" stroke="#7FFF52" stroke-width="3" stroke-miterlimit="10"/>
</svg>
