<svg width="291" height="291" viewBox="0 0 291 291" fill="none" xmlns="http://www.w3.org/2000/svg">
<g clip-path="url(#clip0_92_53)">
<path d="M82.429 96.9934C89.0916 90.3308 89.0916 79.5286 82.429 72.866C75.7664 66.2034 64.9642 66.2034 58.3016 72.866C51.639 79.5286 51.639 90.3308 58.3016 96.9934C64.9642 103.656 75.7664 103.656 82.429 96.9934Z" stroke="#A157FF" stroke-width="2" stroke-miterlimit="10"/>
<path d="M82.0292 88.2598C86.7331 83.5559 86.7331 75.9294 82.0292 71.2255C77.3253 66.5217 69.6988 66.5217 64.995 71.2255C60.2911 75.9294 60.2911 83.5559 64.995 88.2598C69.6988 92.9637 77.3253 92.9637 82.0292 88.2598Z" fill="#7FFF52" stroke="#A157FF" stroke-width="2" stroke-miterlimit="10"/>
<path d="M94.7792 98.0626L72.6074 120.234C68.2233 124.618 68.2233 131.726 72.6074 136.11L72.6095 136.112C76.9935 140.497 84.1015 140.497 88.4856 136.112L110.657 113.941C115.041 109.557 115.041 102.449 110.657 98.0646L110.655 98.0626C106.271 93.6785 99.1632 93.6785 94.7792 98.0626Z" fill="white" stroke="#A157FF" stroke-width="2" stroke-miterlimit="10"/>
<path d="M101.009 71.8014L92.8937 102.089C91.289 108.077 94.843 114.233 100.832 115.838L100.835 115.838C106.823 117.443 112.979 113.889 114.584 107.9L122.699 77.6132C124.304 71.6244 120.75 65.4688 114.761 63.8641L114.758 63.8633C108.769 62.2586 102.614 65.8126 101.009 71.8014Z" fill="white" stroke="#A157FF" stroke-width="2" stroke-miterlimit="10"/>
<path d="M121.379 69.3361C124.902 65.8136 124.902 60.1025 121.379 56.5799C117.857 53.0574 112.146 53.0574 108.623 56.5799C105.101 60.1025 105.101 65.8136 108.623 69.3361C112.146 72.8586 117.857 72.8586 121.379 69.3361Z" fill="white" stroke="#A157FF" stroke-width="2" stroke-miterlimit="10"/>
<path d="M112.644 47.3847L109.712 56.3759C109.424 57.2588 109.906 58.208 110.789 58.4959C111.672 58.7838 112.622 58.3015 112.909 57.4185L115.841 48.4273C116.129 47.5444 115.647 46.5952 114.764 46.3073C113.881 46.0194 112.932 46.5017 112.644 47.3847Z" fill="white" stroke="#A157FF" stroke-width="2" stroke-miterlimit="10"/>
<path d="M116.452 51.6118L113.521 60.6029C113.233 61.4859 113.715 62.4351 114.598 62.723C115.481 63.0109 116.43 62.5285 116.718 61.6456L119.65 52.6544C119.938 51.7714 119.455 50.8222 118.572 50.5343C117.689 50.2464 116.74 50.7288 116.452 51.6118Z" fill="white" stroke="#A157FF" stroke-width="2" stroke-miterlimit="10"/>
<path d="M120.443 54.8388L117.511 63.83C117.223 64.7129 117.705 65.6621 118.588 65.95C119.471 66.2379 120.421 65.7556 120.708 64.8726L123.64 55.8814C123.928 54.9985 123.446 54.0493 122.563 53.7614C121.68 53.4735 120.731 53.9559 120.443 54.8388Z" fill="white" stroke="#A157FF" stroke-width="2" stroke-miterlimit="10"/>
<path d="M81.6645 89.9351C86.5493 85.0503 86.5493 77.1304 81.6645 72.2455C76.7796 67.3607 68.8597 67.3607 63.9749 72.2455C59.09 77.1304 59.09 85.0503 63.9749 89.9351C68.8597 94.82 76.7796 94.82 81.6645 89.9351Z" stroke="#A157FF" stroke-width="2" stroke-miterlimit="10"/>
<path d="M154.409 122.161L103.474 173.097L78.7979 141.802C74.0133 135.735 71.6213 128.123 72.0756 120.409C72.5299 112.695 75.7988 105.416 81.2626 99.9525C86.7267 94.4885 94.0058 91.2192 101.72 90.7645C109.434 90.3099 117.046 92.7014 123.115 97.4858L154.409 122.161Z" fill="white" stroke="#A157FF" stroke-width="2" stroke-miterlimit="10"/>
<path d="M126.676 80.398L104.504 102.57C100.12 106.954 100.12 114.062 104.504 118.446L104.506 118.448C108.89 122.832 115.998 122.832 120.382 118.448L142.554 96.2762C146.938 91.8921 146.938 84.7841 142.554 80.4001L142.552 80.398C138.168 76.0139 131.06 76.0139 126.676 80.398Z" fill="white" stroke="#A157FF" stroke-width="2" stroke-miterlimit="10"/>
<path d="M132.901 54.1378L124.786 84.425C123.181 90.4137 126.735 96.5694 132.724 98.1741L132.727 98.1748C138.716 99.7795 144.871 96.2255 146.476 90.2368L154.591 59.9496C156.196 53.9609 152.642 47.8052 146.653 46.2005L146.651 46.1997C140.662 44.5951 134.506 48.149 132.901 54.1378Z" fill="white" stroke="#A157FF" stroke-width="2" stroke-miterlimit="10"/>
<path d="M153.274 51.673C156.796 48.1505 156.796 42.4394 153.274 38.9169C149.751 35.3944 144.04 35.3944 140.518 38.9169C136.995 42.4394 136.995 48.1505 140.518 51.673C144.04 55.1955 149.751 55.1955 153.274 51.673Z" fill="white" stroke="#A157FF" stroke-width="2" stroke-miterlimit="10"/>
<path d="M144.54 29.7172L141.608 38.7084C141.32 39.5913 141.802 40.5405 142.685 40.8284C143.568 41.1164 144.517 40.634 144.805 39.751L147.737 30.7598C148.025 29.8769 147.543 28.9277 146.66 28.6398C145.777 28.3519 144.828 28.8343 144.54 29.7172Z" fill="white" stroke="#A157FF" stroke-width="2" stroke-miterlimit="10"/>
<path d="M148.345 33.9492L145.413 42.9403C145.126 43.8233 145.608 44.7725 146.491 45.0604C147.374 45.3483 148.323 44.8659 148.611 43.983L151.543 34.9918C151.831 34.1088 151.348 33.1597 150.465 32.8717C149.582 32.5838 148.633 33.0662 148.345 33.9492Z" fill="white" stroke="#A157FF" stroke-width="2" stroke-miterlimit="10"/>
<path d="M152.336 37.1762L149.404 46.1674C149.116 47.0503 149.598 47.9995 150.481 48.2874C151.364 48.5753 152.314 48.093 152.601 47.21L155.533 38.2188C155.821 37.3359 155.339 36.3867 154.456 36.0988C153.573 35.8109 152.624 36.2932 152.336 37.1762Z" fill="white" stroke="#A157FF" stroke-width="2" stroke-miterlimit="10"/>
<path d="M154.409 122.162C164.16 126.931 173.196 133.04 181.255 140.311C183.081 141.964 184.795 143.625 186.411 145.281C190.399 148.165 193.542 152.062 195.515 156.57C203.887 165.442 208.917 176.947 209.743 189.118L192.503 206.358L167.186 168.265L146.916 160.974C146.677 160.887 146.417 160.873 146.17 160.932C145.922 160.992 145.697 161.123 145.523 161.309C145.349 161.495 145.234 161.728 145.191 161.979C145.149 162.23 145.181 162.489 145.284 162.722C148.673 167.762 151.552 173.126 153.88 178.736C155.785 183.317 157.314 188.045 158.453 192.875C159.198 194.966 159.376 197.217 158.968 199.399C160.337 202.855 161.523 206.381 162.521 209.963C164.59 217.465 165.821 225.174 166.193 232.948L144.444 254.121L131.269 206.449C122.005 195.333 112.74 184.216 103.474 173.098L154.409 122.162Z" fill="#101223" stroke="#A157FF" stroke-width="2" stroke-miterlimit="10"/>
<path d="M244.836 207.329L207.01 231.277L201.632 222.782L193.698 210.228L185.752 197.678L210.852 181.786L219.87 196.05C224.678 195.286 229.605 195.947 234.041 197.951C238.478 199.955 242.231 203.216 244.836 207.329Z" fill="white" stroke="#A157FF" stroke-width="2" stroke-miterlimit="10"/>
<path d="M210.124 234.074L211.031 230.385L210.2 229.793L207.876 231.294L207.711 232.052L209.131 234.243L210.124 234.074Z" fill="#4659A8" stroke="#A157FF" stroke-width="2" stroke-miterlimit="10"/>
<path d="M213.803 231.709L214.711 228.018L213.881 227.427L211.567 228.921L211.404 229.682L212.822 231.87L213.803 231.709Z" fill="#4659A8" stroke="#A157FF" stroke-width="2" stroke-miterlimit="10"/>
<path d="M217.475 229.335L218.382 225.647L217.549 225.053L215.225 226.553L215.062 227.314L216.478 229.5L217.475 229.335Z" fill="#4659A8" stroke="#A157FF" stroke-width="2" stroke-miterlimit="10"/>
<path d="M221.147 226.962L222.054 223.269L221.223 222.677L218.899 224.177L218.736 224.938L220.152 227.124L221.147 226.962Z" fill="#4659A8" stroke="#A157FF" stroke-width="2" stroke-miterlimit="10"/>
<path d="M224.745 224.489L225.611 220.973L224.778 220.379L222.563 221.812L222.402 222.57L223.752 224.658L224.745 224.489Z" fill="#4659A8" stroke="#A157FF" stroke-width="2" stroke-miterlimit="10"/>
<path d="M228.317 222.178L229.182 218.663L228.35 218.069L226.134 219.501L225.98 220.254L227.329 222.341L228.317 222.178Z" fill="#4659A8" stroke="#A157FF" stroke-width="2" stroke-miterlimit="10"/>
<path d="M231.884 219.872L232.751 216.355L231.917 215.763L229.703 217.193L229.541 217.954L230.89 220.041L231.884 219.872Z" fill="#4659A8" stroke="#A157FF" stroke-width="2" stroke-miterlimit="10"/>
<path d="M235.453 217.564L236.327 214.053L235.494 213.459L233.279 214.892L233.116 215.652L234.466 217.74L235.453 217.564Z" fill="#4659A8" stroke="#A157FF" stroke-width="2" stroke-miterlimit="10"/>
<path d="M239.022 215.256L239.884 211.732L239.051 211.139L236.836 212.571L236.673 213.331L238.039 215.415L239.022 215.256Z" fill="#4659A8" stroke="#A157FF" stroke-width="2" stroke-miterlimit="10"/>
<path d="M243.173 212.718L244.081 209.027L243.249 208.433L240.924 209.934L240.751 210.708L242.167 212.895L243.173 212.718Z" fill="#4659A8" stroke="#A157FF" stroke-width="2" stroke-miterlimit="10"/>
<path d="M208.484 177.6L184.445 192.825C183.105 193.673 182.707 195.447 183.555 196.787C184.404 198.127 186.178 198.525 187.518 197.677L211.557 182.452C212.897 181.603 213.295 179.829 212.446 178.49C211.598 177.15 209.824 176.752 208.484 177.6Z" fill="#7FFF52" stroke="#A157FF" stroke-width="2" stroke-miterlimit="10"/>
<path d="M210.382 182.356L186.446 197.512C185.112 198.356 184.715 200.122 185.56 201.457C186.405 202.791 188.171 203.187 189.505 202.343L213.441 187.187C214.775 186.343 215.172 184.577 214.327 183.243C213.483 181.909 211.716 181.512 210.382 182.356Z" fill="#7FFF52" stroke="#A157FF" stroke-width="2" stroke-miterlimit="10"/>
<path d="M169.721 238.063C174.557 238.626 179.122 240.593 182.852 243.722C186.582 246.852 189.313 251.005 190.708 255.67L147.817 268.498L144.936 258.87L140.681 244.641L136.423 230.409L164.884 221.896L169.721 238.063Z" fill="white" stroke="#A157FF" stroke-width="2" stroke-miterlimit="10"/>
<path d="M150.065 272.045L151.934 268.737L151.296 267.942L148.65 268.758L148.287 269.446L149.066 271.932L150.065 272.045Z" fill="#4659A8" stroke="#A157FF" stroke-width="2" stroke-miterlimit="10"/>
<path d="M154.24 270.751L156.116 267.441L155.475 266.644L152.835 267.458L152.47 268.144L153.245 270.633L154.24 270.751Z" fill="#4659A8" stroke="#A157FF" stroke-width="2" stroke-miterlimit="10"/>
<path d="M158.415 269.461L160.287 266.151L159.646 265.358L157.004 266.174L156.641 266.862L157.412 269.351L158.415 269.461Z" fill="#4659A8" stroke="#A157FF" stroke-width="2" stroke-miterlimit="10"/>
<path d="M162.601 268.156L164.474 264.849L163.831 264.053L161.179 264.884L160.816 265.568L161.589 268.059L162.601 268.156Z" fill="#4659A8" stroke="#A157FF" stroke-width="2" stroke-miterlimit="10"/>
<path d="M166.724 266.757L168.513 263.6L167.87 262.804L165.352 263.583L164.989 264.272L165.719 266.65L166.724 266.757Z" fill="#4659A8" stroke="#A157FF" stroke-width="2" stroke-miterlimit="10"/>
<path d="M170.786 265.502L172.575 262.345L171.934 261.551L169.416 262.33L169.051 263.017L169.783 265.397L170.786 265.502Z" fill="#4659A8" stroke="#A157FF" stroke-width="2" stroke-miterlimit="10"/>
<path d="M174.846 264.245L176.635 261.088L175.996 260.292L173.478 261.071L173.115 261.759L173.844 264.138L174.846 264.245Z" fill="#4659A8" stroke="#A157FF" stroke-width="2" stroke-miterlimit="10"/>
<path d="M178.91 262.988L180.696 259.829L180.058 259.033L177.539 259.812L177.179 260.499L177.908 262.877L178.91 262.988Z" fill="#4659A8" stroke="#A157FF" stroke-width="2" stroke-miterlimit="10"/>
<path d="M182.967 261.733L184.756 258.576L184.113 257.78L181.595 258.559L181.232 259.248L181.962 261.626L182.967 261.733Z" fill="#4659A8" stroke="#A157FF" stroke-width="2" stroke-miterlimit="10"/>
<path d="M187.645 260.41L189.517 257.104L188.876 256.307L186.24 257.133L185.877 257.818L186.65 260.309L187.645 260.41Z" fill="#4659A8" stroke="#A157FF" stroke-width="2" stroke-miterlimit="10"/>
<path d="M163.04 216.637L135.898 224.754C134.385 225.206 133.525 226.8 133.978 228.312C134.43 229.825 136.023 230.685 137.536 230.232L164.679 222.115C166.191 221.663 167.051 220.069 166.599 218.557C166.146 217.044 164.553 216.184 163.04 216.637Z" fill="#7FFF52" stroke="#A157FF" stroke-width="2" stroke-miterlimit="10"/>
<path d="M164.282 222.32L137.139 230.437C135.626 230.89 134.767 232.483 135.219 233.995C135.672 235.508 137.265 236.368 138.778 235.915L165.92 227.798C167.433 227.346 168.293 225.753 167.84 224.24C167.388 222.727 165.795 221.867 164.282 222.32Z" fill="#7FFF52" stroke="#A157FF" stroke-width="2" stroke-miterlimit="10"/>
<path d="M59.1506 127.872L58.246 128.776C52.1228 134.9 52.1228 144.827 58.246 150.95L71.0495 163.754C77.1726 169.877 87.1001 169.877 93.2233 163.754L94.128 162.849C100.251 156.726 100.251 146.798 94.128 140.675L81.3244 127.872C75.2013 121.749 65.2738 121.749 59.1506 127.872Z" fill="white"/>
<mask id="mask0_92_53" style="mask-type:luminance" maskUnits="userSpaceOnUse" x="53" y="123" width="46" height="46">
<path d="M59.1506 127.872L58.246 128.776C52.1228 134.9 52.1228 144.827 58.246 150.95L71.0495 163.754C77.1726 169.877 87.1001 169.877 93.2233 163.754L94.128 162.849C100.251 156.726 100.251 146.798 94.128 140.675L81.3244 127.872C75.2013 121.749 65.2738 121.749 59.1506 127.872Z" fill="white"/>
</mask>
<g mask="url(#mask0_92_53)">
<path d="M53.8009 128.984L52.8962 129.889C46.7731 136.012 46.7731 145.94 52.8962 152.063L65.6997 164.866C71.8229 170.99 81.7504 170.99 87.8735 164.866L88.7782 163.962C94.9013 157.839 94.9013 147.911 88.7782 141.788L75.9747 128.984C69.8516 122.861 59.924 122.861 53.8009 128.984Z" fill="white" stroke="#A157FF" stroke-width="2" stroke-miterlimit="10"/>
</g>
<path d="M59.1506 127.872L58.246 128.776C52.1228 134.9 52.1228 144.827 58.246 150.95L71.0495 163.754C77.1726 169.877 87.1002 169.877 93.2233 163.754L94.128 162.849C100.251 156.726 100.251 146.798 94.128 140.675L81.3244 127.872C75.2013 121.749 65.2738 121.749 59.1506 127.872Z" stroke="#A157FF" stroke-width="2" stroke-miterlimit="10"/>
<path d="M67.0949 134.003L58.7653 142.333C58.2338 142.864 58.2338 143.726 58.7653 144.257C59.2968 144.789 60.1585 144.789 60.69 144.257L69.0196 135.928C69.5511 135.396 69.5511 134.534 69.0196 134.003C68.4881 133.471 67.6264 133.471 67.0949 134.003Z" fill="white" stroke="#A157FF" stroke-width="2" stroke-miterlimit="10"/>
<path d="M70.9052 137.813L62.5756 146.143C62.0441 146.674 62.0441 147.536 62.5756 148.067C63.1071 148.599 63.9689 148.599 64.5004 148.067L72.83 139.738C73.3615 139.206 73.3615 138.345 72.83 137.813C72.2985 137.281 71.4367 137.281 70.9052 137.813Z" fill="white" stroke="#A157FF" stroke-width="2" stroke-miterlimit="10"/>
<path d="M74.7156 141.623L66.386 149.953C65.8545 150.484 65.8545 151.346 66.386 151.877C66.9175 152.409 67.7792 152.409 68.3107 151.877L76.6403 143.548C77.1718 143.016 77.1718 142.155 76.6403 141.623C76.1088 141.092 75.2471 141.092 74.7156 141.623Z" fill="white" stroke="#A157FF" stroke-width="2" stroke-miterlimit="10"/>
</g>
<defs>
<clipPath id="clip0_92_53">
<rect width="175.539" height="235.481" fill="white" transform="translate(0 124.125) rotate(-45)"/>
</clipPath>
</defs>
</svg>
