<svg width="1002" height="442" viewBox="0 0 1002 442" fill="none" xmlns="http://www.w3.org/2000/svg">
<path d="M196.17 422V351.66C196.17 347.607 194.56 343.721 191.695 340.855C188.829 337.99 184.943 336.38 180.89 336.38H19.78C15.7275 336.38 11.841 334.77 8.97542 331.905C6.10987 329.039 4.50001 325.153 4.50001 321.1V295C4.49546 291.614 5.62167 288.323 7.70001 285.65L208.3 26.43C209.726 24.584 211.557 23.0895 213.651 22.0615C215.745 21.0335 218.047 20.4993 220.38 20.5H233.47C235.477 20.5 237.464 20.8952 239.317 21.6631C241.171 22.431 242.856 23.5565 244.275 24.9754C245.693 26.3943 246.819 28.0787 247.587 29.9326C248.355 31.7865 248.75 33.7734 248.75 35.78V273.33C248.75 277.377 250.356 281.259 253.215 284.124C256.074 286.989 259.953 288.602 264 288.61H286C290.053 288.61 293.939 290.22 296.805 293.085C299.67 295.951 301.28 299.837 301.28 303.89V321.1C301.28 325.153 299.67 329.039 296.805 331.905C293.939 334.77 290.053 336.38 286 336.38H264C259.949 336.383 256.065 337.994 253.202 340.859C250.339 343.724 248.73 347.609 248.73 351.66V422C248.73 426.053 247.12 429.939 244.255 432.805C241.389 435.67 237.503 437.28 233.45 437.28H211.45C207.398 437.28 203.511 435.67 200.645 432.805C197.78 429.939 196.17 426.053 196.17 422ZM89.72 288.61H186.28C190.333 288.61 194.219 287 197.085 284.135C199.95 281.269 201.56 277.383 201.56 273.33V146.88C201.56 132.27 183.01 125.99 174.14 137.61L77.58 264.06C75.8522 266.324 74.7915 269.026 74.5177 271.861C74.2438 274.695 74.7676 277.55 76.03 280.103C77.2924 282.656 79.2432 284.805 81.6621 286.308C84.0811 287.812 86.8721 288.609 89.72 288.61Z" fill="#A157FF"/>
<path d="M892.17 406V335.66C892.17 331.607 890.56 327.721 887.695 324.855C884.829 321.99 880.943 320.38 876.89 320.38H715.78C711.728 320.38 707.841 318.77 704.975 315.905C702.11 313.039 700.5 309.153 700.5 305.1V279C700.495 275.614 701.622 272.323 703.7 269.65L904.3 10.43C905.726 8.58396 907.557 7.08951 909.651 6.06151C911.745 5.03351 914.047 4.49932 916.38 4.5H929.47C931.477 4.5 933.464 4.89523 935.317 5.66312C937.171 6.43101 938.856 7.55653 940.275 8.97541C941.693 10.3943 942.819 12.0787 943.587 13.9326C944.355 15.7865 944.75 17.7734 944.75 19.78V257.33C944.75 261.377 946.356 265.259 949.215 268.124C952.074 270.989 955.953 272.602 960 272.61H982C986.053 272.61 989.939 274.22 992.805 277.085C995.67 279.951 997.28 283.837 997.28 287.89V305.1C997.28 309.153 995.67 313.039 992.805 315.905C989.939 318.77 986.053 320.38 982 320.38H960C955.949 320.383 952.065 321.994 949.202 324.859C946.339 327.724 944.73 331.609 944.73 335.66V406C944.73 410.053 943.12 413.939 940.255 416.805C937.389 419.67 933.503 421.28 929.45 421.28H907.45C903.398 421.28 899.511 419.67 896.645 416.805C893.78 413.939 892.17 410.053 892.17 406ZM785.72 272.61H882.28C886.333 272.61 890.219 271 893.085 268.135C895.95 265.269 897.56 261.383 897.56 257.33V130.88C897.56 116.27 879.01 109.99 870.14 121.61L773.58 248.06C771.852 250.324 770.792 253.026 770.518 255.861C770.244 258.695 770.768 261.55 772.03 264.103C773.292 266.656 775.243 268.805 777.662 270.308C780.081 271.812 782.872 272.609 785.72 272.61Z" fill="#A157FF"/>
<g clip-path="url(#clip0_92_127)">
<path d="M529.59 316.789C579.108 316.789 619.25 276.355 619.25 226.476C619.25 176.597 579.108 136.163 529.59 136.163C480.072 136.163 439.93 176.597 439.93 226.476C439.93 276.355 480.072 316.789 529.59 316.789Z" fill="white" stroke="white" stroke-width="4" stroke-miterlimit="10"/>
<path d="M556.324 271.336C626.749 231.998 671.866 178.358 657.095 151.529C642.325 124.699 573.26 134.839 502.835 174.177C432.41 213.515 387.293 267.155 402.064 293.984C416.834 320.814 485.899 310.674 556.324 271.336Z" stroke="#A157FF" stroke-width="9" stroke-miterlimit="10"/>
<path d="M624.748 85.8376L641 90.6517L628.179 101.748L623.348 118L612.269 105.179L596 100.348L608.838 89.269L613.652 73L624.748 85.8376Z" fill="white"/>
<path d="M379.723 291.975L392 295.734L382.31 304.362L378.659 317L370.292 307.025L358 303.266L367.704 294.638L371.341 282L379.723 291.975Z" fill="#A157FF"/>
<path d="M431.337 175.837L440 178.413L433.163 184.317L430.587 193L424.683 186.143L416 183.587L422.857 177.663L425.413 169L431.337 175.837Z" fill="#A157FF" stroke="#A157FF" stroke-width="8" stroke-miterlimit="10"/>
</g>
<path d="M657.195 343.825L672 348.658L660.315 359.751L655.912 376L645.822 363.175L631 358.342L642.702 347.249L647.088 331L657.195 343.825Z" fill="#A157FF"/>
<defs>
<clipPath id="clip0_92_127">
<rect width="398.234" height="285.527" fill="white" transform="translate(298 38)"/>
</clipPath>
</defs>
</svg>
