<svg width="932" height="426" viewBox="0 0 932 426" fill="none" xmlns="http://www.w3.org/2000/svg">
<path d="M822.17 406V335.66C822.17 331.607 820.56 327.721 817.695 324.855C814.829 321.99 810.943 320.38 806.89 320.38H645.78C641.728 320.38 637.841 318.77 634.975 315.905C632.11 313.039 630.5 309.153 630.5 305.1V279C630.495 275.614 631.622 272.323 633.7 269.65L834.3 10.43C835.726 8.58396 837.557 7.08951 839.651 6.06151C841.745 5.03351 844.047 4.49932 846.38 4.5H859.47C861.477 4.5 863.464 4.89523 865.317 5.66312C867.171 6.43101 868.856 7.55653 870.275 8.97541C871.693 10.3943 872.819 12.0787 873.587 13.9326C874.355 15.7865 874.75 17.7734 874.75 19.78V257.33C874.75 261.377 876.356 265.259 879.215 268.124C882.074 270.989 885.953 272.602 890 272.61H912C916.053 272.61 919.939 274.22 922.805 277.085C925.67 279.951 927.28 283.838 927.28 287.89V305.1C927.28 309.153 925.67 313.039 922.805 315.905C919.939 318.77 916.053 320.38 912 320.38H890C885.949 320.383 882.065 321.994 879.202 324.859C876.338 327.724 874.73 331.609 874.73 335.66V406C874.73 410.053 873.12 413.939 870.255 416.805C867.389 419.67 863.503 421.28 859.45 421.28H837.45C833.398 421.28 829.511 419.67 826.645 416.805C823.78 413.939 822.17 410.053 822.17 406ZM715.72 272.61H812.28C816.333 272.61 820.219 271 823.085 268.135C825.95 265.269 827.56 261.382 827.56 257.33V130.88C827.56 116.27 809.01 109.99 800.14 121.61L703.58 248.06C701.852 250.324 700.792 253.026 700.518 255.861C700.244 258.695 700.768 261.55 702.03 264.103C703.292 266.656 705.243 268.805 707.662 270.308C710.081 271.812 712.872 272.609 715.72 272.61Z" fill="#A157FF"/>
<g clip-path="url(#clip0_405_411)">
<path d="M459.59 316.789C509.108 316.789 549.25 276.355 549.25 226.476C549.25 176.597 509.108 136.163 459.59 136.163C410.072 136.163 369.93 176.597 369.93 226.476C369.93 276.355 410.072 316.789 459.59 316.789Z" fill="white" stroke="white" stroke-width="4" stroke-miterlimit="10"/>
<path d="M486.324 271.336C556.749 231.998 601.866 178.358 587.095 151.529C572.325 124.699 503.26 134.839 432.835 174.177C362.41 213.515 317.293 267.155 332.064 293.984C346.834 320.814 415.899 310.674 486.324 271.336Z" stroke="#A157FF" stroke-width="9" stroke-miterlimit="10"/>
<path d="M554.748 85.8376L571 90.6517L558.179 101.748L553.348 118L542.269 105.179L526 100.348L538.838 89.269L543.652 73L554.748 85.8376Z" fill="white"/>
<path d="M309.723 291.975L322 295.734L312.31 304.362L308.659 317L300.292 307.025L288 303.266L297.704 294.638L301.341 282L309.723 291.975Z" fill="#A157FF"/>
<path d="M361.337 175.837L370 178.413L363.163 184.317L360.587 193L354.683 186.143L346 183.587L352.857 177.663L355.413 169L361.337 175.837Z" fill="#A157FF" stroke="#A157FF" stroke-width="8" stroke-miterlimit="10"/>
</g>
<path d="M587.195 343.825L602 348.658L590.315 359.751L585.912 376L575.822 363.175L561 358.342L572.702 347.249L577.088 331L587.195 343.825Z" fill="#A157FF"/>
<g clip-path="url(#clip1_405_411)">
<path d="M221.14 53.0319H105.543C100.12 53.0295 94.8773 54.9739 90.7694 58.5108C86.6616 62.0477 83.9624 66.9417 83.1638 72.3007L74.4054 130.734C73.9132 133.998 74.1428 137.33 75.0779 140.496C76.0131 143.662 77.6311 146.585 79.8182 149.059C82.0053 151.533 84.7084 153.498 87.7373 154.816C90.7661 156.135 94.0473 156.774 97.35 156.689C99.4059 156.638 101.554 156.607 103.857 156.607C135.653 156.607 167.448 163.591 192.87 178.854C225.334 197.27 252 232.871 252 284.966C252 365.626 187.792 426 98.1107 426C64.6806 426 35.1055 419.016 13.9907 410.254C8.70942 408.078 4.44787 403.986 2.06229 398.8C-0.323286 393.614 -0.656125 387.717 1.13065 382.296C2.08558 379.374 3.6271 376.678 5.6609 374.371C7.69469 372.065 10.178 370.198 12.9589 368.884C15.7399 367.569 18.7599 366.836 21.8343 366.728C24.9088 366.62 27.9729 367.139 30.8394 368.255C52.1191 376.429 74.6967 380.712 97.4939 380.899C150.26 380.899 195.409 346.593 195.409 291.283C194.782 237.944 159.163 199.818 76.523 199.818C65.8936 199.818 56.3128 200.331 47.6058 201.071C44.2226 201.375 40.8144 200.913 37.6343 199.72C34.4541 198.527 31.5838 196.634 29.2363 194.181C26.8888 191.728 25.1245 188.778 24.0744 185.55C23.0243 182.323 22.7154 178.9 23.1706 175.537L43.3294 25.577C44.0621 20.1478 46.7438 15.1695 50.8757 11.5683C55.0075 7.96707 60.308 5.98827 65.7908 6.00005H221.14C227.138 6.00005 232.89 8.38077 237.131 12.6185C241.373 16.8562 243.755 22.6037 243.755 28.5967V30.3942C243.761 33.3651 243.18 36.3079 242.046 39.0542C240.912 41.8005 239.247 44.2963 237.146 46.399C235.045 48.5016 232.55 50.1698 229.804 51.3079C227.057 52.4461 224.113 53.0319 221.14 53.0319Z" fill="#A157FF"/>
</g>
<defs>
<clipPath id="clip0_405_411">
<rect width="398.234" height="285.527" fill="white" transform="translate(228 38)"/>
</clipPath>
<clipPath id="clip1_405_411">
<rect width="252" height="420" fill="white" transform="translate(0 6)"/>
</clipPath>
</defs>
</svg>
