<svg width="317" height="109" viewBox="0 0 317 109" fill="none" xmlns="http://www.w3.org/2000/svg">
<g clip-path="url(#clip0_101_53)">
<path d="M34.9897 78.0086C30.107 78.0737 25.2741 77.0189 20.8602 74.9249C16.6004 72.8907 12.8202 69.9724 9.77008 66.363C6.63214 62.6913 4.18067 58.482 2.53346 53.9375C0.85058 49.2857 -0.00664433 44.3743 0.000645471 39.4259C-0.0269396 34.2748 0.829836 29.1574 2.53346 24.2976C4.13636 19.6887 6.59143 15.424 9.77008 11.727C12.8445 8.14611 16.611 5.22733 20.8421 3.14704C25.3032 1.01597 30.1933 -0.0577486 35.1344 0.00890979C40.9482 -0.125813 46.6712 1.47129 51.5796 4.59819C53.6061 5.92188 55.5131 7.42109 57.2785 9.07864C57.7899 9.56087 58.4302 9.88353 59.1213 10.0073C59.8124 10.131 60.5245 10.0505 61.1707 9.77553C61.817 9.50058 62.3695 9.04305 62.761 8.45873C63.1524 7.87441 63.3659 7.18853 63.3753 6.4847V1.16983H74.6825V75.8681C74.9009 82.3042 73.1042 88.6473 69.5445 94.0076C66.0474 98.9785 61.2264 102.863 55.6321 105.218C49.4984 107.812 42.8946 109.103 36.238 109.009C27.7953 109.009 20.8361 107.509 15.3604 104.51C9.97652 101.548 5.35549 97.3681 1.86407 92.3025L9.26352 85.7541C12.1244 90.1133 16.1401 93.5869 20.8602 95.7852C25.6755 98.0285 30.9285 99.1686 36.238 99.1229C40.5809 99.1527 44.8862 98.314 48.9021 96.6559C52.7055 95.0982 55.9787 92.4714 58.3278 89.0918C60.8162 85.337 62.0805 80.9003 61.9461 76.3942V62.9528C59.148 67.5933 55.1711 71.4056 50.4218 73.9998C45.706 76.6415 40.3916 78.022 34.9897 78.0086ZM39.2955 67.5421C41.9655 67.5145 44.608 66.9981 47.0929 66.0184C49.4611 65.0725 51.6938 63.816 53.7325 62.2817C55.811 60.7595 57.6419 58.9238 59.16 56.8398C61.0184 54.2233 62.0176 51.0912 62.0185 47.8789V32.7506C62.0564 29.6913 61.2419 26.6821 59.6666 24.0618C58.6543 22.4402 57.4716 20.9321 56.1387 19.5632C53.7134 16.9536 50.8156 14.8299 47.5995 13.3051C44.5212 11.8276 41.1524 11.0591 37.7396 11.0558C34.1334 11.002 30.5706 11.8499 27.3731 13.5228C24.3543 15.1561 21.7152 17.4127 19.63 20.1437C15.3315 25.7543 12.9865 32.6233 12.9542 39.698C12.9375 43.3511 13.6256 46.9729 14.9804 50.364C16.2933 53.6409 18.1599 56.6661 20.4984 59.3068C22.8442 61.973 25.7406 64.0955 28.9865 65.527C32.2324 66.9585 35.7501 67.6646 39.2955 67.5965V67.5421Z" fill="#060608"/>
<path d="M89.3549 54.8079C89.2582 50.2907 90.7147 45.8776 93.4797 42.3098C96.474 38.6147 100.405 35.7953 104.859 34.1471C110.235 32.1275 115.945 31.1489 121.684 31.2629C125.269 31.2809 128.847 31.5476 132.395 32.0611C134.204 32.2969 135.796 32.6052 137.352 32.968C137.949 33.109 138.57 33.1141 139.169 32.983C139.768 32.8518 140.33 32.5878 140.814 32.2103C141.299 31.8328 141.692 31.3513 141.966 30.8013C142.241 30.2512 142.389 29.6466 142.399 29.0318C142.541 26.5235 142.15 24.0136 141.252 21.6683C140.353 19.3229 138.969 17.1956 137.189 15.4272C133.715 12.1258 128.782 10.4751 122.39 10.4751C118.293 10.4494 114.228 11.2066 110.413 12.7063C106.163 14.4434 102.101 16.6133 98.2921 19.182L93.6606 10.1123C98.2247 6.90912 103.204 4.3459 108.46 2.49374C113.416 0.805942 118.621 -0.0341389 123.855 0.00863485C133.516 0.00863485 141.169 2.67514 146.759 8.00814C152.35 13.3411 155.154 20.7058 155.154 30.2652V62.1181C155.06 63.3189 155.393 64.5142 156.095 65.4921C156.506 65.8938 156.993 66.2097 157.527 66.4214C158.061 66.6332 158.632 66.7365 159.206 66.7256V76.6116L155.95 77.0469C155.045 77.1376 154.304 77.192 153.725 77.192C152.489 77.2872 151.248 77.1164 150.084 76.6909C148.92 76.2654 147.861 75.5951 146.976 74.7251C145.582 73.3007 144.687 71.461 144.426 69.4828L144.154 64.6939C140.751 69.0308 136.307 72.432 131.237 74.5799C126.266 76.808 120.888 77.9755 115.443 78.0083C110.765 78.0894 106.139 77.0246 101.965 74.9065C98.1846 73.0125 94.9798 70.1374 92.6837 66.5805C90.461 63.0621 89.3046 58.9725 89.3549 54.8079ZM138.636 60.1228C139.726 58.8813 140.65 57.5033 141.386 56.0233C141.975 54.9316 142.321 53.7247 142.399 52.4861V51.7968C142.4 49.1204 141.47 46.5274 139.77 44.4646C138.069 42.4017 135.704 40.9983 133.082 40.4959H132.974C129.777 39.8806 126.531 39.5648 123.277 39.5527C117.775 39.3109 112.317 40.638 107.537 43.3801C105.693 44.4168 104.162 45.9327 103.105 47.7682C102.048 49.6037 101.504 51.6909 101.53 53.8103C101.549 56.2712 102.224 58.6823 103.484 60.794C104.89 63.0973 106.891 64.9774 109.274 66.2358C112.204 67.7574 115.474 68.5006 118.772 68.3944C122.671 68.4035 126.529 67.5941 130.097 66.0181C133.33 64.6854 136.241 62.6754 138.636 60.1228Z" fill="#060608"/>
<path d="M169.645 68.3218L209.989 19.3453C210.651 18.5489 211.072 17.5796 211.203 16.5514C211.334 15.5232 211.169 14.479 210.728 13.5415C210.287 12.604 209.588 11.8122 208.714 11.2594C207.839 10.7065 206.826 10.4155 205.792 10.4207H170.948V1.16956H231.627V9.45929L191.518 58.4358C190.862 59.2326 190.445 60.2001 190.317 61.2254C190.19 62.2506 190.356 63.2911 190.796 64.2253C191.236 65.1595 191.932 65.9487 192.804 66.5007C193.675 67.0527 194.684 67.3446 195.715 67.3423H231.753V76.6478H169.645V68.3218Z" fill="#060608"/>
<path d="M279.099 78.0083C273.741 78.0784 268.429 77.0217 263.504 74.9064C258.925 72.9049 254.786 70.0134 251.328 66.399C247.907 62.781 245.2 58.5465 243.35 53.9191C241.458 49.1464 240.5 44.0534 240.528 38.9178C240.448 32.1027 242.151 25.3856 245.467 19.436C248.808 13.4332 253.715 8.45433 259.661 5.03226C265.608 1.61019 272.37 -0.126294 279.225 0.00862406C286.244 -0.144555 293.157 1.74568 299.126 5.45046C304.669 8.9354 309.214 13.8047 312.315 19.5811C315.443 25.365 317.061 31.8484 317.019 38.428C317.019 39.3894 317.019 40.2419 317.019 41.2396C316.987 41.9447 316.915 42.6473 316.802 43.3438H254.024C254.334 47.9489 255.749 52.4107 258.149 56.3498C260.44 60.0402 263.61 63.101 267.375 65.2563C271.076 67.3965 275.279 68.5109 279.551 68.4851C284.152 68.4942 288.674 67.2933 292.667 65.0023C294.017 64.2324 295.29 63.3334 296.467 62.3177C298.599 60.4925 301.149 59.2243 303.889 58.6262C306.629 58.028 309.474 58.1184 312.17 58.8893C310.469 62.6528 308.004 66.0196 304.933 68.7753C301.576 71.7521 297.691 74.0716 293.482 75.6139C288.869 77.2699 283.997 78.081 279.099 78.0083ZM264.626 34.4736H302.184C302.563 34.4715 302.937 34.3863 303.28 34.2242C303.623 34.0621 303.926 33.8269 304.169 33.5349C304.412 33.243 304.589 32.9015 304.686 32.5341C304.784 32.1667 304.8 31.7824 304.734 31.408C304.142 27.8935 302.843 24.5364 300.917 21.5402C298.628 17.8736 295.463 14.8374 291.709 12.7062C287.888 10.5937 283.588 9.50651 279.225 9.54998C274.921 9.5164 270.682 10.604 266.923 12.7062C263.155 14.7931 259.979 17.8084 257.696 21.4676V21.5946C256.889 22.8567 256.434 24.3135 256.381 25.8123C256.327 27.311 256.677 28.7966 257.392 30.1134C258.108 31.4303 259.164 32.5298 260.449 33.2969C261.735 34.064 263.202 34.4704 264.698 34.4736H264.626Z" fill="#060608"/>
</g>
<defs>
<clipPath id="clip0_101_53">
<rect width="317" height="109" fill="white"/>
</clipPath>
</defs>
</svg>
