<svg width="19" height="18" viewBox="0 0 19 18" fill="none" xmlns="http://www.w3.org/2000/svg">
<path d="M18.3452 12.0112C18.3456 12.1878 18.311 12.3627 18.2435 12.5259C18.176 12.689 18.0768 12.8372 17.9518 12.9619L16.437 14.4767C16.1848 14.7289 15.8427 14.8705 15.4861 14.8705C15.1295 14.8704 14.7874 14.7287 14.5353 14.4765C14.2832 14.2243 14.1415 13.8822 14.1416 13.5256C14.1416 13.1689 14.2833 12.8269 14.5356 12.5748L14.8659 12.2444C14.9514 12.1615 15.001 12.0483 15.0041 11.9293C15.0043 11.8492 14.9886 11.77 14.9579 11.696C14.9273 11.6221 14.8823 11.555 14.8255 11.4986C14.815 11.488 14.804 11.4775 14.7929 11.4681C14.6854 11.3793 14.5485 11.3342 14.4092 11.3417C14.27 11.3492 14.1387 11.4087 14.0413 11.5085L8.60808 16.937C8.35415 17.18 8.01517 17.3139 7.66372 17.3101C7.31227 17.3063 6.9763 17.165 6.72774 16.9165C6.47918 16.668 6.33779 16.332 6.33385 15.9806C6.32991 15.6291 6.46374 15.2901 6.70667 15.0361L8.00614 13.7367C8.04428 13.6985 8.07454 13.6532 8.09517 13.6034C8.11581 13.5535 8.12643 13.5001 8.12643 13.4462C8.12643 13.3661 8.11067 13.2868 8.08002 13.2128C8.04938 13.1388 8.00447 13.0716 7.94784 13.015C7.93839 13.0055 7.92946 12.9971 7.91948 12.9887C7.8133 12.8966 7.67612 12.8484 7.5357 12.8536C7.39527 12.8589 7.26209 12.9173 7.16311 13.0171L5.92404 14.2561C5.79916 14.381 5.65091 14.48 5.48775 14.5476C5.3246 14.6151 5.14974 14.6499 4.97315 14.6498C4.79656 14.6498 4.62171 14.615 4.45857 14.5474C4.29544 14.4798 4.14721 14.3807 4.02236 14.2559C3.89752 14.131 3.79849 13.9827 3.73093 13.8196C3.66338 13.6564 3.62862 13.4816 3.62864 13.305C3.62867 13.1284 3.66347 12.9535 3.73107 12.7904C3.79867 12.6273 3.89774 12.479 4.02263 12.3542L8.52772 7.84909C8.61266 7.7643 8.66046 7.64924 8.66061 7.52921C8.66062 7.41277 8.62728 7.29875 8.56455 7.20064C8.50181 7.10254 8.4123 7.02444 8.30659 6.9756C8.20883 6.93307 8.10044 6.9213 7.99583 6.94185C7.89122 6.96239 7.79534 7.01429 7.72093 7.09063L3.24 11.5695C3.11582 11.6973 2.96747 11.7992 2.80356 11.8692C2.63965 11.9392 2.46345 11.976 2.28522 11.9773C2.10699 11.9786 1.93028 11.9444 1.76536 11.8768C1.60045 11.8092 1.45062 11.7095 1.32459 11.5835C1.19855 11.4574 1.09884 11.3076 1.03123 11.1427C0.963626 10.9778 0.929481 10.8011 0.930784 10.6228C0.932087 10.4446 0.96881 10.2684 1.03882 10.1045C1.10883 9.94058 1.21072 9.79222 1.33858 9.66804L3.48057 7.52501C3.55229 7.45465 3.59454 7.35962 3.59875 7.25923C3.60193 7.17354 3.58689 7.08814 3.55463 7.00869C3.52376 6.93341 3.47823 6.86503 3.42069 6.80752C3.36987 6.75324 3.30523 6.71384 3.2337 6.69354C3.1193 6.65943 2.99777 6.65715 2.88218 6.68695C2.76658 6.71675 2.6613 6.7775 2.57766 6.86267L2.30925 7.13107C2.18508 7.25893 2.03672 7.36083 1.87281 7.43084C1.7089 7.50085 1.5327 7.53757 1.35447 7.53887C1.17624 7.54018 0.999532 7.50603 0.834616 7.43843C0.6697 7.37082 0.51987 7.2711 0.393838 7.14507C0.267807 7.01904 0.168089 6.86921 0.100483 6.70429C0.0328776 6.53938 -0.00126665 6.36267 3.59114e-05 6.18444C0.00133848 6.0062 0.0380619 5.83001 0.108071 5.6661C0.178079 5.50219 0.279976 5.35383 0.407837 5.22966L3.91127 1.7257C4.03616 1.60081 4.18441 1.50175 4.34758 1.43416C4.51075 1.36658 4.68563 1.33179 4.86224 1.33179C5.03885 1.33179 5.21374 1.36658 5.3769 1.43416C5.54007 1.50175 5.68833 1.60081 5.81321 1.7257C5.9381 1.85058 6.03716 1.99884 6.10475 2.162C6.17233 2.32517 6.20712 2.50005 6.20712 2.67667C6.20712 2.85328 6.17233 3.02816 6.10475 3.19133C6.03716 3.3545 5.9381 3.50275 5.81321 3.62764L3.69067 5.75228C3.61218 5.82983 3.56648 5.93457 3.56303 6.04485V6.05746C3.56301 6.13868 3.57923 6.21908 3.61073 6.29395C3.64223 6.36881 3.68838 6.43662 3.74647 6.49338C3.80456 6.55015 3.87341 6.59473 3.94898 6.6245C4.02455 6.65428 4.10531 6.66864 4.18651 6.66675C4.29315 6.66238 4.394 6.61704 4.46804 6.54016L10.5977 0.407837C10.7219 0.279976 10.8703 0.178079 11.0342 0.108071C11.1981 0.0380619 11.3743 0.00133848 11.5525 3.59114e-05C11.7308 -0.00126665 11.9075 0.0328776 12.0724 0.100483C12.2373 0.168089 12.3871 0.267807 12.5132 0.393838C12.6392 0.51987 12.7389 0.6697 12.8065 0.834616C12.8741 0.999532 12.9083 1.17624 12.907 1.35447C12.9057 1.5327 12.8689 1.7089 12.7989 1.87281C12.7289 2.03672 12.627 2.18508 12.4992 2.30925L8.73309 6.07479C8.66191 6.14599 8.62186 6.24251 8.62174 6.34319C8.62162 6.4233 8.63733 6.50263 8.66798 6.57664C8.69863 6.65065 8.74361 6.71786 8.80033 6.77443C8.81136 6.78546 8.82291 6.79649 8.83499 6.80647C8.94606 6.89731 9.08717 6.94319 9.23043 6.93502C9.37369 6.92685 9.50867 6.86523 9.60869 6.76235L10.6151 5.75596C10.8676 5.50403 11.2098 5.36271 11.5665 5.36311C11.9232 5.3635 12.2651 5.50557 12.517 5.75806C12.7689 6.01055 12.9103 6.35278 12.9099 6.70947C12.9095 7.06615 12.7674 7.40807 12.5149 7.66L8.20784 11.9671C8.12976 12.0455 8.08578 12.1516 8.08546 12.2623C8.08536 12.3424 8.10109 12.4217 8.13174 12.4957C8.16239 12.5697 8.20735 12.6369 8.26404 12.6935C8.27507 12.7045 8.2861 12.7145 8.29766 12.7245C8.40664 12.8139 8.54522 12.8592 8.68597 12.8513C8.82672 12.8434 8.95939 12.783 9.0577 12.6819L15.9658 5.77592C16.218 5.52378 16.5601 5.38215 16.9167 5.3822C17.2734 5.38225 17.6154 5.52397 17.8675 5.77618C18.1196 6.0284 18.2613 6.37044 18.2612 6.72708C18.2612 7.08371 18.1195 7.42572 17.8672 7.67786L15.0834 10.4643C15.0096 10.5382 14.968 10.6383 14.9678 10.7427C14.9677 10.8228 14.9834 10.9021 15.0141 10.9762C15.0447 11.0502 15.0897 11.1174 15.1464 11.1739C15.1575 11.185 15.169 11.1955 15.1806 11.2055C15.2906 11.2958 15.4305 11.3415 15.5727 11.3335C15.7148 11.3255 15.8487 11.2645 15.948 11.1624L16.0304 11.0799C16.5531 10.5573 17.4061 10.5284 17.9376 11.0421C18.0674 11.1678 18.1704 11.3184 18.2405 11.485C18.3105 11.6515 18.3462 11.8305 18.3452 12.0112Z" fill="#A157FF"/>
<path d="M14.2708 5.10997C14.9206 5.10997 15.4474 4.5832 15.4474 3.9334C15.4474 3.2836 14.9206 2.75684 14.2708 2.75684C13.621 2.75684 13.0942 3.2836 13.0942 3.9334C13.0942 4.5832 13.621 5.10997 14.2708 5.10997Z" fill="#A157FF"/>
</svg>
