<svg width="252" height="66" viewBox="0 0 252 66" fill="none" xmlns="http://www.w3.org/2000/svg">
<path d="M68.9999 45.1764C69.0013 45.8406 68.8712 46.4985 68.6173 47.1122C68.3633 47.7258 67.9905 48.2832 67.5202 48.7522L61.8227 54.4498C60.874 55.3982 59.5875 55.9308 58.2462 55.9307C56.9048 55.9305 55.6184 55.3974 54.6701 54.4488C53.7217 53.5002 53.189 52.2137 53.1892 50.8723C53.1894 49.531 53.7224 48.2446 54.6711 47.2962L55.9137 46.0536C56.2353 45.7416 56.4218 45.3161 56.4333 44.8683C56.4339 44.5672 56.3749 44.2691 56.2596 43.991C56.1443 43.713 55.975 43.4605 55.7616 43.2483C55.7221 43.2088 55.6806 43.1693 55.6391 43.1337C55.2347 42.7998 54.7196 42.6301 54.1959 42.6582C53.6722 42.6864 53.1783 42.9104 52.812 43.2858L32.3767 63.7034C31.4216 64.6174 30.1466 65.1211 28.8247 65.1066C27.5029 65.0922 26.2392 64.5608 25.3043 63.6261C24.3694 62.6915 23.8377 61.428 23.8228 60.1061C23.808 58.7843 24.3114 57.5091 25.2251 56.5538L30.1127 51.6662C30.2561 51.5227 30.3699 51.3524 30.4475 51.165C30.5251 50.9775 30.5651 50.7766 30.5651 50.5737C30.5651 50.2725 30.5058 49.9742 30.3905 49.6959C30.2753 49.4176 30.1063 49.1648 29.8934 48.9518C29.8578 48.9162 29.8242 48.8846 29.7867 48.853C29.3874 48.5068 28.8714 48.3252 28.3432 48.345C27.8151 48.3648 27.3141 48.5845 26.9419 48.9597L22.2815 53.6201C21.8118 54.0896 21.2542 54.4621 20.6405 54.7162C20.0268 54.9703 19.3692 55.101 18.705 55.1009C18.0408 55.1008 17.3831 54.9699 16.7696 54.7157C16.156 54.4614 15.5985 54.0888 15.1289 53.6191C14.6593 53.1494 14.2868 52.5918 14.0328 51.9781C13.7787 51.3645 13.6479 50.7068 13.648 50.0426C13.6481 49.3784 13.779 48.7207 14.0333 48.1072C14.2875 47.4936 14.6602 46.9361 15.1299 46.4665L32.0744 29.522C32.3939 29.203 32.5737 28.7703 32.5742 28.3188C32.5743 27.8808 32.4489 27.452 32.2129 27.083C31.977 26.714 31.6403 26.4203 31.2427 26.2366C30.875 26.0766 30.4673 26.0324 30.0739 26.1096C29.6804 26.1869 29.3198 26.3821 29.0399 26.6692L12.1863 43.515C11.7192 43.9959 11.1612 44.3791 10.5447 44.6425C9.92822 44.9058 9.26552 45.0439 8.59516 45.0488C7.9248 45.0537 7.26016 44.9253 6.63988 44.671C6.01959 44.4167 5.45605 44.0417 4.98203 43.5676C4.508 43.0936 4.13294 42.5301 3.87866 41.9098C3.62438 41.2895 3.49596 40.6249 3.50086 39.9545C3.50576 39.2841 3.64388 38.6214 3.9072 38.0049C4.17052 37.3884 4.55377 36.8304 5.03468 36.3634L13.0911 28.303C13.3608 28.0384 13.5198 27.681 13.5356 27.3034C13.5476 26.9811 13.491 26.6599 13.3696 26.361C13.2535 26.0779 13.0823 25.8207 12.8659 25.6044C12.6747 25.4002 12.4316 25.252 12.1626 25.1757C11.7323 25.0474 11.2752 25.0388 10.8404 25.1509C10.4057 25.263 10.0097 25.4915 9.69506 25.8118L8.68554 26.8213C8.21849 27.3023 7.6605 27.6855 7.044 27.9488C6.4275 28.2121 5.7648 28.3503 5.09444 28.3552C4.42408 28.3601 3.75943 28.2316 3.13915 27.9774C2.51887 27.7231 1.95533 27.348 1.4813 26.874C1.00727 26.4 0.632214 25.8364 0.377937 25.2162C0.123659 24.5959 -0.00476413 23.9312 0.00013507 23.2609C0.00503427 22.5905 0.143158 21.9278 0.406475 21.3113C0.669791 20.6948 1.05305 20.1368 1.53395 19.6698L14.7111 6.49068C15.1808 6.02097 15.7384 5.64837 16.3521 5.39417C16.9658 5.13996 17.6236 5.00913 18.2878 5.00913C18.9521 5.00913 19.6099 5.13996 20.2236 5.39417C20.8373 5.64837 21.3949 6.02097 21.8646 6.49068C22.3343 6.96039 22.7069 7.51801 22.9611 8.13172C23.2153 8.74543 23.3462 9.40319 23.3462 10.0675C23.3462 10.7317 23.2153 11.3895 22.9611 12.0032C22.7069 12.6169 22.3343 13.1745 21.8646 13.6442L13.8813 21.6355C13.5861 21.9271 13.4142 22.3211 13.4012 22.7359V22.7833C13.4012 23.0888 13.4622 23.3912 13.5806 23.6728C13.6991 23.9543 13.8727 24.2094 14.0912 24.4229C14.3097 24.6364 14.5687 24.8041 14.8529 24.916C15.1371 25.028 15.4409 25.0821 15.7463 25.0749C16.1474 25.0585 16.5267 24.888 16.8052 24.5988L39.8602 1.53395C40.3272 1.05305 40.8852 0.669791 41.5017 0.406475C42.1182 0.143158 42.7809 0.00503427 43.4513 0.00013507C44.1216 -0.00476413 44.7863 0.123659 45.4066 0.377937C46.0268 0.632215 46.5904 1.00727 47.0644 1.4813C47.5384 1.95533 47.9135 2.51887 48.1678 3.13915C48.422 3.75943 48.5505 4.42408 48.5456 5.09444C48.5407 5.7648 48.4025 6.4275 48.1392 7.044C47.8759 7.6605 47.4927 8.21849 47.0118 8.68554L32.8469 22.8485C32.5791 23.1163 32.4285 23.4793 32.428 23.858C32.4276 24.1593 32.4867 24.4577 32.602 24.736C32.7172 25.0144 32.8864 25.2672 33.0997 25.4799C33.1412 25.5214 33.1847 25.5629 33.2301 25.6004C33.6479 25.9421 34.1786 26.1147 34.7174 26.0839C35.2563 26.0532 35.7639 25.8215 36.1401 25.4345L39.9254 21.6493C40.875 20.7017 42.1622 20.1702 43.5038 20.1717C44.8453 20.1732 46.1313 20.7075 47.0789 21.6572C48.0265 22.6069 48.558 23.8941 48.5565 25.2356C48.555 26.5772 48.0207 27.8632 47.071 28.8108L30.8713 45.0105C30.5776 45.3055 30.4122 45.7045 30.411 46.1208C30.4106 46.422 30.4698 46.7204 30.585 46.9987C30.7003 47.2771 30.8694 47.5299 31.0827 47.7427C31.1242 47.7842 31.1656 47.8217 31.2091 47.8593C31.619 48.1956 32.1402 48.3659 32.6696 48.3362C33.199 48.3066 33.698 48.0793 34.0678 47.6993L60.0506 21.7244C60.9992 20.776 62.2857 20.2433 63.6271 20.2435C64.9684 20.2437 66.2548 20.7767 67.2031 21.7253C68.1515 22.674 68.6842 23.9605 68.684 25.3018C68.6838 26.6432 68.1508 27.9296 67.2022 28.8779L56.7316 39.3584C56.4538 39.6361 56.2975 40.0126 56.297 40.4054C56.2965 40.7067 56.3556 41.0051 56.4709 41.2835C56.5862 41.5618 56.7553 41.8146 56.9687 42.0274C57.0102 42.0689 57.0536 42.1084 57.0971 42.1459C57.5109 42.4856 58.0372 42.6575 58.5718 42.6275C59.1064 42.5975 59.6102 42.3678 59.9834 41.9839L60.2936 41.6737C62.2593 39.708 65.4676 39.5994 67.4669 41.5315C67.955 42.0042 68.3425 42.5709 68.606 43.1973C68.8694 43.8237 69.0034 44.4969 68.9999 45.1764Z" fill="#A157FF"/>
<path d="M53.6754 19.2193C56.1194 19.2193 58.1006 17.2381 58.1006 14.794C58.1006 12.35 56.1194 10.3687 53.6754 10.3687C51.2313 10.3687 49.2501 12.35 49.2501 14.794C49.2501 17.2381 51.2313 19.2193 53.6754 19.2193Z" fill="#A157FF"/>
<g clip-path="url(#clip0_182_405)">
<path d="M115.888 44.2151C113.531 44.2461 111.199 43.7429 109.068 42.744C107.012 41.7736 105.188 40.3813 103.716 38.6594C102.201 36.9078 101.018 34.8997 100.223 32.7316C99.4105 30.5124 98.9968 28.1694 99.0003 25.8087C98.987 23.3513 99.4005 20.9099 100.223 18.5915C100.996 16.3928 102.181 14.3582 103.716 12.5945C105.199 10.8862 107.017 9.49376 109.059 8.50132C111.213 7.48467 113.573 6.97244 115.958 7.00424C118.764 6.93996 121.526 7.70188 123.895 9.19362C124.873 9.8251 125.793 10.5403 126.645 11.3311C126.892 11.5611 127.201 11.7151 127.535 11.7741C127.868 11.8331 128.212 11.7947 128.524 11.6635C128.836 11.5324 129.103 11.3141 129.292 11.0353C129.481 10.7566 129.584 10.4294 129.588 10.0936V7.55807H135.046V43.194C135.151 46.2644 134.284 49.2905 132.566 51.8476C130.878 54.2191 128.551 56.0723 125.851 57.1956C122.89 58.4334 119.703 59.0493 116.49 59.0042C112.415 59.0042 109.057 58.2889 106.414 56.8581C103.815 55.4449 101.585 53.4508 99.8997 51.0342L103.471 47.9102C104.852 49.9898 106.79 51.6469 109.068 52.6957C111.392 53.7659 113.928 54.3098 116.49 54.288C118.586 54.3022 120.664 53.9021 122.603 53.1111C124.438 52.3679 126.018 51.1148 127.152 49.5025C128.353 47.7112 128.963 45.5946 128.898 43.4449V37.0325C127.548 39.2464 125.628 41.065 123.336 42.3026C121.06 43.5629 118.495 44.2215 115.888 44.2151ZM117.966 39.2219C119.255 39.2087 120.53 38.9624 121.729 38.495C122.872 38.0438 123.95 37.4443 124.934 36.7123C125.937 35.9862 126.821 35.1104 127.554 34.1162C128.451 32.868 128.933 31.3738 128.933 29.8413V22.6241C128.952 21.1647 128.558 19.7291 127.798 18.479C127.309 17.7054 126.739 16.9859 126.095 16.3329C124.925 15.088 123.526 14.0748 121.974 13.3474C120.488 12.6425 118.862 12.2759 117.215 12.2743C115.474 12.2487 113.755 12.6531 112.212 13.4512C110.755 14.2304 109.481 15.307 108.474 16.6098C106.4 19.2864 105.268 22.5634 105.252 25.9385C105.244 27.6812 105.576 29.4091 106.23 31.0269C106.864 32.5901 107.765 34.0334 108.894 35.2931C110.026 36.5651 111.424 37.5777 112.99 38.2606C114.557 38.9435 116.255 39.2804 117.966 39.2479V39.2219Z" fill="white"/>
<path d="M142.127 33.1469C142.08 30.9919 142.783 28.8866 144.118 27.1845C145.563 25.4217 147.46 24.0766 149.61 23.2903C152.205 22.3269 154.961 21.86 157.731 21.9144C159.461 21.923 161.188 22.0502 162.9 22.2952C163.773 22.4077 164.542 22.5548 165.293 22.7279C165.581 22.7951 165.881 22.7975 166.17 22.735C166.459 22.6724 166.73 22.5465 166.964 22.3664C167.198 22.1863 167.388 21.9566 167.52 21.6942C167.652 21.4318 167.724 21.1433 167.729 20.85C167.797 19.6534 167.609 18.456 167.175 17.3372C166.742 16.2183 166.073 15.2034 165.214 14.3597C163.538 12.7848 161.157 11.9973 158.071 11.9973C156.094 11.985 154.132 12.3463 152.291 13.0617C150.239 13.8904 148.279 14.9256 146.441 16.1511L144.205 11.8242C146.408 10.2961 148.811 9.07327 151.348 8.18967C153.74 7.38448 156.252 6.98371 158.779 7.00411C163.442 7.00411 167.135 8.27621 169.833 10.8204C172.531 13.3646 173.885 16.878 173.885 21.4385V36.6343C173.84 37.2072 174 37.7774 174.339 38.2439C174.538 38.4356 174.773 38.5863 175.03 38.6873C175.288 38.7883 175.564 38.8376 175.841 38.8324V43.5486L174.269 43.7563C173.833 43.7996 173.475 43.8256 173.195 43.8256C172.599 43.871 172 43.7895 171.438 43.5865C170.876 43.3835 170.365 43.0637 169.938 42.6486C169.265 41.9691 168.833 41.0915 168.707 40.1477L168.576 37.8632C166.933 39.9321 164.788 41.5547 162.341 42.5794C159.942 43.6423 157.346 44.1993 154.718 44.215C152.461 44.2536 150.228 43.7457 148.213 42.7352C146.389 41.8316 144.842 40.4601 143.734 38.7631C142.661 37.0847 142.103 35.1336 142.127 33.1469ZM165.913 35.6824C166.439 35.0902 166.885 34.4328 167.24 33.7267C167.524 33.2059 167.691 32.6301 167.729 32.0392V31.7104C167.729 30.4336 167.281 29.1966 166.46 28.2125C165.639 27.2284 164.497 26.5588 163.232 26.3191H163.18C161.637 26.0256 160.07 25.875 158.499 25.8691C155.844 25.7538 153.21 26.3869 150.903 27.6951C150.013 28.1897 149.274 28.9128 148.764 29.7885C148.254 30.6641 147.991 31.6599 148.004 32.6709C148.013 33.845 148.338 34.9952 148.947 36.0026C149.625 37.1015 150.591 37.9984 151.741 38.5987C153.155 39.3246 154.733 39.6792 156.325 39.6285C158.207 39.6329 160.069 39.2467 161.791 38.4949C163.352 37.8591 164.757 36.9002 165.913 35.6824Z" fill="white"/>
<path d="M180.879 39.5939L200.351 16.2289C200.671 15.849 200.874 15.3866 200.937 14.8961C201 14.4056 200.921 13.9074 200.708 13.4602C200.495 13.0129 200.158 12.6352 199.736 12.3714C199.314 12.1077 198.824 11.9689 198.325 11.9713H181.508V7.55795H210.795V11.5127L191.436 34.8776C191.119 35.2577 190.918 35.7193 190.857 36.2084C190.795 36.6975 190.875 37.1939 191.088 37.6396C191.3 38.0853 191.636 38.4618 192.057 38.7251C192.477 38.9884 192.964 39.1277 193.462 39.1266H210.856V43.5659H180.879V39.5939Z" fill="white"/>
<path d="M233.707 44.215C231.121 44.2484 228.557 43.7443 226.18 42.7352C223.97 41.7803 221.973 40.4009 220.304 38.6766C218.652 36.9506 217.346 34.9305 216.453 32.7229C215.54 30.446 215.077 28.0163 215.091 25.5663C215.052 22.315 215.874 19.1106 217.474 16.2722C219.087 13.4085 221.455 11.0333 224.326 9.40071C227.196 7.76817 230.46 6.93975 233.768 7.00411C237.156 6.93104 240.492 7.8328 243.373 9.60022C246.049 11.2628 248.242 13.5857 249.739 16.3414C251.249 19.1007 252.03 22.1938 252.009 25.3326C252.009 25.7913 252.009 26.198 252.009 26.6739C251.994 27.0103 251.959 27.3455 251.904 27.6778H221.605C221.754 29.8747 222.437 32.0033 223.596 33.8825C224.701 35.643 226.232 37.1033 228.049 38.1314C229.835 39.1524 231.863 39.6841 233.925 39.6718C236.146 39.6761 238.329 39.1032 240.256 38.0103C240.907 37.643 241.522 37.2141 242.09 36.7295C243.119 35.8588 244.35 35.2538 245.672 34.9685C246.994 34.6831 248.367 34.7262 249.669 35.094C248.848 36.8894 247.658 38.4956 246.176 39.8102C244.556 41.2304 242.681 42.3369 240.649 43.0727C238.423 43.8627 236.071 44.2496 233.707 44.215ZM226.722 23.4461H244.849C245.032 23.4451 245.212 23.4045 245.378 23.3271C245.544 23.2498 245.69 23.1376 245.807 22.9983C245.925 22.8591 246.01 22.6961 246.057 22.5209C246.104 22.3456 246.112 22.1623 246.08 21.9836C245.794 20.307 245.167 18.7054 244.238 17.276C243.133 15.5269 241.605 14.0784 239.793 13.0617C237.949 12.0539 235.874 11.5352 233.768 11.556C231.691 11.5399 229.645 12.0588 227.83 13.0617C226.012 14.0573 224.479 15.4958 223.377 17.2414V17.302C222.987 17.9041 222.768 18.5991 222.742 19.3141C222.716 20.0291 222.885 20.7378 223.23 21.366C223.576 21.9943 224.086 22.5188 224.706 22.8848C225.326 23.2507 226.035 23.4446 226.756 23.4461H226.722Z" fill="white"/>
</g>
<defs>
<clipPath id="clip0_182_405">
<rect width="153" height="52" fill="white" transform="translate(99 7)"/>
</clipPath>
</defs>
</svg>
