<svg width="431" height="148" viewBox="0 0 431 148" fill="none" xmlns="http://www.w3.org/2000/svg">
<g clip-path="url(#clip0_47_110)">
<path d="M47.5727 105.92C40.9342 106.008 34.3632 104.576 28.362 101.733C22.5702 98.971 17.4306 95.0084 13.2836 90.1077C9.0172 85.1222 5.68413 79.4069 3.44455 73.2363C1.15647 66.9201 -0.00903378 60.2514 0.000877597 53.5325C-0.0366277 46.5383 1.12826 39.5899 3.44455 32.9913C5.62388 26.7333 8.96185 20.9427 13.2836 15.9229C17.4636 11.0608 22.5847 7.0977 28.3374 4.27308C34.4027 1.37953 41.0515 -0.0783703 47.7695 0.0121384C55.6741 -0.170787 63.4552 1.99775 70.1288 6.24346C72.8841 8.04075 75.4767 10.0764 77.877 12.327C78.5724 12.9818 79.4429 13.4199 80.3825 13.5879C81.3222 13.7559 82.2904 13.6466 83.169 13.2732C84.0477 12.8999 84.7989 12.2787 85.3312 11.4853C85.8634 10.6919 86.1536 9.76062 86.1664 8.80495V1.58844H101.54V103.014C101.837 111.753 99.3941 120.365 94.5542 127.643C89.7994 134.393 83.2447 139.667 75.6386 142.865C67.2991 146.388 58.3204 148.14 49.27 148.012C37.7911 148.012 28.3292 145.976 20.8843 141.904C13.5643 137.882 7.28144 132.206 2.53444 125.328L12.5949 116.437C16.4846 122.356 21.9445 127.072 28.362 130.057C34.909 133.103 42.0511 134.651 49.27 134.589C55.1747 134.629 61.0282 133.491 66.4883 131.239C71.6595 129.124 76.1099 125.558 79.3037 120.969C82.687 115.871 84.4059 109.846 84.2232 103.728V85.4773C80.4189 91.7782 75.0117 96.9544 68.5545 100.477C62.1429 104.064 54.9172 105.938 47.5727 105.92ZM53.427 91.7086C57.0572 91.6711 60.65 90.9699 64.0286 89.6397C67.2484 88.3554 70.284 86.6493 73.0559 84.566C75.8818 82.4992 78.3711 80.0067 80.4352 77.1771C82.962 73.6243 84.3204 69.3715 84.3216 65.01V44.4688C84.3732 40.3149 83.2658 36.229 81.1239 32.6712C79.7476 30.4694 78.1396 28.4216 76.3274 26.563C73.0299 23.0197 69.09 20.1361 64.7173 18.0657C60.532 16.0596 55.9517 15.0161 51.3116 15.0116C46.4085 14.9386 41.5645 16.0898 37.2171 18.3613C33.1126 20.5789 29.5244 23.643 26.6893 27.3511C20.8451 34.9692 17.6567 44.2959 17.6128 53.902C17.5901 58.8621 18.5256 63.7798 20.3677 68.3842C22.1527 72.8335 24.6906 76.9412 27.87 80.5267C31.0595 84.1469 34.9975 87.0288 39.4107 88.9725C43.8239 90.9161 48.6066 91.875 53.427 91.7825V91.7086Z" fill="#A157FF"/>
<path d="M121.489 74.4181C121.357 68.2846 123.338 62.2926 127.097 57.4482C131.168 52.431 136.512 48.6028 142.569 46.3648C149.878 43.6227 157.641 42.2938 165.445 42.4487C170.318 42.4732 175.183 42.8353 180.006 43.5324C182.466 43.8526 184.631 44.2713 186.746 44.7639C187.558 44.9553 188.402 44.9622 189.217 44.7842C190.031 44.6062 190.796 44.2477 191.454 43.7351C192.112 43.2225 192.648 42.5687 193.02 41.8219C193.393 41.0751 193.594 40.2541 193.609 39.4193C193.802 36.0135 193.27 32.6056 192.049 29.4211C190.827 26.2366 188.945 23.3482 186.525 20.947C181.802 16.4644 175.095 14.2231 166.404 14.2231C160.833 14.1882 155.307 15.2163 150.12 17.2525C144.341 19.6111 138.818 22.5575 133.64 26.0453L127.343 13.7305C133.548 9.38117 140.318 5.90085 147.464 3.38598C154.203 1.09429 161.279 -0.0463693 168.396 0.0117088C181.532 0.0117088 191.936 3.63228 199.537 10.8734C207.138 18.1146 210.95 28.1142 210.95 41.0941V84.3439C210.823 85.9743 211.276 87.5972 212.229 88.925C212.789 89.4705 213.451 89.8994 214.177 90.1869C214.903 90.4744 215.679 90.6147 216.46 90.5998V104.023L212.033 104.614C210.803 104.737 209.794 104.811 209.007 104.811C207.328 104.94 205.64 104.708 204.058 104.131C202.475 103.553 201.034 102.643 199.832 101.462C197.937 99.5275 196.72 97.0297 196.364 94.3435L195.995 87.8413C191.368 93.7299 185.325 98.3481 178.432 101.264C171.674 104.29 164.361 105.875 156.958 105.92C150.599 106.03 144.308 104.584 138.633 101.708C133.494 99.1362 129.136 95.2325 126.015 90.4028C122.993 85.6256 121.42 80.0727 121.489 74.4181ZM188.493 81.6346C189.974 79.9489 191.231 78.0778 192.232 76.0683C193.032 74.586 193.502 72.9473 193.609 71.2655V70.3296C193.611 66.6956 192.346 63.1748 190.034 60.3739C187.722 57.573 184.506 55.6673 180.941 54.9852H180.794C176.448 54.1498 172.034 53.721 167.609 53.7045C160.129 53.3762 152.709 55.1782 146.209 58.9014C143.703 60.3091 141.621 62.3673 140.184 64.8596C138.747 67.3518 138.007 70.1859 138.043 73.0635C138.068 76.4049 138.986 79.6787 140.699 82.5459C142.611 85.6734 145.331 88.2262 148.571 89.9348C152.554 92.0009 157 93.01 161.484 92.8658C166.786 92.8782 172.031 91.7791 176.883 89.6393C181.278 87.8297 185.236 85.1005 188.493 81.6346Z" fill="#A157FF"/>
<path d="M230.653 92.7672L285.506 26.267C286.405 25.1856 286.978 23.8695 287.156 22.4735C287.334 21.0774 287.11 19.6595 286.51 18.3866C285.911 17.1136 284.961 16.0386 283.772 15.2879C282.583 14.5373 281.205 14.1422 279.799 14.1492H232.424V1.58801H314.925V12.8438L260.392 79.344C259.5 80.4259 258.934 81.7396 258.76 83.1317C258.586 84.5237 258.812 85.9366 259.41 87.205C260.009 88.4734 260.955 89.545 262.14 90.2945C263.324 91.0439 264.697 91.4403 266.098 91.4372H315.097V104.072H230.653V92.7672Z" fill="#A157FF"/>
<path d="M379.469 105.92C372.185 106.015 364.962 104.58 358.266 101.708C352.04 98.9901 346.413 95.0641 341.711 90.1565C337.06 85.244 333.38 79.4944 330.864 73.2112C328.292 66.7309 326.989 59.8157 327.027 52.8425C326.918 43.589 329.233 34.4686 333.742 26.3901C338.285 18.2395 344.956 11.4793 353.041 6.83279C361.126 2.18632 370.321 -0.171482 379.641 0.0117097C389.184 -0.196276 398.582 2.37028 406.698 7.40063C414.235 12.1325 420.414 18.744 424.63 26.5872C428.884 34.4405 431.084 43.2438 431.025 52.1775C431.025 53.4828 431.025 54.6404 431.025 55.9951C430.983 56.9524 430.884 57.9064 430.73 58.8521H345.376C345.798 65.1049 347.722 71.1632 350.985 76.5116C354.099 81.5225 358.411 85.6785 363.529 88.6048C368.561 91.5108 374.275 93.0239 380.084 92.9889C386.339 93.0012 392.488 91.3707 397.917 88.26C399.752 87.2147 401.482 85.9939 403.083 84.6148C405.982 82.1365 409.449 80.4147 413.174 79.6025C416.899 78.7904 420.767 78.9131 424.433 79.9598C422.12 85.0698 418.769 89.6413 414.594 93.383C410.029 97.4248 404.748 100.574 399.024 102.668C392.753 104.917 386.129 106.018 379.469 105.92ZM359.791 46.8082H410.855C411.371 46.8053 411.88 46.6897 412.346 46.4696C412.812 46.2494 413.225 45.93 413.555 45.5337C413.885 45.1373 414.125 44.6735 414.258 44.1747C414.391 43.6759 414.413 43.1541 414.324 42.6458C413.518 37.8737 411.752 33.3154 409.134 29.2472C406.021 24.2688 401.718 20.1462 396.613 17.2525C391.419 14.3841 385.573 12.9079 379.641 12.9669C373.789 12.9214 368.025 14.3981 362.915 17.2525C357.791 20.086 353.474 24.1803 350.37 29.1487V29.3211C349.271 31.0348 348.653 33.0128 348.581 35.0478C348.508 37.0829 348.983 39.1 349.956 40.888C350.93 42.676 352.365 44.1689 354.113 45.2105C355.86 46.2521 357.855 46.8039 359.889 46.8082H359.791Z" fill="#A157FF"/>
</g>
<defs>
<clipPath id="clip0_47_110">
<rect width="431" height="148" fill="white"/>
</clipPath>
</defs>
</svg>
