<svg width="200" height="53" viewBox="0 0 200 53" fill="none" xmlns="http://www.w3.org/2000/svg">
<path d="M80.5773 35.9642C78.5097 35.9917 76.4633 35.5462 74.5943 34.6619C72.7905 33.8028 71.1898 32.5703 69.8983 31.046C68.5695 29.4954 67.5315 27.7177 66.834 25.7985C66.1214 23.8339 65.7584 21.7598 65.7615 19.67C65.7498 17.4945 66.1126 15.3333 66.834 13.281C67.5127 11.3345 68.5523 9.53346 69.8983 7.97213C71.2001 6.45985 72.795 5.22719 74.5866 4.34864C76.4756 3.44865 78.5463 2.99519 80.6385 3.02334C83.1003 2.96645 85.5237 3.64094 87.6021 4.96149C88.4602 5.52051 89.2677 6.15366 90.0152 6.85367C90.2318 7.05733 90.5029 7.19359 90.7955 7.24585C91.0882 7.29811 91.3897 7.26411 91.6633 7.14799C91.937 7.03187 92.171 6.83865 92.3367 6.59188C92.5025 6.34511 92.5929 6.05544 92.5969 5.7582V3.51363H97.3848V35.0602C97.4773 37.7783 96.7165 40.4571 95.2092 42.7209C93.7283 44.8202 91.6869 46.4608 89.3181 47.4552C86.7208 48.5509 83.9245 49.0961 81.1058 49.0563C77.5309 49.0563 74.5841 48.423 72.2654 47.1564C69.9857 45.9053 68.029 44.1401 66.5506 42.0008L69.6838 39.2353C70.8952 41.0762 72.5956 42.5432 74.5943 43.4716C76.6333 44.419 78.8576 44.9005 81.1058 44.8812C82.9448 44.8938 84.7678 44.5396 86.4683 43.8393C88.0788 43.1815 89.4649 42.0721 90.4595 40.6448C91.5132 39.0591 92.0486 37.1854 91.9917 35.2824V29.6058C90.8069 31.5656 89.1229 33.1756 87.1118 34.2712C85.115 35.3868 82.8646 35.9699 80.5773 35.9642ZM82.4005 31.544C83.5311 31.5323 84.65 31.3142 85.7023 30.9005C86.705 30.501 87.6504 29.9704 88.5137 29.3224C89.3938 28.6796 90.1691 27.9043 90.8119 27.0242C91.5989 25.9192 92.0219 24.5964 92.0223 23.2398V16.8508C92.0384 15.5588 91.6935 14.288 91.0264 13.1814C90.5978 12.4965 90.097 11.8596 89.5326 11.2815C88.5056 10.1794 87.2786 9.28256 85.9168 8.63861C84.6133 8.01463 83.1868 7.69007 81.7417 7.68869C80.2147 7.66596 78.706 8.02403 77.3521 8.73054C76.0738 9.4203 74.9563 10.3733 74.0733 11.5267C72.2532 13.8961 71.2602 16.7971 71.2466 19.7849C71.2395 21.3276 71.5308 22.8572 72.1045 24.2893C72.6604 25.6732 73.4509 26.9508 74.4411 28.066C75.4344 29.192 76.6608 30.0884 78.0353 30.693C79.4097 31.2975 80.8993 31.5957 82.4005 31.567V31.544Z" fill="#A157FF"/>
<path d="M103.598 26.166C103.557 24.2582 104.173 22.3945 105.344 20.8878C106.612 19.3273 108.276 18.1365 110.163 17.4405C112.439 16.5876 114.857 16.1743 117.287 16.2224C118.805 16.23 120.32 16.3427 121.822 16.5595C122.588 16.6591 123.263 16.7893 123.921 16.9425C124.174 17.0021 124.437 17.0042 124.691 16.9488C124.945 16.8935 125.183 16.782 125.388 16.6225C125.593 16.4631 125.759 16.2598 125.875 16.0275C125.992 15.7952 126.054 15.5398 126.059 15.2802C126.119 14.2209 125.953 13.1609 125.573 12.1704C125.192 11.1799 124.606 10.2815 123.852 9.53468C122.382 8.14044 120.293 7.44332 117.586 7.44332C115.851 7.43247 114.13 7.75226 112.515 8.38558C110.715 9.11919 108.995 10.0356 107.382 11.1204L105.421 7.29011C107.353 5.93733 109.462 4.85483 111.687 4.07263C113.786 3.35984 115.99 3.00505 118.207 3.02312C122.297 3.02312 125.538 4.14923 127.905 6.40147C130.272 8.6537 131.46 11.7639 131.46 15.8011V29.2532C131.42 29.7603 131.561 30.2651 131.858 30.6781C132.032 30.8478 132.238 30.9812 132.464 31.0706C132.691 31.16 132.932 31.2037 133.175 31.199V35.3741L131.797 35.5579C131.414 35.5962 131.099 35.6192 130.854 35.6192C130.331 35.6594 129.806 35.5873 129.313 35.4076C128.82 35.2279 128.371 34.9448 127.997 34.5774C127.407 33.9758 127.028 33.1989 126.917 32.3634L126.802 30.341C125.361 32.1726 123.479 33.609 121.332 34.5161C119.227 35.4571 116.95 35.9501 114.644 35.964C112.664 35.9982 110.705 35.5485 108.937 34.654C107.336 33.8541 105.979 32.6399 105.007 31.1377C104.066 29.6519 103.576 27.9247 103.598 26.166ZM124.465 28.4105C124.927 27.8862 125.318 27.3043 125.63 26.6792C125.879 26.2182 126.025 25.7085 126.059 25.1854V24.8943C126.059 23.764 125.665 22.6689 124.945 21.7978C124.225 20.9266 123.224 20.3339 122.113 20.1217H122.068C120.714 19.8619 119.339 19.7285 117.961 19.7234C115.632 19.6213 113.321 20.1817 111.297 21.3398C110.516 21.7776 109.868 22.4178 109.42 23.193C108.972 23.9681 108.742 24.8496 108.753 25.7446C108.761 26.7839 109.047 27.8022 109.581 28.694C110.176 29.6667 111.023 30.4607 112.032 30.9922C113.273 31.6348 114.657 31.9487 116.054 31.9038C117.705 31.9077 119.338 31.5658 120.849 30.9003C122.218 30.3374 123.451 29.4886 124.465 28.4105Z" fill="#A157FF"/>
<path d="M137.596 31.8734L154.679 11.1897C154.959 10.8533 155.137 10.444 155.193 10.0097C155.248 9.57552 155.179 9.13451 154.992 8.73859C154.805 8.34266 154.509 8.00828 154.139 7.7748C153.769 7.54132 153.339 7.41843 152.902 7.42061H138.147V3.51367H163.841V7.01459L146.857 27.6984C146.58 28.0349 146.403 28.4435 146.349 28.8765C146.295 29.3094 146.365 29.7489 146.552 30.1434C146.738 30.5379 147.033 30.8712 147.402 31.1043C147.771 31.3374 148.198 31.4607 148.635 31.4598H163.895V35.3897H137.596V31.8734Z" fill="#A157FF"/>
<path d="M183.943 35.964C181.674 35.9936 179.425 35.5474 177.339 34.654C175.4 33.8087 173.648 32.5876 172.184 31.0612C170.735 29.5332 169.589 27.7449 168.805 25.7907C168.004 23.7751 167.599 21.6242 167.61 19.4553C167.576 16.5771 168.298 13.7404 169.702 11.2277C171.117 8.69263 173.194 6.58997 175.712 5.14476C178.23 3.69955 181.094 2.96619 183.996 3.02317C186.968 2.95848 189.896 3.75677 192.423 5.32137C194.77 6.79313 196.695 8.84955 198.008 11.289C199.333 13.7317 200.018 16.4698 200 19.2485C200 19.6545 200 20.0145 200 20.4359C199.986 20.7336 199.956 21.0303 199.908 21.3245H173.325C173.457 23.2693 174.056 25.1536 175.072 26.8172C176.042 28.3757 177.384 29.6684 178.979 30.5786C180.546 31.4824 182.325 31.9531 184.134 31.9422C186.082 31.946 187.997 31.4389 189.688 30.4713C190.26 30.1462 190.799 29.7665 191.297 29.3375C192.2 28.5667 193.28 28.0312 194.44 27.7786C195.6 27.5259 196.805 27.5641 197.947 27.8897C197.226 29.4791 196.183 30.901 194.882 32.0647C193.46 33.3219 191.816 34.3015 190.033 34.9528C188.08 35.6522 186.017 35.9947 183.943 35.964ZM177.814 17.5784H193.718C193.878 17.5775 194.037 17.5416 194.182 17.4731C194.327 17.4046 194.456 17.3053 194.559 17.182C194.662 17.0587 194.736 16.9145 194.778 16.7593C194.819 16.6042 194.826 16.4419 194.798 16.2838C194.547 14.7995 193.997 13.3817 193.182 12.1164C192.212 10.5679 190.872 9.28565 189.282 8.38564C187.665 7.49347 185.844 7.03432 183.996 7.05268C182.174 7.0385 180.379 7.49781 178.787 8.38564C177.192 9.26695 175.847 10.5404 174.88 12.0857V12.1394C174.538 12.6724 174.346 13.2876 174.323 13.9206C174.3 14.5535 174.448 15.1809 174.751 15.7371C175.055 16.2932 175.502 16.7575 176.046 17.0815C176.59 17.4055 177.212 17.5771 177.845 17.5784H177.814Z" fill="#A157FF"/>
<path d="M56.0905 36.7242C56.0916 37.2641 55.9858 37.7989 55.7794 38.2978C55.573 38.7966 55.2699 39.2497 54.8876 39.631L50.256 44.2626C49.4849 45.0335 48.4391 45.4665 47.3487 45.4664C46.2583 45.4662 45.2126 45.0329 44.4416 44.2618C43.6707 43.4906 43.2377 42.4448 43.2379 41.3544C43.238 40.264 43.6713 39.2183 44.4424 38.4474L45.4526 37.4373C45.714 37.1837 45.8656 36.8377 45.875 36.4737C45.8755 36.229 45.8275 35.9866 45.7338 35.7606C45.64 35.5345 45.5024 35.3293 45.3289 35.1568C45.2968 35.1247 45.2631 35.0926 45.2294 35.0636C44.9006 34.7922 44.4819 34.6542 44.0562 34.6771C43.6305 34.7 43.2289 34.8821 42.9312 35.1873L26.3192 51.7849C25.5428 52.5279 24.5064 52.9373 23.4318 52.9256C22.3573 52.9138 21.33 52.4818 20.57 51.7221C19.8101 50.9623 19.3778 49.9352 19.3657 48.8606C19.3537 47.7861 19.7629 46.7495 20.5056 45.9729L24.4788 41.9998C24.5954 41.8832 24.6879 41.7447 24.751 41.5923C24.8141 41.4399 24.8465 41.2766 24.8465 41.1117C24.8465 40.8668 24.7983 40.6244 24.7047 40.3981C24.611 40.1719 24.4736 39.9663 24.3005 39.7932C24.2716 39.7643 24.2443 39.7386 24.2138 39.7129C23.8892 39.4314 23.4697 39.2838 23.0404 39.2999C22.611 39.316 22.2038 39.4946 21.9012 39.7996L18.1127 43.5881C17.7309 43.9698 17.2776 44.2726 16.7788 44.4791C16.2799 44.6857 15.7453 44.7919 15.2054 44.7919C14.6655 44.7918 14.1309 44.6854 13.6321 44.4787C13.1333 44.272 12.6801 43.9691 12.2984 43.5873C11.9166 43.2054 11.6139 42.7522 11.4073 42.2533C11.2008 41.7545 11.0945 41.2198 11.0946 40.6799C11.0946 40.14 11.2011 39.6054 11.4077 39.1066C11.6144 38.6078 11.9173 38.1546 12.2992 37.7729L26.0735 23.9986C26.3332 23.7393 26.4793 23.3875 26.4798 23.0206C26.4798 22.6645 26.3779 22.3159 26.1861 22.0159C25.9943 21.716 25.7206 21.4772 25.3974 21.3279C25.0985 21.1978 24.7671 21.1619 24.4472 21.2247C24.1274 21.2875 23.8342 21.4462 23.6067 21.6796L9.90629 35.3736C9.52662 35.7645 9.07302 36.0761 8.57187 36.2901C8.07071 36.5042 7.532 36.6165 6.98706 36.6204C6.44212 36.6244 5.90183 36.52 5.3976 36.3133C4.89337 36.1066 4.43526 35.8017 4.04992 35.4164C3.66458 35.0311 3.35969 34.5729 3.15299 34.0687C2.94628 33.5645 2.84189 33.0242 2.84587 32.4793C2.84985 31.9343 2.96213 31.3956 3.17619 30.8944C3.39024 30.3933 3.70179 29.9397 4.09272 29.56L10.6418 23.0077C10.8611 22.7926 10.9903 22.502 11.0032 22.1951C11.0129 21.9331 10.9669 21.672 10.8683 21.429C10.7739 21.1989 10.6347 20.9898 10.4587 20.814C10.3034 20.648 10.1057 20.5275 9.88702 20.4655C9.53726 20.3612 9.16567 20.3542 8.81225 20.4453C8.45882 20.5364 8.13692 20.7222 7.88118 20.9826L7.06053 21.8032C6.68086 22.1942 6.22726 22.5057 5.72611 22.7198C5.22495 22.9338 4.68624 23.0461 4.1413 23.0501C3.59636 23.0541 3.05607 22.9497 2.55184 22.743C2.0476 22.5363 1.5895 22.2314 1.20416 21.846C0.818818 21.4607 0.513931 21.0026 0.307227 20.4984C0.100523 19.9941 -0.00387279 19.4538 0.000109799 18.9089C0.00409239 18.364 0.116374 17.8252 0.330426 17.3241C0.544477 16.8229 0.856027 16.3693 1.24696 15.9897L11.9587 5.27631C12.3405 4.89448 12.7938 4.5916 13.2927 4.38495C13.7916 4.17831 14.3263 4.07195 14.8663 4.07195C15.4063 4.07195 15.941 4.17831 16.4399 4.38495C16.9388 4.5916 17.3921 4.89448 17.7739 5.27631C18.1557 5.65814 18.4586 6.11144 18.6652 6.61032C18.8719 7.10921 18.9782 7.64391 18.9782 8.1839C18.9782 8.72389 18.8719 9.25859 18.6652 9.75748C18.4586 10.2564 18.1557 10.7097 17.7739 11.0915L11.2842 17.5876C11.0442 17.8247 10.9045 18.1449 10.894 18.4821V18.5207C10.8939 18.769 10.9435 19.0148 11.0398 19.2437C11.1361 19.4726 11.2772 19.6799 11.4548 19.8535C11.6324 20.0271 11.843 20.1634 12.074 20.2544C12.305 20.3454 12.552 20.3893 12.8002 20.3836C13.1263 20.3702 13.4346 20.2316 13.661 19.9965L32.4026 1.24696C32.7822 0.856027 33.2358 0.544477 33.737 0.330426C34.2381 0.116374 34.7769 0.00409239 35.3218 0.000109799C35.8667 -0.00387279 36.407 0.100523 36.9113 0.307227C37.4155 0.513931 37.8736 0.818818 38.2589 1.20416C38.6443 1.5895 38.9492 2.0476 39.1559 2.55184C39.3626 3.05607 39.467 3.59636 39.463 4.1413C39.459 4.68624 39.3467 5.22495 39.1327 5.72611C38.9186 6.22726 38.6071 6.68086 38.2161 7.06053L26.7014 18.5737C26.4838 18.7913 26.3613 19.0865 26.3609 19.3943C26.3606 19.6392 26.4086 19.8818 26.5023 20.1081C26.596 20.3343 26.7336 20.5399 26.907 20.7128C26.9407 20.7465 26.976 20.7802 27.013 20.8108C27.3526 21.0885 27.784 21.2288 28.222 21.2038C28.66 21.1788 29.0727 20.9904 29.3785 20.6759L32.4556 17.5988C33.2276 16.8285 34.2739 16.3965 35.3645 16.3977C36.455 16.3989 37.5005 16.8333 38.2707 17.6053C39.041 18.3773 39.4731 19.4236 39.4719 20.5142C39.4707 21.6047 39.0363 22.6502 38.2643 23.4204L25.0955 36.5893C24.8567 36.8291 24.7223 37.1535 24.7213 37.4919C24.721 37.7368 24.7691 37.9793 24.8628 38.2056C24.9565 38.4318 25.0939 38.6374 25.2673 38.8103C25.301 38.8441 25.3347 38.8746 25.3701 38.9051C25.7033 39.1785 26.127 39.3169 26.5573 39.2928C26.9877 39.2687 27.3933 39.0839 27.6939 38.775L48.8155 17.6599C49.5866 16.8889 50.6324 16.4559 51.7228 16.4561C52.8132 16.4562 53.8589 16.8895 54.6298 17.6607C55.4008 18.4318 55.8338 19.4776 55.8336 20.568C55.8335 21.6584 55.4002 22.7041 54.629 23.475L46.1175 31.9947C45.8917 32.2204 45.7646 32.5265 45.7642 32.8458C45.7638 33.0907 45.8118 33.3333 45.9055 33.5596C45.9992 33.7858 46.1368 33.9914 46.3102 34.1643C46.3439 34.198 46.3792 34.2302 46.4146 34.2607C46.751 34.5368 47.1788 34.6766 47.6134 34.6522C48.0479 34.6278 48.4575 34.441 48.7609 34.129L49.013 33.8768C50.6109 32.2789 53.219 32.1906 54.8442 33.7612C55.2411 34.1455 55.5561 34.6061 55.7702 35.1153C55.9844 35.6245 56.0933 36.1718 56.0905 36.7242Z" fill="#A157FF"/>
<path d="M43.633 15.6234C45.6198 15.6234 47.2303 14.0128 47.2303 12.0261C47.2303 10.0393 45.6198 8.42871 43.633 8.42871C41.6462 8.42871 40.0356 10.0393 40.0356 12.0261C40.0356 14.0128 41.6462 15.6234 43.633 15.6234Z" fill="#A157FF"/>
</svg>
