<svg width="845" height="290" viewBox="0 0 845 290" fill="none" xmlns="http://www.w3.org/2000/svg">
<g clip-path="url(#clip0_174_16344)">
<path d="M93.269 207.546C80.2537 207.719 67.3711 204.912 55.6052 199.341C44.2502 193.929 34.1738 186.165 26.0433 176.562C17.6787 166.793 11.1441 155.594 6.75323 143.503C2.26732 131.127 -0.0177112 118.06 0.00172058 104.894C-0.0718107 91.1897 2.21202 77.5744 6.75323 64.6449C11.0259 52.3825 17.5702 41.0361 26.0433 31.2C34.2384 21.6729 44.2785 13.9073 55.557 8.37259C67.4485 2.70279 80.4838 -0.153901 93.6548 0.0234468C109.152 -0.334989 124.408 3.91418 137.491 12.2335C142.893 15.7552 147.976 19.7439 152.682 24.1539C154.046 25.4369 155.752 26.2954 157.595 26.6246C159.437 26.9538 161.335 26.7396 163.058 26.008C164.78 25.2765 166.253 24.0592 167.297 22.5046C168.34 20.95 168.909 19.1252 168.934 17.2526V3.11215H199.075V201.851C199.657 218.974 194.868 235.85 185.379 250.112C176.057 263.337 163.206 273.672 148.294 279.937C131.944 286.84 114.341 290.275 96.5966 290.023C74.0915 290.023 55.5409 286.034 40.9448 278.055C26.5936 270.173 14.2757 259.052 4.9689 245.575L24.693 228.153C32.3189 239.751 43.0233 248.992 55.6052 254.841C68.441 260.809 82.4435 263.843 96.5966 263.721C108.173 263.8 119.649 261.569 130.354 257.158C140.493 253.013 149.218 246.025 155.479 237.033C162.112 227.043 165.483 215.239 165.124 203.25V167.489C157.666 179.835 147.065 189.978 134.405 196.88C121.835 203.908 107.668 207.581 93.269 207.546ZM104.747 179.699C111.864 179.625 118.908 178.252 125.532 175.645C131.844 173.128 137.796 169.785 143.23 165.703C148.771 161.654 153.651 156.77 157.698 151.225C162.652 144.264 165.315 135.93 165.317 127.384V87.1344C165.419 78.995 163.247 70.9889 159.048 64.0175C156.35 59.7031 153.197 55.6906 149.644 52.0487C143.179 45.1058 135.455 39.4555 126.882 35.3987C118.676 31.4678 109.696 29.4231 100.599 29.4144C90.9865 29.2712 81.4895 31.527 72.9663 35.9778C64.9191 40.3233 57.8843 46.3271 52.3259 53.5931C40.868 68.5203 34.617 86.7956 34.5309 105.618C34.4865 115.338 36.3205 124.974 39.9321 133.996C43.4316 142.714 48.4074 150.763 54.6407 157.788C60.8939 164.882 68.6145 170.529 77.2669 174.338C85.9192 178.146 95.296 180.025 104.747 179.844V179.699Z" fill="white"/>
<path d="M238.185 145.819C237.928 133.801 241.81 122.06 249.181 112.567C257.162 102.736 267.64 95.2351 279.514 90.85C293.845 85.4769 309.064 82.8731 324.364 83.1765C333.918 83.2244 343.457 83.934 352.913 85.3C357.735 85.9274 361.979 86.7479 366.127 87.7131C367.718 88.0881 369.373 88.1017 370.97 87.7528C372.567 87.404 374.066 86.7015 375.357 85.6971C376.647 84.6926 377.697 83.4117 378.428 81.9483C379.159 80.4849 379.553 78.8763 379.581 77.2404C379.959 70.567 378.917 63.8894 376.522 57.6495C374.128 51.4096 370.437 45.7498 365.693 41.0447C356.433 32.2612 343.284 27.8695 326.244 27.8695C315.323 27.8011 304.488 29.8158 294.319 33.8056C282.989 38.4272 272.162 44.2006 262.009 51.0348L249.663 26.9043C261.829 18.382 275.101 11.5625 289.111 6.63469C302.324 2.14421 316.197 -0.0908664 330.151 0.0229354C355.903 0.0229354 376.302 7.11729 391.204 21.306C406.105 35.4947 413.58 55.0887 413.58 80.5222V165.268C413.33 168.463 414.218 171.643 416.088 174.245C417.185 175.314 418.483 176.154 419.907 176.718C421.33 177.281 422.852 177.556 424.383 177.527V203.829L415.702 204.987C413.291 205.228 411.314 205.373 409.77 205.373C406.478 205.627 403.169 205.172 400.066 204.04C396.964 202.908 394.139 201.125 391.782 198.81C388.066 195.02 385.68 190.126 384.983 184.862L384.259 172.121C375.187 183.66 363.341 192.709 349.827 198.424C336.577 204.352 322.24 207.458 307.726 207.545C295.258 207.761 282.925 204.928 271.798 199.292C261.722 194.253 253.179 186.604 247.059 177.141C241.134 167.78 238.051 156.899 238.185 145.819ZM369.551 159.96C372.455 156.657 374.919 152.99 376.881 149.053C378.451 146.148 379.372 142.937 379.581 139.642V137.808C379.584 130.687 377.106 123.788 372.572 118.3C368.039 112.812 361.734 109.078 354.745 107.741H354.456C345.936 106.104 337.283 105.264 328.607 105.232C313.941 104.589 299.394 108.119 286.652 115.415C281.737 118.173 277.656 122.206 274.839 127.09C272.021 131.973 270.571 137.526 270.641 143.165C270.691 149.712 272.489 156.127 275.849 161.745C279.597 167.874 284.929 172.876 291.281 176.224C299.091 180.272 307.808 182.249 316.599 181.967C326.993 181.991 337.277 179.837 346.788 175.645C355.406 172.099 363.166 166.751 369.551 159.96Z" fill="white"/>
<path d="M452.208 181.774L559.75 51.4691C561.514 49.3502 562.636 46.7713 562.985 44.0358C563.334 41.3003 562.895 38.522 561.72 36.0278C560.544 33.5335 558.682 31.427 556.351 29.9561C554.02 28.4852 551.318 27.711 548.562 27.7247H455.681V3.11163H617.427V25.1669L510.512 155.471C508.764 157.591 507.654 160.165 507.313 162.893C506.972 165.621 507.415 168.389 508.588 170.875C509.762 173.36 511.618 175.46 513.94 176.928C516.262 178.397 518.954 179.174 521.701 179.168H617.765V203.925H452.208V181.774Z" fill="white"/>
<path d="M743.97 207.545C729.689 207.731 715.528 204.92 702.4 199.292C690.194 193.967 679.163 186.274 669.945 176.658C660.826 167.032 653.609 155.766 648.677 143.454C643.635 130.757 641.081 117.206 641.154 103.543C640.942 85.4108 645.481 67.5398 654.32 51.7104C663.227 35.7396 676.306 22.4932 692.157 13.3886C708.008 4.284 726.035 -0.336012 744.308 0.0229448C763.017 -0.384595 781.443 4.64447 797.355 14.5012C812.131 23.7731 824.245 36.7282 832.511 52.0965C840.851 67.4848 845.164 84.7344 845.05 102.24C845.05 104.797 845.05 107.066 845.05 109.72C844.967 111.596 844.773 113.465 844.471 115.318H677.13C677.957 127.57 681.73 139.441 688.125 149.921C694.232 159.74 702.684 167.884 712.72 173.618C722.586 179.312 733.787 182.277 745.176 182.208C757.439 182.232 769.495 179.037 780.139 172.942C783.737 170.894 787.129 168.502 790.266 165.799C795.951 160.943 802.748 157.569 810.051 155.978C817.354 154.387 824.938 154.627 832.126 156.678C827.591 166.691 821.021 175.649 812.835 182.98C803.885 190.9 793.531 197.071 782.309 201.175C770.014 205.581 757.028 207.738 743.97 207.545ZM705.39 91.7187H805.505C806.516 91.713 807.513 91.4866 808.427 91.0553C809.342 90.6239 810.151 89.9981 810.798 89.2214C811.446 88.4447 811.916 87.536 812.176 86.5586C812.437 85.5812 812.481 84.5588 812.305 83.5626C810.725 74.2121 807.263 65.2802 802.13 57.3087C796.027 47.5537 787.591 39.4756 777.583 33.8056C767.399 28.1851 755.937 25.2925 744.308 25.4082C732.834 25.3189 721.535 28.2124 711.515 33.8056C701.47 39.3578 693.005 47.3803 686.92 57.1156V57.4535C684.766 60.8115 683.555 64.6872 683.412 68.6748C683.269 72.6623 684.201 76.6149 686.109 80.1183C688.017 83.6218 690.832 86.5472 694.258 88.5882C697.684 90.6291 701.596 91.7104 705.583 91.7187H705.39Z" fill="white"/>
</g>
<defs>
<clipPath id="clip0_174_16344">
<rect width="845" height="290" fill="white"/>
</clipPath>
</defs>
</svg>
