<svg width="283" height="431" viewBox="0 0 283 431" fill="none" xmlns="http://www.w3.org/2000/svg">
<path d="M163.136 263.471C182.463 263.471 198.131 247.803 198.131 228.475C198.131 209.148 182.463 193.48 163.136 193.48C143.809 193.48 128.141 209.148 128.141 228.475C128.141 247.803 143.809 263.471 163.136 263.471Z" stroke="#231F20" stroke-miterlimit="10"/>
<path d="M175.217 250.229C188.862 250.229 199.924 239.168 199.924 225.522C199.924 211.877 188.862 200.815 175.217 200.815C161.572 200.815 150.51 211.877 150.51 225.522C150.51 239.168 161.572 250.229 175.217 250.229Z" fill="#231F20" stroke="#231F20" stroke-miterlimit="10"/>
<path d="M179.498 282.935H115.18C102.463 282.935 92.1528 293.245 92.1528 305.962V305.968C92.1528 318.686 102.463 328.996 115.18 328.996H179.498C192.215 328.996 202.525 318.686 202.525 305.968V305.962C202.525 293.245 192.215 282.935 179.498 282.935Z" fill="white" stroke="#231F20" stroke-miterlimit="10"/>
<path d="M75.2053 316.233L113.423 367.446C117.041 372.333 118.613 378.438 117.805 384.465C116.997 390.491 113.872 395.966 109.095 399.728C106.735 401.544 104.036 402.871 101.158 403.633C98.279 404.395 95.2773 404.576 92.3279 404.165C89.3785 403.755 86.5404 402.761 83.9793 401.241C81.4182 399.722 79.1854 397.707 77.4112 395.316L39.1698 344.096C35.551 339.209 33.9793 333.104 34.7885 327.076C35.5977 321.049 38.7241 315.575 43.5039 311.815C45.8649 309.996 48.5647 308.667 51.4454 307.904C54.3262 307.141 57.3302 306.96 60.2817 307.371C63.2333 307.782 66.0733 308.778 68.6357 310.299C71.1981 311.821 73.4315 313.838 75.2053 316.233Z" fill="white" stroke="#231F20" stroke-miterlimit="10"/>
<path d="M51.6993 300.325L111.384 279.229C123.137 275.074 136.097 281.458 140.18 293.426C144.263 305.382 137.986 318.582 126.227 322.719L66.5427 343.815C54.7899 348 41.8296 341.585 37.7466 329.617C33.6636 317.691 39.9405 304.51 51.6993 300.325Z" fill="white" stroke="#231F20" stroke-miterlimit="10"/>
<path d="M172.264 252.124C186.434 252.124 197.922 240.637 197.922 226.467C197.922 212.296 186.434 200.809 172.264 200.809C158.094 200.809 146.606 212.296 146.606 226.467C146.606 240.637 158.094 252.124 172.264 252.124Z" stroke="#231F20" stroke-miterlimit="10"/>
<path d="M226.753 406.307H79L88.5947 325.126C90.4567 309.385 98.0297 294.874 109.878 284.345C121.726 273.816 137.026 268 152.876 268C168.727 268 184.027 273.816 195.875 284.345C207.723 294.874 215.296 309.385 217.158 325.126L226.753 406.307Z" fill="white" stroke="#231F20" stroke-miterlimit="10"/>
<path d="M244.839 271.595L184.898 294.917C173.046 299.528 167.176 312.874 171.788 324.726L171.79 324.732C176.401 336.584 189.748 342.454 201.6 337.843L261.54 314.521C273.392 309.91 279.262 296.563 274.651 284.711L274.648 284.705C270.037 272.853 256.691 266.984 244.839 271.595Z" fill="white" stroke="#231F20" stroke-miterlimit="10"/>
<path d="M184.023 278.998L241.125 308.597C252.416 314.45 266.313 310.041 272.166 298.75L272.169 298.745C278.021 287.454 273.613 273.557 262.322 267.704L205.22 238.105C193.929 232.252 180.031 236.661 174.179 247.952L174.176 247.957C168.323 259.248 172.732 273.146 184.023 278.998Z" fill="white" stroke="#231F20" stroke-miterlimit="10"/>
<path d="M169.054 264.266C179.269 264.266 187.55 255.982 187.55 245.764C187.55 235.545 179.269 227.262 169.054 227.262C158.839 227.262 150.558 235.545 150.558 245.764C150.558 255.982 158.839 264.266 169.054 264.266Z" fill="white" stroke="#231F20" stroke-miterlimit="10"/>
<path d="M136.767 245.323L153.975 254.253C155.665 255.131 157.748 254.472 158.625 252.781C159.503 251.09 158.843 249.008 157.153 248.13L139.945 239.2C138.255 238.322 136.172 238.981 135.295 240.672C134.417 242.363 135.077 244.445 136.767 245.323Z" fill="white" stroke="#231F20" stroke-miterlimit="10"/>
<path d="M146.594 239.024L163.801 247.954C165.492 248.832 167.574 248.173 168.451 246.482C169.329 244.791 168.67 242.709 166.979 241.831L149.772 232.9C148.081 232.023 145.999 232.682 145.121 234.373C144.244 236.064 144.903 238.146 146.594 239.024Z" fill="white" stroke="#231F20" stroke-miterlimit="10"/>
<path d="M154.45 232.03L171.657 240.96C173.348 241.838 175.43 241.179 176.307 239.488C177.185 237.797 176.526 235.715 174.835 234.837L157.628 225.907C155.937 225.029 153.855 225.688 152.977 227.379C152.099 229.07 152.759 231.152 154.45 232.03Z" fill="white" stroke="#231F20" stroke-miterlimit="10"/>
<path d="M231.028 404.378L243.911 484.328C245.519 494.294 244.425 504.509 240.743 513.908L214.176 581.752H164.164L182.696 489.78L163.883 449.805C163.66 449.334 163.304 448.939 162.858 448.667C162.413 448.396 161.898 448.261 161.377 448.279C160.856 448.297 160.352 448.467 159.926 448.768C159.5 449.069 159.172 449.487 158.981 449.973L134.37 512.814C132.419 516.927 129.411 520.448 125.654 523.018L87.3944 582.201L25.2051 581.322L75.2172 493.068L83.2755 404.378" fill="#060608"/>
<path d="M231.028 404.378L243.911 484.328C245.519 494.294 244.425 504.509 240.743 513.908L214.176 581.752H164.164L182.696 489.78L163.883 449.805C163.66 449.334 163.304 448.939 162.858 448.667C162.413 448.396 161.898 448.261 161.377 448.279C160.856 448.297 160.352 448.467 159.926 448.768C159.5 449.069 159.172 449.487 158.981 449.973L134.37 512.814C132.419 516.927 129.411 520.448 125.654 523.018L87.3944 582.201L25.2051 581.322L75.2172 493.068L83.2755 404.378" stroke="#231F20" stroke-miterlimit="10"/>
<path d="M84.5849 274.494H81.9606C64.1981 274.494 49.7988 288.893 49.7988 306.656V343.797C49.7988 361.56 64.1981 375.959 81.9606 375.959H84.5849C102.347 375.959 116.747 361.56 116.747 343.797V306.656C116.747 288.893 102.347 274.494 84.5849 274.494Z" fill="white"/>
<mask id="mask0_436_377" style="mask-type:luminance" maskUnits="userSpaceOnUse" x="49" y="274" width="68" height="102">
<path d="M84.5849 274.494H81.9606C64.1981 274.494 49.7988 288.893 49.7988 306.656V343.797C49.7988 361.56 64.1981 375.959 81.9606 375.959H84.5849C102.347 375.959 116.747 361.56 116.747 343.797V306.656C116.747 288.893 102.347 274.494 84.5849 274.494Z" fill="white"/>
</mask>
<g mask="url(#mask0_436_377)">
<path d="M75.2055 268.355H72.5812C54.8187 268.355 40.4194 282.754 40.4194 300.516V337.658C40.4194 355.42 54.8187 369.82 72.5812 369.82H75.2055C92.9679 369.82 107.367 355.42 107.367 337.658V300.516C107.367 282.754 92.9679 268.355 75.2055 268.355Z" fill="#060608" stroke="#231F20" stroke-miterlimit="10"/>
</g>
<path d="M84.7861 274H82.1617C64.3993 274 50 288.399 50 306.162V343.303C50 361.066 64.3993 375.465 82.1617 375.465H84.7861C102.549 375.465 116.948 361.066 116.948 343.303V306.162C116.948 288.399 102.549 274 84.7861 274Z" stroke="#231F20" stroke-miterlimit="10"/>
<path d="M87.2147 294.909H63.0515C61.5097 294.909 60.2598 296.159 60.2598 297.701C60.2598 299.243 61.5097 300.492 63.0515 300.492H87.2147C88.7565 300.492 90.0064 299.243 90.0064 297.701C90.0064 296.159 88.7565 294.909 87.2147 294.909Z" fill="white" stroke="#231F20" stroke-miterlimit="10"/>
<path d="M87.2147 305.962H63.0515C61.5097 305.962 60.2598 307.212 60.2598 308.754C60.2598 310.296 61.5097 311.546 63.0515 311.546H87.2147C88.7565 311.546 90.0064 310.296 90.0064 308.754C90.0064 307.212 88.7565 305.962 87.2147 305.962Z" fill="white" stroke="#231F20" stroke-miterlimit="10"/>
<path d="M87.2147 317.022H63.0515C61.5097 317.022 60.2598 318.271 60.2598 319.813C60.2598 321.355 61.5097 322.605 63.0515 322.605H87.2147C88.7565 322.605 90.0064 321.355 90.0064 319.813C90.0064 318.271 88.7565 317.022 87.2147 317.022Z" fill="white" stroke="#231F20" stroke-miterlimit="10"/>
<path d="M233.073 413.632L144.287 415.563L144.114 394.969L232.899 393.038C235.41 392.984 237.466 395.184 237.49 397.958L237.58 408.515C237.604 411.289 235.589 413.579 233.073 413.632Z" fill="white" stroke="#231F20" stroke-miterlimit="10"/>
<path d="M223.676 418.75L217.829 418.881C215.85 418.923 214.242 417.189 214.242 415.007L214.045 392.488C214.045 390.306 215.617 388.501 217.596 388.459L223.442 388.333C225.421 388.286 227.029 390.025 227.059 392.207L227.256 414.72C227.244 416.896 225.654 418.69 223.676 418.75Z" fill="white" stroke="#231F20" stroke-miterlimit="10"/>
<path d="M196.972 419.335L191.126 419.461C189.147 419.503 187.539 417.769 187.509 415.587L187.312 393.068C187.312 390.886 188.884 389.081 190.862 389.039L196.709 388.913C198.688 388.865 200.296 390.605 200.326 392.787L200.523 415.3C200.541 417.494 198.951 419.288 196.972 419.335Z" fill="white" stroke="#231F20" stroke-miterlimit="10"/>
<path d="M170.268 419.915L164.421 420.041C162.443 420.083 160.834 418.349 160.805 416.167L160.613 393.648C160.613 391.466 162.186 389.661 164.164 389.619L170.011 389.493C171.989 389.451 173.598 391.185 173.627 393.367L173.825 415.88C173.837 418.092 172.247 419.885 170.268 419.915Z" fill="white" stroke="#231F20" stroke-miterlimit="10"/>
<path d="M76.7543 396.493L147.241 394.963L147.42 415.557L76.9217 417.088C74.4049 417.142 72.3485 414.942 72.3246 412.168L72.2349 401.611C72.223 398.837 74.2376 396.571 76.7543 396.493Z" fill="white" stroke="#231F20" stroke-miterlimit="10"/>
<path d="M86.1566 391.376L91.9971 391.251C93.9818 391.203 95.5839 392.943 95.6198 395.125L95.8111 417.638C95.8111 419.826 94.2448 421.625 92.2601 421.673L86.4196 421.798C84.4349 421.84 82.8328 420.107 82.7969 417.925L82.6056 395.406C82.5877 393.224 84.1719 391.418 86.1566 391.376Z" fill="white" stroke="#231F20" stroke-miterlimit="10"/>
<path d="M112.855 390.796L118.702 390.671C120.681 390.623 122.289 392.363 122.324 394.545L122.516 417.058C122.516 419.24 120.944 421.045 118.965 421.087L113.118 421.219C111.14 421.26 109.532 419.527 109.502 417.345L109.31 394.826C109.286 392.644 110.877 390.838 112.855 390.796Z" fill="white" stroke="#231F20" stroke-miterlimit="10"/>
<path d="M139.558 390.217L145.405 390.091C147.384 390.043 148.992 391.777 149.022 393.965L149.219 416.478C149.255 418.69 147.647 420.483 145.668 420.483L139.821 420.615C137.843 420.657 136.235 418.923 136.205 416.741L136.007 394.222C135.99 392.064 137.58 390.258 139.558 390.217Z" fill="white" stroke="#231F20" stroke-miterlimit="10"/>
<path d="M139.558 390.217L145.405 390.091C147.384 390.043 148.992 391.777 149.022 393.965L149.219 416.478C149.255 418.69 147.647 420.483 145.668 420.483L139.821 420.615C137.843 420.657 136.235 418.923 136.205 416.741L136.007 394.222C135.99 392.064 137.58 390.258 139.558 390.217Z" fill="white" stroke="#231F20" stroke-miterlimit="10"/>
<path d="M165.788 124.949L166.042 133.068C166.042 135.437 165.196 137.213 163.504 138.397C161.982 139.412 160.121 139.919 157.922 139.919C155.892 139.919 154.37 139.497 153.355 138.651C152.34 137.636 151.579 136.283 151.071 134.591C150.733 132.73 150.564 130.446 150.564 127.74C150.733 125.033 150.817 122.073 150.817 118.859C151.156 113.277 154.37 107.441 160.46 101.351C163.166 98.6444 166.042 95.9379 169.087 93.2313C172.132 90.5247 175.007 87.7336 177.714 84.8579C183.804 77.7532 186.848 70.9022 186.848 64.305C186.848 56.3544 184.226 50.3493 178.983 46.2894C174.754 43.2445 168.833 41.7221 161.221 41.7221C152.763 41.7221 145.404 42.5679 139.145 44.2595C138.469 44.4287 137.538 44.5132 136.354 44.5132C135.339 44.5132 134.24 43.752 133.056 42.2296C131.871 40.7071 131.279 39.1001 131.279 37.4085C131.279 33.5178 133.309 30.9804 137.369 29.7963C144.474 27.9356 152.171 27.0052 160.46 27.0052C168.918 27.0052 175.515 27.7664 180.251 29.2888C184.988 30.6421 189.132 32.7566 192.684 35.6323C200.466 42.2296 204.357 51.3642 204.357 63.0363C204.357 73.1859 200.212 82.6588 191.923 91.4551C187.525 96.1916 183.127 100.59 178.729 104.65C174.5 108.54 171.624 111.331 170.102 113.023C167.564 116.237 166.126 119.705 165.788 123.426V124.949ZM149.041 169.607C148.534 168.423 148.28 167.239 148.28 166.055C148.28 164.871 148.534 163.771 149.041 162.756C149.549 161.572 150.225 160.472 151.071 159.457C152.763 157.597 155.385 156.666 158.937 156.666C162.151 156.666 164.435 157.428 165.788 158.95C167.31 160.303 168.241 161.572 168.579 162.756C169.087 163.771 169.34 164.871 169.34 166.055C169.34 167.239 169.087 168.423 168.579 169.607C168.241 170.791 167.564 171.806 166.549 172.652C164.689 174.682 162.151 175.697 158.937 175.697C155.385 175.697 152.932 175.02 151.579 173.667C150.395 172.144 149.549 170.791 149.041 169.607Z" fill="#060608"/>
<path d="M165.788 124.949H164.118V124.975L164.118 125.001L165.788 124.949ZM166.042 133.068H167.712V133.042L167.711 133.016L166.042 133.068ZM163.504 138.397L164.431 139.787L164.447 139.776L164.462 139.766L163.504 138.397ZM153.355 138.651L152.174 139.832L152.227 139.886L152.285 139.934L153.355 138.651ZM151.071 134.591L149.428 134.89L149.444 134.982L149.471 135.071L151.071 134.591ZM150.564 127.74L148.896 127.636L148.893 127.688V127.74H150.564ZM150.817 118.859L149.15 118.758L149.147 118.808V118.859H150.817ZM160.46 101.351L159.278 100.17L159.278 100.17L160.46 101.351ZM169.087 93.2313L167.977 91.9828L167.977 91.9828L169.087 93.2313ZM177.714 84.8579L178.93 86.0028L178.957 85.9745L178.982 85.945L177.714 84.8579ZM178.983 46.2894L180.005 44.9686L179.982 44.9508L179.959 44.9338L178.983 46.2894ZM139.145 44.2595L139.551 45.8801L139.566 45.8762L139.581 45.8721L139.145 44.2595ZM137.369 29.7963L136.946 28.1804L136.924 28.1862L136.901 28.1927L137.369 29.7963ZM180.251 29.2888L179.74 30.8792L179.766 30.8875L179.792 30.895L180.251 29.2888ZM192.684 35.6323L193.765 34.3582L193.75 34.3459L193.736 34.334L192.684 35.6323ZM191.923 91.4551L190.708 90.3095L190.699 90.3185L191.923 91.4551ZM178.729 104.65L179.86 105.879L179.862 105.877L178.729 104.65ZM170.102 113.023L168.86 111.906L168.824 111.946L168.791 111.988L170.102 113.023ZM165.788 123.426L164.124 123.275L164.118 123.351V123.426H165.788ZM149.041 169.607L150.577 168.949L150.577 168.949L149.041 169.607ZM149.041 162.756L150.535 163.503L150.557 163.459L150.577 163.414L149.041 162.756ZM151.071 159.457L149.835 158.334L149.811 158.36L149.788 158.388L151.071 159.457ZM165.788 158.95L164.54 160.06L164.605 160.133L164.678 160.198L165.788 158.95ZM168.579 162.756L166.973 163.215L167.016 163.364L167.085 163.503L168.579 162.756ZM168.579 169.607L167.044 168.949L167.002 169.046L166.973 169.148L168.579 169.607ZM166.549 172.652L165.48 171.369L165.394 171.44L165.318 171.523L166.549 172.652ZM151.579 173.667L150.26 174.692L150.324 174.775L150.397 174.848L151.579 173.667ZM164.118 125.001L164.372 133.121L167.711 133.016L167.458 124.897L164.118 125.001ZM164.371 133.068C164.371 134.984 163.721 136.207 162.546 137.029L164.462 139.766C166.671 138.219 167.712 135.889 167.712 133.068H164.371ZM162.578 137.007C161.381 137.805 159.859 138.249 157.922 138.249V141.59C160.383 141.59 162.583 141.019 164.431 139.787L162.578 137.007ZM157.922 138.249C156.083 138.249 155.015 137.86 154.424 137.367L152.285 139.934C153.725 141.134 155.701 141.59 157.922 141.59V138.249ZM154.536 137.47C153.757 136.69 153.117 135.598 152.671 134.111L149.471 135.071C150.04 136.967 150.923 138.581 152.174 139.832L154.536 137.47ZM152.715 134.292C152.4 132.562 152.234 130.385 152.234 127.74H148.893C148.893 130.508 149.066 132.898 149.428 134.89L152.715 134.292ZM152.231 127.844C152.403 125.097 152.488 122.102 152.488 118.859H149.147C149.147 122.044 149.063 124.97 148.896 127.636L152.231 127.844ZM152.485 118.96C152.788 113.956 155.69 108.483 161.641 102.532L159.278 100.17C153.05 106.398 149.523 112.598 149.15 118.758L152.485 118.96ZM161.641 102.532C164.323 99.8502 167.174 97.166 170.196 94.4798L167.977 91.9828C164.909 94.7097 162.009 97.4387 159.278 100.17L161.641 102.532ZM170.196 94.4798C173.277 91.7413 176.189 88.9157 178.93 86.0028L176.497 83.713C173.826 86.5515 170.986 89.3081 167.977 91.9828L170.196 94.4798ZM178.982 85.945C185.224 78.6626 188.519 71.4395 188.519 64.305H185.178C185.178 70.3649 182.383 76.8437 176.446 83.7708L178.982 85.945ZM188.519 64.305C188.519 55.9525 185.741 49.409 180.005 44.9686L177.96 47.6103C182.712 51.2895 185.178 56.7563 185.178 64.305H188.519ZM179.959 44.9338C175.342 41.6095 169.029 40.0516 161.221 40.0516V43.3926C168.637 43.3926 174.166 44.8796 178.006 47.6451L179.959 44.9338ZM161.221 40.0516C152.658 40.0516 145.146 40.9073 138.71 42.6469L139.581 45.8721C145.662 44.2285 152.868 43.3926 161.221 43.3926V40.0516ZM138.74 42.6389C138.256 42.7599 137.482 42.8428 136.354 42.8428V46.1837C137.594 46.1837 138.681 46.0974 139.551 45.8801L138.74 42.6389ZM136.354 42.8428C136.169 42.8428 135.506 42.6587 134.374 41.204L131.737 43.2551C132.974 44.8454 134.509 46.1837 136.354 46.1837V42.8428ZM134.374 41.204C133.385 39.9317 132.95 38.6775 132.95 37.4085H129.609C129.609 39.5228 130.358 41.4826 131.737 43.2551L134.374 41.204ZM132.95 37.4085C132.95 35.7648 133.373 34.5481 134.106 33.631C134.85 32.7011 136.038 31.9246 137.837 31.4L136.901 28.1927C134.641 28.8521 132.783 29.9364 131.497 31.5439C130.201 33.1643 129.609 35.1615 129.609 37.4085H132.95ZM137.792 31.4123C144.743 29.592 152.296 28.6756 160.46 28.6756V25.3347C152.046 25.3347 144.205 26.2791 136.946 28.1804L137.792 31.4123ZM160.46 28.6756C168.847 28.6756 175.245 29.4342 179.74 30.8792L180.762 27.6985C175.785 26.0986 168.988 25.3347 160.46 25.3347V28.6756ZM179.792 30.895C184.33 32.1914 188.269 34.2071 191.633 36.9307L193.736 34.334C189.995 31.3062 185.646 29.0928 180.71 27.6827L179.792 30.895ZM191.604 36.9065C198.955 43.1386 202.686 51.7761 202.686 63.0363H206.027C206.027 50.9524 201.977 41.3206 193.765 34.3582L191.604 36.9065ZM202.686 63.0363C202.686 72.6808 198.764 81.7603 190.708 90.3095L193.139 92.6007C201.661 83.5573 206.027 73.6909 206.027 63.0363H202.686ZM190.699 90.3185C186.328 95.026 181.96 99.3936 177.596 103.422L179.862 105.877C184.294 101.786 188.722 97.3572 193.147 92.5918L190.699 90.3185ZM177.598 103.42C173.371 107.309 170.441 110.148 168.86 111.906L171.343 114.14C172.807 112.514 175.629 109.772 179.86 105.879L177.598 103.42ZM168.791 111.988C166.072 115.431 164.495 119.2 164.124 123.275L167.452 123.578C167.758 120.209 169.056 117.043 171.413 114.058L168.791 111.988ZM164.118 123.426V124.949H167.459V123.426H164.118ZM150.577 168.949C150.15 167.954 149.95 166.993 149.95 166.055H146.61C146.61 167.484 146.917 168.891 147.506 170.265L150.577 168.949ZM149.95 166.055C149.95 165.118 150.149 164.276 150.535 163.503L147.547 162.009C146.919 163.266 146.61 164.623 146.61 166.055H149.95ZM150.577 163.414C151.019 162.382 151.609 161.421 152.354 160.527L149.788 158.388C148.841 159.524 148.079 160.762 147.506 162.098L150.577 163.414ZM152.307 160.581C153.569 159.193 155.656 158.337 158.937 158.337V154.996C155.113 154.996 151.956 156 149.835 158.334L152.307 160.581ZM158.937 158.337C161.946 158.337 163.648 159.056 164.54 160.06L167.037 157.84C165.222 155.799 162.356 154.996 158.937 154.996V158.337ZM164.678 160.198C166.103 161.465 166.762 162.476 166.973 163.215L170.185 162.297C169.72 160.668 168.518 159.142 166.898 157.701L164.678 160.198ZM167.085 163.503C167.472 164.276 167.67 165.118 167.67 166.055H171.011C171.011 164.623 170.702 163.266 170.073 162.009L167.085 163.503ZM167.67 166.055C167.67 166.993 167.47 167.954 167.044 168.949L170.115 170.265C170.703 168.891 171.011 167.484 171.011 166.055H167.67ZM166.973 169.148C166.734 169.986 166.257 170.721 165.48 171.369L167.619 173.935C168.872 172.891 169.748 171.596 170.185 170.066L166.973 169.148ZM165.318 171.523C163.827 173.149 161.769 174.026 158.937 174.026V177.367C162.534 177.367 165.55 176.214 167.781 173.781L165.318 171.523ZM158.937 174.026C155.486 174.026 153.621 173.347 152.76 172.486L150.397 174.848C152.243 176.693 155.283 177.367 158.937 177.367V174.026ZM152.897 172.641C151.762 171.182 151.007 169.954 150.577 168.949L147.506 170.265C148.09 171.628 149.027 173.107 150.26 174.692L152.897 172.641Z" fill="black"/>
<path d="M160.464 125.267L160.718 133.387C160.718 135.755 159.872 137.531 158.181 138.715C156.658 139.73 154.797 140.238 152.598 140.238C150.568 140.238 149.046 139.815 148.031 138.969C147.016 137.954 146.255 136.601 145.747 134.909C145.409 133.048 145.24 130.765 145.24 128.058C145.409 125.352 145.494 122.391 145.494 119.177C145.832 113.595 149.046 107.759 155.136 101.669C157.842 98.9626 160.718 96.256 163.763 93.5495C166.808 90.8429 169.684 88.0518 172.39 85.1761C178.48 78.0713 181.525 71.2204 181.525 64.6231C181.525 56.6726 178.903 50.6674 173.659 46.6076C169.43 43.5627 163.509 42.0403 155.897 42.0403C147.439 42.0403 140.081 42.8861 133.822 44.5777C133.145 44.7468 132.215 44.8314 131.03 44.8314C130.016 44.8314 128.916 44.0702 127.732 42.5478C126.548 41.0253 125.956 39.4183 125.956 37.7267C125.956 33.836 127.986 31.2986 132.045 30.1145C139.15 28.2537 146.847 27.3234 155.136 27.3234C163.594 27.3234 170.191 28.0846 174.928 29.607C179.664 30.9603 183.808 33.0748 187.361 35.9505C195.142 42.5478 199.033 51.6824 199.033 63.3544C199.033 73.504 194.888 82.977 186.6 91.7733C182.201 96.5098 177.803 100.908 173.405 104.968C169.176 108.858 166.3 111.65 164.778 113.341C162.241 116.555 160.803 120.023 160.464 123.745V125.267ZM143.717 169.925C143.21 168.741 142.956 167.557 142.956 166.373C142.956 165.189 143.21 164.089 143.717 163.074C144.225 161.89 144.902 160.791 145.747 159.776C147.439 157.915 150.061 156.984 153.613 156.984C156.827 156.984 159.111 157.746 160.464 159.268C161.987 160.621 162.917 161.89 163.255 163.074C163.763 164.089 164.017 165.189 164.017 166.373C164.017 167.557 163.763 168.741 163.255 169.925C162.917 171.109 162.241 172.124 161.226 172.97C159.365 175 156.827 176.015 153.613 176.015C150.061 176.015 147.608 175.338 146.255 173.985C145.071 172.463 144.225 171.109 143.717 169.925Z" fill="#A157FF"/>
<path d="M160.464 125.267H159.964V125.275L159.965 125.283L160.464 125.267ZM160.718 133.387H161.218V133.379L161.218 133.371L160.718 133.387ZM158.181 138.715L158.458 139.131L158.467 139.125L158.181 138.715ZM148.031 138.969L147.678 139.322L147.694 139.339L147.711 139.353L148.031 138.969ZM145.747 134.909L145.255 134.999L145.26 135.026L145.268 135.053L145.747 134.909ZM145.24 128.058L144.741 128.027L144.74 128.043V128.058H145.24ZM145.494 119.177L144.995 119.147L144.994 119.162V119.177H145.494ZM155.136 101.669L154.782 101.316L154.782 101.316L155.136 101.669ZM163.763 93.5495L163.431 93.1758L163.431 93.1758L163.763 93.5495ZM172.39 85.1761L172.754 85.5187L172.762 85.5103L172.77 85.5015L172.39 85.1761ZM173.659 46.6076L173.965 46.2122L173.958 46.2069L173.951 46.2018L173.659 46.6076ZM133.822 44.5777L133.943 45.0628L133.952 45.0604L133.822 44.5777ZM132.045 30.1145L131.919 29.6306L131.905 29.6345L132.045 30.1145ZM174.928 29.607L174.774 30.083L174.782 30.0855L174.79 30.0878L174.928 29.607ZM187.361 35.9505L187.684 35.569L187.675 35.5619L187.361 35.9505ZM186.6 91.7733L186.236 91.4304L186.233 91.4331L186.6 91.7733ZM173.405 104.968L173.744 105.336L173.744 105.335L173.405 104.968ZM164.778 113.341L164.406 113.007L164.395 113.019L164.385 113.031L164.778 113.341ZM160.464 123.745L159.966 123.699L159.964 123.722V123.745H160.464ZM143.717 169.925L144.177 169.728L144.177 169.728L143.717 169.925ZM143.717 163.074L144.165 163.298L144.171 163.285L144.177 163.271L143.717 163.074ZM145.747 159.776L145.377 159.439L145.37 159.447L145.363 159.456L145.747 159.776ZM160.464 159.268L160.091 159.6L160.11 159.622L160.132 159.642L160.464 159.268ZM163.255 163.074L162.775 163.212L162.787 163.256L162.808 163.298L163.255 163.074ZM163.255 169.925L162.796 169.728L162.783 169.757L162.775 169.788L163.255 169.925ZM161.226 172.97L160.905 172.586L160.88 172.607L160.857 172.632L161.226 172.97ZM146.255 173.985L145.86 174.292L145.879 174.317L145.901 174.339L146.255 173.985ZM159.965 125.283L160.218 133.402L161.218 133.371L160.964 125.251L159.965 125.283ZM160.218 133.387C160.218 135.619 159.431 137.23 157.894 138.306L158.467 139.125C160.314 137.832 161.218 135.89 161.218 133.387H160.218ZM157.903 138.299C156.478 139.249 154.719 139.738 152.598 139.738V140.738C154.876 140.738 156.838 140.211 158.458 139.131L157.903 138.299ZM152.598 139.738C150.626 139.738 149.239 139.325 148.351 138.585L147.711 139.353C148.853 140.305 150.511 140.738 152.598 140.738V139.738ZM148.385 138.615C147.44 137.671 146.715 136.396 146.226 134.765L145.268 135.053C145.794 136.806 146.592 138.237 147.678 139.322L148.385 138.615ZM146.239 134.82C145.908 132.998 145.74 130.746 145.74 128.058H144.74C144.74 130.783 144.91 133.099 145.255 134.999L146.239 134.82ZM145.739 128.089C145.909 125.371 145.994 122.4 145.994 119.177H144.994C144.994 122.383 144.909 125.332 144.741 128.027L145.739 128.089ZM145.993 119.207C146.321 113.798 149.441 108.071 155.489 102.023L154.782 101.316C148.651 107.447 145.343 113.392 144.995 119.147L145.993 119.207ZM155.489 102.023C158.189 99.3235 161.057 96.6237 164.095 93.9232L163.431 93.1758C160.379 95.8884 157.496 98.6017 154.782 101.316L155.489 102.023ZM164.095 93.9232C167.151 91.2071 170.037 88.4056 172.754 85.5187L172.026 84.8334C169.33 87.698 166.465 90.4788 163.431 93.1758L164.095 93.9232ZM172.77 85.5015C178.905 78.3436 182.025 71.3812 182.025 64.6231H181.025C181.025 71.0595 178.055 77.7991 172.01 84.8507L172.77 85.5015ZM182.025 64.6231C182.025 56.5523 179.356 50.386 173.965 46.2122L173.353 47.003C178.45 50.9489 181.025 56.7929 181.025 64.6231H182.025ZM173.951 46.2018C169.606 43.0733 163.568 41.5403 155.897 41.5403V42.5403C163.451 42.5403 169.254 44.0521 173.367 47.0134L173.951 46.2018ZM155.897 41.5403C147.408 41.5403 140.003 42.389 133.691 44.095L133.952 45.0604C140.158 43.3831 147.47 42.5403 155.897 42.5403V41.5403ZM133.7 44.0926C133.081 44.2473 132.198 44.3314 131.03 44.3314V45.3314C132.231 45.3314 133.209 45.2463 133.943 45.0627L133.7 44.0926ZM131.03 44.3314C130.264 44.3314 129.295 43.7429 128.127 42.2408L127.337 42.8547C128.537 44.3975 129.767 45.3314 131.03 45.3314V44.3314ZM128.127 42.2408C127.001 40.7932 126.456 39.2918 126.456 37.7267H125.456C125.456 39.5448 126.095 41.2574 127.337 42.8547L128.127 42.2408ZM126.456 37.7267C126.456 35.8717 126.938 34.3814 127.869 33.218C128.802 32.0507 130.225 31.1664 132.185 30.5945L131.905 29.6345C129.806 30.2467 128.184 31.2232 127.088 32.5933C125.989 33.9672 125.456 35.6911 125.456 37.7267H126.456ZM132.172 30.5982C139.231 28.7495 146.884 27.8234 155.136 27.8234V26.8234C146.81 26.8234 139.07 27.7579 131.919 29.6308L132.172 30.5982ZM155.136 27.8234C163.573 27.8234 170.11 28.5838 174.774 30.083L175.081 29.131C170.272 27.5854 163.615 26.8234 155.136 26.8234V27.8234ZM174.79 30.0878C179.467 31.424 183.55 33.509 187.046 36.3391L187.675 35.5619C184.067 32.6406 179.861 30.4966 175.065 29.1263L174.79 30.0878ZM187.037 36.3319C194.69 42.8198 198.533 51.8057 198.533 63.3544H199.533C199.533 51.5591 195.594 42.2757 187.684 35.5691L187.037 36.3319ZM198.533 63.3544C198.533 73.3529 194.455 82.708 186.236 91.4304L186.963 92.1162C195.322 83.2459 199.533 73.6552 199.533 63.3544H198.533ZM186.233 91.4331C181.843 96.1609 177.454 100.55 173.066 104.6L173.744 105.335C178.153 101.266 182.56 96.8587 186.966 92.1135L186.233 91.4331ZM173.067 104.6C168.838 108.49 165.946 111.296 164.406 113.007L165.15 113.676C166.654 112.004 169.514 109.227 173.744 105.336L173.067 104.6ZM164.385 113.031C161.794 116.314 160.314 119.872 159.966 123.699L160.962 123.79C161.291 120.174 162.687 116.797 165.17 113.651L164.385 113.031ZM159.964 123.745V125.267H160.964V123.745H159.964ZM144.177 169.728C143.694 168.601 143.456 167.483 143.456 166.373H142.456C142.456 167.63 142.726 168.881 143.258 170.122L144.177 169.728ZM143.456 166.373C143.456 165.263 143.693 164.24 144.165 163.298L143.27 162.851C142.727 163.938 142.456 165.115 142.456 166.373H143.456ZM144.177 163.271C144.665 162.133 145.316 161.074 146.132 160.096L145.363 159.456C144.487 160.507 143.785 161.648 143.258 162.877L144.177 163.271ZM146.117 160.112C147.68 158.393 150.142 157.484 153.613 157.484V156.484C149.98 156.484 147.198 157.437 145.377 159.439L146.117 160.112ZM153.613 157.484C156.766 157.484 158.875 158.233 160.091 159.6L160.838 158.936C159.347 157.258 156.889 156.484 153.613 156.484V157.484ZM160.132 159.642C161.625 160.969 162.474 162.161 162.775 163.212L163.736 162.937C163.36 161.62 162.348 160.274 160.797 158.894L160.132 159.642ZM162.808 163.298C163.279 164.24 163.517 165.263 163.517 166.373H164.517C164.517 165.115 164.246 163.938 163.703 162.851L162.808 163.298ZM163.517 166.373C163.517 167.483 163.279 168.601 162.796 169.728L163.715 170.122C164.247 168.881 164.517 167.63 164.517 166.373H163.517ZM162.775 169.788C162.466 170.868 161.849 171.8 160.905 172.586L161.546 173.354C162.632 172.449 163.368 171.35 163.736 170.063L162.775 169.788ZM160.857 172.632C159.107 174.541 156.713 175.515 153.613 175.515V176.515C156.942 176.515 159.623 175.459 161.594 173.308L160.857 172.632ZM153.613 175.515C150.091 175.515 147.814 174.838 146.608 173.631L145.901 174.339C147.402 175.839 150.031 176.515 153.613 176.515V175.515ZM146.65 173.678C145.48 172.174 144.662 170.859 144.177 169.728L143.258 170.122C143.788 171.36 144.661 172.751 145.86 174.292L146.65 173.678Z" fill="black"/>
</svg>
