<svg width="167" height="75" viewBox="0 0 167 75" fill="none" xmlns="http://www.w3.org/2000/svg">
<path d="M71.3327 21.6438L71.4686 21.9286H71.784H150.632L166.291 37.5L150.838 52.8663L140.416 42.5026L140.063 42.152L139.711 42.5026L129.289 52.8663L118.866 42.5026L118.514 42.152L118.161 42.5026L107.739 52.8663L97.317 42.5026L96.9645 42.152L96.6119 42.5026L85.9835 53.0714H71.784H71.4686L71.3327 53.3562C68.3146 59.6832 63.5526 65.0291 57.5996 68.7721C51.6467 72.5151 44.7474 74.5014 37.7038 74.5C31.0442 74.4986 24.5073 72.7203 18.7748 69.3507C13.0423 65.9811 8.32456 61.1439 5.11331 55.3438C1.90206 49.5439 0.314898 42.9935 0.51718 36.3759C0.719461 29.7584 2.70379 23.3159 6.26341 17.7205C9.82304 12.1251 14.8276 7.58164 20.7554 4.56447C26.6832 1.54728 33.3167 0.167023 39.964 0.567865C46.6113 0.968707 53.0285 3.13593 58.546 6.8432C64.0635 10.5505 68.4792 15.6618 71.3327 21.6438ZM26.929 48.7143C29.9183 48.7143 32.7858 47.5335 34.9004 45.4307C37.0151 43.3278 38.2037 40.4751 38.2037 37.5C38.2037 34.5249 37.0151 31.6722 34.9004 29.5693C32.7858 27.4665 29.9183 26.2857 26.929 26.2857C23.9396 26.2857 21.0722 27.4665 18.9575 29.5693C16.8428 31.6722 15.6543 34.5249 15.6543 37.5C15.6543 40.4751 16.8428 43.3278 18.9575 45.4307C21.0722 47.5335 23.9396 48.7143 26.929 48.7143Z" fill="white" stroke="black"/>
<circle cx="27" cy="38" r="12.5" fill="white" stroke="#A157FF"/>
</svg>
