<svg width="431" height="508" viewBox="0 0 431 508" fill="none" xmlns="http://www.w3.org/2000/svg">
<path d="M107.54 0.500006C86.5616 0.481515 66.0495 6.68828 48.6007 18.3344C31.1519 29.9806 17.5512 46.5424 9.52058 65.9229C1.48999 85.3034 -0.609314 106.631 3.48846 127.205C7.58623 147.78 17.6968 166.675 32.54 181.5L107.54 256.5L257.54 106.5L182.54 31.5C172.698 21.6452 161.006 13.8332 148.135 8.51304C135.263 3.19292 121.467 0.469713 107.54 0.500006ZM238.54 115.27L116.28 237.51L47.45 168.68C31.24 152.471 22.1328 130.487 22.1318 107.564C22.1309 84.64 31.2363 62.655 47.445 46.445C63.6537 30.235 85.638 21.1277 108.561 21.1268C131.485 21.1259 153.47 30.2313 169.68 46.44L238.54 115.27Z" fill="#060608" stroke="#231F20" stroke-miterlimit="10"/>
<path d="M169.68 46.44L238.51 115.27L116.28 237.51L47.45 168.68C31.24 152.471 22.1328 130.487 22.1318 107.564C22.1309 84.64 31.2363 62.655 47.445 46.445C63.6537 30.235 85.638 21.1277 108.561 21.1268C131.485 21.1259 153.47 30.2313 169.68 46.44Z" stroke="#231F20" stroke-miterlimit="10"/>
<path d="M262.732 64.8957L65.8949 261.733C61.2087 266.419 61.2087 274.017 65.8949 278.704L208.349 421.157C213.035 425.844 220.633 425.844 225.319 421.157L422.157 224.32C426.843 219.634 426.843 212.036 422.157 207.349L279.703 64.8957C275.017 60.2094 267.419 60.2094 262.732 64.8957Z" fill="white" stroke="#231F20" stroke-miterlimit="10"/>
<path d="M253.85 174.69C260.949 181.085 266.269 189.212 269.291 198.276C272.312 207.341 272.932 217.034 271.09 226.41C270.501 229.464 270.671 232.615 271.585 235.588C272.499 238.561 274.128 241.264 276.33 243.46L310.05 277.18C318.31 285.45 319.33 298.76 311.9 307.78C309.898 310.203 307.413 312.181 304.603 313.589C301.793 314.998 298.721 315.805 295.582 315.959C292.443 316.114 289.306 315.612 286.372 314.486C283.437 313.36 280.77 311.635 278.54 309.42L244.46 275.33C242.21 273.117 239.452 271.488 236.428 270.585C233.404 269.683 230.205 269.533 227.11 270.15C217.853 271.912 208.299 271.281 199.354 268.318C190.409 265.354 182.369 260.156 175.995 253.215C169.621 246.275 165.124 237.822 162.931 228.657C160.738 219.493 160.921 209.92 163.463 200.846C166.005 191.772 170.821 183.497 177.456 176.806C184.09 170.114 192.324 165.227 201.376 162.607C210.427 159.988 219.998 159.723 229.181 161.837C238.364 163.952 246.855 168.376 253.85 174.69Z" fill="white" stroke="#231F20" stroke-miterlimit="10"/>
<path d="M227.991 418.421L227.79 418.178L227.484 418.255L72.2945 457.233L33.2012 433.985L56.5192 395.272L82.5604 410.759L82.9877 411.013L83.2443 410.587L98.8771 384.633L124.918 400.12L125.346 400.374L125.602 399.948L141.235 373.994L167.276 389.481L167.703 389.735L167.96 389.309L183.743 363.106L211.859 356.045L212.165 355.968L212.227 355.658C215.055 341.636 221.823 328.69 231.743 318.323C241.663 307.957 254.329 300.597 268.269 297.099C281.448 293.792 295.268 294.062 308.287 297.881C321.306 301.7 333.048 308.928 342.286 318.81C351.525 328.693 357.922 340.868 360.811 354.066C363.7 367.263 362.975 381 358.712 393.843C354.449 406.687 346.803 418.166 336.572 427.083C326.34 436 313.899 442.029 300.545 444.539C287.192 447.05 273.415 445.951 260.654 441.357C247.892 436.763 236.612 428.842 227.991 418.421ZM302.428 343.46C296.683 344.903 291.743 348.556 288.695 353.617C285.647 358.678 284.74 364.731 286.175 370.446C287.611 376.161 291.27 381.068 296.348 384.088C301.426 387.108 307.506 387.993 313.251 386.55C318.995 385.107 323.935 381.454 326.984 376.394C330.032 371.333 330.939 365.279 329.503 359.564C328.068 353.849 324.408 348.942 319.33 345.922C314.253 342.903 308.173 342.017 302.428 343.46Z" fill="#A157FF" stroke="black"/>
<circle cx="307.453" cy="364.057" r="25.8467" transform="rotate(165.901 307.453 364.057)" fill="white" stroke="#060608"/>
</svg>
