<svg width="4" height="17" viewBox="0 0 4 17" fill="none" xmlns="http://www.w3.org/2000/svg">
<path fill-rule="evenodd" clip-rule="evenodd" d="M3.92308 1.96154C3.92308 1.44131 3.71642 0.942381 3.34856 0.574522C2.9807 0.206662 2.48177 1.08482e-07 1.96154 8.57416e-08C1.44131 6.30015e-08 0.942381 0.206662 0.574521 0.574521C0.206661 0.942381 -6.30015e-08 1.44131 -8.57416e-08 1.96154C-1.08482e-07 2.48177 0.206661 2.9807 0.574521 3.34856C0.942381 3.71642 1.44131 3.92308 1.96154 3.92308C2.48177 3.92308 2.9807 3.71642 3.34856 3.34856C3.71642 2.9807 3.92308 2.48177 3.92308 1.96154ZM3.92308 8.5C3.92308 7.97977 3.71642 7.48084 3.34856 7.11298C2.9807 6.74512 2.48177 6.53846 1.96154 6.53846C1.44131 6.53846 0.942381 6.74512 0.574521 7.11298C0.206661 7.48084 -3.48807e-07 7.97977 -3.71547e-07 8.5C-3.94287e-07 9.02023 0.206661 9.51916 0.574521 9.88702C0.942381 10.2549 1.44131 10.4615 1.96154 10.4615C2.48177 10.4615 2.9807 10.2549 3.34856 9.88702C3.71642 9.51916 3.92308 9.02023 3.92308 8.5ZM3.92308 15.0385C3.92308 14.5182 3.71642 14.0193 3.34856 13.6514C2.9807 13.2836 2.48177 13.0769 1.96154 13.0769C1.44131 13.0769 0.94238 13.2836 0.574521 13.6514C0.206661 14.0193 -6.34612e-07 14.5182 -6.57352e-07 15.0385C-6.80092e-07 15.5587 0.206661 16.0576 0.57452 16.4255C0.94238 16.7933 1.44131 17 1.96154 17C2.48177 17 2.9807 16.7933 3.34856 16.4255C3.71642 16.0576 3.92308 15.5587 3.92308 15.0385Z" fill="#7FFF52"/>
</svg>
