<svg width="674" height="102" viewBox="0 0 674 102" fill="none" xmlns="http://www.w3.org/2000/svg">
<g clip-path="url(#clip0_392_149)">
<path d="M135.975 76.7737C135.511 81.9409 133.541 86.856 130.31 90.9036C127.079 94.9512 122.731 97.9515 117.811 99.5287C115.857 100.146 113.835 100.521 111.79 100.645H39.3143C38.6636 100.634 38.0186 100.521 37.402 100.312C32.512 101 27.5297 100.529 22.8528 98.9387C18.1759 97.3481 13.9339 94.6812 10.4655 91.1508C6.99704 87.6204 4.39823 83.3244 2.87651 78.6057C1.35478 73.887 0.952274 68.8762 1.70112 63.9734C2.44997 59.0707 4.32942 54.4116 7.18946 50.3683C10.0495 46.3249 13.8109 43.0092 18.1734 40.6858C22.5359 38.3625 27.3787 37.0958 32.3152 36.9869C37.2517 36.878 42.1452 37.93 46.605 40.0588C48.2614 35.5595 51.2827 31.6964 55.2423 29.0149C59.2019 26.3334 63.8999 24.9688 68.6731 25.1138C73.4463 25.2588 78.0536 26.9061 81.8446 29.8231C85.6357 32.7401 88.419 36.7795 89.8017 41.3711C92.7525 40.4805 95.9272 40.7213 98.7114 42.0469C101.496 43.3725 103.691 45.6886 104.873 48.5469C107.454 47.9869 110.105 47.8299 112.733 48.0812C126.956 49.4359 137.339 62.2793 135.975 76.7737Z" fill="white" stroke="black" stroke-width="2" stroke-miterlimit="10"/>
<path d="M111.79 100.624C110.714 100.693 109.636 100.693 108.561 100.624H111.79Z" stroke="black" stroke-width="4" stroke-miterlimit="10"/>
<path d="M117.811 99.5075C116.758 100.234 115.511 100.623 114.234 100.624H111.79C113.835 100.499 115.857 100.124 117.811 99.5075Z" stroke="black" stroke-width="4" stroke-miterlimit="10"/>
<path d="M291.683 49.039C291.709 54.3471 290.172 59.5444 287.267 63.978C284.361 68.4116 280.216 71.8838 275.353 73.9584C273.699 74.6537 271.978 75.1734 270.216 75.5089H147.648C143.516 76.2696 139.264 76.0435 135.234 74.8488C131.205 73.6541 127.512 71.5243 124.453 68.6314C121.394 65.7385 119.056 62.1635 117.626 58.1952C116.196 54.2269 115.715 49.9765 116.222 45.7871C116.729 41.5977 118.21 37.5868 120.545 34.0783C122.879 30.5697 126.003 27.6619 129.662 25.5895C133.322 23.5171 137.416 22.3383 141.612 22.1482C145.809 21.9582 149.992 22.7622 153.822 24.4954C154.576 19.9004 156.706 15.6455 159.93 12.2985C163.153 8.95149 167.316 6.6716 171.862 5.76306C176.409 4.85452 181.123 5.36055 185.376 7.21362C189.629 9.06669 193.219 12.1787 195.665 16.1342C196.697 15.8639 197.759 15.727 198.826 15.7268C201.41 15.7224 203.931 16.5331 206.032 18.0446C212.976 14.1603 221.171 13.2047 228.816 15.3878C236.46 17.5709 242.929 22.7141 246.801 29.6867C246.831 29.7302 246.857 29.7762 246.88 29.8243L247.022 29.6867C251.892 24.8174 258.483 22.0833 265.354 22.0823C279.888 22.1035 291.683 34.1636 291.683 49.039Z" fill="white" stroke="black" stroke-width="2" stroke-miterlimit="10"/>
</g>
<g clip-path="url(#clip1_392_149)">
<path d="M587.728 43.0283C587.753 48.0994 586.245 53.0646 583.394 57.3003C580.542 61.536 576.473 64.8532 571.7 66.8352C570.077 67.4994 568.387 67.9959 566.658 68.3165H446.336C442.28 69.0449 438.106 68.8305 434.151 67.6906C430.195 66.5507 426.569 64.5172 423.566 61.7544C420.562 58.9915 418.266 55.5767 416.861 51.7858C415.456 47.9949 414.983 43.9341 415.479 39.9313C415.976 35.9286 417.428 32.0961 419.719 28.7433C422.009 25.3906 425.074 22.6116 428.666 20.6307C432.258 18.6499 436.276 17.5227 440.395 17.3402C444.515 17.1578 448.62 17.9252 452.38 19.5804C453.12 15.1905 455.211 11.1256 458.375 7.928C461.538 4.73042 465.624 2.55232 470.087 1.68434C474.549 0.816361 479.177 1.2998 483.351 3.07014C487.525 4.84048 491.048 7.81352 493.45 11.5925C494.462 11.3343 495.505 11.2034 496.552 11.2032C499.089 11.199 501.563 11.9736 503.625 13.4176C510.44 9.70673 518.484 8.79378 525.987 10.8794C533.49 12.965 539.84 17.8786 543.639 24.5399C543.669 24.5815 543.695 24.6255 543.717 24.6714L543.857 24.5399C548.646 19.8892 555.126 17.2841 561.876 17.2952C576.131 17.2952 587.728 28.817 587.728 43.0283Z" fill="white" stroke="black" stroke-width="2" stroke-miterlimit="10"/>
</g>
<g clip-path="url(#clip2_392_149)">
<path d="M672.728 75.0283C672.753 80.0994 671.245 85.0646 668.394 89.3003C665.542 93.536 661.473 96.8532 656.7 98.8352C655.077 99.4994 653.387 99.9959 651.658 100.316H531.336C527.28 101.045 523.106 100.831 519.151 99.6906C515.195 98.5507 511.569 96.5172 508.566 93.7544C505.562 90.9915 503.266 87.5767 501.861 83.7858C500.456 79.9949 499.983 75.9341 500.479 71.9313C500.976 67.9286 502.428 64.0961 504.719 60.7433C507.009 57.3906 510.074 54.6116 513.666 52.6307C517.258 50.6499 521.276 49.5227 525.395 49.3402C529.515 49.1578 533.62 49.9252 537.38 51.5804C538.12 47.1905 540.211 43.1256 543.375 39.928C546.538 36.7304 550.624 34.5523 555.087 33.6843C559.549 32.8164 564.177 33.2998 568.351 35.0701C572.525 36.8405 576.048 39.8135 578.45 43.5925C579.462 43.3343 580.505 43.2034 581.552 43.2032C584.089 43.199 586.563 43.9736 588.625 45.4176C595.44 41.7067 603.484 40.7938 610.987 42.8794C618.49 44.965 624.84 49.8786 628.639 56.5399C628.669 56.5815 628.695 56.6255 628.717 56.6714L628.857 56.5399C633.646 51.8892 640.126 49.2841 646.876 49.2952C661.131 49.2952 672.728 60.817 672.728 75.0283Z" fill="white" stroke="black" stroke-width="2" stroke-miterlimit="10"/>
</g>
<defs>
<clipPath id="clip0_392_149">
<rect width="293" height="98" fill="white" transform="translate(0 4)"/>
</clipPath>
<clipPath id="clip1_392_149">
<rect width="175" height="70" fill="white" transform="translate(414)"/>
</clipPath>
<clipPath id="clip2_392_149">
<rect width="175" height="70" fill="white" transform="translate(499 32)"/>
</clipPath>
</defs>
</svg>
