<svg width="551" height="651" viewBox="0 0 551 651" fill="none" xmlns="http://www.w3.org/2000/svg">
<g clip-path="url(#clip0_392_101)">
<path d="M90.7201 227.813C112.341 227.813 129.868 210.276 129.868 188.642C129.868 167.009 112.341 149.472 90.7201 149.472C69.0991 149.472 51.5719 167.009 51.5719 188.642C51.5719 210.276 69.0991 227.813 90.7201 227.813Z" stroke="#A157FF" stroke-width="3" stroke-miterlimit="10"/>
<path d="M104.241 212.992C119.507 212.992 131.883 200.609 131.883 185.333C131.883 170.058 119.507 157.675 104.241 157.675C88.9742 157.675 76.5981 170.058 76.5981 185.333C76.5981 200.609 88.9742 212.992 104.241 212.992Z" fill="#A157FF" stroke="#A157FF" stroke-width="3" stroke-miterlimit="10"/>
<path d="M100.934 215.114C116.784 215.114 129.633 202.257 129.633 186.398C129.633 170.539 116.784 157.683 100.934 157.683C85.0838 157.683 72.2349 170.539 72.2349 186.398C72.2349 202.257 85.0838 215.114 100.934 215.114Z" stroke="#A157FF" stroke-width="3" stroke-miterlimit="10"/>
<mask id="mask0_392_101" style="mask-type:luminance" maskUnits="userSpaceOnUse" x="141" y="8" width="358" height="189">
<path d="M498.843 107.317L173.884 195.504C167.67 197.194 161.048 196.481 155.336 193.505C149.625 190.529 145.243 185.51 143.064 179.447C140.881 173.384 141.06 166.72 143.566 160.783C146.071 154.845 150.719 150.07 156.585 147.406L463.189 8.17883L498.843 107.317Z" fill="white"/>
</mask>
<g mask="url(#mask0_392_101)">
<path d="M161.175 195.301C173.525 195.301 183.537 185.284 183.537 172.927C183.537 160.57 173.525 150.553 161.175 150.553C148.826 150.553 138.814 160.57 138.814 172.927C138.814 185.284 148.826 195.301 161.175 195.301Z" stroke="#A157FF" stroke-width="3" stroke-miterlimit="10"/>
</g>
<path d="M498.843 107.317L173.884 195.504C167.67 197.194 161.048 196.481 155.336 193.505C149.625 190.529 145.243 185.51 143.064 179.447C140.881 173.384 141.06 166.72 143.566 160.783C146.071 154.845 150.719 150.07 156.585 147.406L463.189 8.17883L498.843 107.317Z" stroke="#A157FF" stroke-width="3" stroke-miterlimit="10"/>
<path d="M347.962 98.7398C343.563 84.3454 344.931 68.803 351.777 55.3996C358.624 41.9962 370.412 31.7826 384.649 26.9187L453.95 3.25201C458.549 1.67851 463.413 1.02697 468.263 1.33458C473.114 1.6422 477.857 2.90296 482.22 5.04485C486.584 7.18674 490.483 10.1678 493.695 13.8177C496.907 17.4677 499.368 21.715 500.939 26.3171L518.401 77.4146C519.459 80.5108 519.897 83.7852 519.69 87.0509C519.483 90.3165 518.635 93.5093 517.195 96.447C515.755 99.3847 513.75 102.01 511.295 104.172C508.841 106.334 505.984 107.991 502.889 109.049L422.83 136.431C391.645 147.089 357.599 130.244 347.962 98.7398Z" fill="white"/>
<mask id="mask1_392_101" style="mask-type:luminance" maskUnits="userSpaceOnUse" x="345" y="1" width="175" height="139">
<path d="M347.962 98.7398C343.563 84.3454 344.931 68.803 351.777 55.3996C358.624 41.9962 370.412 31.7826 384.649 26.9187L453.95 3.25201C458.549 1.67851 463.413 1.02697 468.263 1.33458C473.114 1.6422 477.857 2.90296 482.22 5.04485C486.584 7.18674 490.483 10.1678 493.695 13.8177C496.907 17.4677 499.368 21.715 500.939 26.3171L518.401 77.4146C519.459 80.5108 519.897 83.7852 519.69 87.0509C519.483 90.3165 518.635 93.5093 517.195 96.447C515.755 99.3847 513.75 102.01 511.295 104.172C508.841 106.334 505.984 107.991 502.889 109.049L422.83 136.431C391.645 147.089 357.599 130.244 347.962 98.7398Z" fill="white"/>
</mask>
<g mask="url(#mask1_392_101)">
<path d="M486.07 106.081C514.314 106.081 537.211 83.1714 537.211 54.9105C537.211 26.6497 514.314 3.73981 486.07 3.73981C457.825 3.73981 434.929 26.6497 434.929 54.9105C434.929 83.1714 457.825 106.081 486.07 106.081Z" stroke="#A157FF" stroke-width="3" stroke-miterlimit="10"/>
<path d="M498.64 103.561C526.884 103.561 549.781 80.651 549.781 52.3902C549.781 24.1294 526.884 1.21948 498.64 1.21948C470.395 1.21948 447.499 24.1294 447.499 52.3902C447.499 80.651 470.395 103.561 498.64 103.561Z" fill="#A157FF" stroke="#A157FF" stroke-width="3" stroke-miterlimit="10"/>
</g>
<path d="M347.962 98.7398C343.563 84.3454 344.931 68.803 351.777 55.3996C358.624 41.9962 370.412 31.7826 384.649 26.9187L453.95 3.25201C458.549 1.67851 463.413 1.02697 468.263 1.33458C473.114 1.6422 477.857 2.90296 482.22 5.04485C486.584 7.18674 490.483 10.1678 493.695 13.8177C496.907 17.4677 499.368 21.715 500.939 26.3171L518.401 77.4146C519.459 80.5108 519.897 83.7852 519.69 87.0509C519.483 90.3165 518.635 93.5093 517.195 96.447C515.755 99.3847 513.75 102.01 511.295 104.172C508.841 106.334 505.984 107.991 502.889 109.049L422.83 136.431C391.645 147.089 357.599 130.244 347.962 98.7398Z" stroke="#A157FF" stroke-width="3" stroke-miterlimit="10"/>
<path d="M311.853 161.553H288.631V326.862H311.853V161.553Z" stroke="#A157FF" stroke-width="3" stroke-miterlimit="10"/>
<path d="M327.54 304.572C322.453 299.483 314.206 299.483 309.12 304.572C304.033 309.662 304.033 317.913 309.12 323.003L398.509 412.443C403.595 417.533 411.842 417.533 416.929 412.443C422.016 407.354 422.016 399.102 416.929 394.013L327.54 304.572Z" stroke="#A157FF" stroke-width="3" stroke-miterlimit="10"/>
<path d="M160.523 342.778C153.876 345.529 150.716 353.151 153.465 359.803C156.215 366.454 163.832 369.616 170.48 366.865L287.297 318.521C293.945 315.77 297.105 308.148 294.355 301.497C291.606 294.846 283.988 291.684 277.341 294.435L160.523 342.778Z" stroke="#A157FF" stroke-width="3" stroke-miterlimit="10"/>
<path d="M196.754 401.986C191.667 407.076 191.667 415.327 196.754 420.417C201.84 425.506 210.087 425.506 215.174 420.417L304.563 330.977C309.649 325.887 309.649 317.635 304.563 312.546C299.476 307.456 291.229 307.456 286.143 312.546L196.754 401.986Z" stroke="#A157FF" stroke-width="3" stroke-miterlimit="10"/>
<path d="M173.811 358.463C173.811 351.266 167.979 345.431 160.786 345.431C153.592 345.431 147.76 351.266 147.76 358.463V572.512C147.76 579.71 153.592 585.545 160.786 585.545C167.979 585.545 173.811 579.71 173.811 572.512V358.463Z" stroke="#A157FF" stroke-width="3" stroke-miterlimit="10"/>
<path d="M421.083 416.943C421.083 409.745 415.251 403.911 408.058 403.911C400.864 403.911 395.033 409.745 395.033 416.943V630.992C395.033 638.19 400.864 644.024 408.058 644.024C415.251 644.024 421.083 638.19 421.083 630.992V416.943Z" stroke="#A157FF" stroke-width="3" stroke-miterlimit="10"/>
<path d="M217.688 422.699C217.688 415.502 211.856 409.667 204.663 409.667C197.469 409.667 191.638 415.502 191.638 422.699V636.748C191.638 643.946 197.469 649.78 204.663 649.78C211.856 649.78 217.688 643.946 217.688 636.748V422.699Z" stroke="#A157FF" stroke-width="3" stroke-miterlimit="10"/>
<path d="M303.191 276H298.56C286.897 276 277.442 285.46 277.442 297.13V309.528C277.442 321.198 286.897 330.659 298.56 330.659H303.191C314.854 330.659 324.309 321.198 324.309 309.528V297.13C324.309 285.46 314.854 276 303.191 276Z" fill="#A157FF" stroke="#A157FF" stroke-width="3" stroke-miterlimit="10"/>
<path d="M305.865 146.488C306.341 147.453 307.045 148.288 307.916 148.921C308.786 149.554 309.797 149.966 310.862 150.122C312.086 150.302 313.236 150.82 314.181 151.619C315.127 152.418 315.83 153.466 316.212 154.644C316.594 155.821 316.639 157.083 316.343 158.285C316.046 159.487 315.42 160.582 314.534 161.447C313.765 162.198 313.189 163.124 312.857 164.147C312.524 165.169 312.445 166.257 312.625 167.317C312.833 168.538 312.696 169.793 312.23 170.94C311.763 172.087 310.985 173.081 309.983 173.809C308.982 174.537 307.797 174.971 306.562 175.06C305.328 175.15 304.092 174.893 302.996 174.317C302.045 173.816 300.987 173.555 299.913 173.555C298.838 173.555 297.78 173.816 296.829 174.317C295.733 174.893 294.498 175.15 293.263 175.06C292.029 174.971 290.844 174.537 289.842 173.809C288.841 173.081 288.062 172.087 287.596 170.94C287.129 169.793 286.992 168.538 287.201 167.317C287.381 166.257 287.301 165.169 286.969 164.147C286.636 163.124 286.06 162.198 285.291 161.447C284.405 160.582 283.779 159.486 283.483 158.283C283.187 157.08 283.233 155.819 283.616 154.641C283.999 153.463 284.703 152.415 285.65 151.617C286.596 150.818 287.747 150.301 288.972 150.122C290.035 149.965 291.045 149.552 291.913 148.919C292.782 148.286 293.485 147.452 293.961 146.488C294.509 145.377 295.357 144.442 296.409 143.788C297.461 143.134 298.674 142.787 299.913 142.787C301.151 142.787 302.365 143.134 303.416 143.788C304.468 144.442 305.316 145.377 305.865 146.488Z" fill="white" stroke="#A157FF" stroke-width="3" stroke-miterlimit="10"/>
<path d="M305.865 147.585C306.341 148.551 307.045 149.386 307.916 150.019C308.786 150.652 309.797 151.064 310.862 151.219C312.086 151.399 313.236 151.918 314.181 152.717C315.127 153.516 315.83 154.563 316.212 155.741C316.594 156.919 316.639 158.18 316.343 159.382C316.046 160.584 315.42 161.68 314.534 162.545C313.766 163.296 313.19 164.222 312.858 165.245C312.525 166.267 312.445 167.355 312.625 168.415C312.837 169.636 312.702 170.893 312.236 172.042C311.77 173.191 310.992 174.186 309.989 174.915C308.987 175.644 307.8 176.077 306.564 176.165C305.328 176.254 304.092 175.994 302.996 175.415C302.045 174.914 300.987 174.652 299.913 174.652C298.838 174.652 297.78 174.914 296.829 175.415C295.733 175.994 294.497 176.254 293.261 176.165C292.025 176.077 290.839 175.644 289.836 174.915C288.834 174.186 288.055 173.191 287.589 172.042C287.124 170.893 286.989 169.636 287.201 168.415C287.38 167.355 287.3 166.267 286.968 165.245C286.635 164.222 286.06 163.296 285.291 162.545C284.405 161.679 283.779 160.583 283.483 159.381C283.187 158.178 283.233 156.916 283.616 155.738C283.999 154.56 284.703 153.513 285.65 152.714C286.596 151.916 287.747 151.398 288.972 151.219C290.035 151.062 291.045 150.65 291.913 150.017C292.782 149.384 293.485 148.55 293.961 147.585C294.509 146.474 295.357 145.539 296.409 144.885C297.461 144.231 298.674 143.885 299.913 143.885C301.151 143.885 302.365 144.231 303.416 144.885C304.468 145.539 305.316 146.474 305.865 147.585Z" fill="white" stroke="#A157FF" stroke-width="3" stroke-miterlimit="10"/>
<path d="M299.917 167.415C303.695 167.415 306.758 164.35 306.758 160.569C306.758 156.788 303.695 153.724 299.917 153.724C296.138 153.724 293.075 156.788 293.075 160.569C293.075 164.35 296.138 167.415 299.917 167.415Z" fill="white" stroke="#A157FF" stroke-width="3" stroke-miterlimit="10"/>
<path d="M414.006 390.561C414.482 391.526 415.186 392.361 416.057 392.994C416.927 393.627 417.938 394.039 419.003 394.195C420.228 394.372 421.379 394.888 422.326 395.686C423.273 396.484 423.978 397.531 424.361 398.708C424.744 399.886 424.79 401.147 424.493 402.35C424.197 403.552 423.57 404.648 422.684 405.512C421.911 406.263 421.334 407.19 421.001 408.214C420.668 409.239 420.59 410.329 420.774 411.39C420.982 412.611 420.846 413.866 420.379 415.013C419.912 416.161 419.134 417.154 418.133 417.882C417.131 418.61 415.946 419.044 414.711 419.134C413.477 419.223 412.242 418.966 411.145 418.39C410.193 417.89 409.134 417.628 408.058 417.628C406.982 417.628 405.922 417.89 404.97 418.39C403.873 418.967 402.637 419.224 401.402 419.134C400.166 419.044 398.98 418.61 397.979 417.881C396.977 417.152 396.199 416.157 395.733 415.008C395.267 413.86 395.131 412.604 395.341 411.382C395.525 410.321 395.447 409.231 395.115 408.206C394.782 407.182 394.204 406.254 393.432 405.504C392.546 404.64 391.919 403.544 391.622 402.342C391.326 401.139 391.372 399.878 391.755 398.7C392.138 397.522 392.843 396.476 393.79 395.678C394.737 394.88 395.888 394.364 397.113 394.187C398.178 394.031 399.189 393.619 400.059 392.986C400.929 392.353 401.633 391.518 402.11 390.553C402.658 389.442 403.506 388.507 404.557 387.853C405.609 387.2 406.822 386.854 408.06 386.854C409.298 386.855 410.511 387.203 411.562 387.858C412.613 388.513 413.459 389.449 414.006 390.561Z" fill="white" stroke="#A157FF" stroke-width="3" stroke-miterlimit="10"/>
<path d="M414.006 391.659C414.482 392.624 415.186 393.459 416.057 394.092C416.927 394.725 417.938 395.137 419.003 395.293C420.228 395.471 421.379 395.989 422.325 396.788C423.271 397.586 423.976 398.633 424.359 399.811C424.742 400.989 424.788 402.251 424.492 403.454C424.196 404.656 423.569 405.752 422.684 406.618C421.911 407.367 421.334 408.293 421.001 409.316C420.668 410.339 420.59 411.428 420.774 412.488C420.988 413.711 420.855 414.969 420.391 416.12C419.926 417.271 419.149 418.269 418.146 419C417.144 419.732 415.956 420.167 414.719 420.258C413.482 420.348 412.244 420.09 411.146 419.512C410.193 419.012 409.134 418.75 408.058 418.75C406.982 418.75 405.923 419.012 404.97 419.512C403.874 420.088 402.639 420.345 401.404 420.256C400.17 420.166 398.985 419.732 397.983 419.004C396.982 418.276 396.204 417.282 395.737 416.135C395.27 414.988 395.133 413.733 395.342 412.512C395.525 411.452 395.448 410.363 395.115 409.34C394.782 408.317 394.204 407.391 393.432 406.642C392.546 405.777 391.92 404.681 391.624 403.478C391.328 402.275 391.374 401.014 391.757 399.836C392.14 398.658 392.844 397.61 393.791 396.812C394.737 396.013 395.888 395.496 397.113 395.317C398.178 395.161 399.189 394.749 400.059 394.116C400.93 393.483 401.633 392.648 402.11 391.683C402.655 390.571 403.5 389.633 404.55 388.977C405.6 388.32 406.812 387.971 408.05 387.968C409.288 387.966 410.502 388.31 411.555 388.962C412.607 389.614 413.456 390.548 414.006 391.659Z" fill="white" stroke="#A157FF" stroke-width="3" stroke-miterlimit="10"/>
<path d="M408.058 411.48C411.836 411.48 414.899 408.415 414.899 404.634C414.899 400.853 411.836 397.789 408.058 397.789C404.279 397.789 401.216 400.853 401.216 404.634C401.216 408.415 404.279 411.48 408.058 411.48Z" fill="white" stroke="#A157FF" stroke-width="3" stroke-miterlimit="10"/>
<path d="M210.61 401.382C211.087 402.347 211.791 403.182 212.661 403.815C213.532 404.448 214.543 404.86 215.608 405.016C216.833 405.193 217.984 405.71 218.931 406.507C219.878 407.305 220.582 408.352 220.965 409.529C221.349 410.707 221.394 411.969 221.098 413.171C220.802 414.373 220.175 415.469 219.288 416.333C218.516 417.084 217.938 418.011 217.606 419.036C217.273 420.06 217.195 421.15 217.379 422.211C217.587 423.432 217.45 424.687 216.984 425.834C216.517 426.982 215.739 427.975 214.737 428.703C213.736 429.432 212.551 429.865 211.316 429.955C210.082 430.044 208.846 429.787 207.75 429.211C206.798 428.711 205.738 428.449 204.663 428.449C203.587 428.449 202.527 428.711 201.575 429.211C200.479 429.787 199.244 430.044 198.009 429.955C196.774 429.865 195.589 429.432 194.588 428.703C193.586 427.975 192.808 426.982 192.342 425.834C191.875 424.687 191.738 423.432 191.946 422.211C192.13 421.151 192.053 420.061 191.721 419.037C191.39 418.013 190.815 417.085 190.045 416.333C189.159 415.469 188.532 414.375 188.235 413.173C187.938 411.971 187.983 410.71 188.366 409.532C188.748 408.355 189.451 407.308 190.397 406.51C191.343 405.712 192.493 405.194 193.718 405.016C194.782 404.86 195.793 404.448 196.664 403.815C197.534 403.182 198.238 402.347 198.715 401.382C199.262 400.271 200.109 399.335 201.16 398.681C202.211 398.026 203.425 397.68 204.663 397.68C205.901 397.68 207.114 398.026 208.165 398.681C209.216 399.335 210.063 400.271 210.61 401.382Z" fill="white" stroke="#A157FF" stroke-width="3" stroke-miterlimit="10"/>
<path d="M210.611 402.48C211.087 403.445 211.791 404.28 212.661 404.913C213.532 405.546 214.543 405.958 215.608 406.114C216.833 406.292 217.983 406.81 218.93 407.609C219.876 408.407 220.581 409.455 220.964 410.633C221.346 411.81 221.392 413.072 221.096 414.275C220.8 415.478 220.174 416.574 219.288 417.439C218.516 418.188 217.939 419.114 217.606 420.137C217.273 421.16 217.195 422.249 217.379 423.309C217.587 424.53 217.451 425.785 216.984 426.932C216.517 428.079 215.739 429.073 214.737 429.801C213.736 430.529 212.551 430.962 211.316 431.052C210.082 431.142 208.846 430.885 207.75 430.309C206.798 429.808 205.738 429.547 204.663 429.547C203.587 429.547 202.527 429.808 201.575 430.309C200.479 430.885 199.244 431.142 198.009 431.052C196.774 430.962 195.589 430.529 194.588 429.801C193.587 429.073 192.808 428.079 192.342 426.932C191.875 425.785 191.738 424.53 191.946 423.309C192.13 422.25 192.053 421.161 191.721 420.139C191.39 419.116 190.815 418.189 190.045 417.439C189.156 416.575 188.527 415.48 188.229 414.277C187.931 413.074 187.976 411.811 188.358 410.632C188.74 409.453 189.445 408.405 190.392 407.607C191.34 406.808 192.492 406.291 193.718 406.114C194.783 405.958 195.794 405.546 196.664 404.913C197.534 404.28 198.238 403.445 198.715 402.48C199.262 401.368 200.109 400.433 201.16 399.778C202.211 399.124 203.425 398.777 204.663 398.777C205.901 398.777 207.114 399.124 208.165 399.778C209.216 400.433 210.063 401.368 210.611 402.48Z" fill="white" stroke="#A157FF" stroke-width="3" stroke-miterlimit="10"/>
<path d="M204.663 422.301C208.441 422.301 211.504 419.236 211.504 415.455C211.504 411.675 208.441 408.61 204.663 408.61C200.884 408.61 197.821 411.675 197.821 415.455C197.821 419.236 200.884 422.301 204.663 422.301Z" fill="white" stroke="#A157FF" stroke-width="3" stroke-miterlimit="10"/>
<path d="M168.107 344.805C168.583 345.77 169.286 346.604 170.157 347.236C171.028 347.868 172.039 348.278 173.104 348.431C174.328 348.611 175.478 349.129 176.423 349.928C177.369 350.727 178.072 351.775 178.454 352.953C178.836 354.13 178.881 355.392 178.585 356.594C178.288 357.796 177.662 358.891 176.776 359.756C176.007 360.509 175.432 361.437 175.1 362.46C174.767 363.484 174.687 364.573 174.867 365.634C175.077 366.855 174.942 368.11 174.477 369.258C174.011 370.405 173.234 371.4 172.233 372.128C171.231 372.857 170.046 373.29 168.812 373.38C167.577 373.469 166.342 373.211 165.246 372.634C164.295 372.129 163.235 371.866 162.159 371.866C161.082 371.866 160.022 372.129 159.071 372.634C157.975 373.21 156.74 373.467 155.505 373.377C154.27 373.288 153.085 372.854 152.084 372.126C151.083 371.398 150.304 370.404 149.838 369.257C149.371 368.11 149.234 366.855 149.442 365.634C149.624 364.573 149.545 363.483 149.213 362.459C148.88 361.435 148.304 360.508 147.533 359.756C146.647 358.891 146.021 357.795 145.725 356.592C145.429 355.389 145.475 354.128 145.858 352.95C146.241 351.772 146.945 350.724 147.892 349.926C148.838 349.127 149.989 348.609 151.214 348.431C152.277 348.278 153.288 347.868 154.157 347.236C155.026 346.604 155.729 345.77 156.203 344.805C156.751 343.694 157.599 342.759 158.651 342.105C159.703 341.451 160.916 341.104 162.155 341.104C163.393 341.104 164.607 341.451 165.658 342.105C166.71 342.759 167.558 343.694 168.107 344.805Z" fill="white" stroke="#A157FF" stroke-width="3" stroke-miterlimit="10"/>
<path d="M168.107 345.902C168.583 346.867 169.286 347.702 170.157 348.334C171.028 348.965 172.039 349.376 173.104 349.528C174.328 349.708 175.478 350.227 176.423 351.026C177.369 351.825 178.072 352.872 178.454 354.05C178.836 355.228 178.881 356.489 178.585 357.691C178.288 358.893 177.662 359.989 176.776 360.854C176.007 361.606 175.432 362.534 175.1 363.558C174.767 364.581 174.687 365.67 174.867 366.732C175.077 367.952 174.942 369.207 174.477 370.355C174.011 371.503 173.234 372.497 172.233 373.226C171.231 373.954 170.046 374.388 168.812 374.477C167.577 374.567 166.342 374.308 165.246 373.732C164.294 373.231 163.234 372.969 162.159 372.969C161.083 372.969 160.023 373.231 159.071 373.732C157.975 374.307 156.74 374.565 155.505 374.475C154.27 374.385 153.085 373.952 152.084 373.224C151.083 372.496 150.304 371.502 149.838 370.355C149.371 369.208 149.234 367.953 149.442 366.732C149.624 365.67 149.545 364.581 149.213 363.557C148.88 362.533 148.304 361.605 147.533 360.854C146.647 359.988 146.021 358.892 145.725 357.689C145.429 356.487 145.475 355.225 145.858 354.047C146.241 352.869 146.945 351.822 147.892 351.023C148.838 350.225 149.989 349.707 151.214 349.528C152.277 349.376 153.288 348.965 154.157 348.334C155.026 347.702 155.729 346.867 156.203 345.902C156.751 344.792 157.599 343.856 158.651 343.202C159.703 342.549 160.916 342.202 162.155 342.202C163.393 342.202 164.607 342.549 165.658 343.202C166.71 343.856 167.558 344.792 168.107 345.902Z" fill="white" stroke="#A157FF" stroke-width="3" stroke-miterlimit="10"/>
<path d="M162.159 365.724C165.937 365.724 169 362.659 169 358.878C169 355.097 165.937 352.033 162.159 352.033C158.38 352.033 155.317 355.097 155.317 358.878C155.317 362.659 158.38 365.724 162.159 365.724Z" fill="white" stroke="#A157FF" stroke-width="3" stroke-miterlimit="10"/>
<path d="M166.676 385.561H1.37317L12.115 294.683C14.1963 277.062 22.6671 260.819 35.9214 249.031C49.1756 237.244 66.2919 230.732 84.0248 230.732C101.758 230.734 118.874 237.246 132.13 249.033C145.385 260.819 153.858 277.062 155.943 294.683L166.676 385.561Z" fill="white" stroke="#A157FF" stroke-width="3" stroke-miterlimit="10"/>
<path d="M189.444 272.715H117.493C103.263 272.715 91.7277 284.258 91.7277 298.496C91.7277 312.734 103.263 324.276 117.493 324.276H189.444C203.674 324.276 215.209 312.734 215.209 298.496C215.209 284.258 203.674 272.715 189.444 272.715Z" fill="white" stroke="#A157FF" stroke-width="3" stroke-miterlimit="10"/>
<path d="M242.16 240.192L179.849 276.188C167.526 283.307 163.303 299.075 170.418 311.405C177.533 323.736 193.291 327.961 205.615 320.841L267.926 284.846C280.249 277.726 284.472 261.959 277.357 249.629C270.242 237.298 254.484 233.073 242.16 240.192Z" fill="white" stroke="#A157FF" stroke-width="3" stroke-miterlimit="10"/>
<path d="M279.221 269.268C290.656 269.268 299.925 259.994 299.925 248.553C299.925 237.112 290.656 227.837 279.221 227.837C267.787 227.837 258.518 237.112 258.518 248.553C258.518 259.994 267.787 269.268 279.221 269.268Z" fill="white" stroke="#A157FF" stroke-width="3" stroke-miterlimit="10"/>
<path d="M300.685 219.432L281.337 229.27C279.437 230.237 278.68 232.561 279.645 234.463C280.611 236.364 282.934 237.122 284.835 236.156L304.182 226.318C306.083 225.351 306.84 223.027 305.875 221.125C304.909 219.224 302.586 218.466 300.685 219.432Z" fill="white" stroke="#A157FF" stroke-width="3" stroke-miterlimit="10"/>
<path d="M299.998 232.484L280.65 242.322C278.75 243.288 277.992 245.613 278.958 247.514C279.924 249.416 282.247 250.174 284.147 249.207L303.495 239.369C305.395 238.403 306.153 236.078 305.187 234.177C304.221 232.275 301.898 231.517 299.998 232.484Z" fill="white" stroke="#A157FF" stroke-width="3" stroke-miterlimit="10"/>
<path d="M301.235 244.194L281.887 254.032C279.987 254.998 279.229 257.323 280.195 259.224C281.161 261.126 283.484 261.884 285.384 260.917L304.732 251.079C306.632 250.113 307.39 247.788 306.424 245.887C305.458 243.985 303.135 243.227 301.235 244.194Z" fill="white" stroke="#A157FF" stroke-width="3" stroke-miterlimit="10"/>
<path d="M166.685 385.553V649.78H91.2158L77.5488 474.61C77.4351 473.138 75.7613 473.138 75.6475 474.61L61.9724 649.78H1.37317V385.553H166.685Z" fill="white" stroke="#A157FF" stroke-width="3" stroke-miterlimit="10"/>
</g>
<defs>
<clipPath id="clip0_392_101">
<rect width="551" height="651" fill="white"/>
</clipPath>
</defs>
</svg>
