<svg width="20" height="17" viewBox="0 0 20 17" fill="none" xmlns="http://www.w3.org/2000/svg">
<path d="M13.4875 14.9646L11.47 12.9459C10.6898 13.2248 9.84643 13.2765 9.03803 13.0949C8.22962 12.9132 7.48941 12.5058 6.90352 11.9199C6.31764 11.334 5.91018 10.5938 5.72854 9.78537C5.5469 8.97696 5.59856 8.13359 5.8775 7.3534L3.3025 4.7784C1.1725 6.67215 0 8.82465 0 8.82465C0 8.82465 3.75 15.6996 10 15.6996C11.2005 15.6955 12.3874 15.4453 13.4875 14.9646ZM6.5125 2.68465C7.61257 2.20393 8.79949 1.95378 10 1.94965C16.25 1.94965 20 8.82465 20 8.82465C20 8.82465 18.8263 10.9759 16.6988 12.8721L14.1212 10.2946C14.4002 9.51445 14.4519 8.67108 14.2702 7.86267C14.0886 7.05426 13.6811 6.31405 13.0952 5.72817C12.5093 5.14229 11.7691 4.73482 10.9607 4.55318C10.1523 4.37154 9.30895 4.4232 8.52875 4.70215L6.5125 2.68465Z" fill="#D9D9D9"/>
<path d="M6.90628 8.38215C6.83752 8.86254 6.88159 9.35234 7.03499 9.81274C7.18839 10.2731 7.4469 10.6915 7.79005 11.0346C8.13319 11.3778 8.55154 11.6363 9.01194 11.7897C9.47235 11.9431 9.96215 11.9872 10.4425 11.9184L6.90628 8.38215ZM13.0938 9.26715L9.55753 5.72965C10.0379 5.66089 10.5277 5.70495 10.9881 5.85835C11.4485 6.01175 11.8669 6.27026 12.21 6.61341C12.5532 6.95656 12.8117 7.37491 12.9651 7.83531C13.1185 8.29571 13.1625 8.78551 13.0938 9.2659V9.26715Z" fill="#D9D9D9"/>
<path fill-rule="evenodd" clip-rule="evenodd" d="M17.0576 16.7671L2.05762 1.76714L2.94262 0.882141L17.9426 15.8821L17.0576 16.7671Z" fill="#D9D9D9"/>
</svg>
