<svg width="720" height="338" viewBox="0 0 720 338" fill="none" xmlns="http://www.w3.org/2000/svg">
<path d="M697.452 333.487L698.035 333.416L697.841 332.992L697.452 333.487Z" fill="white" stroke="#7FFF52" stroke-miterlimit="10"/>
<path d="M542.755 132.516C544.053 133.127 544.917 133.315 545.436 133.903C545.509 134.249 545.5 134.61 545.409 134.952C545.319 135.293 545.149 135.604 544.918 135.854C544.059 136.02 543.181 136.02 542.323 135.854L542.755 132.516Z" fill="#7FFF52" stroke="#7FFF52" stroke-miterlimit="10"/>
<path d="M661.389 153.182C662.448 153.535 663.551 153.746 663.551 153.934C663.553 154.767 663.336 155.583 662.924 156.285C662.751 156.544 661.237 156.285 661.194 156.027C661.157 155.073 661.222 154.119 661.389 153.182Z" fill="#7FFF52" stroke="#7FFF52" stroke-miterlimit="10"/>
<path d="M642.514 10.1894C642.746 9.22243 643.087 8.29055 643.53 7.41514C643.66 7.22705 645 7.62673 645.238 8.07344C645.363 8.40922 645.405 8.77489 645.36 9.13385C645.314 9.49282 645.183 9.83249 644.979 10.1189C644.633 10.4715 643.746 10.1894 642.514 10.1894Z" fill="#7FFF52" stroke="#7FFF52" stroke-miterlimit="10"/>
<path d="M481.006 34.4055C481.006 33.3946 480.877 32.5482 481.179 32.0544C481.482 31.5607 482.541 31.1375 482.887 31.3726C483.081 31.4806 483.245 31.6405 483.366 31.837C483.486 32.0336 483.559 32.2603 483.576 32.4958C483.593 32.7313 483.555 32.9677 483.465 33.1826C483.375 33.3974 483.235 33.5837 483.06 33.7237C482.65 34.241 481.936 34.1939 481.006 34.4055Z" fill="#7FFF52" stroke="#7FFF52" stroke-miterlimit="10"/>
<path d="M574.127 49.3818C573.695 50.3458 573.457 51.4978 573.089 51.5448C572.29 51.5448 570.927 51.5448 570.69 50.91C570.127 49.758 571.122 49.0292 572.117 48.8646C572.809 48.91 573.489 49.0849 574.127 49.3818Z" fill="#7FFF52" stroke="#7FFF52" stroke-miterlimit="10"/>
<path d="M559.771 227.217C560.009 226.324 560.03 225.36 560.376 225.172C560.722 224.984 561.587 225.313 562.193 225.407C562.063 226.089 562.084 226.959 561.717 227.358C561.349 227.758 560.636 227.311 559.771 227.217Z" fill="#7FFF52" stroke="#7FFF52" stroke-miterlimit="10"/>
<path d="M700.306 70.0714C700.706 69.2841 701.169 68.5367 701.69 67.8379C701.863 67.6263 702.447 67.8379 702.858 67.8379C702.574 68.7021 702.249 69.5496 701.885 70.377C701.349 70.3487 700.818 70.246 700.306 70.0714Z" fill="#7FFF52" stroke="#7FFF52" stroke-miterlimit="10"/>
<path d="M637.973 238.832L638.233 237.703C638.551 237.864 638.862 238.045 639.162 238.244C639.181 238.472 639.119 238.699 638.989 238.879C638.65 238.898 638.31 238.882 637.973 238.832Z" fill="#7FFF52" stroke="#7FFF52" stroke-miterlimit="10"/>
<path d="M437.549 316.864L438.131 316.794L437.937 316.37L437.549 316.864Z" fill="white" stroke="#7FFF52" stroke-miterlimit="10"/>
<path d="M667.378 115.706C667.097 117.281 667.205 118.621 666.707 118.974C666.323 119.157 665.901 119.227 665.484 119.178C665.066 119.128 664.668 118.961 664.329 118.691C664.138 118.274 664.05 117.81 664.073 117.345C664.095 116.879 664.228 116.428 664.459 116.035C664.805 115.541 665.994 115.706 667.378 115.706Z" fill="#7FFF52" stroke="#7FFF52" stroke-miterlimit="10"/>
<path d="M285.555 113.472C286.83 114.107 287.717 114.295 288.214 114.906C288.711 115.518 288.041 116.693 287.673 116.834C286.815 116.999 285.937 116.999 285.079 116.834L285.555 113.472Z" fill="#7FFF52" stroke="#7FFF52" stroke-miterlimit="10"/>
<path d="M576.916 142.367C578.192 142.955 579.078 143.143 579.576 143.731C579.666 144.065 579.677 144.419 579.609 144.76C579.541 145.101 579.396 145.418 579.187 145.682C578.38 145.85 577.55 145.85 576.743 145.682L576.916 142.367Z" fill="#7FFF52" stroke="#7FFF52" stroke-miterlimit="10"/>
<path d="M529.048 56.9288C529.415 55.7768 529.459 54.9304 529.848 54.5777C530.778 53.7078 531.642 54.3191 532.01 55.3301C532.204 55.8708 532.01 57.1874 531.729 57.2345C530.827 57.2546 529.926 57.1519 529.048 56.9288Z" fill="#7FFF52" stroke="#7FFF52" stroke-miterlimit="10"/>
<path d="M403.972 136.019C405.009 136.372 406.134 136.583 406.134 136.795C406.127 137.633 405.894 138.451 405.463 139.146C405.29 139.405 403.777 139.146 403.755 138.864C403.717 137.909 403.79 136.954 403.972 136.019Z" fill="#7FFF52" stroke="#7FFF52" stroke-miterlimit="10"/>
<path d="M488.985 152.994C490.001 153.723 490.974 154.122 490.995 154.546C490.898 155.464 490.649 156.356 490.26 157.179C489.698 156.803 488.768 156.544 488.66 156.05C488.608 155.019 488.718 153.985 488.985 152.994Z" fill="#7FFF52" stroke="#7FFF52" stroke-miterlimit="10"/>
<path d="M225.124 14.3979C225.124 13.3869 225.016 12.5405 225.319 12.0468C225.622 11.5531 226.681 11.1534 227.049 11.365C227.239 11.4773 227.4 11.6406 227.517 11.8394C227.633 12.0383 227.701 12.2661 227.714 12.5013C227.727 12.7366 227.685 12.9716 227.591 13.1841C227.497 13.3967 227.355 13.5797 227.178 13.716C226.811 14.2333 226.032 14.1863 225.124 14.3979Z" fill="#7FFF52" stroke="#7FFF52" stroke-miterlimit="10"/>
<path d="M618.688 30.7378C618.879 29.7018 619.23 28.7082 619.725 27.799C620.028 27.4228 620.979 27.6344 621.628 27.5874C621.618 28.5676 621.479 29.5413 621.217 30.4792C621.087 30.8084 619.985 30.6438 618.688 30.7378Z" fill="#7FFF52" stroke="#7FFF52" stroke-miterlimit="10"/>
<path d="M689.323 11.4355C690.243 11.6898 691.114 12.1197 691.896 12.7051C692.198 13.0577 691.896 14.0922 691.744 14.821C690.926 14.7434 690.127 14.5044 689.388 14.1157C689.063 13.8806 689.323 12.7756 689.323 11.4355Z" fill="#7FFF52" stroke="#7FFF52" stroke-miterlimit="10"/>
<path d="M318.029 30.8319C317.575 31.7958 317.315 32.9243 316.969 32.9714C316.169 32.9714 314.807 32.8538 314.569 32.3131C314.029 31.161 315.024 30.4322 316.018 30.2911C316.71 30.3577 317.388 30.5401 318.029 30.8319Z" fill="#7FFF52" stroke="#7FFF52" stroke-miterlimit="10"/>
<path d="M301.338 208.432C301.575 207.539 301.597 206.575 301.965 206.387C302.332 206.199 303.154 206.551 303.781 206.669C303.629 207.327 303.651 208.197 303.262 208.597C302.873 208.996 302.159 208.526 301.338 208.432Z" fill="#7FFF52" stroke="#7FFF52" stroke-miterlimit="10"/>
<path d="M467.472 237.421C468.401 237.68 469.223 237.656 469.439 238.056C469.656 238.455 469.439 239.302 469.439 239.96C468.834 239.96 468.034 239.96 467.688 239.725C467.342 239.49 467.537 238.502 467.472 237.421Z" fill="#7FFF52" stroke="#7FFF52" stroke-miterlimit="10"/>
<path d="M655.357 216.802L656.697 217.131L656.07 218.895C655.702 218.683 655.119 218.518 655.032 218.213C654.946 217.907 655.227 217.343 655.357 216.802Z" fill="#7FFF52" stroke="#7FFF52" stroke-miterlimit="10"/>
<path d="M443.927 53.5198C444.333 52.7388 444.804 51.9991 445.332 51.3097C445.505 51.0981 446.089 51.3097 446.5 51.3097C446.207 52.1737 445.875 53.0212 445.505 53.8489C444.969 53.8071 444.439 53.6966 443.927 53.5198Z" fill="#7FFF52" stroke="#7FFF52" stroke-miterlimit="10"/>
<path d="M554.301 231.731H556.009L555.469 233.777L553.523 233.142L554.301 231.731Z" fill="#7FFF52" stroke="#7FFF52" stroke-miterlimit="10"/>
<path d="M379.324 221.269C379.324 220.893 379.518 220.517 379.626 220.164C379.946 220.307 380.251 220.488 380.534 220.705C380.553 220.933 380.491 221.16 380.361 221.34C380.014 221.351 379.667 221.328 379.324 221.269Z" fill="#7FFF52" stroke="#7FFF52" stroke-miterlimit="10"/>
<path d="M162.662 276.167L163.244 276.144L163.093 275.72L162.662 276.167Z" fill="white" stroke="#7FFF52" stroke-miterlimit="10"/>
<path d="M559.922 36.592L558.777 40.2597C557.802 39.7096 556.895 39.0304 556.074 38.2377C555.901 38.0497 556.614 36.5214 557.198 36.0512C557.391 35.8426 557.628 35.6879 557.887 35.6001C558.147 35.5124 558.423 35.4943 558.69 35.5474C558.958 35.6006 559.21 35.7233 559.424 35.9052C559.639 36.0871 559.81 36.3227 559.922 36.592Z" fill="#7FFF52" stroke="#7FFF52" stroke-miterlimit="10"/>
<path d="M495.665 111.309C496.336 110.439 496.919 109.405 497.136 109.475C498.161 109.923 499.128 110.516 500.011 111.239C500.119 111.455 500.176 111.698 500.176 111.944C500.176 112.19 500.119 112.433 500.011 112.649C499.864 112.836 499.676 112.979 499.464 113.065C499.252 113.152 499.024 113.178 498.8 113.143C497.724 112.597 496.677 111.985 495.665 111.309Z" fill="#7FFF52" stroke="#7FFF52" stroke-miterlimit="10"/>
<path d="M405.031 93.2295C404.642 94.7577 404.663 96.0977 404.166 96.4269C403.766 96.5772 403.337 96.613 402.92 96.5306C402.504 96.4483 402.114 96.2506 401.788 95.9567C401.63 95.5257 401.575 95.0582 401.628 94.5978C401.681 94.1374 401.84 93.6991 402.091 93.3235C402.458 92.8768 403.647 93.2295 405.031 93.2295Z" fill="#7FFF52" stroke="#7FFF52" stroke-miterlimit="10"/>
<path d="M24.3103 61.6309C25.5426 62.3598 26.4723 62.6184 26.8831 63.2532C27.2939 63.888 26.5805 65.04 26.1913 65.1575C25.3301 65.2563 24.4597 65.1927 23.6184 64.9695L24.3103 61.6309Z" fill="#7FFF52" stroke="#7FFF52" stroke-miterlimit="10"/>
<path d="M313.056 112.837C314.288 113.543 315.218 113.778 315.629 114.413C315.698 114.756 315.687 115.112 315.596 115.449C315.505 115.786 315.338 116.092 315.11 116.341C314.303 116.503 313.474 116.503 312.667 116.341L313.056 112.837Z" fill="#7FFF52" stroke="#7FFF52" stroke-miterlimit="10"/>
<path d="M270.874 24.0137C271.306 22.8852 271.414 22.0624 271.825 21.6627C272.82 20.8633 273.62 21.5216 273.987 22.5796C274.045 22.9016 274.04 23.2332 273.973 23.553C273.906 23.8729 273.779 24.174 273.598 24.4369C272.677 24.4326 271.76 24.2902 270.874 24.0137Z" fill="#7FFF52" stroke="#7FFF52" stroke-miterlimit="10"/>
<path d="M140.954 93.1824C141.971 93.6291 143.117 93.9348 143.117 94.1229C143.065 94.9783 142.779 95.7974 142.295 96.4739C142.1 96.709 140.609 96.2623 140.587 96.0508C140.608 95.0825 140.731 94.12 140.954 93.1824Z" fill="#7FFF52" stroke="#7FFF52" stroke-miterlimit="10"/>
<path d="M224.649 116.67C225.6 117.493 226.551 117.939 226.53 118.386C226.382 119.292 226.082 120.161 225.643 120.949C225.103 120.525 224.173 120.196 224.108 119.703C224.136 118.666 224.318 117.642 224.649 116.67Z" fill="#7FFF52" stroke="#7FFF52" stroke-miterlimit="10"/>
<path d="M362.006 4.73495C362.267 3.71528 362.676 2.74715 363.216 1.86664C363.562 1.51398 364.492 1.86664 365.141 1.86664C365.067 2.84187 364.863 3.8002 364.535 4.71142C364.384 4.97004 363.303 4.73495 362.006 4.73495Z" fill="#7FFF52" stroke="#7FFF52" stroke-miterlimit="10"/>
<path d="M33.845 157.508C34.1693 156.638 34.2558 155.698 34.6233 155.533C34.9909 155.368 35.8125 155.768 36.4179 155.933C36.2016 156.591 36.18 157.461 35.7692 157.837C35.3584 158.213 34.6666 157.672 33.845 157.508Z" fill="#7FFF52" stroke="#7FFF52" stroke-miterlimit="10"/>
<path d="M197.687 199.24C198.595 199.569 199.417 199.616 199.612 200.015C199.806 200.415 199.612 201.261 199.46 201.92C198.877 201.92 198.055 201.92 197.731 201.567C197.406 201.214 197.666 200.345 197.687 199.24Z" fill="#7FFF52" stroke="#7FFF52" stroke-miterlimit="10"/>
<path d="M386.437 193.291L387.756 193.738L387.021 195.454C386.675 195.196 386.091 194.984 386.026 194.678C385.962 194.373 386.286 193.691 386.437 193.291Z" fill="#7FFF52" stroke="#7FFF52" stroke-miterlimit="10"/>
<path d="M186.185 13.9982C186.646 13.2447 187.167 12.5366 187.742 11.8822C187.936 11.6941 188.499 11.8822 188.888 11.8822C188.52 12.7051 188.174 13.575 187.742 14.3508C187.213 14.2907 186.692 14.1726 186.185 13.9982Z" fill="#7FFF52" stroke="#7FFF52" stroke-miterlimit="10"/>
<path d="M284.668 200.344L286.376 200.603L285.706 202.601L283.803 201.802L284.668 200.344Z" fill="#7FFF52" stroke="#7FFF52" stroke-miterlimit="10"/>
<path d="M110.815 176.34C110.945 175.964 111.053 175.611 111.182 175.258C111.494 175.421 111.784 175.626 112.047 175.87C112.047 175.87 111.939 176.481 111.852 176.481C111.503 176.469 111.156 176.422 110.815 176.34Z" fill="#7FFF52" stroke="#7FFF52" stroke-miterlimit="10"/>
<path d="M283.479 41.4587L281.425 44.6091C280.609 43.7865 279.883 42.8633 279.263 41.8584C279.155 41.6233 280.236 40.3772 280.928 40.1186C281.167 39.9526 281.441 39.8558 281.725 39.8377C282.008 39.8195 282.291 39.8805 282.547 40.0148C282.803 40.149 283.022 40.3522 283.186 40.605C283.349 40.8577 283.45 41.1516 283.479 41.4587Z" fill="#7FFF52" stroke="#7FFF52" stroke-miterlimit="10"/>
<path d="M202.531 93.5821C203.417 92.9473 204.239 92.1479 204.412 92.289C205.293 93.0081 206.072 93.8635 206.725 94.8281C206.786 95.0646 206.79 95.3142 206.737 95.553C206.684 95.7917 206.576 96.0117 206.422 96.1918C206.231 96.3334 206.01 96.4205 205.779 96.4452C205.549 96.4698 205.317 96.4312 205.103 96.3329C204.202 95.4652 203.344 94.547 202.531 93.5821Z" fill="#7FFF52" stroke="#7FFF52" stroke-miterlimit="10"/>
<path d="M120.199 48.5825C119.442 49.9696 119.118 51.2627 118.534 51.4038C118.111 51.4286 117.689 51.3333 117.31 51.1272C116.931 50.9211 116.607 50.6113 116.372 50.2282C116.343 49.7795 116.417 49.33 116.587 48.9198C116.756 48.5096 117.017 48.1514 117.345 47.8772C117.82 47.5245 118.858 48.1828 120.199 48.5825Z" fill="#7FFF52" stroke="#7FFF52" stroke-miterlimit="10"/>
<path d="M26.8399 39.3898C27.856 40.4478 28.656 40.965 29.002 41.7408C29.3479 42.5167 28.3966 43.4101 28.0074 43.4101C27.1902 43.3034 26.3984 43.0323 25.6724 42.6108L26.8399 39.3898Z" fill="#7FFF52" stroke="#7FFF52" stroke-miterlimit="10"/>
<path d="M76.5677 138.911L77.7352 139.757L76.5677 141.168C76.3083 140.815 75.7894 140.439 75.8326 140.11C75.8759 139.781 76.3083 139.216 76.5677 138.911Z" fill="#7FFF52" stroke="#7FFF52" stroke-miterlimit="10"/>
</svg>
