<svg width="63" height="64" viewBox="0 0 63 64" fill="none" xmlns="http://www.w3.org/2000/svg">
<rect width="62.5875" height="63.9398" rx="31.2937" fill="white"/>
<path fill-rule="evenodd" clip-rule="evenodd" d="M57.9754 28.7425C57.9754 14.5145 47.1906 4.61206 31.6871 4.61206C15.6225 4.61206 4.6123 15.7278 4.6123 31.9554C4.6123 48.7057 15.33 59.3275 32.2434 59.3275C36.377 59.3275 40.3428 58.7377 43.2919 57.721V53.5874C41.2299 54.5417 36.799 55.1603 32.3105 55.1603C18.2792 55.1603 9.23027 46.145 9.23027 32.152C9.23027 18.5139 18.4422 8.74569 31.2603 8.74569C44.3757 8.74569 53.3575 16.8403 53.3575 28.6753C53.3575 36.7412 50.7008 41.9538 46.5672 41.9538C44.2079 41.9538 42.8651 40.6111 42.8651 38.3093V19.075H37.9163V23.0743H37.3888C36.1132 20.2211 33.1641 18.4516 29.7162 18.4516C23.0026 18.4516 18.3127 24.0238 18.3127 31.989C18.3127 40.3186 22.9019 45.9244 29.721 45.9244C33.5573 45.9244 36.5065 44.0542 37.9163 40.7118H38.4438C38.8322 43.9247 41.815 46.2169 45.6513 46.2169C53.1896 46.2169 57.9754 39.4266 57.9754 28.7425ZM23.5589 32.1184C23.5589 26.3783 26.1484 22.9736 30.541 22.9736C35.0007 22.9736 37.8492 26.5126 37.8492 32.1184C37.8492 37.7242 34.9671 41.2968 30.4739 41.2968C26.182 41.2968 23.5589 37.8202 23.5589 32.1184Z" fill="#7FFF52"/>
</svg>
