<svg width="61" height="60" viewBox="0 0 61 60" fill="none" xmlns="http://www.w3.org/2000/svg">
<path d="M30.5 0C13.6487 0 0 13.7646 0 30.7588C0 44.3696 8.73062 55.8657 20.8544 59.9412C22.3794 60.2104 22.9512 59.2876 22.9512 58.4802C22.9512 57.7497 22.9131 55.3274 22.9131 52.7514C15.25 54.174 13.2675 50.8674 12.6575 49.1372C12.3144 48.2529 10.8275 45.523 9.53125 44.7925C8.46375 44.2158 6.93875 42.7932 9.49313 42.7548C11.895 42.7163 13.6106 44.9848 14.1825 45.9075C16.9275 50.5598 21.3119 49.2526 23.0656 48.4451C23.3325 46.4458 24.1331 45.1001 25.01 44.3311C18.2237 43.5622 11.1325 40.9092 11.1325 29.144C11.1325 25.799 12.3144 23.0307 14.2588 20.8775C13.9538 20.1086 12.8862 16.9558 14.5637 12.7265C14.5637 12.7265 17.1181 11.919 22.9512 15.8792C25.3912 15.1872 27.9838 14.8411 30.5763 14.8411C33.1688 14.8411 35.7613 15.1872 38.2013 15.8792C44.0344 11.8806 46.5888 12.7265 46.5888 12.7265C48.2663 16.9558 47.1988 20.1086 46.8938 20.8775C48.8381 23.0307 50.02 25.7605 50.02 29.144C50.02 40.9477 42.8906 43.5622 36.1044 44.3311C37.21 45.2924 38.1631 47.1379 38.1631 50.0215C38.1631 54.1355 38.125 57.4421 38.125 58.4802C38.125 59.2876 38.6969 60.2488 40.2219 59.9412C46.277 57.8804 51.5387 53.9561 55.2661 48.721C58.9935 43.4859 60.9989 37.2037 61 30.7588C61 13.7646 47.3513 0 30.5 0Z" fill="#7FFF52"/>
</svg>
