<svg width="60" height="60" viewBox="0 0 60 60" fill="none" xmlns="http://www.w3.org/2000/svg">
<g clip-path="url(#clip0_525_395)">
<path d="M0 4.2975C0 1.92375 1.9725 0 4.40625 0H55.5937C58.0275 0 60 1.92375 60 4.2975V55.7025C60 58.0763 58.0275 60 55.5937 60H4.40625C1.9725 60 0 58.0763 0 55.7025V4.2975ZM18.5362 50.2275V23.1338H9.5325V50.2275H18.5362ZM14.0363 19.4325C17.175 19.4325 19.1287 17.355 19.1287 14.7525C19.0725 12.0938 17.1788 10.0725 14.0963 10.0725C11.0138 10.0725 9 12.0975 9 14.7525C9 17.355 10.9538 19.4325 13.9762 19.4325H14.0363ZM32.4413 50.2275V35.0963C32.4413 34.2863 32.5012 33.4762 32.7412 32.8987C33.39 31.2825 34.8713 29.6062 37.3613 29.6062C40.62 29.6062 41.9212 32.0888 41.9212 35.7338V50.2275H50.925V34.6875C50.925 26.3625 46.485 22.4925 40.56 22.4925C35.7825 22.4925 33.6413 25.1175 32.4413 26.9662V27.06H32.3813C32.4012 27.0287 32.4212 26.9974 32.4413 26.9662V23.1338H23.4412C23.5537 25.6763 23.4412 50.2275 23.4412 50.2275H32.4413Z" fill="#7FFF52"/>
</g>
<defs>
<clipPath id="clip0_525_395">
<rect width="60" height="60" fill="white"/>
</clipPath>
</defs>
</svg>
