<svg width="1016" height="1017" viewBox="0 0 1016 1017" fill="none" xmlns="http://www.w3.org/2000/svg">
<path d="M615.64 909.567C836.612 850.358 967.633 622.795 908.281 401.292C848.929 179.789 621.681 48.2235 400.708 107.433C179.735 166.643 48.7155 394.205 108.067 615.708C167.419 837.212 394.667 968.777 615.64 909.567Z" fill="white"/>
<mask id="mask0_525_404" style="mask-type:luminance" maskUnits="userSpaceOnUse" x="93" y="93" width="830" height="831">
<path d="M907.315 401.551C966.524 622.522 835.818 849.535 615.381 908.601C394.944 967.667 168.242 836.421 109.033 615.45C49.8238 394.478 180.53 167.465 400.967 108.399C621.405 49.333 848.106 180.579 907.315 401.551Z" fill="white" stroke="white" stroke-width="2"/>
</mask>
<g mask="url(#mask0_525_404)">
<path d="M878.811 358.339C885.059 362.422 882.177 389.382 866.973 398.451C847.687 409.952 827.068 381.664 799.907 387.822C770.377 394.521 741.5 440.038 751.986 484.095C761.655 524.699 801.938 552.105 832.24 548.405C862.543 544.704 881.717 510.018 892.698 516.645C901.537 522.057 891.561 545.829 904.524 556.376C911.726 562.226 919.474 554.704 926.88 559.924C936.257 566.529 930.88 581.803 934.574 601.959C938.547 623.566 952.63 649.014 965.219 649.764C982.432 650.8 1001.11 605.915 1008.73 572.55C1034.11 461.093 962.462 361.288 955.582 352.006C907.934 287.611 819.601 221.654 775.954 245.361C751.237 258.784 741.139 300.81 750.329 309.271C756.17 314.676 768.608 305.306 786.919 312.584C796.058 316.219 804.659 323.235 803.536 326.632C801.608 332.47 773.65 319.951 754.058 334.023C744.243 341.072 737.846 353.927 741.204 359.392C744.911 365.463 759.436 361.275 760.525 364.936C762.025 370.011 734.126 377.642 733.929 389.94C733.836 395.909 740.242 403.249 747.277 404.242C765.9 406.892 774.897 363.014 800.028 361.508C815.289 360.531 818.597 376.294 837.349 376.529C860.014 376.882 872.325 354.118 878.811 358.339Z" fill="#A157FF" stroke="#6F15E1" stroke-width="1.5" stroke-miterlimit="10"/>
<path d="M66.8966 561.761C73.3575 578.111 40.6493 602.031 46.9561 611.606C50.0683 616.327 58.8129 611.712 69.6545 613.475C99.3337 618.282 95.0022 670.013 127.682 682.138C167.139 696.726 196.949 667.032 226.95 685.726C255.777 703.691 238.715 737.687 271.098 767.646C302.889 797.078 334.66 778.467 357.955 807.935C377.991 833.236 358.611 856.323 380.321 879.821C412.84 914.862 472.594 914.831 480.591 899.027C488.163 884.067 441.686 864.249 447.419 828.465C452.535 796.519 488.176 785.631 485.165 756.376C483.171 737.351 467.404 734.932 464.669 709.43C462.464 688.921 471.873 682.962 466.57 669.196C459.714 651.427 435.15 638.31 418.569 643.92C400.36 650.059 396.807 677.059 389.027 675.658C382.929 674.569 386.099 658.128 377.79 645.308C358.536 615.8 284.484 615.305 263.746 645.664C254.584 659.089 259.793 680.271 251.38 682.354C250.351 682.63 247.716 682.931 240.303 676.935C229.342 668.062 224.802 658.013 218.864 649.755C206.103 631.966 199.915 619.589 196.813 620.7C192.139 622.372 204.842 650.664 193.434 661.33C184.904 669.295 164.265 666.189 158.793 656.312C150.302 640.958 179.96 611.912 181.405 610.529C206.342 586.513 225.656 592.899 233.925 575.792C244.261 554.35 217.033 538.182 224.642 511.543C232.671 483.577 266.737 486.913 278.985 454.067C284.431 439.63 285.422 418.592 273.673 404.64C255.755 383.362 215.062 386.922 208.948 399.732C203.852 410.433 224.244 424.435 218.883 436.81C214.724 446.374 197.874 448.663 180.819 448.565C174.887 434.361 153.255 383.986 120.319 381.452C63.6424 377.095 5.52573 516.946 33.4582 545.358C43.283 555.376 62.3231 550.197 66.8966 561.761Z" fill="#A157FF" stroke="#6F15E1" stroke-width="1.5" stroke-miterlimit="10"/>
</g>
<path d="M615.64 909.567C836.613 850.358 967.633 622.795 908.281 401.292C848.929 179.789 621.681 48.2235 400.708 107.433C179.735 166.643 48.7155 394.205 108.067 615.708C167.419 837.212 394.667 968.777 615.64 909.567Z" stroke="black" stroke-width="4" stroke-miterlimit="10"/>
</svg>
