<svg width="99" height="99" viewBox="0 0 99 99" fill="none" xmlns="http://www.w3.org/2000/svg">
<path d="M49.0255 76.7482C64.7616 76.7482 77.5182 63.9139 77.5182 48.0821C77.5182 32.2503 64.7616 19.416 49.0255 19.416C33.2894 19.416 20.5327 32.2503 20.5327 48.0821C20.5327 63.9139 33.2894 76.7482 49.0255 76.7482Z" fill="white" stroke="white" stroke-width="4" stroke-miterlimit="10"/>
<path d="M57.5209 62.3208C79.9012 49.8347 94.2388 32.8091 89.545 24.2932C84.8511 15.7772 62.9032 18.9957 40.523 31.4819C18.1428 43.9681 3.80512 60.9936 8.49897 69.5095C13.1928 78.0255 35.1407 74.807 57.5209 62.3208Z" stroke="#A157FF" stroke-width="3" stroke-miterlimit="10"/>
<path d="M66.3907 57.9496C79.2046 35.7553 82.786 13.7869 74.39 8.88173C65.994 3.97655 48.8 17.9921 35.9862 40.1863C23.1723 62.3806 19.591 84.349 27.9869 89.2542C36.3829 94.1593 53.5769 80.1438 66.3907 57.9496Z" stroke="#A157FF" stroke-width="3" stroke-miterlimit="10"/>
</svg>
