<svg width="1440" height="751" viewBox="0 0 1440 751" fill="none" xmlns="http://www.w3.org/2000/svg">
<path d="M1434.03 722.008C1433.75 723.679 1433.89 725.101 1433.34 725.475C1432.92 725.68 1432.45 725.763 1431.98 725.714C1431.52 725.666 1431.07 725.489 1430.7 725.2C1430.47 724.773 1430.35 724.293 1430.35 723.804C1430.35 723.315 1430.47 722.834 1430.7 722.407C1431.2 721.909 1432.51 722.158 1434.03 722.008Z" fill="#7FFF52" stroke="#7FFF52" stroke-width="0.5" stroke-miterlimit="10"/>
<path d="M1013.51 726.048C1014.94 726.697 1015.9 726.896 1016.47 727.52C1016.55 727.887 1016.54 728.27 1016.44 728.632C1016.34 728.994 1016.15 729.324 1015.9 729.589C1014.95 729.765 1013.98 729.765 1013.04 729.589L1013.51 726.048Z" fill="#7FFF52" stroke="#7FFF52" stroke-width="0.5" stroke-miterlimit="10"/>
<path d="M1312.19 342.164C1312.71 343.236 1313.21 344.184 1313.66 345.156C1313.67 345.277 1313.64 345.396 1313.59 345.505C1313.54 345.613 1313.47 345.708 1313.38 345.78C1312.95 345.954 1312.11 346.179 1312.07 346.054C1311.51 344.921 1311.03 343.746 1310.64 342.538C1310.65 342.406 1310.69 342.278 1310.75 342.162C1310.81 342.046 1310.89 341.945 1311 341.865C1311.4 341.935 1311.8 342.035 1312.19 342.164Z" fill="#7FFF52" stroke="#7FFF52" stroke-width="0.5" stroke-miterlimit="10"/>
<path d="M979.511 414.432C978.83 415.374 978.029 416.213 977.13 416.926C976.868 417.076 975.63 416.153 975.654 415.829C975.712 415.456 975.847 415.1 976.048 414.786C976.25 414.472 976.513 414.207 976.82 414.008C977.249 413.684 978.035 414.133 979.511 414.432Z" fill="#7FFF52" stroke="#7FFF52" stroke-width="0.5" stroke-miterlimit="10"/>
<path d="M1168.62 421.265C1168.59 420.379 1168.7 419.493 1168.96 418.647C1169.58 417.524 1171.34 417.849 1172.01 419.22C1172.22 419.769 1172.01 421.14 1171.6 421.24C1170.62 421.4 1169.61 421.408 1168.62 421.265Z" fill="#7FFF52" stroke="#7FFF52" stroke-width="0.5" stroke-miterlimit="10"/>
<path d="M1280.83 662.084C1281.23 660.838 1281.25 659.965 1281.68 659.591C1282.71 658.668 1283.64 659.291 1284.06 660.364C1284.28 660.937 1284.06 662.334 1283.78 662.384C1282.79 662.415 1281.79 662.314 1280.83 662.084Z" fill="#7FFF52" stroke="#7FFF52" stroke-width="0.5" stroke-miterlimit="10"/>
<path d="M1144.17 747.968C1145.34 748.342 1146.55 748.567 1146.55 748.766C1146.55 749.65 1146.31 750.515 1145.86 751.26C1145.67 751.534 1144 751.26 1143.96 750.986C1143.92 749.975 1143.99 748.962 1144.17 747.968Z" fill="#7FFF52" stroke="#7FFF52" stroke-width="0.5" stroke-miterlimit="10"/>
<path d="M1331.12 262.714C1331.77 262.422 1332.46 262.254 1333.16 262.215C1333.77 262.387 1334.28 262.799 1334.59 263.362C1334.59 263.512 1334.19 264.385 1333.83 264.534C1333.14 264.826 1332.4 264.945 1331.66 264.884C1331.42 264.858 1331.19 264.775 1330.98 264.641C1330.78 264.507 1330.6 264.326 1330.47 264.111C1330.38 263.811 1330.83 263.263 1331.12 262.714Z" fill="#7FFF52" stroke="#7FFF52" stroke-width="0.5" stroke-miterlimit="10"/>
<path d="M1420.98 491.862C1420.86 491.036 1420.86 490.195 1420.98 489.369C1421.36 488.446 1423.17 488.795 1423.53 489.942C1423.62 490.306 1423.62 490.686 1423.54 491.05C1423.45 491.415 1423.29 491.753 1423.05 492.037C1422.77 492.261 1421.82 491.912 1420.98 491.862Z" fill="#7FFF52" stroke="#7FFF52" stroke-width="0.5" stroke-miterlimit="10"/>
<path d="M1253.7 410.741C1253.7 410.243 1253.3 409.644 1253.47 409.245C1253.87 408.248 1255.68 408.397 1256.7 409.569C1256.84 409.778 1256.93 410.016 1256.97 410.267C1257.01 410.517 1256.99 410.773 1256.92 411.016C1256.35 412.163 1254.75 411.988 1253.7 410.741Z" fill="#7FFF52" stroke="#7FFF52" stroke-width="0.5" stroke-miterlimit="10"/>
<path d="M1123.38 596.3C1123.64 595.274 1124.01 594.286 1124.5 593.357C1124.64 593.158 1126.12 593.582 1126.38 594.055C1126.52 594.412 1126.57 594.799 1126.52 595.18C1126.47 595.561 1126.32 595.921 1126.1 596.225C1125.72 596.599 1124.74 596.3 1123.38 596.3Z" fill="#7FFF52" stroke="#7FFF52" stroke-width="0.5" stroke-miterlimit="10"/>
<path d="M1091.4 444.182L1093.33 443.708C1093 444.881 1092.69 446.078 1092.31 447.225C1091.9 447.204 1091.5 447.12 1091.12 446.975C1091.16 445.978 1091.31 445.005 1091.4 444.182Z" fill="#7FFF52" stroke="#7FFF52" stroke-width="0.5" stroke-miterlimit="10"/>
<path d="M1426.58 368.622C1426.9 367.835 1427.33 367.104 1427.86 366.453C1428.13 366.204 1428.77 366.453 1429.27 366.453C1429.27 367.176 1429.41 368.099 1429.05 368.548C1428.7 368.996 1427.82 368.598 1426.58 368.622Z" fill="#7FFF52" stroke="#7FFF52" stroke-width="0.5" stroke-miterlimit="10"/>
<path d="M945.508 621.985C945.508 620.913 945.365 620.015 945.698 619.491C946.032 618.968 947.199 618.519 947.58 618.768C947.792 618.883 947.974 619.052 948.106 619.261C948.239 619.469 948.319 619.71 948.338 619.959C948.357 620.209 948.315 620.46 948.216 620.688C948.116 620.916 947.963 621.113 947.77 621.262C947.318 621.81 946.532 621.761 945.508 621.985Z" fill="#7FFF52" stroke="#7FFF52" stroke-width="0.5" stroke-miterlimit="10"/>
<path d="M1006.54 530.316L1008.92 530.665C1008.7 531.637 1008.75 532.884 1008.2 533.458C1007.66 534.031 1006.56 533.233 1005.68 533.084L1006.54 530.316Z" fill="#7FFF52" stroke="#7FFF52" stroke-width="0.5" stroke-miterlimit="10"/>
<path d="M1341.81 564.031C1341.87 564.87 1341.79 565.716 1341.57 566.525C1341.41 566.713 1341.21 566.857 1340.98 566.941C1340.76 567.026 1340.51 567.05 1340.27 567.01C1340.04 566.97 1339.81 566.868 1339.62 566.714C1339.43 566.559 1339.28 566.357 1339.19 566.126C1339.12 565.769 1339.13 565.401 1339.21 565.048C1339.29 564.695 1339.45 564.365 1339.67 564.081C1340.02 563.732 1340.93 564.031 1341.81 564.031Z" fill="#7FFF52" stroke="#7FFF52" stroke-width="0.5" stroke-miterlimit="10"/>
<path d="M1379.17 632.733C1379.36 631.627 1379.73 630.564 1380.26 629.591C1380.6 629.192 1381.62 629.417 1382.36 629.342C1382.35 630.388 1382.21 631.429 1381.93 632.434C1381.79 632.758 1380.57 632.609 1379.17 632.733Z" fill="#7FFF52" stroke="#7FFF52" stroke-width="0.5" stroke-miterlimit="10"/>
<path d="M1231.68 554.38C1231.04 554.779 1230.32 555.577 1229.77 555.477C1228.94 555.147 1228.2 554.597 1227.63 553.881C1227.63 553.756 1227.89 552.684 1228.18 552.634C1228.83 552.397 1229.53 552.397 1230.18 552.634C1230.81 553.058 1231.38 553.579 1231.87 554.18L1231.68 554.38Z" fill="#7FFF52" stroke="#7FFF52" stroke-width="0.5" stroke-miterlimit="10"/>
<path d="M1157.53 512.56C1158.58 512.78 1159.59 513.141 1160.55 513.633C1160.77 513.807 1160.55 515.353 1160 515.628C1159.66 515.761 1159.3 515.81 1158.93 515.771C1158.57 515.732 1158.22 515.606 1157.91 515.403C1157.55 515.104 1157.7 514.081 1157.53 512.56Z" fill="#7FFF52" stroke="#7FFF52" stroke-width="0.5" stroke-miterlimit="10"/>
<path d="M1048.07 637.87C1047.59 638.892 1047.33 640.114 1046.92 640.164C1046.04 640.164 1044.54 640.164 1044.28 639.491C1043.66 638.269 1044.76 637.496 1045.85 637.321C1046.61 637.369 1047.36 637.555 1048.07 637.87Z" fill="#7FFF52" stroke="#7FFF52" stroke-width="0.5" stroke-miterlimit="10"/>
<path d="M1308.97 474.406L1311.76 475.104C1311.57 475.828 1311.59 476.825 1311.14 477.199C1310.82 477.338 1310.48 477.387 1310.14 477.344C1309.8 477.3 1309.48 477.164 1309.21 476.95C1308.83 476.426 1309.04 475.454 1308.97 474.406Z" fill="#7FFF52" stroke="#7FFF52" stroke-width="0.5" stroke-miterlimit="10"/>
<path d="M1178.82 336.279C1179.48 336.628 1180.34 336.827 1180.63 337.351C1180.91 337.875 1180.15 338.523 1179.84 339.147C1179.29 338.691 1178.78 338.182 1178.32 337.625C1178.17 337.451 1178.58 336.852 1178.82 336.279Z" fill="#7FFF52" stroke="#7FFF52" stroke-width="0.5" stroke-miterlimit="10"/>
<path d="M1187.03 659.815C1187.47 658.98 1187.98 658.187 1188.56 657.446C1188.75 657.222 1189.39 657.446 1189.84 657.446C1189.53 658.363 1189.17 659.262 1188.77 660.139C1188.18 660.109 1187.6 660 1187.03 659.815Z" fill="#7FFF52" stroke="#7FFF52" stroke-width="0.5" stroke-miterlimit="10"/>
<path d="M1316.88 635.626L1315.88 639.591C1314.77 639.094 1313.72 638.458 1312.76 637.695C1312.54 637.496 1313.21 635.825 1313.85 635.202C1314.05 634.964 1314.3 634.782 1314.59 634.671C1314.87 634.56 1315.17 634.524 1315.47 634.566C1315.77 634.608 1316.06 634.727 1316.3 634.912C1316.55 635.096 1316.74 635.342 1316.88 635.626Z" fill="#7FFF52" stroke="#7FFF52" stroke-width="0.5" stroke-miterlimit="10"/>
<path d="M1251.63 719.914C1252.32 718.941 1252.89 717.819 1253.13 717.869C1254.29 718.25 1255.38 718.795 1256.4 719.49C1256.54 719.706 1256.63 719.956 1256.65 720.216C1256.68 720.477 1256.65 720.741 1256.56 720.986C1256.41 721.198 1256.21 721.367 1255.98 721.476C1255.76 721.585 1255.5 721.631 1255.25 721.609C1254.01 721.123 1252.8 720.557 1251.63 719.914Z" fill="#7FFF52" stroke="#7FFF52" stroke-width="0.5" stroke-miterlimit="10"/>
<path d="M1150.77 708.218C1150.46 709.889 1150.58 711.31 1150.03 711.684C1149.6 711.879 1149.14 711.953 1148.68 711.901C1148.22 711.848 1147.78 711.67 1147.41 711.385C1147.2 710.942 1147.1 710.45 1147.13 709.956C1147.15 709.463 1147.3 708.984 1147.55 708.567C1147.93 708.043 1149.24 708.218 1150.77 708.218Z" fill="#7FFF52" stroke="#7FFF52" stroke-width="0.5" stroke-miterlimit="10"/>
<path d="M730.249 705.849C731.654 706.522 732.631 706.722 733.178 707.37C733.726 708.019 732.988 709.266 732.583 709.415C731.638 709.59 730.671 709.59 729.726 709.415L730.249 705.849Z" fill="#7FFF52" stroke="#7FFF52" stroke-width="0.5" stroke-miterlimit="10"/>
<path d="M1034.21 326.678C1034.73 327.725 1035.21 328.698 1035.64 329.671C1035.64 329.791 1035.62 329.91 1035.57 330.019C1035.52 330.127 1035.44 330.222 1035.35 330.294C1034.92 330.469 1034.09 330.693 1034.02 330.568C1033.5 329.407 1033.05 328.217 1032.66 327.002C1032.66 326.853 1032.92 326.329 1033.02 326.354C1033.42 326.42 1033.82 326.528 1034.21 326.678Z" fill="#7FFF52" stroke="#7FFF52" stroke-width="0.5" stroke-miterlimit="10"/>
<path d="M700.579 393.734C699.859 394.69 699.009 395.53 698.055 396.228C697.793 396.378 696.555 395.43 696.603 395.106C696.658 394.731 696.794 394.375 697 394.064C697.207 393.753 697.478 393.495 697.793 393.31C698.294 392.961 699.103 393.41 700.579 393.734Z" fill="#7FFF52" stroke="#7FFF52" stroke-width="0.5" stroke-miterlimit="10"/>
<path d="M889.55 403.46C889.542 402.563 889.67 401.671 889.931 400.816C890.574 399.719 892.312 400.068 892.955 401.465C893.193 402.013 892.955 403.385 892.55 403.485C891.554 403.613 890.545 403.605 889.55 403.46Z" fill="#7FFF52" stroke="#7FFF52" stroke-width="0.5" stroke-miterlimit="10"/>
<path d="M1051.14 736.497C1052.54 737.121 1053.52 737.32 1054.07 737.943C1054.17 738.299 1054.18 738.674 1054.1 739.035C1054.03 739.397 1053.87 739.733 1053.64 740.013C1052.75 740.192 1051.84 740.192 1050.95 740.013L1051.14 736.497Z" fill="#7FFF52" stroke="#7FFF52" stroke-width="0.5" stroke-miterlimit="10"/>
<path d="M998.418 645.875C998.823 644.653 998.87 643.755 999.299 643.381C1000.32 642.459 1001.28 643.107 1001.68 644.179C1001.89 644.753 1001.68 646.149 1001.37 646.199C1000.38 646.221 999.385 646.112 998.418 645.875Z" fill="#7FFF52" stroke="#7FFF52" stroke-width="0.5" stroke-miterlimit="10"/>
<path d="M860.667 729.764C861.81 730.138 863.048 730.362 863.048 730.587C863.04 731.476 862.784 732.343 862.31 733.08C862.119 733.355 860.452 733.08 860.428 732.781C860.386 731.769 860.466 730.755 860.667 729.764Z" fill="#7FFF52" stroke="#7FFF52" stroke-width="0.5" stroke-miterlimit="10"/>
<path d="M954.295 747.769C955.414 748.542 956.485 748.966 956.509 749.414C956.402 750.389 956.128 751.335 955.7 752.207C955.081 751.808 954.057 751.534 953.938 751.01C953.881 749.916 954.001 748.82 954.295 747.769Z" fill="#7FFF52" stroke="#7FFF52" stroke-width="0.5" stroke-miterlimit="10"/>
<path d="M1054.23 247.378C1054.9 247.108 1055.59 246.948 1056.3 246.904C1056.89 247.103 1057.39 247.52 1057.71 248.076C1057.71 248.225 1057.3 249.098 1056.92 249.248C1056.23 249.517 1055.49 249.627 1054.76 249.572C1054.52 249.546 1054.28 249.46 1054.08 249.321C1053.88 249.182 1053.71 248.995 1053.59 248.774C1053.47 248.475 1053.95 247.951 1054.23 247.378Z" fill="#7FFF52" stroke="#7FFF52" stroke-width="0.5" stroke-miterlimit="10"/>
<path d="M1140.91 477.873C1140.78 477.047 1140.78 476.205 1140.91 475.379C1141.29 474.456 1143.12 474.83 1143.46 475.977C1143.53 476.343 1143.52 476.722 1143.43 477.084C1143.35 477.447 1143.18 477.784 1142.96 478.072C1142.69 478.296 1141.79 477.947 1140.91 477.873Z" fill="#7FFF52" stroke="#7FFF52" stroke-width="0.5" stroke-miterlimit="10"/>
<path d="M974.677 394.208C974.677 393.709 974.296 393.111 974.463 392.712C974.868 391.714 976.701 391.914 977.701 393.111C977.837 393.32 977.925 393.56 977.958 393.811C977.991 394.062 977.969 394.317 977.892 394.557C977.487 395.679 975.82 395.48 974.677 394.208Z" fill="#7FFF52" stroke="#7FFF52" stroke-width="0.5" stroke-miterlimit="10"/>
<path d="M841.903 577.796C842.161 576.764 842.553 575.774 843.07 574.854C843.212 574.654 844.689 575.078 844.951 575.577C845.071 575.939 845.103 576.327 845.045 576.706C844.987 577.084 844.84 577.442 844.617 577.746C844.141 578.095 843.26 577.796 841.903 577.796Z" fill="#7FFF52" stroke="#7FFF52" stroke-width="0.5" stroke-miterlimit="10"/>
<path d="M812.043 425.18L813.972 424.756C813.638 425.928 813.305 427.1 812.9 428.248C812.492 428.219 812.091 428.126 811.709 427.973C811.775 427.037 811.886 426.105 812.043 425.18Z" fill="#7FFF52" stroke="#7FFF52" stroke-width="0.5" stroke-miterlimit="10"/>
<path d="M1148.24 354.732C1148.57 353.956 1149 353.233 1149.53 352.588C1149.81 352.339 1150.46 352.588 1150.93 352.588C1150.93 353.311 1150.93 354.259 1150.69 354.708C1150.46 355.156 1149.46 354.732 1148.24 354.732Z" fill="#7FFF52" stroke="#7FFF52" stroke-width="0.5" stroke-miterlimit="10"/>
<path d="M663.695 600.764C663.695 599.691 663.576 598.794 663.91 598.27C664.243 597.746 665.41 597.322 665.815 597.547C666.025 597.666 666.202 597.839 666.33 598.05C666.458 598.261 666.533 598.503 666.547 598.752C666.562 599.002 666.515 599.251 666.412 599.476C666.309 599.702 666.152 599.896 665.958 600.041C665.553 600.589 664.696 600.539 663.695 600.764Z" fill="#7FFF52" stroke="#7FFF52" stroke-width="0.5" stroke-miterlimit="10"/>
<path d="M725.987 510.017L728.368 510.416C728.13 511.388 728.178 512.61 727.606 513.184C727.035 513.757 725.963 512.934 725.225 512.76L725.987 510.017Z" fill="#7FFF52" stroke="#7FFF52" stroke-width="0.5" stroke-miterlimit="10"/>
<path d="M1060.83 548.844C1060.87 549.686 1060.77 550.53 1060.54 551.338C1060.38 551.525 1060.17 551.666 1059.95 551.747C1059.72 551.828 1059.47 551.847 1059.23 551.803C1059 551.758 1058.77 551.65 1058.59 551.491C1058.4 551.331 1058.25 551.124 1058.16 550.889C1058.08 550.537 1058.09 550.17 1058.17 549.819C1058.25 549.468 1058.41 549.143 1058.64 548.869C1058.97 548.62 1059.88 548.819 1060.83 548.844Z" fill="#7FFF52" stroke="#7FFF52" stroke-width="0.5" stroke-miterlimit="10"/>
<path d="M1097.14 618.095C1097.35 616.996 1097.74 615.942 1098.28 614.978C1098.62 614.579 1099.67 614.803 1100.38 614.753C1100.37 615.793 1100.22 616.826 1099.93 617.82C1099.78 618.169 1098.57 617.995 1097.14 618.095Z" fill="#7FFF52" stroke="#7FFF52" stroke-width="0.5" stroke-miterlimit="10"/>
<path d="M1174.93 597.621C1175.95 597.891 1176.91 598.347 1177.77 598.968C1178.1 599.342 1177.77 600.439 1177.6 601.212C1176.7 601.13 1175.82 600.876 1175.01 600.464C1174.65 600.215 1174.93 599.043 1174.93 597.621Z" fill="#7FFF52" stroke="#7FFF52" stroke-width="0.5" stroke-miterlimit="10"/>
<path d="M950.771 537.498C950.128 537.897 949.39 538.695 948.866 538.57C948.024 538.243 947.283 537.683 946.723 536.949C946.603 536.949 947.008 535.777 947.294 535.702C947.959 535.524 948.661 535.576 949.294 535.852C949.922 536.295 950.483 536.833 950.961 537.448L950.771 537.498Z" fill="#7FFF52" stroke="#7FFF52" stroke-width="0.5" stroke-miterlimit="10"/>
<path d="M877.216 494.581C878.261 494.805 879.272 495.182 880.216 495.703C880.26 496.055 880.232 496.413 880.134 496.752C880.035 497.092 879.868 497.406 879.645 497.673C879.3 497.803 878.932 497.848 878.569 497.804C878.206 497.761 877.857 497.631 877.549 497.423C877.168 497.124 877.478 496.102 877.216 494.581Z" fill="#7FFF52" stroke="#7FFF52" stroke-width="0.5" stroke-miterlimit="10"/>
<path d="M766.014 618.195C765.514 619.217 765.229 620.414 764.848 620.464C763.967 620.464 762.466 620.339 762.205 619.766C761.609 618.544 762.705 617.771 763.8 617.621C764.562 617.692 765.309 617.885 766.014 618.195Z" fill="#7FFF52" stroke="#7FFF52" stroke-width="0.5" stroke-miterlimit="10"/>
<path d="M1029.16 458.845L1031.94 459.569C1031.73 460.292 1031.73 461.314 1031.28 461.688C1030.96 461.815 1030.62 461.854 1030.29 461.802C1029.95 461.749 1029.64 461.607 1029.37 461.389C1028.99 460.741 1029.21 459.768 1029.16 458.845Z" fill="#7FFF52" stroke="#7FFF52" stroke-width="0.5" stroke-miterlimit="10"/>
<path d="M900.933 318.623C901.599 318.997 902.456 319.197 902.718 319.721C902.98 320.244 902.218 320.893 901.933 321.491C901.38 321.036 900.869 320.527 900.409 319.97C900.29 319.77 900.694 319.197 900.933 318.623Z" fill="#7FFF52" stroke="#7FFF52" stroke-width="0.5" stroke-miterlimit="10"/>
<path d="M904.671 642.259C905.119 641.431 905.637 640.646 906.219 639.915C906.409 639.691 907.052 639.915 907.504 639.915C907.183 640.832 906.817 641.73 906.409 642.608C905.819 642.564 905.235 642.447 904.671 642.259Z" fill="#7FFF52" stroke="#7FFF52" stroke-width="0.5" stroke-miterlimit="10"/>
<path d="M1259.75 453.983V451.863L1261.9 452.262L1261.37 454.506L1259.75 453.983Z" fill="#7FFF52" stroke="#7FFF52" stroke-width="0.5" stroke-miterlimit="10"/>
<path d="M1227.32 524.131H1228.87C1228.94 524.782 1228.9 525.441 1228.75 526.076C1228.75 526.351 1227.87 526.301 1227.37 526.376L1227.32 524.131Z" fill="#7FFF52" stroke="#7FFF52" stroke-width="0.5" stroke-miterlimit="10"/>
<path d="M1032.42 624.304L1031.16 628.194C1030.09 627.611 1029.09 626.89 1028.18 626.05C1027.99 625.85 1028.78 624.229 1029.42 623.731C1029.63 623.509 1029.89 623.345 1030.18 623.252C1030.47 623.159 1030.77 623.14 1031.06 623.196C1031.36 623.253 1031.64 623.383 1031.87 623.576C1032.11 623.769 1032.3 624.018 1032.42 624.304Z" fill="#7FFF52" stroke="#7FFF52" stroke-width="0.5" stroke-miterlimit="10"/>
<path d="M961.652 703.555C962.391 702.632 963.033 701.535 963.272 701.61C964.401 702.085 965.466 702.714 966.438 703.48C966.557 703.71 966.619 703.967 966.619 704.228C966.619 704.489 966.557 704.746 966.438 704.976C966.276 705.174 966.069 705.326 965.836 705.417C965.603 705.509 965.351 705.537 965.105 705.5C963.92 704.921 962.767 704.271 961.652 703.555Z" fill="#7FFF52" stroke="#7FFF52" stroke-width="0.5" stroke-miterlimit="10"/>
<path d="M861.833 684.378C861.405 685.999 861.429 687.42 860.881 687.769C860.44 687.929 859.968 687.967 859.509 687.879C859.05 687.792 858.621 687.582 858.262 687.271C858.088 686.814 858.027 686.318 858.085 685.829C858.144 685.341 858.319 684.876 858.595 684.478C859 684.004 860.309 684.378 861.833 684.378Z" fill="#7FFF52" stroke="#7FFF52" stroke-width="0.5" stroke-miterlimit="10"/>
<path d="M442.531 650.862C443.888 651.635 444.912 651.91 445.365 652.583C445.817 653.256 445.031 654.478 444.603 654.603C443.654 654.708 442.696 654.64 441.769 654.403L442.531 650.862Z" fill="#7FFF52" stroke="#7FFF52" stroke-width="0.5" stroke-miterlimit="10"/>
<path d="M771.396 295.032C771.825 296.13 772.253 297.102 772.611 298.125C772.61 298.246 772.578 298.365 772.52 298.47C772.461 298.575 772.378 298.662 772.277 298.723C771.849 298.873 770.991 299.022 770.944 298.898C770.503 297.708 770.129 296.493 769.825 295.257C769.825 295.082 770.134 294.584 770.229 294.609C770.633 294.7 771.025 294.842 771.396 295.032Z" fill="#7FFF52" stroke="#7FFF52" stroke-width="0.5" stroke-miterlimit="10"/>
<path d="M434.054 337.276C433.264 338.124 432.367 338.854 431.387 339.446C431.101 339.446 429.935 338.548 430.006 338.199C430.091 337.835 430.252 337.496 430.479 337.207C430.706 336.918 430.992 336.686 431.316 336.528C431.84 336.329 432.602 336.827 434.054 337.276Z" fill="#7FFF52" stroke="#7FFF52" stroke-width="0.5" stroke-miterlimit="10"/>
<path d="M621.905 360.992C621.959 360.135 622.144 359.293 622.453 358.498C623.167 357.451 624.977 357.924 625.429 359.371C625.62 359.944 625.215 361.266 624.882 361.341C623.879 361.365 622.878 361.247 621.905 360.992Z" fill="#7FFF52" stroke="#7FFF52" stroke-width="0.5" stroke-miterlimit="10"/>
<path d="M760.538 705.176C761.895 705.924 762.919 706.173 763.372 706.847C763.448 707.21 763.435 707.588 763.335 707.946C763.236 708.303 763.052 708.628 762.8 708.891C761.911 709.064 760.999 709.064 760.109 708.891L760.538 705.176Z" fill="#7FFF52" stroke="#7FFF52" stroke-width="0.5" stroke-miterlimit="10"/>
<path d="M714.081 610.963C714.557 609.766 714.676 608.893 715.129 608.469C716.224 607.621 717.105 608.319 717.51 609.442C717.574 609.783 717.569 610.135 717.495 610.474C717.421 610.813 717.28 611.133 717.081 611.412C716.066 611.407 715.057 611.256 714.081 610.963Z" fill="#7FFF52" stroke="#7FFF52" stroke-width="0.5" stroke-miterlimit="10"/>
<path d="M570.996 684.328C572.115 684.802 573.377 685.126 573.377 685.326C573.321 686.233 573.005 687.102 572.472 687.819C572.258 688.069 570.615 687.595 570.591 687.37C570.614 686.343 570.75 685.323 570.996 684.328Z" fill="#7FFF52" stroke="#7FFF52" stroke-width="0.5" stroke-miterlimit="10"/>
<path d="M663.171 709.241C664.219 710.114 665.267 710.587 665.243 711.061C665.081 712.023 664.75 712.944 664.267 713.779C663.671 713.33 662.648 712.981 662.576 712.458C662.606 711.359 662.808 710.272 663.171 709.241Z" fill="#7FFF52" stroke="#7FFF52" stroke-width="0.5" stroke-miterlimit="10"/>
<path d="M796.732 217.553C797.405 217.308 798.116 217.198 798.827 217.228C799.405 217.458 799.875 217.914 800.137 218.5C800.137 218.65 799.661 219.498 799.28 219.622C798.576 219.833 797.837 219.884 797.113 219.772C796.875 219.725 796.651 219.622 796.457 219.471C796.264 219.319 796.105 219.124 795.994 218.899C795.899 218.575 796.518 218.076 796.732 217.553Z" fill="#7FFF52" stroke="#7FFF52" stroke-width="0.5" stroke-miterlimit="10"/>
<path d="M867.572 453.858C867.533 453.016 867.629 452.173 867.858 451.364C868.31 450.467 870.096 450.99 870.358 452.162C870.404 452.532 870.369 452.907 870.258 453.261C870.147 453.615 869.961 453.938 869.715 454.207C869.334 454.457 868.429 454.008 867.572 453.858Z" fill="#7FFF52" stroke="#7FFF52" stroke-width="0.5" stroke-miterlimit="10"/>
<path d="M707.437 358.099C707.437 357.6 707.128 356.977 707.437 356.603C707.914 355.63 709.819 355.954 710.652 357.226C710.757 357.451 710.812 357.699 710.812 357.949C710.812 358.2 710.757 358.447 710.652 358.672C710.033 359.77 708.414 359.446 707.437 358.099Z" fill="#7FFF52" stroke="#7FFF52" stroke-width="0.5" stroke-miterlimit="10"/>
<path d="M562.566 531.363C562.901 530.359 563.357 529.403 563.924 528.52C564.272 528.516 564.616 528.593 564.933 528.744C565.25 528.894 565.531 529.116 565.757 529.393C565.854 529.76 565.861 530.146 565.778 530.517C565.694 530.887 565.524 531.229 565.281 531.513C564.876 531.837 563.9 531.463 562.566 531.363Z" fill="#7FFF52" stroke="#7FFF52" stroke-width="0.5" stroke-miterlimit="10"/>
<path d="M543.112 376.927L545.065 376.627C544.636 377.775 544.232 378.922 543.755 380.044C543.358 379.984 542.972 379.858 542.612 379.67C542.729 378.746 542.896 377.83 543.112 376.927Z" fill="#7FFF52" stroke="#7FFF52" stroke-width="0.5" stroke-miterlimit="10"/>
<path d="M883.216 331.666C883.615 330.922 884.103 330.235 884.669 329.621C884.955 329.396 885.597 329.621 886.074 329.621C886.074 330.344 886.074 331.292 885.693 331.716C885.312 332.139 884.455 331.666 883.216 331.666Z" fill="#7FFF52" stroke="#7FFF52" stroke-width="0.5" stroke-miterlimit="10"/>
<path d="M383.263 541.138C383.406 540.091 383.263 539.168 383.644 538.645C384.025 538.121 385.192 537.797 385.573 538.071C385.775 538.204 385.941 538.387 386.056 538.605C386.172 538.824 386.232 539.069 386.232 539.318C386.232 539.567 386.172 539.813 386.056 540.031C385.941 540.249 385.775 540.433 385.573 540.565C385.073 541.138 384.263 540.889 383.263 541.138Z" fill="#7FFF52" stroke="#7FFF52" stroke-width="0.5" stroke-miterlimit="10"/>
<path d="M451.532 455.155L453.77 455.728C453.484 456.651 453.437 457.898 452.818 458.422C452.199 458.945 451.222 458.047 450.437 457.823L451.532 455.155Z" fill="#7FFF52" stroke="#7FFF52" stroke-width="0.5" stroke-miterlimit="10"/>
<path d="M782.873 518.695C782.862 519.545 782.717 520.388 782.445 521.189C782.27 521.373 782.053 521.506 781.815 521.575C781.576 521.645 781.325 521.648 781.085 521.585C780.845 521.523 780.624 521.396 780.445 521.217C780.266 521.038 780.135 520.813 780.063 520.565C780.008 520.209 780.035 519.844 780.143 519.501C780.25 519.158 780.436 518.847 780.682 518.595C781.063 518.246 781.944 518.695 782.873 518.695Z" fill="#7FFF52" stroke="#7FFF52" stroke-width="0.5" stroke-miterlimit="10"/>
<path d="M814.448 590.514C814.736 589.433 815.186 588.406 815.781 587.472C816.162 587.098 817.186 587.472 817.9 587.472C817.82 588.506 817.595 589.523 817.234 590.489C817.067 590.764 815.876 590.514 814.448 590.514Z" fill="#7FFF52" stroke="#7FFF52" stroke-width="0.5" stroke-miterlimit="10"/>
<path d="M893.432 575.851C894.646 576.499 895.646 576.749 896.146 577.422C896.646 578.095 895.956 578.868 895.837 579.642C894.937 579.498 894.073 579.177 893.289 578.694C892.979 578.544 893.336 577.272 893.432 575.851Z" fill="#7FFF52" stroke="#7FFF52" stroke-width="0.5" stroke-miterlimit="10"/>
<path d="M673.887 499.244C673.22 499.593 672.434 500.341 671.91 500.167C671.097 499.776 670.398 499.164 669.886 498.396C669.886 498.246 670.267 497.249 670.529 497.199C671.209 497.08 671.908 497.184 672.529 497.498C673.127 497.985 673.649 498.565 674.077 499.219L673.887 499.244Z" fill="#7FFF52" stroke="#7FFF52" stroke-width="0.5" stroke-miterlimit="10"/>
<path d="M603.428 450.965C604.445 451.287 605.421 451.739 606.333 452.312C606.523 452.487 606.094 454.008 605.642 454.232C605.303 454.328 604.948 454.344 604.602 454.28C604.256 454.215 603.928 454.071 603.642 453.858C603.213 453.509 603.451 452.487 603.428 450.965Z" fill="#7FFF52" stroke="#7FFF52" stroke-width="0.5" stroke-miterlimit="10"/>
<path d="M484.13 566.076C483.582 567.048 483.201 568.245 482.82 568.245C481.939 568.245 480.439 567.971 480.249 567.347C479.725 566.101 480.868 565.402 481.963 565.353C482.721 565.456 483.455 565.701 484.13 566.076Z" fill="#7FFF52" stroke="#7FFF52" stroke-width="0.5" stroke-miterlimit="10"/>
<path d="M757.418 426.427L760.133 427.375C759.895 428.073 759.823 429.095 759.347 429.419C759.021 429.525 758.675 429.541 758.342 429.467C758.009 429.392 757.699 429.23 757.442 428.996C757.109 428.497 757.395 427.549 757.418 426.427Z" fill="#7FFF52" stroke="#7FFF52" stroke-width="0.5" stroke-miterlimit="10"/>
<path d="M453.032 752.556C453.389 751.634 453.484 750.636 453.889 750.462C454.294 750.287 455.199 750.711 455.865 750.886C455.627 751.584 455.603 752.507 455.151 752.906C454.699 753.305 453.937 752.731 453.032 752.556Z" fill="#7FFF52" stroke="#7FFF52" stroke-width="0.5" stroke-miterlimit="10"/>
<path d="M639.002 277.228C639.622 277.651 640.479 277.901 640.717 278.449C640.955 278.998 640.122 279.597 639.788 280.17C639.27 279.67 638.8 279.119 638.383 278.524C638.264 278.325 638.717 277.776 639.002 277.228Z" fill="#7FFF52" stroke="#7FFF52" stroke-width="0.5" stroke-miterlimit="10"/>
<path d="M620.81 600.339C621.318 599.54 621.891 598.789 622.525 598.095C622.739 597.896 623.358 598.095 623.787 598.095C623.382 598.968 623.001 599.891 622.525 600.713C621.942 600.65 621.368 600.524 620.81 600.339Z" fill="#7FFF52" stroke="#7FFF52" stroke-width="0.5" stroke-miterlimit="10"/>
<path d="M987.75 438.896V436.776L989.869 437.349L989.203 439.544L987.75 438.896Z" fill="#7FFF52" stroke="#7FFF52" stroke-width="0.5" stroke-miterlimit="10"/>
<path d="M950.651 506.451H952.198C952.231 507.101 952.15 507.751 951.96 508.371C951.96 508.62 951.056 508.52 950.556 508.57L950.651 506.451Z" fill="#7FFF52" stroke="#7FFF52" stroke-width="0.5" stroke-miterlimit="10"/>
<path d="M239.988 744.951L240.582 745.126L240.558 744.626L239.988 744.951Z" fill="white" stroke="#7FFF52" stroke-width="0.5" stroke-miterlimit="10"/>
<path d="M727.963 629.466L725.701 632.808C724.802 631.935 724.003 630.956 723.32 629.89C723.201 629.641 724.391 628.319 725.153 628.045C725.417 627.869 725.719 627.766 726.031 627.747C726.344 627.728 726.655 627.792 726.937 627.935C727.218 628.077 727.461 628.293 727.64 628.561C727.82 628.829 727.931 629.141 727.963 629.466Z" fill="#7FFF52" stroke="#7FFF52" stroke-width="0.5" stroke-miterlimit="10"/>
<path d="M638.812 684.752C639.788 684.079 640.693 683.231 640.883 683.381C641.853 684.143 642.712 685.051 643.431 686.074C643.498 686.325 643.503 686.589 643.445 686.843C643.386 687.096 643.267 687.329 643.098 687.52C642.887 687.67 642.643 687.763 642.39 687.789C642.136 687.815 641.88 687.774 641.645 687.67C640.653 686.75 639.707 685.776 638.812 684.752Z" fill="#7FFF52" stroke="#7FFF52" stroke-width="0.5" stroke-miterlimit="10"/>
<path d="M548.136 637.022C547.303 638.493 546.946 639.865 546.303 640.015C545.837 640.041 545.372 639.94 544.955 639.721C544.537 639.503 544.181 639.174 543.922 638.768C543.89 638.292 543.971 637.815 544.158 637.38C544.345 636.945 544.632 636.565 544.993 636.274C545.517 635.9 546.66 636.598 548.136 637.022Z" fill="#7FFF52" stroke="#7FFF52" stroke-width="0.5" stroke-miterlimit="10"/>
<path d="M154.622 481.738C155.742 482.885 156.599 483.434 156.885 484.232C157.004 484.606 156.075 485.952 155.622 485.927C154.682 485.758 153.778 485.412 152.956 484.905L154.622 481.738Z" fill="#7FFF52" stroke="#7FFF52" stroke-width="0.5" stroke-miterlimit="10"/>
<path d="M565.543 236.754C565.662 237.926 565.805 238.999 565.876 240.096C565.841 240.21 565.779 240.313 565.695 240.396C565.612 240.479 565.511 240.538 565.4 240.57C564.924 240.57 564.091 240.57 564.067 240.345C563.995 239.066 563.995 237.784 564.067 236.505C564.067 236.33 564.543 235.956 564.638 236.006C564.957 236.232 565.259 236.482 565.543 236.754Z" fill="#7FFF52" stroke="#7FFF52" stroke-width="0.5" stroke-miterlimit="10"/>
<path d="M230.415 178.276C229.43 178.865 228.373 179.31 227.272 179.598C226.963 179.598 226.106 178.301 226.272 178.002C226.449 177.672 226.695 177.388 226.992 177.171C227.289 176.955 227.629 176.813 227.987 176.755C228.534 176.73 229.13 177.454 230.415 178.276Z" fill="#7FFF52" stroke="#7FFF52" stroke-width="0.5" stroke-miterlimit="10"/>
<path d="M404.384 256.205C404.884 255.183 405.075 254.31 405.599 253.861C406.575 253.063 408.17 254.061 408.242 255.582C408.242 256.18 407.504 257.328 407.17 257.303C406.197 257.074 405.26 256.705 404.384 256.205Z" fill="#7FFF52" stroke="#7FFF52" stroke-width="0.5" stroke-miterlimit="10"/>
<path d="M445.317 627.271C446.436 628.394 447.317 628.942 447.698 629.765C448.079 630.588 447.032 631.536 446.603 631.536C445.703 631.423 444.831 631.135 444.031 630.688L445.317 627.271Z" fill="#7FFF52" stroke="#7FFF52" stroke-width="0.5" stroke-miterlimit="10"/>
<path d="M425.934 523.209C426.744 522.186 427.077 521.388 427.601 521.189C428.887 520.69 429.553 521.638 429.553 522.785C429.553 523.408 428.815 524.605 428.601 524.555C427.656 524.239 426.759 523.786 425.934 523.209Z" fill="#7FFF52" stroke="#7FFF52" stroke-width="0.5" stroke-miterlimit="10"/>
<path d="M268.967 551.637C269.919 552.41 271.015 553.084 270.943 553.283C270.646 554.145 270.106 554.893 269.395 555.428C269.11 555.627 267.657 554.704 267.705 554.455C268.011 553.464 268.435 552.518 268.967 551.637Z" fill="#7FFF52" stroke="#7FFF52" stroke-width="0.5" stroke-miterlimit="10"/>
<path d="M350.784 602.609C351.57 603.756 352.451 604.529 352.308 604.953C351.892 605.826 351.327 606.612 350.641 607.272C350.189 606.674 349.308 606.05 349.379 605.502C349.697 604.465 350.171 603.488 350.784 602.609Z" fill="#7FFF52" stroke="#7FFF52" stroke-width="0.5" stroke-miterlimit="10"/>
<path d="M610.595 169.823C611.305 169.798 612.013 169.899 612.69 170.122C613.177 170.527 613.507 171.103 613.619 171.743C613.619 171.917 612.881 172.541 612.476 172.541C611.745 172.548 611.021 172.386 610.357 172.067C610.14 171.954 609.952 171.788 609.807 171.585C609.662 171.381 609.565 171.145 609.523 170.895C609.523 170.571 610.143 170.246 610.595 169.823Z" fill="#7FFF52" stroke="#7FFF52" stroke-width="0.5" stroke-miterlimit="10"/>
<path d="M615.357 417.475C615.517 416.59 615.832 415.745 616.286 414.981C616.953 414.283 618.548 415.28 618.477 416.477C618.424 416.849 618.292 417.204 618.09 417.515C617.888 417.826 617.621 418.085 617.31 418.273C616.881 418.547 616.119 417.849 615.357 417.475Z" fill="#7FFF52" stroke="#7FFF52" stroke-width="0.5" stroke-miterlimit="10"/>
<path d="M487.273 278.524C487.273 278.025 487.273 277.352 487.559 277.053C488.274 276.255 489.94 277.053 490.464 278.574C490.522 278.824 490.525 279.084 490.471 279.335C490.417 279.586 490.309 279.82 490.155 280.02C489.345 280.893 487.893 280.12 487.273 278.524Z" fill="#7FFF52" stroke="#7FFF52" stroke-width="0.5" stroke-miterlimit="10"/>
<path d="M301.827 402.313C302.414 401.445 303.111 400.665 303.899 399.994C304.089 399.844 305.327 400.792 305.399 401.34C305.398 401.722 305.306 402.098 305.131 402.433C304.957 402.768 304.705 403.053 304.399 403.26C303.899 403.46 303.089 402.812 301.827 402.313Z" fill="#7FFF52" stroke="#7FFF52" stroke-width="0.5" stroke-miterlimit="10"/>
<path d="M324.472 248.35L326.449 248.649C325.734 249.622 325.02 250.619 324.258 251.542C323.889 251.371 323.55 251.135 323.258 250.844C323.619 249.99 324.024 249.158 324.472 248.35Z" fill="#7FFF52" stroke="#7FFF52" stroke-width="0.5" stroke-miterlimit="10"/>
<path d="M663.171 304.683C663.748 304.094 664.387 303.575 665.076 303.137C665.433 303.137 665.981 303.436 666.434 303.636C666.124 304.284 665.981 305.232 665.505 305.506C665.029 305.781 664.243 305.132 663.171 304.683Z" fill="#7FFF52" stroke="#7FFF52" stroke-width="0.5" stroke-miterlimit="10"/>
<path d="M127.12 359.096C127.524 358.124 127.644 357.201 128.12 356.902C128.596 356.603 129.834 356.553 130.12 356.902C130.302 357.09 130.433 357.326 130.496 357.586C130.56 357.845 130.555 358.118 130.481 358.375C130.408 358.631 130.269 358.862 130.079 359.042C129.89 359.222 129.657 359.344 129.406 359.396C128.858 359.47 128.12 359.096 127.12 359.096Z" fill="#7FFF52" stroke="#7FFF52" stroke-width="0.5" stroke-miterlimit="10"/>
<path d="M215.628 296.554L217.628 297.776C217.104 298.599 216.723 299.771 216.009 300.095C215.295 300.419 214.556 299.272 213.794 298.773L215.628 296.554Z" fill="#7FFF52" stroke="#7FFF52" stroke-width="0.5" stroke-miterlimit="10"/>
<path d="M516.681 454.881C516.438 455.667 516.076 456.408 515.609 457.075C514.847 457.773 513.371 456.9 513.442 455.778C513.496 455.42 513.624 455.077 513.818 454.776C514.011 454.474 514.265 454.221 514.562 454.033C515.062 453.858 515.824 454.506 516.681 454.881Z" fill="#7FFF52" stroke="#7FFF52" stroke-width="0.5" stroke-miterlimit="10"/>
<path d="M527.777 533.034C528.658 531.912 529.111 530.939 529.873 530.54C530.635 530.141 531.23 530.889 531.921 531.114C531.557 532.077 531.068 532.983 530.468 533.807C530.206 534.056 529.135 533.433 527.777 533.034Z" fill="#7FFF52" stroke="#7FFF52" stroke-width="0.5" stroke-miterlimit="10"/>
<path d="M607.499 542.136C608.499 543.133 609.404 543.657 609.714 544.43C610.023 545.203 609.142 545.802 608.809 546.5C607.991 546.093 607.249 545.535 606.618 544.854C606.38 544.48 607.023 543.483 607.499 542.136Z" fill="#7FFF52" stroke="#7FFF52" stroke-width="0.5" stroke-miterlimit="10"/>
<path d="M417.266 404.183C416.528 404.183 415.576 404.782 415.123 404.482C414.449 403.86 413.947 403.059 413.671 402.163C413.671 402.013 414.338 401.166 414.6 401.215C415.283 401.297 415.925 401.602 416.433 402.088C416.868 402.732 417.212 403.437 417.457 404.183H417.266Z" fill="#7FFF52" stroke="#7FFF52" stroke-width="0.5" stroke-miterlimit="10"/>
<path d="M362.547 337.152C363.432 337.748 364.233 338.469 364.928 339.296C365.071 339.496 364.237 340.842 363.737 340.942C363.37 340.935 363.009 340.84 362.682 340.662C362.356 340.485 362.073 340.231 361.856 339.92C361.69 339.521 362.19 338.623 362.547 337.152Z" fill="#7FFF52" stroke="#7FFF52" stroke-width="0.5" stroke-miterlimit="10"/>
<path d="M217.248 412.562C216.462 413.335 215.795 414.382 215.414 414.258C214.557 414.033 213.247 413.31 213.176 412.662C213.009 411.29 214.295 410.966 215.366 411.215C215.986 411.465 216.486 411.988 217.248 412.562Z" fill="#7FFF52" stroke="#7FFF52" stroke-width="0.5" stroke-miterlimit="10"/>
<path d="M516.919 358.847L519.3 360.543C518.872 361.141 518.562 362.089 517.991 362.264C517.651 362.276 517.315 362.193 517.017 362.022C516.72 361.85 516.472 361.598 516.3 361.291C516.11 360.693 516.633 359.845 516.919 358.847Z" fill="#7FFF52" stroke="#7FFF52" stroke-width="0.5" stroke-miterlimit="10"/>
<path d="M137.478 582.485C138.049 581.711 138.406 580.764 138.859 580.714C139.311 580.664 140.025 581.362 140.621 581.711C140.24 582.31 139.954 583.183 139.406 583.432C138.859 583.682 138.311 582.933 137.478 582.485Z" fill="#7FFF52" stroke="#7FFF52" stroke-width="0.5" stroke-miterlimit="10"/>
<path d="M298.85 677.944C299.708 678.568 300.589 678.892 300.684 679.366C300.779 679.84 300.255 680.613 299.993 681.261C299.374 680.962 298.493 680.812 298.255 680.313C298.017 679.815 298.517 679.042 298.85 677.944Z" fill="#7FFF52" stroke="#7FFF52" stroke-width="0.5" stroke-miterlimit="10"/>
<path d="M500.084 732.831L501.37 733.729L500.084 735.225C499.798 734.851 499.227 734.452 499.274 734.103C499.322 733.754 499.798 733.155 500.084 732.831Z" fill="#7FFF52" stroke="#7FFF52" stroke-width="0.5" stroke-miterlimit="10"/>
<path d="M443.198 180.795C443.698 181.393 444.436 181.892 444.507 182.491C444.579 183.089 443.65 183.388 443.174 183.862C442.81 183.23 442.507 182.562 442.269 181.867C442.198 181.643 442.793 181.244 443.198 180.795Z" fill="#7FFF52" stroke="#7FFF52" stroke-width="0.5" stroke-miterlimit="10"/>
<path d="M339.331 485.603C340.039 485.001 340.787 484.451 341.569 483.957C341.831 483.957 342.355 484.281 342.759 484.481C342.162 485.223 341.526 485.931 340.855 486.601C340.855 486.601 340.116 486.276 339.331 485.603Z" fill="#7FFF52" stroke="#7FFF52" stroke-width="0.5" stroke-miterlimit="10"/>
<path d="M390.502 707.096L392.24 707.919L390.954 709.714L389.168 708.318L390.502 707.096Z" fill="#7FFF52" stroke="#7FFF52" stroke-width="0.5" stroke-miterlimit="10"/>
<path d="M734.607 438.347L735.25 436.327L737.131 437.499L735.893 439.419L734.607 438.347Z" fill="#7FFF52" stroke="#7FFF52" stroke-width="0.5" stroke-miterlimit="10"/>
<path d="M213.509 626.549L214.199 625.551C214.477 625.829 214.724 626.139 214.936 626.474C214.936 626.474 214.651 627.047 214.556 627.023C214.191 626.906 213.84 626.747 213.509 626.549Z" fill="#7FFF52" stroke="#7FFF52" stroke-width="0.5" stroke-miterlimit="10"/>
<path d="M681.007 492.311L682.507 492.785C682.356 493.426 682.098 494.034 681.745 494.581C681.578 494.78 680.84 494.456 680.34 494.356L681.007 492.311Z" fill="#7FFF52" stroke="#7FFF52" stroke-width="0.5" stroke-miterlimit="10"/>
<path d="M461.033 517.473L458.39 520.515C457.634 519.531 456.987 518.46 456.461 517.323C456.461 517.049 457.699 515.877 458.509 515.702C459.318 515.528 460.628 515.378 461.033 517.473Z" fill="#7FFF52" stroke="#7FFF52" stroke-width="0.5" stroke-miterlimit="10"/>
<path d="M366.047 560.839C367.095 560.315 368.095 559.567 368.286 559.742C369.154 560.629 369.892 561.646 370.476 562.759C370.643 563.058 370.31 563.931 369.976 564.156C369.752 564.278 369.503 564.342 369.25 564.342C368.997 564.342 368.748 564.278 368.524 564.156C367.69 563.183 367 562.111 366.047 560.839Z" fill="#7FFF52" stroke="#7FFF52" stroke-width="0.5" stroke-miterlimit="10"/>
<path d="M281.682 501.788C280.682 503.134 280.158 504.456 279.515 504.531C279.05 504.494 278.603 504.332 278.215 504.061C277.827 503.791 277.512 503.42 277.301 502.984C277.303 502.482 277.429 501.988 277.666 501.551C277.904 501.114 278.246 500.749 278.658 500.491C279.23 500.291 280.277 501.239 281.682 501.788Z" fill="#7FFF52" stroke="#7FFF52" stroke-width="0.5" stroke-miterlimit="10"/>
<path d="M345.998 106.806C345.998 108.003 345.998 109.075 345.998 110.173C345.998 110.322 345.641 110.597 345.474 110.572C345.307 110.547 344.188 110.322 344.188 110.173C344.228 108.895 344.339 107.621 344.521 106.357C344.521 106.183 345.045 105.883 345.14 105.958C345.456 106.206 345.743 106.491 345.998 106.806Z" fill="#7FFF52" stroke="#7FFF52" stroke-width="0.5" stroke-miterlimit="10"/>
<path d="M20.2522 5.58584C19.2068 6.02749 18.1097 6.32102 16.99 6.45864C16.6805 6.45864 15.9899 5.03722 16.1804 4.73797C16.3973 4.4349 16.6773 4.18757 16.9991 4.01474C17.321 3.8419 17.6761 3.74811 18.0377 3.74048C18.633 3.79035 19.1331 4.56341 20.2522 5.58584Z" fill="#7FFF52" stroke="#7FFF52" stroke-width="0.5" stroke-miterlimit="10"/>
<path d="M183.792 105.31C184.434 104.387 184.72 103.539 185.292 103.165C186.339 102.517 187.816 103.714 187.673 105.21C187.673 105.809 186.72 106.856 186.411 106.781C185.474 106.427 184.592 105.931 183.792 105.31Z" fill="#7FFF52" stroke="#7FFF52" stroke-width="0.5" stroke-miterlimit="10"/>
<path d="M180.791 478.795C181.768 480.042 182.577 480.691 182.768 481.489C182.958 482.287 181.887 483.159 181.482 483.135C180.629 482.879 179.824 482.474 179.101 481.937L180.791 478.795Z" fill="#7FFF52" stroke="#7FFF52" stroke-width="0.5" stroke-miterlimit="10"/>
<path d="M173.814 373.086C174.719 372.189 175.124 371.416 175.696 371.291C177.005 370.967 177.553 371.989 177.434 373.136C177.434 373.76 176.481 374.857 176.267 374.782C175.387 374.322 174.564 373.753 173.814 373.086Z" fill="#7FFF52" stroke="#7FFF52" stroke-width="0.5" stroke-miterlimit="10"/>
<path d="M14.6802 381.041C15.5374 381.939 16.5375 382.762 16.4422 382.936C16.0418 383.754 15.4208 384.431 14.6563 384.882C14.3468 385.031 13.0371 383.934 13.0848 383.71C13.5111 382.756 14.0468 381.86 14.6802 381.041Z" fill="#7FFF52" stroke="#7FFF52" stroke-width="0.5" stroke-miterlimit="10"/>
<path d="M89.8778 442.188C90.5208 443.409 91.3066 444.307 91.1161 444.681C90.7589 445.504 89.854 446.078 89.1873 446.751C88.8063 446.103 88.0205 445.355 88.1396 444.831C88.5818 443.859 89.1685 442.967 89.8778 442.188Z" fill="#7FFF52" stroke="#7FFF52" stroke-width="0.5" stroke-miterlimit="10"/>
<path d="M398.598 46.1836C399.297 46.2626 399.98 46.4561 400.622 46.7571C401.074 47.2074 401.339 47.8252 401.36 48.4778C401.36 48.6773 400.551 49.201 400.146 49.1511C399.416 49.0625 398.715 48.7979 398.098 48.3781C397.895 48.2391 397.726 48.0512 397.606 47.8299C397.486 47.6087 397.418 47.3606 397.408 47.1063C397.432 46.7821 398.098 46.5577 398.598 46.1836Z" fill="#7FFF52" stroke="#7FFF52" stroke-width="0.5" stroke-miterlimit="10"/>
<path d="M374.191 292.589C374.691 291.641 374.881 290.768 375.405 290.32C375.929 289.871 377.62 290.918 377.406 292.09C377.32 292.454 377.152 292.792 376.915 293.074C376.679 293.356 376.382 293.574 376.048 293.711C375.572 293.836 374.905 293.063 374.191 292.589Z" fill="#7FFF52" stroke="#7FFF52" stroke-width="0.5" stroke-miterlimit="10"/>
<path d="M263.418 138.177C263.561 137.678 263.561 137.005 263.871 136.731C264.68 136.058 266.252 137.105 266.585 138.651C266.616 138.903 266.589 139.159 266.506 139.397C266.423 139.636 266.287 139.85 266.109 140.023C265.181 140.771 263.871 139.848 263.418 138.177Z" fill="#7FFF52" stroke="#7FFF52" stroke-width="0.5" stroke-miterlimit="10"/>
<path d="M64.8279 237.103C65.5374 236.321 66.3373 235.634 67.2091 235.059C67.4234 235.059 68.5425 236.056 68.5425 236.605C68.4983 236.983 68.3639 237.343 68.1516 237.653C67.9394 237.962 67.6562 238.211 67.3281 238.375C66.7566 238.5 66.0185 237.777 64.8279 237.103Z" fill="#7FFF52" stroke="#7FFF52" stroke-width="0.5" stroke-miterlimit="10"/>
<path d="M105.427 87.2803L107.332 87.8289C106.499 88.7017 105.713 89.5994 104.951 90.3226C104.605 90.0974 104.292 89.8201 104.022 89.4997C104.455 88.7359 104.924 87.9951 105.427 87.2803Z" fill="#7FFF52" stroke="#7FFF52" stroke-width="0.5" stroke-miterlimit="10"/>
<path d="M434.84 186.805C435.475 186.276 436.181 185.847 436.935 185.533C437.292 185.533 437.769 185.932 438.197 186.182C437.816 186.78 437.578 187.703 437.054 187.927C436.53 188.152 435.911 187.404 434.84 186.805Z" fill="#7FFF52" stroke="#7FFF52" stroke-width="0.5" stroke-miterlimit="10"/>
<path d="M271.896 316.977C271.348 317.825 271.086 318.648 270.562 319.022C270.329 319.132 270.073 319.174 269.819 319.144C269.565 319.115 269.324 319.015 269.12 318.854C268.916 318.694 268.756 318.479 268.658 318.232C268.56 317.986 268.527 317.716 268.562 317.451C268.647 317.096 268.812 316.768 269.045 316.494C269.277 316.221 269.569 316.01 269.895 315.88C270.395 315.78 271.062 316.479 271.896 316.977Z" fill="#7FFF52" stroke="#7FFF52" stroke-width="0.5" stroke-miterlimit="10"/>
<path d="M273.705 395.954C274.705 394.956 275.277 394.058 276.086 393.734C276.896 393.41 277.372 394.258 278.039 394.557C277.563 395.469 276.971 396.308 276.277 397.051C276.015 397.3 275.039 396.502 273.705 395.954Z" fill="#7FFF52" stroke="#7FFF52" stroke-width="0.5" stroke-miterlimit="10"/>
<path d="M351.76 415.28C352.618 416.377 353.475 417.026 353.665 417.774C353.856 418.522 352.951 419.046 352.522 419.694C351.761 419.18 351.092 418.53 350.546 417.774C350.356 417.45 351.237 416.452 351.76 415.28Z" fill="#7FFF52" stroke="#7FFF52" stroke-width="0.5" stroke-miterlimit="10"/>
<path d="M179.196 253.836C178.434 253.836 177.434 254.235 177.029 253.836C176.429 253.133 176.025 252.27 175.862 251.343C175.862 251.168 176.624 250.445 176.886 250.52C177.558 250.677 178.16 251.063 178.601 251.617C178.958 252.307 179.223 253.045 179.386 253.811L179.196 253.836Z" fill="#7FFF52" stroke="#7FFF52" stroke-width="0.5" stroke-miterlimit="10"/>
<path d="M132.763 180.271C133.602 180.983 134.332 181.824 134.93 182.765C134.93 182.99 134.073 184.212 133.573 184.236C133.207 184.186 132.857 184.047 132.551 183.831C132.245 183.614 131.992 183.326 131.81 182.99C131.62 182.516 132.168 181.668 132.763 180.271Z" fill="#7FFF52" stroke="#7FFF52" stroke-width="0.5" stroke-miterlimit="10"/>
<path d="M283.421 221.692L285.564 223.687C285.064 224.236 284.635 225.133 284.064 225.233C283.726 225.202 283.402 225.077 283.126 224.871C282.849 224.665 282.631 224.385 282.492 224.061C282.373 223.438 282.992 222.665 283.421 221.692Z" fill="#7FFF52" stroke="#7FFF52" stroke-width="0.5" stroke-miterlimit="10"/>
<path d="M29.4673 510.266C30.2531 510.989 31.0627 511.413 31.1103 511.887C31.158 512.361 30.5389 513.084 30.2055 513.683C29.634 513.308 28.753 513.059 28.5863 512.535C28.4196 512.012 29.0149 511.214 29.4673 510.266Z" fill="#7FFF52" stroke="#7FFF52" stroke-width="0.5" stroke-miterlimit="10"/>
<path d="M222.653 590.689L223.796 591.711L222.367 593.058C222.105 592.634 221.605 592.185 221.676 591.836C221.748 591.487 222.391 591.013 222.653 590.689Z" fill="#7FFF52" stroke="#7FFF52" stroke-width="0.5" stroke-miterlimit="10"/>
<path d="M231.177 35.5105C231.606 36.1589 232.273 36.7574 232.296 37.3559C232.32 37.9543 231.32 38.1538 230.796 38.5528C230.507 37.8715 230.283 37.1614 230.13 36.4332C230.106 36.2337 230.725 35.9095 231.177 35.5105Z" fill="#7FFF52" stroke="#7FFF52" stroke-width="0.5" stroke-miterlimit="10"/>
<path d="M92.2114 324.608C92.9622 324.081 93.7596 323.63 94.5926 323.262C94.8783 323.262 95.3308 323.686 95.7118 323.91C95.0212 324.534 94.3307 325.207 93.5687 325.78C93.4973 325.83 92.9734 325.282 92.2114 324.608Z" fill="#7FFF52" stroke="#7FFF52" stroke-width="0.5" stroke-miterlimit="10"/>
<path d="M117 551.113L118.643 552.136L117.166 553.757L115.547 552.136L117 551.113Z" fill="#7FFF52" stroke="#7FFF52" stroke-width="0.5" stroke-miterlimit="10"/>
<path d="M490.202 328.673L491.059 326.778L492.798 328.149L491.345 329.92L490.202 328.673Z" fill="#7FFF52" stroke="#7FFF52" stroke-width="0.5" stroke-miterlimit="10"/>
<path d="M430.553 375.306L431.982 375.979C431.756 376.588 431.434 377.153 431.03 377.65C430.815 377.849 430.125 377.4 429.672 377.251L430.553 375.306Z" fill="#7FFF52" stroke="#7FFF52" stroke-width="0.5" stroke-miterlimit="10"/>
</svg>
