<svg width="20" height="16" viewBox="0 0 20 16" fill="none" xmlns="http://www.w3.org/2000/svg">
<path d="M15 0.5H5C3.67392 0.5 2.40215 1.07467 1.46447 2.0976C0.526784 3.12052 0 4.50791 0 5.95455L0 14.1364C0 14.498 0.131696 14.8449 0.366117 15.1006C0.600537 15.3563 0.918479 15.5 1.25 15.5H18.75C19.0815 15.5 19.3995 15.3563 19.6339 15.1006C19.8683 14.8449 20 14.498 20 14.1364V5.95455C20 4.50791 19.4732 3.12052 18.5355 2.0976C17.5979 1.07467 16.3261 0.5 15 0.5ZM10 5.95455C10.0008 5.18056 9.8503 4.41529 9.55844 3.70984C9.26658 3.00438 8.8401 2.37497 8.3075 1.86364H15C15.9946 1.86364 16.9484 2.29464 17.6517 3.06184C18.3549 3.82903 18.75 4.86957 18.75 5.95455V14.1364H10V5.95455ZM5.73125 6.16864C5.525 6.07318 5.2725 5.95455 5 5.95455C4.7275 5.95455 4.475 6.07182 4.26875 6.16864C3.955 6.31455 3.75 6.41 3.75 5.95455C3.75 5.59289 3.8817 5.24604 4.11612 4.99031C4.35054 4.73458 4.66848 4.59091 5 4.59091C5.33152 4.59091 5.64946 4.73458 5.88388 4.99031C6.1183 5.24604 6.25 5.59289 6.25 5.95455C6.25 6.41 6.045 6.31455 5.73125 6.16864Z" fill="#D4D4D4"/>
</svg>
