<svg width="20" height="10" viewBox="0 0 20 10" fill="none" xmlns="http://www.w3.org/2000/svg">
<path d="M4.51541 9.5C3.70721 9.49983 2.91387 9.28358 2.21813 8.87381C1.5224 8.46404 0.949774 7.87575 0.559985 7.17033C0.170197 6.4649 -0.0224694 5.66818 0.00208541 4.86328C0.0266402 4.05838 0.267516 3.27479 0.699585 2.59426C1.13165 1.91372 1.73909 1.36118 2.45851 0.994264C3.17794 0.62735 3.983 0.459509 4.78972 0.508253C5.59643 0.556996 6.37524 0.820537 7.04489 1.27138C7.71455 1.72223 8.25052 2.34386 8.59689 3.07143H18.0644L20 5L18.0644 6.92857L16.774 5.64286L15.4837 6.92857L14.1933 5.64286L12.9029 6.92857L11.6125 5.64286L10.3221 6.92857H8.59689C8.23054 7.69811 7.65253 8.34825 6.93003 8.80344C6.20753 9.25863 5.37022 9.50018 4.51541 9.5ZM3.22502 6.28572C3.56726 6.28572 3.89547 6.15026 4.13746 5.90914C4.37946 5.66802 4.51541 5.34099 4.51541 5C4.51541 4.65901 4.37946 4.33198 4.13746 4.09086C3.89547 3.84975 3.56726 3.71429 3.22502 3.71429C2.88279 3.71429 2.55458 3.84975 2.31259 4.09086C2.07059 4.33198 1.93464 4.65901 1.93464 5C1.93464 5.34099 2.07059 5.66802 2.31259 5.90914C2.55458 6.15026 2.88279 6.28572 3.22502 6.28572Z" fill="#D4D4D4"/>
</svg>
