<svg width="720" height="1024" viewBox="0 0 720 1024" fill="none" xmlns="http://www.w3.org/2000/svg">
<g clip-path="url(#clip0_47_624)">
<rect width="720" height="1024" fill="black"/>
<path d="M697.452 333.487L698.035 333.416L697.841 332.992L697.452 333.487Z" fill="white" stroke="#7FFF52" stroke-width="3" stroke-miterlimit="10"/>
<path d="M542.755 132.516C544.053 133.127 544.917 133.315 545.436 133.903C545.509 134.249 545.5 134.61 545.409 134.952C545.319 135.293 545.149 135.604 544.918 135.854C544.059 136.02 543.181 136.02 542.323 135.854L542.755 132.516Z" fill="#7FFF52" stroke="#7FFF52" stroke-width="3" stroke-miterlimit="10"/>
<path d="M661.389 153.182C662.448 153.535 663.551 153.746 663.551 153.934C663.553 154.767 663.336 155.583 662.924 156.285C662.751 156.544 661.237 156.285 661.194 156.027C661.157 155.073 661.222 154.119 661.389 153.182Z" fill="#7FFF52" stroke="#7FFF52" stroke-width="3" stroke-miterlimit="10"/>
<path d="M642.514 10.1893C642.746 9.22237 643.087 8.29049 643.53 7.41508C643.66 7.22699 645 7.62667 645.238 8.07337C645.363 8.40916 645.405 8.77482 645.36 9.13379C645.314 9.49276 645.183 9.83242 644.979 10.1188C644.633 10.4715 643.746 10.1893 642.514 10.1893Z" fill="#7FFF52" stroke="#7FFF52" stroke-width="3" stroke-miterlimit="10"/>
<path d="M481.006 34.4056C481.006 33.3946 480.877 32.5482 481.179 32.0545C481.482 31.5608 482.541 31.1376 482.887 31.3727C483.081 31.4807 483.245 31.6405 483.366 31.8371C483.486 32.0336 483.559 32.2604 483.576 32.4959C483.593 32.7313 483.555 32.9677 483.465 33.1826C483.375 33.3975 483.235 33.5838 483.06 33.7238C482.65 34.241 481.936 34.194 481.006 34.4056Z" fill="#7FFF52" stroke="#7FFF52" stroke-width="3" stroke-miterlimit="10"/>
<path d="M574.127 49.3818C573.695 50.3458 573.457 51.4978 573.089 51.5448C572.29 51.5448 570.927 51.5448 570.69 50.91C570.127 49.758 571.122 49.0292 572.117 48.8646C572.809 48.91 573.489 49.0849 574.127 49.3818Z" fill="#7FFF52" stroke="#7FFF52" stroke-width="3" stroke-miterlimit="10"/>
<path d="M559.771 227.217C560.009 226.324 560.03 225.36 560.376 225.172C560.722 224.984 561.587 225.313 562.193 225.407C562.063 226.089 562.084 226.959 561.717 227.358C561.349 227.758 560.636 227.311 559.771 227.217Z" fill="#7FFF52" stroke="#7FFF52" stroke-width="3" stroke-miterlimit="10"/>
<path d="M700.306 70.0714C700.706 69.2841 701.169 68.5368 701.69 67.8379C701.863 67.6263 702.447 67.8379 702.858 67.8379C702.574 68.7022 702.249 69.5497 701.885 70.3771C701.349 70.3488 700.818 70.2461 700.306 70.0714Z" fill="#7FFF52" stroke="#7FFF52" stroke-width="3" stroke-miterlimit="10"/>
<path d="M637.973 238.832L638.233 237.703C638.551 237.864 638.862 238.045 639.162 238.244C639.181 238.472 639.119 238.699 638.989 238.879C638.65 238.898 638.31 238.882 637.973 238.832Z" fill="#7FFF52" stroke="#7FFF52" stroke-width="3" stroke-miterlimit="10"/>
<path d="M437.549 316.864L438.131 316.794L437.937 316.37L437.549 316.864Z" fill="white" stroke="#7FFF52" stroke-width="3" stroke-miterlimit="10"/>
<path d="M667.378 115.706C667.097 117.281 667.205 118.621 666.707 118.974C666.323 119.157 665.901 119.227 665.484 119.178C665.066 119.128 664.668 118.961 664.329 118.691C664.138 118.274 664.05 117.81 664.073 117.345C664.095 116.879 664.228 116.428 664.459 116.035C664.805 115.541 665.994 115.706 667.378 115.706Z" fill="#7FFF52" stroke="#7FFF52" stroke-width="3" stroke-miterlimit="10"/>
<path d="M285.555 113.472C286.83 114.107 287.717 114.295 288.214 114.906C288.711 115.518 288.041 116.693 287.673 116.834C286.815 116.999 285.937 116.999 285.079 116.834L285.555 113.472Z" fill="#7FFF52" stroke="#7FFF52" stroke-width="3" stroke-miterlimit="10"/>
<path d="M576.916 142.367C578.192 142.955 579.078 143.143 579.576 143.731C579.666 144.065 579.677 144.419 579.609 144.76C579.541 145.101 579.396 145.418 579.187 145.682C578.38 145.85 577.55 145.85 576.743 145.682L576.916 142.367Z" fill="#7FFF52" stroke="#7FFF52" stroke-width="3" stroke-miterlimit="10"/>
<path d="M529.048 56.9288C529.415 55.7768 529.459 54.9304 529.848 54.5777C530.778 53.7078 531.642 54.3191 532.01 55.3301C532.204 55.8708 532.01 57.1874 531.729 57.2345C530.827 57.2546 529.926 57.1519 529.048 56.9288Z" fill="#7FFF52" stroke="#7FFF52" stroke-width="3" stroke-miterlimit="10"/>
<path d="M403.972 136.019C405.009 136.372 406.134 136.583 406.134 136.795C406.127 137.633 405.894 138.451 405.463 139.146C405.29 139.405 403.777 139.146 403.755 138.864C403.717 137.909 403.79 136.954 403.972 136.019Z" fill="#7FFF52" stroke="#7FFF52" stroke-width="3" stroke-miterlimit="10"/>
<path d="M488.985 152.994C490.001 153.723 490.974 154.122 490.995 154.546C490.898 155.464 490.649 156.356 490.26 157.179C489.698 156.803 488.768 156.544 488.66 156.05C488.608 155.019 488.718 153.985 488.985 152.994Z" fill="#7FFF52" stroke="#7FFF52" stroke-width="3" stroke-miterlimit="10"/>
<path d="M225.124 14.3979C225.124 13.3869 225.016 12.5405 225.319 12.0468C225.622 11.5531 226.681 11.1534 227.049 11.365C227.239 11.4773 227.4 11.6406 227.517 11.8394C227.633 12.0383 227.701 12.2661 227.714 12.5013C227.727 12.7366 227.685 12.9716 227.591 13.1841C227.497 13.3967 227.355 13.5797 227.178 13.716C226.811 14.2333 226.032 14.1863 225.124 14.3979Z" fill="#7FFF52" stroke="#7FFF52" stroke-width="3" stroke-miterlimit="10"/>
<path d="M618.688 30.7379C618.879 29.7018 619.23 28.7083 619.725 27.799C620.028 27.4229 620.979 27.6345 621.628 27.5875C621.618 28.5677 621.479 29.5414 621.217 30.4793C621.087 30.8084 619.985 30.6439 618.688 30.7379Z" fill="#7FFF52" stroke="#7FFF52" stroke-width="3" stroke-miterlimit="10"/>
<path d="M689.323 11.4355C690.243 11.6899 691.114 12.1197 691.896 12.7051C692.198 13.0578 691.896 14.0923 691.744 14.8211C690.926 14.7435 690.127 14.5045 689.388 14.1158C689.063 13.8807 689.323 12.7757 689.323 11.4355Z" fill="#7FFF52" stroke="#7FFF52" stroke-width="3" stroke-miterlimit="10"/>
<path d="M318.029 30.8319C317.575 31.7958 317.315 32.9243 316.969 32.9714C316.169 32.9714 314.807 32.8538 314.569 32.3131C314.029 31.161 315.024 30.4322 316.018 30.2911C316.71 30.3577 317.388 30.5401 318.029 30.8319Z" fill="#7FFF52" stroke="#7FFF52" stroke-width="3" stroke-miterlimit="10"/>
<path d="M301.338 208.432C301.575 207.539 301.597 206.575 301.965 206.387C302.332 206.199 303.154 206.551 303.781 206.669C303.629 207.327 303.651 208.197 303.262 208.597C302.873 208.996 302.159 208.526 301.338 208.432Z" fill="#7FFF52" stroke="#7FFF52" stroke-width="3" stroke-miterlimit="10"/>
<path d="M467.472 237.421C468.401 237.68 469.223 237.656 469.439 238.056C469.656 238.455 469.439 239.302 469.439 239.96C468.834 239.96 468.034 239.96 467.688 239.725C467.342 239.49 467.537 238.502 467.472 237.421Z" fill="#7FFF52" stroke="#7FFF52" stroke-width="3" stroke-miterlimit="10"/>
<path d="M655.357 216.802L656.697 217.131L656.07 218.894C655.702 218.683 655.119 218.518 655.032 218.213C654.946 217.907 655.227 217.343 655.357 216.802Z" fill="#7FFF52" stroke="#7FFF52" stroke-width="3" stroke-miterlimit="10"/>
<path d="M443.927 53.5198C444.333 52.7388 444.804 51.9991 445.332 51.3097C445.505 51.0981 446.089 51.3097 446.5 51.3097C446.207 52.1737 445.875 53.0212 445.505 53.8489C444.969 53.8071 444.439 53.6966 443.927 53.5198Z" fill="#7FFF52" stroke="#7FFF52" stroke-width="3" stroke-miterlimit="10"/>
<path d="M554.301 231.731H556.009L555.469 233.777L553.523 233.142L554.301 231.731Z" fill="#7FFF52" stroke="#7FFF52" stroke-width="3" stroke-miterlimit="10"/>
<path d="M379.324 221.269C379.324 220.893 379.518 220.517 379.626 220.164C379.946 220.307 380.251 220.488 380.534 220.705C380.553 220.933 380.491 221.16 380.361 221.34C380.014 221.351 379.667 221.328 379.324 221.269Z" fill="#7FFF52" stroke="#7FFF52" stroke-width="3" stroke-miterlimit="10"/>
<path d="M162.662 276.167L163.244 276.144L163.093 275.72L162.662 276.167Z" fill="white" stroke="#7FFF52" stroke-width="3" stroke-miterlimit="10"/>
<path d="M559.922 36.5919L558.777 40.2596C557.802 39.7095 556.895 39.0304 556.074 38.2377C555.901 38.0496 556.614 36.5214 557.198 36.0512C557.391 35.8426 557.628 35.6878 557.887 35.6001C558.147 35.5124 558.423 35.4943 558.69 35.5474C558.958 35.6005 559.21 35.7233 559.424 35.9052C559.639 36.087 559.81 36.3227 559.922 36.5919Z" fill="#7FFF52" stroke="#7FFF52" stroke-width="3" stroke-miterlimit="10"/>
<path d="M495.665 111.309C496.336 110.439 496.919 109.405 497.136 109.475C498.161 109.923 499.128 110.516 500.011 111.239C500.119 111.455 500.176 111.698 500.176 111.944C500.176 112.19 500.119 112.433 500.011 112.649C499.864 112.836 499.676 112.979 499.464 113.065C499.252 113.152 499.024 113.178 498.8 113.143C497.724 112.597 496.677 111.985 495.665 111.309Z" fill="#7FFF52" stroke="#7FFF52" stroke-width="3" stroke-miterlimit="10"/>
<path d="M405.031 93.2295C404.642 94.7577 404.663 96.0977 404.166 96.4269C403.766 96.5772 403.337 96.613 402.92 96.5306C402.504 96.4483 402.114 96.2506 401.788 95.9567C401.63 95.5257 401.575 95.0582 401.628 94.5978C401.681 94.1374 401.84 93.6991 402.091 93.3235C402.458 92.8768 403.647 93.2295 405.031 93.2295Z" fill="#7FFF52" stroke="#7FFF52" stroke-width="3" stroke-miterlimit="10"/>
<path d="M24.3103 61.6309C25.5426 62.3597 26.4723 62.6183 26.8831 63.2531C27.2939 63.8879 26.5805 65.0399 26.1913 65.1575C25.3301 65.2562 24.4597 65.1927 23.6184 64.9694L24.3103 61.6309Z" fill="#7FFF52" stroke="#7FFF52" stroke-width="3" stroke-miterlimit="10"/>
<path d="M313.056 112.837C314.288 113.543 315.218 113.778 315.629 114.413C315.698 114.756 315.687 115.112 315.596 115.449C315.505 115.786 315.338 116.092 315.11 116.34C314.303 116.503 313.474 116.503 312.667 116.34L313.056 112.837Z" fill="#7FFF52" stroke="#7FFF52" stroke-width="3" stroke-miterlimit="10"/>
<path d="M270.874 24.0137C271.306 22.8852 271.414 22.0624 271.825 21.6627C272.82 20.8633 273.62 21.5216 273.987 22.5796C274.045 22.9016 274.04 23.2332 273.973 23.553C273.906 23.8729 273.779 24.174 273.598 24.4369C272.677 24.4326 271.76 24.2902 270.874 24.0137Z" fill="#7FFF52" stroke="#7FFF52" stroke-width="3" stroke-miterlimit="10"/>
<path d="M140.954 93.1824C141.971 93.6291 143.117 93.9347 143.117 94.1228C143.065 94.9783 142.779 95.7974 142.295 96.4739C142.1 96.709 140.609 96.2623 140.587 96.0507C140.608 95.0824 140.731 94.1199 140.954 93.1824Z" fill="#7FFF52" stroke="#7FFF52" stroke-width="3" stroke-miterlimit="10"/>
<path d="M224.649 116.67C225.6 117.493 226.551 117.939 226.53 118.386C226.382 119.292 226.082 120.161 225.643 120.949C225.103 120.525 224.173 120.196 224.108 119.703C224.136 118.666 224.318 117.642 224.649 116.67Z" fill="#7FFF52" stroke="#7FFF52" stroke-width="3" stroke-miterlimit="10"/>
<path d="M362.006 4.73502C362.267 3.71534 362.676 2.74721 363.216 1.8667C363.562 1.51404 364.492 1.8667 365.141 1.8667C365.067 2.84193 364.863 3.80027 364.535 4.71148C364.384 4.9701 363.303 4.73502 362.006 4.73502Z" fill="#7FFF52" stroke="#7FFF52" stroke-width="3" stroke-miterlimit="10"/>
<path d="M33.845 157.508C34.1693 156.638 34.2558 155.697 34.6233 155.533C34.9909 155.368 35.8125 155.768 36.4179 155.933C36.2016 156.591 36.18 157.461 35.7692 157.837C35.3584 158.213 34.6666 157.672 33.845 157.508Z" fill="#7FFF52" stroke="#7FFF52" stroke-width="3" stroke-miterlimit="10"/>
<path d="M197.687 199.24C198.595 199.569 199.417 199.616 199.612 200.015C199.806 200.415 199.612 201.261 199.46 201.92C198.877 201.92 198.055 201.92 197.731 201.567C197.406 201.214 197.666 200.345 197.687 199.24Z" fill="#7FFF52" stroke="#7FFF52" stroke-width="3" stroke-miterlimit="10"/>
<path d="M386.437 193.291L387.756 193.738L387.021 195.454C386.675 195.196 386.091 194.984 386.026 194.678C385.962 194.373 386.286 193.691 386.437 193.291Z" fill="#7FFF52" stroke="#7FFF52" stroke-width="3" stroke-miterlimit="10"/>
<path d="M186.185 13.9982C186.646 13.2447 187.167 12.5366 187.742 11.8822C187.936 11.6941 188.499 11.8822 188.888 11.8822C188.52 12.7051 188.174 13.575 187.742 14.3508C187.213 14.2907 186.692 14.1726 186.185 13.9982Z" fill="#7FFF52" stroke="#7FFF52" stroke-width="3" stroke-miterlimit="10"/>
<path d="M284.668 200.344L286.376 200.603L285.706 202.601L283.803 201.802L284.668 200.344Z" fill="#7FFF52" stroke="#7FFF52" stroke-width="3" stroke-miterlimit="10"/>
<path d="M110.815 176.34C110.945 175.964 111.053 175.611 111.182 175.259C111.494 175.421 111.784 175.626 112.047 175.87C112.047 175.87 111.939 176.481 111.852 176.481C111.503 176.469 111.156 176.422 110.815 176.34Z" fill="#7FFF52" stroke="#7FFF52" stroke-width="3" stroke-miterlimit="10"/>
<path d="M283.479 41.4586L281.425 44.6091C280.609 43.7864 279.883 42.8633 279.263 41.8583C279.155 41.6232 280.236 40.3772 280.928 40.1185C281.167 39.9525 281.441 39.8558 281.725 39.8376C282.008 39.8194 282.291 39.8804 282.547 40.0147C282.803 40.149 283.022 40.3522 283.186 40.6049C283.349 40.8576 283.45 41.1515 283.479 41.4586Z" fill="#7FFF52" stroke="#7FFF52" stroke-width="3" stroke-miterlimit="10"/>
<path d="M202.531 93.5821C203.417 92.9473 204.239 92.148 204.412 92.2891C205.293 93.0082 206.072 93.8636 206.725 94.8282C206.786 95.0647 206.79 95.3142 206.737 95.553C206.684 95.7918 206.576 96.0118 206.422 96.1919C206.231 96.3335 206.01 96.4206 205.779 96.4452C205.549 96.4699 205.317 96.4313 205.103 96.3329C204.202 95.4653 203.344 94.5471 202.531 93.5821Z" fill="#7FFF52" stroke="#7FFF52" stroke-width="3" stroke-miterlimit="10"/>
<path d="M120.199 48.5825C119.442 49.9696 119.118 51.2627 118.534 51.4038C118.111 51.4286 117.689 51.3333 117.31 51.1272C116.931 50.9211 116.607 50.6113 116.372 50.2282C116.343 49.7795 116.417 49.33 116.587 48.9198C116.756 48.5096 117.017 48.1514 117.345 47.8772C117.82 47.5245 118.858 48.1828 120.199 48.5825Z" fill="#7FFF52" stroke="#7FFF52" stroke-width="3" stroke-miterlimit="10"/>
<path d="M26.8399 39.3898C27.856 40.4478 28.656 40.965 29.002 41.7408C29.3479 42.5167 28.3966 43.4101 28.0074 43.4101C27.1902 43.3034 26.3984 43.0323 25.6724 42.6108L26.8399 39.3898Z" fill="#7FFF52" stroke="#7FFF52" stroke-width="3" stroke-miterlimit="10"/>
<path d="M76.5677 138.911L77.7352 139.757L76.5677 141.168C76.3083 140.815 75.7894 140.439 75.8326 140.11C75.8759 139.781 76.3083 139.217 76.5677 138.911Z" fill="#7FFF52" stroke="#7FFF52" stroke-width="3" stroke-miterlimit="10"/>
<g clip-path="url(#clip1_47_624)">
<path d="M152.72 692.813C174.341 692.813 191.868 675.276 191.868 653.642C191.868 632.009 174.341 614.472 152.72 614.472C131.099 614.472 113.572 632.009 113.572 653.642C113.572 675.276 131.099 692.813 152.72 692.813Z" stroke="#A157FF" stroke-width="3" stroke-miterlimit="10"/>
<path d="M166.241 677.992C181.508 677.992 193.884 665.609 193.884 650.333C193.884 635.058 181.508 622.675 166.241 622.675C150.974 622.675 138.598 635.058 138.598 650.333C138.598 665.609 150.974 677.992 166.241 677.992Z" fill="#A157FF" stroke="#A157FF" stroke-width="3" stroke-miterlimit="10"/>
<path d="M162.934 680.114C178.784 680.114 191.633 667.258 191.633 651.398C191.633 635.539 178.784 622.683 162.934 622.683C147.084 622.683 134.235 635.539 134.235 651.398C134.235 667.258 147.084 680.114 162.934 680.114Z" stroke="#A157FF" stroke-width="3" stroke-miterlimit="10"/>
<mask id="mask0_47_624" style="mask-type:luminance" maskUnits="userSpaceOnUse" x="203" y="473" width="358" height="189">
<path d="M560.843 572.317L235.884 660.504C229.67 662.195 223.048 661.481 217.336 658.505C211.625 655.529 207.243 650.51 205.064 644.447C202.881 638.384 203.06 631.72 205.566 625.783C208.071 619.845 212.719 615.07 218.585 612.407L525.189 473.179L560.843 572.317Z" fill="white"/>
</mask>
<g mask="url(#mask0_47_624)">
<path d="M223.176 660.301C235.525 660.301 245.537 650.284 245.537 637.927C245.537 625.57 235.525 615.553 223.176 615.553C210.826 615.553 200.814 625.57 200.814 637.927C200.814 650.284 210.826 660.301 223.176 660.301Z" stroke="#A157FF" stroke-width="3" stroke-miterlimit="10"/>
</g>
<path d="M560.843 572.317L235.884 660.504C229.67 662.195 223.048 661.481 217.336 658.505C211.625 655.529 207.243 650.51 205.064 644.447C202.881 638.384 203.06 631.72 205.566 625.783C208.071 619.845 212.719 615.07 218.585 612.407L525.189 473.179L560.843 572.317Z" stroke="#A157FF" stroke-width="3" stroke-miterlimit="10"/>
<path d="M409.962 563.74C405.563 549.345 406.931 533.803 413.777 520.4C420.624 506.996 432.412 496.783 446.649 491.919L515.95 468.252C520.549 466.679 525.413 466.027 530.263 466.335C535.114 466.642 539.857 467.903 544.22 470.045C548.584 472.187 552.483 475.168 555.695 478.818C558.907 482.468 561.368 486.715 562.939 491.317L580.401 542.415C581.459 545.511 581.897 548.785 581.69 552.051C581.483 555.317 580.635 558.509 579.195 561.447C577.755 564.385 575.75 567.01 573.295 569.172C570.841 571.334 567.984 572.991 564.889 574.049L484.83 601.431C453.645 612.089 419.599 595.244 409.962 563.74Z" fill="white"/>
<mask id="mask1_47_624" style="mask-type:luminance" maskUnits="userSpaceOnUse" x="407" y="466" width="175" height="139">
<path d="M409.962 563.74C405.563 549.345 406.931 533.803 413.777 520.4C420.624 506.996 432.412 496.783 446.649 491.919L515.95 468.252C520.549 466.679 525.413 466.027 530.263 466.335C535.114 466.642 539.857 467.903 544.22 470.045C548.584 472.187 552.483 475.168 555.695 478.818C558.907 482.468 561.368 486.715 562.939 491.317L580.401 542.415C581.459 545.511 581.897 548.785 581.69 552.051C581.483 555.317 580.635 558.509 579.195 561.447C577.755 564.385 575.75 567.01 573.295 569.172C570.841 571.334 567.984 572.991 564.889 574.049L484.83 601.431C453.645 612.089 419.599 595.244 409.962 563.74Z" fill="white"/>
</mask>
<g mask="url(#mask1_47_624)">
<path d="M548.07 571.081C576.314 571.081 599.211 548.172 599.211 519.911C599.211 491.65 576.314 468.74 548.07 468.74C519.825 468.74 496.929 491.65 496.929 519.911C496.929 548.172 519.825 571.081 548.07 571.081Z" stroke="#A157FF" stroke-width="3" stroke-miterlimit="10"/>
<path d="M560.64 568.561C588.884 568.561 611.781 545.651 611.781 517.39C611.781 489.13 588.884 466.22 560.64 466.22C532.395 466.22 509.499 489.13 509.499 517.39C509.499 545.651 532.395 568.561 560.64 568.561Z" fill="#A157FF" stroke="#A157FF" stroke-width="3" stroke-miterlimit="10"/>
</g>
<path d="M409.962 563.74C405.563 549.345 406.931 533.803 413.777 520.4C420.624 506.996 432.412 496.783 446.649 491.919L515.95 468.252C520.549 466.679 525.413 466.027 530.263 466.335C535.114 466.642 539.857 467.903 544.22 470.045C548.584 472.187 552.483 475.168 555.695 478.818C558.907 482.468 561.368 486.715 562.939 491.317L580.401 542.415C581.459 545.511 581.897 548.785 581.69 552.051C581.483 555.317 580.635 558.509 579.195 561.447C577.755 564.385 575.75 567.01 573.295 569.172C570.841 571.334 567.984 572.991 564.889 574.049L484.83 601.431C453.645 612.089 419.599 595.244 409.962 563.74Z" stroke="#A157FF" stroke-width="3" stroke-miterlimit="10"/>
<path d="M373.853 626.553H350.631V791.862H373.853V626.553Z" stroke="#A157FF" stroke-width="3" stroke-miterlimit="10"/>
<path d="M389.54 769.572C384.454 764.483 376.207 764.483 371.12 769.572C366.033 774.662 366.033 782.914 371.12 788.003L460.509 877.443C465.596 882.533 473.843 882.533 478.929 877.444C484.016 872.354 484.016 864.102 478.929 859.013L389.54 769.572Z" stroke="#A157FF" stroke-width="3" stroke-miterlimit="10"/>
<path d="M222.524 807.779C215.876 810.529 212.716 818.151 215.466 824.803C218.215 831.454 225.832 834.616 232.48 831.865L349.297 783.521C355.945 780.77 359.105 773.148 356.355 766.497C353.606 759.846 345.989 756.684 339.341 759.435L222.524 807.779Z" stroke="#A157FF" stroke-width="3" stroke-miterlimit="10"/>
<path d="M258.754 866.986C253.667 872.076 253.667 880.327 258.754 885.417C263.84 890.506 272.087 890.506 277.174 885.417L366.563 795.977C371.65 790.887 371.65 782.635 366.563 777.546C361.476 772.456 353.229 772.456 348.143 777.546L258.754 866.986Z" stroke="#A157FF" stroke-width="3" stroke-miterlimit="10"/>
<path d="M235.811 823.463C235.811 816.266 229.979 810.431 222.786 810.431C215.592 810.431 209.761 816.266 209.761 823.463V1037.51C209.761 1044.71 215.592 1050.54 222.786 1050.54C229.979 1050.54 235.811 1044.71 235.811 1037.51V823.463Z" stroke="#A157FF" stroke-width="3" stroke-miterlimit="10"/>
<path d="M483.083 881.943C483.083 874.746 477.252 868.911 470.058 868.911C462.864 868.911 457.033 874.746 457.033 881.943V1095.99C457.033 1103.19 462.864 1109.02 470.058 1109.02C477.252 1109.02 483.083 1103.19 483.083 1095.99V881.943Z" stroke="#A157FF" stroke-width="3" stroke-miterlimit="10"/>
<path d="M279.688 887.699C279.688 880.502 273.856 874.667 266.663 874.667C259.469 874.667 253.638 880.502 253.638 887.699V1101.75C253.638 1108.95 259.469 1114.78 266.663 1114.78C273.856 1114.78 279.688 1108.95 279.688 1101.75V887.699Z" stroke="#A157FF" stroke-width="3" stroke-miterlimit="10"/>
<path d="M365.192 741H360.56C348.897 741 339.442 750.46 339.442 762.13V774.528C339.442 786.198 348.897 795.659 360.56 795.659H365.192C376.855 795.659 386.309 786.198 386.309 774.528V762.13C386.309 750.46 376.855 741 365.192 741Z" fill="#A157FF" stroke="#A157FF" stroke-width="3" stroke-miterlimit="10"/>
<path d="M367.865 611.488C368.341 612.453 369.045 613.288 369.916 613.921C370.786 614.554 371.797 614.966 372.862 615.122C374.086 615.302 375.236 615.82 376.181 616.619C377.127 617.418 377.83 618.466 378.212 619.644C378.594 620.821 378.639 622.083 378.343 623.285C378.046 624.487 377.42 625.582 376.535 626.447C375.765 627.198 375.189 628.124 374.857 629.147C374.524 630.169 374.445 631.257 374.625 632.317C374.833 633.538 374.697 634.793 374.23 635.94C373.763 637.087 372.985 638.081 371.984 638.809C370.982 639.537 369.797 639.971 368.562 640.06C367.328 640.15 366.093 639.893 364.996 639.317C364.046 638.816 362.987 638.555 361.913 638.555C360.838 638.555 359.78 638.816 358.829 639.317C357.733 639.893 356.498 640.15 355.263 640.06C354.029 639.971 352.844 639.537 351.842 638.809C350.841 638.081 350.063 637.087 349.596 635.94C349.129 634.793 348.992 633.538 349.201 632.317C349.381 631.257 349.301 630.169 348.969 629.147C348.636 628.124 348.06 627.198 347.291 626.447C346.405 625.582 345.779 624.486 345.483 623.283C345.187 622.08 345.233 620.819 345.616 619.641C345.999 618.463 346.703 617.415 347.65 616.617C348.596 615.818 349.747 615.301 350.972 615.122C352.035 614.965 353.045 614.552 353.914 613.919C354.782 613.286 355.485 612.452 355.961 611.488C356.509 610.377 357.357 609.442 358.409 608.788C359.461 608.134 360.675 607.787 361.913 607.787C363.151 607.787 364.365 608.134 365.416 608.788C366.468 609.442 367.316 610.377 367.865 611.488Z" fill="white" stroke="#A157FF" stroke-width="3" stroke-miterlimit="10"/>
<path d="M367.865 612.585C368.341 613.551 369.045 614.386 369.916 615.019C370.786 615.652 371.797 616.064 372.862 616.22C374.086 616.399 375.236 616.918 376.181 617.717C377.127 618.516 377.83 619.564 378.212 620.741C378.594 621.919 378.639 623.18 378.343 624.382C378.046 625.585 377.42 626.68 376.535 627.545C375.766 628.296 375.19 629.222 374.858 630.245C374.525 631.267 374.445 632.355 374.625 633.415C374.837 634.636 374.702 635.893 374.236 637.042C373.77 638.191 372.992 639.186 371.99 639.915C370.987 640.644 369.8 641.077 368.564 641.165C367.328 641.254 366.092 640.994 364.996 640.415C364.046 639.914 362.987 639.653 361.913 639.653C360.838 639.653 359.78 639.914 358.829 640.415C357.733 640.994 356.497 641.254 355.261 641.165C354.025 641.077 352.839 640.644 351.836 639.915C350.834 639.186 350.055 638.191 349.589 637.042C349.124 635.893 348.989 634.636 349.201 633.415C349.38 632.355 349.3 631.267 348.968 630.245C348.635 629.222 348.06 628.296 347.291 627.545C346.405 626.679 345.779 625.583 345.483 624.381C345.187 623.178 345.233 621.916 345.616 620.738C345.999 619.56 346.703 618.513 347.65 617.714C348.596 616.916 349.747 616.398 350.972 616.22C352.035 616.063 353.045 615.65 353.914 615.017C354.782 614.384 355.485 613.55 355.961 612.585C356.509 611.475 357.357 610.539 358.409 609.885C359.461 609.232 360.675 608.885 361.913 608.885C363.151 608.885 364.365 609.232 365.416 609.885C366.468 610.539 367.316 611.475 367.865 612.585Z" fill="white" stroke="#A157FF" stroke-width="3" stroke-miterlimit="10"/>
<path d="M361.917 632.415C365.695 632.415 368.758 629.35 368.758 625.569C368.758 621.788 365.695 618.724 361.917 618.724C358.138 618.724 355.075 621.788 355.075 625.569C355.075 629.35 358.138 632.415 361.917 632.415Z" fill="white" stroke="#A157FF" stroke-width="3" stroke-miterlimit="10"/>
<path d="M476.006 855.561C476.483 856.526 477.186 857.361 478.057 857.994C478.927 858.627 479.938 859.039 481.003 859.195C482.228 859.372 483.379 859.888 484.326 860.686C485.273 861.484 485.978 862.531 486.361 863.708C486.744 864.886 486.79 866.147 486.493 867.35C486.197 868.552 485.57 869.648 484.684 870.512C483.911 871.263 483.334 872.19 483.001 873.214C482.668 874.239 482.59 875.329 482.774 876.39C482.983 877.611 482.846 878.866 482.379 880.013C481.912 881.161 481.134 882.154 480.133 882.882C479.131 883.61 477.946 884.044 476.712 884.134C475.477 884.223 474.242 883.966 473.146 883.39C472.193 882.89 471.134 882.628 470.058 882.628C468.982 882.628 467.923 882.89 466.97 883.39C465.874 883.967 464.637 884.224 463.402 884.134C462.166 884.044 460.981 883.61 459.979 882.881C458.977 882.152 458.199 881.157 457.733 880.008C457.267 878.86 457.131 877.604 457.342 876.382C457.526 875.321 457.448 874.231 457.115 873.206C456.782 872.182 456.205 871.254 455.432 870.504C454.546 869.64 453.919 868.544 453.623 867.342C453.326 866.139 453.372 864.878 453.755 863.7C454.138 862.522 454.843 861.476 455.79 860.678C456.737 859.88 457.888 859.364 459.113 859.187C460.178 859.031 461.189 858.619 462.059 857.986C462.93 857.353 463.634 856.518 464.11 855.553C464.658 854.442 465.506 853.507 466.557 852.853C467.609 852.2 468.823 851.854 470.061 851.854C471.299 851.855 472.512 852.203 473.562 852.858C474.613 853.513 475.459 854.449 476.006 855.561Z" fill="white" stroke="#A157FF" stroke-width="3" stroke-miterlimit="10"/>
<path d="M476.006 856.659C476.482 857.624 477.186 858.459 478.057 859.092C478.927 859.725 479.938 860.137 481.003 860.293C482.228 860.471 483.379 860.989 484.325 861.788C485.271 862.586 485.976 863.633 486.359 864.811C486.742 865.989 486.788 867.251 486.492 868.454C486.196 869.657 485.569 870.753 484.684 871.618C483.911 872.367 483.334 873.293 483.001 874.316C482.668 875.339 482.59 876.428 482.774 877.488C482.988 878.711 482.855 879.969 482.391 881.12C481.926 882.271 481.149 883.269 480.146 884C479.144 884.732 477.956 885.167 476.719 885.258C475.482 885.348 474.244 885.09 473.146 884.512C472.193 884.012 471.134 883.75 470.058 883.75C468.982 883.75 467.923 884.012 466.97 884.512C465.874 885.088 464.639 885.345 463.404 885.256C462.17 885.166 460.985 884.732 459.983 884.004C458.982 883.276 458.204 882.283 457.737 881.135C457.27 879.988 457.133 878.733 457.342 877.512C457.525 876.452 457.448 875.363 457.115 874.34C456.782 873.317 456.204 872.391 455.432 871.642C454.546 870.777 453.92 869.681 453.624 868.478C453.328 867.275 453.374 866.014 453.757 864.836C454.14 863.658 454.844 862.61 455.791 861.812C456.737 861.013 457.888 860.496 459.113 860.317C460.178 860.161 461.189 859.749 462.059 859.116C462.93 858.483 463.633 857.648 464.11 856.683C464.655 855.571 465.5 854.633 466.55 853.977C467.6 853.32 468.812 852.971 470.05 852.968C471.288 852.966 472.502 853.31 473.555 853.962C474.607 854.614 475.456 855.548 476.006 856.659Z" fill="white" stroke="#A157FF" stroke-width="3" stroke-miterlimit="10"/>
<path d="M470.058 876.48C473.836 876.48 476.899 873.415 476.899 869.634C476.899 865.853 473.836 862.789 470.058 862.789C466.279 862.789 463.216 865.853 463.216 869.634C463.216 873.415 466.279 876.48 470.058 876.48Z" fill="white" stroke="#A157FF" stroke-width="3" stroke-miterlimit="10"/>
<path d="M272.611 866.382C273.087 867.347 273.791 868.182 274.662 868.815C275.532 869.448 276.543 869.861 277.608 870.016C278.833 870.193 279.984 870.71 280.931 871.507C281.878 872.305 282.583 873.352 282.966 874.529C283.349 875.707 283.395 876.969 283.098 878.171C282.802 879.374 282.175 880.469 281.288 881.333C280.516 882.084 279.939 883.011 279.606 884.036C279.273 885.06 279.195 886.15 279.379 887.211C279.587 888.432 279.451 889.687 278.984 890.834C278.517 891.982 277.739 892.975 276.737 893.704C275.736 894.432 274.551 894.865 273.316 894.955C272.082 895.044 270.847 894.787 269.75 894.211C268.798 893.711 267.738 893.449 266.663 893.449C265.587 893.449 264.527 893.711 263.575 894.211C262.479 894.787 261.244 895.044 260.009 894.955C258.774 894.865 257.59 894.432 256.588 893.704C255.587 892.975 254.808 891.982 254.342 890.834C253.875 889.687 253.738 888.432 253.946 887.211C254.13 886.151 254.053 885.061 253.721 884.037C253.39 883.013 252.815 882.085 252.045 881.333C251.159 880.469 250.532 879.375 250.235 878.173C249.938 876.971 249.984 875.71 250.366 874.533C250.748 873.355 251.452 872.308 252.397 871.51C253.343 870.712 254.493 870.194 255.718 870.016C256.783 869.861 257.794 869.448 258.664 868.815C259.534 868.182 260.238 867.347 260.715 866.382C261.262 865.271 262.109 864.335 263.16 863.681C264.211 863.026 265.425 862.68 266.663 862.68C267.901 862.68 269.114 863.026 270.165 863.681C271.216 864.335 272.063 865.271 272.611 866.382Z" fill="white" stroke="#A157FF" stroke-width="3" stroke-miterlimit="10"/>
<path d="M272.611 867.48C273.087 868.445 273.791 869.28 274.662 869.913C275.532 870.546 276.543 870.958 277.608 871.114C278.833 871.293 279.984 871.81 280.93 872.609C281.876 873.407 282.581 874.455 282.964 875.633C283.347 876.811 283.393 878.072 283.097 879.275C282.801 880.478 282.174 881.574 281.289 882.439C280.516 883.188 279.939 884.114 279.606 885.137C279.273 886.16 279.195 887.249 279.379 888.309C279.588 889.53 279.451 890.785 278.984 891.932C278.517 893.079 277.739 894.073 276.738 894.801C275.736 895.529 274.551 895.963 273.316 896.052C272.082 896.142 270.847 895.885 269.75 895.309C268.798 894.808 267.739 894.547 266.663 894.547C265.587 894.547 264.527 894.808 263.575 895.309C262.479 895.885 261.244 896.142 260.009 896.052C258.775 895.963 257.59 895.529 256.588 894.801C255.587 894.073 254.809 893.079 254.342 891.932C253.875 890.785 253.738 889.53 253.947 888.309C254.13 887.25 254.053 886.162 253.721 885.139C253.39 884.116 252.815 883.189 252.045 882.439C251.157 881.576 250.527 880.48 250.229 879.277C249.931 878.074 249.976 876.812 250.358 875.633C250.74 874.454 251.445 873.405 252.392 872.607C253.34 871.808 254.492 871.291 255.718 871.114C256.783 870.958 257.794 870.546 258.664 869.913C259.535 869.28 260.238 868.445 260.715 867.48C261.262 866.369 262.109 865.433 263.16 864.778C264.212 864.124 265.425 863.777 266.663 863.777C267.901 863.777 269.114 864.124 270.165 864.778C271.216 865.433 272.064 866.369 272.611 867.48Z" fill="white" stroke="#A157FF" stroke-width="3" stroke-miterlimit="10"/>
<path d="M266.663 887.301C270.441 887.301 273.504 884.236 273.504 880.455C273.504 876.675 270.441 873.61 266.663 873.61C262.884 873.61 259.821 876.675 259.821 880.455C259.821 884.236 262.884 887.301 266.663 887.301Z" fill="white" stroke="#A157FF" stroke-width="3" stroke-miterlimit="10"/>
<path d="M230.107 809.805C230.583 810.77 231.286 811.604 232.157 812.236C233.028 812.868 234.039 813.278 235.104 813.431C236.328 813.611 237.478 814.129 238.423 814.928C239.369 815.727 240.072 816.775 240.454 817.953C240.836 819.13 240.881 820.392 240.585 821.594C240.288 822.796 239.662 823.891 238.776 824.756C238.008 825.509 237.432 826.437 237.1 827.46C236.767 828.484 236.687 829.573 236.867 830.634C237.078 831.855 236.942 833.11 236.477 834.258C236.011 835.405 235.234 836.4 234.233 837.128C233.232 837.857 232.047 838.29 230.812 838.38C229.577 838.469 228.342 838.211 227.246 837.634C226.295 837.129 225.235 836.866 224.159 836.866C223.082 836.866 222.022 837.129 221.071 837.634C219.975 838.21 218.74 838.467 217.505 838.378C216.271 838.288 215.086 837.854 214.084 837.126C213.083 836.398 212.305 835.404 211.838 834.257C211.371 833.11 211.234 831.855 211.443 830.634C211.624 829.573 211.545 828.483 211.213 827.459C210.88 826.435 210.304 825.508 209.533 824.756C208.647 823.891 208.021 822.795 207.725 821.592C207.429 820.389 207.475 819.128 207.858 817.95C208.241 816.772 208.945 815.724 209.892 814.926C210.838 814.127 211.989 813.61 213.214 813.431C214.278 813.278 215.288 812.868 216.157 812.236C217.027 811.604 217.729 810.77 218.203 809.805C218.751 808.694 219.599 807.759 220.651 807.105C221.703 806.451 222.916 806.104 224.155 806.104C225.393 806.104 226.607 806.451 227.658 807.105C228.71 807.759 229.558 808.694 230.107 809.805Z" fill="white" stroke="#A157FF" stroke-width="3" stroke-miterlimit="10"/>
<path d="M230.107 810.902C230.583 811.867 231.286 812.702 232.157 813.334C233.028 813.965 234.039 814.376 235.104 814.528C236.328 814.708 237.478 815.227 238.423 816.026C239.369 816.825 240.072 817.872 240.454 819.05C240.836 820.228 240.881 821.489 240.585 822.691C240.288 823.893 239.662 824.989 238.776 825.854C238.008 826.606 237.432 827.534 237.1 828.558C236.767 829.582 236.687 830.67 236.867 831.732C237.078 832.952 236.942 834.208 236.477 835.355C236.011 836.503 235.234 837.497 234.233 838.226C233.232 838.954 232.047 839.388 230.812 839.477C229.577 839.567 228.342 839.308 227.246 838.732C226.294 838.231 225.235 837.97 224.159 837.97C223.083 837.97 222.023 838.231 221.071 838.732C219.975 839.307 218.74 839.565 217.505 839.475C216.271 839.385 215.086 838.952 214.084 838.224C213.083 837.496 212.305 836.502 211.838 835.355C211.371 834.208 211.234 832.953 211.443 831.732C211.624 830.67 211.545 829.581 211.213 828.557C210.88 827.533 210.304 826.605 209.533 825.854C208.647 824.988 208.021 823.892 207.725 822.69C207.429 821.487 207.475 820.225 207.858 819.047C208.241 817.869 208.945 816.822 209.892 816.023C210.838 815.225 211.989 814.707 213.214 814.528C214.278 814.376 215.288 813.966 216.157 813.334C217.027 812.702 217.729 811.867 218.203 810.902C218.751 809.792 219.599 808.856 220.651 808.202C221.703 807.549 222.916 807.202 224.155 807.202C225.393 807.202 226.607 807.549 227.658 808.202C228.71 808.856 229.558 809.792 230.107 810.902Z" fill="white" stroke="#A157FF" stroke-width="3" stroke-miterlimit="10"/>
<path d="M224.159 830.724C227.937 830.724 231 827.659 231 823.878C231 820.097 227.937 817.033 224.159 817.033C220.38 817.033 217.317 820.097 217.317 823.878C217.317 827.659 220.38 830.724 224.159 830.724Z" fill="white" stroke="#A157FF" stroke-width="3" stroke-miterlimit="10"/>
<path d="M228.677 850.561H63.3733L74.1151 759.683C76.1964 742.062 84.6672 725.819 97.9215 714.031C111.176 702.244 128.292 695.732 146.025 695.732C163.758 695.734 180.875 702.246 194.13 714.033C207.385 725.819 215.858 742.062 217.943 759.683L228.677 850.561Z" fill="white" stroke="#A157FF" stroke-width="3" stroke-miterlimit="10"/>
<path d="M251.444 737.716H179.493C165.263 737.716 153.728 749.258 153.728 763.496C153.728 777.734 165.263 789.277 179.493 789.277H251.444C265.674 789.277 277.21 777.734 277.21 763.496C277.21 749.258 265.674 737.716 251.444 737.716Z" fill="white" stroke="#A157FF" stroke-width="3" stroke-miterlimit="10"/>
<path d="M304.16 705.192L241.849 741.188C229.526 748.307 225.304 764.075 232.419 776.405C239.534 788.736 255.292 792.961 267.615 785.841L329.926 749.846C342.25 742.726 346.472 726.959 339.357 714.629C332.242 702.298 316.484 698.073 304.16 705.192Z" fill="white" stroke="#A157FF" stroke-width="3" stroke-miterlimit="10"/>
<path d="M341.222 734.268C352.656 734.268 361.925 724.994 361.925 713.553C361.925 702.112 352.656 692.837 341.222 692.837C329.787 692.837 320.518 702.112 320.518 713.553C320.518 724.994 329.787 734.268 341.222 734.268Z" fill="white" stroke="#A157FF" stroke-width="3" stroke-miterlimit="10"/>
<path d="M362.685 684.432L343.338 694.271C341.437 695.237 340.68 697.561 341.645 699.463C342.611 701.364 344.935 702.122 346.835 701.156L366.183 691.318C368.083 690.351 368.84 688.027 367.875 686.125C366.909 684.224 364.586 683.466 362.685 684.432Z" fill="white" stroke="#A157FF" stroke-width="3" stroke-miterlimit="10"/>
<path d="M361.998 697.484L342.65 707.322C340.75 708.288 339.992 710.613 340.958 712.514C341.924 714.416 344.247 715.174 346.147 714.207L365.495 704.369C367.395 703.403 368.153 701.078 367.187 699.177C366.221 697.275 363.898 696.517 361.998 697.484Z" fill="white" stroke="#A157FF" stroke-width="3" stroke-miterlimit="10"/>
<path d="M363.235 709.194L343.887 719.032C341.987 719.998 341.229 722.323 342.195 724.224C343.161 726.126 345.484 726.884 347.384 725.917L366.732 716.079C368.632 715.113 369.39 712.788 368.424 710.887C367.459 708.985 365.135 708.227 363.235 709.194Z" fill="white" stroke="#A157FF" stroke-width="3" stroke-miterlimit="10"/>
<path d="M228.685 850.553V1114.78H153.216L139.549 939.61C139.435 938.138 137.761 938.138 137.648 939.61L123.973 1114.78H63.3733V850.553H228.685Z" fill="white" stroke="#A157FF" stroke-width="3" stroke-miterlimit="10"/>
</g>
<g clip-path="url(#clip2_47_624)">
<path d="M149.975 361.774C149.511 366.941 147.541 371.856 144.31 375.904C141.079 379.951 136.731 382.951 131.811 384.529C129.857 385.146 127.835 385.521 125.79 385.645H53.3143C52.6636 385.634 52.0186 385.521 51.402 385.312C46.512 385.999 41.5297 385.529 36.8528 383.939C32.1759 382.348 27.9339 379.681 24.4655 376.151C20.997 372.62 18.3982 368.324 16.8765 363.606C15.3548 358.887 14.9523 353.876 15.7011 348.973C16.45 344.071 18.3294 339.412 21.1895 335.368C24.0495 331.325 27.8109 328.009 32.1734 325.686C36.5359 323.362 41.3787 322.096 46.3152 321.987C51.2517 321.878 56.1452 322.93 60.605 325.059C62.2614 320.559 65.2827 316.696 69.2423 314.015C73.2019 311.333 77.8999 309.969 82.6731 310.114C87.4463 310.259 92.0536 311.906 95.8446 314.823C99.6357 317.74 102.419 321.779 103.802 326.371C106.752 325.48 109.927 325.721 112.711 327.047C115.496 328.372 117.691 330.689 118.873 333.547C121.454 332.987 124.105 332.83 126.733 333.081C140.956 334.436 151.339 347.279 149.975 361.774Z" fill="white" stroke="black" stroke-width="4" stroke-miterlimit="10"/>
<path d="M125.79 385.624C124.714 385.693 123.636 385.693 122.561 385.624H125.79Z" stroke="black" stroke-width="4" stroke-miterlimit="10"/>
<path d="M131.811 384.507C130.758 385.234 129.511 385.623 128.234 385.624H125.79C127.835 385.499 129.857 385.124 131.811 384.507Z" stroke="black" stroke-width="4" stroke-miterlimit="10"/>
<path d="M305.683 334.039C305.709 339.347 304.172 344.544 301.267 348.978C298.361 353.412 294.216 356.884 289.353 358.958C287.699 359.654 285.978 360.173 284.216 360.509H161.648C157.516 361.27 153.264 361.043 149.234 359.849C145.205 358.654 141.512 356.524 138.453 353.631C135.394 350.738 133.056 347.163 131.626 343.195C130.196 339.227 129.715 334.976 130.222 330.787C130.729 326.598 132.21 322.587 134.545 319.078C136.879 315.57 140.003 312.662 143.662 310.589C147.322 308.517 151.416 307.338 155.612 307.148C159.809 306.958 163.992 307.762 167.822 309.495C168.576 304.9 170.706 300.645 173.93 297.298C177.153 293.951 181.316 291.672 185.862 290.763C190.409 289.854 195.123 290.361 199.376 292.214C203.629 294.067 207.219 297.179 209.665 301.134C210.697 300.864 211.759 300.727 212.826 300.727C215.41 300.722 217.931 301.533 220.032 303.045C226.976 299.16 235.171 298.205 242.816 300.388C250.46 302.571 256.929 307.714 260.801 314.687C260.831 314.73 260.857 314.776 260.88 314.824L261.022 314.687C265.892 309.817 272.483 307.083 279.354 307.082C293.888 307.103 305.683 319.164 305.683 334.039Z" fill="white" stroke="black" stroke-width="4" stroke-miterlimit="10"/>
</g>
<g clip-path="url(#clip3_47_624)">
<path d="M601.728 328.028C601.753 333.099 600.245 338.065 597.394 342.3C594.542 346.536 590.473 349.853 585.7 351.835C584.077 352.499 582.387 352.996 580.658 353.316H460.336C456.28 354.045 452.106 353.831 448.151 352.691C444.195 351.551 440.569 349.517 437.566 346.754C434.562 343.991 432.266 340.577 430.861 336.786C429.456 332.995 428.983 328.934 429.479 324.931C429.976 320.929 431.428 317.096 433.719 313.743C436.009 310.391 439.074 307.612 442.666 305.631C446.258 303.65 450.276 302.523 454.395 302.34C458.515 302.158 462.62 302.925 466.38 304.58C467.12 300.19 469.211 296.126 472.375 292.928C475.538 289.73 479.624 287.552 484.087 286.684C488.549 285.816 493.177 286.3 497.351 288.07C501.525 289.84 505.048 292.813 507.45 296.592C508.462 296.334 509.505 296.203 510.552 296.203C513.089 296.199 515.563 296.974 517.625 298.418C524.44 294.707 532.484 293.794 539.987 295.879C547.49 297.965 553.84 302.879 557.639 309.54C557.669 309.581 557.695 309.625 557.717 309.671L557.857 309.54C562.646 304.889 569.126 302.284 575.876 302.295C590.131 302.295 601.728 313.817 601.728 328.028Z" fill="white" stroke="black" stroke-width="4" stroke-miterlimit="10"/>
</g>
<g clip-path="url(#clip4_47_624)">
<path d="M686.728 360.028C686.753 365.099 685.245 370.065 682.394 374.3C679.542 378.536 675.473 381.853 670.7 383.835C669.077 384.499 667.387 384.996 665.658 385.316H545.336C541.28 386.045 537.106 385.831 533.151 384.691C529.195 383.551 525.569 381.517 522.566 378.754C519.562 375.991 517.266 372.577 515.861 368.786C514.456 364.995 513.983 360.934 514.479 356.931C514.976 352.929 516.428 349.096 518.719 345.743C521.009 342.391 524.074 339.612 527.666 337.631C531.258 335.65 535.276 334.523 539.395 334.34C543.515 334.158 547.62 334.925 551.38 336.58C552.12 332.19 554.211 328.126 557.375 324.928C560.538 321.73 564.624 319.552 569.087 318.684C573.549 317.816 578.177 318.3 582.351 320.07C586.525 321.84 590.048 324.813 592.45 328.592C593.462 328.334 594.505 328.203 595.552 328.203C598.089 328.199 600.563 328.974 602.625 330.418C609.44 326.707 617.484 325.794 624.987 327.879C632.49 329.965 638.84 334.879 642.639 341.54C642.669 341.581 642.695 341.625 642.717 341.671L642.857 341.54C647.646 336.889 654.126 334.284 660.876 334.295C675.131 334.295 686.728 345.817 686.728 360.028Z" fill="white" stroke="black" stroke-width="4" stroke-miterlimit="10"/>
</g>
<g clip-path="url(#clip5_47_624)">
<path d="M191.573 216.92C184.934 217.008 178.363 215.576 172.362 212.733C166.57 209.971 161.431 206.008 157.284 201.108C153.017 196.122 149.684 190.407 147.445 184.236C145.156 177.92 143.991 171.251 144.001 164.533C143.963 157.538 145.128 150.59 147.445 143.991C149.624 137.733 152.962 131.943 157.284 126.923C161.464 122.061 166.585 118.098 172.337 115.273C178.403 112.38 185.052 110.922 191.77 111.012C199.674 110.829 207.455 112.998 214.129 117.243C216.884 119.041 219.477 121.076 221.877 123.327C222.572 123.982 223.443 124.42 224.383 124.588C225.322 124.756 226.29 124.647 227.169 124.273C228.048 123.9 228.799 123.279 229.331 122.485C229.863 121.692 230.154 120.761 230.166 119.805V112.588H245.54V214.014C245.837 222.753 243.394 231.365 238.554 238.643C233.799 245.393 227.245 250.667 219.639 253.865C211.299 257.388 202.32 259.14 193.27 259.012C181.791 259.012 172.329 256.976 164.884 252.904C157.564 248.882 151.281 243.206 146.534 236.328L156.595 227.437C160.485 233.356 165.944 238.072 172.362 241.057C178.909 244.103 186.051 245.651 193.27 245.589C199.175 245.629 205.028 244.491 210.488 242.239C215.66 240.124 220.11 236.558 223.304 231.969C226.687 226.871 228.406 220.846 228.223 214.728V196.477C224.419 202.778 219.012 207.954 212.555 211.477C206.143 215.064 198.917 216.938 191.573 216.92ZM197.427 202.709C201.057 202.671 204.65 201.97 208.029 200.64C211.248 199.355 214.284 197.649 217.056 195.566C219.882 193.499 222.371 191.007 224.435 188.177C226.962 184.624 228.32 180.372 228.322 176.01V155.469C228.373 151.315 227.266 147.229 225.124 143.671C223.748 141.469 222.14 139.422 220.327 137.563C217.03 134.02 213.09 131.136 208.717 129.066C204.532 127.06 199.952 126.016 195.312 126.012C190.408 125.939 185.564 127.09 181.217 129.361C177.113 131.579 173.524 134.643 170.689 138.351C164.845 145.969 161.657 155.296 161.613 164.902C161.59 169.862 162.526 174.78 164.368 179.384C166.153 183.834 168.691 187.941 171.87 191.527C175.059 195.147 178.997 198.029 183.411 199.972C187.824 201.916 192.607 202.875 197.427 202.782V202.709Z" fill="#A157FF"/>
<path d="M265.489 185.418C265.357 179.285 267.338 173.293 271.097 168.448C275.168 163.431 280.512 159.603 286.569 157.365C293.878 154.623 301.641 153.294 309.445 153.449C314.318 153.473 319.183 153.835 324.006 154.532C326.466 154.853 328.631 155.271 330.746 155.764C331.558 155.955 332.402 155.962 333.217 155.784C334.031 155.606 334.796 155.248 335.454 154.735C336.112 154.222 336.648 153.569 337.02 152.822C337.393 152.075 337.594 151.254 337.609 150.419C337.802 147.014 337.27 143.606 336.049 140.421C334.827 137.237 332.945 134.348 330.525 131.947C325.802 127.464 319.095 125.223 310.404 125.223C304.833 125.188 299.307 126.216 294.12 128.253C288.341 130.611 282.818 133.558 277.64 137.045L271.343 124.731C277.548 120.381 284.318 116.901 291.464 114.386C298.203 112.094 305.279 110.954 312.396 111.012C325.532 111.012 335.936 114.632 343.537 121.873C351.138 129.115 354.95 139.114 354.95 152.094V195.344C354.823 196.974 355.276 198.597 356.229 199.925C356.789 200.471 357.451 200.899 358.177 201.187C358.903 201.474 359.679 201.615 360.46 201.6V215.023L356.033 215.614C354.803 215.737 353.794 215.811 353.007 215.811C351.328 215.941 349.64 215.708 348.058 215.131C346.475 214.553 345.034 213.643 343.832 212.462C341.937 210.528 340.72 208.03 340.364 205.344L339.995 198.841C335.368 204.73 329.325 209.348 322.432 212.265C315.674 215.29 308.361 216.875 300.958 216.92C294.599 217.03 288.308 215.584 282.633 212.708C277.494 210.136 273.136 206.233 270.015 201.403C266.993 196.626 265.42 191.073 265.489 185.418ZM332.493 192.635C333.974 190.949 335.231 189.078 336.232 187.068C337.032 185.586 337.502 183.947 337.609 182.266V181.33C337.611 177.696 336.346 174.175 334.034 171.374C331.722 168.573 328.506 166.667 324.941 165.985H324.794C320.448 165.15 316.034 164.721 311.609 164.705C304.129 164.376 296.709 166.178 290.209 169.901C287.703 171.309 285.621 173.367 284.184 175.86C282.747 178.352 282.007 181.186 282.043 184.064C282.068 187.405 282.986 190.679 284.699 193.546C286.611 196.673 289.331 199.226 292.571 200.935C296.554 203.001 301 204.01 305.484 203.866C310.786 203.878 316.031 202.779 320.883 200.639C325.278 198.83 329.236 196.101 332.493 192.635Z" fill="#A157FF"/>
<path d="M374.653 203.767L429.506 137.267C430.405 136.186 430.978 134.87 431.156 133.473C431.334 132.077 431.11 130.66 430.51 129.387C429.911 128.114 428.961 127.039 427.772 126.288C426.583 125.537 425.205 125.142 423.799 125.149H376.424V112.588H458.925V123.844L404.392 190.344C403.5 191.426 402.934 192.74 402.76 194.132C402.586 195.524 402.812 196.937 403.41 198.205C404.009 199.473 404.955 200.545 406.14 201.294C407.324 202.044 408.697 202.44 410.098 202.437H459.097V215.072H374.653V203.767Z" fill="#A157FF"/>
<path d="M523.469 216.92C516.185 217.015 508.962 215.58 502.266 212.708C496.04 209.99 490.413 206.064 485.711 201.156C481.06 196.244 477.38 190.494 474.864 184.211C472.292 177.731 470.989 170.816 471.027 163.842C470.918 154.589 473.233 145.469 477.742 137.39C482.285 129.24 488.956 122.479 497.041 117.833C505.126 113.186 514.321 110.829 523.641 111.012C533.184 110.804 542.582 113.37 550.698 118.401C558.235 123.132 564.414 129.744 568.63 137.587C572.884 145.441 575.084 154.244 575.025 163.177C575.025 164.483 575.025 165.64 575.025 166.995C574.983 167.952 574.884 168.906 574.73 169.852H489.376C489.798 176.105 491.722 182.163 494.985 187.512C498.099 192.523 502.411 196.678 507.529 199.605C512.561 202.511 518.275 204.024 524.084 203.989C530.339 204.001 536.488 202.371 541.917 199.26C543.752 198.215 545.482 196.994 547.083 195.615C549.982 193.137 553.449 191.415 557.174 190.603C560.899 189.79 564.767 189.913 568.433 190.96C566.12 196.07 562.769 200.641 558.594 204.383C554.029 208.425 548.748 211.574 543.024 213.668C536.753 215.917 530.129 217.018 523.469 216.92ZM503.791 157.808H554.855C555.371 157.805 555.88 157.69 556.346 157.47C556.812 157.249 557.225 156.93 557.555 156.534C557.885 156.137 558.125 155.674 558.258 155.175C558.391 154.676 558.413 154.154 558.324 153.646C557.518 148.874 555.752 144.315 553.134 140.247C550.021 135.269 545.718 131.146 540.613 128.253C535.419 125.384 529.573 123.908 523.641 123.967C517.789 123.921 512.025 125.398 506.915 128.253C501.791 131.086 497.474 135.18 494.37 140.149V140.321C493.271 142.035 492.653 144.013 492.581 146.048C492.508 148.083 492.983 150.1 493.956 151.888C494.93 153.676 496.365 155.169 498.113 156.211C499.86 157.252 501.855 157.804 503.889 157.808H503.791Z" fill="#A157FF"/>
</g>
</g>
<defs>
<clipPath id="clip0_47_624">
<rect width="720" height="1024" fill="white"/>
</clipPath>
<clipPath id="clip1_47_624">
<rect width="551" height="651" fill="white" transform="translate(62 465)"/>
</clipPath>
<clipPath id="clip2_47_624">
<rect width="293" height="98" fill="white" transform="translate(14 289)"/>
</clipPath>
<clipPath id="clip3_47_624">
<rect width="175" height="70" fill="white" transform="translate(428 285)"/>
</clipPath>
<clipPath id="clip4_47_624">
<rect width="175" height="70" fill="white" transform="translate(513 317)"/>
</clipPath>
<clipPath id="clip5_47_624">
<rect width="431" height="148" fill="white" transform="translate(144 111)"/>
</clipPath>
</defs>
</svg>
