<svg width="20" height="20" viewBox="0 0 20 20" fill="none" xmlns="http://www.w3.org/2000/svg">
<path d="M13.75 10C13.75 10.9946 13.3549 11.9484 12.6517 12.6517C11.9484 13.3549 10.9946 13.75 10 13.75C9.00544 13.75 8.05161 13.3549 7.34835 12.6517C6.64509 11.9484 6.25 10.9946 6.25 10C6.25 9.00544 6.64509 8.05161 7.34835 7.34835C8.05161 6.64509 9.00544 6.25 10 6.25C10.9946 6.25 11.9484 6.64509 12.6517 7.34835C13.3549 8.05161 13.75 9.00544 13.75 10Z" fill="#D4D4D4"/>
<path d="M17.5 17.5V5.625L11.875 0H5C4.33696 0 3.70107 0.263392 3.23223 0.732233C2.76339 1.20107 2.5 1.83696 2.5 2.5V17.5C2.5 18.163 2.76339 18.7989 3.23223 19.2678C3.70107 19.7366 4.33696 20 5 20H15C15.663 20 16.2989 19.7366 16.7678 19.2678C17.2366 18.7989 17.5 18.163 17.5 17.5ZM11.875 3.75C11.875 4.24728 12.0725 4.72419 12.4242 5.07583C12.7758 5.42746 13.2527 5.625 13.75 5.625H16.25V17.1938C16.25 17.1938 15 15 10 15C5 15 3.75 17.1938 3.75 17.1938V2.5C3.75 2.16848 3.8817 1.85054 4.11612 1.61612C4.35054 1.3817 4.66848 1.25 5 1.25H11.875V3.75Z" fill="#D4D4D4"/>
</svg>
