<svg xmlns="http://www.w3.org/2000/svg" viewBox="0 0 146.34 180.98"><defs><style>.cls-1{fill:#231f20;}</style></defs><g id="Layer_2" data-name="Layer 2"><g id="Layer_2-2" data-name="Layer 2"><path class="cls-1" d="M144.32,5.34l.76-.28L145,4.88Z"/><path class="cls-1" d="M144.44,7.82l.23-.1a.64.64,0,0,1-.1-.13Z"/><path class="cls-1" d="M145,4.88c-.31-.65-.89-1.2-.75-2l1.7-.64c.29-.52-.27-.73-.41-1.1.43-.16.85-.32.79-.5.09-.58-.47-.74-1.35-.54C143.87,2.83,139.58,5.35,145,4.88Z"/><path class="cls-1" d="M142.25,7.64l2.18-.87c.06-.5.21-1-.17-1.38A6,6,0,0,0,142.25,7.64Z"/><path class="cls-1" d="M26.87,139.13c.12,0,.17.08-.09.43l.09-.43c-.1,0-.27,0-.29-.26-.15,1.56-.39,3.36-.7,5.09.15.27.31.53.47.77.82-4.26,1.9-8.44,1.9-12.15C27.54,135,27.44,136.77,26.87,139.13Z"/><path class="cls-1" d="M27.43,145.31l-.09.43C27.6,145.4,27.54,145.34,27.43,145.31Z"/><path class="cls-1" d="M54.92,73.12a60.12,60.12,0,0,0,3.34-7c-1.46,2.15-2.77,4.42-4,6.55a55.31,55.31,0,0,0-3.17,6C52.27,76.79,53.61,75,54.92,73.12Z"/><path class="cls-1" d="M64.13,55.18A20.67,20.67,0,0,0,61,58.74a31,31,0,0,0-2.05,3.77l2.39-3.36C62.11,58.07,63,57,63.83,56,63.93,55.69,64,55.43,64.13,55.18Z"/><path class="cls-1" d="M62.5,58.82a28.1,28.1,0,0,0-4.24,7.35A80.94,80.94,0,0,0,62.5,58.82Z"/><path class="cls-1" d="M47,118.28a26.72,26.72,0,0,1-.52,3.7c.15.36.33.83.55,1.45,0-.1.08-.2.11-.3.34-1.92.77-3.83,1.25-5.77a17.79,17.79,0,0,0,.09-2.37C47.92,116.07,47.44,117.18,47,118.28Z"/><path class="cls-1" d="M46.46,122c-1.32-3.11-.66,2.43,0,0Z"/><path class="cls-1" d="M40,105.75l.13-.28.25-.86C40.25,105,40.13,105.37,40,105.75Z"/><path class="cls-1" d="M56.48,87.15c-.85,1.46-1.6,3-2.31,4.51l2.37-4.52a45.39,45.39,0,0,0,2-4.27c-.24.36-.64.61-.87,1A9,9,0,0,1,56.48,87.15Z"/><path class="cls-1" d="M36.36,119.09c1.21-4.63,2.47-9.19,3.77-13.62C44,97,48,89,51.08,81.37c.33-.85.73-1.76,1.18-2.72s1-1.9,1.6-2.91l3.69-6.29c1.34-2.09,2.69-4.2,3.81-6.28.57-1,1.08-2.07,1.53-3.08a23.15,23.15,0,0,0,1.22-2.88,20.37,20.37,0,0,0-1.61,1.61A30.27,30.27,0,0,0,63.83,56,149.55,149.55,0,0,1,89.75,30.23c1.48-1.11,2.23-2.42,3.71-3.53s3-2.22,4.46-3.31c0,0-.06-.06-.13-.07,6.1-4.59,12.32-8.81,19-13.18a107.88,107.88,0,0,1,9.93-5.08c1.27-.58,1.6.12,2.52-.09l5.21-.92c1.68-.32,3.37-.75,5.36-1.32l.22.54a7.19,7.19,0,0,1,1.54-.61c-1,2.77-5.26,5.33.13,4.79h0l-.67.48-.08,0V8A5.83,5.83,0,0,0,139,10.25c.72-.3,1.43-.62,2.15-.9a1.08,1.08,0,0,0,.17.82c-.05.07-.08.15-.13.22l-.59.24a1.94,1.94,0,0,0-.05.52c-1.54,1.57-4.27,3.22-3.38,3.72.6.2,1.8-.7,3.22-1.59a2.6,2.6,0,0,0,.39.05c-1.93,1,.53,1.26-.59,1.95-.79.34-1.57.73-2.34,1.11s-1.53.82-2.31,1.18a102.12,102.12,0,0,0-17.21,9.89l-.75.52c-1.39.92-2.71,1.86-4.06,2.74s-2.72,1.71-4.13,2.54a7,7,0,0,1,.33-.67,48.12,48.12,0,0,0-6.43,4.58l-3.52,3.38c-1.16,1.13-2.38,2.2-3.52,3.39-2.29,2.35-4.76,4.55-7.17,7-1.29,1.23-2.57,2.45-3.82,3.69s-2.38,2.59-3.55,3.9-2.37,2.59-3.43,4L75,66.79c.82-1.24,1.65-2.47,2.52-3.69.44-.61.87-1.22,1.34-1.81s1-1.14,1.49-1.7c1-1,1.94-1.9,2.84-2.86-1,.92-1.94,1.88-2.84,2.86a54.07,54.07,0,0,0-5.26,5.72,26.44,26.44,0,0,0-2.08,3,13.62,13.62,0,0,0-1.26,3.16c-.4.24-.55.11-.81.44-1.84,2.31-3.94,4.44-4.72,7,.15.11-.58,1.14,0,1-.66,1.08-1.41,2.21-2.15,3.36a25.78,25.78,0,0,0-2,3.47,12.27,12.27,0,0,0-1,3.23c-1.93,4.06-3.75,8.12-5.38,12.33s-3.2,8.51-4.63,13c-.39,1.1-.84,2.29-1.29,3.47s-.94,2.36-1.35,3.47c.29-1.76.74-3.5,1.15-5.28s.94-3.55,1.5-5.32c1.63-3.2,3.14-6.25,3.59-9.22.15-.67.31-1.33.48-2-.77,1.87-1.51,3.72-2.18,5.6s-1.3,3.75-1.89,5.61c-1,1.89-2,3.81-2.77,5.78a.66.66,0,0,1,0-.14c.39-1.64.88-3.27,1.35-4.92.72-1.43,1.43-2.83,2-4.22a20.53,20.53,0,0,0,1.37-4.07c.07-.34.13-.68.18-1,.15-.67.31-1.34.48-2-1,2.3-1.8,4.65-2.62,7-.48,1.45-1,2.88-1.41,4.33-.41.84-.84,1.7-1.26,2.55,0-.11,0-.22,0-.33.15-.83-1-3.92-2.05-3A87.4,87.4,0,0,0,43,121.31c-.92,3-1.45,5.17-1.56,5.13-.42.08,0-2.61.61-5.25s1.35-5.26,1.17-5.1c-.31.54-.62,1.1-.92,1.66.08-.61.15-1.22.18-1.79.3-1.26,1.14-2.76,1.14-3.7a14.89,14.89,0,0,1,1.12-4.73c.56-1.57,1.21-3.17,1.65-4.88.42-2.21,1-4.85,1.53-7.54-.35-.19.48-1.24-.09-1C49,91.92,50.43,89.44,50,88l.06-.17a2.35,2.35,0,0,0,.23-.67A20.13,20.13,0,0,0,51.8,84.6a23.65,23.65,0,0,0,1.11-2.42c.33-.81.63-1.63.94-2.47s.68-1.67,1.07-2.54c.68-1.12,1.4-2.24,2.2-3.35a16.8,16.8,0,0,0-1.82,2.54l-.38.81q-.66,1.08-1.26,2.16c-.37.75-.73,1.49-1.1,2.23-.7,1.47-1.4,2.93-2,4.41a8.69,8.69,0,0,1-.19,1.14l-.39.57c0,.09.07.18.1.27-.58,1.44-1.21,2.94-1.82,4.39a31.1,31.1,0,0,0-1.52,4.13C45,101,42.42,105.53,40.32,110c.66-2.4,1.41-4.74,2.1-7.07-1,2.85-1.89,5.55-2.63,8.21l-.51,1.15-1,2.43c.39-.73.76-1.45,1.12-2.17-.41,1.6-.81,3.17-1.15,4.73l-6.86,25.58a7.49,7.49,0,0,1-.55-.74c.88-4.16,2-8.24,2.06-11.88-.74,2.35-.86,4.09-1.46,6.39-.11,0-.27-.05-.29-.26-.17,1.53-.44,3.29-.77,5-.36-.65-.7-1.38-1-2.1a16.09,16.09,0,0,1,.33-3.56c1.19-5.61,2.94-10.71,4.45-16.17,1.81-4.7,3.84-9.3,5.88-13.79A111.66,111.66,0,0,0,36.36,119.09Zm96.23-108.6c-.38.27-.77.55-1.16.85l.25,0A2.09,2.09,0,0,0,132.59,10.49Zm-9.51,4.45c2.9-1.11,6.31-3.34,9.77-5.23a.38.38,0,0,0,0-.16C129.73,10.74,126.3,13,123.08,14.94Zm-12.84,2.54.1,0,0-.07ZM71.41,56.77a24.28,24.28,0,0,1,3.47-4.88L77,49.43c.73-.84,1.47-1.69,2.24-2.5,1-.9,1.46-2.38,2.8-3.59,1.53-1.66,2.27-2.88,3.55-4.16l-1.3.57c2.57-1.87,3.22-3.93,5.92-5.65-.13-.16,0-.74.36-1,1.7-1.53,3.75-2.59,5-4,1.69-1.54,3.61-2.77,4.88-4.15.37-.26.79-1.27,1.44-2,.87-.72,1.8-1.33,2.71-2l-.2-.06a15.16,15.16,0,0,0-2.24,1.62c-2,1.9-4.48,4-6.57,5.77a119.42,119.42,0,0,0-14,13.82c-.88,1.06-1.62,2.26-2.48,3.31-1.27,1.62-2.73,3.34-4,5A15.74,15.74,0,0,0,72.19,55C72,55.5,71.43,56.17,71.41,56.77Zm3,9.31a56,56,0,0,1,4-5.75,61.51,61.51,0,0,1,4.68-4.91,58.49,58.49,0,0,0,5.06-5.89c1.57-2.27,2.61-4.23,1.18-4.57-.17,1.47-1.5,3.48-3.41,5.57-.94,1.07-2.08,2.11-3.16,3.26s-2.21,2.29-3.3,3.4-2.16,2.15-3,3.19a33.24,33.24,0,0,0-2.13,2.8C73.3,64.81,73.11,65.89,74.44,66.08ZM56.88,96.58a24.53,24.53,0,0,1,2.28-5C58.38,93.27,57.6,94.91,56.88,96.58Zm3.21-19.51c-2.27,5.32-5.35,10.51-7.52,15.73-1.66,4-4.75,7.71-5.23,11.79l.53.25v-.46c.79-1.29,1.58-2.23,2.32-3.26l-.06.22.15-.35a9.61,9.61,0,0,0,1.26-2.39c.13-.45.27-.9.42-1.36,2.29-4.82,4.92-9.64,6.61-14.37,1.26-2.78,2-5.45,3.29-8.28A15.57,15.57,0,0,0,60.09,77.07Z"/><path class="cls-1" d="M39.8,111.78q-.77,2.75-1.55,5.52c-.29,1.47-.59,2.92-.82,4.38-1.41,6.88-4.08,14.51-5.32,21.87a2.27,2.27,0,0,0,1.73.38c2.46-7.6,3.75-15.55,6.89-22.93v-.2c.07-3.64,2.6-8.63,3.52-12.93.72-4.43,2.39-8.45,3.61-12.76C44.81,100.64,42.57,106.22,39.8,111.78Z"/><path class="cls-1" d="M58.9,62.51c-1,1.48-2.07,2.95-3.12,4.45-1.35,2.15-2.49,4.27-3.62,6.31s-2.18,4.06-3.1,6.17l1.32-2.13,1.42-2.08q1.44-2.07,2.92-4.13A83.5,83.5,0,0,0,58.9,62.51Z"/><path class="cls-1" d="M47.56,82.86c.47-1.17,1-2.29,1.5-3.42a145.36,145.36,0,0,0-7.05,13,156.54,156.54,0,0,0-7.91,22.7c-.23.87-.46,1.74-.71,2.59,2.72-6.84,5.81-13.49,8.86-19.87s6.06-12.5,8.53-18.43l.29-.7a140,140,0,0,0-8.59,15.67C44.06,90.49,45.81,86.69,47.56,82.86Z"/><path class="cls-1" d="M40.32,110l-.53,1.14-.39,1.41c.13-.27.27-.53.4-.79C40,111.19,40.15,110.6,40.32,110Z"/><path class="cls-1" d="M50.2,101.12l.09-.13L52,97.24c.63-1.82,1.35-3.71,2.2-5.58-.86,1.64-1.65,3.31-2.37,4.89A31,31,0,0,0,50.2,101.12Z"/><path class="cls-1" d="M60,93.32l.87-1.41.09-.83-.64,1Z"/><path class="cls-1" d="M71.77,71.46l-3,4.65c-.51.75-1,1.54-1.4,2.33l-1.31,2.33q-1.29,2.33-2.57,4.6c-.82,1.53-1.57,3.1-2.35,4.63-.06.36-.12.72-.16,1.08.64-1,1.28-1.9,1.88-2.86l1.76-2.9a39.2,39.2,0,0,0,3-5.94,11.69,11.69,0,0,1,1.12-2.82c1.18-1.6,2.24-3.23,3.25-4.89.5-.83,1-1.66,1.49-2.48s1.06-1.6,1.58-2.4L73.39,69l-1.54,2.34Z"/><path class="cls-1" d="M7,95c0-.31,0-.6,0-.6H6.84A5.79,5.79,0,0,0,7,95Z"/><path class="cls-1" d="M9.4,95.55v-.19l-.15,0Z"/><path class="cls-1" d="M6.83,94.41a4.47,4.47,0,0,1-2.15,0c0-.33,0-1,0-1.34-.4-.32-.78,0-1.17,0,0-.33,0-.66-.21-.66-.52-.21-.85.16-1,.81C4.54,94.67,5.38,98.31,6.83,94.41Z"/><path class="cls-1" d="M8.44,97.05l0-1.76a1.87,1.87,0,0,0-1.35-.23A4.43,4.43,0,0,0,8.44,97.05Z"/><path class="cls-1" d="M76.46,147.27c0-.11,0-.18.31-.12l-.31.12c0,.11.11.26,0,.38a27.71,27.71,0,0,1,3.44-1.79c.09-.26.17-.51.24-.76-3,1.23-6.09,2.36-8.24,4.26C73.67,148.71,74.77,147.94,76.46,147.27Z"/><path class="cls-1" d="M80,143.9l.31-.12C79.93,143.72,79.92,143.79,80,143.9Z"/><path class="cls-1" d="M24.57,169a72.7,72.7,0,0,0-8.26,4.63c5.79-2.72,11.31-5,15-7.2C29.1,167.28,26.84,168.15,24.57,169Z"/><path class="cls-1" d="M4.11,176.72a40.87,40.87,0,0,0,0,4.26,64.91,64.91,0,0,0,7.57-3.74l-7,3q-.09-1.46-.18-2.88C4.32,177.13,4.22,176.9,4.11,176.72Z"/><path class="cls-1" d="M6.07,178.83a60.06,60.06,0,0,0,10.24-5.22C13,175.16,9.6,176.85,6.07,178.83Z"/><path class="cls-1" d="M53.08,142.39a14.94,14.94,0,0,1,2.45-1.83c.12-.34.29-.76.53-1.29l-.25.09c-1.33.87-2.7,1.71-4.09,2.54a10.18,10.18,0,0,0-1.39,1.4C51.25,143,52.18,142.72,53.08,142.39Z"/><path class="cls-1" d="M55.53,140.56c-1,2.87,1.81-.93,0,0Z"/><path class="cls-1" d="M50.65,155.44l-.21.08-.58.36Z"/><path class="cls-1" d="M31.29,156.66c1.21-.53,2.4-1.12,3.56-1.74-1.23.56-2.45,1.12-3.61,1.7q-.87.45-1.68.9c-.25.15-.57.33-.74.46l-.54.41c.24-.09.53,0,.78-.08A5.57,5.57,0,0,1,31.29,156.66Z"/><path class="cls-1" d="M59.8,150.14c-3.24,1.71-6.36,3.53-9.36,5.38-6.56,2.49-12.74,5.26-17.88,8.85-.26.19-.53.39-.82.58-.13.08-.33.2-.54.31s-.42.24-.64.35c-.87.47-1.81.94-2.82,1.43-2,1-4.25,2-6.59,3.09A142.78,142.78,0,0,0,6.1,178a9.13,9.13,0,0,0-.64-1.12c0,.78-.07,1.51-.08,2.17l.69-.24-.85.48a16,16,0,0,0-.8-2c-.47-7.24-.87-14.86-1.2-22.75-.12-2.92-.24-5.84-.37-8.79q-.14-3.31-.19-6.69c0-1.34-.63-2.33-.65-3.67s-.12-2.68-.18-4a.15.15,0,0,0-.13,0c-.34-5.5-.82-10.9-1.56-16.59-.24-2.67-.09-5.34-.14-8,0-1,.77-1,1-1.69a32.13,32.13,0,0,0,2-7.71h.59a3.88,3.88,0,0,1,0-1.22c2.22,1.4,3.07,5,4.52,1.15h0c.07.21.14.4.21.59v.06h0a4.25,4.25,0,0,0,1.38,2l0-1.75a1.39,1.39,0,0,0,.82.1,1.21,1.21,0,0,1,.16.16c0,.26,0,.47,0,.47a1.66,1.66,0,0,0,.46.19c.86,1.51,1.34,3.92,2.15,3.44.41-.36,0-1.48-.25-2.74a1.15,1.15,0,0,0,.19-.26c.23,1.67,1.37,0,1.59,1,0,1.34.24,2.67.26,4a134.73,134.73,0,0,0,1,15.35c0,.24.05.47.08.7a49.35,49.35,0,0,1,.26,7.57,6.12,6.12,0,0,1-.39-.5,29.16,29.16,0,0,0,.24,6.12,130.84,130.84,0,0,1,2,15.33l0,.73.05.61.12,1.2c.08.78.18,1.53.29,2.24a22.69,22.69,0,0,0,.86,3.65,5.7,5.7,0,0,1-1-2.77,18.09,18.09,0,0,0,0-1.82,9,9,0,0,0,0,1.82c0,1.64-.12,3.59.41,4.28a13.84,13.84,0,0,0,2.54-2.2c0,.17-.1.43.05.37a6,6,0,0,0,3.13-1.78c0-.22.43-.36.35-.75a9.66,9.66,0,0,0,2.12-1.41,8,8,0,0,0,2.09-1.79C35.7,148.1,42,144.67,48.9,141.07c1.73-.84,3.81-1.61,5.63-2.28-2.46,1.6-5,3.12-7.67,4.61-2.78.87-5.38,1.83-7.18,3.56-.44.36-.87.7-1.32,1,2.88-1.52,5.72-3,8.5-4.6,1.63-.51,3.33-1,4.94-1.58l-.08.08c-1.18.7-2.38,1.39-3.59,2.07a20.37,20.37,0,0,0-6.55,3c-.21.18-.43.36-.63.55-.43.36-.87.71-1.31,1l5.27-2.82L48.13,144l2.2-.67-.18.22c-.56.42-1.52,3.22-.38,3.43,2.41-.91,5.22-2.21,7.44-3.26A34.5,34.5,0,0,1,61.1,142c.58.62-7.33,4.62-7,4.69.49-.09,1-.19,1.46-.3-.38.31-.75.62-1.09.94-.87.53-2.19.81-2.68,1.41-1.79,1.91-4.43,2.46-6.67,4.12-1.37,1.12-3,2.55-4.59,4,.14.36-.87.52-.42.78-1.77.65-3.82,1.4-4.18,2.75l-.12.08a1.49,1.49,0,0,0-.44.32c-3.07.92-4.4,2.56-7.81,4.62-1.13.52-2.32,1-3.53,1.47a14.34,14.34,0,0,0,2.77-1l.76-.45c.74-.34,1.45-.69,2.14-1s1.4-.72,1.88-1l3.18-1.87c.15-.18.38-.46.61-.69l.51-.14a2,2,0,0,1,0-.26c2-1.32,4.35-2.41,6-3.63,3.25-1.9,7.07-3,10.66-4.16-1.66,1-3.27,1.93-4.85,2.91,2-1.1,3.92-2.16,5.76-3.22l.9-.32,1.88-.69c-.61.13-1.21.28-1.81.44q1.64-1,3.21-2a113.5,113.5,0,0,1,18.76-8c0,.27-.11.54-.18.82-3,1.24-6.09,2.36-8.24,4.27,1.77-.66,2.87-1.43,4.57-2.09,0,.1.11.25,0,.37a27,27,0,0,1,3.44-1.79c-.23.62-.5,1.25-.77,1.89A9.3,9.3,0,0,1,73,146.59c-4,1.81-7.81,3.13-11.66,5-3.59,1.24-7.18,2.48-10.67,3.8C53.94,153.65,56.94,151.94,59.8,150.14ZM7.37,104.52c.09.34.19.7.3,1a1.07,1.07,0,0,1,.14-.16A1.4,1.4,0,0,0,7.37,104.52Zm0,7.82c.3-2.3-.21-5.31-.56-8.22a.44.44,0,0,0-.15,0A53.38,53.38,0,0,0,7.32,112.34Zm-3.91,9.22.07,0H3.39Zm7,43.69a18,18,0,0,1-1-4.92c-.19-2.05-.38-4.21-.58-6.37a8.24,8.24,0,0,0-.42-2A9.54,9.54,0,0,1,8,149.49c-.22-1.67-.63-2.66-.85-4l-.37,1c.15-2.35-1-3.66-.69-6a.79.79,0,0,1-.6-.66c-.22-1.67.14-3.35-.27-4.67a32.72,32.72,0,0,0-.67-4.67c0-.33-.61-1-.81-1.65-.1-.82-.16-1.63-.23-2.45l-.15.11a9.08,9.08,0,0,0,.18,2c.42,2,.85,4.33,1.08,6.33.48,5,1.34,9.67,2.21,14.32.1.39.26,1.31.42,2s.32,1.43.43,2.14c.43,2.09.61,4.37.87,6.39s.57,3.74,1.27,4.42C10,164.37,10,165.23,10.4,165.25Zm8.37-6.51c-.85-.9-1.27-3.4-1.15-5.65a8.13,8.13,0,0,0-.25-1.73c-.08-.35-.17-.71-.29-1.09s-.25-.67-.41-1.26c-.62-2.08-1.53-3.65-2.69-3a4.13,4.13,0,0,1,1.27,1.87,10.78,10.78,0,0,1,.41,1.35c.11.48.2.83.28,1.27a36.33,36.33,0,0,1,.41,5.42,15.71,15.71,0,0,0,.44,4.22C17.1,160.93,17.68,160.58,18.77,158.74Zm16.54-9.13a18.89,18.89,0,0,1-3.87,2Zm-10.2,12.24c1-.72,1.85-1.33,2.7-1.88l1.25-.79.69-.39.75-.41c2-1.07,4-2.08,5.94-3.2,2.93-1.7,6.71-2.05,9.06-4.37l-.2-.55-.25.3c-1.14.29-2.13.32-3.11.51l.14-.11-.26.13a6.39,6.39,0,0,0-2,.76l-.93.63c-1.9.89-3.83,1.77-5.68,2.74-.93.49-1.83,1-2.7,1.53-.43.27-.86.55-1.27.84a2.88,2.88,0,0,0-.53.41l-.44.39a62.07,62.07,0,0,1-5.18,4.2A8.22,8.22,0,0,0,25.11,161.85Z"/><path class="cls-1" d="M53.86,151.83c1.27-.72,2.56-1.43,3.86-2.13,1-.62,2-1.25,2.9-1.9,4.67-2.83,10.67-4.66,15.91-7.09a2.83,2.83,0,0,0-.62-1.65c-6.09,1.56-11.6,4.7-17.58,6.55l-.11.11c-2.11,2-6.32,3.15-9.11,5.22-2.73,2.26-5.73,3.77-8.53,5.85C45.11,155.12,49.27,153.14,53.86,151.83Z"/><path class="cls-1" d="M11.65,177.24l6.43-2.75c3-1.34,5.71-2.63,8.27-3.88l3.71-1.86c1.14-.59,2.56-1.29,3.09-1.67l-.91.37-1.32.52-2.67,1-5.39,2C19.25,172.59,15.75,174.92,11.65,177.24Z"/><path class="cls-1" d="M35.5,165.58l-2.35,1.5c3.37-1.4,6.68-2.87,10-4.35,5.29-2.8,10.62-5.49,15.83-8.51.59-.33,1.19-.64,1.79-.94C50.31,156.88,39.91,160.47,32,166c-.16.11-.44.26-.66.39l1.74-.7,1.54-.64,3-1.3,6.06-2.69C41,162.54,38.21,164,35.5,165.58Z"/><path class="cls-1" d="M52.63,152.53l.91-.31,1-.57-.65.18Z"/><path class="cls-1" d="M41.94,151.07l-.12,0c-1,.47-1.93.93-2.92,1.39-1.28.85-2.64,1.67-4,2.44A38.1,38.1,0,0,0,41.94,151.07Z"/><path class="cls-1" d="M31.63,149.86l-1.25.46-.45.55.9-.29Z"/><path class="cls-1" d="M21.59,156.92a43.14,43.14,0,0,0,3.79-2.63c.49-.39.92-.76,1.28-1.11l.26-.25.12-.13.46-.25,1.83-1,.6-.69c-.87.29-1.74.6-2.59.94l-.59.24-.14.08-.27.22A13.08,13.08,0,0,0,24.92,154c-.23.29-.76,1.11-1,1.21-1,.55-2.34,1.55-4,2.68l-.24-.28c.05.13.1.27.16.41.58-.35,1.16-.7,1.72-1.06Z"/></g></g></svg>