<svg width="251" height="6" viewBox="0 0 251 6" fill="none" xmlns="http://www.w3.org/2000/svg">
<path d="M2 2C5.7 2 5.7 4 9.5 4C13.2 4 13.2 2 17 2C20.7 2 20.7 4 24.5 4C28.2 4 28.2 2 32 2C35.7 2 35.7 4 39.5 4C43.2 4 43.2 2 47 2C50.7 2 50.7 4 54.5 4C58.2 4 58.2 2 62 2C65.7 2 65.7 4 69.5 4C73.2 4 73.2 2 77 2C80.7 2 80.7 4 84.5 4C88.2 4 88.2 2 92 2C95.7 2 95.7 4 99.5 4C103.2 4 103.2 2 107 2C110.7 2 110.7 4 114.5 4C118.3 4 118.2 2 122 2C125.7 2 125.7 4 129.5 4C133.2 4 133.2 2 137 2C140.7 2 140.7 4 144.5 4C148.2 4 148.2 2 152 2C155.7 2 155.7 4 159.5 4C163.3 4 163.2 2 167 2C170.7 2 170.7 4 174.5 4C178.2 4 178.2 2 182 2C185.7 2 185.7 4 189.5 4C193.2 4 193.2 2 197 2C200.7 2 200.7 4 204.5 4C208.2 4 208.2 2 212 2C215.7 2 215.7 4 219.5 4C223.2 4 223.2 2 227 2C230.7 2 230.7 4 234.5 4C238.2 4 238.2 2 242 2C245.7 2 245.7 4 249.5 4" stroke="black" stroke-width="3" stroke-miterlimit="10" stroke-linecap="round"/>
</svg>
