<svg width="252" height="117" viewBox="0 0 252 117" fill="none" xmlns="http://www.w3.org/2000/svg">
<path d="M22.4616 22.9507C22.131 22.9035 21.7251 22.8087 21.244 22.6664C20.7832 22.5283 20.3299 22.5087 19.8838 22.6078C18.8111 22.3428 17.737 21.9818 16.6616 21.5248C15.5861 21.0678 14.613 20.5788 13.7423 20.0578C13.5849 19.7911 13.4232 19.5448 13.2572 19.3189C13.0955 19.0727 12.8498 18.8728 12.5199 18.7193C12.1107 18.2302 11.8101 17.6785 11.6184 17.0643C11.4308 16.4296 11.3108 15.7771 11.2583 15.1066C11.2058 14.4362 11.2166 13.7682 11.2908 13.1028C11.3692 12.4169 11.482 11.7701 11.6293 11.1623C12.1256 10.3078 12.7168 9.61123 13.403 9.07265C14.1137 8.51789 14.8326 7.97545 15.5595 7.44533C15.8501 7.37792 16.0693 7.2957 16.217 7.19868C16.3894 7.08549 16.5576 6.9927 16.7215 6.92031C16.9101 6.83175 17.0864 6.75127 17.2503 6.67888C17.4389 6.59032 17.6113 6.47713 17.7675 6.33932C18.2171 6.32614 18.6139 6.25948 18.9579 6.13932C19.3266 6.003 19.6851 5.86457 20.0334 5.72401C20.3859 5.56306 20.7444 5.42463 21.1089 5.30871C21.4733 5.19278 21.8803 5.12823 22.3298 5.11506C22.5311 4.9653 22.7545 4.86268 23 4.80721C23.2498 4.73134 23.4975 4.66567 23.743 4.6102C24.0132 4.53855 24.263 4.46268 24.4923 4.38258C24.7421 4.30671 24.9493 4.17946 25.114 4.00085C25.1822 4.18519 25.3123 4.276 25.5044 4.27326C25.7006 4.25013 25.8867 4.22488 26.0626 4.19752C26.1688 4.19827 26.2462 4.23559 26.2947 4.30948C26.3636 4.38759 26.4223 4.46359 26.4708 4.53748C26.5193 4.61137 26.5619 4.66274 26.5985 4.6916C26.6597 4.70429 26.7212 4.66386 26.7832 4.57033C26.8852 4.59147 26.9052 4.64882 26.8433 4.74235C26.7813 4.83589 26.7359 4.90095 26.707 4.93752C26.8745 4.95095 26.9986 5.01924 27.0795 5.14239C27.1849 5.24936 27.358 5.33843 27.5985 5.40958C27.659 5.5285 27.6625 5.61433 27.609 5.66707C27.5597 5.69941 27.5224 5.77677 27.497 5.89917C28.0709 6.20965 28.3972 6.58581 28.4758 7.02763C28.5586 7.44906 28.4842 7.85916 28.2526 8.25795C28.021 8.65673 27.6835 9.00165 27.2402 9.29271C26.7969 9.58377 26.3483 9.74608 25.8946 9.77966C24.8604 9.84183 23.8709 9.94518 22.9261 10.0897C22.0058 10.218 21.2069 10.5311 20.5292 11.0289C20.01 11.0702 19.5313 11.173 19.0929 11.3375C18.6792 11.4857 18.2672 11.6769 17.857 11.911C17.4714 12.1289 17.0917 12.3694 16.7181 12.6323C16.369 12.8791 15.9996 13.1216 15.6098 13.36C15.571 13.6498 15.4734 13.8636 15.3172 14.0014C15.1856 14.1231 15.0519 14.2549 14.916 14.397C14.8934 14.7114 14.9077 15.0016 14.9589 15.2676C15.0144 15.5131 15.0801 15.7607 15.156 16.0105C16.4177 16.6977 17.7928 17.2487 19.2812 17.6637C20.7901 18.0829 22.3073 18.4613 23.8331 18.799C23.9336 19.0326 24.0566 19.2602 24.2021 19.4819C24.3723 19.6873 24.5178 19.909 24.6387 20.1468C24.7638 20.3643 24.852 20.606 24.9032 20.8719C24.9587 21.1174 24.9199 21.4073 24.7868 21.7414C24.4378 21.9881 24.0624 22.2082 23.6606 22.4015C23.263 22.5744 22.8634 22.7574 22.4616 22.9507ZM33.9882 24.9257C33.3789 24.9909 32.7187 25.0455 32.0074 25.0895C31.2962 25.1335 30.604 25.0858 29.9308 24.9462C28.9108 24.7347 28.1579 24.3126 27.6721 23.68C27.6166 23.4345 27.5565 23.2624 27.4918 23.1639C27.4475 23.0696 27.4033 22.9753 27.359 22.8811C27.3393 22.7706 27.3362 22.6317 27.3497 22.4642C27.1641 22.1279 27.038 21.7613 26.9713 21.3645C26.9089 20.9473 26.8872 20.5386 26.9064 20.1383C26.9502 19.7218 27.0246 19.3117 27.1296 18.908C27.255 18.5085 27.4067 18.1357 27.5848 17.7896C27.6426 17.7165 27.6799 17.6391 27.6968 17.5575C27.7341 17.4802 27.7736 17.3926 27.8151 17.2948C27.9644 16.9853 28.1115 16.6861 28.2566 16.397C28.422 16.1122 28.6096 15.8745 28.8193 15.6839C28.7758 15.4834 28.8181 15.2794 28.9462 15.0719C29.0743 14.8644 29.2084 14.6795 29.3485 14.517C29.7948 13.8011 30.1647 13.1969 30.4583 12.7046C30.7765 12.1961 31.0926 11.6978 31.4065 11.2097C31.9437 10.3636 32.4583 9.52355 32.9504 8.68941C33.4424 7.85528 33.9187 6.9434 34.3792 5.95379C34.5636 5.88562 34.7008 5.8396 34.7908 5.81572C34.9217 5.8003 35.03 5.79085 35.1159 5.78737C35.445 6.0471 35.8353 6.31951 36.2868 6.60462C36.7426 6.86932 37.1337 7.03551 37.4601 7.10319C37.6021 7.23902 37.6872 7.34176 37.7153 7.41142C37.7476 7.46068 37.78 7.50994 37.8123 7.5592C37.9817 7.87091 38.1184 8.18649 38.2224 8.50592C38.3306 8.80495 38.3076 9.17251 38.1533 9.60861C37.9929 9.76683 37.8821 9.83959 37.8209 9.82691C37.6343 10.2137 37.4502 10.5373 37.2686 10.7975C37.1073 11.0619 36.9359 11.3243 36.7543 11.5845C36.5481 11.8609 36.352 12.1394 36.1662 12.42C35.9804 12.7006 35.8001 13.0568 35.6255 13.4887C35.5227 13.5738 35.4425 13.6529 35.3848 13.726C35.3475 13.8034 35.2978 13.8889 35.2359 13.9824C35.1739 14.0759 35.0997 14.1776 35.0131 14.2873C34.9511 14.3808 34.8607 14.4578 34.7418 14.5182C34.5706 15.0359 34.3798 15.4432 34.1693 15.74C33.9793 16.041 33.779 16.3399 33.5685 16.6367C33.2011 17.1775 32.854 17.7226 32.5274 18.2718C32.2211 18.8254 31.9694 19.4753 31.7721 20.2216C31.8825 20.202 31.9785 20.2006 32.0601 20.2175C32.1621 20.2387 32.2539 20.2577 32.3355 20.2746C32.5191 20.3127 32.727 20.3877 32.9591 20.4996C33.6387 20.3001 34.3419 20.2438 35.0686 20.3306C35.8156 20.4217 36.5483 20.5311 37.2665 20.6587C37.5521 20.7179 37.8377 20.7771 38.1233 20.8363C38.4089 20.8955 38.6783 20.9301 38.9315 20.9401C39.094 21.0801 39.1935 21.1646 39.2301 21.1935C39.2913 21.2062 39.3729 21.2231 39.4749 21.2442C39.6177 21.2738 39.7379 21.3094 39.8357 21.351C40.034 21.6261 40.2347 21.8379 40.438 21.9865C40.6412 22.135 40.8568 22.2754 41.0847 22.4078C41.2921 22.5359 41.4873 22.6721 41.6701 22.8164C41.8776 22.9445 42.0664 23.1113 42.2366 23.3168L42.178 24.677C42.2827 24.8902 42.3185 25.0253 42.2854 25.0823C42.2516 25.2454 42.1854 25.3594 42.0869 25.4241L42.0783 25.7733C41.7596 25.7711 41.5307 25.7981 41.3913 25.8543C41.2724 25.9148 41.1514 25.9854 41.0282 26.0663C40.8608 26.0528 40.7363 26.0376 40.6547 26.0207C40.5935 26.008 40.5323 25.9953 40.4711 25.9827C40.1855 25.9234 39.8282 25.9025 39.399 25.9199C38.8863 25.6222 38.3341 25.4119 37.7426 25.2893C37.5182 25.2427 37.2815 25.2043 37.0324 25.1739C36.7834 25.1436 36.5344 25.1132 36.2854 25.0829C36.0321 25.0729 35.7708 25.0507 35.5014 25.0161C35.2523 24.9857 34.9952 24.943 34.73 24.8881L33.9882 24.9257ZM49.4785 26.2545C49.4536 26.8876 49.3134 27.3586 49.0579 27.6673C48.8228 27.9802 48.5252 28.1845 48.1649 28.28C47.8209 28.4001 47.4427 28.4281 47.0305 28.3639C46.6183 28.2997 46.2349 28.199 45.8804 28.0617C45.7357 27.7338 45.6261 27.3387 45.5517 26.8765C45.4773 26.4143 45.4153 25.9439 45.3655 25.4655C45.32 24.9668 45.2826 24.4803 45.2532 24.0061C45.2443 23.5362 45.235 23.1193 45.2253 22.7556C45.378 22.532 45.4963 22.2693 45.5802 21.9675C45.6886 21.6496 45.7767 21.3274 45.8444 21.001C45.9325 20.6789 46.0103 20.3546 46.078 20.0282C46.1703 19.6856 46.2686 19.3656 46.3728 19.0681C46.6933 18.2409 47.0664 17.4672 47.4923 16.747C47.9387 16.0311 48.3301 15.2718 48.6667 14.4693C48.7456 14.2941 48.7612 14.1165 48.7134 13.9364C48.686 13.7605 48.7075 13.6054 48.778 13.471C48.8153 13.3937 48.887 13.3554 48.9933 13.3561C49.1037 13.3365 49.1797 13.2778 49.2213 13.18C49.329 12.9683 49.3773 12.7868 49.3661 12.6355C49.3753 12.4885 49.452 12.3236 49.5963 12.1407C49.7322 11.9987 49.9032 11.7895 50.1094 11.5131C50.3403 11.2205 50.4713 10.8966 50.5024 10.5414C50.7114 10.4571 50.9144 10.3502 51.1114 10.2208C51.3084 10.0915 51.5012 9.98253 51.6898 9.89397C51.903 9.78924 52.1222 9.70702 52.3473 9.64732C52.5929 9.59185 52.8686 9.59583 53.1746 9.65928C53.2955 9.89711 53.351 10.1427 53.341 10.3959C53.3515 10.6534 53.3517 10.9088 53.3418 11.162C53.3522 11.4195 53.3852 11.671 53.4407 11.9165C53.5004 12.1417 53.6399 12.3408 53.8593 12.514C53.8255 12.6772 53.7832 12.8812 53.7324 13.126C53.6817 13.3708 53.6411 13.6177 53.6108 13.8667C53.5847 14.0953 53.581 14.318 53.5999 14.5347C53.6435 14.7352 53.7405 14.8829 53.891 14.978C53.3208 15.881 52.7731 16.7781 52.2479 17.6692C51.7431 18.5645 51.2872 19.4806 50.8802 20.4175C50.4774 21.334 50.1439 22.2755 49.8797 23.242C49.6359 24.2127 49.5022 25.2169 49.4785 26.2545ZM65.3005 31.8328C64.9699 31.7856 64.564 31.6908 64.0829 31.5485C63.6221 31.4104 63.1688 31.3908 62.7227 31.4898C61.65 31.2249 60.5759 30.8639 59.5005 30.4069C58.425 29.9498 57.4519 29.4609 56.5812 28.9399C56.4238 28.6732 56.2621 28.4269 56.0961 28.201C55.9344 27.9547 55.6887 27.7549 55.3588 27.6013C54.9496 27.1122 54.649 26.5606 54.4572 25.9464C54.2697 25.3117 54.1497 24.6592 54.0972 23.9887C54.0447 23.3183 54.0555 22.6503 54.1297 21.9849C54.2081 21.299 54.3209 20.6522 54.4682 20.0444C54.9645 19.1899 55.5557 18.4933 56.2419 17.9547C56.9526 17.4 57.6715 16.8575 58.3984 16.3274C58.689 16.26 58.9081 16.1778 59.0559 16.0808C59.2283 15.9676 59.3965 15.8748 59.5604 15.8024C59.749 15.7138 59.9253 15.6334 60.0892 15.561C60.2778 15.4724 60.4502 15.3592 60.6064 15.2214C61.056 15.2082 61.4528 15.1416 61.7968 15.0214C62.1655 14.8851 62.524 14.7467 62.8723 14.6061C63.2248 14.4452 63.5833 14.3067 63.9477 14.1908C64.3122 14.0749 64.7192 14.0103 65.1687 13.9971C65.37 13.8474 65.5934 13.7448 65.8389 13.6893C66.0887 13.6134 66.3364 13.5478 66.5819 13.4923C66.8521 13.4206 67.1019 13.3448 67.3312 13.2647C67.581 13.1888 67.7882 13.0616 67.9529 12.8829C68.0211 13.0673 68.1512 13.1581 68.3432 13.1554C68.5395 13.1322 68.7256 13.107 68.9015 13.0796C69.0077 13.0804 69.0851 13.1177 69.1336 13.1916C69.2025 13.2697 69.2612 13.3457 69.3097 13.4196C69.3582 13.4935 69.4008 13.5448 69.4374 13.5737C69.4986 13.5864 69.5601 13.546 69.6221 13.4524C69.7241 13.4736 69.7441 13.5309 69.6821 13.6244C69.6202 13.718 69.5748 13.783 69.5459 13.8196C69.7134 13.833 69.8375 13.9013 69.9184 14.0245C70.0238 14.1315 70.1969 14.2205 70.4374 14.2917C70.4979 14.4106 70.5013 14.4964 70.4479 14.5492C70.3986 14.5815 70.3613 14.6589 70.3359 14.7813C70.9098 15.0917 71.2361 15.4679 71.3147 15.9097C71.3975 16.3312 71.3231 16.7413 71.0915 17.14C70.8599 17.5388 70.5224 17.8837 70.0791 18.1748C69.6358 18.4659 69.1872 18.6282 68.7335 18.6618C67.6993 18.7239 66.7098 18.8273 65.765 18.9718C64.8447 19.1001 64.0458 19.4132 63.3681 19.911C62.8489 19.9523 62.3702 20.0551 61.9318 20.2196C61.5181 20.3678 61.1061 20.559 60.6959 20.7931C60.3103 21.011 59.9306 21.2515 59.557 21.5144C59.2079 21.7612 58.8385 22.0037 58.4487 22.242C58.4099 22.5319 58.3123 22.7457 58.1561 22.8835C58.0245 23.0052 57.8908 23.137 57.7549 23.2791C57.7323 23.5935 57.7466 23.8837 57.7978 24.1496C57.8533 24.3952 57.919 24.6428 57.9949 24.8926C59.2566 25.5798 60.6317 26.1308 62.1201 26.5458C63.6289 26.965 65.1462 27.3434 66.6719 27.6811C66.7724 27.9147 66.8955 28.1423 67.041 28.3639C67.2112 28.5694 67.3567 28.7911 67.4776 29.0289C67.6027 29.2464 67.6909 29.488 67.7421 29.754C67.7976 29.9995 67.7588 30.2894 67.6257 30.6235C67.2767 30.8702 66.9013 31.0903 66.4995 31.2836C66.1019 31.4564 65.7023 31.6395 65.3005 31.8328ZM87.3588 35.1936C86.3712 35.0314 85.5084 34.8312 84.7706 34.5931C84.0531 34.3593 83.3691 34.0153 82.7186 33.5613C82.682 33.5324 82.6518 33.473 82.6279 33.3829C82.604 33.2929 82.5759 33.2232 82.5436 33.1739C82.4339 33.0874 82.2851 33.0352 82.0973 33.0176C81.9341 32.9837 81.7955 32.9337 81.6816 32.8676C81.5353 32.7521 81.312 32.5463 81.0118 32.25C80.7157 31.9333 80.446 31.6433 80.2028 31.3801C79.8948 31.0184 79.6072 30.6609 79.34 30.3076C79.0728 29.9543 78.8507 29.5891 78.6736 29.212C78.6293 29.1177 78.5562 29.06 78.4542 29.0388C78.3564 28.9973 78.2709 28.9477 78.1978 28.8899C77.5301 29.1345 76.9351 29.4898 76.4129 29.956C75.8908 30.4222 75.3868 30.9029 74.9012 31.3979C74.4156 31.893 73.9159 32.3532 73.4022 32.7786C72.8885 33.204 72.2879 33.4837 71.6006 33.6178C71.417 33.5797 71.2601 33.5153 71.13 33.4245C70.9999 33.3337 70.8842 33.2246 70.783 33.0972C70.6775 32.9902 70.572 32.8833 70.4665 32.7763C70.3611 32.6693 70.2412 32.5806 70.1068 32.5102C70.1576 32.2654 70.1531 32.0305 70.0934 31.8053C70.0541 31.5844 70.0025 31.3716 69.9385 31.1668C69.895 30.9663 69.8698 30.7802 69.8628 30.6086C69.8601 30.4165 69.9368 30.2516 70.0931 30.1138C69.996 29.966 69.8399 29.7953 69.6247 29.6018C69.7725 29.5048 69.8468 29.4031 69.8475 29.2969C69.8687 29.1949 69.8694 29.0887 69.8498 28.9782C69.8301 28.8678 69.8126 28.7471 69.7972 28.6163C69.8021 28.4896 69.8581 28.3736 69.9651 28.2681C70.0671 28.2892 70.1937 28.2942 70.345 28.283C70.2564 28.0945 70.2142 27.99 70.2185 27.9696C70.2473 27.933 70.2375 27.8778 70.189 27.8039C70.1736 27.673 70.2088 27.6059 70.2946 27.6024C70.3847 27.5785 70.4747 27.5546 70.5648 27.5307C70.8536 26.5481 71.2195 25.6559 71.6623 24.8541C72.1051 24.0523 72.5722 23.2874 73.0636 22.5595C73.5549 21.8316 74.0382 21.0914 74.5134 20.3389C75.0089 19.5905 75.456 18.7684 75.8545 17.8723C76.1255 17.6944 76.3538 17.4652 76.5397 17.1845C76.7459 16.9082 76.9522 16.6318 77.1584 16.3554C77.385 16.0832 77.6198 15.8234 77.8626 15.5759C78.13 15.3122 78.4562 15.1245 78.841 15.0128C79.1224 15.0924 79.3605 15.2269 79.5552 15.4162C79.7543 15.5851 80.0191 15.6932 80.3497 15.7405C80.3898 15.8552 80.4196 15.9677 80.4393 16.0782C80.4793 16.1929 80.5296 16.3097 80.59 16.4286L81.068 16.432C81.2544 16.6621 81.3995 16.9369 81.5035 17.2563C81.6321 17.5596 81.6953 17.8705 81.693 18.1892C81.6908 18.5079 81.6193 18.8016 81.4785 19.0702C81.3419 19.3185 81.1037 19.4925 80.7638 19.5923C80.7631 19.6985 80.7462 19.7801 80.7131 19.8371C80.7046 19.8779 80.686 19.9166 80.6571 19.9531C80.6283 19.9897 80.6096 20.0284 80.6011 20.0692C80.5927 20.11 80.6106 20.1775 80.6549 20.2718C80.1834 20.4932 79.7886 20.8581 79.4704 21.3666C79.1522 21.8751 78.9385 22.3415 78.8293 22.7656C79.1249 22.5716 79.4387 22.392 79.7708 22.2268C80.1276 22.0454 80.4822 21.8743 80.8347 21.7133C81.2076 21.5566 81.558 21.4059 81.8859 21.2611C82.2342 21.1205 82.5519 20.9736 82.839 20.8204C83.639 20.348 84.3831 19.9916 85.0713 19.7513C85.784 19.4949 86.5358 19.2039 87.3267 18.8785C87.4983 18.8716 87.6207 18.897 87.6939 18.9547C87.7916 18.9962 87.8873 19.048 87.9808 19.1099C88.0062 18.9875 87.9802 18.9077 87.9028 18.8703C87.8459 18.8373 87.8424 18.7514 87.8924 18.6129C88.2153 18.5947 88.4995 18.5579 88.7451 18.5024C88.9948 18.4265 89.2629 18.3651 89.5492 18.3181C89.6948 18.5398 89.828 18.7695 89.9489 19.0073C90.074 19.2248 90.2751 19.3835 90.5523 19.4835C90.6077 19.729 90.6942 19.9278 90.8116 20.0798C90.9333 20.2114 91.0549 20.343 91.1766 20.4746C91.2982 20.6062 91.3952 20.754 91.4676 20.918C91.5604 21.0861 91.5853 21.3253 91.5422 21.6355C91.431 21.7614 91.3075 21.8954 91.1717 22.0374C91.0562 22.1837 90.9345 22.3606 90.8063 22.5681C90.3222 22.8507 89.8364 23.0904 89.3487 23.2871C88.8815 23.4881 88.4063 23.6768 87.9229 23.8532C87.4395 24.0296 86.9459 24.2038 86.4422 24.376C85.9384 24.5481 85.4138 24.7691 84.8685 25.039C84.7369 25.1607 84.5768 25.2658 84.3883 25.3543C84.2243 25.4267 84.0481 25.5072 83.8595 25.5958C83.6751 25.6639 83.4989 25.7444 83.3307 25.8372C83.1625 25.93 83.0207 26.0495 82.9053 26.1958C82.8399 26.2035 82.7766 26.201 82.7154 26.1883C82.6542 26.1756 82.5908 26.1732 82.5254 26.1809C82.4346 26.311 82.3094 26.402 82.1496 26.454C82.0103 26.5102 81.9055 26.6055 81.8351 26.7399C82.0057 27.4561 82.2999 28.0383 82.7176 28.4866C83.1352 28.9349 83.6332 29.3041 84.2113 29.5942C84.7937 29.8639 85.4397 30.083 86.1495 30.2514C86.8635 30.3994 87.6081 30.5538 88.3832 30.7145C88.4691 30.7111 88.5081 30.6766 88.5004 30.6112C88.5173 30.5296 88.5747 30.5095 88.6724 30.5511C89.1282 30.8158 89.4569 31.1286 89.6587 31.4896C89.8647 31.8302 90.1216 32.1813 90.4296 32.5431C90.2281 33.3098 89.8603 33.9037 89.3261 34.3249C88.792 34.7461 88.1362 35.0356 87.3588 35.1936ZM120.965 27.9594C120.455 27.8536 119.896 27.7802 119.287 27.7392C118.683 27.6777 118.087 27.6286 117.499 27.5917C117.078 27.5683 116.67 27.5369 116.273 27.4973C115.898 27.462 115.555 27.4228 115.245 27.3797C115.009 27.7989 114.784 28.1671 114.569 28.4843C114.354 28.8015 114.131 29.1063 113.9 29.3989C113.665 29.7118 113.438 30.0371 113.219 30.3747C113.025 30.6961 112.825 31.0481 112.618 31.4307C112.346 31.7148 112.109 31.9849 111.907 32.2408C111.73 32.4807 111.564 32.7655 111.411 33.0954C111.102 33.3506 110.851 33.6389 110.657 33.9604C110.467 34.2614 110.316 34.5279 110.204 34.76L110.005 35.1018C109.858 35.1989 109.765 35.2861 109.728 35.3634C109.695 35.4204 109.631 35.471 109.537 35.5153C109.47 35.7355 109.352 35.9451 109.183 36.1441C109.121 36.2376 109.069 36.3333 109.028 36.431C108.99 36.5084 108.967 36.5675 108.959 36.6083C108.917 36.8123 108.838 36.9343 108.723 36.9744C108.723 37.0806 108.699 37.1928 108.654 37.3109C108.612 37.4087 108.571 37.5065 108.529 37.6042C108.417 37.8364 108.356 38.0259 108.347 38.1729C108.392 38.2672 108.428 38.3492 108.456 38.4189C108.504 38.4927 108.528 38.5828 108.528 38.689C108.633 38.796 108.714 38.866 108.771 38.8991C108.84 38.9772 108.948 39.074 109.094 39.1895L109.306 39.5525C109.285 40.1653 109.096 40.6154 108.739 40.903C108.352 41.2272 107.792 41.3131 107.058 41.1608L106.69 41.0847C106.61 40.9616 106.565 40.8673 106.558 40.8018C106.407 40.7068 106.285 40.6283 106.191 40.5664C106.098 40.5044 106.023 40.4038 105.967 40.2645C105.727 40.0871 105.534 39.9407 105.388 39.8253L105.144 39.6152C105.191 39.3908 105.216 39.2684 105.22 39.248C105.115 39.0348 105.046 38.8075 105.01 38.5662C104.996 38.3291 104.991 38.0941 104.997 37.8613C104.994 37.6692 104.979 37.4853 104.952 37.3094C104.945 37.1377 104.913 36.9822 104.857 36.8429C105.062 35.6513 105.381 34.675 105.815 33.914C106.25 33.153 106.688 32.4247 107.13 31.7291C107.378 31.355 107.626 30.9808 107.874 30.6067C108.126 30.2121 108.359 29.8032 108.575 29.3797L108.914 29.1309C109.124 28.8341 109.291 28.5921 109.415 28.4051C109.564 28.2018 109.712 27.9986 109.861 27.7953C109.951 27.6652 110.03 27.5432 110.096 27.4293C110.187 27.2991 110.263 27.1873 110.325 27.0938C110.203 27.0684 110.089 27.0553 109.982 27.0546C109.88 27.0334 109.776 27.0225 109.67 27.0218C109.543 27.0168 109.427 27.0139 109.321 27.0132C109.219 26.992 109.117 26.9709 109.015 26.9497C108.872 26.9201 108.772 26.8888 108.715 26.8557C108.47 26.9111 108.214 26.9114 107.949 26.8564L107.643 26.793C107.582 26.7803 107.521 26.7676 107.459 26.7549C107.423 26.726 107.384 26.7074 107.343 26.6989C107.139 26.6566 106.97 26.6534 106.835 26.6892C106.59 26.6385 106.355 26.5898 106.131 26.5433L105.825 26.4798C105.784 26.4714 105.731 26.471 105.666 26.4787C105.604 26.466 105.553 26.4555 105.513 26.447C105.37 26.4174 105.219 26.3755 105.06 26.3212C104.905 26.2466 104.747 26.1393 104.584 25.9992C104.407 25.622 104.28 25.4148 104.202 25.3775L104.003 24.9532C104.008 24.8266 104.001 24.708 103.981 24.5976C103.966 24.4667 103.952 24.3257 103.941 24.1744C103.902 23.9535 103.865 23.7224 103.83 23.4811C103.819 23.2236 103.848 22.9317 103.916 22.6053C103.97 22.4463 104.036 22.3324 104.114 22.2634C104.192 22.1945 104.258 22.1337 104.311 22.081L104.498 21.641L104.89 21.7541L105.747 21.9317C106.399 22.0671 107.067 22.1841 107.748 22.2829C108.434 22.3613 109.14 22.4439 109.867 22.5307C110.284 22.5745 110.7 22.6183 111.116 22.6621C111.553 22.7101 112 22.7603 112.458 22.8125C112.577 22.6459 112.695 22.4894 112.81 22.3431L113.148 22.2535C113.519 22.3093 113.764 22.4131 113.881 22.5652C114.023 22.701 114.135 22.8305 114.216 22.9536C114.673 23.0059 115.13 23.0581 115.587 23.1104C116.069 23.1465 116.553 23.1723 117.039 23.188C117.754 23.2298 118.467 23.2818 119.177 23.344C119.908 23.4105 120.6 23.5114 121.253 23.6467C121.538 23.7059 121.812 23.7732 122.072 23.8486C122.333 23.924 122.572 24.0054 122.788 24.0927L123.049 24.3703C123.085 24.5054 123.144 24.6345 123.224 24.7577C123.326 24.885 123.427 25.0124 123.528 25.1398C123.726 25.4149 123.916 25.7309 124.098 26.0876C124.279 26.4444 124.278 26.9122 124.094 27.4911C123.88 27.7021 123.728 27.8195 123.638 27.8434L123.286 28.1534L122.987 28.0594C122.864 28.034 122.748 28.0312 122.637 28.0508C122.531 28.0501 122.423 28.0595 122.312 28.0792C122.222 28.103 122.132 28.1269 122.042 28.1508C121.956 28.1543 121.86 28.1557 121.754 28.1549C121.57 28.1168 121.418 28.0851 121.295 28.0597C121.197 28.0182 121.087 27.9847 120.965 27.9594ZM134.321 36.505C134.249 36.7456 134.221 36.9844 134.236 37.2215C134.251 37.4586 134.275 37.6978 134.31 37.9391C134.37 38.1642 134.418 38.3975 134.453 38.6388C134.488 38.8801 134.502 39.1172 134.497 39.35C134.478 39.6441 134.413 39.9603 134.3 40.2986C134.191 40.6165 134.052 40.9281 133.883 41.2334C133.717 41.5182 133.525 41.7763 133.307 42.0077C133.093 42.2186 132.862 42.362 132.612 42.4379C132.25 42.7459 131.844 42.9596 131.394 43.079C130.943 43.1984 130.515 43.3649 130.109 43.5786C129.855 43.6749 129.579 43.724 129.281 43.726C129.003 43.7322 128.715 43.7363 128.417 43.7383C128.167 43.8142 127.874 43.8918 127.539 43.9711C127.207 44.0301 126.866 44.0869 126.514 44.1417C126.166 44.176 125.823 44.1899 125.484 44.1834C125.149 44.1566 124.861 44.1075 124.621 44.0364C123.962 44.1339 123.331 44.1519 122.727 44.0905C122.139 44.0536 121.474 43.8733 120.732 43.5493C119.977 43.4991 119.3 43.3268 118.701 43.0325C118.123 42.7424 117.625 42.3732 117.208 41.9249C116.815 41.4604 116.485 40.9453 116.219 40.3796C115.978 39.7977 115.803 39.2081 115.693 38.6108C115.771 37.4142 116.029 36.3721 116.468 35.4845C116.912 34.5764 117.441 33.7712 118.054 33.0686C118.693 32.3499 119.378 31.7153 120.109 31.1648C120.844 30.5939 121.555 30.0391 122.241 29.5005C122.355 29.5667 122.447 29.5857 122.516 29.5576C122.611 29.5134 122.697 29.4568 122.775 29.3879C122.857 29.2985 122.938 29.2194 123.016 29.1505C123.114 29.0858 123.217 29.0539 123.323 29.0546C123.529 28.7782 123.78 28.5961 124.074 28.5083C124.394 28.4044 124.665 28.2265 124.887 27.9747C125.079 27.972 125.245 27.9425 125.384 27.8863C125.524 27.8301 125.655 27.7615 125.778 27.6807C125.921 27.6041 126.063 27.5377 126.202 27.4814C126.346 27.4048 126.503 27.363 126.675 27.3561L126.745 27.0195C127.146 26.9324 127.449 26.8038 127.655 26.6336C127.885 26.4473 128.154 26.2265 128.462 25.9713C128.65 25.989 128.795 26.0084 128.897 26.0295C129.019 26.0549 129.197 26.0704 129.43 26.0762C129.652 25.8244 129.839 25.6398 129.991 25.5224C130.164 25.4092 130.399 25.2985 130.698 25.1903C130.918 25.3635 131.166 25.5 131.443 25.6C131.741 25.7043 131.979 25.8919 132.156 26.1628C132.135 26.371 132.162 26.5469 132.238 26.6904C132.319 26.8136 132.41 26.9388 132.512 27.0662C132.617 27.1732 132.71 27.2883 132.791 27.4114C132.892 27.5388 132.944 27.6985 132.947 27.8905C133.024 27.9279 133.078 27.9282 133.106 27.8917C133.156 27.8593 133.219 27.8618 133.296 27.8991C133.298 28.1974 133.33 28.406 133.39 28.5249C133.455 28.6234 133.5 28.8138 133.527 29.0959C133.383 29.2787 133.257 29.476 133.149 29.6877C133.066 29.8832 132.912 30.0109 132.687 30.0706C132.637 30.2091 132.66 30.2992 132.758 30.3407C132.86 30.3619 132.911 30.4256 132.91 30.5318C132.892 30.7196 132.834 30.8459 132.736 30.9105C133.06 31.8076 133.324 32.7452 133.525 33.7231C133.731 34.6806 133.996 35.6079 134.321 36.505ZM129.893 38.6189C130.021 38.4114 130.161 38.249 130.313 38.1316C130.486 38.0184 130.612 37.8211 130.691 37.5397C130.623 37.3554 130.587 37.2203 130.584 37.1345C130.584 37.0283 130.606 36.8731 130.648 36.6692C130.331 35.9437 130.083 35.1902 129.904 34.4085C129.73 33.6065 129.505 32.847 129.228 32.13C129.17 32.2031 129.082 32.2699 128.963 32.3304C128.844 32.3908 128.736 32.3471 128.639 32.1994C128.564 32.3541 128.467 32.4617 128.349 32.5222C128.234 32.5622 128.115 32.5695 127.993 32.5442C127.875 32.4984 127.748 32.4403 127.614 32.3699C127.504 32.2833 127.407 32.1887 127.322 32.0859C126.633 32.4324 125.946 32.7688 125.262 33.0949C124.577 33.421 123.939 33.8312 123.347 34.3256C123.257 34.3494 123.202 34.3593 123.181 34.355C123.165 34.3304 123.102 34.3279 122.991 34.3476C122.748 34.7013 122.47 35.016 122.157 35.2916C121.87 35.5511 121.58 35.8208 121.287 36.1006C120.995 36.3805 120.73 36.6871 120.49 37.0205C120.251 37.3538 120.07 37.7632 119.949 38.2485C120.236 38.606 120.608 38.864 121.065 39.0225C121.521 39.181 121.998 39.2906 122.496 39.3513C123.015 39.4162 123.517 39.4565 124.003 39.4722C124.514 39.4717 124.973 39.5138 125.381 39.5984C126.28 39.572 127.07 39.4591 127.749 39.2596C128.433 39.0397 129.148 38.8261 129.893 38.6189ZM168.718 47.4666C168.046 48.2423 167.262 48.7924 166.365 49.1171C165.472 49.4213 164.512 49.6372 163.486 49.7648C162.464 49.872 161.397 49.938 160.285 49.9629C159.194 49.992 158.119 50.0988 157.059 50.2834C156.774 50.2242 156.517 50.1815 156.288 50.1554C156.08 50.1335 155.869 50.1218 155.657 50.1203C155.469 50.1026 155.279 50.0951 155.087 50.0979C154.899 50.0802 154.691 50.0583 154.462 50.0322C154.385 49.9949 154.33 50.0047 154.297 50.0617C154.268 50.0982 154.229 50.1327 154.18 50.165C153.82 50.1543 153.498 50.1194 153.212 50.0602C152.947 50.0052 152.722 49.9586 152.539 49.9206C152.294 49.8698 152.033 49.8476 151.755 49.8538C151.493 49.8846 151.262 49.8687 151.063 49.806C149.55 49.4072 148.458 48.617 147.788 47.4356C147.143 46.238 146.955 44.731 147.226 42.9147C147.267 42.817 147.259 42.7515 147.202 42.7184C147.166 42.6896 147.131 42.6505 147.099 42.6013C147.141 42.3973 147.198 42.2281 147.268 42.0938C147.359 41.9637 147.407 41.7822 147.413 41.5493C148.176 40.5373 148.993 39.6217 149.865 38.8025C150.742 37.9629 151.725 37.2732 152.816 36.7334C152.984 36.6406 153.132 36.5436 153.259 36.4423C153.386 36.3411 153.503 36.2377 153.61 36.1322C153.738 36.031 153.871 35.9523 154.01 35.896C154.154 35.8194 154.322 35.7797 154.514 35.777C155.044 35.3762 155.647 35.0332 156.323 34.7479C156.999 34.4625 157.702 34.2039 158.431 33.9721C159.164 33.7199 159.885 33.4757 160.593 33.2396C161.326 32.9874 162.007 32.6816 162.634 32.3224C162.838 32.4709 162.994 32.5354 163.105 32.5157C163.215 32.4961 163.328 32.5193 163.441 32.5855C163.521 32.9211 163.67 33.1755 163.89 33.3486C164.129 33.526 164.357 33.7115 164.572 33.905C164.812 34.0824 165.025 34.2862 165.211 34.5163C165.398 34.7464 165.52 35.0272 165.579 35.3585C165.457 35.3332 165.385 35.3715 165.364 35.4735C165.367 35.5593 165.379 35.6574 165.399 35.7679C165.423 35.8579 165.414 35.9519 165.372 36.0496C165.355 36.1312 165.275 36.1572 165.133 36.1276C165.132 36.2338 165.18 36.3077 165.278 36.3493C165.401 36.3746 165.451 36.4383 165.43 36.5403C165.409 36.6423 165.361 36.7176 165.287 36.7661C165.234 36.8188 165.213 36.9208 165.224 37.0721C164.761 37.2527 164.249 37.4125 163.688 37.5516C163.148 37.6949 162.573 37.8522 161.963 38.0236C161.378 38.1788 160.755 38.3583 160.096 38.562C159.461 38.7496 158.826 38.9903 158.191 39.2841C157.556 39.5779 156.899 39.9205 156.223 40.3121C155.55 40.6832 154.891 41.0892 154.247 41.53C153.602 41.9709 152.984 42.4384 152.392 42.9327C151.804 43.4066 151.288 43.8953 150.843 44.3989C150.863 44.5093 150.887 44.5994 150.915 44.669C150.968 44.7225 151.004 44.8045 151.024 44.9149C151.668 45.0911 152.27 45.2159 152.829 45.2893C153.413 45.3465 153.978 45.4955 154.523 45.7363C154.593 45.7082 154.647 45.6555 154.684 45.5781C154.721 45.5008 154.785 45.4501 154.875 45.4263C156.063 45.5449 157.182 45.5855 158.233 45.548C159.287 45.49 160.364 45.4261 161.464 45.3562C161.313 45.2612 161.171 45.1785 161.037 45.1081C160.927 45.0215 160.815 44.9451 160.701 44.8789C160.62 44.7558 160.637 44.6742 160.752 44.6341C160.891 44.5779 161.01 44.5175 161.109 44.4528C160.857 44.2304 160.665 43.9777 160.532 43.6949C160.419 43.4163 160.385 43.0687 160.429 42.6523C160.572 42.5756 160.659 42.4659 160.688 42.3231C160.718 42.1803 160.68 42.0555 160.575 41.9485C160.497 41.9112 160.446 41.9006 160.422 41.9168C160.397 41.9329 160.37 41.9593 160.341 41.9959C160.333 42.0367 160.314 42.0754 160.285 42.1119C160.261 42.1281 160.212 42.1073 160.139 42.0496C160.197 41.8702 160.27 41.7257 160.356 41.616C160.463 41.5105 160.554 41.3804 160.629 41.2257L163.032 40.2559C163.223 40.4656 163.46 40.7063 163.744 40.978C164.032 41.2292 164.329 41.4928 164.633 41.7687C164.962 42.0284 165.289 42.2984 165.614 42.5785C165.964 42.8424 166.283 43.1001 166.571 43.3513C166.831 43.5329 167.052 43.749 167.234 43.9995C167.417 44.25 167.586 44.5086 167.744 44.7753C167.906 45.0216 168.067 45.2679 168.229 45.5142C168.411 45.7647 168.63 45.991 168.886 46.193C168.79 46.4497 168.756 46.666 168.783 46.8419C168.811 47.0178 168.789 47.226 168.718 47.4666ZM186.064 47.2333C185.993 47.4739 185.964 47.7127 185.979 47.9498C185.994 48.1869 186.019 48.4261 186.054 48.6674C186.113 48.8925 186.161 49.1258 186.196 49.3671C186.231 49.6084 186.246 49.8455 186.24 50.0783C186.221 50.3724 186.156 50.6886 186.043 51.0269C185.935 51.3448 185.796 51.6564 185.626 51.9617C185.461 52.2465 185.269 52.5046 185.051 52.736C184.837 52.9469 184.605 53.0903 184.355 53.1662C183.993 53.4742 183.587 53.6879 183.137 53.8073C182.687 53.9267 182.259 54.0932 181.853 54.3069C181.599 54.4032 181.322 54.4523 181.024 54.4543C180.746 54.4605 180.458 54.4646 180.16 54.4666C179.91 54.5425 179.617 54.6201 179.282 54.6994C178.95 54.7584 178.609 54.8152 178.257 54.87C177.91 54.9043 177.566 54.9182 177.227 54.9117C176.892 54.8849 176.605 54.8358 176.364 54.7647C175.706 54.8622 175.074 54.8802 174.47 54.8188C173.882 54.7819 173.217 54.6016 172.476 54.2776C171.72 54.2274 171.043 54.0551 170.445 53.7608C169.866 53.4707 169.369 53.1015 168.951 52.6532C168.558 52.1887 168.228 51.6736 167.963 51.1079C167.722 50.526 167.546 49.9364 167.436 49.3391C167.514 48.1425 167.772 47.1004 168.212 46.2128C168.655 45.3047 169.184 44.4995 169.798 43.7969C170.436 43.0782 171.121 42.4436 171.852 41.8931C172.587 41.3222 173.298 40.7674 173.984 40.2288C174.098 40.295 174.19 40.314 174.26 40.2859C174.354 40.2417 174.44 40.1851 174.518 40.1162C174.601 40.0268 174.681 39.9477 174.759 39.8788C174.858 39.8141 174.96 39.7822 175.066 39.7829C175.272 39.5065 175.523 39.3244 175.818 39.2366C176.137 39.1327 176.408 38.9548 176.63 38.703C176.822 38.7003 176.988 38.6708 177.127 38.6146C177.267 38.5584 177.398 38.4898 177.521 38.409C177.665 38.3324 177.806 38.266 177.945 38.2097C178.089 38.1331 178.247 38.0913 178.418 38.0844L178.488 37.7478C178.889 37.6607 179.192 37.5321 179.398 37.3619C179.628 37.1756 179.897 36.9548 180.205 36.6996C180.393 36.7173 180.538 36.7367 180.64 36.7578C180.763 36.7832 180.94 36.7987 181.173 36.8045C181.395 36.5527 181.583 36.3681 181.735 36.2507C181.907 36.1375 182.143 36.0268 182.442 35.9186C182.661 36.0917 182.909 36.2283 183.187 36.3283C183.484 36.4326 183.722 36.6202 183.9 36.8911C183.878 37.0993 183.905 37.2752 183.982 37.4187C184.063 37.5419 184.154 37.6671 184.255 37.7945C184.36 37.9015 184.454 38.0166 184.534 38.1397C184.636 38.2671 184.688 38.4268 184.69 38.6188C184.768 38.6562 184.821 38.6565 184.85 38.62C184.899 38.5876 184.962 38.5901 185.04 38.6274C185.042 38.9257 185.073 39.1343 185.133 39.2532C185.198 39.3517 185.244 39.5421 185.27 39.8242C185.126 40.007 185 40.2043 184.892 40.416C184.809 40.6115 184.655 40.7392 184.43 40.7989C184.38 40.9374 184.404 41.0275 184.502 41.069C184.604 41.0902 184.654 41.1539 184.653 41.2601C184.636 41.4479 184.578 41.5742 184.479 41.6388C184.804 42.5359 185.067 43.4734 185.268 44.4514C185.474 45.4089 185.739 46.3362 186.064 47.2333ZM181.636 49.3472C181.764 49.1397 181.904 48.9773 182.056 48.8599C182.229 48.7467 182.355 48.5494 182.434 48.268C182.366 48.0837 182.33 47.9486 182.327 47.8628C182.328 47.7566 182.349 47.6014 182.392 47.3975C182.074 46.672 181.826 45.9185 181.647 45.1368C181.473 44.3348 181.248 43.5752 180.971 42.8583C180.913 42.9314 180.825 42.9982 180.706 43.0587C180.587 43.1191 180.479 43.0754 180.382 42.9277C180.307 43.0824 180.211 43.19 180.092 43.2505C179.977 43.2905 179.859 43.2978 179.736 43.2725C179.618 43.2267 179.492 43.1686 179.357 43.0982C179.248 43.0116 179.15 42.917 179.065 42.8142C178.376 43.1607 177.69 43.4971 177.005 43.8232C176.32 44.1493 175.682 44.5595 175.09 45.0539C175 45.0777 174.945 45.0876 174.925 45.0833C174.908 45.0587 174.845 45.0562 174.735 45.0759C174.491 45.4296 174.213 45.7443 173.901 46.0199C173.613 46.2794 173.323 46.5491 173.031 46.8289C172.739 47.1088 172.473 47.4154 172.234 47.7488C171.994 48.0821 171.814 48.4915 171.692 48.9768C171.979 49.3343 172.351 49.5923 172.808 49.7508C173.264 49.9093 173.742 50.0189 174.24 50.0796C174.758 50.1445 175.26 50.1848 175.747 50.2005C176.257 50.2 176.717 50.2421 177.125 50.3267C178.024 50.3003 178.813 50.1874 179.493 49.9879C180.177 49.768 180.891 49.5544 181.636 49.3472ZM218.087 48.0963C217.577 47.9906 217.018 47.9172 216.409 47.8761C215.805 47.8147 215.209 47.7655 214.62 47.7287C214.2 47.7053 213.791 47.6738 213.395 47.6343C213.02 47.5989 212.677 47.5597 212.367 47.5167C212.131 47.9359 211.905 48.3041 211.691 48.6212C211.476 48.9384 211.253 49.2433 211.022 49.5358C210.787 49.8488 210.56 50.1741 210.341 50.5117C210.147 50.8331 209.946 51.1851 209.739 51.5677C209.468 51.8518 209.231 52.1218 209.029 52.3778C208.852 52.6176 208.686 52.9025 208.533 53.2324C208.224 53.4876 207.973 53.7759 207.779 54.0973C207.589 54.3983 207.438 54.6649 207.326 54.897L207.127 55.2388C206.979 55.3358 206.887 55.423 206.85 55.5004C206.816 55.5574 206.753 55.608 206.659 55.6523C206.592 55.8724 206.474 56.082 206.305 56.281C206.243 56.3746 206.191 56.4702 206.149 56.568C206.112 56.6454 206.089 56.7045 206.081 56.7453C206.039 56.9493 205.96 57.0713 205.845 57.1113C205.845 57.2176 205.821 57.3297 205.776 57.4479C205.734 57.5457 205.692 57.6435 205.651 57.7412C205.539 57.9733 205.478 58.1629 205.469 58.3099C205.513 58.4042 205.55 58.4862 205.578 58.5558C205.626 58.6297 205.65 58.7198 205.649 58.826C205.755 58.933 205.836 59.003 205.893 59.0361C205.962 59.1142 206.07 59.211 206.216 59.3264L206.428 59.6895C206.407 60.3022 206.218 60.7524 205.861 61.04C205.474 61.3641 204.914 61.4501 204.179 61.2978L203.812 61.2217C203.731 61.0985 203.687 61.0042 203.679 60.9388C203.529 60.8438 203.407 60.7653 203.313 60.7033C203.22 60.6414 203.145 60.5408 203.089 60.4014C202.849 60.2241 202.656 60.0777 202.51 59.9622L202.266 59.7521C202.312 59.5277 202.338 59.4053 202.342 59.3849C202.237 59.1717 202.167 58.9445 202.132 58.7032C202.118 58.4661 202.113 58.2311 202.119 57.9983C202.116 57.8062 202.101 57.6222 202.074 57.4464C202.067 57.2747 202.035 57.1192 201.979 56.9799C202.184 55.7883 202.503 54.812 202.937 54.051C203.372 53.29 203.81 52.5617 204.252 51.8661C204.5 51.492 204.748 51.1178 204.995 50.7437C205.247 50.3491 205.481 49.9401 205.697 49.5167L206.035 49.2678C206.246 48.971 206.413 48.7291 206.537 48.542C206.686 48.3388 206.834 48.1355 206.983 47.9323C207.073 47.8022 207.152 47.6802 207.218 47.5662C207.309 47.4361 207.385 47.3243 207.447 47.2308C207.325 47.2054 207.21 47.1923 207.104 47.1916C207.002 47.1704 206.898 47.1595 206.792 47.1587C206.665 47.1537 206.549 47.1509 206.443 47.1501C206.341 47.129 206.239 47.1078 206.137 47.0867C205.994 47.0571 205.894 47.0257 205.837 46.9926C205.591 47.0481 205.336 47.0484 205.071 46.9934L204.765 46.9299C204.704 46.9172 204.642 46.9046 204.581 46.8919C204.545 46.863 204.506 46.8444 204.465 46.8359C204.261 46.7936 204.092 46.7904 203.957 46.8262C203.712 46.7754 203.477 46.7268 203.253 46.6803L202.947 46.6168C202.906 46.6084 202.853 46.608 202.787 46.6157C202.726 46.603 202.675 46.5924 202.634 46.584C202.492 46.5544 202.341 46.5124 202.182 46.4582C202.027 46.3836 201.869 46.2762 201.706 46.1362C201.529 45.759 201.402 45.5518 201.324 45.5145L201.125 45.0902C201.13 44.9635 201.123 44.845 201.103 44.7345C201.088 44.6037 201.074 44.4626 201.063 44.3114C201.024 44.0905 200.987 43.8594 200.952 43.618C200.941 43.3606 200.97 43.0686 201.037 42.7422C201.092 42.5833 201.158 42.4693 201.236 42.4004C201.314 42.3315 201.38 42.2707 201.433 42.2179L201.62 41.778L202.012 41.8911L202.869 42.0687C203.521 42.2041 204.189 42.3211 204.87 42.4199C205.556 42.4983 206.262 42.5809 206.989 42.6677C207.405 42.7115 207.822 42.7553 208.238 42.7991C208.675 42.8471 209.122 42.8973 209.579 42.9495C209.699 42.7828 209.817 42.6263 209.932 42.4801L210.27 42.3905C210.641 42.4463 210.886 42.5501 211.003 42.7021C211.145 42.838 211.257 42.9674 211.337 43.0906C211.795 43.1428 212.252 43.1951 212.709 43.2473C213.191 43.2834 213.675 43.3093 214.161 43.325C214.876 43.3668 215.589 43.4188 216.299 43.481C217.03 43.5475 217.722 43.6483 218.375 43.7837C218.66 43.8429 218.933 43.9102 219.194 43.9856C219.455 44.061 219.694 44.1423 219.91 44.2296L220.171 44.5073C220.207 44.6424 220.265 44.7715 220.346 44.8946C220.448 45.022 220.549 45.1494 220.65 45.2768C220.848 45.5519 221.038 45.8679 221.219 46.2246C221.401 46.5813 221.4 47.0492 221.216 47.6281C221.002 47.839 220.85 47.9564 220.76 47.9803L220.408 48.2904L220.109 48.1964C219.986 48.171 219.87 48.1681 219.759 48.1878C219.653 48.187 219.545 48.1965 219.434 48.2161C219.344 48.24 219.254 48.2639 219.164 48.2878C219.078 48.2913 218.982 48.2926 218.876 48.2919C218.692 48.2538 218.539 48.2221 218.417 48.1967C218.319 48.1552 218.209 48.1217 218.087 48.0963ZM228.931 62.5999C228.861 63.1387 228.709 63.5646 228.474 63.8776C228.239 64.1905 227.953 64.4398 227.617 64.6254C227.281 64.811 226.914 64.9371 226.517 65.0037C226.12 65.0704 225.736 65.129 225.364 65.1795C225.222 65.0436 225.08 64.9078 224.938 64.772C224.82 64.62 224.666 64.4922 224.475 64.3887C224.311 63.8442 224.145 63.3629 223.976 62.9449C223.812 62.5066 223.79 62.0448 223.912 61.5594C223.917 61.539 223.95 61.4289 224.013 61.2291C224.096 61.0336 224.183 60.8177 224.275 60.5813C224.387 60.3492 224.474 60.1333 224.537 59.9335C224.624 59.7176 224.67 59.5994 224.674 59.579C224.196 59.5226 223.686 59.523 223.142 59.5805C222.598 59.638 222.058 59.7281 221.522 59.851C221.006 59.9781 220.511 60.1095 220.036 60.245C219.581 60.3848 219.205 60.5089 218.906 60.6171C218.893 60.6783 218.82 60.8228 218.688 61.0507C218.56 61.2582 218.407 61.4818 218.23 61.7216C218.057 61.941 217.878 62.1379 217.692 62.3123C217.507 62.4867 217.343 62.5591 217.201 62.5295C217.208 62.5949 217.226 62.6625 217.254 62.7321C217.282 62.8018 217.266 62.8834 217.204 62.9769C216.901 62.9993 216.625 63.0484 216.375 63.1243C216.121 63.2206 215.863 63.2841 215.602 63.315C215.336 63.3662 215.06 63.3622 214.774 63.303C214.489 63.2438 214.173 63.072 213.828 62.7877C213.853 62.6653 213.823 62.5527 213.738 62.4499C213.658 62.3268 213.562 62.2219 213.453 62.1354C213.367 62.0326 213.288 61.9524 213.215 61.8947C213.146 61.8165 213.116 61.7571 213.125 61.7163C213.018 61.7155 212.992 61.6357 213.047 61.4767C213.101 61.3178 213.191 61.2939 213.317 61.4051C213.152 61.073 213.06 60.7986 213.041 60.5819C213.046 60.349 212.991 60.0504 212.875 59.6859C212.925 59.6536 212.98 59.5906 213.042 59.4971C213.084 59.3993 213.123 59.3118 213.16 59.2344C213.198 59.157 213.241 59.1022 213.29 59.0698C213.34 59.0375 213.388 59.0583 213.437 59.1321C213.434 58.9401 213.466 58.7871 213.532 58.6732C213.598 58.5592 213.662 58.4555 213.724 58.3619C213.786 58.2684 213.838 58.1728 213.88 58.075C213.921 57.9772 213.914 57.8587 213.858 57.7194C214.277 57.3382 214.591 56.9033 214.798 56.4144C215.01 55.9052 215.171 55.4385 215.28 55.0143C215.452 54.9011 215.617 54.7225 215.774 54.4785C215.952 54.2387 216.098 53.9925 216.214 53.74C216.335 53.4671 216.41 53.2061 216.441 52.9571C216.496 52.6919 216.509 52.4714 216.482 52.2955C216.524 52.1977 216.642 52.1904 216.838 52.2735C217.1 51.6257 217.338 50.8878 217.552 50.0599C217.791 49.2158 218.05 48.4291 218.329 47.6997C218.612 46.9499 218.955 46.319 219.359 45.807C219.768 45.2746 220.307 44.9822 220.977 44.9297C221.011 45.3835 221.086 45.7926 221.202 46.1571C221.338 46.5257 221.487 46.8863 221.647 47.2389C221.833 47.5752 222.006 47.9196 222.167 48.2722C222.349 48.6289 222.501 49.0222 222.625 49.4521C222.524 49.8355 222.39 50.2758 222.223 50.7731C222.056 51.2704 221.867 51.7737 221.655 52.2829C221.463 52.7964 221.266 53.2873 221.062 53.7558C220.879 54.2284 220.711 54.6297 220.557 54.9596C220.557 55.0658 220.595 55.1376 220.672 55.1749C220.77 55.2164 220.771 55.3125 220.676 55.463C221.191 55.4421 221.725 55.4356 222.276 55.4436C222.828 55.4516 223.381 55.4493 223.937 55.4369C224.493 55.4245 225.03 55.3976 225.549 55.3563C226.093 55.2989 226.603 55.2024 227.078 55.0668C227.345 54.2924 227.642 53.5243 227.97 52.7625C228.298 52.0008 228.488 51.189 228.539 50.3273C228.658 50.2668 228.761 50.1818 228.847 50.0721C228.934 49.9623 229.053 49.9019 229.204 49.8907C229.182 49.482 229.226 49.0655 229.335 48.6414C229.445 48.2172 229.601 47.824 229.803 47.4618C230.026 47.1038 230.288 46.8176 230.588 46.6032C230.912 46.3726 231.266 46.2545 231.651 46.2491C231.807 46.622 231.927 47.0191 232.01 47.4406C232.097 47.8416 232.182 48.2528 232.265 48.6743C232.372 49.0795 232.482 49.4746 232.593 49.8594C232.73 50.2281 232.926 50.5666 233.181 50.8748C233.119 51.4791 233.033 52.0995 232.922 52.7361C232.832 53.377 232.73 54.0259 232.615 54.6829C232.291 55.4243 231.951 56.141 231.594 56.8331C231.263 57.509 230.971 58.2465 230.721 59.0455C230.544 59.1791 230.394 59.3395 230.27 59.5265C230.146 59.7136 230.02 59.9109 229.892 60.1184C229.768 60.3054 229.634 60.4904 229.49 60.6732C229.35 60.8357 229.193 60.9735 229.021 61.0867C229.052 61.3484 229.013 61.5851 228.906 61.7968C228.822 61.9924 228.831 62.26 228.931 62.5999ZM251.532 52.4137C251.523 52.5607 251.499 52.6729 251.462 52.7503C251.449 52.8115 251.426 52.8706 251.393 52.9276C251.381 52.9888 251.366 53.0601 251.349 53.1417C251.336 53.2029 251.335 53.3092 251.347 53.4604C250.774 54.0652 250.175 54.441 249.549 54.5877C248.948 54.7183 248.308 54.7771 247.63 54.7642C246.956 54.7308 246.259 54.7035 245.54 54.6821C244.842 54.6649 244.113 54.7905 243.356 55.0589C243.112 54.9019 242.867 54.8512 242.621 54.9066C242.396 54.9663 242.084 54.9335 241.684 54.8081C241.537 54.9051 241.365 54.9652 241.168 54.9883C240.976 54.9911 240.782 55.004 240.586 55.0271C240.629 55.2276 240.62 55.4278 240.557 55.6275C240.519 55.8111 240.518 55.9705 240.554 56.1056C241.255 56.3148 242.042 56.4674 242.916 56.5635C243.81 56.6638 244.678 56.7904 245.518 56.9434C245.517 57.0496 245.492 57.1189 245.443 57.1513C245.398 57.1632 245.377 57.2121 245.381 57.2979C245.502 57.4295 245.618 57.5917 245.727 57.7845C245.84 57.9569 245.953 58.1293 246.066 58.3017C246.179 58.4741 246.297 58.6261 246.419 58.7577C246.565 58.8732 246.742 58.9418 246.95 58.9637C246.998 59.1439 247.011 59.338 246.989 59.5463C246.992 59.7383 246.931 59.9279 246.807 60.1149C246.434 60.2717 246.059 60.4386 245.682 60.6157C245.309 60.7724 244.92 60.9045 244.515 61.012C244.13 61.1237 243.721 61.1984 243.288 61.2362C242.879 61.2579 242.432 61.2077 241.947 61.0858C241.845 61.0647 241.763 61.0478 241.702 61.0351C241.661 61.0266 241.606 60.9833 241.537 60.9052C241.353 60.9734 241.112 60.9553 240.814 60.8511C240.537 60.7511 240.306 60.7351 240.122 60.8033C239.919 60.6548 239.652 60.5569 239.321 60.5096C239.015 60.4462 238.748 60.3483 238.521 60.2159C238.105 60.5766 237.714 60.9743 237.348 61.4089C236.981 61.8435 236.639 62.315 236.32 62.8235C236.993 63.0693 237.555 63.2286 238.008 63.3012C238.482 63.3781 238.927 63.4384 239.343 63.4822C239.764 63.5056 240.193 63.5413 240.63 63.5893C241.071 63.617 241.615 63.7087 242.264 63.8644C242.719 63.7246 243.228 63.6812 243.791 63.7342C244.379 63.771 244.925 63.7565 245.428 63.6906C245.578 63.7856 245.698 63.9274 245.786 64.116C245.879 64.2842 245.962 64.4502 246.034 64.6142C246.131 64.7619 246.23 64.8995 246.331 65.0269C246.433 65.1543 246.577 65.2268 246.765 65.2444C246.83 65.343 246.86 65.4555 246.855 65.5822C246.874 65.6926 246.884 65.801 246.883 65.9072C246.882 66.0134 246.894 66.1115 246.918 66.2016C246.966 66.2755 247.054 66.3149 247.18 66.3199C246.735 66.9296 246.27 67.3758 245.786 67.6584C245.326 67.9248 244.823 68.097 244.275 68.1748C243.726 68.2527 243.126 68.2771 242.472 68.2479C241.839 68.2231 241.13 68.2038 240.346 68.1901C240.154 68.1928 240.003 68.1509 239.893 68.0643C239.779 67.9981 239.641 67.9481 239.478 67.9143C238.987 67.919 238.407 67.8945 237.737 67.8407C237.068 67.787 236.398 67.6801 235.73 67.5201C235.061 67.3602 234.437 67.1351 233.859 66.8451C233.276 66.5754 232.832 66.2066 232.524 65.7386C232.391 65.562 232.312 65.3755 232.289 65.1792C232.291 64.9668 232.19 64.7863 231.987 64.6378C232.021 64.3683 232.042 64.0641 232.048 63.725C232.055 63.3859 232.063 63.0367 232.074 62.6772C232.089 62.2973 232.112 61.9297 232.143 61.5745C232.195 61.2235 232.281 60.9115 232.401 60.6386C232.526 60.3453 232.705 60.0953 232.94 59.8885C233.194 59.686 233.321 59.4357 233.319 59.1374C233.425 59.1381 233.497 59.0998 233.534 59.0224C233.576 58.9247 233.666 58.9008 233.804 58.9508C234.003 58.609 234.207 58.2897 234.418 57.9929C234.628 57.6961 234.836 57.4095 235.043 57.1332C235.269 56.861 235.486 56.5867 235.692 56.3103C235.923 56.0178 236.15 55.6925 236.373 55.3345C236.142 55.0101 235.987 54.6801 235.908 54.3445C235.853 53.9928 235.827 53.6575 235.829 53.3389C235.836 52.9998 235.853 52.6628 235.879 52.328C235.911 51.9727 235.911 51.6111 235.881 51.2432C236.148 50.9795 236.444 50.7854 236.768 50.6611C237.116 50.5205 237.476 50.425 237.848 50.3745C238.22 50.324 238.619 50.3002 239.044 50.3032C239.469 50.3062 239.916 50.3033 240.386 50.2943C241.257 50.1983 242.024 50.1445 242.686 50.1328C243.368 50.1253 244.024 50.1442 244.653 50.1895C245.306 50.2186 245.978 50.2622 246.668 50.3202C247.358 50.3782 248.148 50.4144 249.039 50.4288C249.185 50.6505 249.339 50.7782 249.502 50.8121C249.622 50.6454 249.724 50.6134 249.809 50.7162C249.919 50.8027 249.983 50.7521 250 50.5643C250.132 50.9534 250.326 51.302 250.581 51.6103C250.861 51.9023 251.178 52.1702 251.532 52.4137ZM15.6725 49.6918C16.5081 49.9715 17.2372 50.3035 17.8596 50.6878C18.482 51.0722 18.9855 51.517 19.3701 52.0223C19.5908 52.5999 19.7826 53.2142 19.9455 53.865C20.1289 54.52 20.2242 55.1887 20.2317 55.8711C20.2638 56.5373 20.1998 57.2049 20.0399 57.8739C19.9003 58.547 19.6158 59.2008 19.1864 59.8352C18.4425 60.4469 17.5936 60.8985 16.6395 61.1901C15.7101 61.4655 14.7262 61.6444 13.6878 61.727C12.6494 61.8096 11.5787 61.8429 10.4756 61.827C9.39295 61.8152 8.33068 61.8078 7.28881 61.8045C7.21193 62.2779 7.10831 62.7777 6.97794 63.3039C6.8722 63.8139 6.71335 64.3235 6.50138 64.8327C6.31404 65.3258 6.07782 65.7981 5.79272 66.2496C5.50761 66.7011 5.16977 67.0991 4.77918 67.4437C4.43239 67.3718 4.06694 67.3386 3.68283 67.344C3.2945 67.3699 2.95119 67.3838 2.6529 67.3858C2.52703 67.2746 2.41135 67.1655 2.30587 67.0585C2.21656 66.9762 2.07202 66.9037 1.87226 66.841C1.95535 66.6454 1.94665 66.4309 1.84615 66.1973C1.74988 65.9433 1.65361 65.6893 1.55734 65.4353C1.46107 65.1813 1.40348 64.9459 1.38458 64.7292C1.38607 64.5168 1.52825 64.3441 1.81111 64.2113C1.69792 64.0389 1.66459 63.8405 1.71111 63.6161C1.90467 63.4009 2.09685 63.0897 2.28767 62.6825C2.49889 62.2795 2.67739 61.8803 2.82318 61.485C2.9936 61.0735 3.09436 60.6902 3.12546 60.3349C3.15657 59.9797 3.00544 59.6824 2.67209 59.443C2.70095 59.4065 2.74598 59.3945 2.80717 59.4072C2.86837 59.4199 2.93169 59.4224 2.99711 59.4147C2.8593 59.2585 2.79325 59.0639 2.79898 58.8311C2.8251 58.6024 2.79388 58.3938 2.70532 58.2053C2.76727 58.1117 2.8169 58.0263 2.85422 57.9489C2.89154 57.8715 2.96928 57.8557 3.08745 57.9015C3.10238 57.5216 3.17428 57.1749 3.30316 56.8611C3.45243 56.5517 3.62807 56.2689 3.83008 56.013C4.03632 55.7366 4.27104 55.4767 4.53425 55.2334C4.79746 54.9901 5.05047 54.7447 5.29328 54.4972C5.4403 54.5064 5.51767 54.5437 5.52538 54.6092C5.55349 54.6788 5.62701 54.6834 5.74592 54.623C6.05341 54.474 6.28142 54.2978 6.42994 54.0946C6.57846 53.8913 6.68233 53.6469 6.74154 53.3613C6.97316 52.9625 7.23538 52.5701 7.52819 52.184C7.82524 51.7775 8.13422 51.4161 8.45515 51.0996C8.77607 50.7832 9.10894 50.5118 9.45375 50.2854C9.81895 50.0632 10.1796 49.9146 10.5356 49.8395C10.8226 49.6862 11.1667 49.5661 11.5677 49.479C11.973 49.3716 12.3983 49.3214 12.8436 49.3287C13.2931 49.3155 13.7321 49.3533 14.1605 49.4421C14.6135 49.5148 15.013 49.6402 15.3591 49.8183C15.4526 49.8803 15.5078 49.8704 15.5247 49.7888C15.5621 49.7115 15.6113 49.6791 15.6725 49.6918ZM12.9016 56.7449C13.4582 56.6263 14.0347 56.5649 14.6313 56.561C15.2524 56.5408 15.7949 56.3873 16.2586 56.1005C16.0604 55.8254 15.7436 55.5576 15.3082 55.2971C14.8771 55.0162 14.3904 54.7983 13.848 54.6433C13.3057 54.4883 12.7341 54.423 12.1333 54.4473C11.5572 54.4555 11.027 54.6009 10.5429 54.8835C10.3444 55.2253 10.1811 55.5 10.0529 55.7075C9.92905 55.8945 9.76398 56.1263 9.55774 56.4027C9.57739 56.5131 9.62167 56.6074 9.69058 56.6855C9.78412 56.7475 9.84072 56.8337 9.86037 56.9441C10.3803 56.7966 10.877 56.7613 11.3504 56.8382C11.8485 56.8989 12.3655 56.8678 12.9016 56.7449ZM32.7428 70.3374C32.5485 70.6588 32.2909 70.9777 31.97 71.2941C31.6737 71.5944 31.3327 71.8535 30.9471 72.0714C30.5861 72.2732 30.1928 72.4257 29.7672 72.5289C29.3415 72.6321 28.9124 72.6495 28.4798 72.5811C28.2273 72.4649 28.0585 72.3555 27.9734 72.2527C27.9045 72.1746 27.8254 72.0944 27.7361 72.012C27.6833 71.9585 27.6285 71.9152 27.5715 71.8822C27.5392 71.8329 27.5047 71.7938 27.4681 71.765L27.1327 71.5359L27.3375 71.1634C27.4122 71.0087 27.4274 70.8842 27.3831 70.7899C27.343 70.6752 27.2481 70.5172 27.0984 70.316C27.0498 70.2421 27.0013 70.1682 26.9528 70.0943C26.9043 70.0204 26.866 69.9487 26.8379 69.879L26.4383 69.1898L27.3088 69.1469C27.8484 69.1098 28.2231 68.996 28.4328 68.8054C28.6629 68.6191 28.8126 68.2565 28.8818 67.7177C28.4907 67.5515 28.146 67.4694 27.8477 67.4714C27.5698 67.4776 27.2796 67.4919 26.9771 67.5143C26.5888 67.5401 26.1924 67.5537 25.7879 67.5549C25.408 67.54 24.9936 67.486 24.5449 67.393C24.3817 67.3591 24.2287 67.3274 24.0859 67.2978C23.9473 67.2478 23.7985 67.1957 23.6396 67.1414L23.3463 67.0168C23.352 66.7839 23.3366 66.6531 23.3 66.6242C23.2677 66.575 23.2353 66.5257 23.203 66.4764C23.1221 66.3533 23.0374 66.1974 22.9489 66.0089C22.8849 65.8041 22.9111 65.5755 23.0272 65.323C22.9633 65.1182 22.9402 64.922 22.9579 64.7341C22.7847 64.9536 22.64 65.1895 22.5238 65.442L22.338 65.7226L22.0193 65.7204C21.9743 65.7323 21.9331 65.777 21.8958 65.8544C21.8627 65.9113 21.8419 65.9602 21.8335 66.001L21.5726 66.4895C21.5234 66.5218 21.4741 66.5541 21.4249 66.5865C21.3798 66.5984 21.3327 66.6206 21.2834 66.6529C21.2046 66.828 21.1155 67.0011 21.0162 67.172C20.917 67.3429 20.8198 67.5036 20.7248 67.6541C20.5678 67.8981 20.421 68.1443 20.2844 68.3926C20.1725 68.6247 20.1013 68.8652 20.071 69.1143L19.8788 69.4255C19.7514 69.5267 19.6181 69.6055 19.4788 69.6617C19.3437 69.6975 19.2086 69.7333 19.0735 69.7691C19.0242 69.8015 18.9546 69.8296 18.8645 69.8535C18.7991 69.8612 18.7439 69.871 18.6988 69.883L18.5373 70.2005L18.1574 70.1856C17.9245 70.1799 17.755 70.1766 17.6488 70.1759C17.5629 70.1793 17.4588 70.1684 17.3364 70.143L17.0368 70.049C16.8505 69.8189 16.7067 69.6401 16.6054 69.5127C16.5084 69.365 16.3889 69.2232 16.2468 69.0873C16.114 68.8045 16.05 68.5997 16.055 68.4731C16.06 68.3465 16.0629 68.23 16.0636 68.1238C16.0482 67.993 16.0489 67.8867 16.0659 67.8051C16.0624 67.7193 16.0445 67.6518 16.0121 67.6025L15.6905 67.1528L16.0842 66.9472L16.2226 66.4334C16.8463 65.4776 17.4819 64.5669 18.1295 63.7011C18.7975 62.8396 19.4799 61.9599 20.1767 61.0618C20.4076 60.7692 20.6283 60.4746 20.8387 60.1778C21.0696 59.8852 21.3005 59.5927 21.5314 59.3001C21.5236 59.2347 21.5282 59.1612 21.5452 59.0796C21.5621 58.998 21.6015 58.9104 21.6635 58.8169C21.9598 58.5166 22.2068 58.2487 22.4046 58.0131C22.6066 57.7571 22.8086 57.5011 23.0106 57.2451C23.2457 56.9322 23.4787 56.6294 23.7096 56.3369C23.9608 56.0485 24.255 55.7585 24.5921 55.4667L25.1261 55.354C25.1915 55.3463 25.2672 55.3407 25.353 55.3372C25.443 55.3133 25.5391 55.312 25.6411 55.3331L26.0874 55.4895C26.7135 55.3427 27.2895 55.0791 27.8151 54.6988C28.345 54.298 28.9042 53.8076 29.4925 53.2274L29.8873 52.8625L30.2344 53.1897C30.3237 53.2721 30.4538 53.3629 30.6247 53.4622C30.7998 53.541 30.9831 53.6322 31.1744 53.7357C31.5246 53.8934 31.8524 54.0571 32.1576 54.2268C32.4629 54.3965 32.6963 54.6045 32.858 54.8507C32.9128 55.2025 32.9334 55.4621 32.92 55.6295C32.9065 55.797 32.9033 55.9665 32.9103 56.1382C32.8996 56.4976 32.8787 56.855 32.8476 57.2102C32.8368 57.5697 32.7973 57.9658 32.7289 58.3984C32.759 58.7663 32.7687 59.13 32.7579 59.4895C32.7719 59.8328 32.7735 60.1842 32.7628 60.5437C32.7633 61.0544 32.7659 61.555 32.7706 62.0453C32.7795 62.5153 32.8233 62.9711 32.9019 63.413C33.0651 63.4468 33.165 63.4781 33.2016 63.507C33.312 63.4874 33.4204 63.4779 33.5266 63.4786C33.6532 63.4836 33.79 63.4907 33.9371 63.4999L34.28 63.5391L34.339 63.8705C34.3382 63.9767 34.4191 64.0999 34.5815 64.2399C34.8425 64.3153 35.0236 64.4167 35.1248 64.5441C35.2303 64.651 35.3235 64.7661 35.4043 64.8892C35.469 64.9878 35.5379 65.0659 35.611 65.1236L36.032 65.4023L35.692 65.8106C35.4119 66.1355 35.0421 66.4311 34.5826 66.6976C34.1477 66.9478 33.6724 67.1365 33.1567 67.2636C33.1517 67.3903 33.1366 67.5148 33.1112 67.6372C33.1104 67.7434 33.1178 67.8619 33.1332 67.9928C33.1225 68.3523 33.0995 68.7198 33.0641 69.0955C33.0288 69.4711 32.9505 69.8485 32.8294 70.2277L32.7428 70.3374ZM24.9972 63.2102C25.6177 63.2963 26.1769 63.3697 26.6749 63.4304C27.1976 63.4749 27.7776 63.4994 28.415 63.5039C28.3991 62.8623 28.3772 62.1982 28.3494 61.5116C28.3257 60.8046 28.2898 60.1057 28.2416 59.4148L27.9945 59.6827C27.4977 60.0265 27.0005 60.4234 26.503 60.8735C26.0258 61.3277 25.606 61.7619 25.2435 62.1762C25.0831 62.3344 24.9226 62.4926 24.7621 62.6508C24.6017 62.809 24.4514 62.9694 24.3113 63.1318C24.438 63.1368 24.5523 63.1498 24.6543 63.171C24.7767 63.1964 24.891 63.2094 24.9972 63.2102ZM57.0663 72.3167C56.3948 73.0924 55.6105 73.6425 54.7134 73.9672C53.8206 74.2714 52.8609 74.4873 51.8345 74.6149C50.8123 74.7221 49.7454 74.7881 48.6339 74.813C47.5427 74.8421 46.4674 74.9489 45.4079 75.1335C45.1223 75.0743 44.8652 75.0316 44.6365 75.0055C44.4283 74.9836 44.218 74.9719 44.0055 74.9704C43.8177 74.9527 43.6278 74.9453 43.4357 74.948C43.2479 74.9303 43.0396 74.9084 42.811 74.8823C42.7337 74.845 42.6784 74.8548 42.6453 74.9118C42.6165 74.9483 42.5774 74.9828 42.5282 75.0151C42.1687 75.0044 41.8461 74.9695 41.5606 74.9103C41.2954 74.8553 41.071 74.8088 40.8874 74.7707C40.6426 74.7199 40.3812 74.6977 40.1034 74.7039C39.8416 74.7347 39.6109 74.7188 39.4111 74.6561C37.8981 74.2573 36.8066 73.4672 36.1367 72.2857C35.4914 71.0881 35.3038 69.5811 35.574 67.7648C35.6156 67.6671 35.6079 67.6016 35.5509 67.5685C35.5143 67.5397 35.4799 67.5006 35.4476 67.4514C35.4898 67.2474 35.5462 67.0782 35.6166 66.9439C35.7074 66.8138 35.7557 66.6323 35.7614 66.3994C36.5244 65.3874 37.3419 64.4718 38.2139 63.6526C39.0901 62.813 40.0735 62.1233 41.1641 61.5835C41.3323 61.4907 41.4801 61.3937 41.6075 61.2924C41.7348 61.1912 41.852 61.0878 41.959 60.9824C42.0864 60.8811 42.2197 60.8024 42.359 60.7461C42.5026 60.6695 42.6704 60.6299 42.8624 60.6271C43.3923 60.2264 43.9954 59.8833 44.6715 59.598C45.3477 59.3126 46.0503 59.0541 46.7792 58.8222C47.5123 58.57 48.2331 58.3258 48.9417 58.0897C49.6748 57.8375 50.3552 57.5318 50.9829 57.1725C51.1861 57.3211 51.343 57.3855 51.4534 57.3658C51.5639 57.3462 51.6761 57.3695 51.79 57.4356C51.8694 57.7712 52.0188 58.0256 52.2382 58.1988C52.478 58.3761 52.7055 58.5616 52.9207 58.7552C53.1605 58.9325 53.3736 59.1363 53.5599 59.3664C53.7462 59.5965 53.8689 59.8773 53.9278 60.2086C53.8054 60.1833 53.7337 60.2216 53.7125 60.3236C53.716 60.4094 53.7276 60.5075 53.7472 60.618C53.7711 60.7081 53.7622 60.802 53.7207 60.8997C53.7038 60.9813 53.6239 61.0073 53.4811 60.9777C53.4804 61.0839 53.5289 61.1578 53.6267 61.1994C53.7491 61.2248 53.7997 61.2884 53.7785 61.3904C53.7574 61.4924 53.7099 61.5677 53.636 61.6162C53.5825 61.6689 53.5613 61.7709 53.5725 61.9222C53.1096 62.1028 52.5977 62.2626 52.037 62.4017C51.4966 62.545 50.9215 62.7023 50.3115 62.8737C49.7261 63.0289 49.1038 63.2084 48.4445 63.4121C47.8099 63.5997 47.1749 63.8404 46.5395 64.1342C45.9041 64.428 45.248 64.7706 44.571 65.1622C43.8984 65.5334 43.2397 65.9393 42.5951 66.3802C41.9505 66.821 41.3323 67.2885 40.7405 67.7828C40.1529 68.2567 39.6366 68.7455 39.1918 69.249C39.2115 69.3594 39.2354 69.4495 39.2635 69.5191C39.3162 69.5726 39.3524 69.6546 39.3721 69.7651C40.0164 69.9412 40.6182 70.066 41.1774 70.1394C41.7613 70.1966 42.3261 70.3456 42.8719 70.5865C42.9416 70.5583 42.9951 70.5056 43.0324 70.4282C43.0697 70.3509 43.1334 70.3002 43.2235 70.2764C44.4116 70.3951 45.5308 70.4356 46.5812 70.3981C47.6357 70.3401 48.7128 70.2762 49.8124 70.2063C49.6619 70.1113 49.5195 70.0286 49.3851 69.9582C49.2754 69.8716 49.1636 69.7952 49.0497 69.729C48.9688 69.6059 48.9857 69.5243 49.1004 69.4843C49.2397 69.428 49.3586 69.3676 49.4572 69.3029C49.2054 69.0805 49.0131 68.8279 48.8803 68.545C48.7678 68.2664 48.7335 67.9188 48.7773 67.5024C48.9208 67.4258 49.0074 67.3161 49.037 67.1733C49.0666 67.0305 49.0287 66.9056 48.9232 66.7986C48.8458 66.7613 48.7948 66.7507 48.7702 66.7669C48.7456 66.783 48.7188 66.8094 48.69 66.846C48.6815 66.8868 48.6629 66.9255 48.634 66.962C48.6094 66.9782 48.5605 66.9574 48.4874 66.8997C48.5458 66.7204 48.6183 66.5758 48.7049 66.4661C48.8119 66.3606 48.9027 66.2305 48.9773 66.0758L51.3805 65.106C51.5711 65.3157 51.8084 65.5564 52.0925 65.8281C52.3808 66.0793 52.6772 66.3429 52.9817 66.6188C53.3109 66.8785 53.6379 67.1485 53.9628 67.4286C54.3123 67.6925 54.6312 67.9502 54.9195 68.2014C55.1797 68.383 55.4009 68.5991 55.583 68.8496C55.7651 69.1001 55.9349 69.3588 56.0924 69.6254C56.2541 69.8717 56.4158 70.118 56.5775 70.3643C56.7596 70.6148 56.9786 70.8411 57.2346 71.0431C57.1388 71.2998 57.1046 71.5162 57.1319 71.692C57.1593 71.8679 57.1374 72.0761 57.0663 72.3167ZM75.3159 63.8772C75.3067 64.0243 75.2835 64.1365 75.2461 64.2138C75.2335 64.275 75.2106 64.3341 75.1775 64.3911C75.1648 64.4523 75.15 64.5237 75.1331 64.6053C75.1204 64.6665 75.1196 64.7727 75.1308 64.924C74.5586 65.5287 73.9595 65.9045 73.3333 66.0512C72.7317 66.1818 72.0919 66.2407 71.4137 66.2277C70.7398 66.1944 70.0434 66.167 69.3244 66.1456C68.6258 66.1284 67.8977 66.254 67.1399 66.5224C66.8958 66.3655 66.6511 66.3147 66.4055 66.3702C66.1804 66.4299 65.868 66.397 65.4685 66.2716C65.3207 66.3687 65.1487 66.4287 64.9524 66.4519C64.7604 66.4546 64.5662 66.4675 64.3699 66.4907C64.4134 66.6912 64.4039 66.8913 64.3412 67.0911C64.3031 67.2747 64.302 67.434 64.3378 67.5691C65.0391 67.7783 65.8266 67.931 66.7003 68.027C67.5944 68.1273 68.4617 68.2539 69.3023 68.4069C69.3016 68.5132 69.2766 68.5825 69.2273 68.6148C69.1823 68.6267 69.1615 68.6756 69.165 68.7614C69.2867 68.8931 69.402 69.0553 69.5109 69.2481C69.6241 69.4205 69.7373 69.5929 69.8505 69.7653C69.9637 69.9377 70.0811 70.0897 70.2027 70.2213C70.349 70.3367 70.5263 70.4054 70.7345 70.4273C70.7823 70.6074 70.7952 70.8016 70.7733 71.0098C70.776 71.2018 70.7154 71.3914 70.5916 71.5785C70.2186 71.7352 69.8436 71.9021 69.4665 72.0792C69.0935 72.236 68.7045 72.3681 68.2992 72.4755C67.9143 72.5872 67.5052 72.662 67.0719 72.6998C66.6631 72.7214 66.2161 72.6713 65.7307 72.5494C65.6287 72.5282 65.5471 72.5113 65.4859 72.4986C65.4451 72.4901 65.3903 72.4469 65.3214 72.3687C65.137 72.4369 64.8961 72.4189 64.5985 72.3146C64.3214 72.2146 64.0907 72.1987 63.9063 72.2668C63.7031 72.1183 63.4361 72.0204 63.1055 71.9731C62.7995 71.9097 62.5326 71.8118 62.3047 71.6794C61.8895 72.0402 61.4986 72.4378 61.1319 72.8724C60.7652 73.307 60.4227 73.7786 60.1045 74.2871C60.7769 74.5329 61.3397 74.6921 61.7927 74.7647C62.2661 74.8416 62.711 74.902 63.1275 74.9458C63.5482 74.9691 63.9769 75.0049 64.4138 75.0529C64.8549 75.0805 65.3997 75.1722 66.0482 75.3279C66.5027 75.1881 67.0117 75.1447 67.5752 75.1977C68.1633 75.2346 68.7089 75.22 69.2119 75.1541C69.3624 75.2491 69.4819 75.3909 69.5705 75.5795C69.6633 75.7477 69.7459 75.9137 69.8183 76.0777C69.9153 76.2255 70.0144 76.363 70.1157 76.4904C70.2169 76.6178 70.3615 76.6903 70.5493 76.708C70.614 76.8065 70.6438 76.9191 70.6388 77.0457C70.6585 77.1561 70.6679 77.2645 70.6672 77.3707C70.6664 77.4769 70.678 77.5751 70.7019 77.6651C70.7504 77.739 70.838 77.7785 70.9646 77.7834C70.519 78.3932 70.0542 78.8393 69.5701 79.1219C69.1106 79.3884 68.6068 79.5605 68.0587 79.6384C67.5107 79.7162 66.9099 79.7406 66.2564 79.7115C65.6232 79.6866 64.9145 79.6673 64.1301 79.6536C63.938 79.6563 63.7872 79.6144 63.6774 79.5278C63.5635 79.4617 63.4249 79.4116 63.2617 79.3778C62.7714 79.3825 62.1914 79.358 61.5217 79.3043C60.852 79.2505 60.1827 79.1437 59.5137 78.9837C58.8448 78.8237 58.2212 78.5987 57.6431 78.3086C57.0607 78.0389 56.6159 77.6701 56.3086 77.2021C56.1751 77.0255 56.0967 76.839 56.0736 76.6428C56.0751 76.4303 55.9742 76.2498 55.7709 76.1013C55.8055 75.8319 55.8261 75.5276 55.8325 75.1885C55.839 74.8495 55.8476 74.5002 55.8583 74.1407C55.8732 73.7608 55.8962 73.3933 55.9274 73.038C55.9789 72.687 56.0648 72.375 56.1852 72.1021C56.3099 71.8088 56.4894 71.5588 56.7237 71.3521C56.9785 71.1496 57.1048 70.8992 57.1029 70.6009C57.2091 70.6017 57.2809 70.5633 57.3182 70.486C57.3597 70.3882 57.4498 70.3643 57.5883 70.4143C57.7869 70.0725 57.9914 69.7532 58.2018 69.4564C58.4123 69.1597 58.6207 68.8731 58.8269 68.5967C59.0536 68.3245 59.27 68.0503 59.4762 67.7739C59.7071 67.4813 59.9341 67.156 60.1573 66.7981C59.9267 66.4737 59.7717 66.1437 59.6923 65.8081C59.6376 65.4563 59.6114 65.1211 59.6136 64.8024C59.6201 64.4633 59.6368 64.1263 59.6636 63.7915C59.6947 63.4362 59.6952 63.0746 59.6651 62.7067C59.9326 62.443 60.2281 62.249 60.5518 62.1246C60.9001 61.984 61.2603 61.8885 61.6325 61.838C62.0046 61.7875 62.4032 61.7638 62.8281 61.7668C63.253 61.7698 63.7004 61.7668 64.1704 61.7578C65.0413 61.6618 65.8078 61.608 66.4698 61.5963C67.1522 61.5889 67.8078 61.6078 68.4367 61.6531C69.0903 61.6822 69.7621 61.7257 70.4522 61.7837C71.1423 61.8417 71.9326 61.8779 72.8232 61.8923C72.9688 62.114 73.1231 62.2418 73.2863 62.2756C73.406 62.1089 73.5084 62.0769 73.5935 62.1797C73.7032 62.2663 73.7668 62.2156 73.7845 62.0278C73.9166 62.4169 74.1103 62.7656 74.3655 63.0738C74.6454 63.3659 74.9622 63.6337 75.3159 63.8772Z" fill="black"/>
</svg>
