<svg width="225" height="24" viewBox="0 0 225 24" fill="none" xmlns="http://www.w3.org/2000/svg">
<path d="M212.709 0.673584H12.2534C6.15265 0.673584 1.20703 5.62538 1.20703 11.7337C1.20703 17.8421 6.15265 22.7939 12.2534 22.7939H212.709C218.81 22.7939 223.755 17.8421 223.755 11.7337C223.755 5.62538 218.81 0.673584 212.709 0.673584Z" fill="white" stroke="#231F20" stroke-width="0.5" stroke-miterlimit="10"/>
<path d="M12.2534 0.673584C10.0682 0.673585 7.93209 1.32251 6.11531 2.53826C4.29853 3.75401 2.8827 5.48196 2.04692 7.50352C1.21115 9.52509 0.992984 11.7494 1.42003 13.8952C1.84707 16.0409 2.90013 18.0116 4.446 19.558C5.99186 21.1044 7.96107 22.1569 10.1045 22.5826C12.248 23.0082 14.4693 22.7877 16.4876 21.9491C18.5059 21.1104 20.2304 19.6912 21.443 17.8711C22.6555 16.0509 23.3017 13.9116 23.2997 11.7236C23.297 8.79205 22.132 5.98145 20.0607 3.90946C17.9894 1.83746 15.1813 0.673583 12.2534 0.673584ZM6.65592 12.1043L6.70376 12.0287L9.57928 7.5285C9.59369 7.50689 9.61587 7.49168 9.6412 7.48604C9.66654 7.48041 9.69306 7.48478 9.71525 7.49824C9.73087 7.50884 9.74311 7.52372 9.75051 7.5411C10.2289 8.61762 10.6444 9.95885 10.4505 10.7933C10.3195 11.2293 10.1289 11.6451 9.88396 12.0287C9.85125 12.092 9.81511 12.1534 9.77569 12.2127C9.76733 12.2263 9.75536 12.2372 9.74113 12.2444C9.72689 12.2515 9.71096 12.2545 9.69511 12.2531H6.74153C6.72875 12.2534 6.71604 12.2512 6.70414 12.2465C6.69224 12.2419 6.68139 12.2348 6.67224 12.2259C6.66309 12.217 6.65581 12.2063 6.65085 12.1945C6.64588 12.1827 6.64333 12.1701 6.64333 12.1573C6.64323 12.1385 6.64847 12.1202 6.65844 12.1043H6.65592ZM19.4598 13.6523C19.4594 13.6719 19.4535 13.691 19.4428 13.7075C19.4321 13.724 19.4171 13.7372 19.3994 13.7456C19.1753 13.8414 18.4148 14.1918 18.0976 14.633C17.2893 15.7574 16.6724 17.3684 15.2926 17.3684H9.54151C9.05567 17.3681 8.57467 17.2719 8.126 17.0852C7.67733 16.8986 7.2698 16.6253 6.92673 16.2809C6.58366 15.9364 6.31177 15.5276 6.12661 15.0779C5.94145 14.6282 5.84666 14.1463 5.84765 13.6599V13.5918C5.84765 13.579 5.8502 13.5663 5.85517 13.5545C5.86013 13.5427 5.86741 13.5321 5.87656 13.5231C5.88571 13.5142 5.89656 13.5072 5.90846 13.5025C5.92036 13.4979 5.93308 13.4956 5.94585 13.496H9.15375C9.16888 13.4962 9.18379 13.4997 9.19751 13.506C9.21124 13.5124 9.22348 13.5216 9.23345 13.533C9.24341 13.5444 9.25088 13.5578 9.25537 13.5722C9.25985 13.5867 9.26126 13.6019 9.2595 13.617C9.23815 13.8344 9.28291 14.0532 9.38792 14.2448C9.48077 14.4329 9.62425 14.5914 9.8022 14.7023C9.98015 14.8132 10.1855 14.8722 10.3951 14.8725H11.9839V13.6321H10.3951C10.3682 13.6315 10.3425 13.6203 10.3237 13.601C10.3049 13.5817 10.2944 13.5557 10.2944 13.5288C10.2945 13.5085 10.3017 13.4889 10.3145 13.4733L10.3724 13.3901C10.5185 13.1758 10.73 12.8481 10.944 12.4749C11.0913 12.2191 11.2233 11.9548 11.3393 11.6833C11.362 11.6354 11.3771 11.585 11.3998 11.5346C11.4224 11.4841 11.4602 11.3682 11.4829 11.2824L11.5433 11.0757C11.5935 10.8378 11.618 10.5953 11.6163 10.3521C11.6214 10.2514 11.6214 10.1504 11.6163 10.0496C11.6163 9.94121 11.5987 9.8328 11.5861 9.72439C11.5759 9.62787 11.5608 9.53195 11.5408 9.43698C11.5156 9.29244 11.4854 9.14874 11.4501 9.00587V8.95041C11.4224 8.85208 11.3998 8.7588 11.367 8.65796C11.2789 8.35542 11.1782 8.05793 11.0649 7.76296C11.0271 7.65203 10.9818 7.54362 10.934 7.43522C10.8685 7.27134 10.8005 7.1226 10.7401 6.98394C10.7077 6.92494 10.6783 6.86436 10.6519 6.80242C10.6217 6.73687 10.5915 6.67132 10.5588 6.60577C10.526 6.54022 10.5084 6.50997 10.4908 6.46711L10.2969 6.10911C10.2904 6.09833 10.2873 6.08585 10.288 6.07328C10.2887 6.06072 10.2931 6.04864 10.3007 6.0386C10.3082 6.02857 10.3187 6.02104 10.3306 6.01698C10.3424 6.01292 10.3553 6.01252 10.3674 6.01583L11.5836 6.34358L11.7447 6.39147L11.9059 6.42929L11.9688 6.44694V5.72842C11.9685 5.64565 11.9845 5.56363 12.0158 5.48703C12.0471 5.41044 12.0932 5.34077 12.1514 5.28201C12.2097 5.22325 12.2789 5.17654 12.3551 5.14456C12.4314 5.11258 12.5131 5.09595 12.5958 5.09562C12.6775 5.09611 12.7584 5.11285 12.8336 5.14488C12.9088 5.17691 12.9769 5.22358 13.0339 5.28218C13.1517 5.40077 13.2178 5.5612 13.2178 5.72842V6.80242L13.3487 6.83771L13.3764 6.85284L13.5124 6.95368C13.5577 6.98898 13.6055 7.03436 13.6634 7.07974C13.8447 7.22849 14.021 7.38479 14.1922 7.54615C14.3634 7.7075 14.6152 7.94196 14.8267 8.19407C14.8872 8.26214 14.9426 8.33021 15.003 8.40333C15.0634 8.47644 15.1239 8.54703 15.1792 8.61762C15.2346 8.68821 15.3253 8.81175 15.3958 8.91511C15.426 8.96553 15.4638 9.01596 15.4915 9.06386C15.577 9.19342 15.656 9.32721 15.7282 9.46472C15.7584 9.52774 15.7886 9.59581 15.8163 9.66136C15.8971 9.83854 15.9595 10.0236 16.0026 10.2135C16.0163 10.2525 16.0248 10.2932 16.0278 10.3345C16.0396 10.391 16.0471 10.4483 16.0505 10.5059C16.0761 10.778 16.0426 11.0523 15.9523 11.3102C15.9246 11.3883 15.8969 11.4665 15.8641 11.5446C15.7918 11.7053 15.7076 11.8604 15.6123 12.0085C15.5821 12.064 15.5444 12.1195 15.5091 12.1749C15.4739 12.2304 15.426 12.2884 15.3908 12.3413C15.3555 12.3943 15.2875 12.48 15.2321 12.5455C15.1845 12.6122 15.1332 12.6761 15.0785 12.7371C15.0055 12.8279 14.9325 12.9136 14.8544 12.9892C14.8092 13.0437 14.7613 13.0959 14.7109 13.1455C14.6631 13.201 14.6102 13.2489 14.5674 13.2943L14.376 13.4809L14.2501 13.5918C14.2319 13.6095 14.2075 13.6194 14.1821 13.6195H13.2228V14.8599H14.439C14.7107 14.8601 14.9734 14.7626 15.1792 14.5851C15.4459 14.3546 15.6982 14.1079 15.9346 13.8464C15.9467 13.833 15.9625 13.8233 15.98 13.8187L19.3389 12.8455C19.3643 12.8385 19.3914 12.8417 19.4145 12.8544C19.4375 12.8671 19.4547 12.8884 19.4623 12.9136C19.4635 12.922 19.4635 12.9305 19.4623 12.9388L19.4598 13.6523Z" fill="#A157FF" stroke="#231F20" stroke-width="0.5" stroke-miterlimit="10"/>
<path d="M32.9222 14.3785C32.5163 14.3843 32.1137 14.3036 31.7413 14.1415C31.396 13.9909 31.085 13.7713 30.8273 13.4961C30.5699 13.2216 30.3681 12.8996 30.233 12.5482C30.0918 12.1894 30.0201 11.8069 30.0215 11.4213C30.0194 11.0314 30.0912 10.6447 30.233 10.2817C30.3681 9.93026 30.5699 9.60835 30.8273 9.33377C31.088 9.06246 31.4006 8.8464 31.7463 8.69845C32.1176 8.53857 32.5181 8.45787 32.9222 8.46147C33.5052 8.45323 34.0766 8.62433 34.5593 8.95165C35.042 9.27898 35.4128 9.74675 35.6215 10.2918C35.7626 10.655 35.8335 11.0417 35.8305 11.4313C35.8328 11.8168 35.7618 12.1993 35.6215 12.5583C35.4864 12.9097 35.2846 13.2316 35.0273 13.5062C34.7677 13.7825 34.4539 14.0022 34.1057 14.1516C33.7317 14.3102 33.3283 14.3876 32.9222 14.3785ZM31.0136 11.4313C31.0072 11.8039 31.0937 12.1722 31.2654 12.5028C31.4278 12.8093 31.6652 13.0695 31.9553 13.2591C32.243 13.4419 32.5766 13.5389 32.9172 13.5389C33.2578 13.5389 33.5914 13.4419 33.8791 13.2591C34.172 13.0655 34.4104 12.7999 34.5715 12.4877C34.7441 12.1556 34.8307 11.7855 34.8233 11.4112C34.8307 11.0393 34.7441 10.6716 34.5715 10.3422C34.4085 10.0354 34.1702 9.77514 33.8791 9.58588C33.5928 9.39755 33.2572 9.29841 32.9147 9.301C32.5728 9.29732 32.2381 9.39849 31.9553 9.59093C31.6671 9.78287 31.4303 10.0425 31.2654 10.3473C31.0929 10.6821 31.0064 11.0547 31.0136 11.4313Z" fill="#A157FF"/>
<path d="M40.1074 14.3785C39.6627 14.3868 39.2251 14.265 38.8484 14.0281C38.4922 13.8052 38.1937 13.5011 37.9772 13.1406V16.6172H37.0078V8.54967H37.8664V9.63375C38.0936 9.28479 38.3998 8.99453 38.7603 8.78666C39.1236 8.56478 39.5409 8.44705 39.9664 8.44631C40.3444 8.44492 40.7176 8.53121 41.0567 8.69842C41.385 8.85759 41.6779 9.08139 41.9179 9.35643C42.1608 9.63576 42.3526 9.9558 42.4844 10.3018C42.6202 10.6567 42.6894 11.0336 42.6884 11.4137C42.6943 11.9286 42.5832 12.4381 42.3635 12.9036C42.1635 13.3389 41.8493 13.7118 41.4545 13.9827C41.057 14.2505 40.5865 14.3887 40.1074 14.3785ZM39.8103 13.539C40.0794 13.5423 40.3454 13.4809 40.5858 13.36C40.815 13.2422 41.0173 13.0782 41.1801 12.8784C41.3481 12.6759 41.4778 12.4444 41.5628 12.1952C41.6502 11.9422 41.6945 11.6763 41.6938 11.4086C41.6967 10.8602 41.4946 10.3304 41.1272 9.92368C40.9494 9.72967 40.7356 9.57212 40.4977 9.45979C40.2552 9.34585 39.9901 9.28812 39.7222 9.29088C39.5358 9.29251 39.3511 9.32575 39.1758 9.3892C38.986 9.45675 38.8064 9.55006 38.642 9.66652C38.4797 9.7814 38.3347 9.91893 38.2114 10.0749C38.0966 10.223 38.0173 10.3955 37.9797 10.5792V12.2103C38.0897 12.4576 38.2385 12.6857 38.4204 12.886C38.6011 13.0871 38.8181 13.2521 39.06 13.3726C39.2948 13.4852 39.5524 13.5422 39.8128 13.539H39.8103Z" fill="#A157FF"/>
<path d="M46.4238 14.3784C46.0162 14.384 45.6121 14.3032 45.2379 14.1414C44.8895 13.9908 44.5752 13.7713 44.3138 13.496C44.0525 13.222 43.8465 12.9001 43.7069 12.548C43.562 12.1857 43.4885 11.7988 43.4904 11.4085C43.4851 10.8918 43.6144 10.3826 43.8656 9.93112C44.1139 9.48846 44.4732 9.11828 44.908 8.85712C45.3685 8.58066 45.897 8.43835 46.4339 8.44618C46.9665 8.43485 47.491 8.57753 47.9447 8.85712C48.3681 9.12115 48.7153 9.49138 48.9519 9.93112C49.1897 10.3706 49.3127 10.8632 49.3094 11.3631C49.3094 11.4362 49.3094 11.5068 49.3094 11.5774C49.3084 11.6307 49.3033 11.6838 49.2943 11.7362H44.5177C44.5396 12.0855 44.6468 12.424 44.83 12.722C45.0032 13.0029 45.2438 13.236 45.5299 13.4002C45.8111 13.5648 46.1309 13.6518 46.4566 13.6523C46.8086 13.6586 47.1561 13.5717 47.4638 13.4002C47.7526 13.25 47.9805 13.004 48.1084 12.7043L48.9468 12.9363C48.8161 13.2245 48.6265 13.4821 48.3904 13.6926C48.134 13.9137 47.8385 14.0847 47.5191 14.1968C47.1681 14.3237 46.7969 14.3852 46.4238 14.3784ZM44.4825 11.0681H48.4155C48.3927 10.7188 48.2827 10.3808 48.0958 10.0849C47.9183 9.80892 47.6763 9.58045 47.3907 9.41933C47.1012 9.25491 46.7743 9.16807 46.4415 9.16722C46.1127 9.16898 45.7901 9.25583 45.5048 9.41933C45.2198 9.57951 44.9793 9.80826 44.8048 10.0849C44.6189 10.3815 44.5083 10.719 44.4825 11.0681Z" fill="#A157FF"/>
<path d="M55.3838 14.2676H54.4143V11.0734C54.4482 10.6127 54.3504 10.1518 54.1323 9.74473C54.0391 9.6061 53.9113 9.4943 53.7615 9.42044C53.6118 9.34658 53.4453 9.31323 53.2787 9.3237C53.0042 9.32627 52.7342 9.39364 52.4906 9.52035C52.2292 9.65265 51.9945 9.83214 51.7982 10.0498C51.5976 10.2656 51.4487 10.5242 51.3626 10.8061V14.255H50.3906V8.53964H51.2744V9.7775C51.4272 9.50885 51.6287 9.27114 51.8687 9.07663C52.1163 8.87692 52.3966 8.72168 52.6971 8.61779C53.009 8.50636 53.3379 8.45006 53.669 8.45139C53.9568 8.44183 54.2423 8.50422 54.5 8.63292C54.7194 8.74872 54.9025 8.92328 55.0287 9.13714C55.1646 9.37103 55.2584 9.62705 55.3057 9.89347C55.3609 10.2081 55.3879 10.527 55.3863 10.8465L55.3838 14.2676Z" fill="#A157FF"/>
<path d="M58.8682 14.3785C58.4094 14.3811 57.9539 14.3008 57.5236 14.1415C57.1135 13.99 56.7439 13.7458 56.4434 13.428L56.816 12.7448C57.1034 13.0248 57.4396 13.2495 57.8081 13.4078C58.1285 13.5362 58.4702 13.6029 58.8153 13.6045C59.1525 13.6193 59.4874 13.5427 59.7847 13.3826C59.9024 13.3191 60 13.2237 60.0663 13.1074C60.1327 12.9911 60.1651 12.8584 60.1599 12.7246C60.1666 12.6363 60.1525 12.5477 60.1188 12.4658C60.0852 12.384 60.0328 12.3111 59.966 12.2532C59.8029 12.1343 59.6181 12.0487 59.4221 12.001C59.1854 11.9305 58.9059 11.8523 58.5836 11.7641C58.2383 11.6683 57.9015 11.5444 57.5764 11.3935C57.3304 11.2822 57.1177 11.1084 56.9595 10.8892C56.8126 10.6699 56.7394 10.4094 56.7506 10.1455C56.7393 9.8139 56.8395 9.4881 57.0351 9.22026C57.2386 8.95826 57.5117 8.75903 57.8232 8.64544C58.1873 8.50702 58.5744 8.43942 58.9639 8.44627C59.3588 8.44137 59.7514 8.50887 60.1221 8.64544C60.4583 8.77293 60.7626 8.97257 61.0135 9.23034L60.5728 9.90348C60.3592 9.67917 60.1022 9.50075 59.8174 9.37909C59.5264 9.26146 59.2148 9.20318 58.9009 9.20765C58.7039 9.20805 58.5077 9.2326 58.3167 9.28076C58.1395 9.32159 57.9762 9.40856 57.8434 9.53287C57.7792 9.5995 57.7296 9.6787 57.6975 9.76547C57.6654 9.85225 57.6517 9.94473 57.657 10.0371C57.6473 10.1956 57.7007 10.3516 57.8056 10.4707C57.9303 10.5921 58.081 10.6835 58.2462 10.738C58.4401 10.8111 58.6768 10.8918 58.9563 10.9775C59.3894 11.1035 59.7671 11.2296 60.0869 11.3506C60.369 11.45 60.6236 11.6151 60.8297 11.8321C61.018 12.0621 61.1132 12.3545 61.0966 12.6515C61.1058 12.8963 61.0542 13.1395 60.9466 13.3595C60.8389 13.5795 60.6785 13.7693 60.4797 13.9121C60.0056 14.2349 59.4412 14.3983 58.8682 14.3785Z" fill="#A157FF"/>
<path d="M64.8178 14.3784C64.4102 14.384 64.006 14.3032 63.6318 14.1414C63.2838 13.9901 62.9696 13.7707 62.7077 13.496C62.4465 13.222 62.2404 12.9001 62.1009 12.548C61.9568 12.1856 61.8841 11.7986 61.8868 11.4085C61.8823 10.8915 62.0125 10.3823 62.2645 9.93112C62.5175 9.47445 62.8896 9.09511 63.341 8.83358C63.7924 8.57206 64.3063 8.43816 64.8278 8.44618C65.3604 8.43485 65.885 8.57753 66.3386 8.85712C66.7612 9.12214 67.1082 9.49213 67.3458 9.93112C67.5825 10.3711 67.7055 10.8634 67.7033 11.3631C67.7033 11.4362 67.7033 11.5068 67.7033 11.5774C67.7004 11.6306 67.6945 11.6837 67.6857 11.7362H62.9117C62.9335 12.0855 63.0407 12.424 63.2239 12.722C63.3981 13.003 63.6395 13.2361 63.9264 13.4002C64.2065 13.5651 64.5255 13.6521 64.8505 13.6523C65.2025 13.6586 65.55 13.5717 65.8577 13.4002C66.1466 13.25 66.3744 13.004 66.5023 12.7043L67.3408 12.9363C67.2108 13.225 67.0212 13.4828 66.7843 13.6926C66.5279 13.9137 66.2324 14.0847 65.9131 14.1968C65.5621 14.3239 65.1909 14.3854 64.8178 14.3784ZM62.8789 11.0681H66.7969C66.774 10.7188 66.6641 10.3808 66.4771 10.0849C66.2997 9.80892 66.0577 9.58045 65.7721 9.41933C65.4826 9.25491 65.1556 9.16807 64.8228 9.16722C64.4941 9.16898 64.1714 9.25583 63.8861 9.41933C63.6012 9.57951 63.3606 9.80826 63.1861 10.0849C63.0043 10.3823 62.8988 10.7201 62.8789 11.0681Z" fill="#A157FF"/>
<path d="M68.3324 12.6136C68.3252 12.27 68.4364 11.9345 68.6471 11.6632C68.8743 11.3828 69.1726 11.1686 69.5108 11.043C69.9195 10.8896 70.3535 10.8152 70.7899 10.8236C71.063 10.8243 71.3357 10.8453 71.6057 10.8867C71.8632 10.9205 72.1164 10.9814 72.3611 11.0682V10.6497C72.3712 10.4604 72.3412 10.2711 72.2731 10.0943C72.205 9.91745 72.1002 9.75704 71.9658 9.6236C71.6543 9.35544 71.2501 9.22054 70.8402 9.24795C70.5294 9.24666 70.221 9.30396 69.9313 9.41687C69.6083 9.55429 69.2996 9.72318 69.0097 9.92109L68.6572 9.23787C69.0045 8.99458 69.3831 8.79952 69.7827 8.65801C70.1587 8.52895 70.5535 8.46335 70.951 8.46388C71.5889 8.42998 72.2146 8.64816 72.6935 9.07147C72.9122 9.29296 73.0819 9.55803 73.1917 9.84947C73.3014 10.1409 73.3487 10.4522 73.3305 10.7631V13.1809C73.3247 13.2709 73.3505 13.3601 73.4035 13.433C73.435 13.4631 73.4721 13.4867 73.5128 13.5023C73.5534 13.5178 73.5967 13.5251 73.6402 13.5238V14.2801L73.3884 14.3129C73.3179 14.3129 73.26 14.3129 73.2172 14.3129C73.1247 14.3187 73.032 14.3049 72.9452 14.2723C72.8584 14.2397 72.7795 14.1891 72.7136 14.1238C72.6077 14.0168 72.5404 13.8775 72.5223 13.728L72.4996 13.3624C72.2429 13.6952 71.9046 13.9557 71.5176 14.1187C71.1391 14.2854 70.73 14.3713 70.3165 14.3709C69.9606 14.3774 69.6087 14.296 69.2917 14.1339C69.0036 13.9899 68.7599 13.7704 68.5867 13.4986C68.419 13.234 68.3308 12.9269 68.3324 12.6136ZM72.0816 13.017C72.1638 12.9218 72.234 12.8168 72.2906 12.7044C72.3348 12.6218 72.3605 12.5307 72.3661 12.4372V11.7237C72.134 11.6361 71.8947 11.5686 71.651 11.522C71.4071 11.475 71.1592 11.4514 70.9108 11.4514C70.4935 11.4323 70.0794 11.5329 69.7172 11.7413C69.5766 11.8196 69.4598 11.9345 69.3791 12.0739C69.2984 12.2132 69.2569 12.3719 69.259 12.533C69.2608 12.7195 69.3121 12.9022 69.4075 13.0624C69.5131 13.2405 69.6655 13.3862 69.8482 13.4834C70.0711 13.599 70.3199 13.6554 70.5708 13.6473C70.8663 13.6478 71.1587 13.5869 71.4295 13.4683C71.677 13.3657 71.9 13.2119 72.0841 13.017H72.0816Z" fill="#A157FF"/>
<path d="M74.8145 14.2676V13.0322H75.6303V14.2676H74.8145Z" fill="#A157FF"/>
<path d="M77.1211 7.43791V6.21265H78.093V7.43791H77.1211ZM77.1211 14.2802V8.50686H78.093V14.2676L77.1211 14.2802Z" fill="#A157FF"/>
<path d="M82.156 14.3784C81.7508 14.3845 81.349 14.3037 80.9776 14.1414C80.6319 13.99 80.3202 13.7705 80.0611 13.496C79.8045 13.2208 79.6029 12.899 79.4668 12.548C79.3277 12.1887 79.2568 11.8065 79.2578 11.4211C79.2561 11.0316 79.327 10.6451 79.4668 10.2816C79.6029 9.9306 79.8045 9.60885 80.0611 9.33363C80.325 9.06146 80.641 8.84538 80.9902 8.69831C81.3478 8.53805 81.7343 8.45226 82.126 8.44615C82.5178 8.44004 82.9067 8.51373 83.2691 8.66276C83.6316 8.81178 83.96 9.03302 84.2344 9.31303C84.5088 9.59305 84.7234 9.926 84.8654 10.2917C85.0052 10.6552 85.0761 11.0416 85.0744 11.4312C85.0754 11.8166 85.0045 12.1988 84.8654 12.5581C84.7284 12.9092 84.5259 13.2309 84.2686 13.5061C84.0095 13.7818 83.6967 14.0014 83.3495 14.1515C82.9723 14.3109 82.5654 14.3882 82.156 14.3784ZM80.2499 11.4312C80.2422 11.8039 80.3288 12.1725 80.5017 12.5027C80.6632 12.809 80.8997 13.0693 81.1891 13.259C81.4768 13.4417 81.8104 13.5388 82.151 13.5388C82.4916 13.5388 82.8252 13.4417 83.1129 13.259C83.406 13.0648 83.6451 12.7994 83.8078 12.4875C83.9804 12.1555 84.067 11.7853 84.0596 11.411C84.067 11.0392 83.9804 10.6714 83.8078 10.3421C83.6431 10.0357 83.4041 9.77559 83.1129 9.58574C82.8299 9.39527 82.497 9.29266 82.156 9.29077C81.8142 9.28709 81.4794 9.38826 81.1967 9.5807C80.9092 9.77272 80.6732 10.0324 80.5093 10.337C80.3335 10.6743 80.2468 11.0509 80.2575 11.4312H80.2499Z" fill="#A157FF"/>
</svg>
