<svg width="66" height="82" viewBox="0 0 66 82" fill="none" xmlns="http://www.w3.org/2000/svg">
<path d="M24.6283 63.5879C37.6692 63.5879 48.241 52.9544 48.241 39.8374C48.241 26.7204 37.6692 16.0869 24.6283 16.0869C11.5874 16.0869 1.01562 26.7204 1.01562 39.8374C1.01562 52.9544 11.5874 63.5879 24.6283 63.5879Z" fill="white" stroke="white" stroke-width="4" stroke-miterlimit="10"/>
<path d="M31.669 51.6343C50.2161 41.2892 62.0981 27.1832 58.2082 20.1275C54.3182 13.0719 36.1295 15.7385 17.5824 26.0835C-0.964636 36.4286 -12.8466 50.5347 -8.95669 57.5903C-5.06678 64.646 13.122 61.9794 31.669 51.6343Z" stroke="#7FFF52" stroke-width="5" stroke-miterlimit="10"/>
<path d="M39.0194 48.0124C49.6386 29.6239 52.6066 11.4226 45.6486 7.35855C38.6906 3.2945 24.4416 14.9067 13.8224 33.2951C3.20326 51.6836 0.235272 69.8849 7.19324 73.9489C14.1512 78.013 28.4003 66.4008 39.0194 48.0124Z" stroke="#7FFF52" stroke-width="5" stroke-miterlimit="10"/>
</svg>
