<svg width="354" height="58" viewBox="0 0 354 58" fill="none" xmlns="http://www.w3.org/2000/svg">
<path d="M540.062 0.945068H28.7626C13.2016 0.945068 0.586914 13.5648 0.586914 29.1321C0.586914 44.6993 13.2016 57.3191 28.7626 57.3191H540.062C555.623 57.3191 568.238 44.6993 568.238 29.1321C568.238 13.5648 555.623 0.945068 540.062 0.945068Z" fill="white" stroke="#231F20" stroke-miterlimit="10"/>
<path d="M28.7626 0.945068C23.1889 0.945071 17.7404 2.59886 13.1064 5.69723C8.47235 8.79559 4.86101 13.1993 2.72922 18.3513C0.597418 23.5033 0.0409476 29.1721 1.1302 34.6406C2.21945 40.109 4.90548 45.1314 8.84849 49.0724C12.7915 53.0134 17.8143 55.6959 23.2816 56.7806C28.7488 57.8653 34.4148 57.3034 39.5628 55.1661C44.7108 53.0287 49.1095 49.412 52.2024 44.7732C55.2953 40.1345 56.9434 34.6823 56.9384 29.1064C56.9316 21.6352 53.96 14.4723 48.6768 9.19177C43.3936 3.91123 36.2309 0.945065 28.7626 0.945068ZM14.4853 30.0766L14.6073 29.8838L21.9419 18.415C21.9786 18.3599 22.0352 18.3211 22.0998 18.3068C22.1644 18.2924 22.2321 18.3036 22.2887 18.3379C22.3286 18.3649 22.3598 18.4028 22.3786 18.4471C23.5989 21.1906 24.6586 24.6088 24.1641 26.7355C23.83 27.8466 23.3437 28.9062 22.719 29.8838C22.6356 30.0451 22.5434 30.2017 22.4429 30.3529C22.4215 30.3874 22.391 30.4153 22.3547 30.4335C22.3184 30.4516 22.2778 30.4593 22.2373 30.4557H14.7037C14.6711 30.4565 14.6387 30.4508 14.6083 30.4389C14.578 30.4271 14.5503 30.4092 14.5269 30.3865C14.5036 30.3637 14.485 30.3365 14.4724 30.3064C14.4597 30.2764 14.4532 30.2441 14.4532 30.2115C14.4529 30.1638 14.4663 30.117 14.4917 30.0766H14.4853ZM47.144 34.0216C47.1428 34.0716 47.1278 34.1203 47.1006 34.1623C47.0734 34.2043 47.035 34.2379 46.9898 34.2593C46.4182 34.5035 44.4786 35.3966 43.6694 36.521C41.6077 39.3866 40.0342 43.4922 36.5147 43.4922H21.8456C20.6063 43.4914 19.3794 43.2462 18.235 42.7706C17.0906 42.295 16.0511 41.5984 15.1761 40.7206C14.301 39.8427 13.6075 38.801 13.1352 37.6548C12.6629 36.5086 12.4211 35.2806 12.4237 34.0409V33.8674C12.4237 33.8348 12.4302 33.8025 12.4428 33.7724C12.4555 33.7424 12.4741 33.7152 12.4974 33.6924C12.5208 33.6697 12.5484 33.6518 12.5788 33.6399C12.6091 33.6281 12.6416 33.6224 12.6742 33.6232H20.8565C20.8951 33.6239 20.9331 33.6326 20.9681 33.6488C21.0031 33.6651 21.0344 33.6885 21.0598 33.7176C21.0852 33.7466 21.1042 33.7807 21.1157 33.8176C21.1271 33.8544 21.1307 33.8933 21.1262 33.9316C21.0718 34.4858 21.1859 35.0434 21.4538 35.5315C21.6906 36.011 22.0566 36.4149 22.5105 36.6975C22.9644 36.9802 23.4881 37.1305 24.0228 37.1314H28.0754V33.9702H24.0228C23.9541 33.9685 23.8887 33.94 23.8407 33.8908C23.7927 33.8416 23.7659 33.7755 23.7659 33.7068C23.7663 33.6551 23.7844 33.6052 23.8173 33.5654L23.965 33.3534C24.3375 32.8073 24.877 31.972 25.4229 31.0211C25.7986 30.3691 26.1353 29.6954 26.4313 29.0036C26.4891 28.8815 26.5276 28.753 26.5854 28.6245C26.6432 28.496 26.7395 28.2004 26.7973 27.982L26.9515 27.4551C27.0796 26.8489 27.142 26.2307 27.1377 25.6111C27.1507 25.3543 27.1507 25.0969 27.1377 24.8401C27.1377 24.5638 27.0928 24.2875 27.0607 24.0113C27.0347 23.7653 26.9961 23.5208 26.9451 23.2788C26.8808 22.9104 26.8038 22.5442 26.7138 22.1801V22.0387C26.6432 21.7882 26.5854 21.5504 26.5019 21.2934C26.2771 20.5224 26.0202 19.7643 25.7312 19.0125C25.6349 18.7298 25.5193 18.4535 25.3972 18.1772C25.2302 17.7596 25.0568 17.3805 24.9027 17.0271C24.8201 16.8768 24.7451 16.7224 24.6779 16.5645C24.6008 16.3975 24.5238 16.2304 24.4403 16.0634C24.3568 15.8963 24.3118 15.8192 24.2669 15.71L23.7723 14.7976C23.7558 14.7701 23.7479 14.7383 23.7496 14.7063C23.7513 14.6743 23.7626 14.6435 23.7819 14.6179C23.8012 14.5924 23.8278 14.5732 23.8581 14.5628C23.8885 14.5525 23.9212 14.5515 23.9522 14.5599L27.0542 15.3952L27.4653 15.5172L27.8763 15.6136L28.0369 15.6586V13.8274C28.036 13.6165 28.0767 13.4075 28.1567 13.2123C28.2366 13.017 28.3541 12.8395 28.5026 12.6897C28.6511 12.54 28.8277 12.421 29.0221 12.3395C29.2166 12.258 29.4252 12.2156 29.6361 12.2147C29.8446 12.216 30.0507 12.2586 30.2426 12.3403C30.4344 12.4219 30.6081 12.5408 30.7536 12.6902C31.054 12.9924 31.2225 13.4013 31.2225 13.8274V16.5645L31.5565 16.6545L31.6271 16.693L31.9739 16.9501C32.0895 17.04 32.2116 17.1557 32.3593 17.2713C32.8217 17.6504 33.2713 18.0487 33.708 18.46C34.1447 18.8712 34.787 19.4687 35.3265 20.1112C35.4806 20.2847 35.6219 20.4582 35.7761 20.6445C35.9302 20.8308 36.0843 21.0107 36.2256 21.1906C36.3669 21.3705 36.5982 21.6854 36.778 21.9488C36.8551 22.0773 36.9514 22.2058 37.022 22.3279C37.2402 22.6581 37.4417 22.999 37.6258 23.3495C37.7028 23.5101 37.7799 23.6836 37.8505 23.8506C38.0566 24.3022 38.2159 24.7737 38.3258 25.2577C38.3607 25.3572 38.3823 25.4609 38.39 25.5661C38.42 25.7102 38.4393 25.8562 38.4478 26.003C38.5132 26.6963 38.4277 27.3955 38.1974 28.0527C38.1267 28.2518 38.0561 28.451 37.9726 28.6502C37.7881 29.0597 37.5734 29.4548 37.3303 29.8324C37.2533 29.9738 37.1569 30.1151 37.067 30.2565C36.9771 30.3978 36.855 30.5456 36.7651 30.6805C36.6752 30.8155 36.5018 31.0339 36.3605 31.201C36.239 31.3708 36.1082 31.5339 35.9687 31.6893C35.7825 31.9206 35.5962 32.139 35.3971 32.3318C35.2819 32.4706 35.1597 32.6036 35.031 32.7301C34.909 32.8715 34.7741 32.9936 34.665 33.1092L34.1768 33.5847L33.8557 33.8674C33.8092 33.9125 33.7471 33.9378 33.6823 33.9381H31.2353V37.0992H34.3374C35.0304 37.0998 35.7005 36.8513 36.2256 36.3989C36.9058 35.8114 37.5492 35.1827 38.1524 34.5163C38.1833 34.482 38.2234 34.4575 38.268 34.4457L46.8357 31.9656C46.9004 31.9476 46.9696 31.9557 47.0284 31.9881C47.0872 32.0205 47.131 32.0747 47.1504 32.139C47.1534 32.1604 47.1534 32.182 47.1504 32.2033L47.144 34.0216Z" fill="#A157FF" stroke="#231F20" stroke-miterlimit="10"/>
<path d="M81.4858 35.872C80.4503 35.8868 79.4235 35.6809 78.4736 35.268C77.5928 34.8841 76.7995 34.3244 76.1422 33.6232C75.4857 32.9234 74.971 32.103 74.6265 31.2073C74.2664 30.2929 74.0833 29.3182 74.087 28.3353C74.0816 27.3418 74.2646 26.3564 74.6265 25.4312C74.971 24.5355 75.4857 23.7151 76.1422 23.0153C76.8073 22.3239 77.6045 21.7732 78.4865 21.3962C79.4335 20.9887 80.455 20.7831 81.4858 20.7922C82.9727 20.7712 84.4302 21.2073 85.6615 22.0415C86.8928 22.8757 87.8384 24.0678 88.3708 25.4569C88.7306 26.3824 88.9115 27.3679 88.9039 28.361C88.9096 29.3435 88.7287 30.3181 88.3708 31.2331C88.0263 32.1287 87.5116 32.9491 86.8551 33.6489C86.1929 34.3531 85.3927 34.913 84.5044 35.2937C83.5504 35.698 82.5216 35.8951 81.4858 35.872ZM76.6175 28.361C76.6011 29.3105 76.8219 30.2491 77.2598 31.0917C77.6741 31.8727 78.2795 32.5359 79.0196 33.0192C79.7532 33.4849 80.6041 33.7322 81.473 33.7322C82.3418 33.7322 83.1928 33.4849 83.9264 33.0192C84.6735 32.5258 85.2816 31.8488 85.6926 31.0531C86.1328 30.2068 86.3537 29.2635 86.3348 28.3096C86.3538 27.3619 86.1328 26.4248 85.6926 25.5854C85.2767 24.8034 84.6689 24.1402 83.9264 23.6578C83.1962 23.1779 82.3402 22.9252 81.4665 22.9318C80.5946 22.9224 79.7407 23.1803 79.0196 23.6707C78.2845 24.1599 77.6803 24.8216 77.2598 25.5982C76.8197 26.4515 76.599 27.401 76.6175 28.361Z" fill="#A157FF"/>
<path d="M99.8085 35.872C98.674 35.8932 97.558 35.5828 96.5972 34.9789C95.6886 34.4109 94.9272 33.6359 94.375 32.7173V41.5775H91.9023V21.0171H94.0924V23.7799C94.6717 22.8906 95.453 22.1509 96.3724 21.6211C97.2992 21.0556 98.3633 20.7556 99.4488 20.7537C100.413 20.7502 101.365 20.9701 102.23 21.3962C103.067 21.8019 103.814 22.3722 104.426 23.0732C105.046 23.785 105.535 24.6007 105.871 25.4826C106.218 26.3869 106.394 27.3476 106.392 28.3161C106.407 29.6283 106.123 30.9268 105.563 32.1133C105.053 33.2227 104.252 34.173 103.245 34.8633C102.231 35.5458 101.03 35.8982 99.8085 35.872ZM99.0506 33.7324C99.737 33.7409 100.415 33.5844 101.029 33.2763C101.613 32.9761 102.129 32.5583 102.545 32.0491C102.973 31.5329 103.304 30.9429 103.521 30.3079C103.744 29.6631 103.857 28.9855 103.855 28.3032C103.862 26.9055 103.347 25.5555 102.41 24.5188C101.956 24.0244 101.411 23.6229 100.804 23.3366C100.185 23.0462 99.5092 22.8991 98.8259 22.9061C98.3505 22.9103 97.8792 22.995 97.4322 23.1567C96.9481 23.3288 96.49 23.5667 96.0706 23.8635C95.6567 24.1562 95.2869 24.5067 94.9723 24.9043C94.6795 25.2817 94.4773 25.7214 94.3814 26.1894V30.3464C94.6619 30.9767 95.0414 31.558 95.5054 32.0683C95.9663 32.5808 96.5198 33.0015 97.1367 33.3084C97.7358 33.5955 98.3929 33.7406 99.0571 33.7324H99.0506Z" fill="#A157FF"/>
<path d="M115.923 35.8719C114.883 35.8862 113.853 35.6803 112.898 35.2679C112.01 34.8841 111.208 34.3246 110.541 33.6231C109.875 32.9248 109.349 32.1045 108.993 31.2072C108.624 30.2839 108.436 29.2977 108.441 28.3031C108.427 26.9861 108.757 25.6884 109.398 24.5379C110.031 23.4098 110.948 22.4664 112.057 21.8008C113.231 21.0963 114.579 20.7336 115.949 20.7535C117.307 20.7247 118.645 21.0883 119.802 21.8008C120.882 22.4737 121.768 23.4173 122.371 24.5379C122.978 25.6581 123.292 26.9135 123.283 28.1874C123.283 28.3737 123.283 28.5536 123.283 28.7335C123.281 28.8693 123.268 29.0046 123.245 29.1383H111.061C111.117 30.0284 111.39 30.8911 111.858 31.6506C112.3 32.3665 112.913 32.9606 113.643 33.3789C114.36 33.7985 115.176 34.0202 116.007 34.0214C116.905 34.0376 117.791 33.8159 118.576 33.3789C119.312 32.9962 119.894 32.3694 120.22 31.6056L122.359 32.1967C122.025 32.9312 121.541 33.5878 120.939 34.1242C120.285 34.6876 119.531 35.1235 118.717 35.4093C117.822 35.7325 116.875 35.8893 115.923 35.8719ZM110.971 27.4357H121.003C120.945 26.5454 120.665 25.6838 120.188 24.9299C119.735 24.2265 119.118 23.6443 118.389 23.2336C117.651 22.8146 116.817 22.5933 115.968 22.5911C115.13 22.5956 114.307 22.817 113.579 23.2336C112.852 23.6419 112.238 24.2248 111.793 24.9299C111.319 25.6856 111.037 26.5459 110.971 27.4357Z" fill="#A157FF"/>
<path d="M138.775 35.5894H136.302V27.4487C136.389 26.2746 136.139 25.1002 135.583 24.0627C135.345 23.7094 135.019 23.4245 134.637 23.2362C134.255 23.048 133.831 22.963 133.406 22.9897C132.706 22.9962 132.017 23.1679 131.395 23.4909C130.729 23.828 130.13 24.2855 129.629 24.8401C129.118 25.3902 128.738 26.0493 128.518 26.7677V35.5572H126.039V20.9915H128.293V24.1462C128.683 23.4615 129.197 22.8557 129.809 22.36C130.441 21.8511 131.156 21.4554 131.922 21.1907C132.718 20.9067 133.557 20.7632 134.401 20.7666C135.135 20.7422 135.864 20.9012 136.521 21.2292C137.081 21.5243 137.547 21.9692 137.869 22.5142C138.216 23.1103 138.455 23.7628 138.576 24.4418C138.717 25.2436 138.785 26.0564 138.781 26.8705L138.775 35.5894Z" fill="#A157FF"/>
<path d="M147.663 35.872C146.493 35.8787 145.331 35.6741 144.234 35.268C143.188 34.8819 142.245 34.2596 141.479 33.4497L142.429 31.7085C143.162 32.422 144.02 32.9948 144.96 33.3983C145.777 33.7254 146.648 33.8955 147.529 33.8994C148.389 33.9373 149.243 33.7419 150.001 33.334C150.302 33.172 150.55 32.929 150.72 32.6326C150.889 32.3361 150.971 31.9982 150.958 31.6571C150.975 31.4321 150.939 31.2062 150.853 30.9976C150.768 30.789 150.634 30.6033 150.464 30.4556C150.048 30.1528 149.576 29.9345 149.076 29.8131C148.473 29.6332 147.76 29.434 146.938 29.2091C146.057 28.9651 145.198 28.6492 144.369 28.2646C143.741 27.9811 143.198 27.538 142.795 26.9796C142.42 26.4207 142.234 25.7566 142.262 25.0842C142.233 24.2391 142.489 23.4088 142.988 22.7262C143.507 22.0585 144.204 21.5507 144.998 21.2612C145.927 20.9085 146.914 20.7362 147.907 20.7536C148.915 20.7411 149.916 20.9132 150.862 21.2612C151.719 21.5861 152.495 22.0949 153.135 22.7519L152.011 24.4674C151.467 23.8957 150.811 23.441 150.085 23.1309C149.342 22.8312 148.547 22.6826 147.747 22.694C147.245 22.695 146.744 22.7576 146.257 22.8804C145.805 22.9844 145.388 23.2061 145.049 23.5229C144.886 23.6927 144.759 23.8945 144.677 24.1157C144.596 24.3368 144.561 24.5725 144.574 24.8079C144.549 25.2119 144.686 25.6093 144.953 25.913C145.271 26.2225 145.656 26.4554 146.077 26.5941C146.572 26.7804 147.175 26.986 147.888 27.2045C148.993 27.5257 149.956 27.847 150.772 28.1554C151.492 28.4088 152.141 28.8294 152.667 29.3826C153.147 29.9688 153.39 30.714 153.347 31.4707C153.371 32.0946 153.239 32.7146 152.965 33.2752C152.69 33.8358 152.281 34.3196 151.774 34.6833C150.565 35.5062 149.125 35.9225 147.663 35.872Z" fill="#A157FF"/>
<path d="M162.839 35.8719C161.8 35.8862 160.769 35.6803 159.814 35.2679C158.927 34.8824 158.125 34.3232 157.457 33.6231C156.791 32.9248 156.265 32.1045 155.909 31.2072C155.542 30.2834 155.357 29.2973 155.364 28.3031C155.352 26.9856 155.684 25.6878 156.327 24.5379C156.972 23.3741 157.921 22.4073 159.073 21.7408C160.224 21.0743 161.535 20.7331 162.865 20.7535C164.224 20.7247 165.562 21.0883 166.719 21.8008C167.797 22.4762 168.682 23.4192 169.288 24.5379C169.891 25.6592 170.205 26.9138 170.2 28.1874C170.2 28.3737 170.2 28.5536 170.2 28.7335C170.192 28.8692 170.177 29.0044 170.155 29.1383H157.978C158.033 30.0284 158.307 30.8911 158.774 31.6506C159.218 32.3668 159.834 32.9608 160.566 33.3789C161.28 33.7991 162.094 34.0209 162.923 34.0214C163.821 34.0376 164.707 33.8159 165.492 33.3789C166.229 32.9962 166.81 32.3694 167.136 31.6056L169.275 32.1967C168.943 32.9325 168.46 33.5895 167.855 34.1242C167.201 34.6876 166.448 35.1235 165.633 35.4093C164.738 35.733 163.791 35.8898 162.839 35.8719ZM157.894 27.4357H167.888C167.829 26.5454 167.549 25.6838 167.072 24.9299C166.619 24.2265 166.002 23.6443 165.274 23.2336C164.535 22.8146 163.701 22.5933 162.852 22.5911C162.014 22.5956 161.191 22.817 160.463 23.2336C159.736 23.6419 159.123 24.2248 158.678 24.9299C158.214 25.6878 157.945 26.5486 157.894 27.4357Z" fill="#A157FF"/>
<path d="M171.806 31.3743C171.787 30.4986 172.071 29.6434 172.608 28.952C173.188 28.2374 173.949 27.6915 174.811 27.3715C175.854 26.9806 176.961 26.7909 178.074 26.8125C178.771 26.8141 179.466 26.8678 180.155 26.9731C180.812 27.0594 181.457 27.2144 182.082 27.4357V26.3691C182.107 25.8868 182.031 25.4044 181.857 24.9537C181.683 24.503 181.416 24.0942 181.073 23.7541C180.279 23.0707 179.248 22.7269 178.202 22.7968C177.409 22.7935 176.623 22.9395 175.884 23.2272C175.06 23.5775 174.273 24.0079 173.533 24.5123L172.634 22.7711C173.52 22.151 174.486 21.6539 175.505 21.2933C176.464 20.9644 177.471 20.7972 178.485 20.7985C180.112 20.7121 181.708 21.2682 182.929 22.347C183.487 22.9115 183.92 23.587 184.2 24.3298C184.48 25.0725 184.601 25.8658 184.554 26.6583V32.82C184.539 33.0493 184.605 33.2767 184.741 33.4625C184.821 33.5392 184.915 33.5992 185.019 33.6389C185.123 33.6787 185.233 33.6973 185.344 33.6938V35.6213L184.702 35.7048C184.522 35.7048 184.374 35.7048 184.265 35.7048C184.029 35.7197 183.793 35.6844 183.571 35.6014C183.35 35.5183 183.149 35.3894 182.981 35.2229C182.711 34.9503 182.539 34.5954 182.493 34.2142L182.435 33.2826C181.78 34.1306 180.917 34.7946 179.93 35.2101C178.965 35.6348 177.921 35.8537 176.866 35.8526C175.959 35.8693 175.061 35.6618 174.252 35.2486C173.518 34.8818 172.896 34.3222 172.454 33.6295C172.027 32.9554 171.801 32.1727 171.806 31.3743ZM181.369 32.4023C181.578 32.1596 181.757 31.892 181.902 31.6056C182.014 31.3952 182.08 31.1628 182.094 30.9245V29.1062C181.502 28.883 180.892 28.711 180.27 28.5922C179.648 28.4725 179.016 28.4123 178.382 28.4123C177.318 28.3635 176.262 28.6199 175.338 29.1512C174.979 29.3506 174.681 29.6435 174.475 29.9987C174.27 30.3539 174.164 30.7582 174.169 31.1687C174.174 31.6441 174.304 32.1097 174.548 32.518C174.817 32.972 175.206 33.3432 175.672 33.591C176.24 33.8856 176.875 34.0294 177.515 34.0086C178.269 34.01 179.015 33.8546 179.705 33.5524C180.337 33.2909 180.906 32.899 181.375 32.4023H181.369Z" fill="#A157FF"/>
<path d="M188.337 35.5892V32.4409H190.418V35.5892H188.337Z" fill="#A157FF"/>
<path d="M194.221 18.1836V15.061H196.7V18.1836H194.221ZM194.221 35.6214V20.9079H196.7V35.5893L194.221 35.6214Z" fill="#A157FF"/>
<path d="M207.065 35.872C206.032 35.8875 205.007 35.6816 204.06 35.268C203.178 34.8823 202.383 34.3229 201.722 33.6232C201.067 32.9218 200.553 32.1018 200.206 31.2074C199.851 30.2916 199.67 29.3175 199.673 28.3353C199.668 27.3425 199.849 26.3576 200.206 25.4312C200.553 24.5367 201.067 23.7168 201.722 23.0153C202.395 22.3217 203.201 21.771 204.092 21.3962C205.004 20.9878 205.989 20.7692 206.989 20.7536C207.988 20.738 208.98 20.9258 209.904 21.3056C210.829 21.6854 211.667 22.2492 212.366 22.9628C213.066 23.6765 213.614 24.525 213.976 25.4569C214.333 26.3833 214.513 27.3682 214.509 28.361C214.512 29.3432 214.331 30.3173 213.976 31.2331C213.627 32.1278 213.11 32.9477 212.454 33.6489C211.793 34.3515 210.995 34.9113 210.11 35.2937C209.147 35.7 208.11 35.8972 207.065 35.872ZM202.203 28.361C202.184 29.3109 202.405 30.2503 202.846 31.0917C203.257 31.8724 203.861 32.5357 204.599 33.0192C205.333 33.4849 206.184 33.7322 207.052 33.7322C207.921 33.7322 208.772 33.4849 209.506 33.0192C210.253 32.5244 210.863 31.848 211.278 31.0532C211.719 30.2068 211.94 29.2635 211.921 28.3096C211.94 27.3619 211.719 26.4248 211.278 25.5854C210.858 24.8045 210.249 24.1417 209.506 23.6578C208.784 23.1724 207.935 22.9109 207.065 22.9061C206.193 22.8967 205.339 23.1546 204.618 23.645C203.885 24.1344 203.283 24.7962 202.865 25.5725C202.416 26.432 202.195 27.3919 202.223 28.361H202.203Z" fill="#A157FF"/>
</svg>
