<svg width="59" height="64" viewBox="0 0 59 64" fill="none" xmlns="http://www.w3.org/2000/svg">
<path d="M17.9547 11.598C17.6786 11.1197 17.067 10.9558 16.5887 11.2319C16.1104 11.5081 15.9465 12.1197 16.2227 12.598L22.2227 22.9903C22.4988 23.4686 23.1104 23.6324 23.5887 23.3563C24.067 23.0801 24.2308 22.4686 23.9547 21.9903L17.9547 11.598Z" fill="#8F88C1" stroke="#231F20" stroke-miterlimit="10"/>
<path d="M14.9911 27.1655L32.0518 17.3155C34.0386 16.1684 36.3997 15.8576 38.6156 16.4513C40.8316 17.0451 42.7209 18.4948 43.8679 20.4816L53.6379 37.4037C54.2164 38.4057 54.5919 39.5117 54.7429 40.6588C54.8939 41.8058 54.8175 42.9714 54.5181 44.0889C54.2186 45.2065 53.702 46.2541 52.9977 47.1719C52.2934 48.0898 51.4152 48.8599 50.4133 49.4384L33.6297 59.1284C31.6062 60.2967 29.2014 60.6133 26.9445 60.0085C24.6875 59.4038 22.7633 57.9273 21.595 55.9037L11.825 38.9816C10.6779 36.9948 10.3671 34.6338 10.9609 32.4178C11.5546 30.2019 13.0044 28.3125 14.9911 27.1655Z" fill="#A157FF" stroke="#231F20" stroke-miterlimit="10"/>
<path d="M18.2718 30.4676L33.2713 21.8076C34.383 21.1658 35.7041 20.9919 36.944 21.3241C38.1839 21.6563 39.2411 22.4675 39.8829 23.5792L48.4629 38.4402C49.1259 39.5886 49.3056 40.9534 48.9624 42.2343C48.6192 43.5152 47.7812 44.6073 46.6328 45.2703L31.9103 53.7703C30.7619 54.4333 29.3971 54.613 28.1163 54.2698C26.8354 53.9266 25.7433 53.0886 25.0802 51.9402L16.5202 37.1138C16.1962 36.5631 15.9844 35.9537 15.8971 35.3207C15.8097 34.6877 15.8486 34.0437 16.0114 33.4258C16.1743 32.8079 16.4579 32.2284 16.8458 31.7207C17.2338 31.213 17.7184 30.7871 18.2718 30.4676Z" fill="#A157FF"/>
<mask id="mask0_454_19518" style="mask-type:luminance" maskUnits="userSpaceOnUse" x="15" y="21" width="35" height="34">
<path d="M18.2718 30.4676L33.2713 21.8076C34.383 21.1658 35.7041 20.9919 36.944 21.3241C38.1839 21.6563 39.2411 22.4675 39.8829 23.5792L48.4629 38.4402C49.1259 39.5886 49.3056 40.9534 48.9624 42.2343C48.6192 43.5152 47.7812 44.6073 46.6328 45.2703L31.9103 53.7703C30.7619 54.4333 29.3971 54.613 28.1163 54.2698C26.8354 53.9266 25.7433 53.0886 25.0802 51.9402L16.5202 37.1138C16.1962 36.5631 15.9844 35.9537 15.8971 35.3207C15.8097 34.6877 15.8486 34.0437 16.0114 33.4258C16.1743 32.8079 16.4579 32.2284 16.8458 31.7207C17.2338 31.213 17.7184 30.7871 18.2718 30.4676Z" fill="white"/>
</mask>
<g mask="url(#mask0_454_19518)">
<path d="M40.3262 3.34692L3.95312 24.3469L24.9531 60.72L61.3262 39.72L40.3262 3.34692Z" fill="black" stroke="#A157FF" stroke-width="0.25" stroke-miterlimit="10"/>
<path d="M21.4531 54.6577L57.8262 33.6577" stroke="#A157FF" stroke-width="0.25" stroke-miterlimit="10"/>
<path d="M17.9531 48.5957L54.3262 27.5957" stroke="#A157FF" stroke-width="0.25" stroke-miterlimit="10"/>
<path d="M14.4531 42.5334L50.8262 21.5334" stroke="#A157FF" stroke-width="0.25" stroke-miterlimit="10"/>
<path d="M10.9531 36.4712L47.3262 15.4712" stroke="#A157FF" stroke-width="0.25" stroke-miterlimit="10"/>
<path d="M7.45312 30.4092L43.8262 9.40918" stroke="#A157FF" stroke-width="0.25" stroke-miterlimit="10"/>
<path d="M34.2637 6.84692L55.2637 43.22" stroke="#A157FF" stroke-width="0.25" stroke-miterlimit="10"/>
<path d="M28.2021 10.3469L49.2021 46.72" stroke="#A157FF" stroke-width="0.25" stroke-miterlimit="10"/>
<path d="M22.1396 13.8469L43.1396 50.22" stroke="#A157FF" stroke-width="0.25" stroke-miterlimit="10"/>
<path d="M16.0771 17.3469L37.0771 53.72" stroke="#A157FF" stroke-width="0.25" stroke-miterlimit="10"/>
<path d="M10.0156 20.8469L31.0156 57.22" stroke="#A157FF" stroke-width="0.25" stroke-miterlimit="10"/>
</g>
<path d="M18.2718 30.4676L33.2713 21.8076C34.383 21.1658 35.7041 20.9919 36.944 21.3241C38.1839 21.6563 39.2411 22.4675 39.8829 23.5792L48.4629 38.4402C49.1259 39.5886 49.3056 40.9534 48.9624 42.2343C48.6192 43.5152 47.7812 44.6073 46.6328 45.2703L31.9103 53.7703C30.7619 54.4333 29.3972 54.613 28.1163 54.2698C26.8354 53.9266 25.7433 53.0886 25.0802 51.9402L16.5202 37.1138C16.1962 36.5631 15.9844 35.9537 15.8971 35.3207C15.8097 34.6877 15.8486 34.0437 16.0114 33.4258C16.1743 32.8079 16.4579 32.2284 16.8458 31.7207C17.2338 31.213 17.7184 30.7871 18.2718 30.4676Z" stroke="#7FFF52" stroke-miterlimit="10"/>
<path d="M25.4108 35.0522L23.6787 36.0522L26.6787 41.2484L28.4108 40.2484L25.4108 35.0522Z" fill="#BFD851" stroke="#7FFF52" stroke-width="2" stroke-miterlimit="10"/>
<path d="M35.4049 29.2822L33.6729 30.2822L36.6729 35.4784L38.4049 34.4784L35.4049 29.2822Z" fill="#BFD851" stroke="#7FFF52" stroke-width="2" stroke-miterlimit="10"/>
<path d="M19.5881 16.4282C21.5013 15.3236 22.1568 12.8773 21.0522 10.9641C19.9477 9.05093 17.5013 8.39543 15.5881 9.5C13.675 10.6046 13.0195 13.0509 14.124 14.9641C15.2286 16.8773 17.675 17.5328 19.5881 16.4282Z" fill="#7FFF52" stroke="#231F20" stroke-miterlimit="10"/>
<path d="M38.9585 46.8374L41.1582 45.5674L39.8882 43.3677L37.6885 44.6377L38.9585 46.8374Z" fill="#7FFF52" stroke="#7FFF52" stroke-miterlimit="10"/>
<path d="M36.7583 48.1074L38.958 46.8374L37.688 44.6377L35.4883 45.9077L36.7583 48.1074Z" fill="#7FFF52" stroke="#7FFF52" stroke-miterlimit="10"/>
<path d="M34.5591 49.3774L36.7588 48.1074L35.4888 45.9077L33.2891 47.1777L34.5591 49.3774Z" fill="#7FFF52" stroke="#7FFF52" stroke-miterlimit="10"/>
<path d="M31.0981 48.4429L33.2979 47.1729L32.0279 44.9731L29.8281 46.2431L31.0981 48.4429Z" fill="#7FFF52" stroke="#7FFF52" stroke-miterlimit="10"/>
<path d="M40.2251 43.1728L42.4248 41.9028L41.1548 39.7031L38.9551 40.9731L40.2251 43.1728Z" fill="#7FFF52" stroke="#7FFF52" stroke-miterlimit="10"/>
</svg>
