<svg width="216" height="180" viewBox="0 0 216 180" fill="none" xmlns="http://www.w3.org/2000/svg">
<path d="M76.6487 65.0889C65.3457 75.2871 58.1297 88.0641 58.2638 98.36C58.4733 114.196 76.0313 118.941 91.9717 113.523C117.017 105.008 129.775 74.3102 130.42 72.7361C142.237 43.9083 122.637 29.2948 121.481 28.4798C105.146 16.8499 76.1654 23.2105 54.4002 39.5181C22.4244 63.4645 9.97597 105.823 20.6309 129.569C33.3335 157.877 76.3274 154.012 108.136 136.644C133.189 122.968 148.786 101.72 154.848 93.339C179.851 58.7869 180.32 28.7115 180.175 20.9442" stroke="#7FFF52" stroke-width="5" stroke-miterlimit="10" stroke-linecap="round"/>
<path d="M86.1636 89.6857C107.04 77.6008 119.302 57.1933 116.894 45.6526C114.1 32.2309 92.2174 34.5614 77.5034 41.3573C55.0789 51.7174 37.1997 78.0501 35.3224 97.3804C32.6042 125.527 63.8397 138.731 95.0278 125.776C121.009 114.986 140.142 88.9349 147.852 69.186C161.438 34.3744 143.358 7.3355 117.145 2.736C83.8086 -3.11945 32.0566 26.4285 2 74.7959" stroke="#7FFF52" stroke-width="4" stroke-miterlimit="10" stroke-linecap="round"/>
<path d="M93.3035 85.5645C101.613 77.6727 104.175 66.8882 99.0257 61.4766C93.8765 56.0651 82.9659 58.0757 74.6562 65.9675C66.3466 73.8593 63.7847 84.6438 68.934 90.0554C74.0832 95.4669 84.9938 93.4563 93.3035 85.5645Z" fill="white" stroke="#7FFF52" stroke-width="4" stroke-miterlimit="10"/>
<path d="M205.2 20.3079C207.592 20.3079 209.53 18.3711 209.53 15.9819C209.53 13.5927 207.592 11.6559 205.2 11.6559C202.809 11.6559 200.87 13.5927 200.87 15.9819C200.87 18.3711 202.809 20.3079 205.2 20.3079Z" fill="#7FFF52" stroke="#7FFF52" stroke-width="4" stroke-miterlimit="10"/>
<path d="M209.67 82.5464C212.061 82.5464 214 80.6096 214 78.2204C214 75.8312 212.061 73.8944 209.67 73.8944C207.279 73.8944 205.34 75.8312 205.34 78.2204C205.34 80.6096 207.279 82.5464 209.67 82.5464Z" fill="#7FFF52" stroke="#7FFF52" stroke-width="4" stroke-miterlimit="10"/>
<path d="M21.9381 9.98133C23.2495 9.98133 24.3126 8.91921 24.3126 7.60901C24.3126 6.29882 23.2495 5.23669 21.9381 5.23669C20.6266 5.23669 19.5635 6.29882 19.5635 7.60901C19.5635 8.91921 20.6266 9.98133 21.9381 9.98133Z" fill="#7FFF52" stroke="#7FFF52" stroke-width="4" stroke-miterlimit="10"/>
<path d="M13.2779 177.16C14.5893 177.16 15.6525 176.098 15.6525 174.788C15.6525 173.478 14.5893 172.415 13.2779 172.415C11.9665 172.415 10.9033 173.478 10.9033 174.788C10.9033 176.098 11.9665 177.16 13.2779 177.16Z" fill="#7FFF52" stroke="#7FFF52" stroke-width="4" stroke-miterlimit="10"/>
<path d="M11.0435 147.576C12.355 147.576 13.4181 146.514 13.4181 145.203C13.4181 143.893 12.355 142.831 11.0435 142.831C9.73208 142.831 8.66895 143.893 8.66895 145.203C8.66895 146.514 9.73208 147.576 11.0435 147.576Z" fill="#7FFF52" stroke="#7FFF52" stroke-width="4" stroke-miterlimit="10"/>
<path d="M158.128 128.318C159.825 128.318 161.201 126.944 161.201 125.248C161.201 123.552 159.825 122.178 158.128 122.178C156.431 122.178 155.055 123.552 155.055 125.248C155.055 126.944 156.431 128.318 158.128 128.318Z" fill="#7FFF52" stroke="#7FFF52" stroke-width="4" stroke-miterlimit="10"/>
</svg>
