<svg width="497" height="226" viewBox="0 0 497 226" fill="none" xmlns="http://www.w3.org/2000/svg">
<path d="M386.321 135.116C386.519 135.538 386.709 135.911 386.88 136.293C386.881 136.34 386.872 136.387 386.853 136.43C386.835 136.473 386.807 136.51 386.772 136.538C386.609 136.607 386.294 136.695 386.276 136.646C386.064 136.2 385.883 135.738 385.734 135.263C385.739 135.211 385.753 135.161 385.776 135.115C385.8 135.069 385.831 135.03 385.87 134.998C386.022 135.026 386.173 135.065 386.321 135.116Z" fill="#7FFF52" stroke="#7FFF52" stroke-width="3" stroke-miterlimit="10"/>
<path d="M260.298 163.542C260.04 163.912 259.737 164.243 259.396 164.523C259.297 164.582 258.828 164.219 258.837 164.091C258.859 163.945 258.91 163.805 258.987 163.681C259.063 163.558 259.163 163.453 259.279 163.375C259.441 163.248 259.739 163.424 260.298 163.542Z" fill="#7FFF52" stroke="#7FFF52" stroke-width="3" stroke-miterlimit="10"/>
<path d="M331.938 166.23C331.925 165.881 331.968 165.533 332.064 165.2C332.298 164.758 332.966 164.886 333.218 165.425C333.3 165.641 333.218 166.181 333.065 166.22C332.692 166.283 332.312 166.286 331.938 166.23Z" fill="#7FFF52" stroke="#7FFF52" stroke-width="3" stroke-miterlimit="10"/>
<path d="M393.493 103.865C393.739 103.75 394.001 103.684 394.268 103.669C394.496 103.737 394.69 103.899 394.81 104.12C394.81 104.179 394.656 104.522 394.521 104.581C394.261 104.696 393.98 104.743 393.7 104.718C393.609 104.708 393.52 104.676 393.442 104.623C393.364 104.57 393.298 104.499 393.249 104.414C393.213 104.297 393.384 104.081 393.493 103.865Z" fill="#7FFF52" stroke="#7FFF52" stroke-width="3" stroke-miterlimit="10"/>
<path d="M427.535 193.999C427.487 193.674 427.487 193.343 427.535 193.018C427.679 192.655 428.365 192.792 428.5 193.243C428.533 193.386 428.533 193.536 428.502 193.679C428.471 193.823 428.408 193.956 428.32 194.067C428.211 194.156 427.851 194.018 427.535 193.999Z" fill="#7FFF52" stroke="#7FFF52" stroke-width="3" stroke-miterlimit="10"/>
<path d="M364.167 162.091C364.167 161.894 364.014 161.659 364.077 161.502C364.23 161.11 364.916 161.169 365.304 161.63C365.356 161.711 365.39 161.805 365.404 161.904C365.419 162.002 365.412 162.103 365.385 162.198C365.168 162.65 364.564 162.581 364.167 162.091Z" fill="#7FFF52" stroke="#7FFF52" stroke-width="3" stroke-miterlimit="10"/>
<path d="M302.684 175.244L303.415 175.058C303.289 175.519 303.172 175.989 303.027 176.441C302.873 176.433 302.721 176.4 302.576 176.343C302.594 175.95 302.648 175.568 302.684 175.244Z" fill="#7FFF52" stroke="#7FFF52" stroke-width="3" stroke-miterlimit="10"/>
<path d="M429.655 145.523C429.777 145.214 429.941 144.926 430.142 144.67C430.242 144.572 430.485 144.67 430.675 144.67C430.675 144.954 430.729 145.317 430.593 145.494C430.458 145.67 430.124 145.513 429.655 145.523Z" fill="#7FFF52" stroke="#7FFF52" stroke-width="3" stroke-miterlimit="10"/>
<path d="M270.537 209.124L271.439 209.261C271.358 209.644 271.376 210.134 271.168 210.36C270.961 210.585 270.546 210.271 270.212 210.213L270.537 209.124Z" fill="#7FFF52" stroke="#7FFF52" stroke-width="3" stroke-miterlimit="10"/>
<path d="M397.543 222.385C397.568 222.716 397.537 223.048 397.453 223.366C397.392 223.44 397.316 223.497 397.23 223.53C397.144 223.563 397.052 223.573 396.962 223.557C396.872 223.541 396.787 223.501 396.715 223.441C396.643 223.38 396.587 223.3 396.551 223.209C396.525 223.069 396.528 222.924 396.559 222.785C396.59 222.646 396.649 222.517 396.731 222.405C396.866 222.268 397.209 222.385 397.543 222.385Z" fill="#7FFF52" stroke="#7FFF52" stroke-width="3" stroke-miterlimit="10"/>
<path d="M355.824 218.589C355.58 218.746 355.309 219.06 355.102 219.021C354.786 218.891 354.507 218.675 354.29 218.393C354.29 218.344 354.389 217.922 354.498 217.903C354.743 217.809 355.01 217.809 355.255 217.903C355.495 218.07 355.711 218.275 355.896 218.511L355.824 218.589Z" fill="#7FFF52" stroke="#7FFF52" stroke-width="3" stroke-miterlimit="10"/>
<path d="M327.734 202.14C328.131 202.226 328.516 202.368 328.88 202.562C328.961 202.63 328.88 203.238 328.673 203.346C328.543 203.399 328.404 203.418 328.266 203.403C328.129 203.388 327.996 203.338 327.879 203.258C327.743 203.14 327.798 202.738 327.734 202.14Z" fill="#7FFF52" stroke="#7FFF52" stroke-width="3" stroke-miterlimit="10"/>
<path d="M385.104 187.132L386.159 187.407C386.087 187.691 386.096 188.084 385.924 188.231C385.805 188.285 385.675 188.305 385.547 188.288C385.419 188.271 385.297 188.217 385.194 188.133C385.049 187.927 385.131 187.544 385.104 187.132Z" fill="#7FFF52" stroke="#7FFF52" stroke-width="3" stroke-miterlimit="10"/>
<path d="M335.798 132.801C336.051 132.938 336.376 133.017 336.484 133.223C336.592 133.429 336.303 133.684 336.186 133.929C335.977 133.75 335.783 133.55 335.609 133.331C335.555 133.262 335.708 133.027 335.798 132.801Z" fill="#7FFF52" stroke="#7FFF52" stroke-width="3" stroke-miterlimit="10"/>
<path d="M472.411 183.886V183.062L473.232 183.199L473.052 184.092L472.411 183.886Z" fill="#7FFF52" stroke="#7FFF52" stroke-width="3" stroke-miterlimit="10"/>
<path d="M460.505 211.674H461.091C461.132 211.927 461.132 212.186 461.091 212.439C461.091 212.547 460.748 212.527 460.568 212.567L460.505 211.674Z" fill="#7FFF52" stroke="#7FFF52" stroke-width="3" stroke-miterlimit="10"/>
<path d="M281.018 129.025C281.216 129.437 281.397 129.819 281.559 130.202C281.561 130.249 281.552 130.296 281.533 130.339C281.514 130.382 281.486 130.419 281.451 130.447C281.289 130.516 280.973 130.604 280.946 130.555C280.75 130.098 280.579 129.63 280.432 129.152C280.432 129.093 280.531 128.888 280.567 128.897C280.721 128.923 280.872 128.966 281.018 129.025Z" fill="#7FFF52" stroke="#7FFF52" stroke-width="3" stroke-miterlimit="10"/>
<path d="M154.634 155.401C154.361 155.777 154.039 156.107 153.678 156.382C153.578 156.44 153.109 156.068 153.127 155.94C153.148 155.793 153.2 155.653 153.278 155.53C153.356 155.408 153.459 155.307 153.578 155.234C153.768 155.097 154.075 155.273 154.634 155.401Z" fill="#7FFF52" stroke="#7FFF52" stroke-width="3" stroke-miterlimit="10"/>
<path d="M226.219 159.226C226.216 158.874 226.264 158.522 226.363 158.187C226.607 157.755 227.265 157.892 227.509 158.442C227.599 158.657 227.509 159.197 227.355 159.236C226.978 159.287 226.596 159.283 226.219 159.226Z" fill="#7FFF52" stroke="#7FFF52" stroke-width="3" stroke-miterlimit="10"/>
<path d="M288.604 97.8326C288.855 97.7266 289.12 97.6637 289.389 97.6462C289.612 97.7246 289.801 97.8884 289.921 98.1073C289.921 98.1661 289.768 98.5094 289.623 98.5683C289.361 98.674 289.081 98.7175 288.803 98.6958C288.711 98.6855 288.624 98.6516 288.547 98.597C288.47 98.5424 288.406 98.4687 288.361 98.3819C288.316 98.2642 288.496 98.0582 288.604 97.8326Z" fill="#7FFF52" stroke="#7FFF52" stroke-width="3" stroke-miterlimit="10"/>
<path d="M321.438 188.496C321.389 188.171 321.389 187.84 321.438 187.515C321.583 187.152 322.277 187.299 322.403 187.75C322.431 187.894 322.428 188.043 322.395 188.186C322.362 188.328 322.3 188.461 322.214 188.574C322.115 188.663 321.772 188.525 321.438 188.496Z" fill="#7FFF52" stroke="#7FFF52" stroke-width="3" stroke-miterlimit="10"/>
<path d="M258.466 155.587C258.466 155.391 258.322 155.155 258.385 154.999C258.538 154.606 259.233 154.685 259.612 155.155C259.663 155.238 259.697 155.332 259.709 155.431C259.722 155.529 259.713 155.63 259.684 155.724C259.531 156.166 258.899 156.087 258.466 155.587Z" fill="#7FFF52" stroke="#7FFF52" stroke-width="3" stroke-miterlimit="10"/>
<path d="M208.169 227.8C208.267 227.394 208.415 227.004 208.611 226.642C208.665 226.564 209.224 226.731 209.324 226.927C209.369 227.069 209.381 227.222 209.359 227.371C209.337 227.52 209.282 227.66 209.197 227.78C209.017 227.918 208.683 227.8 208.169 227.8Z" fill="#7FFF52" stroke="#7FFF52" stroke-width="3" stroke-miterlimit="10"/>
<path d="M196.858 167.77L197.588 167.603C197.462 168.064 197.336 168.525 197.182 168.976C197.028 168.965 196.876 168.929 196.731 168.868C196.756 168.5 196.798 168.133 196.858 167.77Z" fill="#7FFF52" stroke="#7FFF52" stroke-width="3" stroke-miterlimit="10"/>
<path d="M324.217 140.06C324.34 139.754 324.504 139.47 324.704 139.216C324.812 139.118 325.056 139.216 325.236 139.216C325.236 139.501 325.236 139.873 325.146 140.05C325.056 140.227 324.677 140.06 324.217 140.06Z" fill="#7FFF52" stroke="#7FFF52" stroke-width="3" stroke-miterlimit="10"/>
<path d="M164.258 201.139L165.16 201.296C165.07 201.679 165.088 202.16 164.872 202.385C164.655 202.611 164.249 202.287 163.97 202.218L164.258 201.139Z" fill="#7FFF52" stroke="#7FFF52" stroke-width="3" stroke-miterlimit="10"/>
<path d="M291.103 216.412C291.118 216.743 291.082 217.075 290.995 217.393C290.933 217.466 290.855 217.522 290.769 217.554C290.682 217.586 290.589 217.593 290.499 217.575C290.409 217.558 290.324 217.516 290.253 217.453C290.182 217.39 290.127 217.308 290.093 217.216C290.063 217.078 290.064 216.933 290.095 216.795C290.127 216.657 290.188 216.529 290.273 216.422C290.4 216.324 290.742 216.402 291.103 216.412Z" fill="#7FFF52" stroke="#7FFF52" stroke-width="3" stroke-miterlimit="10"/>
<path d="M249.411 211.949C249.167 212.106 248.888 212.42 248.689 212.37C248.37 212.242 248.09 212.022 247.877 211.733C247.832 211.733 247.985 211.272 248.094 211.242C248.346 211.172 248.611 211.193 248.851 211.301C249.089 211.476 249.302 211.687 249.483 211.929L249.411 211.949Z" fill="#7FFF52" stroke="#7FFF52" stroke-width="3" stroke-miterlimit="10"/>
<path d="M221.547 195.068C221.943 195.156 222.326 195.304 222.683 195.509C222.7 195.648 222.689 195.788 222.652 195.922C222.615 196.056 222.552 196.179 222.467 196.284C222.337 196.335 222.197 196.353 222.06 196.336C221.922 196.319 221.79 196.267 221.673 196.186C221.529 196.068 221.646 195.666 221.547 195.068Z" fill="#7FFF52" stroke="#7FFF52" stroke-width="3" stroke-miterlimit="10"/>
<path d="M279.105 181.012L280.161 181.296C280.08 181.581 280.08 181.983 279.908 182.13C279.789 182.18 279.66 182.195 279.533 182.175C279.407 182.154 279.287 182.098 279.187 182.012C279.042 181.757 279.123 181.375 279.105 181.012Z" fill="#7FFF52" stroke="#7FFF52" stroke-width="3" stroke-miterlimit="10"/>
<path d="M230.531 125.856C230.783 126.004 231.108 126.082 231.207 126.288C231.307 126.494 231.018 126.749 230.91 126.984C230.7 126.805 230.507 126.605 230.332 126.386C230.287 126.308 230.441 126.082 230.531 125.856Z" fill="#7FFF52" stroke="#7FFF52" stroke-width="3" stroke-miterlimit="10"/>
<path d="M366.459 179.099V178.265L367.271 178.422L367.072 179.305L366.459 179.099Z" fill="#7FFF52" stroke="#7FFF52" stroke-width="3" stroke-miterlimit="10"/>
<path d="M354.173 206.691H354.759C354.786 206.947 354.771 207.206 354.714 207.456C354.714 207.564 354.38 207.545 354.191 207.574L354.173 206.691Z" fill="#7FFF52" stroke="#7FFF52" stroke-width="3" stroke-miterlimit="10"/>
<path d="M181.46 116.577C181.622 117.009 181.784 117.391 181.92 117.794C181.919 117.841 181.907 117.888 181.885 117.93C181.863 117.971 181.831 118.005 181.793 118.029C181.631 118.088 181.306 118.147 181.288 118.098C181.121 117.63 180.98 117.152 180.864 116.666C180.864 116.597 180.982 116.401 181.018 116.411C181.171 116.446 181.319 116.502 181.46 116.577Z" fill="#7FFF52" stroke="#7FFF52" stroke-width="3" stroke-miterlimit="10"/>
<path d="M53.6684 133.194C53.3693 133.527 53.0294 133.814 52.6582 134.047C52.5499 134.047 52.1079 133.694 52.135 133.557C52.167 133.414 52.2283 133.28 52.3141 133.166C52.4 133.053 52.5084 132.961 52.6311 132.899C52.8295 132.821 53.1182 133.017 53.6684 133.194Z" fill="#7FFF52" stroke="#7FFF52" stroke-width="3" stroke-miterlimit="10"/>
<path d="M124.831 142.522C124.852 142.185 124.922 141.854 125.039 141.541C125.309 141.129 125.995 141.315 126.166 141.884C126.238 142.11 126.085 142.63 125.959 142.659C125.579 142.668 125.2 142.622 124.831 142.522Z" fill="#7FFF52" stroke="#7FFF52" stroke-width="3" stroke-miterlimit="10"/>
<path d="M191.058 86.1012C191.313 86.0048 191.582 85.9616 191.852 85.9737C192.07 86.0641 192.248 86.2435 192.348 86.4739C192.348 86.5328 192.167 86.8663 192.023 86.9153C191.756 86.9982 191.476 87.0183 191.202 86.9742C191.112 86.9556 191.027 86.9151 190.954 86.8556C190.88 86.7961 190.82 86.7193 190.778 86.6309C190.742 86.5033 190.977 86.3072 191.058 86.1012Z" fill="#7FFF52" stroke="#7FFF52" stroke-width="3" stroke-miterlimit="10"/>
<path d="M217.893 179.05C217.878 178.719 217.915 178.387 218.001 178.069C218.173 177.716 218.849 177.922 218.948 178.383C218.966 178.528 218.953 178.676 218.91 178.815C218.868 178.954 218.798 179.081 218.705 179.187C218.56 179.285 218.218 179.109 217.893 179.05Z" fill="#7FFF52" stroke="#7FFF52" stroke-width="3" stroke-miterlimit="10"/>
<path d="M157.232 141.384C157.232 141.188 157.115 140.942 157.232 140.795C157.412 140.413 158.134 140.54 158.45 141.041C158.489 141.129 158.51 141.226 158.51 141.325C158.51 141.424 158.489 141.521 158.45 141.609C158.215 142.041 157.602 141.914 157.232 141.384Z" fill="#7FFF52" stroke="#7FFF52" stroke-width="3" stroke-miterlimit="10"/>
<path d="M102.352 209.536C102.478 209.141 102.651 208.765 102.866 208.418C102.998 208.416 103.128 208.446 103.248 208.506C103.368 208.565 103.475 208.652 103.56 208.761C103.597 208.905 103.6 209.057 103.568 209.203C103.537 209.349 103.472 209.483 103.38 209.595C103.227 209.722 102.857 209.575 102.352 209.536Z" fill="#7FFF52" stroke="#7FFF52" stroke-width="3" stroke-miterlimit="10"/>
<path d="M94.9824 148.79L95.7221 148.672C95.5597 149.123 95.4064 149.574 95.226 150.016C95.0753 149.992 94.9291 149.942 94.793 149.869C94.8371 149.505 94.9004 149.145 94.9824 148.79Z" fill="#7FFF52" stroke="#7FFF52" stroke-width="3" stroke-miterlimit="10"/>
<path d="M223.819 130.987C223.97 130.694 224.155 130.424 224.37 130.182C224.478 130.094 224.721 130.182 224.902 130.182C224.902 130.467 224.902 130.84 224.757 131.006C224.613 131.173 224.288 130.987 223.819 130.987Z" fill="#7FFF52" stroke="#7FFF52" stroke-width="3" stroke-miterlimit="10"/>
<path d="M34.4287 213.381C34.4828 212.969 34.4287 212.606 34.573 212.4C34.7174 212.194 35.1594 212.067 35.3037 212.174C35.3801 212.227 35.4431 212.299 35.4868 212.385C35.5304 212.47 35.5534 212.567 35.5534 212.665C35.5534 212.763 35.5304 212.859 35.4868 212.945C35.4431 213.031 35.3801 213.103 35.3037 213.155C35.1143 213.381 34.8076 213.283 34.4287 213.381Z" fill="#7FFF52" stroke="#7FFF52" stroke-width="3" stroke-miterlimit="10"/>
<path d="M60.2899 179.56L61.1378 179.786C61.0296 180.149 61.0116 180.639 60.777 180.845C60.5425 181.051 60.1727 180.698 59.875 180.61L60.2899 179.56Z" fill="#7FFF52" stroke="#7FFF52" stroke-width="3" stroke-miterlimit="10"/>
<path d="M185.808 204.553C185.804 204.887 185.749 205.219 185.646 205.534C185.58 205.606 185.498 205.658 185.408 205.686C185.317 205.713 185.222 205.715 185.131 205.69C185.04 205.665 184.957 205.615 184.889 205.545C184.821 205.474 184.771 205.386 184.744 205.289C184.723 205.148 184.733 205.005 184.774 204.87C184.815 204.735 184.885 204.613 184.979 204.514C185.123 204.376 185.457 204.553 185.808 204.553Z" fill="#7FFF52" stroke="#7FFF52" stroke-width="3" stroke-miterlimit="10"/>
<path d="M227.689 227.035C228.149 227.29 228.528 227.388 228.717 227.653C228.907 227.918 228.645 228.222 228.6 228.526C228.259 228.47 227.932 228.343 227.635 228.153C227.518 228.094 227.653 227.594 227.689 227.035Z" fill="#7FFF52" stroke="#7FFF52" stroke-width="3" stroke-miterlimit="10"/>
<path d="M144.522 196.902C144.27 197.039 143.972 197.334 143.774 197.265C143.466 197.111 143.201 196.871 143.007 196.569C143.007 196.51 143.151 196.117 143.25 196.098C143.508 196.051 143.773 196.092 144.008 196.215C144.235 196.407 144.432 196.635 144.594 196.892L144.522 196.902Z" fill="#7FFF52" stroke="#7FFF52" stroke-width="3" stroke-miterlimit="10"/>
<path d="M117.83 177.912C118.216 178.039 118.586 178.217 118.931 178.442C119.003 178.51 118.841 179.109 118.669 179.197C118.541 179.235 118.406 179.241 118.275 179.216C118.144 179.19 118.02 179.134 117.912 179.05C117.749 178.913 117.839 178.51 117.83 177.912Z" fill="#7FFF52" stroke="#7FFF52" stroke-width="3" stroke-miterlimit="10"/>
<path d="M72.6391 223.19C72.4317 223.572 72.2873 224.043 72.143 224.043C71.8093 224.043 71.241 223.935 71.1688 223.69C70.9704 223.2 71.4033 222.925 71.8183 222.905C72.1053 222.946 72.3833 223.042 72.6391 223.19Z" fill="#7FFF52" stroke="#7FFF52" stroke-width="3" stroke-miterlimit="10"/>
<path d="M176.165 168.26L177.193 168.633C177.103 168.907 177.076 169.31 176.896 169.437C176.772 169.478 176.641 169.485 176.515 169.456C176.389 169.426 176.271 169.363 176.174 169.27C176.048 169.074 176.156 168.701 176.165 168.26Z" fill="#7FFF52" stroke="#7FFF52" stroke-width="3" stroke-miterlimit="10"/>
<path d="M131.307 109.574C131.542 109.74 131.867 109.839 131.957 110.054C132.047 110.27 131.731 110.506 131.605 110.731C131.409 110.535 131.231 110.318 131.073 110.084C131.028 110.005 131.199 109.79 131.307 109.574Z" fill="#7FFF52" stroke="#7FFF52" stroke-width="3" stroke-miterlimit="10"/>
<path d="M263.419 173.165V172.331L264.222 172.556L263.969 173.42L263.419 173.165Z" fill="#7FFF52" stroke="#7FFF52" stroke-width="3" stroke-miterlimit="10"/>
<path d="M249.366 199.737H249.952C249.965 199.992 249.934 200.248 249.862 200.492C249.862 200.59 249.519 200.551 249.33 200.571L249.366 199.737Z" fill="#7FFF52" stroke="#7FFF52" stroke-width="3" stroke-miterlimit="10"/>
<path d="M103.48 93.654C103.525 94.115 103.579 94.5368 103.606 94.9683C103.593 95.0133 103.569 95.0538 103.538 95.0864C103.506 95.1189 103.468 95.1424 103.426 95.1547C103.245 95.1547 102.93 95.1547 102.921 95.0664C102.894 94.5633 102.894 94.059 102.921 93.5559C102.921 93.4872 103.101 93.3401 103.137 93.3597C103.258 93.4486 103.372 93.5469 103.48 93.654Z" fill="#7FFF52" stroke="#7FFF52" stroke-width="3" stroke-miterlimit="10"/>
<path d="M42.4297 101.305C42.6191 100.903 42.6913 100.559 42.8897 100.383C43.2596 100.069 43.8639 100.461 43.891 101.06C43.891 101.295 43.6114 101.746 43.4851 101.736C43.1165 101.647 42.7613 101.501 42.4297 101.305Z" fill="#7FFF52" stroke="#7FFF52" stroke-width="3" stroke-miterlimit="10"/>
<path d="M50.5938 206.328C50.9004 205.926 51.0267 205.612 51.2252 205.534C51.7123 205.338 51.9648 205.71 51.9648 206.162C51.9648 206.407 51.6852 206.878 51.604 206.858C51.2461 206.734 50.9061 206.555 50.5938 206.328Z" fill="#7FFF52" stroke="#7FFF52" stroke-width="3" stroke-miterlimit="10"/>
<path d="M120.546 67.3269C120.814 67.3171 121.083 67.3569 121.339 67.4446C121.524 67.6039 121.649 67.8304 121.691 68.0822C121.691 68.1508 121.412 68.3961 121.258 68.3961C120.981 68.3988 120.707 68.3352 120.455 68.2097C120.373 68.1651 120.302 68.1001 120.247 68.0201C120.192 67.94 120.155 67.847 120.14 67.7487C120.14 67.6212 120.374 67.4936 120.546 67.3269Z" fill="#7FFF52" stroke="#7FFF52" stroke-width="3" stroke-miterlimit="10"/>
<path d="M122.35 164.739C122.41 164.391 122.529 164.058 122.701 163.758C122.954 163.483 123.558 163.876 123.531 164.346C123.511 164.493 123.461 164.632 123.385 164.755C123.308 164.877 123.207 164.979 123.089 165.053C122.927 165.16 122.638 164.886 122.35 164.739Z" fill="#7FFF52" stroke="#7FFF52" stroke-width="3" stroke-miterlimit="10"/>
<path d="M73.8301 110.084C73.8301 109.888 73.8301 109.623 73.9383 109.505C74.2089 109.191 74.8404 109.505 75.0388 110.104C75.0608 110.202 75.0617 110.304 75.0414 110.403C75.021 110.502 74.98 110.594 74.9215 110.673C74.6148 111.016 74.0646 110.712 73.8301 110.084Z" fill="#7FFF52" stroke="#7FFF52" stroke-width="3" stroke-miterlimit="10"/>
<path d="M3.5791 158.775C3.80159 158.434 4.06558 158.127 4.36387 157.863C4.43603 157.804 4.90509 158.177 4.93215 158.392C4.93181 158.543 4.89698 158.69 4.83082 158.822C4.76467 158.954 4.66928 159.066 4.5533 159.148C4.36387 159.226 4.05718 158.971 3.5791 158.775Z" fill="#7FFF52" stroke="#7FFF52" stroke-width="3" stroke-miterlimit="10"/>
<path d="M12.1573 98.2153L12.906 98.333C12.6354 98.7156 12.3648 99.1079 12.0761 99.4709C11.9362 99.4038 11.808 99.3108 11.6973 99.1962C11.8341 98.8604 11.9877 98.533 12.1573 98.2153Z" fill="#7FFF52" stroke="#7FFF52" stroke-width="3" stroke-miterlimit="10"/>
<path d="M140.463 120.373C140.681 120.142 140.924 119.937 141.185 119.765C141.32 119.765 141.527 119.883 141.699 119.961C141.581 120.216 141.527 120.589 141.347 120.697C141.166 120.805 140.869 120.55 140.463 120.373Z" fill="#7FFF52" stroke="#7FFF52" stroke-width="3" stroke-miterlimit="10"/>
<path d="M84.9709 179.452C84.8789 179.761 84.7419 180.053 84.565 180.315C84.2763 180.59 83.7171 180.246 83.7441 179.805C83.7645 179.664 83.8131 179.529 83.8863 179.411C83.9595 179.292 84.0557 179.192 84.1681 179.118C84.3575 179.05 84.6462 179.305 84.9709 179.452Z" fill="#7FFF52" stroke="#7FFF52" stroke-width="3" stroke-miterlimit="10"/>
<path d="M89.1729 210.193C89.5066 209.752 89.678 209.369 89.9666 209.212C90.2553 209.055 90.4808 209.35 90.7424 209.438C90.6046 209.817 90.4194 210.173 90.1921 210.497C90.0929 210.595 89.687 210.35 89.1729 210.193Z" fill="#7FFF52" stroke="#7FFF52" stroke-width="3" stroke-miterlimit="10"/>
<path d="M119.373 213.773C119.752 214.166 120.094 214.372 120.212 214.676C120.329 214.98 119.995 215.215 119.869 215.49C119.559 215.329 119.278 215.11 119.039 214.842C118.949 214.695 119.192 214.303 119.373 213.773Z" fill="#7FFF52" stroke="#7FFF52" stroke-width="3" stroke-miterlimit="10"/>
<path d="M47.3093 159.511C47.0297 159.511 46.6689 159.746 46.4975 159.628C46.242 159.384 46.052 159.068 45.9473 158.716C45.9473 158.657 46.1998 158.324 46.2991 158.343C46.5581 158.375 46.8012 158.495 46.9936 158.687C47.1582 158.94 47.2888 159.217 47.3815 159.511H47.3093Z" fill="#7FFF52" stroke="#7FFF52" stroke-width="3" stroke-miterlimit="10"/>
<path d="M26.5807 133.145C26.9159 133.379 27.2195 133.663 27.4828 133.988C27.5369 134.067 27.2212 134.596 27.0318 134.635C26.8925 134.633 26.7557 134.595 26.632 134.525C26.5084 134.456 26.4013 134.356 26.3192 134.233C26.256 134.076 26.4454 133.723 26.5807 133.145Z" fill="#7FFF52" stroke="#7FFF52" stroke-width="3" stroke-miterlimit="10"/>
<path d="M85.0595 141.678L85.9615 142.345C85.7992 142.581 85.6819 142.953 85.4654 143.022C85.3369 143.027 85.2095 142.994 85.0967 142.927C84.9839 142.859 84.8901 142.76 84.825 142.64C84.7528 142.404 84.9513 142.071 85.0595 141.678Z" fill="#7FFF52" stroke="#7FFF52" stroke-width="3" stroke-miterlimit="10"/>
<path d="M57.1333 71.6428C57.3227 71.8782 57.6024 72.0744 57.6294 72.3098C57.6565 72.5452 57.3047 72.6629 57.1243 72.8493C56.9865 72.6007 56.8717 72.3378 56.7815 72.0646C56.7545 71.9763 56.98 71.8194 57.1333 71.6428Z" fill="#7FFF52" stroke="#7FFF52" stroke-width="3" stroke-miterlimit="10"/>
<path d="M17.7861 191.537C18.0546 191.3 18.3379 191.083 18.634 190.889C18.7333 190.889 18.9317 191.017 19.0851 191.095C18.8586 191.387 18.6177 191.665 18.3634 191.929C18.3634 191.929 18.0838 191.801 17.7861 191.537Z" fill="#7FFF52" stroke="#7FFF52" stroke-width="3" stroke-miterlimit="10"/>
<path d="M167.523 172.949L167.767 172.154L168.48 172.615L168.011 173.371L167.523 172.949Z" fill="#7FFF52" stroke="#7FFF52" stroke-width="3" stroke-miterlimit="10"/>
<path d="M147.219 194.175L147.788 194.361C147.73 194.613 147.633 194.853 147.499 195.068C147.436 195.146 147.156 195.019 146.967 194.979L147.219 194.175Z" fill="#7FFF52" stroke="#7FFF52" stroke-width="3" stroke-miterlimit="10"/>
<path d="M63.8891 204.072L62.8879 205.269C62.6015 204.882 62.3564 204.461 62.1572 204.013C62.1572 203.906 62.6263 203.445 62.933 203.376C63.2397 203.307 63.7358 203.248 63.8891 204.072Z" fill="#7FFF52" stroke="#7FFF52" stroke-width="3" stroke-miterlimit="10"/>
<path d="M27.9072 221.13C28.3041 220.924 28.683 220.63 28.7551 220.698C29.0841 221.047 29.3638 221.447 29.585 221.885C29.6482 222.003 29.5219 222.346 29.3956 222.435C29.3106 222.483 29.2163 222.508 29.1205 222.508C29.0247 222.508 28.9303 222.483 28.8453 222.435C28.5296 222.052 28.268 221.63 27.9072 221.13Z" fill="#7FFF52" stroke="#7FFF52" stroke-width="3" stroke-miterlimit="10"/>
<path d="M20.3125 42.54C20.3125 43.0109 20.3125 43.4326 20.3125 43.8642C20.3125 43.9231 20.1772 44.031 20.1141 44.0212C20.0509 44.0114 19.627 43.9231 19.627 43.8642C19.6422 43.3617 19.6843 42.8606 19.7532 42.3635C19.7532 42.2948 19.9517 42.1771 19.9878 42.2065C20.1072 42.3041 20.2162 42.4159 20.3125 42.54Z" fill="#7FFF52" stroke="#7FFF52" stroke-width="3" stroke-miterlimit="10"/>
<path d="M40.2372 18.6948C40.502 18.7259 40.7607 18.802 41.0039 18.9204C41.175 19.0975 41.2754 19.3405 41.2835 19.5972C41.2835 19.6757 40.9768 19.8817 40.8235 19.8621C40.5468 19.8272 40.2812 19.7231 40.0477 19.558C39.9706 19.5033 39.9066 19.4294 39.8611 19.3424C39.8156 19.2554 39.7899 19.1578 39.7861 19.0578C39.7952 18.9302 40.0477 18.842 40.2372 18.6948Z" fill="#7FFF52" stroke="#7FFF52" stroke-width="3" stroke-miterlimit="10"/>
<path d="M30.9912 115.616C31.1806 115.243 31.2528 114.9 31.4512 114.723C31.6497 114.547 32.2901 114.959 32.209 115.42C32.1764 115.563 32.1128 115.696 32.0233 115.807C31.9338 115.918 31.8212 116.004 31.6948 116.057C31.5144 116.106 31.2618 115.802 30.9912 115.616Z" fill="#7FFF52" stroke="#7FFF52" stroke-width="3" stroke-miterlimit="10"/>
<path d="M53.9668 74.0068C54.2074 73.7986 54.4748 73.63 54.7606 73.5066C54.8959 73.5066 55.0763 73.6635 55.2387 73.7616C55.0943 73.997 55.0041 74.36 54.8057 74.4482C54.6072 74.5365 54.3727 74.2423 53.9668 74.0068Z" fill="#7FFF52" stroke="#7FFF52" stroke-width="3" stroke-miterlimit="10"/>
<path d="M22.4955 163.876C22.8202 164.307 23.1449 164.562 23.2171 164.857C23.2893 165.151 22.9465 165.357 22.7841 165.612C22.4957 165.41 22.2423 165.154 22.0354 164.857C21.9633 164.729 22.297 164.337 22.4955 163.876Z" fill="#7FFF52" stroke="#7FFF52" stroke-width="3" stroke-miterlimit="10"/>
<path d="M74.9395 129.809L75.2642 129.064L75.9227 129.603L75.3724 130.3L74.9395 129.809Z" fill="#7FFF52" stroke="#7FFF52" stroke-width="3" stroke-miterlimit="10"/>
<path d="M52.3425 148.152L52.8838 148.417C52.7982 148.656 52.6762 148.878 52.5229 149.074C52.4418 149.152 52.1802 148.976 52.0088 148.917L52.3425 148.152Z" fill="#7FFF52" stroke="#7FFF52" stroke-width="3" stroke-miterlimit="10"/>
</svg>
