<svg width="90" height="238" viewBox="0 0 90 238" fill="none" xmlns="http://www.w3.org/2000/svg">
<path d="M83.4947 233.416C84.2768 233.143 84.6893 232.287 84.4161 231.505L79.9638 218.761C79.6906 217.979 78.8351 217.566 78.0531 217.839C77.271 218.112 76.8585 218.968 77.1317 219.75L81.0892 231.079L69.7606 235.036C68.9785 235.309 68.566 236.165 68.8392 236.947C69.1124 237.729 69.9679 238.142 70.75 237.868L83.4947 233.416ZM1 2C0.455057 3.39751 0.455105 3.39753 0.455388 3.39764C0.455798 3.3978 0.456317 3.398 0.457134 3.39832C0.458767 3.39896 0.46134 3.39996 0.464845 3.40134C0.471856 3.40408 0.482598 3.40829 0.497023 3.41395C0.525871 3.42527 0.569448 3.44241 0.627355 3.46528C0.743169 3.51103 0.916303 3.57973 1.14358 3.67074C1.59815 3.85276 2.26927 4.124 3.13157 4.47937C4.85626 5.19016 7.34525 6.2373 10.3957 7.58009C16.4979 10.2663 24.8399 14.1325 33.8009 18.8527C51.8059 28.3369 72.0133 41.1197 81.7869 54.5584L84.2131 52.7939C73.9867 38.7327 53.1941 25.6774 35.1991 16.1985C26.1601 11.4372 17.7521 7.54056 11.6043 4.83434C8.52975 3.48092 6.01874 2.42446 4.27468 1.70569C3.4026 1.34629 2.72216 1.07126 2.25876 0.885709C2.02706 0.792931 1.8496 0.722517 1.72958 0.675103C1.66957 0.651395 1.62391 0.633438 1.593 0.621309C1.57755 0.615245 1.56579 0.610637 1.55776 0.607497C1.55375 0.605928 1.55067 0.604724 1.54853 0.603889C1.54746 0.603472 1.54656 0.603122 1.54603 0.602913C1.54537 0.602655 1.54494 0.602489 1 2ZM81.7869 54.5584C86.5047 61.0454 87.4636 67.7981 86.1031 75.1615C84.7269 82.6096 80.9854 90.6332 76.2976 99.5401C66.9886 117.227 54.0603 138.141 50.5145 163.468L53.4855 163.884C56.9397 139.211 69.5114 118.875 78.9524 100.937C83.6396 92.0316 87.5856 83.649 89.0532 75.7065C90.5364 67.6792 89.4953 60.057 84.2131 52.7939L81.7869 54.5584ZM50.5145 163.468C46.9516 188.918 54.8478 206.404 63.7016 217.523C68.1158 223.066 72.7534 227.01 76.2924 229.571C78.0629 230.852 79.5615 231.79 80.6245 232.41C81.1562 232.721 81.5792 232.952 81.8732 233.108C82.0202 233.186 82.1351 233.244 82.2151 233.285C82.2551 233.305 82.2865 233.321 82.3088 233.332C82.32 233.337 82.3289 233.342 82.3355 233.345C82.3388 233.346 82.3416 233.348 82.3437 233.349C82.3448 233.349 82.346 233.35 82.3465 233.35C82.3476 233.351 82.3485 233.351 83 232C83.6515 230.649 83.6521 230.649 83.6526 230.649C83.6526 230.649 83.6529 230.65 83.6528 230.649C83.6527 230.649 83.6519 230.649 83.6506 230.648C83.6481 230.647 83.6432 230.645 83.6362 230.641C83.622 230.634 83.599 230.623 83.5673 230.607C83.504 230.575 83.4063 230.525 83.2767 230.456C83.0175 230.319 82.631 230.108 82.1372 229.82C81.1494 229.243 79.734 228.358 78.0513 227.14C74.6841 224.704 70.2592 220.941 66.0484 215.654C57.6522 205.11 50.0484 188.435 53.4855 163.884L50.5145 163.468Z" fill="black"/>
</svg>
