<svg width="378" height="85" viewBox="0 0 378 85" fill="none" xmlns="http://www.w3.org/2000/svg">
<path d="M407.5 42.5C407.5 44.2044 406.681 46.2349 404.337 48.6035C401.983 50.9828 398.329 53.4463 393.313 55.8987C383.297 60.7964 368.577 65.3037 350.102 69.1246C313.209 76.7544 262.083 81.5 205.5 81.5C148.917 81.5 97.7906 76.7544 60.8984 69.1246C42.4235 65.3037 27.7033 60.7964 17.6866 55.8987C12.6711 53.4463 9.01718 50.9828 6.663 48.6035C4.31936 46.2349 3.5 44.2044 3.5 42.5C3.5 40.7956 4.31936 38.7651 6.663 36.3965C9.01718 34.0172 12.6711 31.5537 17.6866 29.1013C27.7033 24.2036 42.4235 19.6963 60.8984 15.8754C97.7906 8.24565 148.917 3.5 205.5 3.5C262.083 3.5 313.209 8.24565 350.102 15.8754C368.577 19.6963 383.297 24.2036 393.313 29.1013C398.329 31.5537 401.983 34.0172 404.337 36.3965C406.681 38.7651 407.5 40.7956 407.5 42.5Z" stroke="black" stroke-width="7"/>
</svg>
