<svg width="121" height="121" viewBox="0 0 121 121" fill="none" xmlns="http://www.w3.org/2000/svg">
<path d="M60.4258 1C48.6701 1 37.1786 4.49099 27.405 11.0313C17.6313 17.5717 10.0146 26.8675 5.51835 37.7429C1.02215 48.6182 -0.151505 60.5845 2.14585 72.1278C4.4432 83.6712 10.1083 94.273 18.4246 102.592C26.7409 110.911 37.3346 116.574 48.8656 118.863C60.3967 121.153 72.3469 119.967 83.2046 115.455C94.0623 110.943 103.34 103.309 109.863 93.5169C116.386 83.7251 119.862 72.216 119.852 60.4457C119.837 44.6748 113.57 29.5546 102.427 18.408C91.284 7.26128 76.1771 0.999993 60.4258 1ZM30.3133 62.4937L30.5706 62.0868L46.04 37.8772C46.1176 37.761 46.2369 37.6792 46.3732 37.6489C46.5094 37.6185 46.6521 37.642 46.7715 37.7145C46.8555 37.7715 46.9214 37.8516 46.9612 37.9451C49.5349 43.7364 51.7699 50.9518 50.7269 55.4411C50.0223 57.7866 48.9966 60.0231 47.6791 62.0868C47.5031 62.4273 47.3087 62.7578 47.0966 63.0769C47.0517 63.1499 46.9873 63.2088 46.9107 63.2471C46.8341 63.2855 46.7484 63.3017 46.6632 63.2939H30.7738C30.7051 63.2957 30.6367 63.2838 30.5727 63.2587C30.5087 63.2336 30.4503 63.1959 30.4011 63.1479C30.3518 63.0998 30.3127 63.0424 30.286 62.979C30.2593 62.9155 30.2455 62.8474 30.2455 62.7785C30.245 62.6778 30.2732 62.579 30.3268 62.4937H30.3133ZM99.1941 70.8213C99.1917 70.9269 99.16 71.0297 99.1026 71.1184C99.0452 71.207 98.9643 71.2779 98.869 71.3231C97.6634 71.8385 93.5725 73.7237 91.8657 76.0972C87.5175 82.1462 84.1988 90.8128 76.7756 90.8128H45.8369C43.2232 90.8111 40.6355 90.2934 38.2218 89.2895C35.8081 88.2856 33.6158 86.8151 31.7702 84.9621C29.9245 83.1091 28.4619 80.9101 27.4658 78.4906C26.4697 76.0712 25.9597 73.4789 25.9651 70.862V70.4958C25.965 70.4269 25.9788 70.3588 26.0055 70.2954C26.0322 70.2319 26.0713 70.1745 26.1206 70.1265C26.1698 70.0784 26.2282 70.0408 26.2922 70.0157C26.3562 69.9906 26.4246 69.9786 26.4933 69.9804H43.7508C43.8322 69.9817 43.9124 70.0001 43.9862 70.0344C44.0601 70.0687 44.1259 70.1181 44.1796 70.1795C44.2332 70.2408 44.2733 70.3127 44.2975 70.3906C44.3216 70.4684 44.3292 70.5505 44.3197 70.6314C44.2049 71.8011 44.4457 72.9782 45.0106 74.0085C45.51 75.0208 46.2819 75.8733 47.2392 76.4699C48.1966 77.0666 49.3013 77.3838 50.4289 77.3857H58.9764V70.7128H50.4289C50.284 70.7092 50.1462 70.6491 50.0449 70.5452C49.9437 70.4413 49.887 70.3019 49.8871 70.1567C49.8879 70.0477 49.9262 69.9424 49.9954 69.8583L50.307 69.4108C51.0927 68.2579 52.2305 66.4948 53.3819 64.4875C54.1742 63.1112 54.8843 61.6891 55.5086 60.2287C55.6305 59.971 55.7118 59.6998 55.8337 59.4285C55.9556 59.1573 56.1588 58.5334 56.2807 58.0723L56.6058 56.9601C56.876 55.6805 57.0077 54.3754 56.9987 53.0676C57.026 52.5254 57.026 51.9822 56.9987 51.44C56.9987 50.8568 56.9038 50.2736 56.8361 49.6904C56.7813 49.1712 56.7 48.6552 56.5923 48.1443C56.4568 47.3667 56.2943 46.5936 56.1046 45.825V45.5267C55.9556 44.9977 55.8337 44.4959 55.6576 43.9534C55.1835 42.3258 54.6417 40.7254 54.0321 39.1386C53.8289 38.5418 53.5851 37.9586 53.3277 37.3754C52.9755 36.4938 52.6098 35.6936 52.2847 34.9477C52.1105 34.6303 51.9522 34.3044 51.8106 33.9712C51.648 33.6185 51.4855 33.2659 51.3094 32.9133C51.1333 32.5606 51.0385 32.3979 50.9436 32.1673L49.9006 30.2414C49.8658 30.1834 49.8491 30.1163 49.8527 30.0487C49.8563 29.9811 49.88 29.9161 49.9208 29.8621C49.9616 29.8081 50.0176 29.7676 50.0816 29.7458C50.1456 29.7239 50.2147 29.7218 50.2799 29.7396L56.8226 31.5027L57.6895 31.7604L58.5564 31.9639L58.8951 32.0588V28.1934C58.8933 27.7481 58.9791 27.3069 59.1477 26.8948C59.3162 26.4827 59.5642 26.108 59.8774 25.7918C60.1906 25.4757 60.5629 25.2245 60.9731 25.0524C61.3833 24.8804 61.8233 24.7909 62.268 24.7891C62.7077 24.7918 63.1425 24.8818 63.5471 25.0541C63.9517 25.2264 64.3181 25.4775 64.625 25.7928C65.2584 26.4307 65.614 27.2938 65.6138 28.1934V33.9712L66.3182 34.161L66.4672 34.2424L67.1987 34.7849C67.4425 34.9748 67.6999 35.2189 68.0115 35.4631C68.9868 36.2633 69.935 37.1042 70.8561 37.9722C71.7772 38.8402 73.1318 40.1015 74.2696 41.4578C74.5947 41.824 74.8928 42.1902 75.2179 42.5835C75.543 42.9769 75.8681 43.3566 76.1661 43.7364C76.4641 44.1161 76.9517 44.7807 77.331 45.3368C77.4936 45.608 77.6968 45.8793 77.8458 46.137C78.306 46.834 78.731 47.5538 79.1191 48.2935C79.2816 48.6325 79.4442 48.9987 79.5932 49.3514C80.0278 50.3045 80.3637 51.2998 80.5956 52.3216C80.6692 52.5317 80.7148 52.7506 80.731 52.9726C80.7942 53.2766 80.835 53.5849 80.8529 53.8949C80.9907 55.3584 80.8105 56.8343 80.3247 58.2214C80.1757 58.6419 80.0266 59.0623 79.8506 59.4828C79.4614 60.3471 79.0087 61.1813 78.496 61.9783C78.3334 62.2767 78.1302 62.5751 77.9406 62.8735C77.7509 63.1719 77.4936 63.4838 77.3039 63.7686C77.1143 64.0534 76.7485 64.5146 76.4505 64.8672C76.1943 65.2258 75.9184 65.5699 75.6242 65.898C75.2314 66.3862 74.8386 66.8474 74.4187 67.2543C74.1755 67.5474 73.9178 67.828 73.6465 68.0952C73.3892 68.3935 73.1047 68.6512 72.8744 68.8954L71.8449 69.899L71.1676 70.4958C71.0696 70.591 70.9385 70.6444 70.8019 70.645H65.6409V77.3179H72.1836C73.6452 77.3191 75.0585 76.7944 76.1661 75.8395C77.6005 74.5993 78.9576 73.2722 80.2298 71.8656C80.2949 71.7932 80.3796 71.7414 80.4737 71.7164L98.5439 66.4812C98.6803 66.4432 98.8262 66.4603 98.9503 66.5288C99.0744 66.5972 99.1667 66.7116 99.2076 66.8474C99.2139 66.8924 99.2139 66.938 99.2076 66.983L99.1941 70.8213Z" fill="#A157FF" stroke="black" stroke-width="0.3" stroke-miterlimit="10"/>
</svg>
