<svg width="86" height="86" viewBox="0 0 86 86" fill="none" xmlns="http://www.w3.org/2000/svg">
<g clip-path="url(#clip0_454_22411)">
<path d="M57.347 19.9901C56.3713 19.0144 54.7893 19.0144 53.8136 19.9901C52.8379 20.9659 52.8379 22.5478 53.8136 23.5235L57.8655 27.5755C58.8412 28.5512 60.4232 28.5512 61.3989 27.5755C62.3746 26.5997 62.3746 25.0178 61.3989 24.042L57.347 19.9901Z" fill="#D9D9D9" stroke="#231F20" stroke-miterlimit="10"/>
<path d="M20.0247 57.3119C19.049 56.3362 17.467 56.3362 16.4913 57.3119C15.5156 58.2876 15.5156 59.8696 16.4913 60.8453L20.5432 64.8972C21.519 65.873 23.1009 65.873 24.0766 64.8972C25.0524 63.9215 25.0524 62.3395 24.0766 61.3638L20.0247 57.3119Z" fill="#D9D9D9" stroke="#231F20" stroke-miterlimit="10"/>
<path d="M22.32 25.8089C27.2696 20.8644 33.9797 18.087 40.976 18.087C47.9723 18.087 54.6824 20.8644 59.6321 25.8089L63.924 30.1009C67.2108 33.3979 69.0549 37.8644 69.0513 42.5198C69.0477 47.1753 67.1967 51.639 63.9048 54.9308L51.4226 67.413C48.1299 70.7007 43.6675 72.5481 39.0145 72.5499C34.3614 72.5517 29.8976 70.7077 26.6023 67.4226L22.3104 63.1307C17.3641 58.1793 14.5866 51.4664 14.5884 44.4678C14.5902 37.4692 17.3712 30.7577 22.32 25.8089Z" fill="white"/>
<path d="M22.32 25.8089C27.2696 20.8644 33.9797 18.087 40.976 18.087C47.9723 18.087 54.6824 20.8644 59.6321 25.8089L63.924 30.1009C67.2108 33.3979 69.0549 37.8644 69.0513 42.5198C69.0477 47.1753 67.1967 51.639 63.9048 54.9308L51.4226 67.413C48.1299 70.7007 43.6675 72.5481 39.0145 72.5499C34.3614 72.5517 29.8976 70.7077 26.6023 67.4226L22.3104 63.1307C17.3641 58.1793 14.5866 51.4664 14.5884 44.4678C14.5902 37.4692 17.3712 30.7577 22.32 25.8089Z" fill="#A157FF" stroke="#231F20" stroke-miterlimit="10"/>
<mask id="mask0_454_22411" style="mask-type:luminance" maskUnits="userSpaceOnUse" x="14" y="18" width="56" height="55">
<path d="M22.32 25.8089C27.2696 20.8644 33.9797 18.087 40.976 18.087C47.9723 18.087 54.6824 20.8644 59.6321 25.8089L63.924 30.1009C67.2108 33.3979 69.0549 37.8644 69.0513 42.5198C69.0477 47.1753 67.1967 51.639 63.9048 54.9308L51.4226 67.413C48.1299 70.7007 43.6675 72.5481 39.0145 72.5499C34.3614 72.5517 29.8976 70.7077 26.6023 67.4226L22.3104 63.1307C17.3641 58.1793 14.5866 51.4664 14.5884 44.4678C14.5902 37.4692 17.3712 30.7577 22.32 25.8089Z" fill="white"/>
</mask>
<g mask="url(#mask0_454_22411)">
<path d="M28.206 32.6742L29.1662 31.714C32.7313 28.1489 37.5667 26.146 42.6085 26.146C47.6504 26.146 52.4858 28.1489 56.0509 31.714C59.2069 34.8802 60.9767 39.17 60.9713 43.6405C60.9659 48.111 59.1857 52.3964 56.0221 55.555L52.0566 59.5205C48.8938 62.6833 44.6042 64.4601 40.1313 64.4601C35.6585 64.4601 31.3688 62.6833 28.206 59.5205C24.6409 55.9553 22.638 51.12 22.638 46.0781C22.638 41.0363 24.6409 36.2009 28.206 32.6358L28.206 32.6742Z" fill="#F0ECED"/>
<mask id="mask1_454_22411" style="mask-type:luminance" maskUnits="userSpaceOnUse" x="22" y="26" width="39" height="39">
<path d="M28.206 32.6742L29.1662 31.714C32.7313 28.1489 37.5667 26.146 42.6085 26.146C47.6504 26.146 52.4858 28.1489 56.0509 31.714C59.2069 34.8802 60.9767 39.17 60.9713 43.6405C60.9659 48.111 59.1857 52.3964 56.0221 55.555L52.0566 59.5205C48.8938 62.6833 44.6042 64.4601 40.1313 64.4601C35.6585 64.4601 31.3688 62.6833 28.206 59.5205C24.6409 55.9553 22.638 51.12 22.638 46.0781C22.638 41.0363 24.6409 36.2009 28.206 32.6358L28.206 32.6742Z" fill="white"/>
</mask>
<g mask="url(#mask1_454_22411)">
<path d="M57.7987 39.741L57.8179 39.741L57.8083 39.7122L57.7987 39.741Z" fill="#F0ECED" stroke="#231F20" stroke-width="0.19" stroke-miterlimit="10"/>
<path d="M49.9255 34.4989L50.0407 34.5181L49.9735 34.5853L49.9255 34.4989Z" fill="#F0ECED" stroke="#231F20" stroke-width="0.19" stroke-miterlimit="10"/>
<path d="M61.1494 32.1079L61.2742 32.1175C61.2742 32.1175 61.2742 32.1175 61.2166 32.1751L61.1494 32.1079Z" fill="#F0ECED" stroke="#231F20" stroke-width="0.19" stroke-miterlimit="10"/>
<path d="M58.4992 29.7653L58.4512 29.7173C58.4512 29.7173 58.4512 29.7173 58.4992 29.7653Z" fill="#F0ECED" stroke="#231F20" stroke-width="0.19" stroke-miterlimit="10"/>
<path d="M54.6013 33.8938L54.6493 33.9418C54.6493 33.9418 54.6109 33.9418 54.6013 33.8938Z" fill="#F0ECED" stroke="#231F20" stroke-width="0.19" stroke-miterlimit="10"/>
<path d="M57.9717 33.5C57.9717 33.5 57.9717 33.5 58.0293 33.5576C58.0355 33.5931 58.0322 33.6295 58.0197 33.6632C58.0197 33.6632 58.0197 33.6632 57.9717 33.6152C57.9237 33.5672 57.9813 33.548 57.9717 33.5Z" fill="#F0ECED" stroke="#231F20" stroke-width="0.19" stroke-miterlimit="10"/>
<path d="M52.4308 29.1505L52.4404 29.0449" stroke="#231F20" stroke-width="0.19" stroke-miterlimit="10"/>
<path d="M46.5929 31.7814L46.5449 31.7334L46.5929 31.6854C46.5929 31.6854 46.6409 31.7334 46.6505 31.743L46.5929 31.7814Z" fill="#F0ECED" stroke="#231F20" stroke-width="0.19" stroke-miterlimit="10"/>
<path d="M47.8029 28.1712C47.8029 28.1712 47.8029 28.1712 47.7549 28.2192L47.8029 28.1712Z" fill="#F0ECED" stroke="#231F20" stroke-width="0.19" stroke-miterlimit="10"/>
<path d="M59.5939 25.9051C59.5939 25.9051 59.5939 25.9051 59.6419 25.9531C59.6899 26.0011 59.5939 26.0011 59.5939 26.0011L59.5939 25.9051Z" fill="#F0ECED" stroke="#231F20" stroke-width="0.19" stroke-miterlimit="10"/>
<path d="M55.7724 26.731L55.7148 26.7886C55.7148 26.7886 55.7148 26.7886 55.6572 26.731C55.6572 26.731 55.6572 26.731 55.7052 26.779L55.7724 26.731Z" fill="#F0ECED" stroke="#231F20" stroke-width="0.19" stroke-miterlimit="10"/>
<path d="M52.7965 26.078C52.7965 26.078 52.8445 26.03 52.9021 26.0876C52.891 26.1078 52.8743 26.1245 52.8541 26.1356C52.8316 26.12 52.8121 26.1005 52.7965 26.078Z" fill="#F0ECED" stroke="#231F20" stroke-width="0.19" stroke-miterlimit="10"/>
<path d="M50.252 31.2725C50.252 31.2725 50.252 31.2725 50.204 31.2245C50.1559 31.1765 50.204 31.2245 50.2616 31.1669L50.252 31.2725Z" fill="#F0ECED" stroke="#231F20" stroke-width="0.19" stroke-miterlimit="10"/>
<path d="M58.0675 36.6493C58.0675 36.6493 58.0675 36.6493 58.1155 36.6973L58.0675 36.7453C58.0675 36.7453 58.0867 36.6877 58.0675 36.6493Z" fill="#F0ECED" stroke="#231F20" stroke-width="0.19" stroke-miterlimit="10"/>
<path d="M55.2158 30.5908C55.2158 30.5908 55.2158 30.5908 55.283 30.5236C55.3022 30.5361 55.3186 30.5524 55.331 30.5716L55.2158 30.5908Z" fill="#F0ECED" stroke="#231F20" stroke-width="0.19" stroke-miterlimit="10"/>
<path d="M59.8631 49.2181L59.8919 49.2085L59.8727 49.1893L59.8631 49.2181Z" fill="#F0ECED" stroke="#231F20" stroke-width="0.19" stroke-miterlimit="10"/>
<path d="M51.0488 45.7998L51.164 45.7806L51.2121 45.8286L51.1448 45.8958L51.0488 45.7998Z" fill="#F0ECED" stroke="#231F20" stroke-width="0.19" stroke-miterlimit="10"/>
<path d="M54.0731 29.2176C54.0731 29.2176 54.1211 29.2656 54.1499 29.2944C54.1499 29.2944 54.0923 29.2368 54.0635 29.208L54.0731 29.2176Z" fill="#F0ECED" stroke="#231F20" stroke-width="0.19" stroke-miterlimit="10"/>
<path d="M44.8744 37.0914L44.7976 37.1682C44.7976 37.1682 44.8264 37.101 44.8744 37.0914Z" fill="#F0ECED" stroke="#231F20" stroke-width="0.19" stroke-miterlimit="10"/>
<path d="M50.8857 34.0376L50.8281 33.98L50.8953 33.9128C50.9128 33.9272 50.9289 33.9433 50.9433 33.9608C50.9433 33.9608 50.9241 34.0184 50.8857 34.0376Z" fill="#F0ECED" stroke="#231F20" stroke-width="0.19" stroke-miterlimit="10"/>
<path d="M58.3459 39.2897L58.2979 39.2417" stroke="#231F20" stroke-width="0.19" stroke-miterlimit="10"/>
<path d="M55.5424 44.2443L55.5904 44.1963C55.6106 44.2074 55.6272 44.224 55.6384 44.2443L55.5904 44.2923C55.5904 44.2923 55.5328 44.2539 55.5424 44.2443Z" fill="#F0ECED" stroke="#231F20" stroke-width="0.19" stroke-miterlimit="10"/>
<path d="M58.6629 43.0441C58.6629 43.0441 58.7109 42.9961 58.7109 43.0921C58.7109 43.1881 58.7109 43.0921 58.7686 43.1497C58.7443 43.1409 58.7223 43.1269 58.704 43.1086C58.6858 43.0904 58.6718 43.0683 58.6629 43.0441Z" fill="#F0ECED" stroke="#231F20" stroke-width="0.19" stroke-miterlimit="10"/>
<path d="M53.3525 26.5195L53.4102 26.4619" stroke="#231F20" stroke-width="0.19" stroke-miterlimit="10"/>
<path d="M59.9304 31.8104C59.9068 31.7893 59.8844 31.7668 59.8632 31.7432L59.9208 31.6856C59.9208 31.6856 59.9496 31.7912 59.9304 31.8104Z" fill="#F0ECED" stroke="#231F20" stroke-width="0.19" stroke-miterlimit="10"/>
<path d="M53.3721 32.2617C53.3721 32.2617 53.4297 32.2041 53.4489 32.1849C53.4489 32.1849 53.4297 32.2809 53.3721 32.2617Z" fill="#F0ECED" stroke="#231F20" stroke-width="0.19" stroke-miterlimit="10"/>
<path d="M52.3446 40.0487L52.2773 39.9814L52.3254 40.0295C52.3254 40.0295 52.3542 40.0583 52.3446 40.0487Z" fill="#F0ECED" stroke="#231F20" stroke-width="0.19" stroke-miterlimit="10"/>
<path d="M48.8496 36.0542L48.9072 35.9966L48.936 36.1214C48.911 36.0945 48.8819 36.0718 48.8496 36.0542Z" fill="#F0ECED" stroke="#231F20" stroke-width="0.19" stroke-miterlimit="10"/>
<path d="M47.2275 43.8603C47.2275 43.8603 47.2275 43.8603 47.1699 43.8027L47.2179 43.7547C47.2179 43.7547 47.2659 43.8027 47.2755 43.8123L47.2275 43.8603Z" fill="#F0ECED" stroke="#231F20" stroke-width="0.19" stroke-miterlimit="10"/>
<path d="M47.6113 40.0771L47.6689 40.0195C47.6689 40.0195 47.7169 40.0675 47.7265 40.0771C47.7361 40.0868 47.7265 40.0771 47.6689 40.1348L47.6113 40.0771Z" fill="#F0ECED" stroke="#231F20" stroke-width="0.19" stroke-miterlimit="10"/>
<path d="M58.6719 35.353C58.6719 35.353 58.6719 35.353 58.7199 35.401L58.6623 35.4587" stroke="#231F20" stroke-width="0.19" stroke-miterlimit="10"/>
<path d="M60.9285 36.7264L60.8613 36.6592L60.9189 36.6016L60.9957 36.6784L60.9285 36.7264Z" fill="#F0ECED" stroke="#231F20" stroke-width="0.19" stroke-miterlimit="10"/>
<path d="M55.0146 36.9569C55.0146 36.9569 55.0146 36.9569 54.9666 37.005C54.9474 36.9925 54.931 36.9761 54.9185 36.9569L54.9666 37.005L55.0146 36.9569Z" fill="#F0ECED"/>
<path d="M54.9666 37.005C55.0146 36.9569 55.0146 36.9569 55.0146 36.9569L54.9666 37.005ZM54.9666 37.005C54.9474 36.9925 54.931 36.9761 54.9185 36.9569L54.9666 37.005Z" stroke="#231F20" stroke-width="0.19" stroke-miterlimit="10"/>
<path d="M52.0371 36.9565C52.0371 36.9565 52.0947 36.8989 52.1523 36.9373L52.0947 36.995C52.0765 36.9808 52.0572 36.9679 52.0371 36.9565Z" fill="#F0ECED" stroke="#231F20" stroke-width="0.19" stroke-miterlimit="10"/>
<path d="M50.6834 42.5739C50.678 42.5895 50.6692 42.6036 50.6576 42.6152C50.6459 42.6269 50.6318 42.6357 50.6162 42.6411L50.6738 42.5835L50.6834 42.5739Z" fill="#F0ECED" stroke="#231F20" stroke-width="0.19" stroke-miterlimit="10"/>
<path d="M56.1474 33.212L56.205 33.1543C56.205 33.1543 56.157 33.2408 56.1474 33.212Z" fill="#F0ECED" stroke="#231F20" stroke-width="0.19" stroke-miterlimit="10"/>
<path d="M53.2666 48.4404C53.2666 48.4404 53.2666 48.4404 53.3146 48.3924C53.3146 48.3924 53.2858 48.4212 53.2666 48.4404Z" fill="#F0ECED" stroke="#231F20" stroke-width="0.19" stroke-miterlimit="10"/>
<path d="M59.4409 46.107L59.4889 46.059L59.5369 46.107L59.4889 46.155C59.471 46.1409 59.4549 46.1248 59.4409 46.107Z" fill="#F0ECED" stroke="#231F20" stroke-width="0.19" stroke-miterlimit="10"/>
<path d="M49.8097 31.3302C49.8097 31.3302 49.8097 31.3302 49.7617 31.2822L49.8097 31.3302Z" fill="#F0ECED" stroke="#231F20" stroke-width="0.19" stroke-miterlimit="10"/>
<path d="M55.3791 40.8356L55.3887 40.73L55.3983 40.8356L55.3791 40.8356Z" fill="#F0ECED" stroke="#231F20" stroke-width="0.19" stroke-miterlimit="10"/>
<path d="M59.9207 59.4725L59.9399 59.4725L59.9207 59.4533L59.9207 59.4725Z" fill="#F0ECED" stroke="#231F20" stroke-width="0.19" stroke-miterlimit="10"/>
<path d="M51.6442 54.9022C51.6442 54.9022 51.6922 54.8542 51.7498 54.9118L51.6826 54.979L51.6442 54.9022Z" fill="#F0ECED" stroke="#231F20" stroke-width="0.19" stroke-miterlimit="10"/>
<path d="M56.8961 38.8388L57.0017 38.9444C56.9684 38.9205 56.9392 38.8913 56.9153 38.858L56.8961 38.8388Z" fill="#F0ECED" stroke="#231F20" stroke-width="0.19" stroke-miterlimit="10"/>
<path d="M46.6699 45.4351L46.5835 45.5215C46.5946 45.5013 46.6113 45.4846 46.6315 45.4735L46.6699 45.4351Z" fill="#F0ECED" stroke="#231F20" stroke-width="0.19" stroke-miterlimit="10"/>
<path d="M53.0555 43.236C53.0328 43.2206 53.0132 43.2011 52.9978 43.1784L53.0651 43.1112L53.1131 43.1592L53.0555 43.236Z" fill="#F0ECED" stroke="#231F20" stroke-width="0.19" stroke-miterlimit="10"/>
<path d="M59.7764 49.4004C59.7764 49.4004 59.7764 49.4004 59.8244 49.3524L59.7764 49.4004Z" fill="#F0ECED" stroke="#231F20" stroke-width="0.19" stroke-miterlimit="10"/>
<path d="M56.2529 53.9229L56.3009 53.8748C56.2877 53.8934 56.2715 53.9096 56.2529 53.9229Z" fill="#F0ECED" stroke="#231F20" stroke-width="0.19" stroke-miterlimit="10"/>
<path d="M59.5752 53.2314C59.5752 53.2314 59.5752 53.2314 59.6328 53.289C59.6904 53.3467 59.6328 53.289 59.6424 53.3947C59.6424 53.3947 59.5848 53.2794 59.5752 53.2314Z" fill="#F0ECED" stroke="#231F20" stroke-width="0.19" stroke-miterlimit="10"/>
<path d="M56.502 36.1021L56.55 36.054C56.5707 36.0645 56.5875 36.0813 56.598 36.1021L56.502 36.1021Z" fill="#F0ECED" stroke="#231F20" stroke-width="0.19" stroke-miterlimit="10"/>
<path d="M55.7529 41.8057C55.7529 41.8057 55.8201 41.7385 55.8297 41.7289C55.8297 41.7289 55.8009 41.8345 55.7529 41.8057Z" fill="#F0ECED" stroke="#231F20" stroke-width="0.19" stroke-miterlimit="10"/>
<path d="M53.6982 49.3716C53.6885 49.3338 53.6885 49.2941 53.6982 49.2564V49.3716Z" fill="#F0ECED" stroke="#231F20" stroke-width="0.19" stroke-miterlimit="10"/>
<path d="M50.7606 44.9548L50.8086 44.9067L50.8182 45.0316L50.7606 44.9548Z" fill="#F0ECED" stroke="#231F20" stroke-width="0.19" stroke-miterlimit="10"/>
<path d="M60.9668 38.2432C60.9668 38.2432 60.9668 38.2432 61.0244 38.1856C61.0244 38.1856 61.0244 38.1856 61.0724 38.2336L60.9668 38.2432Z" fill="#F0ECED" stroke="#231F20" stroke-width="0.19" stroke-miterlimit="10"/>
<path d="M48.1009 52.4732L48.0529 52.4252C48.0529 52.4252 48.1009 52.4732 48.1105 52.4828C48.1071 52.4797 48.1039 52.4765 48.1009 52.4732Z" fill="#F0ECED" stroke="#231F20" stroke-width="0.19" stroke-miterlimit="10"/>
<path d="M49.0418 48.8244L49.0898 48.7764L49.1378 48.8244C49.1378 48.8244 49.1378 48.8244 49.0802 48.882L49.0418 48.8244Z" fill="#F0ECED" stroke="#231F20" stroke-width="0.19" stroke-miterlimit="10"/>
<path d="M60.5637 45.5408L60.6117 45.5888C60.6117 45.5888 60.5541 45.6464 60.5637 45.6368L60.5637 45.5408Z" fill="#F0ECED" stroke="#231F20" stroke-width="0.19" stroke-miterlimit="10"/>
<path d="M56.7813 46.6543C56.7813 46.6543 56.7813 46.6543 56.7332 46.7023C56.6852 46.7503 56.7332 46.7023 56.6756 46.6447C56.6756 46.6447 56.6756 46.6447 56.7332 46.7023L56.7813 46.6543Z" fill="#F0ECED"/>
<path d="M56.7332 46.7023C56.7813 46.6543 56.7813 46.6543 56.7813 46.6543L56.7332 46.7023ZM56.7332 46.7023C56.6852 46.7503 56.7332 46.7023 56.6756 46.6447C56.6756 46.6447 56.6756 46.6447 56.7332 46.7023Z" stroke="#231F20" stroke-width="0.19" stroke-miterlimit="10"/>
<path d="M53.8044 46.2703C53.8044 46.2703 53.8525 46.2223 53.9197 46.2703C53.9085 46.2905 53.8919 46.3071 53.8717 46.3183C53.8717 46.3183 53.8333 46.3183 53.8044 46.2703Z" fill="#F0ECED" stroke="#231F20" stroke-width="0.19" stroke-miterlimit="10"/>
<path d="M51.7012 51.6569C51.7012 51.6569 51.7492 51.7049 51.6532 51.7049C51.5571 51.7049 51.5956 51.7625 51.5956 51.7625C51.5956 51.7625 51.5956 51.7625 51.6532 51.7049C51.7108 51.6473 51.6724 51.6665 51.7012 51.6569Z" fill="#F0ECED"/>
<path d="M51.6532 51.7049C51.7492 51.7049 51.7012 51.6569 51.7012 51.6569C51.6724 51.6665 51.7108 51.6473 51.6532 51.7049ZM51.6532 51.7049C51.5571 51.7049 51.5956 51.7625 51.5956 51.7625C51.5956 51.7625 51.5956 51.7625 51.6532 51.7049Z" stroke="#231F20" stroke-width="0.19" stroke-miterlimit="10"/>
<path d="M58.3652 43.1113L58.4709 43.1017C58.4361 43.1085 58.4007 43.1117 58.3652 43.1113Z" fill="#F0ECED" stroke="#231F20" stroke-width="0.19" stroke-miterlimit="10"/>
<path d="M59.9395 56.3809L59.9875 56.3329C59.9875 56.3329 59.9875 56.3329 59.9395 56.3809Z" fill="#F0ECED" stroke="#231F20" stroke-width="0.19" stroke-miterlimit="10"/>
<path d="M52.3449 40.4132C52.3449 40.4132 52.3449 40.4132 52.2969 40.3652L52.3449 40.4132Z" fill="#F0ECED" stroke="#231F20" stroke-width="0.19" stroke-miterlimit="10"/>
<path d="M56.5889 50.5718L56.6465 50.5142L56.6369 50.6198L56.5889 50.5718Z" fill="#F0ECED" stroke="#231F20" stroke-width="0.19" stroke-miterlimit="10"/>
<path d="M49.0322 63.8125C49.0322 63.8125 49.0898 63.7549 49.1571 63.8029C49.1509 63.818 49.1418 63.8318 49.1302 63.8433C49.1187 63.8549 49.105 63.864 49.0898 63.8701L49.0322 63.8125Z" fill="#F0ECED" stroke="#231F20" stroke-width="0.19" stroke-miterlimit="10"/>
<path d="M51.1544 47.0959C51.1832 47.1181 51.209 47.1439 51.2312 47.1727C51.1949 47.1454 51.1626 47.113 51.1352 47.0767L51.1544 47.0959Z" fill="#F0ECED" stroke="#231F20" stroke-width="0.19" stroke-miterlimit="10"/>
<path d="M42.4069 55.4593L42.3781 55.5841C42.3781 55.5841 42.3685 55.4977 42.4069 55.4593Z" fill="#F0ECED" stroke="#231F20" stroke-width="0.19" stroke-miterlimit="10"/>
<path d="M48.2357 52.0887C48.2357 52.0887 48.1877 52.0407 48.1781 52.0311C48.1685 52.0215 48.2357 51.9735 48.2453 51.9639C48.2549 51.9543 48.2933 52.0119 48.2933 52.0119L48.2357 52.0887Z" fill="#F0ECED" stroke="#231F20" stroke-width="0.19" stroke-miterlimit="10"/>
<path d="M59.248 58.4741C59.248 58.4741 59.3057 58.4165 59.3153 58.4069L59.248 58.4741Z" fill="#F0ECED" stroke="#231F20" stroke-width="0.19" stroke-miterlimit="10"/>
<path d="M55.9746 56.9282L55.917 56.8706L55.9746 56.813L56.0226 56.861L55.9746 56.9282Z" fill="#F0ECED" stroke="#231F20" stroke-width="0.19" stroke-miterlimit="10"/>
<path d="M53.3818 61.9785L53.4394 61.9209L53.4971 61.9785C53.4587 61.9821 53.4202 61.9821 53.3818 61.9785Z" fill="#F0ECED" stroke="#231F20" stroke-width="0.19" stroke-miterlimit="10"/>
<path d="M56.5311 60.692C56.5311 60.692 56.5791 60.644 56.5791 60.74C56.5791 60.8361 56.5791 60.74 56.6367 60.7977C56.6125 60.7888 56.5904 60.7748 56.5722 60.7566C56.5539 60.7383 56.5399 60.7163 56.5311 60.692Z" fill="#F0ECED" stroke="#231F20" stroke-width="0.19" stroke-miterlimit="10"/>
<path d="M50.309 44.4459L50.357 44.3979" stroke="#231F20" stroke-width="0.19" stroke-miterlimit="10"/>
<path d="M57.1459 49.3622C57.1459 49.3622 57.0979 49.3142 57.0883 49.3046C57.0787 49.295 57.1459 49.247 57.1459 49.247C57.1459 49.247 57.1459 49.247 57.1939 49.295L57.1459 49.3622Z" fill="#F0ECED" stroke="#231F20" stroke-width="0.19" stroke-miterlimit="10"/>
<path d="M50.626 50.1782C50.626 50.1782 50.6836 50.1206 50.7028 50.1014C50.7028 50.1014 50.6836 50.1974 50.626 50.1782Z" fill="#F0ECED" stroke="#231F20" stroke-width="0.19" stroke-miterlimit="10"/>
<path d="M50.0309 57.9942C50.0038 57.977 49.9808 57.954 49.9637 57.9269C49.9637 57.9269 50.0693 57.975 50.0309 57.9942Z" fill="#F0ECED" stroke="#231F20" stroke-width="0.19" stroke-miterlimit="10"/>
<path d="M46.3146 54.2015L46.3626 54.1535C46.3812 54.1925 46.391 54.2351 46.3914 54.2783C46.3607 54.2584 46.3345 54.2322 46.3146 54.2015Z" fill="#F0ECED" stroke="#231F20" stroke-width="0.19" stroke-miterlimit="10"/>
<path d="M55.1007 45.7038L55.0527 45.6558C55.0527 45.6558 55.0527 45.6558 55.1007 45.7038C55.1295 45.675 55.1488 45.7518 55.1007 45.7038Z" fill="#F0ECED"/>
<path d="M55.1007 45.7038L55.0527 45.6558C55.0527 45.6558 55.0527 45.6558 55.1007 45.7038ZM55.1007 45.7038C55.1488 45.7518 55.1295 45.675 55.1007 45.7038Z" stroke="#231F20" stroke-width="0.19" stroke-miterlimit="10"/>
<path d="M45.1055 62.0937C45.1055 62.0937 45.0575 62.0457 45.0479 62.0361L45.0959 61.9881C45.0959 61.9881 45.0959 61.9881 45.1535 62.0457C45.2111 62.1033 45.1343 62.0649 45.1055 62.0937Z" fill="#F0ECED" stroke="#231F20" stroke-width="0.19" stroke-miterlimit="10"/>
<path d="M45.3164 58.311L45.374 58.2534C45.374 58.2534 45.374 58.2534 45.4316 58.311C45.4892 58.3686 45.4316 58.311 45.374 58.3686L45.3164 58.311Z" fill="#F0ECED" stroke="#231F20" stroke-width="0.19" stroke-miterlimit="10"/>
<path d="M56.0508 52.9531C56.0508 52.9531 56.0508 52.9531 56.0988 53.0011C56.1468 53.0491 56.0508 53.0491 56.0412 53.0587L56.0508 52.9531Z" fill="#F0ECED" stroke="#231F20" stroke-width="0.19" stroke-miterlimit="10"/>
<path d="M58.4129 54.2205L58.3457 54.1533L58.4033 54.0957C58.4033 54.0957 58.4033 54.0957 58.4705 54.1629L58.4129 54.2205Z" fill="#F0ECED" stroke="#231F20" stroke-width="0.19" stroke-miterlimit="10"/>
<path d="M60.3721 52.1465L60.4393 52.0793C60.4624 52.0941 60.4821 52.1137 60.4969 52.1369L60.4393 52.1945C60.4393 52.1945 60.4009 52.1753 60.3721 52.1465Z" fill="#F0ECED" stroke="#231F20" stroke-width="0.19" stroke-miterlimit="10"/>
<path d="M52.5468 54.7484C52.5468 54.7484 52.5468 54.7484 52.4988 54.7965C52.4796 54.784 52.4632 54.7676 52.4508 54.7484L52.4988 54.7004C52.5186 54.7121 52.5351 54.7286 52.5468 54.7484Z" fill="#F0ECED" stroke="#231F20" stroke-width="0.19" stroke-miterlimit="10"/>
<path d="M49.5508 54.9404C49.5508 54.9404 49.6084 54.8828 49.618 54.8732C49.6276 54.8636 49.618 54.8732 49.666 54.9212L49.618 54.9692C49.618 54.9692 49.5796 54.9692 49.5508 54.9404Z" fill="#F0ECED" stroke="#231F20" stroke-width="0.19" stroke-miterlimit="10"/>
<path d="M48.4949 60.6248L48.4372 60.6824C48.4372 60.6824 48.4372 60.6824 48.4853 60.6344C48.5333 60.5863 48.4565 60.6248 48.4949 60.6248Z" fill="#F0ECED" stroke="#231F20" stroke-width="0.19" stroke-miterlimit="10"/>
<path d="M53.4392 50.9753L53.5064 50.9081C53.5064 50.9081 53.5064 50.9081 53.4584 50.9561C53.4104 51.0041 53.468 51.0041 53.4392 50.9753Z" fill="#F0ECED" stroke="#231F20" stroke-width="0.19" stroke-miterlimit="10"/>
<path d="M57.4629 63.7168L57.5109 63.6688C57.5109 63.6688 57.4917 63.7456 57.4629 63.7168Z" fill="#F0ECED" stroke="#231F20" stroke-width="0.19" stroke-miterlimit="10"/>
<path d="M53.0938 58.6372L53.1514 58.5796L53.209 58.6372L53.0938 58.6372Z" fill="#F0ECED" stroke="#231F20" stroke-width="0.19" stroke-miterlimit="10"/>
<path d="M60.2178 61.6904L60.2658 61.6424L60.3138 61.6904L60.2658 61.7384L60.2178 61.6904Z" fill="#F0ECED" stroke="#231F20" stroke-width="0.19" stroke-miterlimit="10"/>
<path d="M60.2666 46.395L60.3146 46.347L60.3626 46.395L60.2666 46.395Z" fill="#F0ECED" stroke="#231F20" stroke-width="0.19" stroke-miterlimit="10"/>
<path d="M60.5928 49.0259C60.5928 49.0259 60.5928 49.0259 60.6408 49.0739L60.5928 49.0259Z" fill="#F0ECED" stroke="#231F20" stroke-width="0.19" stroke-miterlimit="10"/>
<path d="M55.8494 53.2892C55.8494 53.2892 55.8975 53.2412 55.9647 53.2892C55.9647 53.2892 55.9167 53.3372 55.8975 53.3564L55.8494 53.2892Z" fill="#F0ECED" stroke="#231F20" stroke-width="0.19" stroke-miterlimit="10"/>
<path d="M58.5669 36.6686C58.591 36.7018 58.6201 36.7309 58.6533 36.7551C58.6167 36.728 58.5844 36.6956 58.5573 36.659L58.5669 36.6686Z" fill="#F0ECED" stroke="#231F20" stroke-width="0.19" stroke-miterlimit="10"/>
<path d="M49.5221 44.6956L49.4453 44.7725" stroke="#231F20" stroke-width="0.19" stroke-miterlimit="10"/>
<path d="M55.4746 41.5464L55.417 41.4888L55.4842 41.4216L55.4746 41.5464Z" fill="#F0ECED" stroke="#231F20" stroke-width="0.19" stroke-miterlimit="10"/>
<path d="M60.2568 51.6279L60.3144 51.5703C60.3371 51.5857 60.3567 51.6053 60.3721 51.6279L60.324 51.6759C60.2998 51.6627 60.2772 51.6466 60.2568 51.6279Z" fill="#F0ECED" stroke="#231F20" stroke-width="0.19" stroke-miterlimit="10"/>
<path d="M57.8086 33.9897L57.8566 33.9417C57.8566 33.9417 57.8566 33.9417 57.8086 33.9897Z" fill="#F0ECED" stroke="#231F20" stroke-width="0.19" stroke-miterlimit="10"/>
<path d="M57.9238 39.7314C57.9238 39.7314 57.9814 39.6738 58.0006 39.6546C58.0006 39.6546 57.991 39.741 57.9238 39.7314Z" fill="#F0ECED" stroke="#231F20" stroke-width="0.19" stroke-miterlimit="10"/>
<path d="M57.0496 47.5184L57.0304 47.4032L57.0784 47.4512C57.0784 47.4512 57.088 47.4992 57.0496 47.5184Z" fill="#F0ECED" stroke="#231F20" stroke-width="0.19" stroke-miterlimit="10"/>
<path d="M53.4873 43.5913L53.5353 43.5433L53.5641 43.6681L53.4873 43.5913Z" fill="#F0ECED" stroke="#231F20" stroke-width="0.19" stroke-miterlimit="10"/>
<path d="M51.9893 51.4263C51.9893 51.4263 51.9412 51.3783 51.9316 51.3687L52.0373 51.263C52.0373 51.263 52.0853 51.311 52.0949 51.3206L51.9893 51.4263Z" fill="#F0ECED" stroke="#231F20" stroke-width="0.19" stroke-miterlimit="10"/>
<path d="M52.2871 47.6724L52.3447 47.6148C52.3447 47.6148 52.4023 47.6724 52.4119 47.682L52.3543 47.7396L52.2871 47.6724Z" fill="#F0ECED" stroke="#231F20" stroke-width="0.19" stroke-miterlimit="10"/>
<path d="M59.6897 44.3594C59.6897 44.3594 59.6897 44.3594 59.6321 44.417C59.6123 44.4053 59.5958 44.3888 59.5841 44.369C59.5841 44.369 59.5841 44.369 59.6321 44.321L59.6897 44.3594Z" fill="#F0ECED" stroke="#231F20" stroke-width="0.19" stroke-miterlimit="10"/>
<path d="M56.7139 44.417L56.7811 44.3498C56.7811 44.3498 56.7811 44.3498 56.8291 44.3978L56.7715 44.4554C56.7529 44.4417 56.7336 44.4289 56.7139 44.417Z" fill="#F0ECED" stroke="#231F20" stroke-width="0.19" stroke-miterlimit="10"/>
<path d="M55.4461 50.1012C55.4407 50.1168 55.4319 50.1309 55.4203 50.1426C55.4086 50.1542 55.3945 50.1631 55.3789 50.1685L55.4365 50.1108L55.4461 50.1012Z" fill="#F0ECED" stroke="#231F20" stroke-width="0.19" stroke-miterlimit="10"/>
<path d="M60.7178 40.6245L60.785 40.5573L60.737 40.6053C60.737 40.6053 60.737 40.6629 60.7178 40.6245Z" fill="#F0ECED" stroke="#231F20" stroke-width="0.19" stroke-miterlimit="10"/>
<path d="M58.125 55.9297L58.173 55.8817C58.1937 55.8921 58.2106 55.909 58.221 55.9297L58.125 55.9297Z" fill="#F0ECED" stroke="#231F20" stroke-width="0.19" stroke-miterlimit="10"/>
<path d="M60.0929 48.258L60.0449 48.21L60.1025 48.2676L60.0929 48.258Z" fill="#F0ECED" stroke="#231F20" stroke-width="0.19" stroke-miterlimit="10"/>
<path d="M57.117 43.995L57.1362 43.9757H57.117V43.995Z" fill="#F0ECED" stroke="#231F20" stroke-width="0.19" stroke-miterlimit="10"/>
<path d="M60.6598 33.0008C60.6899 33.0215 60.7159 33.0476 60.7366 33.0776C60.7366 33.0776 60.679 33.1353 60.6694 33.1449C60.6526 33.1421 60.6371 33.1341 60.625 33.1221C60.6129 33.11 60.605 33.0945 60.6022 33.0776C60.6022 33.0776 60.6502 32.9912 60.6598 33.0008Z" fill="#F0ECED" stroke="#231F20" stroke-width="0.19" stroke-miterlimit="10"/>
<path d="M48.1006 41.124C48.1006 41.124 48.1582 41.0664 48.2158 41.1048C48.2734 41.1432 48.2638 41.1528 48.2638 41.1528L48.1966 41.22L48.1006 41.124Z" fill="#F0ECED" stroke="#231F20" stroke-width="0.19" stroke-miterlimit="10"/>
<path d="M41.3991 32.8089L41.3703 32.9337" stroke="#231F20" stroke-width="0.19" stroke-miterlimit="10"/>
<path d="M47.2082 29.4001C47.2082 29.4001 47.2082 29.4001 47.1506 29.3425C47.093 29.2849 47.2082 29.2849 47.2178 29.2753L47.2082 29.4001Z" fill="#F0ECED" stroke="#231F20" stroke-width="0.19" stroke-miterlimit="10"/>
<path d="M58.2692 35.7567C58.2692 35.7567 58.3268 35.6991 58.3844 35.7375C58.442 35.7759 58.4324 35.7855 58.4324 35.7855L58.346 35.8719L58.2692 35.7567Z" fill="#F0ECED" stroke="#231F20" stroke-width="0.19" stroke-miterlimit="10"/>
<path d="M54.9757 34.172L54.9277 34.124L54.9853 34.0664L54.9757 34.172Z" fill="#F0ECED" stroke="#231F20" stroke-width="0.19" stroke-miterlimit="10"/>
<path d="M52.4316 39.2515L52.4893 39.1939L52.5469 39.2515C52.5086 39.2567 52.4699 39.2567 52.4316 39.2515Z" fill="#F0ECED" stroke="#231F20" stroke-width="0.19" stroke-miterlimit="10"/>
<path d="M55.5615 37.9458C55.5615 37.9458 55.5615 37.9458 55.6096 37.9938C55.6576 38.0418 55.6096 37.9938 55.6672 38.0514C55.6246 38.0245 55.5885 37.9884 55.5615 37.9458Z" fill="#F0ECED" stroke="#231F20" stroke-width="0.19" stroke-miterlimit="10"/>
<path d="M56.1379 26.5583C56.1379 26.5583 56.1379 26.5583 56.0803 26.5007C56.0227 26.4431 56.1283 26.4527 56.1379 26.4431C56.1494 26.4462 56.1599 26.4522 56.1683 26.4607C56.1768 26.4691 56.1828 26.4796 56.1859 26.4911L56.1379 26.5583Z" fill="#F0ECED" stroke="#231F20" stroke-width="0.19" stroke-miterlimit="10"/>
<path d="M49.5791 27.4702C49.5791 27.4702 49.6367 27.4126 49.6559 27.3934C49.6559 27.3934 49.6367 27.4894 49.5791 27.4702Z" fill="#F0ECED" stroke="#231F20" stroke-width="0.19" stroke-miterlimit="10"/>
<path d="M49.0899 35.3339C49.0647 35.3219 49.0443 35.3015 49.0323 35.2763L49.0899 35.3339Z" fill="#F0ECED" stroke="#231F20" stroke-width="0.19" stroke-miterlimit="10"/>
<path d="M45.3066 31.5317L45.3546 31.4837C45.3546 31.4837 45.4027 31.5317 45.4315 31.5605C45.3878 31.5657 45.3437 31.5555 45.3066 31.5317Z" fill="#F0ECED" stroke="#231F20" stroke-width="0.19" stroke-miterlimit="10"/>
<path d="M44.1543 39.4243C44.1543 39.4243 44.1543 39.4243 44.0967 39.3667L44.1447 39.3187C44.1447 39.3187 44.1927 39.3667 44.2023 39.3763C44.2119 39.3859 44.1831 39.3955 44.1543 39.4243Z" fill="#F0ECED" stroke="#231F20" stroke-width="0.19" stroke-miterlimit="10"/>
<path d="M44.3182 35.6315L44.3758 35.5739L44.443 35.6411L44.3758 35.7083L44.3182 35.6315Z" fill="#F0ECED" stroke="#231F20" stroke-width="0.19" stroke-miterlimit="10"/>
<path d="M55.033 30.197C55.033 30.197 55.033 30.197 55.0906 30.2546C55.1482 30.3122 55.033 30.3122 55.033 30.3122C55.0136 30.3001 54.9971 30.2836 54.985 30.2642L55.033 30.197Z" fill="#F0ECED" stroke="#231F20" stroke-width="0.19" stroke-miterlimit="10"/>
<path d="M57.4045 31.4548C57.4045 31.4548 57.3469 31.3972 57.3373 31.3876C57.3277 31.378 57.3373 31.3876 57.3949 31.33L57.4621 31.3972C57.4621 31.3972 57.4429 31.4356 57.4045 31.4548Z" fill="#F0ECED" stroke="#231F20" stroke-width="0.19" stroke-miterlimit="10"/>
<path d="M59.3347 29.3523C59.3347 29.3523 59.3923 29.2947 59.4499 29.3331C59.4718 29.3494 59.4912 29.3688 59.5075 29.3907L59.4499 29.4483C59.4499 29.4483 59.3635 29.4003 59.3347 29.3523Z" fill="#F0ECED" stroke="#231F20" stroke-width="0.19" stroke-miterlimit="10"/>
<path d="M51.5383 32.0213C51.5383 32.0213 51.5383 32.0213 51.4807 32.0789L51.5287 32.1269L51.5383 32.0213Z" fill="#F0ECED" stroke="#231F20" stroke-width="0.19" stroke-miterlimit="10"/>
<path d="M48.5427 32.2327L48.6099 32.1655L48.6579 32.2135L48.6003 32.2711C48.6003 32.2711 48.5715 32.2807 48.5427 32.2327Z" fill="#F0ECED" stroke="#231F20" stroke-width="0.19" stroke-miterlimit="10"/>
<path d="M47.534 37.9264L47.582 37.9744C47.5675 38.0036 47.5439 38.0272 47.5148 38.0417C47.5148 38.0417 47.5148 38.0417 47.5724 37.9841L47.534 37.9264Z" fill="#F0ECED" stroke="#231F20" stroke-width="0.19" stroke-miterlimit="10"/>
<path d="M52.374 28.2095L52.4316 28.1519C52.4524 28.1623 52.4692 28.1791 52.4796 28.1999C52.465 28.2118 52.4471 28.2191 52.4283 28.2208C52.4095 28.2225 52.3906 28.2185 52.374 28.2095Z" fill="#F0ECED" stroke="#231F20" stroke-width="0.19" stroke-miterlimit="10"/>
<path d="M56.5311 40.9508L56.5791 40.9028C56.596 40.9179 56.612 40.9339 56.6271 40.9508L56.5695 41.0085C56.5695 41.0085 56.5503 40.9893 56.5311 40.9508Z" fill="#F0ECED" stroke="#231F20" stroke-width="0.19" stroke-miterlimit="10"/>
<path d="M45.9689 26.7599L45.9209 26.7119" stroke="#231F20" stroke-width="0.19" stroke-miterlimit="10"/>
<path d="M52.0763 35.9391C52.0763 35.9391 52.0763 35.9391 52.0763 35.8431C52.0982 35.8595 52.1176 35.8789 52.1339 35.9007L52.0763 35.9391Z" fill="#F0ECED" stroke="#231F20" stroke-width="0.19" stroke-miterlimit="10"/>
<path d="M59.2576 38.9157L59.3057 38.8677L59.248 38.9253L59.2576 38.9157Z" fill="#F0ECED" stroke="#231F20" stroke-width="0.19" stroke-miterlimit="10"/>
<path d="M59.5273 26.2412C59.5468 26.2533 59.5632 26.2697 59.5754 26.2892L59.5273 26.2412Z" fill="#F0ECED" stroke="#231F20" stroke-width="0.19" stroke-miterlimit="10"/>
<path d="M53.6699 50.188C53.6699 50.188 53.7275 50.1304 53.7851 50.1688L53.7179 50.236L53.6699 50.188Z" fill="#F0ECED" stroke="#231F20" stroke-width="0.19" stroke-miterlimit="10"/>
<path d="M54.2458 33.3464L54.3226 33.4232C54.3226 33.4232 54.2554 33.356 54.2266 33.3271L54.2458 33.3464Z" fill="#F0ECED" stroke="#231F20" stroke-width="0.19" stroke-miterlimit="10"/>
<path d="M46.2865 42.4776C46.2865 42.4776 46.2865 42.4776 46.2193 42.5448L46.2865 42.4776Z" fill="#F0ECED" stroke="#231F20" stroke-width="0.19" stroke-miterlimit="10"/>
<path d="M51.7972 38.5795C51.7972 38.5795 51.7492 38.5314 51.7396 38.5218C51.73 38.5122 51.7972 38.4642 51.8068 38.4546C51.8144 38.4749 51.8174 38.4965 51.8157 38.5181C51.8141 38.5396 51.8078 38.5606 51.7972 38.5795Z" fill="#F0ECED" stroke="#231F20" stroke-width="0.19" stroke-miterlimit="10"/>
<path d="M59.9394 42.689L59.8818 42.6313C59.8818 42.6313 59.8818 42.6313 59.9394 42.5737C59.9574 42.5877 59.9735 42.6038 59.9875 42.6217L59.9394 42.689Z" fill="#F0ECED" stroke="#231F20" stroke-width="0.19" stroke-miterlimit="10"/>
<path d="M57.8369 47.9604L57.8945 47.9028C57.9154 47.9203 57.9347 47.9395 57.9521 47.9605L57.9041 48.0085C57.8798 47.9954 57.8572 47.9792 57.8369 47.9604Z" fill="#F0ECED" stroke="#231F20" stroke-width="0.19" stroke-miterlimit="10"/>
<path d="M60.8428 46.395C60.8428 46.395 60.9004 46.3374 60.8908 46.347C60.9185 46.3634 60.9416 46.3865 60.958 46.4142C60.9187 46.4148 60.8797 46.4083 60.8428 46.395Z" fill="#F0ECED" stroke="#231F20" stroke-width="0.19" stroke-miterlimit="10"/>
<path d="M53.142 30.7828L53.1996 30.7252" stroke="#231F20" stroke-width="0.19" stroke-miterlimit="10"/>
<path d="M60.4101 35.0557C60.4101 35.0557 60.3621 35.0076 60.3525 34.998L60.4198 34.9308" stroke="#231F20" stroke-width="0.19" stroke-miterlimit="10"/>
<path d="M53.9863 36.4668C53.9863 36.4668 54.0439 36.4092 54.0727 36.3804C54.0727 36.3804 54.0535 36.4764 53.9863 36.4668Z" fill="#F0ECED" stroke="#231F20" stroke-width="0.19" stroke-miterlimit="10"/>
<path d="M54.1207 44.3018C54.0936 44.2846 54.0707 44.2617 54.0535 44.2346C54.0673 44.2383 54.0799 44.2455 54.0901 44.2556C54.1002 44.2658 54.1074 44.2784 54.1111 44.2922C54.1111 44.2922 54.1495 44.273 54.1207 44.3018Z" fill="#F0ECED" stroke="#231F20" stroke-width="0.19" stroke-miterlimit="10"/>
<path d="M50.0791 40.874L50.1271 40.826L50.2135 40.9124C50.2135 40.9124 50.0983 40.8932 50.0791 40.874Z" fill="#F0ECED" stroke="#231F20" stroke-width="0.19" stroke-miterlimit="10"/>
<path d="M58.0384 31.5894C58.0186 31.5777 58.002 31.5612 57.9904 31.5414C57.9904 31.5414 58.0768 31.5702 58.0384 31.5894Z" fill="#F0ECED" stroke="#231F20" stroke-width="0.19" stroke-miterlimit="10"/>
<path d="M49.6084 48.834C49.6084 48.834 49.5604 48.786 49.5508 48.7764L49.618 48.8436L49.6084 48.834Z" fill="#F0ECED" stroke="#231F20" stroke-width="0.19" stroke-miterlimit="10"/>
<path d="M49.4453 45.0415L49.5509 44.9359C49.5509 44.9359 49.6085 44.9935 49.6181 45.0031C49.6277 45.0127 49.6181 45.0031 49.5605 45.0607L49.4453 45.0415Z" fill="#F0ECED" stroke="#231F20" stroke-width="0.19" stroke-miterlimit="10"/>
<path d="M59.6512 38.714C59.6695 38.7402 59.6922 38.763 59.7184 38.7812C59.7184 38.7812 59.6608 38.8389 59.6512 38.8485C59.6512 38.8485 59.632 38.7332 59.6512 38.714Z" fill="#F0ECED" stroke="#231F20" stroke-width="0.19" stroke-miterlimit="10"/>
<path d="M56.3291 40.8262C56.3291 40.8262 56.3291 40.8262 56.2715 40.8838C56.2139 40.9414 56.2715 40.8838 56.2235 40.9318L56.2715 40.8838L56.3291 40.8262Z" fill="#F0ECED"/>
<path d="M56.2715 40.8838C56.3291 40.8262 56.3291 40.8262 56.3291 40.8262L56.2715 40.8838ZM56.2715 40.8838C56.2139 40.9414 56.2715 40.8838 56.2235 40.9318L56.2715 40.8838Z" stroke="#231F20" stroke-width="0.19" stroke-miterlimit="10"/>
<path d="M53.3622 41.2965L53.439 41.2197C53.439 41.2197 53.439 41.2197 53.487 41.2677C53.535 41.3157 53.487 41.2677 53.439 41.3157C53.391 41.3637 53.4006 41.3349 53.3622 41.2965Z" fill="#F0ECED" stroke="#231F20" stroke-width="0.19" stroke-miterlimit="10"/>
<path d="M52.835 47.0479L52.8926 47.1055L52.835 47.1631V47.0479Z" fill="#F0ECED" stroke="#231F20" stroke-width="0.19" stroke-miterlimit="10"/>
<path d="M56.9248 36.9473L57.0016 37.0241C57.0016 37.0241 57.0016 37.0241 57.0496 37.0721C57.0496 37.0721 57.0016 37.0241 56.9248 36.9473Z" fill="#F0ECED" stroke="#231F20" stroke-width="0.19" stroke-miterlimit="10"/>
<path d="M56.2715 52.502L56.3195 52.4539C56.3195 52.4539 56.3003 52.4924 56.2715 52.502Z" fill="#F0ECED" stroke="#231F20" stroke-width="0.19" stroke-miterlimit="10"/>
<path d="M57.2319 44.6475L57.1935 44.513C57.2206 44.5302 57.2436 44.5531 57.2607 44.5802L57.2319 44.6475Z" fill="#F0ECED" stroke="#231F20" stroke-width="0.19" stroke-miterlimit="10"/>
</g>
<path d="M28.206 32.6742L29.1662 31.714C32.7313 28.1489 37.5667 26.146 42.6085 26.146C47.6504 26.146 52.4858 28.1489 56.0509 31.714C59.2069 34.8802 60.9767 39.17 60.9713 43.6405C60.9659 48.111 59.1857 52.3964 56.0221 55.555L52.0566 59.5205C48.8938 62.6833 44.6042 64.4601 40.1313 64.4601C35.6585 64.4601 31.3688 62.6833 28.206 59.5205C24.6409 55.9553 22.638 51.12 22.638 46.0781C22.638 41.0363 24.6409 36.2009 28.206 32.6358L28.206 32.6742Z" fill="white" stroke="#231F20" stroke-miterlimit="10"/>
</g>
<path d="M26.3527 25.2327C25.08 23.96 23.0165 23.96 21.7439 25.2327C20.4712 26.5054 20.4712 28.5688 21.7439 29.8415L25.4885 33.5862C26.7612 34.8589 28.8246 34.8589 30.0973 33.5862C31.37 32.3135 31.37 30.25 30.0973 28.9774L26.3527 25.2327Z" fill="#D4D4D4" stroke="#231F20" stroke-miterlimit="10"/>
<path d="M60.8229 55.6701C61.2896 55.2035 61.2896 54.4469 60.8229 53.9802C60.3563 53.5136 59.5997 53.5136 59.133 53.9802C58.6664 54.4469 58.6664 55.2035 59.133 55.6701C59.5997 56.1368 60.3563 56.1368 60.8229 55.6701Z" fill="#7FFF52" stroke="#231F20" stroke-width="0.5" stroke-miterlimit="10"/>
<path d="M64.1354 52.3576C64.6021 51.891 64.6021 51.1344 64.1354 50.6677C63.6688 50.2011 62.9122 50.2011 62.4455 50.6677C61.9789 51.1344 61.9789 51.891 62.4455 52.3576C62.9122 52.8243 63.6688 52.8243 64.1354 52.3576Z" fill="#7FFF52" stroke="#231F20" stroke-width="0.5" stroke-miterlimit="10"/>
<path d="M27.6104 52.9722C26.2661 51.0864 25.5291 48.8354 25.498 46.5198C25.498 42.6792 27.5143 38.2432 29.7803 38.1856C30.4332 38.2632 31.0479 38.5341 31.5457 38.9635C32.0436 39.3929 32.4018 39.9612 32.5744 40.5956C33.2849 43.0344 30.3276 44.4363 29.8283 47.5856C29.0218 52.6553 35.4837 56.8512 34.7444 57.7058C34.1779 58.3683 30.0876 56.5248 27.6104 52.9722Z" fill="#D9D9D9" stroke="#231F20" stroke-miterlimit="10"/>
</g>
<defs>
<clipPath id="clip0_454_22411">
<rect width="63.9155" height="55.8497" fill="white" transform="translate(0.351562 45.665) rotate(-45)"/>
</clipPath>
</defs>
</svg>
