<svg width="161" height="135" viewBox="0 0 161 135" fill="none" xmlns="http://www.w3.org/2000/svg">
<path d="M57.5779 49.19C49.3139 56.6566 44.0381 66.0112 44.1362 73.5492C44.2894 85.1433 57.1265 88.6171 68.7811 84.6509C87.0922 78.4165 96.4203 55.9414 96.8922 54.7889C105.532 33.6828 91.2017 22.9837 90.3561 22.387C78.4136 13.8722 57.2246 18.5291 41.3114 30.4686C17.9328 48.0008 8.83137 79.0132 16.6215 96.3983C25.9088 117.124 57.343 114.294 80.5991 101.578C98.9163 91.5657 110.32 76.0094 114.752 69.8731C133.032 44.5761 133.375 22.5566 133.269 16.8699" stroke="black" stroke-width="6" stroke-miterlimit="10" stroke-linecap="round"/>
<path d="M64.5347 67.1984C79.7984 58.3505 88.763 43.4093 87.0023 34.9599C84.9598 25.1333 68.9608 26.8395 58.2029 31.8152C41.8077 39.4002 28.7356 58.6795 27.3631 72.832C25.3757 93.4395 48.213 103.107 71.0156 93.6213C90.0109 85.7216 104 66.6487 109.637 52.1897C119.57 26.7026 106.351 6.90635 87.1862 3.53885C62.8129 -0.748161 24.9754 20.8851 3 56.2969" stroke="black" stroke-width="6" stroke-miterlimit="10" stroke-linecap="round"/>
<path d="M69.7548 64.1811C75.8302 58.4032 77.7033 50.5074 73.9385 46.5454C70.1737 42.5834 62.1966 44.0554 56.1212 49.8333C50.0458 55.6112 48.1726 63.507 51.9375 67.4691C55.7023 71.4311 63.6793 69.9591 69.7548 64.1811Z" fill="white" stroke="black" stroke-width="6" stroke-miterlimit="10"/>
<path d="M151.566 16.404C153.315 16.404 154.732 14.986 154.732 13.2368C154.732 11.4875 153.315 10.0695 151.566 10.0695C149.818 10.0695 148.4 11.4875 148.4 13.2368C148.4 14.986 149.818 16.404 151.566 16.404Z" fill="white" stroke="black" stroke-width="6" stroke-miterlimit="10"/>
<path d="M154.834 61.9714C156.583 61.9714 158 60.5534 158 58.8041C158 57.0549 156.583 55.6369 154.834 55.6369C153.086 55.6369 151.668 57.0549 151.668 58.8041C151.668 60.5534 153.086 61.9714 154.834 61.9714Z" fill="white" stroke="black" stroke-width="6" stroke-miterlimit="10"/>
<path d="M17.5774 8.8435C18.5362 8.8435 19.3135 8.06587 19.3135 7.10663C19.3135 6.14738 18.5362 5.36975 17.5774 5.36975C16.6185 5.36975 15.8412 6.14738 15.8412 7.10663C15.8412 8.06587 16.6185 8.8435 17.5774 8.8435Z" fill="white" stroke="black" stroke-width="6" stroke-miterlimit="10"/>
<path d="M11.2456 131.242C12.2044 131.242 12.9817 130.464 12.9817 129.505C12.9817 128.546 12.2044 127.768 11.2456 127.768C10.2868 127.768 9.50946 128.546 9.50946 129.505C9.50946 130.464 10.2868 131.242 11.2456 131.242Z" fill="white" stroke="black" stroke-width="6" stroke-miterlimit="10"/>
<path d="M9.61162 109.582C10.5705 109.582 11.3478 108.805 11.3478 107.845C11.3478 106.886 10.5705 106.108 9.61162 106.108C8.65278 106.108 7.87549 106.886 7.87549 107.845C7.87549 108.805 8.65278 109.582 9.61162 109.582Z" fill="white" stroke="black" stroke-width="6" stroke-miterlimit="10"/>
<path d="M117.15 95.4829C118.391 95.4829 119.397 94.4765 119.397 93.2351C119.397 91.9938 118.391 90.9874 117.15 90.9874C115.909 90.9874 114.903 91.9938 114.903 93.2351C114.903 94.4765 115.909 95.4829 117.15 95.4829Z" fill="white" stroke="black" stroke-width="6" stroke-miterlimit="10"/>
</svg>
