<svg width="727" height="686" viewBox="0 0 727 686" fill="none" xmlns="http://www.w3.org/2000/svg">
<path d="M726.999 475.989C727.014 482.987 725.643 489.919 722.968 496.385C720.292 502.851 716.364 508.723 711.409 513.665L651.378 573.696C641.383 583.688 627.828 589.3 613.695 589.298C599.562 589.296 586.009 583.68 576.017 573.685C566.025 563.69 560.412 550.136 560.414 536.003C560.416 521.87 566.032 508.316 576.027 498.324L589.12 485.231C592.508 481.945 594.473 477.461 594.594 472.742C594.601 469.571 593.979 466.429 592.764 463.5C591.549 460.57 589.766 457.91 587.517 455.674C587.101 455.258 586.664 454.841 586.226 454.467C581.966 450.948 576.538 449.16 571.021 449.457C565.503 449.754 560.299 452.114 556.44 456.069L341.128 671.194C331.065 680.824 317.632 686.131 303.704 685.979C289.777 685.826 276.462 680.227 266.612 670.38C256.762 660.532 251.159 647.219 251.003 633.292C250.847 619.365 256.15 605.93 265.777 595.864L317.274 544.367C318.785 542.856 319.984 541.061 320.802 539.086C321.62 537.111 322.041 534.994 322.041 532.856C322.041 529.683 321.416 526.54 320.202 523.608C318.987 520.676 317.207 518.011 314.963 515.767C314.589 515.393 314.235 515.059 313.839 514.726C309.632 511.078 304.196 509.165 298.631 509.374C293.066 509.582 287.788 511.898 283.866 515.85L234.763 564.953C229.814 569.901 223.939 573.825 217.473 576.502C211.008 579.18 204.078 580.557 197.08 580.556C190.082 580.555 183.153 579.176 176.688 576.497C170.223 573.818 164.349 569.892 159.402 564.943C154.454 559.994 150.53 554.119 147.852 547.653C145.175 541.188 143.798 534.258 143.799 527.26C143.8 520.262 145.179 513.333 147.858 506.868C150.537 500.403 154.463 494.529 159.412 489.582L337.943 311.05C341.31 307.69 343.204 303.13 343.21 298.374C343.21 293.759 341.889 289.241 339.403 285.353C336.917 281.465 333.369 278.37 329.18 276.435C325.306 274.749 321.011 274.283 316.865 275.097C312.72 275.911 308.92 277.968 305.971 280.993L128.397 458.484C123.476 463.551 117.597 467.589 111.102 470.363C104.606 473.138 97.6237 474.593 90.5606 474.645C83.4976 474.696 76.4947 473.343 69.9593 470.664C63.4238 467.985 57.4863 464.033 52.4918 459.039C47.4973 454.044 43.5456 448.107 40.8665 441.571C38.1873 435.036 36.8342 428.033 36.8859 420.97C36.9375 413.907 38.3928 406.924 41.1672 400.429C43.9415 393.933 47.9796 388.054 53.0465 383.133L137.931 298.207C140.773 295.419 142.447 291.653 142.614 287.675C142.74 284.279 142.144 280.895 140.866 277.746C139.642 274.763 137.838 272.053 135.558 269.774C133.544 267.623 130.982 266.061 128.148 265.257C123.614 263.905 118.798 263.815 114.217 264.996C109.636 266.177 105.464 268.584 102.149 271.959L91.5129 282.596C86.592 287.663 80.7128 291.701 74.2172 294.475C67.7216 297.25 60.7393 298.705 53.6762 298.757C46.6131 298.808 39.6103 297.455 33.0748 294.776C26.5394 292.097 20.6018 288.145 15.6073 283.151C10.6129 278.156 6.66116 272.219 3.98203 265.683C1.3029 259.148 -0.050196 252.145 0.00142313 245.082C0.0530423 238.019 1.50835 231.036 4.28271 224.541C7.05707 218.045 11.0951 212.166 16.1621 207.245L154.999 68.3873C159.948 63.4383 165.823 59.5126 172.289 56.8342C178.756 54.1558 185.686 52.7773 192.685 52.7773C199.684 52.7773 206.614 54.1558 213.08 56.8342C219.546 59.5126 225.422 63.4383 230.371 68.3873C235.32 73.3363 239.245 79.2115 241.924 85.6777C244.602 92.1438 245.981 99.0742 245.981 106.073C245.981 113.072 244.602 120.002 241.924 126.469C239.245 132.935 235.32 138.81 230.371 143.759L146.257 227.956C143.146 231.029 141.335 235.18 141.199 239.55V240.05C141.198 243.268 141.84 246.455 143.089 249.422C144.337 252.388 146.166 255.075 148.468 257.325C150.77 259.575 153.499 261.341 156.493 262.521C159.488 263.701 162.688 264.27 165.906 264.195C170.132 264.022 174.129 262.225 177.063 259.179L419.976 16.1621C424.897 11.0951 430.776 7.05707 437.272 4.28271C443.767 1.50835 450.75 0.0530423 457.813 0.00142313C464.876 -0.050196 471.879 1.3029 478.414 3.98203C484.949 6.66116 490.887 10.6129 495.881 15.6073C500.876 20.6018 504.828 26.5394 507.507 33.0748C510.186 39.6103 511.539 46.6131 511.487 53.6762C511.436 60.7393 509.98 67.7216 507.206 74.2172C504.432 80.7128 500.394 86.592 495.327 91.5129L346.082 240.737C343.261 243.558 341.674 247.383 341.669 251.373C341.665 254.548 342.287 257.692 343.502 260.624C344.716 263.557 346.499 266.221 348.746 268.462C349.184 268.9 349.642 269.337 350.12 269.732C354.522 273.332 360.114 275.15 365.791 274.826C371.468 274.503 376.817 272.061 380.781 267.984L420.663 228.102C430.669 218.118 444.231 212.518 458.366 212.534C472.501 212.549 486.051 218.179 496.034 228.185C506.018 238.191 511.618 251.753 511.603 265.888C511.587 280.023 505.957 293.573 495.951 303.557L325.267 474.241C322.173 477.35 320.43 481.553 320.417 485.939C320.413 489.113 321.037 492.257 322.251 495.19C323.466 498.122 325.247 500.786 327.494 503.028C327.931 503.465 328.368 503.861 328.826 504.256C333.145 507.8 338.637 509.594 344.215 509.282C349.793 508.969 355.05 506.574 358.946 502.57L632.707 228.893C642.702 218.901 656.257 213.288 670.389 213.29C684.522 213.292 698.076 218.908 708.068 228.903C718.06 238.898 723.673 252.453 723.671 266.586C723.669 280.719 718.052 294.272 708.058 304.265L597.737 414.689C594.811 417.615 593.164 421.582 593.158 425.721C593.153 428.895 593.776 432.039 594.99 434.972C596.205 437.905 597.987 440.569 600.235 442.81C600.672 443.247 601.13 443.664 601.588 444.059C605.948 447.638 611.494 449.449 617.126 449.133C622.759 448.817 628.067 446.397 631.999 442.352L635.267 439.084C655.978 418.373 689.782 417.228 710.847 437.586C715.99 442.566 720.073 448.537 722.849 455.136C725.624 461.736 727.036 468.83 726.999 475.989Z" fill="white"/>
<path d="M565.536 202.499C591.287 202.499 612.162 181.624 612.162 155.873C612.162 130.122 591.287 109.247 565.536 109.247C539.785 109.247 518.91 130.122 518.91 155.873C518.91 181.624 539.785 202.499 565.536 202.499Z" fill="white"/>
</svg>
