<svg width="272" height="78" viewBox="0 0 272 78" fill="none" xmlns="http://www.w3.org/2000/svg">
<path d="M39.076 75.3308C59.184 75.3308 75.4849 59.0633 75.4849 38.9962C75.4849 18.9292 59.184 2.66162 39.076 2.66162C18.9679 2.66162 2.66705 18.9292 2.66705 38.9962C2.66705 59.0633 18.9679 75.3308 39.076 75.3308Z" fill="#A157FF" stroke="black" stroke-width="7" stroke-miterlimit="10"/>
<path d="M136.004 75.3308C156.112 75.3308 172.413 59.0633 172.413 38.9962C172.413 18.9292 156.112 2.66162 136.004 2.66162C115.896 2.66162 99.5949 18.9292 99.5949 38.9962C99.5949 59.0633 115.896 75.3308 136.004 75.3308Z" fill="#A157FF" stroke="black" stroke-width="7" stroke-miterlimit="10"/>
<path d="M232.924 75.3308C253.032 75.3308 269.333 59.0633 269.333 38.9962C269.333 18.9292 253.032 2.66162 232.924 2.66162C212.816 2.66162 196.515 18.9292 196.515 38.9962C196.515 59.0633 212.816 75.3308 232.924 75.3308Z" fill="#A157FF" stroke="black" stroke-width="7" stroke-miterlimit="10"/>
</svg>
