<svg width="52" height="35" viewBox="0 0 52 35" fill="none" xmlns="http://www.w3.org/2000/svg">
<g clip-path="url(#clip0_19_55)">
<path d="M43.1407 0.341797H8.49786C3.88225 0.341797 0.140564 4.02941 0.140564 8.5783V26.5628C0.140564 31.1117 3.88225 34.7993 8.49786 34.7993H43.1407C47.7563 34.7993 51.498 31.1117 51.498 26.5628V8.5783C51.498 4.02941 47.7563 0.341797 43.1407 0.341797Z" fill="#7FFF52"/>
<mask id="mask0_19_55" style="mask-type:luminance" maskUnits="userSpaceOnUse" x="0" y="0" width="52" height="35">
<path d="M43.1407 0.341797H8.49786C3.88225 0.341797 0.140564 4.02941 0.140564 8.57831V26.5628C0.140564 31.1117 3.88225 34.7993 8.49786 34.7993H43.1407C47.7563 34.7993 51.498 31.1117 51.498 26.5628V8.57831C51.498 4.02941 47.7563 0.341797 43.1407 0.341797Z" fill="white"/>
</mask>
<g mask="url(#mask0_19_55)">
<path d="M25.8193 2.63965L-5.48593 39.1351L57.1245 39.5252L25.8193 2.63965Z" fill="#7FFF52" stroke="#231F20" stroke-width="4" stroke-miterlimit="10"/>
<path d="M30.2123 20.1139L56.8673 -3.23371L-5.48593 -3.88379L21.1723 19.4801C24.0318 21.9861 27.6069 21.9861 30.2123 20.1139Z" fill="#7FFF52" stroke="#231F20" stroke-width="4" stroke-miterlimit="10"/>
</g>
</g>
<defs>
<clipPath id="clip0_19_55">
<rect width="52" height="35" fill="white"/>
</clipPath>
</defs>
</svg>
