<svg width="11" height="6" viewBox="0 0 11 6" fill="none" xmlns="http://www.w3.org/2000/svg">
<path fill-rule="evenodd" clip-rule="evenodd" d="M10.8757 5.87412C10.8364 5.91402 10.7897 5.94568 10.7383 5.96728C10.687 5.98888 10.6319 6 10.5762 6C10.5206 6 10.4655 5.98888 10.4141 5.96728C10.3627 5.94568 10.316 5.91402 10.2767 5.87412L5.49989 1.03507L0.723065 5.87412C0.683734 5.91396 0.637041 5.94556 0.585652 5.96712C0.534264 5.98868 0.479185 5.99977 0.423562 5.99977C0.367939 5.99977 0.31286 5.98868 0.261472 5.96712C0.210083 5.94556 0.163389 5.91396 0.124058 5.87412C0.0847263 5.83429 0.0535279 5.78699 0.0322418 5.73494C0.0109558 5.68289 3.25991e-08 5.62711 3.75243e-08 5.57077C4.24495e-08 5.51443 0.0109559 5.45865 0.0322419 5.4066C0.0535279 5.35455 0.0847264 5.30726 0.124058 5.26742L5.20039 0.125876C5.23968 0.0859747 5.28636 0.0543179 5.33776 0.0327177C5.38915 0.0111179 5.44425 -4.85699e-07 5.49989 -4.80835e-07C5.55553 -4.75971e-07 5.61063 0.0111179 5.66202 0.0327177C5.71342 0.054318 5.7601 0.0859747 5.79939 0.125876L10.8757 5.26742C10.9151 5.30722 10.9464 5.3545 10.9677 5.40656C10.989 5.45861 11 5.51441 11 5.57077C11 5.62713 10.989 5.68293 10.9677 5.73499C10.9464 5.78704 10.9151 5.83432 10.8757 5.87412Z" fill="black"/>
</svg>
