<svg width="1432" height="632" viewBox="0 0 1432 632" fill="none" xmlns="http://www.w3.org/2000/svg">
<path d="M1298.75 215.547C1298.5 215.667 1298.4 215.965 1298.52 216.214C1298.64 216.463 1298.93 216.567 1299.18 216.447L1298.75 215.547ZM1299.18 216.447L1368.56 182.999L1368.12 182.098L1298.75 215.547L1299.18 216.447Z" fill="url(#paint0_linear_303_716)"/>
<path d="M1371.55 209.832C1371.31 209.953 1371.2 210.253 1371.32 210.501C1371.45 210.749 1371.74 210.852 1371.99 210.731L1371.55 209.832ZM1371.99 210.731L1517.22 139.732L1516.78 138.833L1371.55 209.832L1371.99 210.731Z" fill="url(#paint1_linear_303_716)"/>
<path d="M1197.14 137.036C1196.89 137.157 1196.79 137.457 1196.91 137.705C1197.03 137.953 1197.33 138.055 1197.58 137.934L1197.14 137.036ZM1197.58 137.934L1342.8 66.9353L1342.37 66.0369L1197.14 137.036L1197.58 137.934Z" fill="url(#paint2_linear_303_716)"/>
<path d="M1197.14 169.999C1196.89 170.12 1196.79 170.419 1196.91 170.667C1197.03 170.916 1197.33 171.019 1197.58 170.898L1197.14 169.999ZM1197.58 170.898L1358.85 92.292L1358.41 91.3931L1197.14 169.999L1197.58 170.898Z" fill="url(#paint3_linear_303_716)"/>
<path d="M1259.46 180.141C1259.21 180.262 1259.11 180.562 1259.23 180.81C1259.35 181.058 1259.65 181.161 1259.9 181.04L1259.46 180.141ZM1259.9 181.04L1421.17 102.435L1420.73 101.536L1259.46 180.141L1259.9 181.04Z" fill="url(#paint4_linear_303_716)"/>
<path d="M1164.21 58.4292C1163.96 58.55 1163.86 58.8493 1163.98 59.0976C1164.1 59.3459 1164.4 59.4492 1164.65 59.3284L1164.21 58.4292ZM1164.65 59.3284L1326.76 -19.5504L1326.32 -20.4496L1164.21 58.4292L1164.65 59.3284Z" fill="url(#paint5_linear_303_716)"/>
<path d="M1003.29 154.225C1003.04 154.345 1002.93 154.644 1003.05 154.893C1003.17 155.141 1003.47 155.246 1003.72 155.125L1003.29 154.225ZM1003.72 155.125L1096.02 110.528L1095.58 109.627L1003.29 154.225L1003.72 155.125Z" fill="url(#paint6_linear_303_716)"/>
<path d="M1028.26 219.581C1028.01 219.701 1027.91 220.001 1028.03 220.249C1028.15 220.497 1028.45 220.601 1028.69 220.48L1028.26 219.581ZM1028.69 220.48L1190.81 141.601L1190.37 140.702L1028.26 219.581L1028.69 220.48Z" fill="url(#paint7_linear_303_716)"/>
<path d="M1226.28 58.2153C1226.03 58.3353 1225.92 58.6342 1226.04 58.8829C1226.16 59.1316 1226.46 59.236 1226.71 59.116L1226.28 58.2153ZM1226.71 59.116L1315.29 16.3763L1314.85 15.4757L1226.28 58.2153L1226.71 59.116Z" fill="url(#paint8_linear_303_716)"/>
<path d="M1145.13 130.688C1144.88 130.809 1144.78 131.108 1144.9 131.356C1145.02 131.604 1145.32 131.708 1145.57 131.587L1145.13 130.688ZM1145.57 131.587L1267.59 72.1228L1267.16 71.2239L1145.13 130.688L1145.57 131.587Z" fill="url(#paint9_linear_303_716)"/>
<path d="M1073.1 61.9231C1072.85 62.0439 1072.75 62.3432 1072.87 62.5915C1072.99 62.8398 1073.29 62.9431 1073.54 62.8223L1073.1 61.9231ZM1073.54 62.8223L1235.65 -16.0565L1235.21 -16.9557L1073.1 61.9231L1073.54 62.8223Z" fill="url(#paint10_linear_303_716)"/>
<path d="M931.434 105.475C931.186 105.596 931.082 105.895 931.203 106.144C931.324 106.392 931.623 106.495 931.871 106.374L931.434 105.475ZM931.871 106.374L1093.99 27.4967L1093.55 26.5975L931.434 105.475L931.871 106.374Z" fill="url(#paint11_linear_303_716)"/>
<path d="M959.952 284.535C959.703 284.656 959.6 284.955 959.721 285.204C959.842 285.452 960.141 285.555 960.389 285.434L959.952 284.535ZM960.389 285.434L1122.5 206.556L1122.07 205.656L959.952 284.535L960.389 285.434Z" fill="url(#paint12_linear_303_716)"/>
<path d="M1101.14 248.386C1100.89 248.517 1100.8 248.82 1100.93 249.063C1101.06 249.306 1101.37 249.397 1101.61 249.266L1101.14 248.386ZM1101.61 249.266L1188.95 202.191L1188.47 201.31L1101.14 248.386L1101.61 249.266Z" fill="url(#paint13_linear_303_716)"/>
<path d="M1124.93 325.537C1124.69 325.668 1124.59 325.971 1124.73 326.214C1124.86 326.457 1125.16 326.549 1125.4 326.418L1124.93 325.537ZM1125.4 326.418L1278.23 244.432L1277.76 243.551L1124.93 325.537L1125.4 326.418Z" fill="url(#paint14_linear_303_716)"/>
<path d="M1113.94 291.827C1113.7 291.958 1113.61 292.261 1113.74 292.504C1113.87 292.748 1114.17 292.839 1114.41 292.709L1113.94 291.827ZM1114.41 292.709L1267.24 210.722L1266.77 209.841L1113.94 291.827L1114.41 292.709Z" fill="url(#paint15_linear_303_716)"/>
<path d="M1344.3 116.633C1344.06 116.764 1343.97 117.067 1344.1 117.31C1344.23 117.553 1344.53 117.645 1344.77 117.514L1344.3 116.633ZM1344.77 117.514L1497.6 35.5278L1497.13 34.6466L1344.3 116.633L1344.77 117.514Z" fill="url(#paint16_linear_303_716)"/>
<path d="M1196.1 520.97C1195.85 521.09 1195.74 521.389 1195.86 521.638C1195.98 521.886 1196.28 521.991 1196.53 521.871L1196.1 520.97ZM1196.53 521.871L1265.9 488.423L1265.47 487.522L1196.1 520.97L1196.53 521.871Z" fill="url(#paint17_linear_303_716)"/>
<path d="M1268.9 515.256C1268.65 515.377 1268.55 515.676 1268.67 515.925C1268.79 516.173 1269.09 516.275 1269.34 516.154L1268.9 515.256ZM1269.34 516.154L1414.57 445.155L1414.13 444.257L1268.9 515.256L1269.34 516.154Z" fill="url(#paint18_linear_303_716)"/>
<path d="M1094.48 442.459C1094.24 442.581 1094.13 442.88 1094.26 443.128C1094.38 443.376 1094.68 443.479 1094.92 443.358L1094.48 442.459ZM1094.92 443.358L1240.15 372.359L1239.71 371.46L1094.48 442.459L1094.92 443.358Z" fill="url(#paint19_linear_303_716)"/>
<path d="M1094.49 475.422C1094.24 475.543 1094.13 475.843 1094.25 476.091C1094.38 476.339 1094.68 476.442 1094.92 476.321L1094.49 475.422ZM1094.92 476.321L1256.19 397.716L1255.76 396.817L1094.49 475.422L1094.92 476.321Z" fill="url(#paint20_linear_303_716)"/>
<path d="M1156.81 485.565C1156.56 485.686 1156.46 485.985 1156.58 486.233C1156.7 486.482 1157 486.585 1157.25 486.464L1156.81 485.565ZM1157.25 486.464L1318.52 407.858L1318.08 406.959L1156.81 485.565L1157.25 486.464Z" fill="url(#paint21_linear_303_716)"/>
<path d="M1061.56 363.853C1061.31 363.974 1061.2 364.273 1061.33 364.521C1061.45 364.769 1061.75 364.873 1061.99 364.752L1061.56 363.853ZM1061.99 364.752L1224.11 285.873L1223.67 284.974L1061.56 363.853L1061.99 364.752Z" fill="url(#paint22_linear_303_716)"/>
<path d="M900.635 459.649C900.386 459.769 900.282 460.068 900.402 460.316C900.522 460.565 900.821 460.669 901.07 460.549L900.635 459.649ZM901.07 460.549L993.363 415.951L992.927 415.051L900.635 459.649L901.07 460.549Z" fill="url(#paint23_linear_303_716)"/>
<path d="M925.605 525.004C925.356 525.125 925.253 525.424 925.374 525.673C925.495 525.921 925.794 526.024 926.042 525.903L925.605 525.004ZM926.042 525.903L1088.16 447.025L1087.72 446.125L925.605 525.004L926.042 525.903Z" fill="url(#paint24_linear_303_716)"/>
<path d="M1123.62 363.639C1123.38 363.759 1123.27 364.058 1123.39 364.307C1123.51 364.555 1123.81 364.66 1124.06 364.54L1123.62 363.639ZM1124.06 364.54L1212.64 321.8L1212.2 320.899L1123.62 363.639L1124.06 364.54Z" fill="url(#paint25_linear_303_716)"/>
<path d="M1042.48 436.111C1042.23 436.232 1042.13 436.531 1042.25 436.78C1042.37 437.028 1042.67 437.131 1042.92 437.01L1042.48 436.111ZM1042.92 437.01L1164.94 377.546L1164.5 376.647L1042.48 436.111L1042.92 437.01Z" fill="url(#paint26_linear_303_716)"/>
<path d="M970.446 367.346C970.197 367.467 970.094 367.767 970.215 368.015C970.336 368.263 970.635 368.366 970.883 368.246L970.446 367.346ZM970.883 368.246L1133 289.367L1132.56 288.468L970.446 367.346L970.883 368.246Z" fill="url(#paint27_linear_303_716)"/>
<path d="M828.781 410.899C828.533 411.019 828.43 411.319 828.55 411.567C828.671 411.815 828.97 411.919 829.219 411.798L828.781 410.899ZM829.219 411.798L991.333 332.92L990.895 332.021L828.781 410.899L829.219 411.798Z" fill="url(#paint28_linear_303_716)"/>
<path d="M857.299 589.959C857.051 590.08 856.947 590.379 857.068 590.627C857.189 590.875 857.488 590.979 857.737 590.858L857.299 589.959ZM857.737 590.858L1019.85 511.979L1019.41 511.08L857.299 589.959L857.737 590.858Z" fill="url(#paint29_linear_303_716)"/>
<path d="M998.483 553.809C998.239 553.941 998.149 554.244 998.28 554.487C998.411 554.73 998.714 554.821 998.957 554.69L998.483 553.809ZM998.957 554.69L1086.29 507.614L1085.82 506.734L998.483 553.809L998.957 554.69Z" fill="url(#paint30_linear_303_716)"/>
<path d="M1022.28 630.961C1022.03 631.091 1021.94 631.394 1022.07 631.638C1022.2 631.881 1022.51 631.972 1022.75 631.842L1022.28 630.961ZM1022.75 631.842L1175.58 549.855L1175.1 548.974L1022.28 630.961L1022.75 631.842Z" fill="url(#paint31_linear_303_716)"/>
<path d="M1011.29 597.251C1011.04 597.382 1010.95 597.685 1011.08 597.928C1011.21 598.171 1011.52 598.263 1011.76 598.132L1011.29 597.251ZM1011.76 598.132L1164.59 516.146L1164.11 515.264L1011.29 597.251L1011.76 598.132Z" fill="url(#paint32_linear_303_716)"/>
<path d="M1241.65 422.057C1241.4 422.187 1241.31 422.49 1241.44 422.734C1241.57 422.977 1241.88 423.068 1242.12 422.938L1241.65 422.057ZM1242.12 422.938L1394.95 340.951L1394.47 340.07L1241.65 422.057L1242.12 422.938Z" fill="url(#paint33_linear_303_716)"/>
<path d="M1291.36 320.365C1344.18 267.547 1344.08 181.809 1291.14 128.865C1238.19 75.9201 1152.45 75.8174 1099.64 128.635C1046.82 181.453 1046.92 267.191 1099.86 320.135C1152.81 373.08 1238.55 373.183 1291.36 320.365Z" fill="white"/>
<mask id="mask0_303_716" style="mask-type:luminance" maskUnits="userSpaceOnUse" x="1060" y="89" width="271" height="271">
<path d="M1290.78 129.218C1343.53 181.968 1343.63 267.389 1291.01 320.011C1238.39 372.633 1152.97 372.532 1100.22 319.782C1047.47 267.032 1047.37 181.611 1099.99 128.989C1152.61 76.367 1238.03 76.4681 1290.78 129.218Z" fill="white" stroke="white"/>
</mask>
<g mask="url(#mask0_303_716)">
<path d="M1275.79 121.53C1278.22 121.665 1281.81 129.759 1278.99 134.805C1275.41 141.206 1264.97 136.573 1258.29 142.749C1251.03 149.464 1250.3 167.049 1260.46 177.795C1269.82 187.698 1285.69 188.871 1293.65 182.878C1301.61 176.884 1301.37 163.946 1305.56 164.027C1308.94 164.114 1310 172.465 1315.39 173.331C1318.38 173.809 1319.35 170.417 1322.29 170.684C1326.02 171.022 1327 176.218 1331.33 181.315C1335.98 186.776 1344.12 191.673 1347.8 189.83C1352.84 187.312 1350.79 171.571 1347.5 160.892C1336.48 125.232 1299.93 108.708 1296.46 107.206C1272.48 96.7761 1236.73 92.5464 1228.26 106.376C1223.46 114.206 1227.47 127.739 1231.45 128.631C1233.98 129.206 1235.97 124.526 1242.34 123.594C1245.51 123.13 1249.09 123.71 1249.33 124.854C1249.74 126.819 1239.79 127.844 1236.54 135.021C1234.92 138.617 1235.21 143.296 1237.05 144.293C1239.09 145.405 1242.51 141.849 1243.42 142.706C1244.67 143.897 1238.03 150.609 1239.98 154.119C1240.93 155.822 1243.94 156.852 1246.09 155.984C1251.79 153.693 1247.17 139.817 1254.03 135.288C1258.19 132.52 1261.69 136.438 1267.04 133.443C1273.5 129.842 1273.27 121.396 1275.79 121.53Z" fill="#A157FF" stroke="#6F15E1" stroke-width="1.5" stroke-miterlimit="10"/>
<path d="M1079.42 311.602C1083.91 315.17 1078.57 327.274 1081.91 328.952C1083.57 329.779 1085.28 327.046 1088.64 325.775C1097.82 322.289 1105.04 337.624 1116.26 335.717C1129.8 333.401 1133.38 320.137 1144.91 320.526C1156 320.899 1156.72 333.298 1170.77 336.483C1184.56 339.615 1190.51 329.165 1201.91 333.695C1211.7 337.578 1209.99 347.271 1219.97 350.371C1234.88 354.97 1251.78 345.206 1251.46 339.432C1251.16 333.966 1234.78 335.949 1230.56 324.895C1226.79 315.026 1235.09 306.129 1229.46 298.348C1225.79 293.294 1220.94 295.184 1216 288.419C1212.03 282.98 1213.72 279.759 1209.97 276.732C1205.13 272.827 1196.04 273.128 1192.27 277.421C1188.12 282.13 1191.53 290.345 1189.1 291.219C1187.2 291.906 1185.41 286.74 1180.97 284.471C1170.7 279.27 1149.68 291.22 1148.78 303.19C1148.38 308.482 1153.31 313.621 1151.27 315.584C1151.02 315.83 1150.33 316.345 1147.25 315.86C1142.7 315.14 1139.78 313.04 1136.75 311.674C1130.24 308.727 1126.47 306.238 1125.77 307.058C1124.73 308.294 1132.94 314.221 1131.45 319.099C1130.34 322.744 1124 325.235 1120.84 323.335C1115.93 320.38 1119.57 307.325 1119.76 306.698C1122.89 295.836 1129.39 294.488 1128.94 288.301C1128.36 280.551 1118.02 280.424 1115.82 271.649C1113.53 262.43 1123.7 257.812 1121.81 246.525C1120.99 241.553 1117.83 235.443 1112.23 233.415C1103.69 230.324 1092.77 237.974 1093.13 242.594C1093.44 246.452 1101.49 247.082 1101.99 251.457C1102.38 254.84 1097.99 258.239 1093.15 260.995C1089.15 257.947 1074.81 247.234 1065.09 251.895C1048.35 259.916 1054.75 308.949 1067.28 312.423C1071.7 313.652 1076.23 309.079 1079.42 311.602Z" fill="#A157FF" stroke="#6F15E1" stroke-width="1.5" stroke-miterlimit="10"/>
</g>
<path d="M1291.36 320.365C1344.18 267.547 1344.08 181.809 1291.14 128.865C1238.19 75.9201 1152.45 75.8174 1099.64 128.635C1046.82 181.453 1046.92 267.191 1099.86 320.135C1152.81 373.08 1238.55 373.183 1291.36 320.365Z" stroke="black" stroke-width="4" stroke-miterlimit="10"/>
<path d="M145.01 294.762C191.555 294.762 229.287 256.801 229.287 209.972C229.287 163.144 191.555 125.182 145.01 125.182C98.4646 125.182 60.7322 163.144 60.7322 209.972C60.7322 256.801 98.4646 294.762 145.01 294.762Z" fill="white" stroke="white" stroke-width="4" stroke-miterlimit="10"/>
<path d="M170.139 252.089C236.336 215.157 278.745 164.798 264.861 139.609C250.978 114.42 186.059 123.94 119.861 160.872C53.6637 197.804 11.255 248.163 25.1388 273.352C39.0225 298.541 103.941 289.021 170.139 252.089Z" stroke="#A157FF" stroke-width="5" stroke-miterlimit="10"/>
<path d="M415.634 176.75C437.523 176.75 455.268 158.897 455.268 136.875C455.268 114.853 437.523 97 415.634 97C393.745 97 376 114.853 376 136.875C376 158.897 393.745 176.75 415.634 176.75Z" fill="white" stroke="white" stroke-width="4" stroke-miterlimit="10"/>
<path d="M715.025 113.748C730.761 113.748 743.518 100.914 743.518 85.0821C743.518 69.2503 730.761 56.416 715.025 56.416C699.289 56.416 686.532 69.2503 686.532 85.0821C686.532 100.914 699.289 113.748 715.025 113.748Z" fill="white" stroke="white" stroke-width="4" stroke-miterlimit="10"/>
<path d="M723.521 99.3208C745.901 86.8347 760.239 69.8091 755.545 61.2932C750.851 52.7772 728.903 55.9957 706.523 68.4819C684.143 80.9681 669.805 97.9936 674.499 106.51C679.193 115.025 701.141 111.807 723.521 99.3208Z" stroke="#A157FF" stroke-width="3" stroke-miterlimit="10"/>
<path d="M732.391 94.9496C745.204 72.7553 748.786 50.7869 740.39 45.8817C731.994 40.9766 714.8 54.9921 701.986 77.1863C689.172 99.3806 685.591 121.349 693.987 126.254C702.383 131.159 719.577 117.144 732.391 94.9496Z" stroke="#A157FF" stroke-width="3" stroke-miterlimit="10"/>
<defs>
<linearGradient id="paint0_linear_303_716" x1="1333.65" y1="182.549" x2="1333.65" y2="215.997" gradientUnits="userSpaceOnUse">
<stop stop-color="#7FFF52" stop-opacity="0"/>
<stop offset="1" stop-color="#7FFF52"/>
</linearGradient>
<linearGradient id="paint1_linear_303_716" x1="1444.39" y1="139.282" x2="1444.39" y2="210.281" gradientUnits="userSpaceOnUse">
<stop stop-color="#7FFF52" stop-opacity="0"/>
<stop offset="1" stop-color="#7FFF52"/>
</linearGradient>
<linearGradient id="paint2_linear_303_716" x1="1269.97" y1="66.4861" x2="1269.97" y2="137.485" gradientUnits="userSpaceOnUse">
<stop stop-color="#7FFF52" stop-opacity="0"/>
<stop offset="1" stop-color="#7FFF52"/>
</linearGradient>
<linearGradient id="paint3_linear_303_716" x1="1277.99" y1="91.8425" x2="1277.99" y2="170.448" gradientUnits="userSpaceOnUse">
<stop stop-color="#7FFF52" stop-opacity="0"/>
<stop offset="1" stop-color="#7FFF52"/>
</linearGradient>
<linearGradient id="paint4_linear_303_716" x1="1340.31" y1="101.985" x2="1340.31" y2="180.591" gradientUnits="userSpaceOnUse">
<stop stop-color="#7FFF52" stop-opacity="0"/>
<stop offset="1" stop-color="#7FFF52"/>
</linearGradient>
<linearGradient id="paint5_linear_303_716" x1="1245.48" y1="-20" x2="1245.48" y2="58.8788" gradientUnits="userSpaceOnUse">
<stop stop-color="#7FFF52" stop-opacity="0"/>
<stop offset="1" stop-color="#7FFF52"/>
</linearGradient>
<linearGradient id="paint6_linear_303_716" x1="1049.65" y1="110.077" x2="1049.65" y2="154.675" gradientUnits="userSpaceOnUse">
<stop stop-color="#7FFF52" stop-opacity="0"/>
<stop offset="1" stop-color="#7FFF52"/>
</linearGradient>
<linearGradient id="paint7_linear_303_716" x1="1109.53" y1="141.151" x2="1109.53" y2="220.03" gradientUnits="userSpaceOnUse">
<stop stop-color="#7FFF52" stop-opacity="0"/>
<stop offset="1" stop-color="#7FFF52"/>
</linearGradient>
<linearGradient id="paint8_linear_303_716" x1="1270.78" y1="15.926" x2="1270.78" y2="58.6657" gradientUnits="userSpaceOnUse">
<stop stop-color="#7FFF52" stop-opacity="0"/>
<stop offset="1" stop-color="#7FFF52"/>
</linearGradient>
<linearGradient id="paint9_linear_303_716" x1="1206.36" y1="71.6733" x2="1206.36" y2="131.137" gradientUnits="userSpaceOnUse">
<stop stop-color="#7FFF52" stop-opacity="0"/>
<stop offset="1" stop-color="#7FFF52"/>
</linearGradient>
<linearGradient id="paint10_linear_303_716" x1="1154.37" y1="-16.5061" x2="1154.37" y2="62.3727" gradientUnits="userSpaceOnUse">
<stop stop-color="#7FFF52" stop-opacity="0"/>
<stop offset="1" stop-color="#7FFF52"/>
</linearGradient>
<linearGradient id="paint11_linear_303_716" x1="1012.71" y1="27.0471" x2="1012.71" y2="105.925" gradientUnits="userSpaceOnUse">
<stop stop-color="#7FFF52" stop-opacity="0"/>
<stop offset="1" stop-color="#7FFF52"/>
</linearGradient>
<linearGradient id="paint12_linear_303_716" x1="1041.23" y1="206.106" x2="1041.23" y2="284.985" gradientUnits="userSpaceOnUse">
<stop stop-color="#7FFF52" stop-opacity="0"/>
<stop offset="1" stop-color="#7FFF52"/>
</linearGradient>
<linearGradient id="paint13_linear_303_716" x1="1145.04" y1="201.75" x2="1145.04" y2="248.826" gradientUnits="userSpaceOnUse">
<stop stop-color="#7FFF52" stop-opacity="0"/>
<stop offset="1" stop-color="#7FFF52"/>
</linearGradient>
<linearGradient id="paint14_linear_303_716" x1="1201.58" y1="243.991" x2="1201.58" y2="325.978" gradientUnits="userSpaceOnUse">
<stop stop-color="#7FFF52" stop-opacity="0"/>
<stop offset="1" stop-color="#7FFF52"/>
</linearGradient>
<linearGradient id="paint15_linear_303_716" x1="1190.59" y1="210.281" x2="1190.59" y2="292.268" gradientUnits="userSpaceOnUse">
<stop stop-color="#7FFF52" stop-opacity="0"/>
<stop offset="1" stop-color="#7FFF52"/>
</linearGradient>
<linearGradient id="paint16_linear_303_716" x1="1420.95" y1="35.0872" x2="1420.95" y2="117.074" gradientUnits="userSpaceOnUse">
<stop stop-color="#7FFF52" stop-opacity="0"/>
<stop offset="1" stop-color="#7FFF52"/>
</linearGradient>
<linearGradient id="paint17_linear_303_716" x1="1231" y1="487.972" x2="1231" y2="521.421" gradientUnits="userSpaceOnUse">
<stop stop-color="#7FFF52" stop-opacity="0"/>
<stop offset="1" stop-color="#7FFF52"/>
</linearGradient>
<linearGradient id="paint18_linear_303_716" x1="1341.73" y1="444.706" x2="1341.73" y2="515.705" gradientUnits="userSpaceOnUse">
<stop stop-color="#7FFF52" stop-opacity="0"/>
<stop offset="1" stop-color="#7FFF52"/>
</linearGradient>
<linearGradient id="paint19_linear_303_716" x1="1167.32" y1="371.91" x2="1167.32" y2="442.909" gradientUnits="userSpaceOnUse">
<stop stop-color="#7FFF52" stop-opacity="0"/>
<stop offset="1" stop-color="#7FFF52"/>
</linearGradient>
<linearGradient id="paint20_linear_303_716" x1="1175.34" y1="397.266" x2="1175.34" y2="475.872" gradientUnits="userSpaceOnUse">
<stop stop-color="#7FFF52" stop-opacity="0"/>
<stop offset="1" stop-color="#7FFF52"/>
</linearGradient>
<linearGradient id="paint21_linear_303_716" x1="1237.66" y1="407.409" x2="1237.66" y2="486.014" gradientUnits="userSpaceOnUse">
<stop stop-color="#7FFF52" stop-opacity="0"/>
<stop offset="1" stop-color="#7FFF52"/>
</linearGradient>
<linearGradient id="paint22_linear_303_716" x1="1142.83" y1="285.424" x2="1142.83" y2="364.302" gradientUnits="userSpaceOnUse">
<stop stop-color="#7FFF52" stop-opacity="0"/>
<stop offset="1" stop-color="#7FFF52"/>
</linearGradient>
<linearGradient id="paint23_linear_303_716" x1="946.999" y1="415.501" x2="946.999" y2="460.099" gradientUnits="userSpaceOnUse">
<stop stop-color="#7FFF52" stop-opacity="0"/>
<stop offset="1" stop-color="#7FFF52"/>
</linearGradient>
<linearGradient id="paint24_linear_303_716" x1="1006.88" y1="446.575" x2="1006.88" y2="525.454" gradientUnits="userSpaceOnUse">
<stop stop-color="#7FFF52" stop-opacity="0"/>
<stop offset="1" stop-color="#7FFF52"/>
</linearGradient>
<linearGradient id="paint25_linear_303_716" x1="1168.13" y1="321.35" x2="1168.13" y2="364.089" gradientUnits="userSpaceOnUse">
<stop stop-color="#7FFF52" stop-opacity="0"/>
<stop offset="1" stop-color="#7FFF52"/>
</linearGradient>
<linearGradient id="paint26_linear_303_716" x1="1103.71" y1="377.097" x2="1103.71" y2="436.561" gradientUnits="userSpaceOnUse">
<stop stop-color="#7FFF52" stop-opacity="0"/>
<stop offset="1" stop-color="#7FFF52"/>
</linearGradient>
<linearGradient id="paint27_linear_303_716" x1="1051.72" y1="288.917" x2="1051.72" y2="367.796" gradientUnits="userSpaceOnUse">
<stop stop-color="#7FFF52" stop-opacity="0"/>
<stop offset="1" stop-color="#7FFF52"/>
</linearGradient>
<linearGradient id="paint28_linear_303_716" x1="910.057" y1="332.47" x2="910.057" y2="411.348" gradientUnits="userSpaceOnUse">
<stop stop-color="#7FFF52" stop-opacity="0"/>
<stop offset="1" stop-color="#7FFF52"/>
<stop offset="1" stop-color="#9543FE"/>
</linearGradient>
<linearGradient id="paint29_linear_303_716" x1="938.575" y1="511.53" x2="938.575" y2="590.408" gradientUnits="userSpaceOnUse">
<stop stop-color="#7FFF52" stop-opacity="0"/>
<stop offset="1" stop-color="#7FFF52"/>
</linearGradient>
<linearGradient id="paint30_linear_303_716" x1="1042.39" y1="507.174" x2="1042.39" y2="554.25" gradientUnits="userSpaceOnUse">
<stop stop-color="#7FFF52" stop-opacity="0"/>
<stop offset="1" stop-color="#7FFF52"/>
</linearGradient>
<linearGradient id="paint31_linear_303_716" x1="1098.93" y1="549.415" x2="1098.93" y2="631.401" gradientUnits="userSpaceOnUse">
<stop stop-color="#7FFF52" stop-opacity="0"/>
<stop offset="1" stop-color="#7FFF52"/>
</linearGradient>
<linearGradient id="paint32_linear_303_716" x1="1087.94" y1="515.705" x2="1087.94" y2="597.692" gradientUnits="userSpaceOnUse">
<stop stop-color="#7FFF52" stop-opacity="0"/>
<stop offset="1" stop-color="#7FFF52"/>
</linearGradient>
<linearGradient id="paint33_linear_303_716" x1="1318.3" y1="340.511" x2="1318.3" y2="422.497" gradientUnits="userSpaceOnUse">
<stop stop-color="#7FFF52" stop-opacity="0"/>
<stop offset="1" stop-color="#7FFF52"/>
</linearGradient>
</defs>
</svg>
