<svg width="130" height="188" viewBox="0 0 130 188" fill="none" xmlns="http://www.w3.org/2000/svg">
<path d="M140.812 140.812C166.693 114.93 166.643 72.9182 140.699 46.9748C114.756 21.0314 72.7436 20.981 46.8623 46.8623C20.981 72.7437 21.0313 114.756 46.9747 140.699C72.9182 166.643 114.93 166.693 140.812 140.812Z" fill="white"/>
<mask id="mask0_292_369" style="mask-type:luminance" maskUnits="userSpaceOnUse" x="27" y="27" width="134" height="134">
<path d="M140.346 47.3283C166.095 73.0773 166.143 114.773 140.458 140.458C114.773 166.144 73.0773 166.095 47.3283 140.346C21.5793 114.597 21.5306 72.9011 47.2158 47.2159C72.9011 21.5306 114.597 21.5794 140.346 47.3283Z" fill="white" stroke="white"/>
</mask>
<g mask="url(#mask0_292_369)">
<path d="M133.18 43.3808C134.372 43.4468 136.13 47.4128 134.749 49.8856C132.996 53.0221 127.876 50.752 124.606 53.778C121.05 57.0685 120.69 65.6855 125.667 70.9512C130.255 75.8038 138.029 76.3786 141.932 73.4418C145.835 70.5049 145.717 64.1649 147.768 64.2047C149.426 64.2474 149.945 68.3394 152.585 68.7637C154.051 68.9981 154.523 67.336 155.967 67.4668C157.794 67.6321 158.271 70.1785 160.395 72.6759C162.674 75.3518 166.662 77.7512 168.466 76.8482C170.934 75.6147 169.931 67.9014 168.318 62.6685C162.918 45.1946 145.006 37.0975 143.311 36.3618C131.557 31.251 114.041 29.1784 109.89 35.9549C107.539 39.792 109.502 46.423 111.452 46.8601C112.694 47.1419 113.668 44.8486 116.787 44.3921C118.344 44.1646 120.097 44.4487 120.213 45.0093C120.413 45.9725 115.538 46.4744 113.949 49.9915C113.153 51.7534 113.295 54.0463 114.197 54.5348C115.197 55.0795 116.874 53.3373 117.318 53.7574C117.932 54.3406 114.677 57.6298 115.633 59.3497C116.098 60.1841 117.573 60.6886 118.627 60.2636C121.419 59.1409 119.156 52.3414 122.517 50.1223C124.554 48.7661 126.273 50.6856 128.89 49.218C132.059 47.4538 131.943 43.3148 133.18 43.3808Z" fill="#A157FF" stroke="#6F15E1" stroke-width="2" stroke-miterlimit="10"/>
<path d="M36.9545 136.518C39.1577 138.267 36.5392 144.198 38.1791 145.02C38.988 145.425 39.8304 144.086 41.4737 143.463C45.9705 141.755 49.5087 149.269 55.0068 148.335C61.6409 147.2 63.396 140.701 69.0483 140.891C74.4798 141.074 74.8353 147.149 81.7188 148.71C88.4784 150.245 91.3917 145.124 96.9768 147.344C101.777 149.247 100.939 153.996 105.826 155.515C113.135 157.769 121.413 152.985 121.256 150.155C121.109 147.477 113.084 148.449 111.015 143.032C109.168 138.196 113.236 133.836 110.478 130.024C108.68 127.547 106.302 128.473 103.883 125.158C101.937 122.493 102.764 120.915 100.928 119.431C98.5562 117.518 94.1033 117.665 92.2546 119.769C90.2228 122.076 91.8903 126.102 90.7003 126.53C89.7683 126.867 88.8923 124.335 86.7154 123.224C81.6869 120.675 71.3867 126.531 70.942 132.396C70.7464 134.989 73.1627 137.508 72.1635 138.469C72.0431 138.59 71.702 138.842 70.1953 138.605C67.9667 138.252 66.5337 137.223 65.0503 136.554C61.8591 135.11 60.0115 133.89 59.6706 134.292C59.1568 134.897 63.1802 137.801 62.4528 140.192C61.9081 141.978 58.7999 143.198 57.2516 142.268C54.8467 140.819 56.6324 134.422 56.7221 134.115C58.2561 128.792 61.4431 128.132 61.2204 125.1C60.9373 121.303 55.8711 121.241 54.7943 116.941C53.6696 112.423 58.6567 110.16 57.7261 104.63C57.3258 102.194 55.7801 99.1993 53.0361 98.2059C48.8513 96.691 43.4975 100.44 43.6751 102.704C43.8252 104.594 47.7708 104.903 48.0179 107.047C48.2067 108.704 46.0552 110.37 43.6842 111.72C41.726 110.227 34.6987 104.977 29.9325 107.261C21.7308 111.191 24.8659 135.218 31.0091 136.92C33.1718 137.522 35.3957 135.282 36.9545 136.518Z" fill="#A157FF" stroke="#6F15E1" stroke-width="2" stroke-miterlimit="10"/>
</g>
<path d="M140.812 140.812C166.693 114.93 166.643 72.9182 140.699 46.9748C114.756 21.0314 72.7436 20.981 46.8623 46.8623C20.9809 72.7437 21.0313 114.756 46.9747 140.699C72.9182 166.643 114.93 166.693 140.812 140.812Z" stroke="black" stroke-width="4" stroke-miterlimit="10"/>
</svg>
