<svg width="1440" height="313" viewBox="0 0 1440 313" fill="none" xmlns="http://www.w3.org/2000/svg">
<path d="M1020.89 308.213L1021.53 308.138L1021.32 307.688L1020.89 308.213Z" fill="white" stroke="#7FFF52" stroke-width="0.5" stroke-miterlimit="10"/>
<path d="M1436.1 15.9224L1435.17 19.9123C1434.04 19.4244 1432.98 18.7964 1432 18.042C1431.81 17.8426 1432.45 16.1718 1433.07 15.5483C1433.27 15.309 1433.52 15.1239 1433.8 15.0092C1434.08 14.8946 1434.38 14.854 1434.68 14.891C1434.98 14.9279 1435.26 15.0413 1435.51 15.2212C1435.76 15.4011 1435.96 15.6419 1436.1 15.9224Z" fill="#7FFF52" stroke="#7FFF52" stroke-width="0.5" stroke-miterlimit="10"/>
<path d="M1372.04 101.208C1372.71 100.21 1373.26 99.0632 1373.49 99.138C1374.67 99.4859 1375.78 100.015 1376.8 100.709C1376.95 100.919 1377.04 101.163 1377.07 101.42C1377.11 101.676 1377.08 101.938 1376.99 102.18C1376.84 102.394 1376.65 102.565 1376.42 102.678C1376.19 102.791 1375.94 102.843 1375.68 102.829C1374.44 102.356 1373.23 101.815 1372.04 101.208Z" fill="#7FFF52" stroke="#7FFF52" stroke-width="0.5" stroke-miterlimit="10"/>
<path d="M1271.03 91.0083C1270.75 92.6791 1270.89 94.1006 1270.34 94.4746C1269.92 94.6798 1269.45 94.7626 1268.98 94.7143C1268.52 94.6661 1268.07 94.4886 1267.7 94.2003C1267.47 93.7733 1267.35 93.2926 1267.35 92.8038C1267.35 92.315 1267.47 91.8343 1267.7 91.4073C1268.2 90.9086 1269.51 91.1579 1271.03 91.0083Z" fill="#7FFF52" stroke="#7FFF52" stroke-width="0.5" stroke-miterlimit="10"/>
<path d="M850.515 95.0483C851.943 95.6967 852.896 95.8962 853.467 96.5196C853.548 96.8871 853.537 97.2699 853.437 97.632C853.337 97.9941 853.151 98.3237 852.896 98.5895C851.951 98.7653 850.983 98.7653 850.038 98.5895L850.515 95.0483Z" fill="#7FFF52" stroke="#7FFF52" stroke-width="0.5" stroke-miterlimit="10"/>
<path d="M1171.81 120.809C1173.21 121.432 1174.19 121.607 1174.74 122.205C1174.85 122.559 1174.87 122.938 1174.81 123.304C1174.74 123.671 1174.58 124.013 1174.36 124.3C1173.47 124.515 1172.56 124.565 1171.66 124.449L1171.81 120.809Z" fill="#7FFF52" stroke="#7FFF52" stroke-width="0.5" stroke-miterlimit="10"/>
<path d="M1117.83 31.0841C1118.23 29.8373 1118.25 28.9645 1118.68 28.5904C1119.71 27.6677 1120.64 28.2912 1121.06 29.3635C1121.28 29.937 1121.06 31.3335 1120.78 31.3834C1119.79 31.4145 1118.79 31.314 1117.83 31.0841Z" fill="#7FFF52" stroke="#7FFF52" stroke-width="0.5" stroke-miterlimit="10"/>
<path d="M981.17 116.968C982.337 117.342 983.551 117.567 983.551 117.766C983.554 118.649 983.314 119.515 982.861 120.26C982.67 120.534 981.003 120.26 980.956 119.985C980.915 118.974 980.987 117.962 981.17 116.968Z" fill="#7FFF52" stroke="#7FFF52" stroke-width="0.5" stroke-miterlimit="10"/>
<path d="M1075.13 133.551C1076.25 134.324 1077.35 134.723 1077.37 135.172C1077.27 136.142 1077.01 137.087 1076.61 137.965C1075.96 137.591 1074.94 137.317 1074.8 136.818C1074.74 135.717 1074.86 134.615 1075.13 133.551Z" fill="#7FFF52" stroke="#7FFF52" stroke-width="0.5" stroke-miterlimit="10"/>
<path d="M1216.17 1.73302C1216.36 0.627136 1216.73 -0.436017 1217.26 -1.40906C1217.6 -1.80806 1218.62 -1.58364 1219.36 -1.65845C1219.35 -0.611891 1219.21 0.428816 1218.93 1.43379C1218.79 1.75797 1217.57 1.60834 1216.17 1.73302Z" fill="#7FFF52" stroke="#7FFF52" stroke-width="0.5" stroke-miterlimit="10"/>
<path d="M885.066 6.87012C884.589 7.89255 884.327 9.11447 883.923 9.16434C883.042 9.16434 881.541 9.16437 881.279 8.49106C880.66 7.26914 881.756 6.49609 882.851 6.32153C883.614 6.36966 884.363 6.55522 885.066 6.87012Z" fill="#7FFF52" stroke="#7FFF52" stroke-width="0.5" stroke-miterlimit="10"/>
<path d="M869.254 195.495C869.516 194.548 869.54 193.525 869.921 193.326C870.302 193.126 871.255 193.476 871.921 193.575C871.778 194.298 871.802 195.221 871.398 195.645C870.993 196.069 870.207 195.595 869.254 195.495Z" fill="#7FFF52" stroke="#7FFF52" stroke-width="0.5" stroke-miterlimit="10"/>
<path d="M1052.61 223.475C1053.63 223.724 1054.53 223.675 1054.8 224.099C1055.06 224.522 1054.8 225.42 1054.8 226.118C1054.13 226.118 1053.22 226.268 1052.84 225.919C1052.46 225.57 1052.75 224.622 1052.61 223.475Z" fill="#7FFF52" stroke="#7FFF52" stroke-width="0.5" stroke-miterlimit="10"/>
<path d="M1259.27 198.513L1260.77 198.862L1260.1 200.732C1259.7 200.508 1259.03 200.358 1258.93 200.009C1258.84 199.66 1259.15 199.012 1259.27 198.513Z" fill="#7FFF52" stroke="#7FFF52" stroke-width="0.5" stroke-miterlimit="10"/>
<path d="M1024.03 28.8149C1024.47 27.9799 1024.98 27.1872 1025.56 26.4459C1025.75 26.2215 1026.39 26.4459 1026.84 26.4459C1026.53 27.3626 1026.17 28.2616 1025.77 29.1391C1025.18 29.1091 1024.6 29.0002 1024.03 28.8149Z" fill="#7FFF52" stroke="#7FFF52" stroke-width="0.5" stroke-miterlimit="10"/>
<path d="M1148.21 215.969L1150.09 216.094L1149.54 218.238L1147.38 217.615L1148.21 215.969Z" fill="#7FFF52" stroke="#7FFF52" stroke-width="0.5" stroke-miterlimit="10"/>
<path d="M955.382 207.815L955.667 206.618C956.018 206.789 956.36 206.98 956.69 207.191C956.712 207.433 956.644 207.674 956.5 207.865C956.127 207.885 955.752 207.868 955.382 207.815Z" fill="#7FFF52" stroke="#7FFF52" stroke-width="0.5" stroke-miterlimit="10"/>
<path d="M734.646 290.582L735.288 290.507L735.074 290.058L734.646 290.582Z" fill="white" stroke="#7FFF52" stroke-width="0.5" stroke-miterlimit="10"/>
<path d="M1153.88 4.62568L1152.88 8.59074C1151.77 8.09397 1150.72 7.45752 1149.76 6.69548C1149.54 6.49598 1150.21 4.82518 1150.85 4.20175C1151.05 3.96434 1151.3 3.7821 1151.59 3.67124C1151.87 3.56039 1152.17 3.52436 1152.47 3.5663C1152.77 3.60824 1153.06 3.72684 1153.3 3.91165C1153.55 4.09646 1153.74 4.34174 1153.88 4.62568Z" fill="#7FFF52" stroke="#7FFF52" stroke-width="0.5" stroke-miterlimit="10"/>
<path d="M1088.63 88.9137C1089.32 87.9411 1089.89 86.8189 1090.13 86.8688C1091.29 87.25 1092.38 87.7954 1093.39 88.4897C1093.54 88.7063 1093.63 88.9557 1093.65 89.2163C1093.68 89.4769 1093.65 89.741 1093.56 89.986C1093.41 90.1982 1093.21 90.3669 1092.98 90.4761C1092.76 90.5852 1092.5 90.6311 1092.25 90.6094C1091.01 90.1232 1089.8 89.5569 1088.63 88.9137Z" fill="#7FFF52" stroke="#7FFF52" stroke-width="0.5" stroke-miterlimit="10"/>
<path d="M987.766 77.2181C987.456 78.8889 987.575 80.3104 987.028 80.6844C986.604 80.8788 986.14 80.9534 985.68 80.9009C985.22 80.8484 984.782 80.6705 984.408 80.3851C984.198 79.9424 984.101 79.4503 984.126 78.9565C984.151 78.4628 984.297 77.9842 984.551 77.5673C984.932 77.0436 986.242 77.2181 987.766 77.2181Z" fill="#7FFF52" stroke="#7FFF52" stroke-width="0.5" stroke-miterlimit="10"/>
<path d="M567.249 74.8491C568.654 75.5224 569.63 75.722 570.178 76.3703C570.726 77.0187 569.988 78.2656 569.583 78.4152C568.638 78.59 567.671 78.59 566.725 78.4152L567.249 74.8491Z" fill="#7FFF52" stroke="#7FFF52" stroke-width="0.5" stroke-miterlimit="10"/>
<path d="M888.137 105.497C889.542 106.121 890.518 106.32 891.066 106.943C891.165 107.299 891.178 107.674 891.103 108.035C891.028 108.397 890.868 108.733 890.637 109.013C889.749 109.192 888.836 109.192 887.947 109.013L888.137 105.497Z" fill="#7FFF52" stroke="#7FFF52" stroke-width="0.5" stroke-miterlimit="10"/>
<path d="M835.418 14.8749C835.823 13.653 835.87 12.7552 836.299 12.3812C837.323 11.4585 838.275 12.1069 838.68 13.1792C838.894 13.7527 838.68 15.1492 838.371 15.1991C837.377 15.2205 836.385 15.1116 835.418 14.8749Z" fill="#7FFF52" stroke="#7FFF52" stroke-width="0.5" stroke-miterlimit="10"/>
<path d="M697.667 98.7639C698.809 99.138 700.048 99.3624 700.048 99.5868C700.04 100.476 699.783 101.343 699.31 102.081C699.119 102.355 697.452 102.081 697.428 101.781C697.386 100.769 697.466 99.7552 697.667 98.7639Z" fill="#7FFF52" stroke="#7FFF52" stroke-width="0.5" stroke-miterlimit="10"/>
<path d="M791.295 116.769C792.414 117.542 793.485 117.966 793.509 118.414C793.402 119.389 793.128 120.335 792.7 121.207C792.08 120.808 791.056 120.534 790.937 120.01C790.88 118.916 791.001 117.82 791.295 116.769Z" fill="#7FFF52" stroke="#7FFF52" stroke-width="0.5" stroke-miterlimit="10"/>
<path d="M584.632 175.571C584.894 174.623 584.918 173.601 585.322 173.401C585.727 173.202 586.632 173.576 587.323 173.7C587.156 174.399 587.18 175.321 586.751 175.745C586.322 176.169 585.537 175.671 584.632 175.571Z" fill="#7FFF52" stroke="#7FFF52" stroke-width="0.5" stroke-miterlimit="10"/>
<path d="M767.602 206.318C768.626 206.593 769.531 206.568 769.769 206.992C770.007 207.416 769.769 208.313 769.769 209.012C769.102 209.012 768.221 209.012 767.84 208.762C767.459 208.513 767.673 207.465 767.602 206.318Z" fill="#7FFF52" stroke="#7FFF52" stroke-width="0.5" stroke-miterlimit="10"/>
<path d="M974.527 184.448L976.003 184.797L975.312 186.668C974.907 186.443 974.265 186.269 974.169 185.944C974.074 185.62 974.384 185.022 974.527 184.448Z" fill="#7FFF52" stroke="#7FFF52" stroke-width="0.5" stroke-miterlimit="10"/>
<path d="M741.671 11.259C742.119 10.4307 742.637 9.64616 743.219 8.91493C743.409 8.6905 744.052 8.91493 744.504 8.91493C744.183 9.83134 743.817 10.7303 743.409 11.6082C742.819 11.5638 742.235 11.4466 741.671 11.259Z" fill="#7FFF52" stroke="#7FFF52" stroke-width="0.5" stroke-miterlimit="10"/>
<path d="M863.23 200.284H865.111L864.516 202.453L862.373 201.78L863.23 200.284Z" fill="#7FFF52" stroke="#7FFF52" stroke-width="0.5" stroke-miterlimit="10"/>
<path d="M670.521 189.186C670.521 188.787 670.735 188.388 670.854 188.014C671.207 188.166 671.542 188.358 671.853 188.588C671.875 188.83 671.806 189.071 671.663 189.261C671.281 189.274 670.899 189.249 670.521 189.186Z" fill="#7FFF52" stroke="#7FFF52" stroke-width="0.5" stroke-miterlimit="10"/>
<path d="M431.903 247.416L432.544 247.391L432.378 246.941L431.903 247.416Z" fill="white" stroke="#7FFF52" stroke-width="0.5" stroke-miterlimit="10"/>
<path d="M798.653 72.5549C799.391 71.6323 800.034 70.535 800.272 70.6098C801.401 71.0849 802.466 71.7137 803.439 72.4801C803.557 72.7099 803.62 72.967 803.62 73.2282C803.62 73.4895 803.557 73.7466 803.439 73.9764C803.277 74.1743 803.069 74.3261 802.836 74.4177C802.603 74.5093 802.352 74.5376 802.105 74.5C800.92 73.9211 799.767 73.2716 798.653 72.5549Z" fill="#7FFF52" stroke="#7FFF52" stroke-width="0.5" stroke-miterlimit="10"/>
<path d="M698.833 53.378C698.405 54.9989 698.429 56.4203 697.881 56.7694C697.44 56.9289 696.968 56.9668 696.509 56.8795C696.05 56.7921 695.621 56.5825 695.262 56.2707C695.088 55.8135 695.027 55.3177 695.085 54.8293C695.144 54.341 695.319 53.8761 695.595 53.4778C696 53.004 697.309 53.378 698.833 53.378Z" fill="#7FFF52" stroke="#7FFF52" stroke-width="0.5" stroke-miterlimit="10"/>
<path d="M279.531 19.8623C280.888 20.6354 281.912 20.9097 282.365 21.583C282.817 22.2563 282.031 23.4782 281.603 23.6029C280.654 23.7077 279.696 23.6402 278.769 23.4034L279.531 19.8623Z" fill="#7FFF52" stroke="#7FFF52" stroke-width="0.5" stroke-miterlimit="10"/>
<path d="M597.538 74.1758C598.895 74.9239 599.919 75.1733 600.371 75.8466C600.448 76.2103 600.435 76.5882 600.335 76.9455C600.235 77.3029 600.051 77.6281 599.8 77.8914C598.911 78.0641 597.998 78.0641 597.109 77.8914L597.538 74.1758Z" fill="#7FFF52" stroke="#7FFF52" stroke-width="0.5" stroke-miterlimit="10"/>
<path d="M407.996 53.3281C409.115 53.8019 410.377 54.1261 410.377 54.3256C410.321 55.233 410.005 56.1018 409.472 56.8193C409.258 57.0687 407.615 56.5949 407.591 56.3705C407.614 55.3434 407.75 54.3226 407.996 53.3281Z" fill="#7FFF52" stroke="#7FFF52" stroke-width="0.5" stroke-miterlimit="10"/>
<path d="M500.171 78.2405C501.219 79.1133 502.267 79.5871 502.243 80.0609C502.081 81.0223 501.75 81.9439 501.267 82.7791C500.671 82.3302 499.647 81.9811 499.576 81.4574C499.606 80.3584 499.807 79.2718 500.171 78.2405Z" fill="#7FFF52" stroke="#7FFF52" stroke-width="0.5" stroke-miterlimit="10"/>
<path d="M290.032 121.556C290.389 120.634 290.484 119.636 290.889 119.462C291.294 119.287 292.199 119.711 292.865 119.886C292.627 120.584 292.604 121.507 292.151 121.906C291.699 122.305 290.937 121.731 290.032 121.556Z" fill="#7FFF52" stroke="#7FFF52" stroke-width="0.5" stroke-miterlimit="10"/>
<path d="M470.478 165.82C471.478 166.169 472.383 166.219 472.597 166.643C472.811 167.067 472.597 167.965 472.43 168.663C471.787 168.663 470.883 168.663 470.525 168.289C470.168 167.915 470.454 166.992 470.478 165.82Z" fill="#7FFF52" stroke="#7FFF52" stroke-width="0.5" stroke-miterlimit="10"/>
<path d="M678.355 159.511L679.808 159.985L678.998 161.805C678.617 161.531 677.974 161.306 677.903 160.982C677.831 160.658 678.188 159.935 678.355 159.511Z" fill="#7FFF52" stroke="#7FFF52" stroke-width="0.5" stroke-miterlimit="10"/>
<path d="M566.273 166.992L568.154 167.266L567.416 169.386L565.32 168.538L566.273 166.992Z" fill="#7FFF52" stroke="#7FFF52" stroke-width="0.5" stroke-miterlimit="10"/>
<path d="M374.802 141.531C374.945 141.132 375.064 140.758 375.207 140.384C375.549 140.556 375.869 140.774 376.158 141.033C376.158 141.033 376.039 141.681 375.944 141.681C375.56 141.668 375.178 141.618 374.802 141.531Z" fill="#7FFF52" stroke="#7FFF52" stroke-width="0.5" stroke-miterlimit="10"/>
<path d="M76.9877 113.951L77.5818 114.126L77.558 113.626L76.9877 113.951Z" fill="white" stroke="#7FFF52" stroke-width="0.5" stroke-miterlimit="10"/>
<path d="M564.963 -1.53388L562.701 1.80771C561.802 0.935105 561.003 -0.0440198 560.32 -1.10995C560.201 -1.35932 561.391 -2.68097 562.153 -2.95528C562.417 -3.1314 562.719 -3.23399 563.032 -3.25326C563.344 -3.27254 563.655 -3.20789 563.937 -3.06544C564.218 -2.923 564.461 -2.70749 564.64 -2.43942C564.82 -2.17135 564.931 -1.85963 564.963 -1.53388Z" fill="#7FFF52" stroke="#7FFF52" stroke-width="0.5" stroke-miterlimit="10"/>
<path d="M475.812 53.7522C476.788 53.0789 477.693 52.231 477.883 52.3806C478.854 53.1434 479.712 54.0507 480.431 55.0738C480.499 55.3246 480.503 55.5894 480.445 55.8426C480.387 56.0959 480.267 56.3292 480.098 56.5202C479.887 56.6705 479.644 56.7628 479.39 56.789C479.136 56.8151 478.88 56.7742 478.645 56.6699C477.653 55.7496 476.707 54.7757 475.812 53.7522Z" fill="#7FFF52" stroke="#7FFF52" stroke-width="0.5" stroke-miterlimit="10"/>
<path d="M385.136 6.02214C384.303 7.49344 383.946 8.86498 383.303 9.0146C382.837 9.04091 382.372 8.93983 381.955 8.72123C381.537 8.50262 381.181 8.17401 380.922 7.76774C380.89 7.29177 380.971 6.81503 381.158 6.37993C381.345 5.94484 381.632 5.56489 381.993 5.27401C382.517 4.89995 383.66 5.5982 385.136 6.02214Z" fill="#7FFF52" stroke="#7FFF52" stroke-width="0.5" stroke-miterlimit="10"/>
<path d="M282.317 -3.72827C283.436 -2.60609 284.317 -2.05748 284.698 -1.23455C285.079 -0.411616 284.031 0.536017 283.603 0.536017C282.703 0.42282 281.831 0.135318 281.031 -0.311841L282.317 -3.72827Z" fill="#7FFF52" stroke="#7FFF52" stroke-width="0.5" stroke-miterlimit="10"/>
<path d="M135.85 46.9443C136.708 47.5678 137.589 47.892 137.684 48.3658C137.779 48.8396 137.255 49.6127 136.993 50.261C136.374 49.9618 135.493 49.8122 135.255 49.3134C135.017 48.8147 135.517 48.0416 135.85 46.9443Z" fill="#7FFF52" stroke="#7FFF52" stroke-width="0.5" stroke-miterlimit="10"/>
<path d="M337.084 101.831L338.37 102.729L337.084 104.225C336.798 103.851 336.227 103.452 336.274 103.103C336.322 102.754 336.798 102.155 337.084 101.831Z" fill="#7FFF52" stroke="#7FFF52" stroke-width="0.5" stroke-miterlimit="10"/>
<path d="M227.502 76.0959L229.24 76.9189L227.954 78.7144L226.169 77.3179L227.502 76.0959Z" fill="#7FFF52" stroke="#7FFF52" stroke-width="0.5" stroke-miterlimit="10"/>
</svg>
