<svg width="1422" height="632" viewBox="0 0 1422 632" fill="none" xmlns="http://www.w3.org/2000/svg">
<path d="M1288.75 215.547C1288.5 215.667 1288.4 215.965 1288.52 216.214C1288.64 216.463 1288.93 216.567 1289.18 216.447L1288.75 215.547ZM1289.18 216.447L1358.56 182.999L1358.12 182.098L1288.75 215.547L1289.18 216.447Z" fill="url(#paint0_linear_303_1165)"/>
<path d="M1361.55 209.832C1361.31 209.953 1361.2 210.253 1361.32 210.501C1361.45 210.749 1361.74 210.852 1361.99 210.731L1361.55 209.832ZM1361.99 210.731L1507.22 139.732L1506.78 138.833L1361.55 209.832L1361.99 210.731Z" fill="url(#paint1_linear_303_1165)"/>
<path d="M1187.14 137.036C1186.89 137.157 1186.79 137.457 1186.91 137.705C1187.03 137.953 1187.33 138.055 1187.58 137.934L1187.14 137.036ZM1187.58 137.934L1332.8 66.9353L1332.37 66.0369L1187.14 137.036L1187.58 137.934Z" fill="url(#paint2_linear_303_1165)"/>
<path d="M1187.14 169.999C1186.89 170.12 1186.79 170.419 1186.91 170.667C1187.03 170.916 1187.33 171.019 1187.58 170.898L1187.14 169.999ZM1187.58 170.898L1348.85 92.292L1348.41 91.3931L1187.14 169.999L1187.58 170.898Z" fill="url(#paint3_linear_303_1165)"/>
<path d="M1249.46 180.141C1249.21 180.262 1249.11 180.562 1249.23 180.81C1249.35 181.058 1249.65 181.161 1249.9 181.04L1249.46 180.141ZM1249.9 181.04L1411.17 102.435L1410.73 101.536L1249.46 180.141L1249.9 181.04Z" fill="url(#paint4_linear_303_1165)"/>
<path d="M1154.21 58.4292C1153.96 58.55 1153.86 58.8493 1153.98 59.0976C1154.1 59.3459 1154.4 59.4492 1154.65 59.3284L1154.21 58.4292ZM1154.65 59.3284L1316.76 -19.5504L1316.32 -20.4496L1154.21 58.4292L1154.65 59.3284Z" fill="url(#paint5_linear_303_1165)"/>
<path d="M993.287 154.225C993.039 154.345 992.934 154.644 993.055 154.893C993.175 155.141 993.474 155.246 993.722 155.125L993.287 154.225ZM993.722 155.125L1086.02 110.528L1085.58 109.627L993.287 154.225L993.722 155.125Z" fill="url(#paint6_linear_303_1165)"/>
<path d="M1018.26 219.581C1018.01 219.701 1017.91 220.001 1018.03 220.249C1018.15 220.497 1018.45 220.601 1018.69 220.48L1018.26 219.581ZM1018.69 220.48L1180.81 141.601L1180.37 140.702L1018.26 219.581L1018.69 220.48Z" fill="url(#paint7_linear_303_1165)"/>
<path d="M1216.28 58.2153C1216.03 58.3353 1215.92 58.6342 1216.04 58.8829C1216.16 59.1316 1216.46 59.236 1216.71 59.116L1216.28 58.2153ZM1216.71 59.116L1305.29 16.3763L1304.85 15.4757L1216.28 58.2153L1216.71 59.116Z" fill="url(#paint8_linear_303_1165)"/>
<path d="M1135.13 130.688C1134.88 130.809 1134.78 131.108 1134.9 131.356C1135.02 131.604 1135.32 131.708 1135.57 131.587L1135.13 130.688ZM1135.57 131.587L1257.59 72.1228L1257.16 71.2239L1135.13 130.688L1135.57 131.587Z" fill="url(#paint9_linear_303_1165)"/>
<path d="M1063.1 61.9231C1062.85 62.0439 1062.75 62.3432 1062.87 62.5915C1062.99 62.8398 1063.29 62.9431 1063.54 62.8223L1063.1 61.9231ZM1063.54 62.8223L1225.65 -16.0565L1225.21 -16.9557L1063.1 61.9231L1063.54 62.8223Z" fill="url(#paint10_linear_303_1165)"/>
<path d="M921.434 105.475C921.186 105.596 921.082 105.895 921.203 106.144C921.324 106.392 921.623 106.495 921.871 106.374L921.434 105.475ZM921.871 106.374L1083.99 27.4967L1083.55 26.5975L921.434 105.475L921.871 106.374Z" fill="url(#paint11_linear_303_1165)"/>
<path d="M949.952 284.535C949.703 284.656 949.6 284.955 949.721 285.204C949.842 285.452 950.141 285.555 950.389 285.434L949.952 284.535ZM950.389 285.434L1112.5 206.556L1112.07 205.656L949.952 284.535L950.389 285.434Z" fill="url(#paint12_linear_303_1165)"/>
<path d="M1091.14 248.386C1090.89 248.517 1090.8 248.82 1090.93 249.063C1091.06 249.306 1091.37 249.397 1091.61 249.266L1091.14 248.386ZM1091.61 249.266L1178.95 202.191L1178.47 201.31L1091.14 248.386L1091.61 249.266Z" fill="url(#paint13_linear_303_1165)"/>
<path d="M1114.93 325.537C1114.69 325.668 1114.59 325.971 1114.73 326.214C1114.86 326.457 1115.16 326.549 1115.4 326.418L1114.93 325.537ZM1115.4 326.418L1268.23 244.432L1267.76 243.551L1114.93 325.537L1115.4 326.418Z" fill="url(#paint14_linear_303_1165)"/>
<path d="M1103.94 291.827C1103.7 291.958 1103.61 292.261 1103.74 292.504C1103.87 292.748 1104.17 292.839 1104.41 292.709L1103.94 291.827ZM1104.41 292.709L1257.24 210.722L1256.77 209.841L1103.94 291.827L1104.41 292.709Z" fill="url(#paint15_linear_303_1165)"/>
<path d="M1334.3 116.633C1334.06 116.764 1333.97 117.067 1334.1 117.31C1334.23 117.553 1334.53 117.645 1334.77 117.514L1334.3 116.633ZM1334.77 117.514L1487.6 35.5278L1487.13 34.6466L1334.3 116.633L1334.77 117.514Z" fill="url(#paint16_linear_303_1165)"/>
<path d="M1186.1 520.97C1185.85 521.09 1185.74 521.389 1185.86 521.638C1185.98 521.886 1186.28 521.991 1186.53 521.871L1186.1 520.97ZM1186.53 521.871L1255.9 488.423L1255.47 487.522L1186.1 520.97L1186.53 521.871Z" fill="url(#paint17_linear_303_1165)"/>
<path d="M1258.9 515.256C1258.65 515.377 1258.55 515.676 1258.67 515.925C1258.79 516.173 1259.09 516.275 1259.34 516.154L1258.9 515.256ZM1259.34 516.154L1404.57 445.155L1404.13 444.257L1258.9 515.256L1259.34 516.154Z" fill="url(#paint18_linear_303_1165)"/>
<path d="M1084.48 442.459C1084.24 442.581 1084.13 442.88 1084.26 443.128C1084.38 443.376 1084.68 443.479 1084.92 443.358L1084.48 442.459ZM1084.92 443.358L1230.15 372.359L1229.71 371.46L1084.48 442.459L1084.92 443.358Z" fill="url(#paint19_linear_303_1165)"/>
<path d="M1084.49 475.422C1084.24 475.543 1084.13 475.843 1084.25 476.091C1084.38 476.339 1084.68 476.442 1084.92 476.321L1084.49 475.422ZM1084.92 476.321L1246.19 397.716L1245.76 396.817L1084.49 475.422L1084.92 476.321Z" fill="url(#paint20_linear_303_1165)"/>
<path d="M1146.81 485.565C1146.56 485.686 1146.46 485.985 1146.58 486.233C1146.7 486.482 1147 486.585 1147.25 486.464L1146.81 485.565ZM1147.25 486.464L1308.52 407.858L1308.08 406.959L1146.81 485.565L1147.25 486.464Z" fill="url(#paint21_linear_303_1165)"/>
<path d="M1051.56 363.853C1051.31 363.974 1051.2 364.273 1051.33 364.521C1051.45 364.769 1051.75 364.873 1051.99 364.752L1051.56 363.853ZM1051.99 364.752L1214.11 285.873L1213.67 284.974L1051.56 363.853L1051.99 364.752Z" fill="url(#paint22_linear_303_1165)"/>
<path d="M890.635 459.649C890.386 459.769 890.282 460.068 890.402 460.316C890.522 460.565 890.821 460.669 891.07 460.549L890.635 459.649ZM891.07 460.549L983.363 415.951L982.927 415.051L890.635 459.649L891.07 460.549Z" fill="url(#paint23_linear_303_1165)"/>
<path d="M915.605 525.004C915.356 525.125 915.253 525.424 915.374 525.673C915.495 525.921 915.794 526.024 916.042 525.903L915.605 525.004ZM916.042 525.903L1078.16 447.025L1077.72 446.125L915.605 525.004L916.042 525.903Z" fill="url(#paint24_linear_303_1165)"/>
<path d="M1113.62 363.639C1113.38 363.759 1113.27 364.058 1113.39 364.307C1113.51 364.555 1113.81 364.66 1114.06 364.54L1113.62 363.639ZM1114.06 364.54L1202.64 321.8L1202.2 320.899L1113.62 363.639L1114.06 364.54Z" fill="url(#paint25_linear_303_1165)"/>
<path d="M1032.48 436.111C1032.23 436.232 1032.13 436.531 1032.25 436.78C1032.37 437.028 1032.67 437.131 1032.92 437.01L1032.48 436.111ZM1032.92 437.01L1154.94 377.546L1154.5 376.647L1032.48 436.111L1032.92 437.01Z" fill="url(#paint26_linear_303_1165)"/>
<path d="M960.446 367.346C960.197 367.467 960.094 367.767 960.215 368.015C960.336 368.263 960.635 368.366 960.883 368.246L960.446 367.346ZM960.883 368.246L1123 289.367L1122.56 288.468L960.446 367.346L960.883 368.246Z" fill="url(#paint27_linear_303_1165)"/>
<path d="M818.781 410.899C818.533 411.019 818.43 411.319 818.55 411.567C818.671 411.815 818.97 411.919 819.219 411.798L818.781 410.899ZM819.219 411.798L981.333 332.92L980.895 332.021L818.781 410.899L819.219 411.798Z" fill="url(#paint28_linear_303_1165)"/>
<path d="M847.299 589.959C847.051 590.08 846.947 590.379 847.068 590.627C847.189 590.875 847.488 590.979 847.737 590.858L847.299 589.959ZM847.737 590.858L1009.85 511.979L1009.41 511.08L847.299 589.959L847.737 590.858Z" fill="url(#paint29_linear_303_1165)"/>
<path d="M988.483 553.809C988.239 553.941 988.149 554.244 988.28 554.487C988.411 554.73 988.714 554.821 988.957 554.69L988.483 553.809ZM988.957 554.69L1076.29 507.614L1075.82 506.734L988.483 553.809L988.957 554.69Z" fill="url(#paint30_linear_303_1165)"/>
<path d="M1012.28 630.961C1012.03 631.091 1011.94 631.394 1012.07 631.638C1012.2 631.881 1012.51 631.972 1012.75 631.842L1012.28 630.961ZM1012.75 631.842L1165.58 549.855L1165.1 548.974L1012.28 630.961L1012.75 631.842Z" fill="url(#paint31_linear_303_1165)"/>
<path d="M1001.29 597.251C1001.04 597.382 1000.95 597.685 1001.08 597.928C1001.21 598.171 1001.52 598.263 1001.76 598.132L1001.29 597.251ZM1001.76 598.132L1154.59 516.146L1154.11 515.264L1001.29 597.251L1001.76 598.132Z" fill="url(#paint32_linear_303_1165)"/>
<path d="M1231.65 422.057C1231.4 422.187 1231.31 422.49 1231.44 422.734C1231.57 422.977 1231.88 423.068 1232.12 422.938L1231.65 422.057ZM1232.12 422.938L1384.95 340.951L1384.47 340.07L1231.65 422.057L1232.12 422.938Z" fill="url(#paint33_linear_303_1165)"/>
<path d="M1281.36 320.365C1334.18 267.547 1334.08 181.809 1281.14 128.865C1228.19 75.9201 1142.45 75.8174 1089.64 128.635C1036.82 181.453 1036.92 267.191 1089.86 320.135C1142.81 373.08 1228.55 373.183 1281.36 320.365Z" fill="white"/>
<mask id="mask0_303_1165" style="mask-type:luminance" maskUnits="userSpaceOnUse" x="1050" y="89" width="271" height="271">
<path d="M1280.78 129.218C1333.53 181.968 1333.63 267.389 1281.01 320.011C1228.39 372.633 1142.97 372.532 1090.22 319.782C1037.47 267.032 1037.37 181.611 1089.99 128.989C1142.61 76.367 1228.03 76.4681 1280.78 129.218Z" fill="white" stroke="white"/>
</mask>
<g mask="url(#mask0_303_1165)">
<path d="M1265.79 121.53C1268.22 121.665 1271.81 129.759 1268.99 134.805C1265.41 141.206 1254.97 136.573 1248.29 142.749C1241.03 149.464 1240.3 167.049 1250.46 177.795C1259.82 187.698 1275.69 188.871 1283.65 182.878C1291.61 176.884 1291.37 163.946 1295.56 164.027C1298.94 164.114 1300 172.465 1305.39 173.331C1308.38 173.809 1309.35 170.417 1312.29 170.684C1316.02 171.022 1317 176.218 1321.33 181.315C1325.98 186.776 1334.12 191.673 1337.8 189.83C1342.84 187.312 1340.79 171.571 1337.5 160.892C1326.48 125.232 1289.93 108.708 1286.46 107.206C1262.48 96.7761 1226.73 92.5464 1218.26 106.376C1213.46 114.206 1217.47 127.739 1221.45 128.631C1223.98 129.206 1225.97 124.526 1232.34 123.594C1235.51 123.13 1239.09 123.71 1239.33 124.854C1239.74 126.819 1229.79 127.844 1226.54 135.021C1224.92 138.617 1225.21 143.296 1227.05 144.293C1229.09 145.405 1232.51 141.849 1233.42 142.706C1234.67 143.897 1228.03 150.609 1229.98 154.119C1230.93 155.822 1233.94 156.852 1236.09 155.984C1241.79 153.693 1237.17 139.817 1244.03 135.288C1248.19 132.52 1251.69 136.438 1257.04 133.443C1263.5 129.842 1263.27 121.396 1265.79 121.53Z" fill="#A157FF" stroke="#6F15E1" stroke-miterlimit="10"/>
<path d="M1069.42 311.602C1073.91 315.17 1068.57 327.274 1071.91 328.952C1073.57 329.779 1075.28 327.046 1078.64 325.775C1087.82 322.289 1095.04 337.624 1106.26 335.717C1119.8 333.401 1123.38 320.137 1134.91 320.526C1146 320.899 1146.72 333.298 1160.77 336.483C1174.56 339.615 1180.51 329.165 1191.91 333.695C1201.7 337.578 1199.99 347.271 1209.97 350.371C1224.88 354.97 1241.78 345.206 1241.46 339.432C1241.16 333.966 1224.78 335.949 1220.56 324.895C1216.79 315.026 1225.09 306.129 1219.46 298.348C1215.79 293.294 1210.94 295.184 1206 288.419C1202.03 282.98 1203.72 279.759 1199.97 276.732C1195.13 272.827 1186.04 273.128 1182.27 277.421C1178.12 282.13 1181.53 290.345 1179.1 291.219C1177.2 291.906 1175.41 286.74 1170.97 284.471C1160.7 279.27 1139.68 291.22 1138.78 303.19C1138.38 308.482 1143.31 313.621 1141.27 315.584C1141.02 315.83 1140.33 316.345 1137.25 315.86C1132.7 315.14 1129.78 313.04 1126.75 311.674C1120.24 308.727 1116.47 306.238 1115.77 307.058C1114.73 308.294 1122.94 314.221 1121.45 319.099C1120.34 322.744 1114 325.235 1110.84 323.335C1105.93 320.38 1109.57 307.325 1109.76 306.698C1112.89 295.836 1119.39 294.488 1118.94 288.301C1118.36 280.551 1108.02 280.424 1105.82 271.649C1103.53 262.43 1113.7 257.812 1111.81 246.525C1110.99 241.553 1107.83 235.443 1102.23 233.415C1093.69 230.324 1082.77 237.974 1083.13 242.594C1083.44 246.452 1091.49 247.082 1091.99 251.457C1092.38 254.84 1087.99 258.239 1083.15 260.995C1079.15 257.947 1064.81 247.234 1055.09 251.895C1038.35 259.916 1044.75 308.949 1057.28 312.423C1061.7 313.652 1066.23 309.079 1069.42 311.602Z" fill="#A157FF" stroke="#6F15E1" stroke-miterlimit="10"/>
</g>
<path d="M1281.36 320.365C1334.18 267.547 1334.08 181.809 1281.14 128.865C1228.19 75.9201 1142.45 75.8174 1089.64 128.635C1036.82 181.453 1036.92 267.191 1089.86 320.135C1142.81 373.08 1228.55 373.183 1281.36 320.365Z" stroke="black" stroke-width="4" stroke-miterlimit="10"/>
<path d="M145.01 329.762C191.555 329.762 229.287 291.801 229.287 244.972C229.287 198.144 191.555 160.182 145.01 160.182C98.4646 160.182 60.7322 198.144 60.7322 244.972C60.7322 291.801 98.4646 329.762 145.01 329.762Z" fill="white" stroke="white" stroke-width="4" stroke-miterlimit="10"/>
<path d="M170.139 287.089C236.336 250.157 278.745 199.798 264.861 174.609C250.978 149.42 186.059 158.94 119.861 195.872C53.6637 232.804 11.255 283.163 25.1388 308.352C39.0225 333.541 103.941 324.021 170.139 287.089Z" stroke="#A157FF" stroke-width="2" stroke-miterlimit="10"/>
<path d="M405.634 176.75C427.523 176.75 445.268 158.897 445.268 136.875C445.268 114.853 427.523 97 405.634 97C383.745 97 366 114.853 366 136.875C366 158.897 383.745 176.75 405.634 176.75Z" fill="white" stroke="white" stroke-width="4" stroke-miterlimit="10"/>
<path d="M705.025 113.748C720.761 113.748 733.518 100.914 733.518 85.0821C733.518 69.2503 720.761 56.416 705.025 56.416C689.289 56.416 676.532 69.2503 676.532 85.0821C676.532 100.914 689.289 113.748 705.025 113.748Z" fill="white" stroke="white" stroke-width="4" stroke-miterlimit="10"/>
<path d="M713.521 99.3208C735.901 86.8347 750.239 69.8091 745.545 61.2932C740.851 52.7772 718.903 55.9957 696.523 68.4819C674.143 80.9681 659.805 97.9936 664.499 106.51C669.193 115.025 691.141 111.807 713.521 99.3208Z" stroke="#A157FF" stroke-width="2" stroke-miterlimit="10"/>
<path d="M722.391 94.9496C735.204 72.7553 738.786 50.7869 730.39 45.8817C721.994 40.9766 704.8 54.9921 691.986 77.1863C679.172 99.3806 675.591 121.349 683.987 126.254C692.383 131.159 709.577 117.144 722.391 94.9496Z" stroke="#A157FF" stroke-width="2" stroke-miterlimit="10"/>
<defs>
<linearGradient id="paint0_linear_303_1165" x1="1323.65" y1="182.549" x2="1323.65" y2="215.997" gradientUnits="userSpaceOnUse">
<stop stop-color="#7FFF52" stop-opacity="0"/>
<stop offset="1" stop-color="#7FFF52"/>
</linearGradient>
<linearGradient id="paint1_linear_303_1165" x1="1434.39" y1="139.282" x2="1434.39" y2="210.281" gradientUnits="userSpaceOnUse">
<stop stop-color="#7FFF52" stop-opacity="0"/>
<stop offset="1" stop-color="#7FFF52"/>
</linearGradient>
<linearGradient id="paint2_linear_303_1165" x1="1259.97" y1="66.4861" x2="1259.97" y2="137.485" gradientUnits="userSpaceOnUse">
<stop stop-color="#7FFF52" stop-opacity="0"/>
<stop offset="1" stop-color="#7FFF52"/>
</linearGradient>
<linearGradient id="paint3_linear_303_1165" x1="1267.99" y1="91.8425" x2="1267.99" y2="170.448" gradientUnits="userSpaceOnUse">
<stop stop-color="#7FFF52" stop-opacity="0"/>
<stop offset="1" stop-color="#7FFF52"/>
</linearGradient>
<linearGradient id="paint4_linear_303_1165" x1="1330.31" y1="101.985" x2="1330.31" y2="180.591" gradientUnits="userSpaceOnUse">
<stop stop-color="#7FFF52" stop-opacity="0"/>
<stop offset="1" stop-color="#7FFF52"/>
</linearGradient>
<linearGradient id="paint5_linear_303_1165" x1="1235.48" y1="-20" x2="1235.48" y2="58.8788" gradientUnits="userSpaceOnUse">
<stop stop-color="#7FFF52" stop-opacity="0"/>
<stop offset="1" stop-color="#7FFF52"/>
</linearGradient>
<linearGradient id="paint6_linear_303_1165" x1="1039.65" y1="110.077" x2="1039.65" y2="154.675" gradientUnits="userSpaceOnUse">
<stop stop-color="#7FFF52" stop-opacity="0"/>
<stop offset="1" stop-color="#7FFF52"/>
</linearGradient>
<linearGradient id="paint7_linear_303_1165" x1="1099.53" y1="141.151" x2="1099.53" y2="220.03" gradientUnits="userSpaceOnUse">
<stop stop-color="#7FFF52" stop-opacity="0"/>
<stop offset="1" stop-color="#7FFF52"/>
</linearGradient>
<linearGradient id="paint8_linear_303_1165" x1="1260.78" y1="15.926" x2="1260.78" y2="58.6657" gradientUnits="userSpaceOnUse">
<stop stop-color="#7FFF52" stop-opacity="0"/>
<stop offset="1" stop-color="#7FFF52"/>
</linearGradient>
<linearGradient id="paint9_linear_303_1165" x1="1196.36" y1="71.6733" x2="1196.36" y2="131.137" gradientUnits="userSpaceOnUse">
<stop stop-color="#7FFF52" stop-opacity="0"/>
<stop offset="1" stop-color="#7FFF52"/>
</linearGradient>
<linearGradient id="paint10_linear_303_1165" x1="1144.37" y1="-16.5061" x2="1144.37" y2="62.3727" gradientUnits="userSpaceOnUse">
<stop stop-color="#7FFF52" stop-opacity="0"/>
<stop offset="1" stop-color="#7FFF52"/>
</linearGradient>
<linearGradient id="paint11_linear_303_1165" x1="1002.71" y1="27.0471" x2="1002.71" y2="105.925" gradientUnits="userSpaceOnUse">
<stop stop-color="#7FFF52" stop-opacity="0"/>
<stop offset="1" stop-color="#7FFF52"/>
</linearGradient>
<linearGradient id="paint12_linear_303_1165" x1="1031.23" y1="206.106" x2="1031.23" y2="284.985" gradientUnits="userSpaceOnUse">
<stop stop-color="#7FFF52" stop-opacity="0"/>
<stop offset="1" stop-color="#7FFF52"/>
</linearGradient>
<linearGradient id="paint13_linear_303_1165" x1="1135.04" y1="201.75" x2="1135.04" y2="248.826" gradientUnits="userSpaceOnUse">
<stop stop-color="#7FFF52" stop-opacity="0"/>
<stop offset="1" stop-color="#7FFF52"/>
</linearGradient>
<linearGradient id="paint14_linear_303_1165" x1="1191.58" y1="243.991" x2="1191.58" y2="325.978" gradientUnits="userSpaceOnUse">
<stop stop-color="#7FFF52" stop-opacity="0"/>
<stop offset="1" stop-color="#7FFF52"/>
</linearGradient>
<linearGradient id="paint15_linear_303_1165" x1="1180.59" y1="210.281" x2="1180.59" y2="292.268" gradientUnits="userSpaceOnUse">
<stop stop-color="#7FFF52" stop-opacity="0"/>
<stop offset="1" stop-color="#7FFF52"/>
</linearGradient>
<linearGradient id="paint16_linear_303_1165" x1="1410.95" y1="35.0872" x2="1410.95" y2="117.074" gradientUnits="userSpaceOnUse">
<stop stop-color="#7FFF52" stop-opacity="0"/>
<stop offset="1" stop-color="#7FFF52"/>
</linearGradient>
<linearGradient id="paint17_linear_303_1165" x1="1221" y1="487.972" x2="1221" y2="521.421" gradientUnits="userSpaceOnUse">
<stop stop-color="#7FFF52" stop-opacity="0"/>
<stop offset="1" stop-color="#7FFF52"/>
</linearGradient>
<linearGradient id="paint18_linear_303_1165" x1="1331.73" y1="444.706" x2="1331.73" y2="515.705" gradientUnits="userSpaceOnUse">
<stop stop-color="#7FFF52" stop-opacity="0"/>
<stop offset="1" stop-color="#7FFF52"/>
</linearGradient>
<linearGradient id="paint19_linear_303_1165" x1="1157.32" y1="371.91" x2="1157.32" y2="442.909" gradientUnits="userSpaceOnUse">
<stop stop-color="#7FFF52" stop-opacity="0"/>
<stop offset="1" stop-color="#7FFF52"/>
</linearGradient>
<linearGradient id="paint20_linear_303_1165" x1="1165.34" y1="397.266" x2="1165.34" y2="475.872" gradientUnits="userSpaceOnUse">
<stop stop-color="#7FFF52" stop-opacity="0"/>
<stop offset="1" stop-color="#7FFF52"/>
</linearGradient>
<linearGradient id="paint21_linear_303_1165" x1="1227.66" y1="407.409" x2="1227.66" y2="486.014" gradientUnits="userSpaceOnUse">
<stop stop-color="#7FFF52" stop-opacity="0"/>
<stop offset="1" stop-color="#7FFF52"/>
</linearGradient>
<linearGradient id="paint22_linear_303_1165" x1="1132.83" y1="285.424" x2="1132.83" y2="364.302" gradientUnits="userSpaceOnUse">
<stop stop-color="#7FFF52" stop-opacity="0"/>
<stop offset="1" stop-color="#7FFF52"/>
</linearGradient>
<linearGradient id="paint23_linear_303_1165" x1="936.999" y1="415.501" x2="936.999" y2="460.099" gradientUnits="userSpaceOnUse">
<stop stop-color="#7FFF52" stop-opacity="0"/>
<stop offset="1" stop-color="#7FFF52"/>
</linearGradient>
<linearGradient id="paint24_linear_303_1165" x1="996.88" y1="446.575" x2="996.88" y2="525.454" gradientUnits="userSpaceOnUse">
<stop stop-color="#7FFF52" stop-opacity="0"/>
<stop offset="1" stop-color="#7FFF52"/>
</linearGradient>
<linearGradient id="paint25_linear_303_1165" x1="1158.13" y1="321.35" x2="1158.13" y2="364.089" gradientUnits="userSpaceOnUse">
<stop stop-color="#7FFF52" stop-opacity="0"/>
<stop offset="1" stop-color="#7FFF52"/>
</linearGradient>
<linearGradient id="paint26_linear_303_1165" x1="1093.71" y1="377.097" x2="1093.71" y2="436.561" gradientUnits="userSpaceOnUse">
<stop stop-color="#7FFF52" stop-opacity="0"/>
<stop offset="1" stop-color="#7FFF52"/>
</linearGradient>
<linearGradient id="paint27_linear_303_1165" x1="1041.72" y1="288.917" x2="1041.72" y2="367.796" gradientUnits="userSpaceOnUse">
<stop stop-color="#7FFF52" stop-opacity="0"/>
<stop offset="1" stop-color="#7FFF52"/>
</linearGradient>
<linearGradient id="paint28_linear_303_1165" x1="900.057" y1="332.47" x2="900.057" y2="411.348" gradientUnits="userSpaceOnUse">
<stop stop-color="#7FFF52" stop-opacity="0"/>
<stop offset="1" stop-color="#7FFF52"/>
<stop offset="1" stop-color="#9543FE"/>
</linearGradient>
<linearGradient id="paint29_linear_303_1165" x1="928.575" y1="511.53" x2="928.575" y2="590.408" gradientUnits="userSpaceOnUse">
<stop stop-color="#7FFF52" stop-opacity="0"/>
<stop offset="1" stop-color="#7FFF52"/>
</linearGradient>
<linearGradient id="paint30_linear_303_1165" x1="1032.39" y1="507.174" x2="1032.39" y2="554.25" gradientUnits="userSpaceOnUse">
<stop stop-color="#7FFF52" stop-opacity="0"/>
<stop offset="1" stop-color="#7FFF52"/>
</linearGradient>
<linearGradient id="paint31_linear_303_1165" x1="1088.93" y1="549.415" x2="1088.93" y2="631.401" gradientUnits="userSpaceOnUse">
<stop stop-color="#7FFF52" stop-opacity="0"/>
<stop offset="1" stop-color="#7FFF52"/>
</linearGradient>
<linearGradient id="paint32_linear_303_1165" x1="1077.94" y1="515.705" x2="1077.94" y2="597.692" gradientUnits="userSpaceOnUse">
<stop stop-color="#7FFF52" stop-opacity="0"/>
<stop offset="1" stop-color="#7FFF52"/>
</linearGradient>
<linearGradient id="paint33_linear_303_1165" x1="1308.3" y1="340.511" x2="1308.3" y2="422.497" gradientUnits="userSpaceOnUse">
<stop stop-color="#7FFF52" stop-opacity="0"/>
<stop offset="1" stop-color="#7FFF52"/>
</linearGradient>
</defs>
</svg>
