<svg width="360" height="637" viewBox="0 0 360 637" fill="none" xmlns="http://www.w3.org/2000/svg">
<path d="M197.893 451.181C198.909 452.262 199.688 452.78 199.947 453.532C200.055 453.885 199.212 455.154 198.801 455.131C197.947 454.972 197.126 454.645 196.38 454.167L197.893 451.181Z" fill="#7FFF52" stroke="#7FFF52" stroke-miterlimit="10"/>
<path d="M266.712 165.079C265.818 165.634 264.857 166.053 263.858 166.325C263.577 166.325 262.799 165.102 262.95 164.82C263.111 164.508 263.334 164.24 263.604 164.037C263.874 163.833 264.182 163.699 264.507 163.644C265.004 163.621 265.545 164.303 266.712 165.079Z" fill="#7FFF52" stroke="#7FFF52" stroke-miterlimit="10"/>
<path d="M301.716 517.082C302.581 517.81 303.576 518.445 303.511 518.633C303.241 519.446 302.751 520.151 302.105 520.655C301.846 520.843 300.527 519.973 300.57 519.738C300.849 518.804 301.234 517.912 301.716 517.082Z" fill="#7FFF52" stroke="#7FFF52" stroke-miterlimit="10"/>
<path d="M331.553 376.299C332.086 375.481 332.719 374.746 333.434 374.113C333.607 373.971 334.731 374.865 334.796 375.382C334.795 375.742 334.712 376.096 334.553 376.413C334.395 376.729 334.166 376.997 333.888 377.193C333.434 377.381 332.699 376.769 331.553 376.299Z" fill="#7FFF52" stroke="#7FFF52" stroke-miterlimit="10"/>
<path d="M352.114 231.144L353.909 231.426C353.26 232.343 352.612 233.283 351.92 234.153C351.584 233.992 351.277 233.77 351.012 233.495C351.34 232.69 351.708 231.905 352.114 231.144Z" fill="#7FFF52" stroke="#7FFF52" stroke-miterlimit="10"/>
<path d="M172.921 335.555C173.289 334.638 173.397 333.768 173.829 333.486C174.262 333.204 175.386 333.157 175.645 333.486C175.811 333.663 175.929 333.886 175.987 334.131C176.045 334.375 176.04 334.633 175.973 334.875C175.907 335.117 175.78 335.334 175.608 335.504C175.436 335.673 175.225 335.789 174.997 335.837C174.499 335.908 173.829 335.555 172.921 335.555Z" fill="#7FFF52" stroke="#7FFF52" stroke-miterlimit="10"/>
<path d="M253.286 276.59L255.102 277.742C254.626 278.518 254.28 279.623 253.632 279.929C252.983 280.234 252.313 279.153 251.621 278.683L253.286 276.59Z" fill="#7FFF52" stroke="#7FFF52" stroke-miterlimit="10"/>
<path d="M254.756 385.962C254.042 386.691 253.437 387.678 253.091 387.561C252.313 387.349 251.124 386.667 251.059 386.056C250.907 384.763 252.075 384.457 253.048 384.692C253.61 384.928 254.064 385.421 254.756 385.962Z" fill="#7FFF52" stroke="#7FFF52" stroke-miterlimit="10"/>
<path d="M182.326 546.164C182.845 545.436 183.169 544.542 183.58 544.495C183.991 544.448 184.64 545.106 185.18 545.436C184.834 546 184.575 546.823 184.077 547.058C183.58 547.293 183.083 546.588 182.326 546.164Z" fill="#7FFF52" stroke="#7FFF52" stroke-miterlimit="10"/>
<path d="M328.85 636.164C329.629 636.751 330.429 637.057 330.515 637.504C330.602 637.95 330.126 638.679 329.888 639.291C329.326 639.008 328.526 638.867 328.31 638.397C328.094 637.927 328.548 637.198 328.85 636.164Z" fill="#7FFF52" stroke="#7FFF52" stroke-miterlimit="10"/>
<path d="M251.361 587.708L251.988 586.768C252.24 587.03 252.465 587.321 252.658 587.637C252.658 587.637 252.398 588.178 252.312 588.155C251.981 588.044 251.662 587.895 251.361 587.708Z" fill="#7FFF52" stroke="#7FFF52" stroke-miterlimit="10"/>
<path d="M24.062 533.61L24.6014 533.845L24.623 533.375L24.062 533.61Z" fill="white" stroke="#7FFF52" stroke-miterlimit="10"/>
<path d="M313.262 470.084C312.354 471.353 311.878 472.599 311.294 472.67C310.872 472.635 310.465 472.483 310.113 472.227C309.761 471.972 309.475 471.622 309.283 471.212C309.285 470.738 309.399 470.272 309.615 469.86C309.831 469.448 310.142 469.104 310.516 468.861C311.035 468.673 311.986 469.566 313.262 470.084Z" fill="#7FFF52" stroke="#7FFF52" stroke-miterlimit="10"/>
<path d="M75.887 2.26641C74.9377 2.6828 73.9416 2.95953 72.925 3.08928C72.6439 3.08928 72.0169 1.74917 72.1899 1.46704C72.3868 1.18131 72.641 0.948129 72.9332 0.785182C73.2255 0.622235 73.548 0.533808 73.8763 0.526611C74.4168 0.573633 74.8708 1.30247 75.887 2.26641Z" fill="#7FFF52" stroke="#7FFF52" stroke-miterlimit="10"/>
<path d="M224.379 96.2859C224.962 95.416 225.222 94.6167 225.741 94.264C226.692 93.6527 228.033 94.7812 227.903 96.1919C227.903 96.7561 227.038 97.7436 226.757 97.6731C225.906 97.3389 225.105 96.8716 224.379 96.2859Z" fill="#7FFF52" stroke="#7FFF52" stroke-miterlimit="10"/>
<path d="M221.654 448.407C222.541 449.582 223.276 450.194 223.449 450.946C223.622 451.698 222.649 452.521 222.281 452.498C221.507 452.257 220.776 451.875 220.119 451.369L221.654 448.407Z" fill="#7FFF52" stroke="#7FFF52" stroke-miterlimit="10"/>
<path d="M215.32 348.745C216.141 347.898 216.509 347.169 217.028 347.052C218.217 346.746 218.714 347.71 218.606 348.792C218.606 349.379 217.741 350.414 217.547 350.343C216.748 349.91 216 349.373 215.32 348.745Z" fill="#7FFF52" stroke="#7FFF52" stroke-miterlimit="10"/>
<path d="M70.8277 356.245C71.606 357.091 72.5141 357.867 72.4276 358.031C72.064 358.802 71.5002 359.44 70.8061 359.865C70.525 360.006 69.3358 358.972 69.3791 358.76C69.7662 357.861 70.2526 357.016 70.8277 356.245Z" fill="#7FFF52" stroke="#7FFF52" stroke-miterlimit="10"/>
<path d="M139.106 413.893C139.69 415.045 140.403 415.891 140.23 416.244C139.906 417.02 139.085 417.56 138.479 418.195C138.133 417.584 137.42 416.879 137.528 416.385C137.929 415.469 138.462 414.628 139.106 413.893Z" fill="#7FFF52" stroke="#7FFF52" stroke-miterlimit="10"/>
<path d="M296.679 127.273C296.808 126.803 296.808 126.168 297.09 125.91C297.825 125.275 299.252 126.262 299.554 127.72C299.582 127.957 299.557 128.198 299.482 128.423C299.407 128.648 299.283 128.85 299.122 129.013C298.279 129.718 297.09 128.848 296.679 127.273Z" fill="#7FFF52" stroke="#7FFF52" stroke-miterlimit="10"/>
<path d="M116.361 220.54C117.005 219.803 117.732 219.155 118.523 218.613C118.718 218.613 119.734 219.553 119.734 220.07C119.694 220.427 119.572 220.767 119.379 221.058C119.186 221.35 118.929 221.584 118.631 221.739C118.112 221.857 117.442 221.175 116.361 220.54Z" fill="#7FFF52" stroke="#7FFF52" stroke-miterlimit="10"/>
<path d="M153.225 79.2876L154.954 79.8048C154.198 80.6277 153.484 81.4741 152.792 82.1559C152.478 81.9435 152.194 81.6821 151.949 81.3801C152.342 80.6599 152.768 79.9616 153.225 79.2876Z" fill="#7FFF52" stroke="#7FFF52" stroke-miterlimit="10"/>
<path d="M49.942 111.121L51.6285 112.485C51.0663 113.19 50.5907 114.248 49.8988 114.46C49.2069 114.671 48.688 113.519 48.061 112.979L49.942 111.121Z" fill="#7FFF52" stroke="#7FFF52" stroke-miterlimit="10"/>
<path d="M304.376 295.845C303.878 296.645 303.641 297.421 303.165 297.773C302.954 297.876 302.721 297.916 302.49 297.888C302.26 297.86 302.041 297.766 301.855 297.615C301.67 297.464 301.525 297.261 301.436 297.029C301.347 296.796 301.317 296.542 301.349 296.292C301.426 295.957 301.576 295.648 301.787 295.39C301.998 295.132 302.263 294.933 302.56 294.811C303.014 294.717 303.619 295.375 304.376 295.845Z" fill="#7FFF52" stroke="#7FFF52" stroke-miterlimit="10"/>
<path d="M306.019 370.304C306.927 369.364 307.446 368.517 308.181 368.212C308.916 367.906 309.348 368.705 309.954 368.987C309.522 369.847 308.984 370.638 308.354 371.339C308.116 371.574 307.23 370.821 306.019 370.304Z" fill="#7FFF52" stroke="#7FFF52" stroke-miterlimit="10"/>
<path d="M220.206 236.316C219.514 236.316 218.606 236.692 218.238 236.316C217.693 235.653 217.327 234.84 217.179 233.965C217.179 233.8 217.871 233.119 218.109 233.189C218.718 233.338 219.266 233.702 219.665 234.224C219.99 234.874 220.23 235.57 220.379 236.293L220.206 236.316Z" fill="#7FFF52" stroke="#7FFF52" stroke-miterlimit="10"/>
<path d="M178.045 166.959C178.807 167.63 179.47 168.423 180.013 169.31C180.013 169.522 179.234 170.674 178.78 170.697C178.448 170.65 178.131 170.519 177.853 170.315C177.575 170.111 177.345 169.839 177.18 169.522C177.008 169.075 177.505 168.276 178.045 166.959Z" fill="#7FFF52" stroke="#7FFF52" stroke-miterlimit="10"/>
<path d="M39.1316 219.859C38.3316 220.493 37.6181 221.363 37.2938 221.222C36.5371 220.893 35.4561 220.07 35.4561 219.435C35.4561 218.142 36.6452 218.001 37.6181 218.377C38.0506 218.589 38.4397 219.224 39.1316 219.859Z" fill="#7FFF52" stroke="#7FFF52" stroke-miterlimit="10"/>
<path d="M314.84 206.011L316.786 207.892C316.332 208.409 315.943 209.255 315.424 209.349C315.117 209.32 314.823 209.202 314.572 209.008C314.321 208.813 314.123 208.55 313.997 208.244C313.889 207.656 314.451 206.928 314.84 206.011Z" fill="#7FFF52" stroke="#7FFF52" stroke-miterlimit="10"/>
<path d="M84.2542 478.077C84.9677 478.759 85.7028 479.159 85.746 479.605C85.7893 480.052 85.2272 480.734 84.9245 481.298C84.4056 480.945 83.6056 480.71 83.4542 480.217C83.3029 479.723 83.8434 478.971 84.2542 478.077Z" fill="#7FFF52" stroke="#7FFF52" stroke-miterlimit="10"/>
<path d="M259.664 553.899L260.702 554.863L259.404 556.133C259.166 555.733 258.712 555.31 258.777 554.981C258.842 554.652 259.426 554.205 259.664 553.899Z" fill="#7FFF52" stroke="#7FFF52" stroke-miterlimit="10"/>
<path d="M267.404 30.4792C267.793 31.0905 268.399 31.6548 268.42 32.219C268.442 32.7833 267.534 32.9714 267.058 33.3476C266.795 32.7052 266.592 32.0357 266.453 31.3491C266.431 31.1611 266.993 30.8554 267.404 30.4792Z" fill="#7FFF52" stroke="#7FFF52" stroke-miterlimit="10"/>
<path d="M141.225 303.04C141.907 302.542 142.631 302.117 143.387 301.77C143.647 301.77 144.057 302.17 144.403 302.381C143.776 302.969 143.149 303.604 142.457 304.145C142.393 304.192 141.917 303.674 141.225 303.04Z" fill="#7FFF52" stroke="#7FFF52" stroke-miterlimit="10"/>
<path d="M163.732 516.588L165.224 517.552L163.884 519.08L162.413 517.552L163.732 516.588Z" fill="#7FFF52" stroke="#7FFF52" stroke-miterlimit="10"/>
<path d="M12.8623 419.606L13.5753 418.76C13.8039 419.046 13.9997 419.362 14.1586 419.7C14.1586 419.7 13.8129 420.217 13.7481 420.17C13.4342 420.019 13.137 419.83 12.8623 419.606Z" fill="#7FFF52" stroke="#7FFF52" stroke-miterlimit="10"/>
</svg>
