<svg width="1440" height="826" viewBox="0 0 1440 826" fill="none" xmlns="http://www.w3.org/2000/svg">
<path d="M1175.45 824.487L1176.03 824.416L1175.84 823.992L1175.45 824.487Z" fill="white" stroke="#7FFF52" stroke-miterlimit="10"/>
<path d="M1402.58 619.707C1402.32 621.282 1402.45 622.623 1401.95 622.975C1401.57 623.169 1401.14 623.247 1400.72 623.201C1400.3 623.156 1399.89 622.988 1399.55 622.717C1399.35 622.314 1399.24 621.861 1399.24 621.4C1399.24 620.939 1399.35 620.486 1399.55 620.083C1400.01 619.613 1401.19 619.848 1402.58 619.707Z" fill="#7FFF52" stroke="#7FFF52" stroke-miterlimit="10"/>
<path d="M1020.76 623.516C1022.05 624.127 1022.92 624.315 1023.44 624.903C1023.51 625.249 1023.5 625.61 1023.41 625.952C1023.32 626.293 1023.15 626.604 1022.92 626.854C1022.06 627.02 1021.18 627.02 1020.32 626.854L1020.76 623.516Z" fill="#7FFF52" stroke="#7FFF52" stroke-miterlimit="10"/>
<path d="M1291.95 261.591C1292.42 262.602 1292.87 263.496 1293.29 264.413C1293.29 264.526 1293.27 264.639 1293.22 264.741C1293.18 264.843 1293.11 264.932 1293.03 265C1292.64 265.165 1291.88 265.376 1291.84 265.259C1291.33 264.19 1290.9 263.082 1290.54 261.944C1290.55 261.819 1290.58 261.698 1290.64 261.589C1290.7 261.48 1290.77 261.384 1290.86 261.309C1291.23 261.376 1291.59 261.47 1291.95 261.591Z" fill="#7FFF52" stroke="#7FFF52" stroke-miterlimit="10"/>
<path d="M989.881 329.725C989.263 330.613 988.535 331.404 987.719 332.076C987.481 332.218 986.357 331.348 986.378 331.042C986.432 330.69 986.554 330.355 986.737 330.059C986.919 329.763 987.158 329.513 987.438 329.326C987.827 329.02 988.54 329.443 989.881 329.725Z" fill="#7FFF52" stroke="#7FFF52" stroke-miterlimit="10"/>
<path d="M1161.59 336.167C1161.56 335.332 1161.67 334.497 1161.9 333.699C1162.46 332.641 1164.06 332.946 1164.66 334.24C1164.86 334.757 1164.66 336.05 1164.3 336.144C1163.4 336.294 1162.49 336.302 1161.59 336.167Z" fill="#7FFF52" stroke="#7FFF52" stroke-miterlimit="10"/>
<path d="M1312.48 647.803C1313.76 648.39 1314.65 648.555 1315.14 649.119C1315.25 649.453 1315.27 649.81 1315.21 650.155C1315.15 650.501 1315.01 650.824 1314.8 651.094C1314 651.297 1313.17 651.344 1312.36 651.235L1312.48 647.803Z" fill="#7FFF52" stroke="#7FFF52" stroke-miterlimit="10"/>
<path d="M1263.47 563.211C1263.84 562.035 1263.86 561.212 1264.25 560.86C1265.18 559.99 1266.02 560.578 1266.41 561.589C1266.61 562.129 1266.41 563.446 1266.15 563.493C1265.25 563.522 1264.35 563.427 1263.47 563.211Z" fill="#7FFF52" stroke="#7FFF52" stroke-miterlimit="10"/>
<path d="M1139.39 644.182C1140.45 644.535 1141.55 644.746 1141.55 644.934C1141.55 645.767 1141.34 646.583 1140.92 647.285C1140.75 647.544 1139.24 647.285 1139.19 647.027C1139.16 646.073 1139.22 645.119 1139.39 644.182Z" fill="#7FFF52" stroke="#7FFF52" stroke-miterlimit="10"/>
<path d="M1224.7 659.817C1225.72 660.545 1226.72 660.922 1226.74 661.345C1226.65 662.259 1226.41 663.15 1226.04 663.978C1225.46 663.625 1224.53 663.367 1224.4 662.896C1224.35 661.859 1224.45 660.819 1224.7 659.817Z" fill="#7FFF52" stroke="#7FFF52" stroke-miterlimit="10"/>
<path d="M1309.13 186.686C1309.72 186.411 1310.35 186.252 1310.99 186.216C1311.54 186.378 1312 186.766 1312.29 187.297C1312.29 187.438 1311.92 188.261 1311.6 188.402C1310.98 188.677 1310.3 188.79 1309.63 188.731C1309.41 188.707 1309.2 188.629 1309.01 188.503C1308.83 188.377 1308.67 188.205 1308.55 188.003C1308.46 187.72 1308.87 187.203 1309.13 186.686Z" fill="#7FFF52" stroke="#7FFF52" stroke-miterlimit="10"/>
<path d="M1390.73 402.726C1390.62 401.948 1390.62 401.154 1390.73 400.375C1391.08 399.505 1392.72 399.835 1393.04 400.916C1393.12 401.259 1393.12 401.617 1393.05 401.961C1392.97 402.304 1392.82 402.623 1392.61 402.891C1392.35 403.103 1391.49 402.773 1390.73 402.726Z" fill="#7FFF52" stroke="#7FFF52" stroke-miterlimit="10"/>
<path d="M1238.84 326.246C1238.84 325.776 1238.48 325.211 1238.63 324.835C1239 323.895 1240.64 324.036 1241.57 325.141C1241.69 325.337 1241.78 325.562 1241.81 325.798C1241.84 326.034 1241.83 326.276 1241.76 326.504C1241.24 327.586 1239.8 327.421 1238.84 326.246Z" fill="#7FFF52" stroke="#7FFF52" stroke-miterlimit="10"/>
<path d="M1120.51 501.189C1120.75 500.222 1121.09 499.291 1121.53 498.415C1121.66 498.227 1123 498.627 1123.24 499.073C1123.36 499.409 1123.41 499.775 1123.36 500.134C1123.31 500.493 1123.18 500.832 1122.98 501.119C1122.63 501.472 1121.75 501.189 1120.51 501.189Z" fill="#7FFF52" stroke="#7FFF52" stroke-miterlimit="10"/>
<path d="M1091.48 357.774L1093.23 357.327C1092.93 358.432 1092.64 359.561 1092.3 360.642C1091.93 360.623 1091.57 360.544 1091.22 360.407C1091.26 359.467 1091.39 358.55 1091.48 357.774Z" fill="#7FFF52" stroke="#7FFF52" stroke-miterlimit="10"/>
<path d="M1395.81 286.536C1396.1 285.794 1396.5 285.104 1396.98 284.491C1397.22 284.256 1397.8 284.491 1398.25 284.491C1398.25 285.172 1398.38 286.042 1398.06 286.466C1397.74 286.889 1396.94 286.513 1395.81 286.536Z" fill="#7FFF52" stroke="#7FFF52" stroke-miterlimit="10"/>
<path d="M959.006 525.406C959.006 524.395 958.877 523.548 959.179 523.054C959.482 522.561 960.541 522.138 960.887 522.373C961.081 522.481 961.245 522.64 961.366 522.837C961.486 523.034 961.559 523.26 961.576 523.496C961.593 523.731 961.555 523.968 961.465 524.183C961.375 524.397 961.235 524.584 961.06 524.724C960.65 525.241 959.936 525.194 959.006 525.406Z" fill="#7FFF52" stroke="#7FFF52" stroke-miterlimit="10"/>
<path d="M1014.42 438.98L1016.58 439.309C1016.39 440.226 1016.43 441.402 1015.93 441.942C1015.44 442.483 1014.44 441.731 1013.64 441.59L1014.42 438.98Z" fill="#7FFF52" stroke="#7FFF52" stroke-miterlimit="10"/>
<path d="M1318.84 470.766C1318.9 471.558 1318.83 472.355 1318.63 473.118C1318.48 473.295 1318.3 473.43 1318.09 473.51C1317.89 473.59 1317.66 473.613 1317.45 473.575C1317.23 473.538 1317.03 473.442 1316.86 473.296C1316.69 473.15 1316.55 472.959 1316.46 472.741C1316.4 472.405 1316.41 472.058 1316.48 471.725C1316.56 471.392 1316.7 471.081 1316.9 470.813C1317.22 470.484 1318.04 470.766 1318.84 470.766Z" fill="#7FFF52" stroke="#7FFF52" stroke-miterlimit="10"/>
<path d="M1352.76 535.539C1352.94 534.496 1353.27 533.494 1353.76 532.576C1354.06 532.2 1354.99 532.412 1355.66 532.341C1355.66 533.328 1355.53 534.309 1355.27 535.257C1355.14 535.562 1354.04 535.421 1352.76 535.539Z" fill="#7FFF52" stroke="#7FFF52" stroke-miterlimit="10"/>
<path d="M1423.12 515.014C1424.26 515.531 1425.28 515.672 1425.71 516.26C1426.15 516.848 1425.71 517.647 1425.58 518.376C1424.77 518.314 1423.97 518.09 1423.23 517.718C1422.9 517.576 1423.14 516.471 1423.12 515.014Z" fill="#7FFF52" stroke="#7FFF52" stroke-miterlimit="10"/>
<path d="M1218.85 461.668C1218.26 462.044 1217.61 462.796 1217.12 462.702C1216.36 462.391 1215.69 461.872 1215.17 461.198C1215.17 461.08 1215.41 460.069 1215.67 460.022C1216.25 459.798 1216.9 459.798 1217.48 460.022C1218.06 460.422 1218.58 460.913 1219.02 461.48L1218.85 461.668Z" fill="#7FFF52" stroke="#7FFF52" stroke-miterlimit="10"/>
<path d="M1151.52 422.24C1152.47 422.447 1153.39 422.787 1154.26 423.251C1154.46 423.416 1154.26 424.873 1153.77 425.132C1153.46 425.258 1153.12 425.304 1152.79 425.268C1152.46 425.231 1152.14 425.112 1151.86 424.92C1151.54 424.638 1151.67 423.674 1151.52 422.24Z" fill="#7FFF52" stroke="#7FFF52" stroke-miterlimit="10"/>
<path d="M1052.13 540.382C1051.69 541.346 1051.46 542.498 1051.09 542.545C1050.29 542.545 1048.93 542.545 1048.69 541.91C1048.13 540.758 1049.12 540.029 1050.12 539.865C1050.81 539.91 1051.49 540.085 1052.13 540.382Z" fill="#7FFF52" stroke="#7FFF52" stroke-miterlimit="10"/>
<path d="M1289.03 386.269L1291.56 386.927C1291.38 387.609 1291.4 388.549 1290.99 388.902C1290.71 389.032 1290.4 389.079 1290.09 389.038C1289.78 388.997 1289.49 388.869 1289.24 388.667C1288.9 388.173 1289.09 387.256 1289.03 386.269Z" fill="#7FFF52" stroke="#7FFF52" stroke-miterlimit="10"/>
<path d="M1037.77 718.217C1038.01 717.324 1038.03 716.36 1038.38 716.172C1038.72 715.984 1039.59 716.313 1040.19 716.407C1040.06 717.089 1040.08 717.959 1039.72 718.358C1039.35 718.758 1038.64 718.311 1037.77 718.217Z" fill="#7FFF52" stroke="#7FFF52" stroke-miterlimit="10"/>
<path d="M1204.25 744.596C1205.18 744.832 1206 744.785 1206.24 745.184C1206.48 745.584 1206.24 746.43 1206.24 747.089C1205.63 747.089 1204.81 747.23 1204.47 746.901C1204.12 746.571 1204.38 745.678 1204.25 744.596Z" fill="#7FFF52" stroke="#7FFF52" stroke-miterlimit="10"/>
<path d="M1391.9 721.062L1393.26 721.391L1392.65 723.155C1392.29 722.943 1391.68 722.802 1391.6 722.473C1391.51 722.144 1391.79 721.532 1391.9 721.062Z" fill="#7FFF52" stroke="#7FFF52" stroke-miterlimit="10"/>
<path d="M1170.85 256.043C1171.45 256.372 1172.23 256.56 1172.49 257.054C1172.75 257.547 1172.06 258.159 1171.78 258.746C1171.27 258.317 1170.81 257.837 1170.39 257.312C1170.26 257.148 1170.63 256.583 1170.85 256.043Z" fill="#7FFF52" stroke="#7FFF52" stroke-miterlimit="10"/>
<path d="M1178.31 561.071C1178.71 560.284 1179.17 559.537 1179.69 558.838C1179.86 558.626 1180.45 558.838 1180.86 558.838C1180.57 559.702 1180.25 560.55 1179.88 561.377C1179.35 561.349 1178.82 561.246 1178.31 561.071Z" fill="#7FFF52" stroke="#7FFF52" stroke-miterlimit="10"/>
<path d="M1291.06 737.52L1292.77 737.637L1292.27 739.659L1290.3 739.071L1291.06 737.52Z" fill="#7FFF52" stroke="#7FFF52" stroke-miterlimit="10"/>
<path d="M1115.97 729.832L1116.23 728.703C1116.55 728.864 1116.86 729.045 1117.16 729.244C1117.18 729.472 1117.12 729.699 1116.99 729.879C1116.65 729.898 1116.31 729.882 1115.97 729.832Z" fill="#7FFF52" stroke="#7FFF52" stroke-miterlimit="10"/>
<path d="M915.549 807.864L916.131 807.794L915.937 807.37L915.549 807.864Z" fill="white" stroke="#7FFF52" stroke-miterlimit="10"/>
<path d="M1296.2 538.266L1295.3 542.004C1294.29 541.536 1293.34 540.936 1292.46 540.217C1292.27 540.029 1292.87 538.454 1293.46 537.866C1293.64 537.642 1293.87 537.471 1294.13 537.366C1294.38 537.262 1294.66 537.228 1294.93 537.267C1295.2 537.307 1295.46 537.418 1295.68 537.593C1295.9 537.767 1296.08 537.998 1296.2 538.266Z" fill="#7FFF52" stroke="#7FFF52" stroke-miterlimit="10"/>
<path d="M1236.96 617.732C1237.59 616.815 1238.11 615.757 1238.33 615.804C1239.37 616.164 1240.37 616.678 1241.29 617.333C1241.42 617.537 1241.5 617.772 1241.52 618.018C1241.55 618.263 1241.52 618.512 1241.44 618.743C1241.3 618.943 1241.12 619.102 1240.91 619.205C1240.71 619.308 1240.48 619.351 1240.25 619.331C1239.12 618.873 1238.03 618.339 1236.96 617.732Z" fill="#7FFF52" stroke="#7FFF52" stroke-miterlimit="10"/>
<path d="M1145.38 606.706C1145.1 608.281 1145.2 609.621 1144.71 609.974C1144.32 610.157 1143.9 610.227 1143.48 610.178C1143.07 610.128 1142.67 609.961 1142.33 609.691C1142.14 609.274 1142.05 608.81 1142.07 608.345C1142.1 607.879 1142.23 607.428 1142.46 607.035C1142.8 606.541 1143.99 606.706 1145.38 606.706Z" fill="#7FFF52" stroke="#7FFF52" stroke-miterlimit="10"/>
<path d="M763.554 604.472C764.83 605.107 765.716 605.295 766.214 605.906C766.711 606.518 766.041 607.693 765.673 607.834C764.815 607.999 763.937 607.999 763.079 607.834L763.554 604.472Z" fill="#7FFF52" stroke="#7FFF52" stroke-miterlimit="10"/>
<path d="M1039.54 246.991C1040.02 247.978 1040.45 248.895 1040.84 249.812C1040.84 249.926 1040.82 250.038 1040.78 250.141C1040.73 250.243 1040.67 250.332 1040.58 250.4C1040.19 250.565 1039.44 250.776 1039.37 250.659C1038.9 249.564 1038.49 248.441 1038.14 247.297C1038.14 247.156 1038.38 246.662 1038.46 246.685C1038.83 246.747 1039.19 246.85 1039.54 246.991Z" fill="#7FFF52" stroke="#7FFF52" stroke-miterlimit="10"/>
<path d="M736.615 310.211C735.961 311.113 735.188 311.905 734.323 312.563C734.085 312.704 732.961 311.81 733.004 311.505C733.054 311.152 733.178 310.816 733.365 310.523C733.552 310.229 733.799 309.986 734.085 309.812C734.539 309.483 735.274 309.906 736.615 310.211Z" fill="#7FFF52" stroke="#7FFF52" stroke-miterlimit="10"/>
<path d="M908.198 319.381C908.19 318.535 908.307 317.694 908.544 316.888C909.127 315.854 910.706 316.183 911.289 317.5C911.506 318.017 911.289 319.31 910.922 319.404C910.017 319.525 909.101 319.517 908.198 319.381Z" fill="#7FFF52" stroke="#7FFF52" stroke-miterlimit="10"/>
<path d="M1054.92 633.367C1056.19 633.955 1057.08 634.143 1057.58 634.731C1057.67 635.065 1057.68 635.419 1057.61 635.76C1057.54 636.101 1057.4 636.418 1057.19 636.682C1056.38 636.85 1055.55 636.85 1054.74 636.682L1054.92 633.367Z" fill="#7FFF52" stroke="#7FFF52" stroke-miterlimit="10"/>
<path d="M1007.05 547.929C1007.42 546.777 1007.46 545.93 1007.85 545.578C1008.78 544.708 1009.64 545.319 1010.01 546.33C1010.2 546.871 1010.01 548.187 1009.73 548.234C1008.83 548.255 1007.93 548.152 1007.05 547.929Z" fill="#7FFF52" stroke="#7FFF52" stroke-miterlimit="10"/>
<path d="M881.971 627.019C883.009 627.372 884.134 627.583 884.134 627.795C884.127 628.633 883.894 629.451 883.463 630.146C883.29 630.405 881.777 630.146 881.755 629.864C881.717 628.909 881.789 627.954 881.971 627.019Z" fill="#7FFF52" stroke="#7FFF52" stroke-miterlimit="10"/>
<path d="M966.985 643.994C968.001 644.723 968.974 645.122 968.995 645.546C968.898 646.464 968.649 647.356 968.26 648.179C967.698 647.803 966.768 647.544 966.66 647.05C966.608 646.019 966.718 644.985 966.985 643.994Z" fill="#7FFF52" stroke="#7FFF52" stroke-miterlimit="10"/>
<path d="M1057.73 172.227C1058.33 171.973 1058.96 171.822 1059.61 171.78C1060.14 171.968 1060.6 172.361 1060.88 172.885C1060.88 173.026 1060.52 173.849 1060.17 173.99C1059.54 174.244 1058.87 174.348 1058.2 174.296C1057.98 174.271 1057.77 174.19 1057.59 174.059C1057.41 173.928 1057.25 173.751 1057.14 173.543C1057.04 173.261 1057.47 172.768 1057.73 172.227Z" fill="#7FFF52" stroke="#7FFF52" stroke-miterlimit="10"/>
<path d="M1136.43 389.537C1136.31 388.758 1136.31 387.964 1136.43 387.186C1136.77 386.316 1138.44 386.668 1138.74 387.75C1138.81 388.095 1138.8 388.452 1138.72 388.794C1138.64 389.135 1138.49 389.454 1138.29 389.725C1138.05 389.936 1137.23 389.607 1136.43 389.537Z" fill="#7FFF52" stroke="#7FFF52" stroke-miterlimit="10"/>
<path d="M985.492 310.658C985.492 310.188 985.146 309.624 985.297 309.248C985.665 308.307 987.33 308.495 988.238 309.624C988.361 309.821 988.441 310.047 988.471 310.284C988.501 310.52 988.48 310.761 988.411 310.987C988.043 312.045 986.53 311.857 985.492 310.658Z" fill="#7FFF52" stroke="#7FFF52" stroke-miterlimit="10"/>
<path d="M864.934 483.744C865.168 482.771 865.525 481.837 865.994 480.97C866.123 480.782 867.464 481.182 867.702 481.652C867.811 481.994 867.84 482.359 867.787 482.716C867.735 483.073 867.601 483.41 867.399 483.697C866.967 484.027 866.167 483.744 864.934 483.744Z" fill="#7FFF52" stroke="#7FFF52" stroke-miterlimit="10"/>
<path d="M837.822 339.859L839.573 339.459C839.27 340.564 838.968 341.669 838.6 342.75C838.23 342.723 837.866 342.636 837.519 342.492C837.579 341.609 837.68 340.73 837.822 339.859Z" fill="#7FFF52" stroke="#7FFF52" stroke-miterlimit="10"/>
<path d="M1143.09 273.441C1143.38 272.708 1143.78 272.027 1144.25 271.419C1144.51 271.184 1145.1 271.419 1145.53 271.419C1145.53 272.101 1145.53 272.994 1145.31 273.417C1145.1 273.84 1144.19 273.441 1143.09 273.441Z" fill="#7FFF52" stroke="#7FFF52" stroke-miterlimit="10"/>
<path d="M703.124 505.398C703.124 504.387 703.016 503.541 703.319 503.047C703.622 502.553 704.681 502.153 705.049 502.365C705.239 502.477 705.4 502.641 705.517 502.839C705.633 503.038 705.701 503.266 705.714 503.501C705.727 503.737 705.685 503.972 705.591 504.184C705.497 504.397 705.355 504.58 705.178 504.716C704.811 505.233 704.032 505.186 703.124 505.398Z" fill="#7FFF52" stroke="#7FFF52" stroke-miterlimit="10"/>
<path d="M759.684 419.842L761.846 420.218C761.63 421.135 761.673 422.287 761.154 422.828C760.636 423.369 759.663 422.593 758.992 422.428L759.684 419.842Z" fill="#7FFF52" stroke="#7FFF52" stroke-miterlimit="10"/>
<path d="M1063.72 456.448C1063.75 457.242 1063.66 458.037 1063.46 458.799C1063.31 458.976 1063.12 459.109 1062.91 459.185C1062.71 459.262 1062.48 459.28 1062.27 459.238C1062.05 459.195 1061.85 459.094 1061.68 458.943C1061.51 458.793 1061.38 458.598 1061.29 458.376C1061.22 458.044 1061.23 457.699 1061.3 457.368C1061.38 457.037 1061.52 456.73 1061.73 456.472C1062.03 456.237 1062.85 456.425 1063.72 456.448Z" fill="#7FFF52" stroke="#7FFF52" stroke-miterlimit="10"/>
<path d="M1096.69 521.738C1096.88 520.702 1097.23 519.708 1097.73 518.799C1098.03 518.423 1098.98 518.634 1099.63 518.587C1099.62 519.568 1099.48 520.541 1099.22 521.479C1099.09 521.808 1097.98 521.644 1096.69 521.738Z" fill="#7FFF52" stroke="#7FFF52" stroke-miterlimit="10"/>
<path d="M1167.32 502.435C1168.24 502.69 1169.11 503.12 1169.9 503.705C1170.2 504.058 1169.9 505.092 1169.74 505.821C1168.93 505.743 1168.13 505.504 1167.39 505.116C1167.06 504.881 1167.32 503.776 1167.32 502.435Z" fill="#7FFF52" stroke="#7FFF52" stroke-miterlimit="10"/>
<path d="M963.785 445.751C963.201 446.127 962.531 446.88 962.055 446.762C961.291 446.454 960.618 445.925 960.109 445.234C960.001 445.234 960.368 444.129 960.628 444.058C961.231 443.89 961.869 443.94 962.444 444.199C963.014 444.617 963.524 445.124 963.957 445.704L963.785 445.751Z" fill="#7FFF52" stroke="#7FFF52" stroke-miterlimit="10"/>
<path d="M896.998 405.289C897.947 405.5 898.865 405.856 899.722 406.347C899.762 406.679 899.737 407.016 899.647 407.337C899.558 407.657 899.406 407.953 899.203 408.204C898.891 408.327 898.557 408.369 898.227 408.328C897.897 408.288 897.58 408.165 897.301 407.969C896.955 407.687 897.236 406.723 896.998 405.289Z" fill="#7FFF52" stroke="#7FFF52" stroke-miterlimit="10"/>
<path d="M796.029 521.832C795.575 522.796 795.315 523.924 794.969 523.971C794.169 523.971 792.807 523.854 792.569 523.313C792.029 522.161 793.024 521.432 794.018 521.291C794.71 521.358 795.388 521.54 796.029 521.832Z" fill="#7FFF52" stroke="#7FFF52" stroke-miterlimit="10"/>
<path d="M1034.96 371.598L1037.49 372.28C1037.3 372.962 1037.3 373.926 1036.88 374.278C1036.6 374.398 1036.29 374.435 1035.99 374.385C1035.68 374.336 1035.4 374.202 1035.15 373.996C1034.81 373.385 1035 372.468 1034.96 371.598Z" fill="#7FFF52" stroke="#7FFF52" stroke-miterlimit="10"/>
<path d="M779.338 699.432C779.575 698.539 779.597 697.575 779.965 697.387C780.332 697.199 781.154 697.551 781.781 697.669C781.629 698.327 781.651 699.197 781.262 699.597C780.873 699.996 780.159 699.526 779.338 699.432Z" fill="#7FFF52" stroke="#7FFF52" stroke-miterlimit="10"/>
<path d="M945.472 728.421C946.401 728.68 947.223 728.656 947.439 729.056C947.655 729.455 947.439 730.302 947.439 730.96C946.834 730.96 946.034 730.96 945.688 730.725C945.342 730.49 945.537 729.502 945.472 728.421Z" fill="#7FFF52" stroke="#7FFF52" stroke-miterlimit="10"/>
<path d="M1133.36 707.802L1134.7 708.131L1134.07 709.895C1133.7 709.683 1133.12 709.518 1133.03 709.213C1132.95 708.907 1133.23 708.343 1133.36 707.802Z" fill="#7FFF52" stroke="#7FFF52" stroke-miterlimit="10"/>
<path d="M918.532 239.397C919.138 239.75 919.916 239.938 920.154 240.432C920.392 240.925 919.7 241.537 919.44 242.101C918.938 241.672 918.475 241.191 918.057 240.667C917.949 240.479 918.316 239.938 918.532 239.397Z" fill="#7FFF52" stroke="#7FFF52" stroke-miterlimit="10"/>
<path d="M921.927 544.52C922.333 543.739 922.804 542.999 923.332 542.31C923.505 542.098 924.089 542.31 924.5 542.31C924.207 543.174 923.875 544.021 923.505 544.849C922.969 544.807 922.439 544.697 921.927 544.52Z" fill="#7FFF52" stroke="#7FFF52" stroke-miterlimit="10"/>
<path d="M1032.3 722.731H1034.01L1033.47 724.777L1031.52 724.142L1032.3 722.731Z" fill="#7FFF52" stroke="#7FFF52" stroke-miterlimit="10"/>
<path d="M1244.34 367.014V365.015L1246.28 365.391L1245.81 367.507L1244.34 367.014Z" fill="#7FFF52" stroke="#7FFF52" stroke-miterlimit="10"/>
<path d="M857.324 712.269C857.324 711.893 857.518 711.517 857.626 711.164C857.946 711.307 858.251 711.488 858.534 711.705C858.553 711.933 858.491 712.16 858.361 712.34C858.014 712.351 857.667 712.328 857.324 712.269Z" fill="#7FFF52" stroke="#7FFF52" stroke-miterlimit="10"/>
<path d="M1214.89 433.149H1216.29C1216.36 433.763 1216.32 434.384 1216.18 434.983C1216.18 435.242 1215.39 435.195 1214.93 435.265L1214.89 433.149Z" fill="#7FFF52" stroke="#7FFF52" stroke-miterlimit="10"/>
<path d="M640.662 767.167L641.244 767.144L641.093 766.72L640.662 767.167Z" fill="white" stroke="#7FFF52" stroke-miterlimit="10"/>
<path d="M1037.92 527.592L1036.78 531.26C1035.8 530.71 1034.89 530.03 1034.07 529.238C1033.9 529.05 1034.61 527.521 1035.2 527.051C1035.39 526.843 1035.63 526.688 1035.89 526.6C1036.15 526.512 1036.42 526.494 1036.69 526.547C1036.96 526.601 1037.21 526.723 1037.42 526.905C1037.64 527.087 1037.81 527.323 1037.92 527.592Z" fill="#7FFF52" stroke="#7FFF52" stroke-miterlimit="10"/>
<path d="M973.665 602.309C974.336 601.439 974.919 600.405 975.136 600.475C976.161 600.923 977.128 601.516 978.011 602.239C978.119 602.455 978.175 602.698 978.175 602.944C978.175 603.19 978.119 603.433 978.011 603.649C977.864 603.836 977.676 603.979 977.464 604.065C977.252 604.152 977.024 604.178 976.8 604.143C975.724 603.597 974.677 602.985 973.665 602.309Z" fill="#7FFF52" stroke="#7FFF52" stroke-miterlimit="10"/>
<path d="M883.031 584.229C882.642 585.758 882.663 587.098 882.166 587.427C881.766 587.577 881.337 587.613 880.92 587.531C880.504 587.448 880.114 587.251 879.788 586.957C879.63 586.526 879.575 586.058 879.628 585.598C879.681 585.137 879.84 584.699 880.091 584.324C880.458 583.877 881.647 584.229 883.031 584.229Z" fill="#7FFF52" stroke="#7FFF52" stroke-miterlimit="10"/>
<path d="M502.31 552.631C503.543 553.36 504.472 553.618 504.883 554.253C505.294 554.888 504.58 556.04 504.191 556.158C503.33 556.256 502.46 556.193 501.618 555.969L502.31 552.631Z" fill="#7FFF52" stroke="#7FFF52" stroke-miterlimit="10"/>
<path d="M800.915 217.156C801.304 218.19 801.693 219.107 802.018 220.071C802.017 220.186 801.988 220.298 801.935 220.397C801.882 220.496 801.806 220.578 801.715 220.635C801.326 220.777 800.548 220.918 800.504 220.8C800.104 219.679 799.764 218.532 799.488 217.367C799.488 217.203 799.769 216.733 799.856 216.756C800.222 216.842 800.578 216.976 800.915 217.156Z" fill="#7FFF52" stroke="#7FFF52" stroke-miterlimit="10"/>
<path d="M494.613 256.983C493.896 257.783 493.081 258.471 492.192 259.029C491.932 259.029 490.873 258.182 490.938 257.853C491.014 257.51 491.161 257.191 491.367 256.918C491.573 256.645 491.833 256.426 492.127 256.278C492.602 256.09 493.294 256.56 494.613 256.983Z" fill="#7FFF52" stroke="#7FFF52" stroke-miterlimit="10"/>
<path d="M665.18 279.342C665.229 278.534 665.397 277.74 665.677 276.991C666.326 276.003 667.969 276.45 668.38 277.814C668.553 278.354 668.185 279.6 667.882 279.671C666.972 279.693 666.063 279.583 665.18 279.342Z" fill="#7FFF52" stroke="#7FFF52" stroke-miterlimit="10"/>
<path d="M791.056 603.837C792.288 604.543 793.218 604.778 793.629 605.413C793.698 605.756 793.687 606.112 793.596 606.449C793.505 606.786 793.338 607.092 793.11 607.341C792.302 607.503 791.474 607.503 790.667 607.341L791.056 603.837Z" fill="#7FFF52" stroke="#7FFF52" stroke-miterlimit="10"/>
<path d="M748.874 515.014C749.306 513.885 749.414 513.062 749.825 512.663C750.82 511.863 751.62 512.522 751.987 513.58C752.045 513.902 752.04 514.233 751.973 514.553C751.906 514.873 751.779 515.174 751.598 515.437C750.676 515.433 749.76 515.29 748.874 515.014Z" fill="#7FFF52" stroke="#7FFF52" stroke-miterlimit="10"/>
<path d="M618.954 584.182C619.971 584.629 621.117 584.935 621.117 585.123C621.065 585.978 620.779 586.797 620.295 587.474C620.1 587.709 618.609 587.262 618.587 587.051C618.608 586.082 618.731 585.12 618.954 584.182Z" fill="#7FFF52" stroke="#7FFF52" stroke-miterlimit="10"/>
<path d="M702.649 607.67C703.6 608.493 704.551 608.939 704.53 609.386C704.382 610.292 704.082 611.161 703.643 611.949C703.103 611.525 702.173 611.196 702.108 610.703C702.136 609.666 702.318 608.642 702.649 607.67Z" fill="#7FFF52" stroke="#7FFF52" stroke-miterlimit="10"/>
<path d="M823.92 144.108C824.531 143.877 825.176 143.773 825.822 143.802C826.347 144.019 826.773 144.449 827.011 145.001C827.011 145.142 826.579 145.942 826.233 146.059C825.594 146.258 824.923 146.306 824.266 146.2C824.05 146.156 823.846 146.059 823.67 145.916C823.494 145.774 823.35 145.589 823.249 145.378C823.163 145.072 823.725 144.602 823.92 144.108Z" fill="#7FFF52" stroke="#7FFF52" stroke-miterlimit="10"/>
<path d="M888.242 366.896C888.206 366.102 888.293 365.307 888.501 364.545C888.912 363.698 890.533 364.192 890.771 365.297C890.812 365.646 890.781 366 890.68 366.333C890.579 366.667 890.411 366.972 890.187 367.225C889.841 367.46 889.02 367.037 888.242 366.896Z" fill="#7FFF52" stroke="#7FFF52" stroke-miterlimit="10"/>
<path d="M742.842 276.615C742.842 276.144 742.561 275.557 742.842 275.204C743.274 274.287 745.004 274.593 745.76 275.792C745.856 276.004 745.906 276.237 745.906 276.473C745.906 276.71 745.856 276.943 745.76 277.155C745.198 278.19 743.728 277.884 742.842 276.615Z" fill="#7FFF52" stroke="#7FFF52" stroke-miterlimit="10"/>
<path d="M611.301 439.967C611.605 439.021 612.019 438.12 612.533 437.287C612.849 437.284 613.162 437.356 613.449 437.498C613.737 437.64 613.992 437.849 614.198 438.11C614.286 438.456 614.292 438.82 614.216 439.169C614.141 439.519 613.986 439.842 613.765 440.109C613.398 440.414 612.511 440.061 611.301 439.967Z" fill="#7FFF52" stroke="#7FFF52" stroke-miterlimit="10"/>
<path d="M593.636 294.365L595.409 294.083C595.02 295.165 594.653 296.246 594.22 297.304C593.859 297.247 593.509 297.128 593.182 296.951C593.288 296.081 593.44 295.217 593.636 294.365Z" fill="#7FFF52" stroke="#7FFF52" stroke-miterlimit="10"/>
<path d="M902.446 251.693C902.808 250.992 903.252 250.344 903.765 249.765C904.025 249.554 904.608 249.765 905.041 249.765C905.041 250.447 905.041 251.341 904.695 251.74C904.349 252.14 903.571 251.693 902.446 251.693Z" fill="#7FFF52" stroke="#7FFF52" stroke-miterlimit="10"/>
<path d="M448.496 449.184C448.626 448.196 448.496 447.326 448.842 446.833C449.188 446.339 450.247 446.033 450.593 446.292C450.776 446.417 450.927 446.59 451.032 446.796C451.137 447.001 451.192 447.232 451.192 447.467C451.192 447.702 451.137 447.934 451.032 448.139C450.927 448.345 450.776 448.518 450.593 448.643C450.139 449.184 449.404 448.949 448.496 449.184Z" fill="#7FFF52" stroke="#7FFF52" stroke-miterlimit="10"/>
<path d="M510.483 368.118L512.515 368.659C512.256 369.529 512.213 370.705 511.65 371.198C511.088 371.692 510.202 370.846 509.488 370.634L510.483 368.118Z" fill="#7FFF52" stroke="#7FFF52" stroke-miterlimit="10"/>
<path d="M811.336 428.024C811.326 428.826 811.195 429.62 810.947 430.375C810.789 430.548 810.592 430.674 810.375 430.739C810.159 430.805 809.931 430.808 809.713 430.749C809.495 430.69 809.295 430.57 809.132 430.401C808.969 430.233 808.85 430.021 808.785 429.787C808.734 429.451 808.759 429.107 808.857 428.784C808.955 428.46 809.123 428.167 809.347 427.93C809.693 427.601 810.493 428.024 811.336 428.024Z" fill="#7FFF52" stroke="#7FFF52" stroke-miterlimit="10"/>
<path d="M840.006 495.735C840.267 494.715 840.676 493.747 841.216 492.867C841.562 492.514 842.492 492.867 843.141 492.867C843.067 493.842 842.863 494.8 842.535 495.711C842.384 495.97 841.303 495.735 840.006 495.735Z" fill="#7FFF52" stroke="#7FFF52" stroke-miterlimit="10"/>
<path d="M911.722 481.911C912.824 482.522 913.732 482.757 914.186 483.392C914.641 484.027 914.014 484.755 913.905 485.484C913.089 485.349 912.304 485.046 911.592 484.591C911.311 484.45 911.635 483.251 911.722 481.911Z" fill="#7FFF52" stroke="#7FFF52" stroke-miterlimit="10"/>
<path d="M712.378 409.686C711.773 410.015 711.059 410.72 710.583 410.555C709.845 410.187 709.211 409.611 708.746 408.886C708.746 408.745 709.092 407.805 709.329 407.758C709.947 407.645 710.582 407.744 711.145 408.04C711.688 408.498 712.162 409.045 712.551 409.662L712.378 409.686Z" fill="#7FFF52" stroke="#7FFF52" stroke-miterlimit="10"/>
<path d="M648.402 364.169C649.326 364.472 650.212 364.898 651.04 365.438C651.213 365.603 650.824 367.037 650.413 367.249C650.105 367.339 649.782 367.354 649.468 367.293C649.154 367.233 648.857 367.097 648.597 366.896C648.207 366.567 648.424 365.603 648.402 364.169Z" fill="#7FFF52" stroke="#7FFF52" stroke-miterlimit="10"/>
<path d="M540.082 472.694C539.584 473.611 539.239 474.74 538.893 474.74C538.093 474.74 536.731 474.481 536.558 473.893C536.082 472.718 537.12 472.06 538.114 472.013C538.802 472.11 539.469 472.341 540.082 472.694Z" fill="#7FFF52" stroke="#7FFF52" stroke-miterlimit="10"/>
<path d="M788.224 341.034L790.688 341.928C790.472 342.586 790.407 343.55 789.975 343.855C789.679 343.955 789.365 343.97 789.062 343.9C788.76 343.83 788.478 343.677 788.245 343.456C787.943 342.985 788.202 342.092 788.224 341.034Z" fill="#7FFF52" stroke="#7FFF52" stroke-miterlimit="10"/>
<path d="M511.845 648.508C512.169 647.638 512.256 646.698 512.623 646.533C512.991 646.368 513.812 646.768 514.418 646.933C514.202 647.591 514.18 648.461 513.769 648.837C513.358 649.213 512.667 648.672 511.845 648.508Z" fill="#7FFF52" stroke="#7FFF52" stroke-miterlimit="10"/>
<path d="M675.687 690.24C676.595 690.569 677.417 690.616 677.612 691.015C677.806 691.415 677.612 692.261 677.46 692.92C676.877 692.92 676.055 692.92 675.731 692.567C675.406 692.214 675.666 691.345 675.687 690.24Z" fill="#7FFF52" stroke="#7FFF52" stroke-miterlimit="10"/>
<path d="M864.437 684.291L865.756 684.738L865.021 686.454C864.675 686.196 864.091 685.984 864.026 685.678C863.961 685.373 864.286 684.691 864.437 684.291Z" fill="#7FFF52" stroke="#7FFF52" stroke-miterlimit="10"/>
<path d="M680.703 200.369C681.266 200.769 682.044 201.004 682.26 201.521C682.476 202.038 681.72 202.603 681.417 203.143C680.947 202.672 680.519 202.153 680.141 201.592C680.033 201.404 680.444 200.886 680.703 200.369Z" fill="#7FFF52" stroke="#7FFF52" stroke-miterlimit="10"/>
<path d="M664.185 504.998C664.646 504.245 665.167 503.537 665.742 502.882C665.936 502.694 666.499 502.882 666.888 502.882C666.52 503.705 666.174 504.575 665.742 505.351C665.213 505.291 664.692 505.173 664.185 504.998Z" fill="#7FFF52" stroke="#7FFF52" stroke-miterlimit="10"/>
<path d="M762.668 691.344L764.376 691.603L763.706 693.601L761.803 692.802L762.668 691.344Z" fill="#7FFF52" stroke="#7FFF52" stroke-miterlimit="10"/>
<path d="M997.362 352.789V350.791L999.286 351.332L998.681 353.401L997.362 352.789Z" fill="#7FFF52" stroke="#7FFF52" stroke-miterlimit="10"/>
<path d="M588.815 667.34C588.945 666.964 589.053 666.611 589.182 666.258C589.494 666.421 589.784 666.626 590.047 666.87C590.047 666.87 589.938 667.481 589.852 667.481C589.503 667.469 589.156 667.422 588.815 667.34Z" fill="#7FFF52" stroke="#7FFF52" stroke-miterlimit="10"/>
<path d="M963.676 416.48H965.081C965.111 417.093 965.038 417.706 964.865 418.29C964.865 418.526 964.044 418.432 963.59 418.479L963.676 416.48Z" fill="#7FFF52" stroke="#7FFF52" stroke-miterlimit="10"/>
<path d="M318.404 641.337L318.943 641.502L318.922 641.031L318.404 641.337Z" fill="white" stroke="#7FFF52" stroke-miterlimit="10"/>
<path d="M761.479 532.459L759.425 535.609C758.608 534.786 757.883 533.863 757.263 532.858C757.155 532.623 758.236 531.377 758.927 531.119C759.167 530.953 759.441 530.856 759.725 530.838C760.008 530.819 760.291 530.88 760.547 531.015C760.803 531.149 761.022 531.352 761.186 531.605C761.349 531.858 761.45 532.152 761.479 532.459Z" fill="#7FFF52" stroke="#7FFF52" stroke-miterlimit="10"/>
<path d="M680.53 584.582C681.417 583.947 682.239 583.148 682.412 583.289C683.292 584.008 684.072 584.864 684.725 585.828C684.786 586.065 684.79 586.314 684.737 586.553C684.684 586.792 684.576 587.012 684.422 587.192C684.231 587.333 684.01 587.421 683.779 587.445C683.549 587.47 683.316 587.431 683.103 587.333C682.202 586.465 681.343 585.547 680.53 584.582Z" fill="#7FFF52" stroke="#7FFF52" stroke-miterlimit="10"/>
<path d="M598.198 539.583C597.442 540.97 597.117 542.263 596.534 542.404C596.11 542.429 595.689 542.333 595.31 542.127C594.93 541.921 594.607 541.611 594.372 541.228C594.343 540.78 594.417 540.33 594.586 539.92C594.756 539.51 595.017 539.151 595.344 538.877C595.82 538.525 596.858 539.183 598.198 539.583Z" fill="#7FFF52" stroke="#7FFF52" stroke-miterlimit="10"/>
<path d="M240.893 393.181C241.909 394.262 242.688 394.78 242.947 395.532C243.055 395.885 242.212 397.154 241.801 397.131C240.947 396.972 240.126 396.645 239.38 396.167L240.893 393.181Z" fill="#7FFF52" stroke="#7FFF52" stroke-miterlimit="10"/>
<path d="M614.003 162.211C614.111 163.316 614.241 164.327 614.306 165.362C614.274 165.469 614.217 165.567 614.142 165.645C614.066 165.723 613.974 165.779 613.874 165.808C613.441 165.808 612.684 165.808 612.663 165.597C612.598 164.391 612.598 163.182 612.663 161.976C612.663 161.812 613.095 161.459 613.182 161.506C613.471 161.719 613.746 161.955 614.003 162.211Z" fill="#7FFF52" stroke="#7FFF52" stroke-miterlimit="10"/>
<path d="M309.712 107.078C308.818 107.633 307.857 108.053 306.858 108.325C306.577 108.325 305.799 107.102 305.95 106.82C306.11 106.508 306.334 106.24 306.604 106.037C306.873 105.833 307.182 105.699 307.507 105.644C308.004 105.621 308.545 106.303 309.712 107.078Z" fill="#7FFF52" stroke="#7FFF52" stroke-miterlimit="10"/>
<path d="M467.674 180.55C468.128 179.586 468.301 178.763 468.776 178.34C469.663 177.587 471.111 178.528 471.176 179.962C471.176 180.526 470.506 181.608 470.203 181.584C469.32 181.369 468.469 181.021 467.674 180.55Z" fill="#7FFF52" stroke="#7FFF52" stroke-miterlimit="10"/>
<path d="M504.84 530.39C505.856 531.448 506.656 531.965 507.002 532.741C507.348 533.517 506.397 534.41 506.007 534.41C505.19 534.303 504.398 534.032 503.672 533.611L504.84 530.39Z" fill="#7FFF52" stroke="#7FFF52" stroke-miterlimit="10"/>
<path d="M487.24 432.279C487.976 431.315 488.278 430.563 488.754 430.375C489.921 429.905 490.527 430.798 490.527 431.88C490.527 432.467 489.857 433.596 489.662 433.549C488.804 433.251 487.989 432.824 487.24 432.279Z" fill="#7FFF52" stroke="#7FFF52" stroke-miterlimit="10"/>
<path d="M344.716 459.082C345.581 459.81 346.576 460.445 346.511 460.633C346.241 461.446 345.751 462.151 345.105 462.655C344.846 462.843 343.527 461.973 343.57 461.738C343.849 460.804 344.234 459.912 344.716 459.082Z" fill="#7FFF52" stroke="#7FFF52" stroke-miterlimit="10"/>
<path d="M419.005 507.138C419.719 508.219 420.519 508.948 420.389 509.348C420.011 510.171 419.498 510.912 418.876 511.534C418.465 510.97 417.665 510.382 417.73 509.865C418.018 508.887 418.449 507.967 419.005 507.138Z" fill="#7FFF52" stroke="#7FFF52" stroke-miterlimit="10"/>
<path d="M654.91 99.1083C655.554 99.0848 656.197 99.1802 656.812 99.3904C657.254 99.7723 657.554 100.315 657.656 100.919C657.656 101.083 656.985 101.671 656.618 101.671C655.954 101.678 655.297 101.525 654.694 101.224C654.497 101.117 654.326 100.962 654.194 100.77C654.063 100.578 653.975 100.355 653.937 100.119C653.937 99.8136 654.499 99.508 654.91 99.1083Z" fill="#7FFF52" stroke="#7FFF52" stroke-miterlimit="10"/>
<path d="M659.234 332.594C659.379 331.76 659.665 330.963 660.077 330.243C660.683 329.584 662.131 330.525 662.066 331.653C662.019 332.004 661.898 332.339 661.715 332.632C661.532 332.925 661.289 333.169 661.007 333.346C660.618 333.605 659.926 332.946 659.234 332.594Z" fill="#7FFF52" stroke="#7FFF52" stroke-miterlimit="10"/>
<path d="M542.936 201.592C542.936 201.122 542.936 200.487 543.195 200.205C543.844 199.452 545.357 200.205 545.833 201.639C545.886 201.874 545.888 202.12 545.839 202.356C545.79 202.593 545.692 202.814 545.552 203.002C544.817 203.825 543.498 203.096 542.936 201.592Z" fill="#7FFF52" stroke="#7FFF52" stroke-miterlimit="10"/>
<path d="M374.553 318.299C375.086 317.481 375.719 316.746 376.434 316.113C376.607 315.972 377.731 316.865 377.796 317.382C377.795 317.742 377.712 318.097 377.553 318.413C377.395 318.729 377.166 318.997 376.888 319.193C376.434 319.381 375.699 318.769 374.553 318.299Z" fill="#7FFF52" stroke="#7FFF52" stroke-miterlimit="10"/>
<path d="M395.114 173.144L396.909 173.426C396.26 174.343 395.612 175.283 394.92 176.153C394.584 175.992 394.277 175.77 394.012 175.495C394.34 174.69 394.708 173.905 395.114 173.144Z" fill="#7FFF52" stroke="#7FFF52" stroke-miterlimit="10"/>
<path d="M702.648 226.255C703.172 225.699 703.753 225.21 704.378 224.797C704.702 224.797 705.2 225.079 705.611 225.267C705.329 225.878 705.2 226.772 704.767 227.03C704.335 227.289 703.621 226.678 702.648 226.255Z" fill="#7FFF52" stroke="#7FFF52" stroke-miterlimit="10"/>
<path d="M215.921 277.555C216.289 276.638 216.397 275.768 216.829 275.486C217.262 275.204 218.386 275.157 218.645 275.486C218.811 275.663 218.929 275.886 218.987 276.131C219.045 276.375 219.04 276.632 218.973 276.874C218.907 277.116 218.78 277.334 218.608 277.504C218.436 277.673 218.225 277.789 217.997 277.837C217.499 277.908 216.829 277.555 215.921 277.555Z" fill="#7FFF52" stroke="#7FFF52" stroke-miterlimit="10"/>
<path d="M296.286 218.59L298.102 219.742C297.626 220.518 297.28 221.623 296.632 221.929C295.983 222.234 295.313 221.153 294.621 220.682L296.286 218.59Z" fill="#7FFF52" stroke="#7FFF52" stroke-miterlimit="10"/>
<path d="M569.637 367.86C569.417 368.602 569.088 369.3 568.664 369.929C567.973 370.587 566.632 369.764 566.697 368.706C566.746 368.368 566.862 368.045 567.038 367.761C567.213 367.477 567.444 367.238 567.713 367.06C568.167 366.896 568.859 367.507 569.637 367.86Z" fill="#7FFF52" stroke="#7FFF52" stroke-miterlimit="10"/>
<path d="M579.713 441.543C580.513 440.485 580.923 439.568 581.615 439.192C582.307 438.815 582.848 439.521 583.475 439.732C583.144 440.641 582.701 441.495 582.156 442.271C581.918 442.507 580.945 441.919 579.713 441.543Z" fill="#7FFF52" stroke="#7FFF52" stroke-miterlimit="10"/>
<path d="M652.099 450.124C653.007 451.065 653.829 451.558 654.11 452.287C654.391 453.016 653.591 453.58 653.288 454.238C652.545 453.854 651.872 453.329 651.299 452.687C651.083 452.334 651.667 451.394 652.099 450.124Z" fill="#7FFF52" stroke="#7FFF52" stroke-miterlimit="10"/>
<path d="M479.371 320.062C478.7 320.062 477.836 320.627 477.425 320.345C476.812 319.758 476.357 319.003 476.106 318.158C476.106 318.017 476.711 317.218 476.949 317.265C477.57 317.341 478.153 317.629 478.614 318.088C479.008 318.695 479.321 319.36 479.544 320.062H479.371Z" fill="#7FFF52" stroke="#7FFF52" stroke-miterlimit="10"/>
<path d="M429.686 256.866C430.489 257.427 431.217 258.108 431.848 258.887C431.978 259.076 431.221 260.345 430.767 260.439C430.433 260.433 430.105 260.342 429.809 260.175C429.513 260.008 429.256 259.768 429.059 259.475C428.908 259.099 429.362 258.253 429.686 256.866Z" fill="#7FFF52" stroke="#7FFF52" stroke-miterlimit="10"/>
<path d="M297.756 327.962C297.042 328.691 296.437 329.678 296.091 329.561C295.313 329.349 294.124 328.667 294.059 328.056C293.907 326.763 295.075 326.457 296.048 326.693C296.61 326.928 297.064 327.421 297.756 327.962Z" fill="#7FFF52" stroke="#7FFF52" stroke-miterlimit="10"/>
<path d="M569.854 277.32L572.016 278.919C571.626 279.483 571.345 280.376 570.827 280.541C570.518 280.553 570.213 280.474 569.943 280.313C569.672 280.151 569.447 279.913 569.291 279.624C569.119 279.06 569.594 278.26 569.854 277.32Z" fill="#7FFF52" stroke="#7FFF52" stroke-miterlimit="10"/>
<path d="M225.326 488.164C225.845 487.436 226.169 486.542 226.58 486.495C226.991 486.448 227.64 487.106 228.18 487.436C227.834 488 227.575 488.823 227.077 489.058C226.58 489.293 226.083 488.588 225.326 488.164Z" fill="#7FFF52" stroke="#7FFF52" stroke-miterlimit="10"/>
<path d="M371.85 578.164C372.629 578.751 373.429 579.057 373.515 579.504C373.602 579.95 373.126 580.679 372.888 581.291C372.326 581.008 371.526 580.867 371.31 580.397C371.094 579.927 371.548 579.198 371.85 578.164Z" fill="#7FFF52" stroke="#7FFF52" stroke-miterlimit="10"/>
<path d="M554.568 629.911L555.735 630.757L554.568 632.168C554.308 631.815 553.789 631.439 553.833 631.11C553.876 630.781 554.308 630.216 554.568 629.911Z" fill="#7FFF52" stroke="#7FFF52" stroke-miterlimit="10"/>
<path d="M502.916 109.453C503.37 110.017 504.04 110.488 504.105 111.052C504.17 111.616 503.326 111.898 502.894 112.345C502.564 111.749 502.288 111.119 502.072 110.464C502.007 110.252 502.548 109.876 502.916 109.453Z" fill="#7FFF52" stroke="#7FFF52" stroke-miterlimit="10"/>
<path d="M408.606 396.825C409.249 396.257 409.928 395.739 410.638 395.273C410.876 395.273 411.351 395.579 411.719 395.767C411.176 396.467 410.599 397.134 409.989 397.766C409.989 397.766 409.319 397.46 408.606 396.825Z" fill="#7FFF52" stroke="#7FFF52" stroke-miterlimit="10"/>
<path d="M455.069 605.648L456.647 606.424L455.48 608.116L453.858 606.8L455.069 605.648Z" fill="#7FFF52" stroke="#7FFF52" stroke-miterlimit="10"/>
<path d="M767.511 352.272L768.095 350.368L769.803 351.473L768.678 353.283L767.511 352.272Z" fill="#7FFF52" stroke="#7FFF52" stroke-miterlimit="10"/>
<path d="M294.361 529.708L294.988 528.768C295.24 529.029 295.465 529.321 295.658 529.637C295.658 529.637 295.398 530.178 295.312 530.155C294.981 530.044 294.662 529.895 294.361 529.708Z" fill="#7FFF52" stroke="#7FFF52" stroke-miterlimit="10"/>
<path d="M718.843 403.15L720.205 403.596C720.067 404.2 719.833 404.773 719.513 405.289C719.361 405.477 718.691 405.171 718.237 405.077L718.843 403.15Z" fill="#7FFF52" stroke="#7FFF52" stroke-miterlimit="10"/>
<path d="M67.0618 475.61L67.6013 475.845L67.6228 475.375L67.0618 475.61Z" fill="white" stroke="#7FFF52" stroke-miterlimit="10"/>
<path d="M519.11 426.872L516.71 429.74C516.023 428.812 515.436 427.803 514.958 426.731C514.958 426.472 516.083 425.367 516.818 425.203C517.553 425.038 518.742 424.897 519.11 426.872Z" fill="#7FFF52" stroke="#7FFF52" stroke-miterlimit="10"/>
<path d="M432.864 467.757C433.816 467.263 434.724 466.558 434.897 466.723C435.685 467.559 436.355 468.518 436.886 469.567C437.037 469.85 436.734 470.672 436.432 470.884C436.228 470.999 436.002 471.06 435.772 471.06C435.543 471.06 435.316 470.999 435.113 470.884C434.356 469.967 433.729 468.956 432.864 467.757Z" fill="#7FFF52" stroke="#7FFF52" stroke-miterlimit="10"/>
<path d="M356.262 412.084C355.354 413.353 354.878 414.599 354.294 414.67C353.872 414.635 353.465 414.483 353.113 414.227C352.761 413.972 352.475 413.622 352.283 413.212C352.285 412.738 352.399 412.272 352.615 411.86C352.831 411.448 353.142 411.104 353.516 410.861C354.035 410.673 354.986 411.566 356.262 412.084Z" fill="#7FFF52" stroke="#7FFF52" stroke-miterlimit="10"/>
<path d="M18.2637 218.943C19.1285 220.165 19.842 220.8 20.015 221.552C20.015 221.952 19.1069 223.057 18.7177 223.01C17.8802 222.737 17.0961 222.298 16.4043 221.717L18.2637 218.943Z" fill="#7FFF52" stroke="#7FFF52" stroke-miterlimit="10"/>
<path d="M414.659 39.6966C414.659 40.8251 414.659 41.8361 414.659 42.8706C414.659 43.0116 414.335 43.2703 414.184 43.2467C414.032 43.2232 413.016 43.0116 413.016 42.8706C413.053 41.6661 413.154 40.4651 413.319 39.2734C413.319 39.1089 413.795 38.8267 413.881 38.8973C414.167 39.131 414.429 39.3992 414.659 39.6966Z" fill="#7FFF52" stroke="#7FFF52" stroke-miterlimit="10"/>
<path d="M267.379 38.286C267.962 37.4161 268.222 36.6167 268.741 36.264C269.692 35.6528 271.032 36.7813 270.903 38.1919C270.903 38.7562 270.038 39.7436 269.757 39.6731C268.906 39.339 268.105 38.8717 267.379 38.286Z" fill="#7FFF52" stroke="#7FFF52" stroke-miterlimit="10"/>
<path d="M264.654 390.407C265.541 391.582 266.276 392.193 266.449 392.946C266.622 393.698 265.649 394.521 265.281 394.498C264.507 394.257 263.776 393.875 263.119 393.369L264.654 390.407Z" fill="#7FFF52" stroke="#7FFF52" stroke-miterlimit="10"/>
<path d="M258.319 290.745C259.141 289.898 259.509 289.169 260.028 289.052C261.217 288.746 261.714 289.71 261.606 290.792C261.606 291.379 260.741 292.414 260.546 292.343C259.748 291.91 259 291.373 258.319 290.745Z" fill="#7FFF52" stroke="#7FFF52" stroke-miterlimit="10"/>
<path d="M113.828 298.245C114.606 299.091 115.514 299.867 115.428 300.031C115.064 300.802 114.5 301.44 113.806 301.865C113.525 302.006 112.336 300.972 112.379 300.76C112.766 299.861 113.253 299.016 113.828 298.245Z" fill="#7FFF52" stroke="#7FFF52" stroke-miterlimit="10"/>
<path d="M182.106 355.893C182.69 357.045 183.403 357.891 183.23 358.244C182.906 359.02 182.085 359.561 181.479 360.195C181.133 359.584 180.42 358.879 180.528 358.385C180.929 357.469 181.462 356.628 182.106 355.893Z" fill="#7FFF52" stroke="#7FFF52" stroke-miterlimit="10"/>
<path d="M440.258 214.852C440.713 213.958 440.885 213.136 441.361 212.712C441.837 212.289 443.372 213.277 443.177 214.382C443.099 214.725 442.947 215.043 442.732 215.309C442.518 215.575 442.248 215.781 441.945 215.91C441.512 216.027 440.907 215.299 440.258 214.852Z" fill="#7FFF52" stroke="#7FFF52" stroke-miterlimit="10"/>
<path d="M339.679 69.2732C339.808 68.8029 339.808 68.1682 340.089 67.9095C340.824 67.2747 342.251 68.2622 342.554 69.7199C342.582 69.9573 342.557 70.1984 342.482 70.4233C342.407 70.6482 342.283 70.8503 342.122 71.013C341.278 71.7183 340.089 70.8484 339.679 69.2732Z" fill="#7FFF52" stroke="#7FFF52" stroke-miterlimit="10"/>
<path d="M159.361 162.54C160.005 161.803 160.732 161.155 161.523 160.612C161.718 160.612 162.734 161.553 162.734 162.07C162.694 162.427 162.572 162.766 162.379 163.058C162.186 163.35 161.929 163.584 161.631 163.739C161.112 163.857 160.442 163.175 159.361 162.54Z" fill="#7FFF52" stroke="#7FFF52" stroke-miterlimit="10"/>
<path d="M196.225 21.2877L197.954 21.8049C197.197 22.6278 196.484 23.4742 195.792 24.156C195.478 23.9436 195.194 23.6822 194.949 23.3801C195.342 22.66 195.768 21.9616 196.225 21.2877Z" fill="#7FFF52" stroke="#7FFF52" stroke-miterlimit="10"/>
<path d="M495.327 115.119C495.903 114.62 496.544 114.216 497.229 113.92C497.554 113.92 497.986 114.296 498.375 114.531C498.029 115.096 497.813 115.966 497.337 116.177C496.862 116.389 496.3 115.683 495.327 115.119Z" fill="#7FFF52" stroke="#7FFF52" stroke-miterlimit="10"/>
<path d="M6.56683 100.754C7.04249 99.8842 7.2587 99.0378 7.71274 98.8262C8.16677 98.6146 9.29105 98.8262 9.50726 99.0848C9.62622 99.2802 9.69773 99.5051 9.71511 99.7387C9.7325 99.9722 9.69519 100.207 9.60668 100.42C9.51816 100.634 9.38132 100.82 9.20893 100.96C9.03653 101.101 8.8342 101.192 8.62081 101.224C8.08029 101.436 7.45329 101.013 6.56683 100.754Z" fill="#7FFF52" stroke="#7FFF52" stroke-miterlimit="10"/>
<path d="M92.9419 53.1213L94.6283 54.4849C94.0662 55.1902 93.5905 56.2482 92.8987 56.4598C92.2068 56.6714 91.6879 55.5194 91.0609 54.9786L92.9419 53.1213Z" fill="#7FFF52" stroke="#7FFF52" stroke-miterlimit="10"/>
<path d="M347.376 237.845C346.878 238.645 346.64 239.421 346.165 239.773C345.953 239.876 345.72 239.916 345.49 239.888C345.26 239.86 345.041 239.766 344.855 239.615C344.67 239.464 344.525 239.261 344.436 239.029C344.347 238.796 344.317 238.542 344.349 238.292C344.426 237.957 344.576 237.648 344.787 237.39C344.998 237.132 345.263 236.933 345.559 236.811C346.013 236.717 346.619 237.375 347.376 237.845Z" fill="#7FFF52" stroke="#7FFF52" stroke-miterlimit="10"/>
<path d="M349.019 312.304C349.927 311.363 350.446 310.517 351.181 310.211C351.916 309.906 352.348 310.705 352.954 310.987C352.522 311.847 351.984 312.638 351.354 313.338C351.116 313.574 350.229 312.821 349.019 312.304Z" fill="#7FFF52" stroke="#7FFF52" stroke-miterlimit="10"/>
<path d="M419.892 330.525C420.67 331.559 421.448 332.171 421.621 332.876C421.794 333.581 420.973 334.075 420.584 334.686C419.892 334.202 419.285 333.589 418.789 332.876C418.616 332.57 419.416 331.63 419.892 330.525Z" fill="#7FFF52" stroke="#7FFF52" stroke-miterlimit="10"/>
<path d="M263.206 178.316C262.514 178.316 261.606 178.692 261.238 178.316C260.693 177.653 260.327 176.84 260.179 175.965C260.179 175.8 260.871 175.119 261.109 175.189C261.718 175.338 262.265 175.702 262.665 176.224C262.99 176.874 263.23 177.57 263.379 178.293L263.206 178.316Z" fill="#7FFF52" stroke="#7FFF52" stroke-miterlimit="10"/>
<path d="M221.045 108.959C221.807 109.63 222.47 110.423 223.013 111.31C223.013 111.522 222.234 112.674 221.78 112.698C221.448 112.65 221.131 112.519 220.853 112.315C220.575 112.111 220.345 111.839 220.18 111.522C220.007 111.075 220.505 110.276 221.045 108.959Z" fill="#7FFF52" stroke="#7FFF52" stroke-miterlimit="10"/>
<path d="M82.1315 161.859C81.3316 162.493 80.6181 163.363 80.2938 163.222C79.537 162.893 78.456 162.07 78.456 161.435C78.456 160.142 79.6451 160.001 80.6181 160.377C81.0505 160.589 81.4397 161.224 82.1315 161.859Z" fill="#7FFF52" stroke="#7FFF52" stroke-miterlimit="10"/>
<path d="M357.84 148.011L359.786 149.892C359.332 150.409 358.943 151.255 358.424 151.349C358.117 151.32 357.823 151.202 357.572 151.008C357.321 150.813 357.123 150.55 356.997 150.244C356.889 149.656 357.451 148.928 357.84 148.011Z" fill="#7FFF52" stroke="#7FFF52" stroke-miterlimit="10"/>
<path d="M127.254 420.077C127.968 420.759 128.703 421.159 128.746 421.605C128.789 422.052 128.227 422.734 127.924 423.298C127.405 422.946 126.606 422.71 126.454 422.217C126.303 421.723 126.843 420.971 127.254 420.077Z" fill="#7FFF52" stroke="#7FFF52" stroke-miterlimit="10"/>
<path d="M302.664 495.899L303.701 496.863L302.404 498.133C302.166 497.733 301.712 497.31 301.777 496.981C301.842 496.652 302.426 496.205 302.664 495.899Z" fill="#7FFF52" stroke="#7FFF52" stroke-miterlimit="10"/>
<path d="M184.225 245.04C184.907 244.542 185.631 244.117 186.387 243.77C186.647 243.77 187.057 244.17 187.403 244.381C186.776 244.969 186.149 245.604 185.457 246.145C185.392 246.192 184.917 245.674 184.225 245.04Z" fill="#7FFF52" stroke="#7FFF52" stroke-miterlimit="10"/>
<path d="M206.732 458.588L208.224 459.552L206.884 461.08L205.413 459.552L206.732 458.588Z" fill="#7FFF52" stroke="#7FFF52" stroke-miterlimit="10"/>
<path d="M545.595 248.872L546.373 247.085L547.952 248.378L546.633 250.047L545.595 248.872Z" fill="#7FFF52" stroke="#7FFF52" stroke-miterlimit="10"/>
<path d="M55.8622 361.606L56.5752 360.76C56.8038 361.046 56.9997 361.362 57.1585 361.7C57.1585 361.7 56.8128 362.217 56.748 362.17C56.4341 362.019 56.1369 361.83 55.8622 361.606Z" fill="#7FFF52" stroke="#7FFF52" stroke-miterlimit="10"/>
<path d="M491.435 292.837L492.732 293.472C492.527 294.046 492.235 294.578 491.867 295.047C491.673 295.235 491.046 294.812 490.635 294.671L491.435 292.837Z" fill="#7FFF52" stroke="#7FFF52" stroke-miterlimit="10"/>
</svg>
