<svg width="716" height="437" viewBox="0 0 716 437" fill="none" xmlns="http://www.w3.org/2000/svg">
<path d="M188.389 169.69L152.384 183.12C145.264 185.775 141.647 193.695 144.305 200.809C146.962 207.923 154.888 211.537 162.008 208.881L198.014 195.452C205.133 192.796 208.75 184.876 206.093 177.762C203.435 170.649 195.509 167.034 188.389 169.69Z" fill="white" stroke="#A157FF" stroke-width="2" stroke-miterlimit="10"/>
<path d="M152.778 181.794H110.573C102.226 181.794 95.4584 188.556 95.4584 196.897C95.4584 205.238 102.226 212 110.573 212H152.778C161.126 212 167.893 205.238 167.893 196.897C167.893 188.556 161.126 181.794 152.778 181.794Z" fill="white" stroke="#A157FF" stroke-width="2" stroke-miterlimit="10"/>
<path d="M507.198 200.002L508.82 200.261C508.269 200.264 507.721 200.176 507.198 200.002Z" fill="white" stroke="#A157FF" stroke-width="2" stroke-miterlimit="10"/>
<path d="M620.02 180.578C619.205 181.009 618.298 181.24 617.375 181.251L505.51 181.486L509.38 149.415L510.402 140.944L511.587 131.127L512.195 126.068L512.771 121.285L513.956 111.403L515.165 101.391L516.455 90.7956L517.323 83.5806L518.442 74.3145L518.588 73.131V72.8878C518.746 71.7211 519.201 70.6148 519.912 69.6759C520.623 68.7371 521.564 67.9977 522.645 67.5292C523.354 67.2311 524.115 67.0741 524.884 67.0671H525.12H537.711H548.664H559.13H569.377L620.32 66.9536H636.75L623.647 175.584C623.647 175.787 623.582 175.989 623.541 176.184C623.501 176.379 623.493 176.395 623.46 176.508C623.428 176.622 623.403 176.703 623.371 176.808C623.329 176.94 623.281 177.07 623.225 177.197C623.188 177.3 623.145 177.4 623.095 177.497C623.055 177.598 623.006 177.696 622.949 177.789C622.905 177.886 622.857 177.981 622.803 178.073C622.694 178.267 622.572 178.454 622.438 178.632L622.308 178.802C622.308 178.859 622.227 178.908 622.187 178.965C622.146 179.021 621.919 179.273 621.789 179.419C621.659 179.564 621.497 179.71 621.351 179.832H621.294L621.107 179.994L693.194 199.921L618.422 181.818C618.922 181.365 619.457 180.95 620.02 180.578Z" fill="white" stroke="#A157FF" stroke-width="2" stroke-miterlimit="10"/>
<path d="M643.93 7.41767L636.758 66.832L623.655 175.462C623.655 175.665 623.59 175.868 623.55 176.062C623.509 176.257 623.501 176.273 623.468 176.387C623.436 176.5 623.412 176.581 623.379 176.687C623.338 176.819 623.289 176.949 623.233 177.076C623.197 177.178 623.153 177.279 623.103 177.376C623.063 177.477 623.014 177.574 622.957 177.667C622.913 177.764 622.865 177.859 622.811 177.951C622.702 178.145 622.58 178.332 622.446 178.511L622.316 178.681C622.316 178.738 622.235 178.786 622.195 178.843C622.154 178.9 621.927 179.151 621.797 179.297C621.667 179.443 621.505 179.589 621.359 179.71H621.302L621.116 179.873C620.778 180.14 620.414 180.371 620.028 180.562C619.213 180.993 618.306 181.224 617.383 181.234L505.518 181.47L393.653 181.705C392.931 181.704 392.219 181.545 391.565 181.24C390.911 180.935 390.333 180.491 389.869 179.938C389.405 179.386 389.068 178.739 388.88 178.043C388.693 177.347 388.66 176.618 388.785 175.908L409.068 7.90408C409.262 6.35092 409.999 4.91599 411.147 3.85146C412.296 2.78693 413.783 2.16092 415.347 2.08343L639.054 1.62135C640.136 1.60989 641.19 1.96391 642.046 2.62605C642.902 3.28818 643.508 4.21962 643.768 5.26938C643.957 5.96876 644.013 6.69777 643.93 7.41767Z" fill="white" stroke="#A157FF" stroke-width="2" stroke-miterlimit="10"/>
<path d="M604.824 149.213L413.952 149.618C413.23 149.618 412.517 149.461 411.863 149.156C411.208 148.851 410.629 148.407 410.165 147.855C409.701 147.302 409.363 146.655 409.177 145.958C408.99 145.261 408.958 144.532 409.084 143.822L424.077 19.4562C424.268 17.8934 425.006 16.4486 426.162 15.3784C427.317 14.3083 428.815 13.6822 430.389 13.6112L621.253 13.2059C621.975 13.2069 622.687 13.3656 623.341 13.6707C623.995 13.9758 624.574 14.42 625.037 14.9722C625.501 15.5244 625.838 16.1712 626.026 16.8673C626.213 17.5635 626.246 18.2921 626.121 19.0022L611.112 143.392C610.92 144.948 610.184 146.386 609.033 147.451C607.882 148.516 606.391 149.14 604.824 149.213Z" fill="#A157FF" stroke="#A157FF" stroke-width="2" stroke-miterlimit="10"/>
<path d="M714.353 72.4338C714.353 72.4338 714.353 72.4338 714.353 72.4743L699.684 194.076C699.491 195.623 698.759 197.054 697.617 198.118C696.476 199.182 694.996 199.811 693.437 199.896H693.389H693.218L618.446 181.794C618.958 181.373 619.5 180.991 620.069 180.651L621.343 179.8H621.4C621.554 179.67 621.7 179.532 621.838 179.386C621.968 179.24 622.106 179.094 622.235 178.932C622.365 178.77 622.325 178.827 622.357 178.77C622.405 178.717 622.449 178.66 622.487 178.6C622.621 178.421 622.743 178.235 622.852 178.04C622.909 177.95 622.957 177.855 622.998 177.757C623.055 177.664 623.104 177.566 623.144 177.465C623.194 177.368 623.237 177.268 623.274 177.165C623.33 177.038 623.378 176.908 623.42 176.776C623.42 176.67 623.477 176.573 623.509 176.476C623.542 176.379 623.566 176.257 623.59 176.152C623.615 176.046 623.671 175.754 623.696 175.552L636.799 66.9212L643.768 5.26939L643.857 4.50735C643.857 4.35333 644.449 4.45871 644.547 4.58032L667.264 35.8075H667.304L710.751 66.8077L712.154 67.813C712.898 68.319 713.494 69.0136 713.88 69.8257C714.267 70.6377 714.43 71.5379 714.353 72.4338Z" fill="white" stroke="#A157FF" stroke-width="2" stroke-linejoin="bevel"/>
<path d="M693.21 199.823V199.872L508.82 200.237L507.197 199.977L393.612 181.697L505.477 181.461L617.343 181.226C618.266 181.216 619.172 180.985 619.988 180.554C619.419 180.894 618.877 181.276 618.365 181.697" fill="#A157FF"/>
<path d="M693.21 199.823V199.872L508.82 200.237L507.197 199.977L393.612 181.697L505.477 181.461L617.343 181.226C618.266 181.216 619.172 180.985 619.988 180.554C619.419 180.894 618.877 181.276 618.365 181.697" stroke="#A157FF" stroke-width="2" stroke-linejoin="round"/>
<path d="M512.195 140.976C544.834 140.976 571.292 114.539 571.292 81.9268C571.292 49.3146 544.834 22.8772 512.195 22.8772C479.557 22.8772 453.098 49.3146 453.098 81.9268C453.098 114.539 479.557 140.976 512.195 140.976Z" stroke="#7FFF52" stroke-width="2" stroke-miterlimit="10"/>
<path d="M512.195 131.135C539.394 131.135 561.443 109.104 561.443 81.9268C561.443 54.75 539.394 32.7188 512.195 32.7188C484.997 32.7188 462.948 54.75 462.948 81.9268C462.948 109.104 484.997 131.135 512.195 131.135Z" stroke="#7FFF52" stroke-width="2" stroke-miterlimit="10"/>
<path d="M512.195 121.293C533.954 121.293 551.593 103.668 551.593 81.9268C551.593 60.1853 533.954 42.5604 512.195 42.5604C490.436 42.5604 472.797 60.1853 472.797 81.9268C472.797 103.668 490.436 121.293 512.195 121.293Z" stroke="#7FFF52" stroke-width="2" stroke-miterlimit="10"/>
<path d="M512.195 111.452C528.514 111.452 541.744 98.2329 541.744 81.9268C541.744 65.6207 528.514 52.402 512.195 52.402C495.876 52.402 482.647 65.6207 482.647 81.9268C482.647 98.2329 495.876 111.452 512.195 111.452Z" stroke="#7FFF52" stroke-width="2" stroke-miterlimit="10"/>
<path d="M512.195 101.61C523.075 101.61 531.894 92.7975 531.894 81.9268C531.894 71.0561 523.075 62.2436 512.195 62.2436C501.316 62.2436 492.496 71.0561 492.496 81.9268C492.496 92.7975 501.316 101.61 512.195 101.61Z" stroke="#7FFF52" stroke-width="2" stroke-miterlimit="10"/>
<path d="M512.195 91.7684C517.635 91.7684 522.045 87.3622 522.045 81.9268C522.045 76.4914 517.635 72.0852 512.195 72.0852C506.755 72.0852 502.346 76.4914 502.346 81.9268C502.346 87.3622 506.755 91.7684 512.195 91.7684Z" stroke="#7FFF52" stroke-width="2" stroke-miterlimit="10"/>
<path d="M512.195 81.9268V140.976" stroke="#7FFF52" stroke-width="2" stroke-miterlimit="10"/>
<path d="M512.195 81.9268L568.396 100.175" stroke="#7FFF52" stroke-width="2" stroke-miterlimit="10"/>
<path d="M512.195 81.9268L546.928 34.1537" stroke="#7FFF52" stroke-width="2" stroke-miterlimit="10"/>
<path d="M512.195 81.9268L477.454 34.1537" stroke="url(#paint0_linear_174_15944)" stroke-width="2" stroke-miterlimit="10"/>
<path d="M512.195 81.9268L455.987 100.175" stroke="#7FFF52" stroke-width="2" stroke-miterlimit="10"/>
<path d="M559.431 53.2127C559.236 53.083 559.049 52.9614 558.855 52.8479L558.279 52.4912C556.745 50.7888 554.628 50.124 552.461 51.3157C552.218 51.3157 551.966 51.3968 551.715 51.4454C551.058 51.7129 549.597 51.0563 548.559 50.7158C548.205 50.6341 547.843 50.5879 547.48 50.578C545.314 50.5293 543.09 52.0048 540.867 53.4316C540.867 51.4454 540.867 49.5971 540.908 47.6271V31.9325C540.906 29.6111 541.826 27.3837 543.465 25.7392C545.105 24.0946 547.331 23.1674 549.654 23.161H550.595C551.75 23.1578 552.893 23.3823 553.961 23.8218C555.028 24.2613 555.998 24.907 556.816 25.722C557.633 26.5369 558.281 27.505 558.722 28.5707C559.164 29.6365 559.391 30.7789 559.39 31.9325C559.39 35.4994 559.39 41.4498 559.39 42.0092V43.7764C559.39 43.9223 559.39 44.5466 559.39 44.7817C559.39 45.5923 559.39 46.1436 559.39 46.403C559.39 46.8975 559.39 47.7731 559.39 49.5079C559.39 50.6834 559.39 51.1941 559.39 52.2156L559.431 53.2127Z" fill="white" stroke="#A157FF" stroke-width="2" stroke-miterlimit="10"/>
<path d="M546.928 37.3073C547.797 37.3073 548.502 36.6031 548.502 35.7345C548.502 34.866 547.797 34.1618 546.928 34.1618C546.059 34.1618 545.354 34.866 545.354 35.7345C545.354 36.6031 546.059 37.3073 546.928 37.3073Z" fill="#DA69A8" stroke="#A157FF" stroke-width="2" stroke-miterlimit="10"/>
<path d="M553.135 37.3073C554.004 37.3073 554.709 36.6031 554.709 35.7345C554.709 34.866 554.004 34.1618 553.135 34.1618C552.266 34.1618 551.561 34.866 551.561 35.7345C551.561 36.6031 552.266 37.3073 553.135 37.3073Z" fill="#DA69A8" stroke="#A157FF" stroke-width="2" stroke-miterlimit="10"/>
<path d="M543.326 49.5728C544.01 48.9706 544.563 48.2337 544.948 47.4083C545.57 46.0326 545.713 44.4887 545.354 43.0225" fill="white"/>
<path d="M543.326 49.5728C544.01 48.9706 544.563 48.2337 544.948 47.4083C545.57 46.0326 545.713 44.4887 545.354 43.0225" stroke="#A157FF" stroke-width="2" stroke-miterlimit="10"/>
<path d="M551.277 47.9514C552.723 47.1969 553.907 46.0245 554.676 44.5871C555.097 43.7622 555.371 42.8708 555.488 41.9524" fill="white"/>
<path d="M551.277 47.9514C552.723 47.1969 553.907 46.0245 554.676 44.5871C555.097 43.7622 555.371 42.8708 555.488 41.9524" stroke="#A157FF" stroke-width="2" stroke-miterlimit="10"/>
<path d="M557.581 48.2919C557.209 47.5101 557.002 46.6602 556.972 45.795C556.946 44.3604 557.397 42.9577 558.254 41.8065" fill="white"/>
<path d="M557.581 48.2919C557.209 47.5101 557.002 46.6602 556.972 45.795C556.946 44.3604 557.397 42.9577 558.254 41.8065" stroke="#A157FF" stroke-width="2" stroke-miterlimit="10"/>
<path d="M532.259 44.5709V56.6662H543.155" stroke="white" stroke-width="2" stroke-miterlimit="10"/>
<path d="M532.259 31.7541V19.6508H543.155" stroke="white" stroke-width="2" stroke-miterlimit="10"/>
<path d="M569.077 44.5709V56.6662H558.173" stroke="white" stroke-width="2" stroke-miterlimit="10"/>
<path d="M569.077 31.7541V19.6508H558.173" stroke="white" stroke-width="2" stroke-miterlimit="10"/>
<path d="M450.299 47.4812H448.798V48.981H450.299V47.4812Z" fill="#E63F31"/>
<path d="M451.8 47.4812H450.299V48.981H451.8V47.4812Z" fill="#E63F31"/>
<path d="M447.289 48.9891H445.788V50.4888H447.289V48.9891Z" fill="#E63F31"/>
<path d="M448.79 48.9891H447.289V50.4888H448.79V48.9891Z" fill="#E63F31"/>
<path d="M450.299 48.9891H448.798V50.4888H450.299V48.9891Z" fill="#E63F31"/>
<path d="M451.8 48.9891H450.299V50.4888H451.8V48.9891Z" fill="#E63F31"/>
<path d="M445.788 50.4888H444.287V51.9886H445.788V50.4888Z" fill="#E63F31"/>
<path d="M447.289 50.4888H445.788V51.9886H447.289V50.4888Z" fill="#E63F31"/>
<path d="M448.79 50.4888H447.289V51.9886H448.79V50.4888Z" fill="#E63F31"/>
<path d="M450.299 50.4888H448.798V51.9886H450.299V50.4888Z" fill="#E63F31"/>
<path d="M451.8 50.4888H450.299V51.9886H451.8V50.4888Z" fill="#E63F31"/>
<path d="M444.279 51.9886H442.778V53.4883H444.279V51.9886Z" fill="#E63F31"/>
<path d="M445.788 51.9886H444.287V53.4883H445.788V51.9886Z" fill="#E63F31"/>
<path d="M447.289 51.9886H445.788V53.4883H447.289V51.9886Z" fill="#E63F31"/>
<path d="M448.79 51.9886H447.289V53.4883H448.79V51.9886Z" fill="#E63F31"/>
<path d="M450.299 51.9886H448.798V53.4883H450.299V51.9886Z" fill="#BB264A"/>
<path d="M451.8 51.9886H450.299V53.4883H451.8V51.9886Z" fill="#BB264A"/>
<path d="M442.778 53.4964H441.277V54.9962H442.778V53.4964Z" fill="#E63F31"/>
<path d="M444.279 53.4964H442.778V54.9962H444.279V53.4964Z" fill="#E63F31"/>
<path d="M445.788 53.4964H444.287V54.9962H445.788V53.4964Z" fill="#E63F31"/>
<path d="M447.289 53.4964H445.788V54.9962H447.289V53.4964Z" fill="#BB264A"/>
<path d="M448.79 53.4964H447.289V54.9962H448.79V53.4964Z" fill="#BB264A"/>
<path d="M450.299 53.4964H448.798V54.9962H450.299V53.4964Z" fill="#BB264A"/>
<path d="M451.8 53.4964H450.299V54.9962H451.8V53.4964Z" fill="#7C4E45"/>
<path d="M442.778 54.9962H441.277V56.4959H442.778V54.9962Z" fill="#E63F31"/>
<path d="M444.279 54.9962H442.778V56.4959H444.279V54.9962Z" fill="#BB264A"/>
<path d="M445.788 54.9962H444.287V56.4959H445.788V54.9962Z" fill="#BB264A"/>
<path d="M447.289 54.9962H445.788V56.4959H447.289V54.9962Z" fill="#BB264A"/>
<path d="M448.79 54.9962H447.289V56.4959H448.79V54.9962Z" fill="#7C4E45"/>
<path d="M450.299 54.9962H448.798V56.4959H450.299V54.9962Z" fill="#7C4E45"/>
<path d="M451.8 54.9962H450.299V56.4959H451.8V54.9962Z" fill="#A96C5C"/>
<path d="M441.277 56.4959H439.776V57.9957H441.277V56.4959Z" fill="#BB264A"/>
<path d="M442.778 56.4959H441.277V57.9957H442.778V56.4959Z" fill="#BB264A"/>
<path d="M444.279 56.4959H442.778V57.9957H444.279V56.4959Z" fill="#BB264A"/>
<path d="M445.788 56.4959H444.287V57.9957H445.788V56.4959Z" fill="#BB264A"/>
<path d="M447.289 56.4959H445.788V57.9957H447.289V56.4959Z" fill="#7C4E45"/>
<path d="M448.79 56.4959H447.289V57.9957H448.79V56.4959Z" fill="#A96C5C"/>
<path d="M450.299 56.4959H448.798V57.9957H450.299V56.4959Z" fill="#A96C5C"/>
<path d="M451.8 56.4959H450.299V57.9957H451.8V56.4959Z" fill="#E63F31"/>
<path d="M441.277 58.0038H439.776V59.5035H441.277V58.0038Z" fill="#BB264A"/>
<path d="M442.778 58.0038H441.277V59.5035H442.778V58.0038Z" fill="#BB264A"/>
<path d="M444.279 58.0038H442.778V59.5035H444.279V58.0038Z" fill="#060608"/>
<path d="M445.788 58.0038H444.287V59.5035H445.788V58.0038Z" fill="#060608"/>
<path d="M447.289 58.0038H445.788V59.5035H447.289V58.0038Z" fill="#A96C5C"/>
<path d="M448.79 58.0038H447.289V59.5035H448.79V58.0038Z" fill="#060608"/>
<path d="M450.299 58.0038H448.798V59.5035H450.299V58.0038Z" fill="#060608"/>
<path d="M451.8 58.0038H450.299V59.5035H451.8V58.0038Z" fill="#E63F31"/>
<path d="M442.778 59.5035H441.277V61.0033H442.778V59.5035Z" fill="#BB264A"/>
<path d="M444.279 59.5035H442.778V61.0033H444.279V59.5035Z" fill="#060608"/>
<path d="M445.788 59.5035H444.287V61.0033H445.788V59.5035Z" fill="#A96C5C"/>
<path d="M447.289 59.5035H445.788V61.0033H447.289V59.5035Z" fill="#060608"/>
<path d="M448.79 59.5035H447.289V61.0033H448.79V59.5035Z" fill="#A96C5C"/>
<path d="M450.299 59.5035H448.798V61.0033H450.299V59.5035Z" fill="#A96C5C"/>
<path d="M451.8 59.5035H450.299V61.0033H451.8V59.5035Z" fill="#A96C5C"/>
<path d="M444.279 61.0033H442.778V62.503H444.279V61.0033Z" fill="#7C4E45"/>
<path d="M445.788 61.0033H444.287V62.503H445.788V61.0033Z" fill="#060608"/>
<path d="M447.289 61.0033H445.788V62.503H447.289V61.0033Z" fill="#A96C5C"/>
<path d="M448.79 61.0033H447.289V62.503H448.79V61.0033Z" fill="#060608"/>
<path d="M450.299 61.0033H448.798V62.503H450.299V61.0033Z" fill="#7C4E45"/>
<path d="M451.8 61.0033H450.299V62.503H451.8V61.0033Z" fill="#A96C5C"/>
<path d="M444.279 62.5111H442.778V64.0109H444.279V62.5111Z" fill="#7C4E45"/>
<path d="M445.788 62.5111H444.287V64.0109H445.788V62.5111Z" fill="#060608"/>
<path d="M447.289 62.5111H445.788V64.0109H447.289V62.5111Z" fill="#A96C5C"/>
<path d="M448.79 62.5111H447.289V64.0109H448.79V62.5111Z" fill="#060608"/>
<path d="M450.299 62.5111H448.798V64.0109H450.299V62.5111Z" fill="#7C4E45"/>
<path d="M451.8 62.5111H450.299V64.0109H451.8V62.5111Z" fill="#A96C5C"/>
<path d="M445.788 64.0109H444.287V65.5106H445.788V64.0109Z" fill="#060608"/>
<path d="M447.289 64.0109H445.788V65.5106H447.289V64.0109Z" fill="#A96C5C"/>
<path d="M448.79 64.0109H447.289V65.5106H448.79V64.0109Z" fill="#A96C5C"/>
<path d="M450.299 64.0109H448.798V65.5106H450.299V64.0109Z" fill="#A96C5C"/>
<path d="M451.8 64.0109H450.299V65.5106H451.8V64.0109Z" fill="#A96C5C"/>
<path d="M445.788 65.5187H444.287V67.0185H445.788V65.5187Z" fill="#060608"/>
<path d="M447.289 65.5187H445.788V67.0185H447.289V65.5187Z" fill="#060608"/>
<path d="M448.79 65.5187H447.289V67.0185H448.79V65.5187Z" fill="#A96C5C"/>
<path d="M450.299 65.5187H448.798V67.0185H450.299V65.5187Z" fill="white"/>
<path d="M451.8 65.5187H450.299V67.0185H451.8V65.5187Z" fill="white"/>
<path d="M447.289 67.0185H445.788V68.5182H447.289V67.0185Z" fill="#060608"/>
<path d="M448.79 67.0185H447.289V68.5182H448.79V67.0185Z" fill="#A96C5C"/>
<path d="M450.299 67.0185H448.798V68.5182H450.299V67.0185Z" fill="#A96C5C"/>
<path d="M451.8 67.0185H450.299V68.5182H451.8V67.0185Z" fill="white"/>
<path d="M447.289 68.5182H445.788V70.018H447.289V68.5182Z" fill="#060608"/>
<path d="M448.79 68.5182H447.289V70.018H448.79V68.5182Z" fill="#060608"/>
<path d="M450.299 68.5182H448.798V70.018H450.299V68.5182Z" fill="#A96C5C"/>
<path d="M451.8 68.5182H450.299V70.018H451.8V68.5182Z" fill="#A96C5C"/>
<path d="M448.79 70.0261H447.289V71.5258H448.79V70.0261Z" fill="#060608"/>
<path d="M450.299 70.0261H448.798V71.5258H450.299V70.0261Z" fill="#060608"/>
<path d="M451.8 70.0261H450.299V71.5258H451.8V70.0261Z" fill="#060608"/>
<path d="M442.778 71.5258H441.277V73.0256H442.778V71.5258Z" fill="#F8EC00"/>
<path d="M444.279 71.5258H442.778V73.0256H444.279V71.5258Z" fill="#F8EC00"/>
<path d="M445.788 71.5258H444.287V73.0256H445.788V71.5258Z" fill="#F8EC00"/>
<path d="M447.289 71.5258H445.788V73.0256H447.289V71.5258Z" fill="#F15855"/>
<path d="M448.79 71.5258H447.289V73.0256H448.79V71.5258Z" fill="#F8EC00"/>
<path d="M450.299 71.5258H448.798V73.0256H450.299V71.5258Z" fill="#060608"/>
<path d="M451.8 71.5258H450.299V73.0256H451.8V71.5258Z" fill="#060608"/>
<path d="M441.277 73.0256H439.776V74.5253H441.277V73.0256Z" fill="#F8EC00"/>
<path d="M442.778 73.0256H441.277V74.5253H442.778V73.0256Z" fill="#F8EC00"/>
<path d="M444.279 73.0256H442.778V74.5253H444.279V73.0256Z" fill="#F8EC00"/>
<path d="M445.788 73.0256H444.287V74.5253H445.788V73.0256Z" fill="#F8EC00"/>
<path d="M447.289 73.0256H445.788V74.5253H447.289V73.0256Z" fill="#F15855"/>
<path d="M448.79 73.0256H447.289V74.5253H448.79V73.0256Z" fill="#F15855"/>
<path d="M450.299 73.0256H448.798V74.5253H450.299V73.0256Z" fill="#A96C5C"/>
<path d="M451.8 73.0256H450.299V74.5253H451.8V73.0256Z" fill="#060608"/>
<path d="M441.277 74.5334H439.776V76.0332H441.277V74.5334Z" fill="#F8EC00"/>
<path d="M442.778 74.5334H441.277V76.0332H442.778V74.5334Z" fill="#F8EC00"/>
<path d="M444.279 74.5334H442.778V76.0332H444.279V74.5334Z" fill="#F8EC00"/>
<path d="M445.788 74.5334H444.287V76.0332H445.788V74.5334Z" fill="#F8EC00"/>
<path d="M447.289 74.5334H445.788V76.0332H447.289V74.5334Z" fill="#FAA726"/>
<path d="M448.79 74.5334H447.289V76.0332H448.79V74.5334Z" fill="#F15855"/>
<path d="M450.299 74.5334H448.798V76.0332H450.299V74.5334Z" fill="#A96C5C"/>
<path d="M451.8 74.5334H450.299V76.0332H451.8V74.5334Z" fill="#A96C5C"/>
<path d="M441.277 76.0332H439.776V77.533H441.277V76.0332Z" fill="#F8EC00"/>
<path d="M442.778 76.0332H441.277V77.533H442.778V76.0332Z" fill="#F8EC00"/>
<path d="M444.279 76.0332H442.778V77.533H444.279V76.0332Z" fill="#F8EC00"/>
<path d="M445.788 76.0332H444.287V77.533H445.788V76.0332Z" fill="#F8EC00"/>
<path d="M447.289 76.0332H445.788V77.533H447.289V76.0332Z" fill="#F8EC00"/>
<path d="M448.79 76.0332H447.289V77.533H448.79V76.0332Z" fill="#BB264A"/>
<path d="M450.299 76.0332H448.798V77.533H450.299V76.0332Z" fill="#F15855"/>
<path d="M451.8 76.0332H450.299V77.533H451.8V76.0332Z" fill="#A96C5C"/>
<path d="M439.776 79.0408H441.277V78.8138L439.776 78.4895V79.0408Z" fill="#F8EC00"/>
<path d="M439.776 77.5329V78.4895L441.277 78.8138V77.5329H439.776Z" fill="#F8EC00"/>
<path d="M441.277 78.8138V79.0408H442.511L441.862 78.9192L441.277 78.8138Z" fill="#F8EC00"/>
<path d="M442.786 77.5329H441.277V78.8138L441.862 78.9192L442.511 79.0408H442.786V77.5329Z" fill="#F8EC00"/>
<path d="M444.279 77.5329H442.778V79.0327H444.279V77.5329Z" fill="#FAA726"/>
<path d="M447.289 77.5329H445.788V79.0327H447.289V77.5329Z" fill="#F8EC00"/>
<path d="M448.79 77.5329H447.289V79.0327H448.79V77.5329Z" fill="#FAA726"/>
<path d="M450.299 77.5329H448.798V79.0327H450.299V77.5329Z" fill="#BB264A"/>
<path d="M451.8 77.5329H450.299V79.0327H451.8V77.5329Z" fill="#BB264A"/>
<path d="M442.511 79.0408L442.788 79.0898V79.0408H442.511Z" fill="#FAA726"/>
<path d="M442.786 79.0894L442.511 79.0408H441.277L442.786 79.0894Z" fill="#FAA726"/>
<path d="M442.786 79.0408V79.0894L444.287 79.3651V79.0408H442.786Z" fill="#FAA726"/>
<path d="M454.818 47.4812H453.317V48.981H454.818V47.4812Z" fill="#E63F31"/>
<path d="M453.309 47.4812H451.808V48.981H453.309V47.4812Z" fill="#E63F31"/>
<path d="M457.82 48.9891H456.319V50.4888H457.82V48.9891Z" fill="#E63F31"/>
<path d="M456.319 48.9891H454.818V50.4888H456.319V48.9891Z" fill="#E63F31"/>
<path d="M454.818 48.9891H453.317V50.4888H454.818V48.9891Z" fill="#E63F31"/>
<path d="M453.309 48.9891H451.808V50.4888H453.309V48.9891Z" fill="#E63F31"/>
<path d="M459.329 50.4888H457.828V51.9886H459.329V50.4888Z" fill="#E63F31"/>
<path d="M457.82 50.4888H456.319V51.9886H457.82V50.4888Z" fill="#E63F31"/>
<path d="M456.319 50.4888H454.818V51.9886H456.319V50.4888Z" fill="#E63F31"/>
<path d="M454.818 50.4888H453.317V51.9886H454.818V50.4888Z" fill="#E63F31"/>
<path d="M453.309 50.4888H451.808V51.9886H453.309V50.4888Z" fill="#E63F31"/>
<path d="M460.83 51.9886H459.329V53.4883H460.83V51.9886Z" fill="#E63F31"/>
<path d="M459.329 51.9886H457.828V53.4883H459.329V51.9886Z" fill="#E63F31"/>
<path d="M457.82 51.9886H456.319V53.4883H457.82V51.9886Z" fill="#E63F31"/>
<path d="M456.319 51.9886H454.818V53.4883H456.319V51.9886Z" fill="#E63F31"/>
<path d="M454.818 51.9886H453.317V53.4883H454.818V51.9886Z" fill="#BB264A"/>
<path d="M453.309 51.9886H451.808V53.4883H453.309V51.9886Z" fill="#BB264A"/>
<path d="M462.331 53.4964H460.83V54.9962H462.331V53.4964Z" fill="#E63F31"/>
<path d="M460.83 53.4964H459.329V54.9962H460.83V53.4964Z" fill="#E63F31"/>
<path d="M459.329 53.4964H457.828V54.9962H459.329V53.4964Z" fill="#E63F31"/>
<path d="M457.82 53.4964H456.319V54.9962H457.82V53.4964Z" fill="#BB264A"/>
<path d="M456.319 53.4964H454.818V54.9962H456.319V53.4964Z" fill="#BB264A"/>
<path d="M454.818 53.4964H453.317V54.9962H454.818V53.4964Z" fill="#BB264A"/>
<path d="M453.309 53.4964H451.808V54.9962H453.309V53.4964Z" fill="#7C4E45"/>
<path d="M462.331 54.9962H460.83V56.4959H462.331V54.9962Z" fill="#E63F31"/>
<path d="M460.83 54.9962H459.329V56.4959H460.83V54.9962Z" fill="#BB264A"/>
<path d="M459.329 54.9962H457.828V56.4959H459.329V54.9962Z" fill="#BB264A"/>
<path d="M457.82 54.9962H456.319V56.4959H457.82V54.9962Z" fill="#BB264A"/>
<path d="M456.319 54.9962H454.818V56.4959H456.319V54.9962Z" fill="#7C4E45"/>
<path d="M454.818 54.9962H453.317V56.4959H454.818V54.9962Z" fill="#7C4E45"/>
<path d="M453.309 54.9962H451.808V56.4959H453.309V54.9962Z" fill="#A96C5C"/>
<path d="M463.84 56.4959H462.339V57.9957H463.84V56.4959Z" fill="#BB264A"/>
<path d="M462.331 56.4959H460.83V57.9957H462.331V56.4959Z" fill="#BB264A"/>
<path d="M460.83 56.4959H459.329V57.9957H460.83V56.4959Z" fill="#BB264A"/>
<path d="M459.329 56.4959H457.828V57.9957H459.329V56.4959Z" fill="#BB264A"/>
<path d="M457.82 56.4959H456.319V57.9957H457.82V56.4959Z" fill="#7C4E45"/>
<path d="M456.319 56.4959H454.818V57.9957H456.319V56.4959Z" fill="#A96C5C"/>
<path d="M454.818 56.4959H453.317V57.9957H454.818V56.4959Z" fill="#A96C5C"/>
<path d="M453.309 56.4959H451.808V57.9957H453.309V56.4959Z" fill="#E63F31"/>
<path d="M463.84 58.0038H462.339V59.5035H463.84V58.0038Z" fill="#BB264A"/>
<path d="M462.331 58.0038H460.83V59.5035H462.331V58.0038Z" fill="#BB264A"/>
<path d="M460.83 58.0038H459.329V59.5035H460.83V58.0038Z" fill="#060608"/>
<path d="M459.329 58.0038H457.828V59.5035H459.329V58.0038Z" fill="#060608"/>
<path d="M457.82 58.0038H456.319V59.5035H457.82V58.0038Z" fill="#A96C5C"/>
<path d="M456.319 58.0038H454.818V59.5035H456.319V58.0038Z" fill="#060608"/>
<path d="M454.818 58.0038H453.317V59.5035H454.818V58.0038Z" fill="#060608"/>
<path d="M453.309 58.0038H451.808V59.5035H453.309V58.0038Z" fill="#E63F31"/>
<path d="M462.331 59.5035H460.83V61.0033H462.331V59.5035Z" fill="#BB264A"/>
<path d="M460.83 59.5035H459.329V61.0033H460.83V59.5035Z" fill="#060608"/>
<path d="M459.329 59.5035H457.828V61.0033H459.329V59.5035Z" fill="#A96C5C"/>
<path d="M457.82 59.5035H456.319V61.0033H457.82V59.5035Z" fill="#060608"/>
<path d="M456.319 59.5035H454.818V61.0033H456.319V59.5035Z" fill="#A96C5C"/>
<path d="M454.818 59.5035H453.317V61.0033H454.818V59.5035Z" fill="#A96C5C"/>
<path d="M453.309 59.5035H451.808V61.0033H453.309V59.5035Z" fill="#A96C5C"/>
<path d="M460.83 61.0033H459.329V62.503H460.83V61.0033Z" fill="#7C4E45"/>
<path d="M459.329 61.0033H457.828V62.503H459.329V61.0033Z" fill="#060608"/>
<path d="M457.82 61.0033H456.319V62.503H457.82V61.0033Z" fill="#A96C5C"/>
<path d="M456.319 61.0033H454.818V62.503H456.319V61.0033Z" fill="#060608"/>
<path d="M454.818 61.0033H453.317V62.503H454.818V61.0033Z" fill="#7C4E45"/>
<path d="M453.309 61.0033H451.808V62.503H453.309V61.0033Z" fill="#A96C5C"/>
<path d="M460.83 62.5111H459.329V64.0109H460.83V62.5111Z" fill="#7C4E45"/>
<path d="M459.329 62.5111H457.828V64.0109H459.329V62.5111Z" fill="#060608"/>
<path d="M457.82 62.5111H456.319V64.0109H457.82V62.5111Z" fill="#A96C5C"/>
<path d="M456.319 62.5111H454.818V64.0109H456.319V62.5111Z" fill="#060608"/>
<path d="M454.818 62.5111H453.317V64.0109H454.818V62.5111Z" fill="#7C4E45"/>
<path d="M453.309 62.5111H451.808V64.0109H453.309V62.5111Z" fill="#A96C5C"/>
<path d="M459.329 64.0109H457.828V65.5106H459.329V64.0109Z" fill="#060608"/>
<path d="M457.82 64.0109H456.319V65.5106H457.82V64.0109Z" fill="#A96C5C"/>
<path d="M456.319 64.0109H454.818V65.5106H456.319V64.0109Z" fill="#A96C5C"/>
<path d="M454.818 64.0109H453.317V65.5106H454.818V64.0109Z" fill="#A96C5C"/>
<path d="M453.309 64.0109H451.808V65.5106H453.309V64.0109Z" fill="#A96C5C"/>
<path d="M459.329 65.5187H457.828V67.0185H459.329V65.5187Z" fill="#060608"/>
<path d="M457.82 65.5187H456.319V67.0185H457.82V65.5187Z" fill="#060608"/>
<path d="M456.319 65.5187H454.818V67.0185H456.319V65.5187Z" fill="#A96C5C"/>
<path d="M454.818 65.5187H453.317V67.0185H454.818V65.5187Z" fill="white"/>
<path d="M453.309 65.5187H451.808V67.0185H453.309V65.5187Z" fill="white"/>
<path d="M457.82 67.0185H456.319V68.5182H457.82V67.0185Z" fill="#060608"/>
<path d="M456.319 67.0185H454.818V68.5182H456.319V67.0185Z" fill="#A96C5C"/>
<path d="M454.818 67.0185H453.317V68.5182H454.818V67.0185Z" fill="#A96C5C"/>
<path d="M453.309 67.0185H451.808V68.5182H453.309V67.0185Z" fill="white"/>
<path d="M457.82 68.5182H456.319V70.018H457.82V68.5182Z" fill="#060608"/>
<path d="M456.319 68.5182H454.818V70.018H456.319V68.5182Z" fill="#060608"/>
<path d="M454.818 68.5182H453.317V70.018H454.818V68.5182Z" fill="#A96C5C"/>
<path d="M453.309 68.5182H451.808V70.018H453.309V68.5182Z" fill="#A96C5C"/>
<path d="M456.319 70.0261H454.818V71.5258H456.319V70.0261Z" fill="#060608"/>
<path d="M454.818 70.0261H453.317V71.5258H454.818V70.0261Z" fill="#060608"/>
<path d="M453.309 70.0261H451.808V71.5258H453.309V70.0261Z" fill="#060608"/>
<path d="M462.331 71.5258H460.83V73.0256H462.331V71.5258Z" fill="#F8EC00"/>
<path d="M460.83 71.5258H459.329V73.0256H460.83V71.5258Z" fill="#F8EC00"/>
<path d="M459.329 71.5258H457.828V73.0256H459.329V71.5258Z" fill="#F8EC00"/>
<path d="M457.82 71.5258H456.319V73.0256H457.82V71.5258Z" fill="#F15855"/>
<path d="M456.319 71.5258H454.818V73.0256H456.319V71.5258Z" fill="#F8EC00"/>
<path d="M454.818 71.5258H453.317V73.0256H454.818V71.5258Z" fill="#060608"/>
<path d="M453.309 71.5258H451.808V73.0256H453.309V71.5258Z" fill="#060608"/>
<path d="M463.84 73.0256H462.339V74.5253H463.84V73.0256Z" fill="#F8EC00"/>
<path d="M462.331 73.0256H460.83V74.5253H462.331V73.0256Z" fill="#F8EC00"/>
<path d="M460.83 73.0256H459.329V74.5253H460.83V73.0256Z" fill="#F8EC00"/>
<path d="M459.329 73.0256H457.828V74.5253H459.329V73.0256Z" fill="#F8EC00"/>
<path d="M457.82 73.0256H456.319V74.5253H457.82V73.0256Z" fill="#F15855"/>
<path d="M456.319 73.0256H454.818V74.5253H456.319V73.0256Z" fill="#F15855"/>
<path d="M454.818 73.0256H453.317V74.5253H454.818V73.0256Z" fill="#A96C5C"/>
<path d="M453.309 73.0256H451.808V74.5253H453.309V73.0256Z" fill="#060608"/>
<path d="M463.84 74.5334H462.339V76.0332H463.84V74.5334Z" fill="#F8EC00"/>
<path d="M462.331 74.5334H460.83V76.0332H462.331V74.5334Z" fill="#F8EC00"/>
<path d="M460.83 74.5334H459.329V76.0332H460.83V74.5334Z" fill="#F8EC00"/>
<path d="M459.329 74.5334H457.828V76.0332H459.329V74.5334Z" fill="#F8EC00"/>
<path d="M456.319 76.0332H457.82V74.5335H456.319V76.0332Z" fill="#FAA726"/>
<path d="M456.319 74.5334H454.818V76.0332H456.319V74.5334Z" fill="#F15855"/>
<path d="M454.818 74.5334H453.317V76.0332H454.818V74.5334Z" fill="#A96C5C"/>
<path d="M453.309 74.5334H451.808V76.0332H453.309V74.5334Z" fill="#A96C5C"/>
<path d="M463.84 76.0332H462.339V77.533H463.84V76.0332Z" fill="#F8EC00"/>
<path d="M462.331 76.0332H460.83V77.533H462.331V76.0332Z" fill="#F8EC00"/>
<path d="M460.83 76.0332H459.329V77.533H460.83V76.0332Z" fill="#F8EC00"/>
<path d="M459.329 76.0332H457.828V77.533H459.329V76.0332Z" fill="#F8EC00"/>
<path d="M457.82 76.0332H456.319V77.533H457.82V76.0332Z" fill="#F8EC00"/>
<path d="M456.319 76.0332H454.818V77.533H456.319V76.0332Z" fill="#BB264A"/>
<path d="M454.818 76.0332H453.317V77.533H454.818V76.0332Z" fill="#F15855"/>
<path d="M453.309 76.0332H451.808V77.533H453.309V76.0332Z" fill="#A96C5C"/>
<path d="M463.84 77.5329H462.339V79.0327H463.84V77.5329Z" fill="#F8EC00"/>
<path d="M462.331 77.5329H460.83V79.0327H462.331V77.5329Z" fill="#F8EC00"/>
<path d="M460.83 77.5329H459.329V79.0327H460.83V77.5329Z" fill="#FAA726"/>
<path d="M457.82 77.5329H456.319V79.0327H457.82V77.5329Z" fill="#F8EC00"/>
<path d="M456.319 77.5329H454.818V79.0327H456.319V77.5329Z" fill="#FAA726"/>
<path d="M454.818 77.5329H453.317V79.0327H454.818V77.5329Z" fill="#BB264A"/>
<path d="M453.309 77.5329H451.808V79.0327H453.309V77.5329Z" fill="#BB264A"/>
<path d="M432.815 68.6561V80.7513H443.719" stroke="#5DFB25" stroke-width="2" stroke-miterlimit="10"/>
<path d="M432.815 55.8393V43.7359H443.719" stroke="#5DFB25" stroke-width="2" stroke-miterlimit="10"/>
<path d="M469.641 68.6561V80.7513H458.737" stroke="#5DFB25" stroke-width="2" stroke-miterlimit="10"/>
<path d="M469.641 55.8393V43.7359H458.737" stroke="#5DFB25" stroke-width="2" stroke-miterlimit="10"/>
<path d="M546.928 235.687C577.124 235.687 601.603 232.871 601.603 229.397C601.603 225.922 577.124 223.106 546.928 223.106C516.732 223.106 492.253 225.922 492.253 229.397C492.253 232.871 516.732 235.687 546.928 235.687Z" stroke="#7FFF52" stroke-width="2" stroke-miterlimit="10"/>
<path d="M547.05 244.524C574.118 244.524 596.062 241.707 596.062 238.233C596.062 234.759 574.118 231.942 547.05 231.942C519.981 231.942 498.038 234.759 498.038 238.233C498.038 241.707 519.981 244.524 547.05 244.524Z" stroke="#7FFF52" stroke-width="2" stroke-miterlimit="10"/>
<path d="M547.301 254.892C565.722 254.892 580.655 252.076 580.655 248.602C580.655 245.127 565.722 242.311 547.301 242.311C528.881 242.311 513.948 245.127 513.948 248.602C513.948 252.076 528.881 254.892 547.301 254.892Z" stroke="#7FFF52" stroke-width="2" stroke-miterlimit="10"/>
<path d="M546.928 264.815C557.687 264.815 566.408 261.999 566.408 258.524C566.408 255.05 557.687 252.233 546.928 252.233C536.17 252.233 527.448 255.05 527.448 258.524C527.448 261.999 536.17 264.815 546.928 264.815Z" stroke="#7FFF52" stroke-width="2" stroke-miterlimit="10"/>
<path d="M546.928 274.089C550.974 274.089 554.254 271.273 554.254 267.798C554.254 264.324 550.974 261.507 546.928 261.507C542.882 261.507 539.602 264.324 539.602 267.798C539.602 271.273 542.882 274.089 546.928 274.089Z" stroke="#7FFF52" stroke-width="2" stroke-miterlimit="10"/>
<path d="M543.155 205.806C549.473 205.806 554.595 202.155 554.595 197.651C554.595 193.147 549.473 189.495 543.155 189.495C536.837 189.495 531.716 193.147 531.716 197.651C531.716 202.155 536.837 205.806 543.155 205.806Z" fill="#A157FF" stroke="white" stroke-width="2" stroke-miterlimit="10"/>
<path d="M647.427 142.022C645.269 140.976 643.784 137.782 644.133 134.913L653.504 58.4821C653.853 55.6123 655.938 54.1207 658.071 55.1664C660.238 56.2122 661.722 59.4144 661.374 62.2761L652.027 138.715C651.646 141.576 649.593 143.068 647.427 142.022Z" fill="#A157FF"/>
<path d="M661.098 148.621C658.931 147.575 657.447 144.373 657.804 141.511L667.15 65.081C667.499 62.2112 669.584 60.7195 671.718 61.7653C673.876 62.8111 675.361 66.0051 675.012 68.8749L665.674 145.305C665.317 148.175 663.24 149.667 661.098 148.621Z" fill="#A157FF"/>
<path d="M674.76 155.22C672.602 154.174 671.118 150.972 671.467 148.11L680.813 71.6718C681.162 68.8101 683.247 67.3184 685.381 68.3642C687.547 69.4019 689.032 72.604 688.683 75.4738L679.336 151.904C678.987 154.766 676.927 156.258 674.76 155.22Z" fill="#A157FF"/>
<path d="M511.692 168.499C511.694 168.679 511.659 168.858 511.591 169.025C511.523 169.192 511.422 169.344 511.295 169.472L509.745 171.012C509.488 171.269 509.139 171.413 508.776 171.413C508.412 171.413 508.063 171.269 507.806 171.012C507.551 170.754 507.408 170.406 507.408 170.043C507.408 169.68 507.551 169.332 507.806 169.074L508.147 168.742C508.232 168.655 508.281 168.539 508.285 168.418C508.285 168.337 508.27 168.256 508.239 168.181C508.208 168.106 508.163 168.038 508.106 167.98C508.051 167.929 507.985 167.889 507.914 167.863C507.843 167.837 507.768 167.826 507.692 167.83C507.616 167.833 507.542 167.852 507.474 167.885C507.406 167.918 507.345 167.964 507.295 168.02L501.786 173.484C501.529 173.741 501.18 173.886 500.816 173.886C500.453 173.886 500.104 173.741 499.847 173.484C499.72 173.358 499.62 173.207 499.551 173.042C499.483 172.876 499.448 172.699 499.449 172.52C499.448 172.156 499.591 171.806 499.847 171.547L501.177 170.225C501.252 170.146 501.296 170.043 501.299 169.934C501.296 169.769 501.229 169.612 501.113 169.496C501.06 169.442 500.997 169.399 500.927 169.37C500.857 169.341 500.782 169.326 500.707 169.326C500.631 169.326 500.557 169.341 500.487 169.37C500.417 169.399 500.354 169.442 500.301 169.496L499.036 170.761C498.908 170.889 498.757 170.99 498.591 171.06C498.424 171.13 498.245 171.166 498.065 171.166C497.884 171.166 497.705 171.131 497.539 171.062C497.372 170.993 497.22 170.892 497.092 170.765C496.965 170.637 496.864 170.486 496.795 170.319C496.726 170.152 496.69 169.973 496.691 169.793C496.691 169.613 496.727 169.434 496.797 169.268C496.866 169.101 496.968 168.95 497.096 168.823L501.689 164.235C501.732 164.192 501.767 164.142 501.79 164.086C501.814 164.031 501.826 163.971 501.827 163.91C501.827 163.829 501.81 163.749 501.778 163.675C501.751 163.594 501.703 163.522 501.64 163.464C501.587 163.415 501.527 163.374 501.461 163.343C501.363 163.3 501.253 163.288 501.148 163.308C501.042 163.329 500.945 163.38 500.869 163.456L496.301 168.029C496.174 168.157 496.023 168.258 495.857 168.328C495.69 168.398 495.511 168.434 495.331 168.434C495.15 168.434 494.971 168.399 494.804 168.33C494.638 168.261 494.486 168.16 494.358 168.033C494.231 167.905 494.129 167.754 494.06 167.587C493.992 167.42 493.956 167.241 493.957 167.061C493.957 166.881 493.993 166.702 494.063 166.536C494.132 166.369 494.234 166.218 494.362 166.091L496.545 163.902C496.617 163.831 496.66 163.736 496.667 163.635C496.666 163.546 496.65 163.458 496.618 163.375C496.585 163.3 496.539 163.231 496.48 163.173C496.43 163.118 496.365 163.078 496.293 163.059C496.176 163.025 496.052 163.023 495.934 163.053C495.815 163.083 495.707 163.144 495.62 163.229L495.352 163.505C495.225 163.633 495.074 163.735 494.907 163.804C494.741 163.874 494.562 163.91 494.381 163.91C494.201 163.911 494.022 163.875 493.855 163.807C493.688 163.738 493.537 163.637 493.409 163.509C493.281 163.382 493.18 163.23 493.111 163.063C493.042 162.897 493.007 162.718 493.007 162.537C493.008 162.357 493.044 162.178 493.113 162.012C493.183 161.846 493.285 161.695 493.413 161.567L496.983 157.992C497.11 157.864 497.261 157.763 497.428 157.693C497.594 157.623 497.773 157.587 497.954 157.587C498.134 157.587 498.313 157.622 498.48 157.691C498.647 157.76 498.798 157.861 498.926 157.988C499.054 158.116 499.155 158.267 499.224 158.434C499.293 158.601 499.328 158.78 499.328 158.96C499.327 159.14 499.291 159.319 499.222 159.485C499.152 159.652 499.05 159.803 498.922 159.93L496.748 162.135C496.707 162.172 496.674 162.217 496.651 162.267C496.629 162.317 496.618 162.372 496.618 162.427C496.617 162.508 496.632 162.589 496.663 162.664C496.693 162.739 496.739 162.807 496.796 162.865C496.856 162.924 496.927 162.972 497.005 163.004C497.083 163.036 497.166 163.052 497.251 163.051C497.36 163.042 497.463 162.996 497.543 162.921L503.79 156.671C503.917 156.543 504.068 156.441 504.235 156.372C504.401 156.302 504.58 156.266 504.761 156.266C504.941 156.265 505.12 156.301 505.287 156.369C505.454 156.438 505.605 156.539 505.733 156.667C505.861 156.795 505.962 156.946 506.031 157.113C506.1 157.279 506.135 157.458 506.135 157.639C506.134 157.819 506.098 157.998 506.029 158.164C505.959 158.33 505.857 158.482 505.729 158.609L501.891 162.443C501.855 162.479 501.827 162.522 501.807 162.57C501.788 162.617 501.778 162.668 501.778 162.719C501.778 162.8 501.795 162.881 501.827 162.956C501.859 163.031 501.906 163.099 501.964 163.156C502.078 163.258 502.226 163.311 502.378 163.303C502.53 163.296 502.673 163.228 502.776 163.116L503.814 162.135C504.006 161.945 504.251 161.815 504.516 161.763C504.782 161.711 505.057 161.739 505.307 161.843C505.557 161.947 505.77 162.123 505.921 162.348C506.071 162.573 506.151 162.837 506.151 163.108C506.152 163.287 506.117 163.464 506.049 163.63C505.981 163.796 505.88 163.946 505.753 164.072L501.356 168.466C501.316 168.506 501.285 168.552 501.265 168.604C501.244 168.655 501.233 168.711 501.234 168.766C501.233 168.847 501.249 168.928 501.279 169.003C501.31 169.078 501.355 169.147 501.413 169.204H501.453C501.563 169.296 501.704 169.342 501.847 169.335C501.99 169.327 502.124 169.266 502.224 169.164L509.266 162.127C509.393 161.999 509.545 161.897 509.711 161.827C509.878 161.758 510.057 161.722 510.237 161.722C510.418 161.721 510.596 161.756 510.763 161.825C510.93 161.894 511.082 161.995 511.209 162.123C511.337 162.25 511.438 162.402 511.507 162.569C511.576 162.735 511.611 162.914 511.611 163.094C511.611 163.275 511.575 163.453 511.505 163.62C511.435 163.786 511.334 163.937 511.205 164.064L508.366 166.902C508.29 166.977 508.247 167.079 508.244 167.185C508.245 167.267 508.261 167.348 508.293 167.423C508.325 167.498 508.372 167.566 508.431 167.623C508.545 167.723 508.693 167.775 508.845 167.767C508.996 167.759 509.138 167.693 509.242 167.583L509.323 167.502C509.577 167.241 509.924 167.09 510.288 167.083C510.653 167.075 511.005 167.211 511.27 167.461C511.41 167.594 511.52 167.756 511.593 167.935C511.666 168.113 511.7 168.306 511.692 168.499Z" fill="#A157FF"/>
<path d="M507.538 161.47C508.201 161.47 508.739 160.933 508.739 160.27C508.739 159.608 508.201 159.071 507.538 159.071C506.875 159.071 506.337 159.608 506.337 160.27C506.337 160.933 506.875 161.47 507.538 161.47Z" fill="#A157FF"/>
<path d="M215.656 100.013L220.816 117.175C221.863 120.669 220.273 124.244 217.263 125.144L202.407 129.611C199.389 130.519 196.095 128.411 195.048 124.917L189.888 107.747C189.15 105.315 194.31 101.537 201.434 99.3968C208.557 97.2566 214.91 97.5404 215.656 100.013Z" fill="#A157FF" stroke="#A157FF" stroke-width="2" stroke-miterlimit="10"/>
<path d="M185.694 120.199C186.635 123.336 190.294 125.063 193.807 123.993L194.756 127.146C189.312 128.768 183.633 126.133 182.173 121.269C180.712 116.405 183.982 111.062 189.426 109.441L190.375 112.595C186.862 113.624 184.753 117.07 185.694 120.199Z" fill="#7FFF52" stroke="#A157FF" stroke-width="2" stroke-miterlimit="10"/>
<path d="M215.47 99.3887C215.47 99.4455 215.47 99.5022 215.47 99.5671C215.672 101.529 210.48 104.691 203.584 106.758C196.687 108.825 190.602 109.052 189.71 107.301C189.68 107.244 189.656 107.184 189.637 107.123C188.996 104.999 194.245 101.537 201.369 99.3968C208.492 97.2567 214.829 97.281 215.47 99.3887Z" fill="white" stroke="#A157FF" stroke-width="2" stroke-miterlimit="10"/>
<path d="M183.499 113.287L174.301 121.724C173.35 122.596 173.287 124.073 174.16 125.023C175.032 125.973 176.51 126.036 177.461 125.164L186.66 116.727C187.61 115.855 187.674 114.378 186.801 113.428C185.928 112.478 184.45 112.415 183.499 113.287Z" fill="white" stroke="#A157FF" stroke-width="2" stroke-miterlimit="10"/>
<path d="M167.871 123.586L169.78 113.692C169.839 113.388 170.016 113.12 170.272 112.946C170.529 112.773 170.844 112.708 171.148 112.767C172.061 112.942 172.867 113.473 173.388 114.242C173.909 115.012 174.102 115.956 173.926 116.868L172.46 124.47C172.401 124.774 172.224 125.042 171.968 125.216C171.711 125.39 171.396 125.454 171.092 125.396L168.797 124.954C168.493 124.895 168.225 124.718 168.051 124.462C167.877 124.205 167.813 123.89 167.871 123.586Z" fill="white" stroke="#A157FF" stroke-width="2" stroke-miterlimit="10"/>
<path d="M185.487 118.506L176.289 126.943C175.338 127.815 175.275 129.291 176.147 130.241C177.02 131.191 178.498 131.255 179.449 130.383L188.647 121.946C189.598 121.074 189.661 119.597 188.788 118.647C187.916 117.697 186.438 117.634 185.487 118.506Z" fill="white" stroke="#A157FF" stroke-width="2" stroke-miterlimit="10"/>
<path d="M216.946 156.811L206.826 164.12C205.78 164.875 205.545 166.335 206.301 167.38C207.057 168.425 208.518 168.66 209.564 167.904L219.683 160.596C220.729 159.84 220.964 158.381 220.208 157.336C219.452 156.291 217.992 156.056 216.946 156.811Z" fill="white" stroke="#A157FF" stroke-width="2" stroke-miterlimit="10"/>
<path d="M197.351 167.197L200.91 155.239C200.961 155.068 201.078 154.924 201.235 154.839C201.392 154.754 201.576 154.735 201.747 154.785C202.764 155.088 203.619 155.781 204.125 156.713C204.63 157.645 204.744 158.739 204.441 159.755L201.831 168.528C201.805 168.613 201.764 168.692 201.708 168.761C201.652 168.829 201.584 168.886 201.506 168.928C201.428 168.97 201.343 168.997 201.255 169.006C201.167 169.015 201.078 169.007 200.993 168.982L197.805 168.034C197.72 168.009 197.641 167.967 197.572 167.912C197.504 167.856 197.447 167.787 197.405 167.71C197.362 167.632 197.336 167.547 197.327 167.459C197.318 167.371 197.326 167.282 197.351 167.197Z" fill="white" stroke="#A157FF" stroke-width="2" stroke-miterlimit="10"/>
<path d="M222.503 163.436L212.389 170.797C211.343 171.558 211.113 173.021 211.875 174.066C212.636 175.11 214.101 175.34 215.146 174.58L225.26 167.219C226.305 166.458 226.535 164.994 225.774 163.95C225.012 162.905 223.548 162.676 222.503 163.436Z" fill="white" stroke="#A157FF" stroke-width="2" stroke-miterlimit="10"/>
<path d="M222.509 173.851L212.39 181.16C211.344 181.915 211.109 183.375 211.865 184.42C212.621 185.465 214.081 185.7 215.127 184.944L225.247 177.636C226.293 176.88 226.528 175.421 225.772 174.376C225.016 173.331 223.555 173.096 222.509 173.851Z" fill="white" stroke="#A157FF" stroke-width="2" stroke-miterlimit="10"/>
<path d="M187.053 124.618L177.855 133.055C176.904 133.927 176.841 135.404 177.714 136.353C178.586 137.303 180.064 137.367 181.015 136.495L190.214 128.058C191.164 127.186 191.227 125.709 190.355 124.759C189.482 123.809 188.004 123.746 187.053 124.618Z" fill="white" stroke="#A157FF" stroke-width="2" stroke-miterlimit="10"/>
<path d="M56.2957 156.039C68.9182 156.039 79.1508 145.814 79.1508 133.202C79.1508 120.59 68.9182 110.365 56.2957 110.365C43.6733 110.365 33.4407 120.59 33.4407 133.202C33.4407 145.814 43.6733 156.039 56.2957 156.039Z" stroke="#A157FF" stroke-width="2" stroke-miterlimit="10"/>
<path d="M63.768 146.132C72.6804 146.132 79.9053 138.913 79.9053 130.008C79.9053 121.103 72.6804 113.884 63.768 113.884C54.8557 113.884 47.6308 121.103 47.6308 130.008C47.6308 138.913 54.8557 146.132 63.768 146.132Z" fill="#A157FF" stroke="#A157FF" stroke-width="2" stroke-miterlimit="10"/>
<path d="M61.9669 147.673C71.2198 147.673 78.7208 140.178 78.7208 130.932C78.7208 121.687 71.2198 114.192 61.9669 114.192C52.714 114.192 45.213 121.687 45.213 130.932C45.213 140.178 52.714 147.673 61.9669 147.673Z" stroke="#A157FF" stroke-width="2" stroke-miterlimit="10"/>
<path d="M138.053 225.368L47.6308 259.092L34.966 207.265C32.5095 197.218 33.8271 186.62 38.669 177.478C43.5109 168.337 51.5408 161.289 61.2367 157.668C70.9376 154.05 81.63 154.115 91.2862 157.851C100.942 161.586 108.891 168.733 113.624 177.935L138.053 225.368Z" fill="white" stroke="#A157FF" stroke-width="2" stroke-miterlimit="10"/>
<path d="M127.478 159.086L88.1281 173.763C80.3452 176.666 76.3911 185.324 79.2964 193.1C82.2016 200.877 90.8661 204.828 98.6489 201.925L137.999 187.248C145.782 184.345 149.736 175.687 146.831 167.911C143.925 160.134 135.261 156.183 127.478 159.086Z" fill="white" stroke="#A157FF" stroke-width="2" stroke-miterlimit="10"/>
<path d="M169.711 297.899L178.327 345.688L211.153 333.358L205.385 279.537L138.167 226.673L47.6308 259.092L109.048 406.075L141.663 392.35L113.056 282.026L169.711 297.899Z" fill="black" stroke="#A157FF" stroke-width="2" stroke-miterlimit="10"/>
<path d="M153.277 133.369L122.957 162.412C116.96 168.156 116.758 177.67 122.507 183.663C128.256 189.655 137.778 189.856 143.775 184.111L174.096 155.068C180.093 149.324 180.294 139.81 174.545 133.818C168.796 127.825 159.274 127.625 153.277 133.369Z" fill="white" stroke="#A157FF" stroke-width="2" stroke-miterlimit="10"/>
<path d="M175.455 145.005C182.131 145.005 187.544 139.597 187.544 132.926C187.544 126.255 182.131 120.847 175.455 120.847C168.779 120.847 163.366 126.255 163.366 132.926C163.366 139.597 168.779 145.005 175.455 145.005Z" fill="white" stroke="#A157FF" stroke-width="2" stroke-miterlimit="10"/>
<path d="M204.841 190.33C211.518 190.33 216.93 184.922 216.93 178.251C216.93 171.58 211.518 166.172 204.841 166.172C198.165 166.172 192.752 171.58 192.752 178.251C192.752 184.922 198.165 190.33 204.841 190.33Z" fill="white" stroke="#A157FF" stroke-width="2" stroke-miterlimit="10"/>
<path d="M213.303 119.826C213.299 119.964 213.267 120.1 213.209 120.226C213.15 120.351 213.066 120.464 212.963 120.555L211.721 121.698C211.514 121.889 211.239 121.989 210.957 121.976C210.676 121.964 210.411 121.841 210.22 121.634C210.125 121.532 210.052 121.412 210.005 121.281C209.957 121.15 209.937 121.011 209.944 120.872C209.949 120.732 209.982 120.595 210.04 120.468C210.099 120.342 210.182 120.228 210.285 120.134L210.553 119.891C210.59 119.86 210.62 119.821 210.641 119.778C210.662 119.735 210.673 119.687 210.675 119.639C210.679 119.577 210.67 119.515 210.649 119.457C210.628 119.398 210.595 119.344 210.553 119.299C210.472 119.223 210.364 119.18 210.253 119.18C210.141 119.18 210.034 119.223 209.953 119.299L205.49 123.401C205.282 123.589 205.007 123.688 204.726 123.676C204.446 123.663 204.181 123.542 203.989 123.336C203.801 123.128 203.702 122.853 203.714 122.573C203.727 122.292 203.849 122.028 204.054 121.836L205.125 120.855C205.189 120.796 205.226 120.715 205.231 120.628C205.23 120.5 205.184 120.377 205.101 120.28C205.02 120.203 204.912 120.161 204.801 120.161C204.689 120.161 204.582 120.203 204.5 120.28L203.478 121.22C203.378 121.327 203.257 121.412 203.122 121.47C202.987 121.527 202.842 121.557 202.695 121.556C202.549 121.555 202.404 121.523 202.27 121.464C202.136 121.404 202.016 121.318 201.918 121.209C201.819 121.101 201.743 120.974 201.696 120.835C201.649 120.696 201.631 120.549 201.644 120.404C201.656 120.258 201.699 120.116 201.769 119.987C201.839 119.858 201.935 119.746 202.05 119.656L205.75 116.259C205.786 116.228 205.814 116.189 205.834 116.146C205.854 116.102 205.864 116.055 205.863 116.008C205.875 115.949 205.875 115.888 205.863 115.829C205.839 115.771 205.806 115.716 205.766 115.667C205.727 115.626 205.681 115.594 205.629 115.572C205.578 115.55 205.522 115.538 205.466 115.538C205.41 115.538 205.354 115.55 205.303 115.572C205.251 115.594 205.204 115.626 205.166 115.667L201.482 119.048C201.274 119.236 200.999 119.334 200.719 119.322C200.438 119.31 200.173 119.188 199.981 118.983C199.792 118.775 199.693 118.501 199.705 118.221C199.709 118.081 199.741 117.943 199.799 117.817C199.858 117.69 199.942 117.576 200.046 117.483L201.807 115.862C201.865 115.806 201.903 115.731 201.912 115.651C201.924 115.587 201.924 115.521 201.912 115.456C201.894 115.395 201.861 115.339 201.815 115.294C201.797 115.248 201.767 115.208 201.728 115.177C201.69 115.146 201.645 115.125 201.596 115.116C201.507 115.085 201.412 115.08 201.32 115.1C201.229 115.12 201.144 115.165 201.077 115.229L200.858 115.432C200.649 115.62 200.375 115.719 200.094 115.707C199.813 115.695 199.548 115.573 199.357 115.367C199.167 115.16 199.068 114.886 199.081 114.605C199.084 114.465 199.116 114.328 199.175 114.201C199.233 114.074 199.317 113.961 199.422 113.867L202.302 111.225C202.456 111.085 202.647 110.994 202.853 110.962C203.058 110.93 203.268 110.959 203.457 111.045C203.647 111.131 203.806 111.271 203.917 111.447C204.027 111.623 204.083 111.828 204.079 112.035C204.066 112.316 203.943 112.581 203.738 112.773L201.993 114.394C201.931 114.455 201.891 114.535 201.88 114.621C201.876 114.683 201.884 114.746 201.905 114.804C201.926 114.863 201.959 114.916 202.002 114.962C202.045 115.011 202.099 115.05 202.159 115.076C202.22 115.103 202.285 115.116 202.35 115.116C202.392 115.117 202.434 115.11 202.473 115.095C202.512 115.079 202.548 115.056 202.578 115.027L207.616 110.406C207.824 110.216 208.098 110.116 208.38 110.128C208.661 110.14 208.926 110.263 209.117 110.471C209.212 110.573 209.285 110.693 209.332 110.824C209.38 110.955 209.4 111.094 209.393 111.233C209.388 111.372 209.355 111.509 209.297 111.636C209.238 111.763 209.155 111.876 209.052 111.97L205.953 114.808C205.896 114.861 205.862 114.933 205.855 115.01C205.854 115.136 205.9 115.258 205.985 115.351C206.069 115.428 206.179 115.471 206.293 115.471C206.408 115.471 206.518 115.428 206.602 115.351L207.413 114.597C207.567 114.457 207.759 114.366 207.964 114.334C208.169 114.302 208.38 114.331 208.569 114.417C208.758 114.504 208.918 114.643 209.028 114.819C209.138 114.995 209.195 115.2 209.19 115.408C209.173 115.689 209.048 115.954 208.841 116.145L205.304 119.388C205.271 119.416 205.244 119.451 205.226 119.49C205.208 119.529 205.198 119.572 205.198 119.615C205.194 119.678 205.202 119.742 205.223 119.802C205.244 119.862 205.277 119.917 205.32 119.964C205.402 120.038 205.509 120.08 205.62 120.08C205.731 120.08 205.838 120.038 205.92 119.964L211.6 114.759C211.807 114.569 212.082 114.469 212.363 114.481C212.645 114.493 212.91 114.617 213.1 114.824C213.195 114.926 213.269 115.046 213.316 115.177C213.363 115.308 213.384 115.447 213.376 115.586C213.372 115.725 213.339 115.863 213.281 115.989C213.222 116.116 213.139 116.23 213.036 116.324L210.748 118.423C210.686 118.477 210.648 118.553 210.642 118.634C210.639 118.763 210.686 118.887 210.772 118.983C210.854 119.061 210.963 119.106 211.076 119.106C211.19 119.106 211.299 119.061 211.38 118.983L211.445 118.926C211.647 118.729 211.918 118.619 212.2 118.619C212.482 118.619 212.753 118.729 212.954 118.926C213.081 119.037 213.178 119.177 213.239 119.333C213.3 119.49 213.322 119.659 213.303 119.826Z" fill="#7FFF52"/>
<path d="M210.366 114.248C210.877 114.248 211.291 113.835 211.291 113.324C211.291 112.814 210.877 112.4 210.366 112.4C209.855 112.4 209.441 112.814 209.441 113.324C209.441 113.835 209.855 114.248 210.366 114.248Z" fill="#A157FF"/>
<path d="M188.615 88.2906C189.834 88.6226 190.939 89.2828 191.809 90.1991C192.679 91.1154 193.28 92.2527 193.548 93.487C193.841 95.2091 193.457 96.9778 192.477 98.424" stroke="#5DFB25" stroke-width="2" stroke-miterlimit="10" stroke-linecap="round"/>
<path d="M193.685 78.5382C193.247 80.7594 193.053 83.5563 194.61 84.9344C196.485 86.5557 199.275 84.8209 200.906 86.5557C202.286 88.0474 201.791 90.9091 201.288 93.7951C201.102 94.8955 200.831 95.9797 200.476 97.0378" stroke="#5DFB25" stroke-width="2" stroke-miterlimit="10" stroke-linecap="round"/>
<path d="M206.545 83.5562C206.139 84.6133 205.964 85.7453 206.034 86.8755C206.104 88.0057 206.417 89.1076 206.951 90.1065C207.691 91.3584 208.787 92.3627 210.099 92.9925" stroke="#5DFB25" stroke-width="2" stroke-miterlimit="10" stroke-linecap="round"/>
<path d="M237.083 368.119L182.935 377.377L180.907 365.517L177.905 347.99L174.911 330.455L210.845 324.31L214.244 344.221C219.985 345.51 225.216 348.467 229.28 352.72C233.344 356.972 236.059 362.33 237.083 368.119Z" fill="#A157FF" stroke="#A157FF" stroke-width="2" stroke-miterlimit="10"/>
<path d="M185.369 381.617L187.641 378.618L186.83 377.28L184.096 377.774L183.422 378.755L183.877 381.26L185.369 381.617Z" stroke="#A157FF" stroke-width="2" stroke-miterlimit="10"/>
<path d="M190.627 380.669L192.907 377.661L192.095 376.331L189.361 376.826L188.688 377.799L189.142 380.312L190.627 380.669Z" stroke="#A157FF" stroke-width="2" stroke-miterlimit="10"/>
<path d="M195.917 379.712L198.188 376.704L197.377 375.375L194.643 375.869L193.961 376.842L194.424 379.355L195.917 379.712Z" stroke="#A157FF" stroke-width="2" stroke-miterlimit="10"/>
<path d="M201.182 378.755L203.462 375.756L202.651 374.426L199.916 374.913L199.243 375.894L199.697 378.407L201.182 378.755Z" stroke="#A157FF" stroke-width="2" stroke-miterlimit="10"/>
<path d="M206.375 377.774L208.638 374.791L207.827 373.518L205.109 374.013L204.468 374.945L204.922 377.434L206.375 377.774Z" stroke="#A157FF" stroke-width="2" stroke-miterlimit="10"/>
<path d="M211.51 376.802L213.766 373.826L212.954 372.554L210.245 373.04L209.596 373.972L210.05 376.469L211.51 376.802Z" stroke="#A157FF" stroke-width="2" stroke-miterlimit="10"/>
<path d="M216.646 375.878L218.901 372.894L218.09 371.63L215.388 372.1L214.739 373.032L215.194 375.521L216.646 375.878Z" stroke="#A157FF" stroke-width="2" stroke-miterlimit="10"/>
<path d="M221.774 374.953L224.037 371.97L223.226 370.697L220.508 371.192L219.867 372.116L220.321 374.613L221.774 374.953Z" stroke="#A157FF" stroke-width="2" stroke-miterlimit="10"/>
<path d="M226.909 374.021L229.165 371.038L228.353 369.773L225.644 370.26L224.994 371.192L225.449 373.681L226.909 374.021Z" stroke="#A157FF" stroke-width="2" stroke-miterlimit="10"/>
<path d="M232.856 373.04L235.128 370.033L234.317 368.703L231.582 369.198L230.901 370.17L231.363 372.683L232.856 373.04Z" stroke="#A157FF" stroke-width="2" stroke-miterlimit="10"/>
<path d="M209.913 317.718L174.598 323.756C172.977 324.033 171.888 325.571 172.165 327.191L172.316 328.07C172.593 329.689 174.132 330.777 175.753 330.5L211.068 324.462C212.689 324.185 213.778 322.648 213.5 321.028L213.35 320.149C213.073 318.529 211.534 317.441 209.913 317.718Z" fill="black" stroke="#A157FF" stroke-width="2" stroke-miterlimit="10"/>
<path d="M210.554 324.653L175.24 330.691C173.619 330.968 172.53 332.506 172.807 334.125L172.957 335.004C173.235 336.624 174.774 337.712 176.394 337.435L211.709 331.397C213.33 331.12 214.419 329.582 214.142 327.963L213.991 327.084C213.714 325.464 212.175 324.376 210.554 324.653Z" fill="black" stroke="#A157FF" stroke-width="2" stroke-miterlimit="10"/>
<path d="M171 413.247L118.289 432.018L114.157 420.457L108.083 403.388L102 386.319L136.975 373.866L143.901 393.28C149.884 393.571 155.648 395.621 160.469 399.173C165.29 402.726 168.954 407.622 171 413.247Z" fill="#A157FF" stroke="#A157FF" stroke-width="2" stroke-miterlimit="10"/>
<path d="M121.479 435.849L123.24 432.439L122.157 431.266L119.504 432.241L119 433.339L119.893 435.775L121.479 435.849Z" stroke="#A157FF" stroke-width="2" stroke-miterlimit="10"/>
<path d="M126.587 433.966L128.347 430.556L127.264 429.359L124.612 430.333L124.099 431.431L125 433.909L126.587 433.966Z" stroke="#A157FF" stroke-width="2" stroke-miterlimit="10"/>
<path d="M131.719 432.092L133.471 428.673L132.421 427.484L129.744 428.458L129.24 429.548L130.14 432.026L131.719 432.092Z" stroke="#A157FF" stroke-width="2" stroke-miterlimit="10"/>
<path d="M136.843 430.209L138.603 426.79L137.545 425.601L134.892 426.576L134.388 427.674L135.281 430.151L136.843 430.209Z" stroke="#A157FF" stroke-width="2" stroke-miterlimit="10"/>
<path d="M141.876 428.269L143.62 424.883L142.612 423.743L139.975 424.709L139.496 425.758L140.388 428.178L141.876 428.269Z" stroke="#A157FF" stroke-width="2" stroke-miterlimit="10"/>
<path d="M146.868 426.443L148.611 423.05L147.603 421.918L144.967 422.884L144.479 423.925L145.372 426.353L146.868 426.443Z" stroke="#A157FF" stroke-width="2" stroke-miterlimit="10"/>
<path d="M151.851 424.61L153.595 421.225L152.595 420.085L149.958 421.051L149.471 422.1L150.363 424.519L151.851 424.61Z" stroke="#A157FF" stroke-width="2" stroke-miterlimit="10"/>
<path d="M156.843 422.785L158.587 419.4L157.578 418.26L154.942 419.226L154.463 420.267L155.347 422.694L156.843 422.785Z" stroke="#A157FF" stroke-width="2" stroke-miterlimit="10"/>
<path d="M161.826 420.952L163.57 417.566L162.57 416.402L159.934 417.368L159.446 418.417L160.322 420.861L161.826 420.952Z" stroke="#A157FF" stroke-width="2" stroke-miterlimit="10"/>
<path d="M167.62 418.921L169.38 415.51L168.322 414.321L165.669 415.295L165.165 416.386L166.058 418.863L167.62 418.921Z" stroke="#A157FF" stroke-width="2" stroke-miterlimit="10"/>
<path d="M132.825 366.982L99.0746 378.996C97.5255 379.548 96.7172 381.25 97.2691 382.797L97.5686 383.638C98.1205 385.185 99.8237 385.993 101.373 385.442L135.123 373.427C136.672 372.875 137.48 371.173 136.928 369.626L136.629 368.786C136.077 367.238 134.374 366.43 132.825 366.982Z" fill="black" stroke="#A157FF" stroke-width="2" stroke-miterlimit="10"/>
<path d="M134.652 373.697L100.902 385.712C99.3524 386.263 98.5441 387.965 99.096 389.513L99.3955 390.353C99.9474 391.901 101.651 392.709 103.2 392.157L136.95 380.142C138.499 379.591 139.307 377.889 138.755 376.341L138.456 375.501C137.904 373.953 136.201 373.146 134.652 373.697Z" fill="black" stroke="#A157FF" stroke-width="2" stroke-miterlimit="10"/>
<path d="M85.8948 236.749L137.527 216.645C138.188 216.388 138.893 216.263 139.603 216.278C140.312 216.293 141.012 216.447 141.661 216.733C142.311 217.018 142.898 217.428 143.389 217.94C143.88 218.452 144.266 219.055 144.523 219.716L145.46 222.118C145.98 223.452 145.949 224.938 145.373 226.249C144.796 227.56 143.722 228.589 142.387 229.109L90.7555 249.212L85.8948 236.749Z" fill="white" stroke="#A157FF" stroke-width="2" stroke-miterlimit="10"/>
<path d="M130.496 215.962L129.733 216.26C127.545 217.111 126.463 219.574 127.315 221.76L131.404 232.244C132.256 234.43 134.721 235.512 136.909 234.66L137.672 234.363C139.86 233.511 140.942 231.048 140.09 228.862L136.001 218.378C135.149 216.192 132.684 215.11 130.496 215.962Z" fill="#FDFDFD" stroke="#A157FF" stroke-width="2" stroke-miterlimit="10"/>
<path d="M112.677 222.901L111.913 223.198C109.726 224.05 108.643 226.513 109.496 228.699L113.585 239.183C114.437 241.369 116.902 242.451 119.089 241.599L119.853 241.301C122.041 240.45 123.123 237.987 122.271 235.801L118.182 225.317C117.329 223.131 114.865 222.049 112.677 222.901Z" fill="#FDFDFD" stroke="#A157FF" stroke-width="2" stroke-miterlimit="10"/>
<path d="M94.85 229.843L94.0864 230.14C91.8987 230.992 90.8163 233.455 91.6689 235.64L95.7577 246.125C96.6102 248.311 99.0748 249.392 101.262 248.54L102.026 248.243C104.214 247.391 105.296 244.929 104.444 242.743L100.355 232.258C99.5023 230.072 97.0377 228.991 94.85 229.843Z" fill="#FDFDFD" stroke="#A157FF" stroke-width="2" stroke-miterlimit="10"/>
<path d="M95.5242 247.383L42.3473 268.089C41.6663 268.354 40.9413 268.486 40.2136 268.478C39.4859 268.471 38.7697 268.323 38.1061 268.043C37.4424 267.763 36.8441 267.357 36.3455 266.849C35.8469 266.34 35.4576 265.738 35.2 265.077L34.2632 262.675C33.7429 261.341 33.7902 259.849 34.3947 258.527C34.9992 257.205 36.1114 256.161 37.4866 255.626L90.6636 234.92L95.5242 247.383Z" fill="white" stroke="#A157FF" stroke-width="2" stroke-miterlimit="10"/>
<path d="M49.2344 268.834L49.998 268.536C52.1857 267.685 53.2681 265.222 52.4156 263.036L48.3267 252.552C47.4742 250.366 45.0096 249.284 42.8219 250.136L42.0584 250.433C39.8707 251.285 38.7883 253.748 39.6408 255.934L43.7296 266.418C44.5821 268.604 47.0467 269.685 49.2344 268.834Z" fill="#FDFDFD" stroke="#A157FF" stroke-width="2" stroke-miterlimit="10"/>
<path d="M67.049 261.897L67.8125 261.599C70.0003 260.747 71.0826 258.285 70.2301 256.099L66.1413 245.615C65.2888 243.429 62.8242 242.347 60.6365 243.199L59.873 243.496C57.6853 244.348 56.6029 246.811 57.4554 248.997L61.5442 259.481C62.3967 261.667 64.8613 262.748 67.049 261.897Z" fill="#FDFDFD" stroke="#A157FF" stroke-width="2" stroke-miterlimit="10"/>
<path d="M84.8793 254.957L85.6428 254.659C87.8305 253.807 88.9129 251.345 88.0604 249.159L83.9716 238.675C83.1191 236.489 80.6545 235.407 78.4668 236.259L77.7033 236.556C75.5155 237.408 74.4331 239.871 75.2857 242.057L79.3745 252.541C80.227 254.727 82.6916 255.808 84.8793 254.957Z" fill="#FDFDFD" stroke="#A157FF" stroke-width="2" stroke-miterlimit="10"/>
<path d="M48.019 198.362C42.8523 187.828 30.1198 183.474 19.5801 188.635C9.04043 193.797 4.68468 206.52 9.8513 217.053L19.4955 236.715C24.6621 247.248 37.3946 251.603 47.9343 246.441C58.474 241.28 62.8298 228.557 57.6632 218.024L48.019 198.362Z" fill="white"/>
<mask id="mask0_174_15944" style="mask-type:luminance" maskUnits="userSpaceOnUse" x="7" y="186" width="53" height="63">
<path d="M48.019 198.362C42.8523 187.828 30.1198 183.474 19.5801 188.635C9.04043 193.797 4.68468 206.52 9.8513 217.053L19.4955 236.715C24.6621 247.248 37.3946 251.603 47.9343 246.441C58.474 241.28 62.8298 228.557 57.6632 218.024L48.019 198.362Z" fill="white"/>
</mask>
<g mask="url(#mask0_174_15944)">
<path d="M40.9516 197.482C35.785 186.948 23.0525 182.594 12.5128 187.755C1.97309 192.917 -2.38266 205.64 2.78396 216.173L12.4282 235.835C17.5948 246.368 30.3273 250.723 40.867 245.561C51.4067 240.4 55.7625 227.677 50.5958 217.144L40.9516 197.482Z" fill="white" stroke="#A157FF" stroke-width="2" stroke-miterlimit="10"/>
</g>
<path d="M48.019 198.362C42.8523 187.828 30.1198 183.474 19.5801 188.635C9.04043 193.797 4.68468 206.52 9.8513 217.053L19.4955 236.715C24.6621 247.248 37.3946 251.603 47.9343 246.441C58.474 241.28 62.8298 228.557 57.6632 218.024L48.019 198.362Z" stroke="#A157FF" stroke-width="2" stroke-miterlimit="10"/>
<path d="M27.5348 199.164L13.7656 205.907C12.8844 206.338 12.5194 207.4 12.9503 208.279C13.3811 209.157 14.4448 209.519 15.3259 209.088L29.0951 202.345C29.9763 201.913 30.3413 200.851 29.9104 199.973C29.4795 199.095 28.4159 198.732 27.5348 199.164Z" fill="white" stroke="#A157FF" stroke-width="2" stroke-miterlimit="10"/>
<path d="M30.6192 205.467L16.85 212.21C15.9689 212.641 15.6038 213.703 16.0347 214.582C16.4656 215.46 17.5292 215.822 18.4104 215.391L32.1796 208.648C33.0607 208.216 33.4258 207.154 32.9949 206.276C32.564 205.397 31.5004 205.035 30.6192 205.467Z" fill="white" stroke="#A157FF" stroke-width="2" stroke-miterlimit="10"/>
<path d="M33.7029 211.766L19.9336 218.509C19.0525 218.94 18.6875 220.002 19.1183 220.881C19.5492 221.759 20.6128 222.121 21.494 221.69L35.2632 214.947C36.1444 214.515 36.5094 213.453 36.0785 212.575C35.6476 211.697 34.584 211.334 33.7029 211.766Z" fill="white" stroke="#A157FF" stroke-width="2" stroke-miterlimit="10"/>
<defs>
<linearGradient id="paint0_linear_174_15944" x1="494.825" y1="34.1537" x2="494.825" y2="81.9268" gradientUnits="userSpaceOnUse">
<stop stop-color="#7FFF52" stop-opacity="0"/>
<stop offset="1" stop-color="#7FFF52"/>
</linearGradient>
</defs>
</svg>
