<svg width="715" height="436" viewBox="0 0 715 436" fill="none" xmlns="http://www.w3.org/2000/svg">
<path d="M187.893 169.069L151.887 182.498C144.768 185.154 141.151 193.074 143.808 200.188C146.466 207.302 154.392 210.916 161.512 208.26L197.517 194.831C204.637 192.175 208.254 184.255 205.596 177.141C202.939 170.027 195.013 166.413 187.893 169.069Z" fill="white" stroke="#A157FF" stroke-width="1.5" stroke-miterlimit="10"/>
<path d="M152.282 181.173H110.077C101.729 181.173 94.9621 187.935 94.9621 196.276C94.9621 204.617 101.729 211.378 110.077 211.378H152.282C160.63 211.378 167.397 204.617 167.397 196.276C167.397 187.935 160.63 181.173 152.282 181.173Z" fill="white" stroke="#A157FF" stroke-width="1.5" stroke-miterlimit="10"/>
<path d="M506.701 199.381L508.324 199.64C507.772 199.643 507.224 199.555 506.701 199.381Z" fill="white" stroke="#A157FF" stroke-width="1.5" stroke-miterlimit="10"/>
<path d="M619.524 179.957C618.709 180.388 617.802 180.619 616.879 180.63L505.014 180.865L508.884 148.794L509.906 140.323L511.09 130.506L511.699 125.447L512.275 120.664L513.46 110.782L514.668 100.77L515.958 90.1745L516.827 82.9595L517.946 73.6934L518.092 72.5099V72.2667C518.249 71.1 518.705 69.9937 519.416 69.0548C520.127 68.116 521.068 67.3766 522.149 66.9081C522.858 66.61 523.619 66.453 524.388 66.446H524.623H537.215H548.168H558.634H568.881L619.824 66.3325H636.253L623.151 174.963C623.151 175.166 623.086 175.368 623.045 175.563C623.005 175.757 622.996 175.774 622.964 175.887C622.932 176.001 622.907 176.082 622.875 176.187C622.833 176.319 622.784 176.449 622.729 176.576C622.692 176.679 622.649 176.779 622.599 176.876C622.558 176.977 622.51 177.075 622.453 177.168C622.409 177.265 622.36 177.36 622.307 177.452C622.198 177.646 622.076 177.833 621.942 178.011L621.812 178.181C621.812 178.238 621.731 178.287 621.69 178.343C621.65 178.4 621.422 178.652 621.293 178.797C621.163 178.943 621.001 179.089 620.855 179.211H620.798L620.611 179.373L692.697 199.299L617.926 181.197C618.426 180.744 618.96 180.329 619.524 179.957Z" fill="white" stroke="#A157FF" stroke-width="1.5" stroke-miterlimit="10"/>
<path d="M643.434 6.79659L636.262 66.211L623.159 174.841C623.159 175.044 623.094 175.247 623.053 175.441C623.013 175.636 623.005 175.652 622.972 175.766C622.94 175.879 622.915 175.96 622.883 176.065C622.841 176.198 622.793 176.328 622.737 176.455C622.7 176.557 622.657 176.658 622.607 176.755C622.567 176.856 622.518 176.953 622.461 177.046C622.417 177.143 622.368 177.238 622.315 177.33C622.206 177.524 622.084 177.711 621.95 177.89L621.82 178.06C621.82 178.117 621.739 178.165 621.698 178.222C621.658 178.279 621.431 178.53 621.301 178.676C621.171 178.822 621.009 178.968 620.863 179.089H620.806L620.619 179.251C620.282 179.519 619.918 179.75 619.532 179.941C618.717 180.372 617.81 180.603 616.887 180.613L505.022 180.848L393.156 181.084C392.435 181.083 391.722 180.924 391.069 180.619C390.415 180.314 389.836 179.869 389.372 179.317C388.909 178.765 388.571 178.118 388.384 177.422C388.197 176.726 388.164 175.997 388.288 175.287L408.571 7.283C408.766 5.72984 409.502 4.29491 410.651 3.23038C411.799 2.16585 413.286 1.53984 414.851 1.46235L638.558 1.00027C639.64 0.988809 640.694 1.34284 641.55 2.00497C642.405 2.6671 643.012 3.59854 643.271 4.64831C643.461 5.34768 643.516 6.07669 643.434 6.79659Z" fill="white" stroke="#A157FF" stroke-width="1.5" stroke-miterlimit="10"/>
<path d="M604.328 148.592L413.456 148.997C412.734 148.997 412.021 148.84 411.366 148.535C410.712 148.23 410.132 147.786 409.668 147.234C409.204 146.681 408.867 146.034 408.68 145.337C408.494 144.64 408.462 143.911 408.588 143.201L423.581 18.8351C423.771 17.2723 424.51 15.8275 425.665 14.7574C426.821 13.6873 428.319 13.0611 429.893 12.9902L620.757 12.5848C621.479 12.5859 622.191 12.7445 622.845 13.0496C623.498 13.3548 624.077 13.799 624.541 14.3512C625.005 14.9033 625.342 15.5502 625.529 16.2463C625.717 16.9424 625.749 17.6711 625.625 18.3812L610.616 142.771C610.424 144.327 609.687 145.765 608.537 146.83C607.386 147.895 605.895 148.519 604.328 148.592Z" fill="#A157FF" stroke="#A157FF" stroke-width="1.5" stroke-miterlimit="10"/>
<path d="M713.857 71.8127C713.857 71.8127 713.857 71.8127 713.857 71.8533L699.188 193.454C698.995 195.002 698.263 196.433 697.121 197.497C695.979 198.561 694.5 199.19 692.941 199.275H692.892H692.722L617.95 181.173C618.462 180.752 619.004 180.37 619.573 180.03L620.847 179.178H620.903C621.057 179.049 621.204 178.911 621.342 178.765C621.471 178.619 621.609 178.473 621.739 178.311C621.869 178.149 621.828 178.206 621.861 178.149C621.909 178.096 621.953 178.039 621.991 177.979C622.124 177.8 622.246 177.614 622.356 177.419C622.412 177.329 622.461 177.234 622.502 177.136C622.558 177.043 622.607 176.945 622.648 176.844C622.698 176.747 622.741 176.647 622.778 176.544C622.833 176.417 622.882 176.287 622.924 176.155C622.924 176.049 622.98 175.952 623.013 175.855C623.045 175.757 623.07 175.636 623.094 175.53C623.118 175.425 623.175 175.133 623.199 174.931L636.302 66.3001L643.272 4.64833L643.361 3.88629C643.361 3.73226 643.953 3.83765 644.051 3.95925L666.768 35.1864H666.808L710.255 66.1867L711.658 67.1919C712.402 67.6979 712.998 68.3926 713.384 69.2046C713.771 70.0167 713.934 70.9169 713.857 71.8127Z" fill="white" stroke="#A157FF" stroke-width="1.5" stroke-linejoin="bevel"/>
<path d="M692.714 199.202V199.251L508.324 199.616L506.701 199.356L393.116 181.075L504.981 180.84L616.847 180.605C617.769 180.595 618.676 180.364 619.491 179.932C618.923 180.272 618.38 180.655 617.869 181.075" fill="#A157FF"/>
<path d="M692.714 199.202V199.251L508.324 199.616L506.701 199.356L393.116 181.075L504.981 180.84L616.847 180.605C617.769 180.595 618.676 180.364 619.491 179.932C618.923 180.272 618.38 180.655 617.869 181.075" stroke="#A157FF" stroke-width="1.5" stroke-linejoin="round"/>
<path d="M511.699 140.355C544.337 140.355 570.796 113.918 570.796 81.3057C570.796 48.6935 544.337 22.2562 511.699 22.2562C479.061 22.2562 452.602 48.6935 452.602 81.3057C452.602 113.918 479.061 140.355 511.699 140.355Z" stroke="#7FFF52" stroke-width="1.5" stroke-miterlimit="10"/>
<path d="M511.699 130.514C538.897 130.514 560.946 108.483 560.946 81.3057C560.946 54.1289 538.897 32.0978 511.699 32.0978C484.5 32.0978 462.452 54.1289 462.452 81.3057C462.452 108.483 484.5 130.514 511.699 130.514Z" stroke="#7FFF52" stroke-width="1.5" stroke-miterlimit="10"/>
<path d="M511.699 120.672C533.458 120.672 551.097 103.047 551.097 81.3057C551.097 59.5643 533.458 41.9393 511.699 41.9393C489.94 41.9393 472.301 59.5643 472.301 81.3057C472.301 103.047 489.94 120.672 511.699 120.672Z" stroke="#7FFF52" stroke-width="1.5" stroke-miterlimit="10"/>
<path d="M511.699 110.83C528.018 110.83 541.247 97.6118 541.247 81.3057C541.247 64.9996 528.018 51.7809 511.699 51.7809C495.38 51.7809 482.15 64.9996 482.15 81.3057C482.15 97.6118 495.38 110.83 511.699 110.83Z" stroke="#7FFF52" stroke-width="1.5" stroke-miterlimit="10"/>
<path d="M511.699 100.989C522.578 100.989 531.398 92.1765 531.398 81.3057C531.398 70.435 522.578 61.6226 511.699 61.6226C500.82 61.6226 492 70.435 492 81.3057C492 92.1765 500.82 100.989 511.699 100.989Z" stroke="#7FFF52" stroke-width="1.5" stroke-miterlimit="10"/>
<path d="M511.699 91.1473C517.139 91.1473 521.548 86.7411 521.548 81.3057C521.548 75.8703 517.139 71.4641 511.699 71.4641C506.259 71.4641 501.849 75.8703 501.849 81.3057C501.849 86.7411 506.259 91.1473 511.699 91.1473Z" stroke="#7FFF52" stroke-width="1.5" stroke-miterlimit="10"/>
<path d="M511.699 81.3057V140.355" stroke="#7FFF52" stroke-width="1.5" stroke-miterlimit="10"/>
<path d="M511.699 81.3057L567.899 99.554" stroke="#7FFF52" stroke-width="1.5" stroke-miterlimit="10"/>
<path d="M511.699 81.3057L546.432 33.5327" stroke="#7FFF52" stroke-width="1.5" stroke-miterlimit="10"/>
<path d="M511.699 81.3057L476.958 33.5327" stroke="url(#paint0_linear_303_781)" stroke-width="1.5" stroke-miterlimit="10"/>
<path d="M511.699 81.3057L455.49 99.554" stroke="#7FFF52" stroke-width="1.5" stroke-miterlimit="10"/>
<path d="M558.934 52.5916C558.739 52.4619 558.553 52.3403 558.358 52.2268L557.782 51.8701C556.249 50.1677 554.131 49.5029 551.965 50.6946C551.722 50.6946 551.47 50.7757 551.218 50.8243C550.561 51.0919 549.101 50.4352 548.062 50.0947C547.708 50.013 547.347 49.9668 546.983 49.9569C544.817 49.9083 542.594 51.3837 540.371 52.8105C540.371 50.8243 540.371 48.976 540.412 47.0061V31.3114C540.409 28.99 541.329 26.7626 542.969 25.1181C544.609 23.4736 546.835 22.5463 549.158 22.5399H550.099C551.253 22.5367 552.397 22.7613 553.465 23.2007C554.532 23.6402 555.502 24.2859 556.319 25.1009C557.136 25.9158 557.784 26.8839 558.226 27.9497C558.668 29.0154 558.895 30.1578 558.894 31.3114C558.894 34.8784 558.894 40.8287 558.894 41.3881V43.1554C558.894 43.3013 558.894 43.9255 558.894 44.1606C558.894 44.9713 558.894 45.5225 558.894 45.7819C558.894 46.2764 558.894 47.152 558.894 48.8868C558.894 50.0623 558.894 50.573 558.894 51.5945L558.934 52.5916Z" fill="white" stroke="#A157FF" stroke-width="1.5" stroke-miterlimit="10"/>
<path d="M546.432 36.6862C547.301 36.6862 548.006 35.9821 548.006 35.1135C548.006 34.2449 547.301 33.5408 546.432 33.5408C545.562 33.5408 544.858 34.2449 544.858 35.1135C544.858 35.9821 545.562 36.6862 546.432 36.6862Z" fill="#DA69A8" stroke="#A157FF" stroke-width="1.5" stroke-miterlimit="10"/>
<path d="M552.638 36.6862C553.508 36.6862 554.212 35.9821 554.212 35.1135C554.212 34.2449 553.508 33.5408 552.638 33.5408C551.769 33.5408 551.064 34.2449 551.064 35.1135C551.064 35.9821 551.769 36.6862 552.638 36.6862Z" fill="#DA69A8" stroke="#A157FF" stroke-width="1.5" stroke-miterlimit="10"/>
<path d="M542.83 48.9517C543.514 48.3495 544.066 47.6126 544.452 46.7872C545.074 45.4115 545.216 43.8676 544.858 42.4014" fill="white"/>
<path d="M542.83 48.9517C543.514 48.3495 544.066 47.6126 544.452 46.7872C545.074 45.4115 545.216 43.8676 544.858 42.4014" stroke="#A157FF" stroke-width="1.5" stroke-miterlimit="10"/>
<path d="M550.781 47.3304C552.226 46.5759 553.411 45.4034 554.18 43.9661C554.6 43.1411 554.875 42.2497 554.991 41.3314" fill="white"/>
<path d="M550.781 47.3304C552.226 46.5759 553.411 45.4034 554.18 43.9661C554.6 43.1411 554.875 42.2497 554.991 41.3314" stroke="#A157FF" stroke-width="1.5" stroke-miterlimit="10"/>
<path d="M557.084 47.6708C556.712 46.889 556.505 46.0391 556.476 45.1739C556.45 43.7394 556.901 42.3366 557.758 41.1854" fill="white"/>
<path d="M557.084 47.6708C556.712 46.889 556.505 46.0391 556.476 45.1739C556.45 43.7394 556.901 42.3366 557.758 41.1854" stroke="#A157FF" stroke-width="1.5" stroke-miterlimit="10"/>
<path d="M531.763 43.9498V56.0451H542.659" stroke="white" stroke-width="1.5" stroke-miterlimit="10"/>
<path d="M531.763 31.133V19.0297H542.659" stroke="white" stroke-width="1.5" stroke-miterlimit="10"/>
<path d="M568.581 43.9498V56.0451H557.677" stroke="white" stroke-width="1.5" stroke-miterlimit="10"/>
<path d="M568.581 31.133V19.0297H557.677" stroke="white" stroke-width="1.5" stroke-miterlimit="10"/>
<path d="M449.803 46.8602H448.302V48.3599H449.803V46.8602Z" fill="#E63F31"/>
<path d="M451.304 46.8602H449.803V48.3599H451.304V46.8602Z" fill="#E63F31"/>
<path d="M446.793 48.368H445.292V49.8677H446.793V48.368Z" fill="#E63F31"/>
<path d="M448.294 48.368H446.793V49.8677H448.294V48.368Z" fill="#E63F31"/>
<path d="M449.803 48.368H448.302V49.8677H449.803V48.368Z" fill="#E63F31"/>
<path d="M451.304 48.368H449.803V49.8677H451.304V48.368Z" fill="#E63F31"/>
<path d="M445.292 49.8677H443.791V51.3675H445.292V49.8677Z" fill="#E63F31"/>
<path d="M446.793 49.8677H445.292V51.3675H446.793V49.8677Z" fill="#E63F31"/>
<path d="M448.294 49.8677H446.793V51.3675H448.294V49.8677Z" fill="#E63F31"/>
<path d="M449.803 49.8677H448.302V51.3675H449.803V49.8677Z" fill="#E63F31"/>
<path d="M451.304 49.8677H449.803V51.3675H451.304V49.8677Z" fill="#E63F31"/>
<path d="M443.783 51.3675H442.282V52.8672H443.783V51.3675Z" fill="#E63F31"/>
<path d="M445.292 51.3675H443.791V52.8672H445.292V51.3675Z" fill="#E63F31"/>
<path d="M446.793 51.3675H445.292V52.8672H446.793V51.3675Z" fill="#E63F31"/>
<path d="M448.294 51.3675H446.793V52.8672H448.294V51.3675Z" fill="#E63F31"/>
<path d="M449.803 51.3675H448.302V52.8672H449.803V51.3675Z" fill="#BB264A"/>
<path d="M451.304 51.3675H449.803V52.8672H451.304V51.3675Z" fill="#BB264A"/>
<path d="M442.282 52.8754H440.781V54.3751H442.282V52.8754Z" fill="#E63F31"/>
<path d="M443.783 52.8754H442.282V54.3751H443.783V52.8754Z" fill="#E63F31"/>
<path d="M445.292 52.8754H443.791V54.3751H445.292V52.8754Z" fill="#E63F31"/>
<path d="M446.793 52.8754H445.292V54.3751H446.793V52.8754Z" fill="#BB264A"/>
<path d="M448.294 52.8754H446.793V54.3751H448.294V52.8754Z" fill="#BB264A"/>
<path d="M449.803 52.8754H448.302V54.3751H449.803V52.8754Z" fill="#BB264A"/>
<path d="M451.304 52.8754H449.803V54.3751H451.304V52.8754Z" fill="#7C4E45"/>
<path d="M442.282 54.3751H440.781V55.8749H442.282V54.3751Z" fill="#E63F31"/>
<path d="M443.783 54.3751H442.282V55.8749H443.783V54.3751Z" fill="#BB264A"/>
<path d="M445.292 54.3751H443.791V55.8749H445.292V54.3751Z" fill="#BB264A"/>
<path d="M446.793 54.3751H445.292V55.8749H446.793V54.3751Z" fill="#BB264A"/>
<path d="M448.294 54.3751H446.793V55.8749H448.294V54.3751Z" fill="#7C4E45"/>
<path d="M449.803 54.3751H448.302V55.8749H449.803V54.3751Z" fill="#7C4E45"/>
<path d="M451.304 54.3751H449.803V55.8749H451.304V54.3751Z" fill="#A96C5C"/>
<path d="M440.781 55.8749H439.28V57.3746H440.781V55.8749Z" fill="#BB264A"/>
<path d="M442.282 55.8749H440.781V57.3746H442.282V55.8749Z" fill="#BB264A"/>
<path d="M443.783 55.8749H442.282V57.3746H443.783V55.8749Z" fill="#BB264A"/>
<path d="M445.292 55.8749H443.791V57.3746H445.292V55.8749Z" fill="#BB264A"/>
<path d="M446.793 55.8749H445.292V57.3746H446.793V55.8749Z" fill="#7C4E45"/>
<path d="M448.294 55.8749H446.793V57.3746H448.294V55.8749Z" fill="#A96C5C"/>
<path d="M449.803 55.8749H448.302V57.3746H449.803V55.8749Z" fill="#A96C5C"/>
<path d="M451.304 55.8749H449.803V57.3746H451.304V55.8749Z" fill="#E63F31"/>
<path d="M440.781 57.3827H439.28V58.8824H440.781V57.3827Z" fill="#BB264A"/>
<path d="M442.282 57.3827H440.781V58.8824H442.282V57.3827Z" fill="#BB264A"/>
<path d="M443.783 57.3827H442.282V58.8824H443.783V57.3827Z" fill="#060608"/>
<path d="M445.292 57.3827H443.791V58.8824H445.292V57.3827Z" fill="#060608"/>
<path d="M446.793 57.3827H445.292V58.8824H446.793V57.3827Z" fill="#A96C5C"/>
<path d="M448.294 57.3827H446.793V58.8824H448.294V57.3827Z" fill="#060608"/>
<path d="M449.803 57.3827H448.302V58.8824H449.803V57.3827Z" fill="#060608"/>
<path d="M451.304 57.3827H449.803V58.8824H451.304V57.3827Z" fill="#E63F31"/>
<path d="M442.282 58.8824H440.781V60.3822H442.282V58.8824Z" fill="#BB264A"/>
<path d="M443.783 58.8824H442.282V60.3822H443.783V58.8824Z" fill="#060608"/>
<path d="M445.292 58.8824H443.791V60.3822H445.292V58.8824Z" fill="#A96C5C"/>
<path d="M446.793 58.8824H445.292V60.3822H446.793V58.8824Z" fill="#060608"/>
<path d="M448.294 58.8824H446.793V60.3822H448.294V58.8824Z" fill="#A96C5C"/>
<path d="M449.803 58.8824H448.302V60.3822H449.803V58.8824Z" fill="#A96C5C"/>
<path d="M451.304 58.8824H449.803V60.3822H451.304V58.8824Z" fill="#A96C5C"/>
<path d="M443.783 60.3822H442.282V61.8819H443.783V60.3822Z" fill="#7C4E45"/>
<path d="M445.292 60.3822H443.791V61.8819H445.292V60.3822Z" fill="#060608"/>
<path d="M446.793 60.3822H445.292V61.8819H446.793V60.3822Z" fill="#A96C5C"/>
<path d="M448.294 60.3822H446.793V61.8819H448.294V60.3822Z" fill="#060608"/>
<path d="M449.803 60.3822H448.302V61.8819H449.803V60.3822Z" fill="#7C4E45"/>
<path d="M451.304 60.3822H449.803V61.8819H451.304V60.3822Z" fill="#A96C5C"/>
<path d="M443.783 61.8901H442.282V63.3898H443.783V61.8901Z" fill="#7C4E45"/>
<path d="M445.292 61.8901H443.791V63.3898H445.292V61.8901Z" fill="#060608"/>
<path d="M446.793 61.8901H445.292V63.3898H446.793V61.8901Z" fill="#A96C5C"/>
<path d="M448.294 61.8901H446.793V63.3898H448.294V61.8901Z" fill="#060608"/>
<path d="M449.803 61.8901H448.302V63.3898H449.803V61.8901Z" fill="#7C4E45"/>
<path d="M451.304 61.8901H449.803V63.3898H451.304V61.8901Z" fill="#A96C5C"/>
<path d="M445.292 63.3898H443.791V64.8896H445.292V63.3898Z" fill="#060608"/>
<path d="M446.793 63.3898H445.292V64.8896H446.793V63.3898Z" fill="#A96C5C"/>
<path d="M448.294 63.3898H446.793V64.8896H448.294V63.3898Z" fill="#A96C5C"/>
<path d="M449.803 63.3898H448.302V64.8896H449.803V63.3898Z" fill="#A96C5C"/>
<path d="M451.304 63.3898H449.803V64.8896H451.304V63.3898Z" fill="#A96C5C"/>
<path d="M445.292 64.8976H443.791V66.3974H445.292V64.8976Z" fill="#060608"/>
<path d="M446.793 64.8976H445.292V66.3974H446.793V64.8976Z" fill="#060608"/>
<path d="M448.294 64.8976H446.793V66.3974H448.294V64.8976Z" fill="#A96C5C"/>
<path d="M449.803 64.8976H448.302V66.3974H449.803V64.8976Z" fill="white"/>
<path d="M451.304 64.8976H449.803V66.3974H451.304V64.8976Z" fill="white"/>
<path d="M446.793 66.3974H445.292V67.8971H446.793V66.3974Z" fill="#060608"/>
<path d="M448.294 66.3974H446.793V67.8971H448.294V66.3974Z" fill="#A96C5C"/>
<path d="M449.803 66.3974H448.302V67.8971H449.803V66.3974Z" fill="#A96C5C"/>
<path d="M451.304 66.3974H449.803V67.8971H451.304V66.3974Z" fill="white"/>
<path d="M446.793 67.8972H445.292V69.3969H446.793V67.8972Z" fill="#060608"/>
<path d="M448.294 67.8972H446.793V69.3969H448.294V67.8972Z" fill="#060608"/>
<path d="M449.803 67.8972H448.302V69.3969H449.803V67.8972Z" fill="#A96C5C"/>
<path d="M451.304 67.8972H449.803V69.3969H451.304V67.8972Z" fill="#A96C5C"/>
<path d="M448.294 69.405H446.793V70.9048H448.294V69.405Z" fill="#060608"/>
<path d="M449.803 69.405H448.302V70.9048H449.803V69.405Z" fill="#060608"/>
<path d="M451.304 69.405H449.803V70.9048H451.304V69.405Z" fill="#060608"/>
<path d="M442.282 70.9048H440.781V72.4045H442.282V70.9048Z" fill="#F8EC00"/>
<path d="M443.783 70.9048H442.282V72.4045H443.783V70.9048Z" fill="#F8EC00"/>
<path d="M445.292 70.9048H443.791V72.4045H445.292V70.9048Z" fill="#F8EC00"/>
<path d="M446.793 70.9048H445.292V72.4045H446.793V70.9048Z" fill="#F15855"/>
<path d="M448.294 70.9048H446.793V72.4045H448.294V70.9048Z" fill="#F8EC00"/>
<path d="M449.803 70.9048H448.302V72.4045H449.803V70.9048Z" fill="#060608"/>
<path d="M451.304 70.9048H449.803V72.4045H451.304V70.9048Z" fill="#060608"/>
<path d="M440.781 72.4045H439.28V73.9042H440.781V72.4045Z" fill="#F8EC00"/>
<path d="M442.282 72.4045H440.781V73.9042H442.282V72.4045Z" fill="#F8EC00"/>
<path d="M443.783 72.4045H442.282V73.9042H443.783V72.4045Z" fill="#F8EC00"/>
<path d="M445.292 72.4045H443.791V73.9042H445.292V72.4045Z" fill="#F8EC00"/>
<path d="M446.793 72.4045H445.292V73.9042H446.793V72.4045Z" fill="#F15855"/>
<path d="M448.294 72.4045H446.793V73.9042H448.294V72.4045Z" fill="#F15855"/>
<path d="M449.803 72.4045H448.302V73.9042H449.803V72.4045Z" fill="#A96C5C"/>
<path d="M451.304 72.4045H449.803V73.9042H451.304V72.4045Z" fill="#060608"/>
<path d="M440.781 73.9124H439.28V75.4121H440.781V73.9124Z" fill="#F8EC00"/>
<path d="M442.282 73.9124H440.781V75.4121H442.282V73.9124Z" fill="#F8EC00"/>
<path d="M443.783 73.9124H442.282V75.4121H443.783V73.9124Z" fill="#F8EC00"/>
<path d="M445.292 73.9124H443.791V75.4121H445.292V73.9124Z" fill="#F8EC00"/>
<path d="M446.793 73.9124H445.292V75.4121H446.793V73.9124Z" fill="#FAA726"/>
<path d="M448.294 73.9124H446.793V75.4121H448.294V73.9124Z" fill="#F15855"/>
<path d="M449.803 73.9124H448.302V75.4121H449.803V73.9124Z" fill="#A96C5C"/>
<path d="M451.304 73.9124H449.803V75.4121H451.304V73.9124Z" fill="#A96C5C"/>
<path d="M440.781 75.4121H439.28V76.9119H440.781V75.4121Z" fill="#F8EC00"/>
<path d="M442.282 75.4121H440.781V76.9119H442.282V75.4121Z" fill="#F8EC00"/>
<path d="M443.783 75.4121H442.282V76.9119H443.783V75.4121Z" fill="#F8EC00"/>
<path d="M445.292 75.4121H443.791V76.9119H445.292V75.4121Z" fill="#F8EC00"/>
<path d="M446.793 75.4121H445.292V76.9119H446.793V75.4121Z" fill="#F8EC00"/>
<path d="M448.294 75.4121H446.793V76.9119H448.294V75.4121Z" fill="#BB264A"/>
<path d="M449.803 75.4121H448.302V76.9119H449.803V75.4121Z" fill="#F15855"/>
<path d="M451.304 75.4121H449.803V76.9119H451.304V75.4121Z" fill="#A96C5C"/>
<path d="M439.28 78.4197H440.781V78.1927L439.28 77.8685V78.4197Z" fill="#F8EC00"/>
<path d="M439.28 76.9119V77.8685L440.781 78.1927V76.9119H439.28Z" fill="#F8EC00"/>
<path d="M440.781 78.1927V78.4197H442.014L441.365 78.2981L440.781 78.1927Z" fill="#F8EC00"/>
<path d="M442.29 76.9119H440.781V78.1927L441.365 78.2981L442.014 78.4197H442.29V76.9119Z" fill="#F8EC00"/>
<path d="M443.783 76.9119H442.282V78.4116H443.783V76.9119Z" fill="#FAA726"/>
<path d="M446.793 76.9119H445.292V78.4116H446.793V76.9119Z" fill="#F8EC00"/>
<path d="M448.294 76.9119H446.793V78.4116H448.294V76.9119Z" fill="#FAA726"/>
<path d="M449.803 76.9119H448.302V78.4116H449.803V76.9119Z" fill="#BB264A"/>
<path d="M451.304 76.9119H449.803V78.4116H451.304V76.9119Z" fill="#BB264A"/>
<path d="M442.014 78.4197L442.292 78.4687V78.4197H442.014Z" fill="#FAA726"/>
<path d="M442.29 78.4684L442.014 78.4197H440.781L442.29 78.4684Z" fill="#FAA726"/>
<path d="M442.29 78.4197V78.4684L443.791 78.744V78.4197H442.29Z" fill="#FAA726"/>
<path d="M454.322 46.8602H452.821V48.3599H454.322V46.8602Z" fill="#E63F31"/>
<path d="M452.813 46.8602H451.312V48.3599H452.813V46.8602Z" fill="#E63F31"/>
<path d="M457.324 48.368H455.823V49.8677H457.324V48.368Z" fill="#E63F31"/>
<path d="M455.823 48.368H454.322V49.8677H455.823V48.368Z" fill="#E63F31"/>
<path d="M454.322 48.368H452.821V49.8677H454.322V48.368Z" fill="#E63F31"/>
<path d="M452.813 48.368H451.312V49.8677H452.813V48.368Z" fill="#E63F31"/>
<path d="M458.833 49.8677H457.332V51.3675H458.833V49.8677Z" fill="#E63F31"/>
<path d="M457.324 49.8677H455.823V51.3675H457.324V49.8677Z" fill="#E63F31"/>
<path d="M455.823 49.8677H454.322V51.3675H455.823V49.8677Z" fill="#E63F31"/>
<path d="M454.322 49.8677H452.821V51.3675H454.322V49.8677Z" fill="#E63F31"/>
<path d="M452.813 49.8677H451.312V51.3675H452.813V49.8677Z" fill="#E63F31"/>
<path d="M460.334 51.3675H458.833V52.8672H460.334V51.3675Z" fill="#E63F31"/>
<path d="M458.833 51.3675H457.332V52.8672H458.833V51.3675Z" fill="#E63F31"/>
<path d="M457.324 51.3675H455.823V52.8672H457.324V51.3675Z" fill="#E63F31"/>
<path d="M455.823 51.3675H454.322V52.8672H455.823V51.3675Z" fill="#E63F31"/>
<path d="M454.322 51.3675H452.821V52.8672H454.322V51.3675Z" fill="#BB264A"/>
<path d="M452.813 51.3675H451.312V52.8672H452.813V51.3675Z" fill="#BB264A"/>
<path d="M461.835 52.8754H460.334V54.3751H461.835V52.8754Z" fill="#E63F31"/>
<path d="M460.334 52.8754H458.833V54.3751H460.334V52.8754Z" fill="#E63F31"/>
<path d="M458.833 52.8754H457.332V54.3751H458.833V52.8754Z" fill="#E63F31"/>
<path d="M457.324 52.8754H455.823V54.3751H457.324V52.8754Z" fill="#BB264A"/>
<path d="M455.823 52.8754H454.322V54.3751H455.823V52.8754Z" fill="#BB264A"/>
<path d="M454.322 52.8754H452.821V54.3751H454.322V52.8754Z" fill="#BB264A"/>
<path d="M452.813 52.8754H451.312V54.3751H452.813V52.8754Z" fill="#7C4E45"/>
<path d="M461.835 54.3751H460.334V55.8749H461.835V54.3751Z" fill="#E63F31"/>
<path d="M460.334 54.3751H458.833V55.8749H460.334V54.3751Z" fill="#BB264A"/>
<path d="M458.833 54.3751H457.332V55.8749H458.833V54.3751Z" fill="#BB264A"/>
<path d="M457.324 54.3751H455.823V55.8749H457.324V54.3751Z" fill="#BB264A"/>
<path d="M455.823 54.3751H454.322V55.8749H455.823V54.3751Z" fill="#7C4E45"/>
<path d="M454.322 54.3751H452.821V55.8749H454.322V54.3751Z" fill="#7C4E45"/>
<path d="M452.813 54.3751H451.312V55.8749H452.813V54.3751Z" fill="#A96C5C"/>
<path d="M463.344 55.8749H461.843V57.3746H463.344V55.8749Z" fill="#BB264A"/>
<path d="M461.835 55.8749H460.334V57.3746H461.835V55.8749Z" fill="#BB264A"/>
<path d="M460.334 55.8749H458.833V57.3746H460.334V55.8749Z" fill="#BB264A"/>
<path d="M458.833 55.8749H457.332V57.3746H458.833V55.8749Z" fill="#BB264A"/>
<path d="M457.324 55.8749H455.823V57.3746H457.324V55.8749Z" fill="#7C4E45"/>
<path d="M455.823 55.8749H454.322V57.3746H455.823V55.8749Z" fill="#A96C5C"/>
<path d="M454.322 55.8749H452.821V57.3746H454.322V55.8749Z" fill="#A96C5C"/>
<path d="M452.813 55.8749H451.312V57.3746H452.813V55.8749Z" fill="#E63F31"/>
<path d="M463.344 57.3827H461.843V58.8824H463.344V57.3827Z" fill="#BB264A"/>
<path d="M461.835 57.3827H460.334V58.8824H461.835V57.3827Z" fill="#BB264A"/>
<path d="M460.334 57.3827H458.833V58.8824H460.334V57.3827Z" fill="#060608"/>
<path d="M458.833 57.3827H457.332V58.8824H458.833V57.3827Z" fill="#060608"/>
<path d="M457.324 57.3827H455.823V58.8824H457.324V57.3827Z" fill="#A96C5C"/>
<path d="M455.823 57.3827H454.322V58.8824H455.823V57.3827Z" fill="#060608"/>
<path d="M454.322 57.3827H452.821V58.8824H454.322V57.3827Z" fill="#060608"/>
<path d="M452.813 57.3827H451.312V58.8824H452.813V57.3827Z" fill="#E63F31"/>
<path d="M461.835 58.8824H460.334V60.3822H461.835V58.8824Z" fill="#BB264A"/>
<path d="M460.334 58.8824H458.833V60.3822H460.334V58.8824Z" fill="#060608"/>
<path d="M458.833 58.8824H457.332V60.3822H458.833V58.8824Z" fill="#A96C5C"/>
<path d="M457.324 58.8824H455.823V60.3822H457.324V58.8824Z" fill="#060608"/>
<path d="M455.823 58.8824H454.322V60.3822H455.823V58.8824Z" fill="#A96C5C"/>
<path d="M454.322 58.8824H452.821V60.3822H454.322V58.8824Z" fill="#A96C5C"/>
<path d="M452.813 58.8824H451.312V60.3822H452.813V58.8824Z" fill="#A96C5C"/>
<path d="M460.334 60.3822H458.833V61.8819H460.334V60.3822Z" fill="#7C4E45"/>
<path d="M458.833 60.3822H457.332V61.8819H458.833V60.3822Z" fill="#060608"/>
<path d="M457.324 60.3822H455.823V61.8819H457.324V60.3822Z" fill="#A96C5C"/>
<path d="M455.823 60.3822H454.322V61.8819H455.823V60.3822Z" fill="#060608"/>
<path d="M454.322 60.3822H452.821V61.8819H454.322V60.3822Z" fill="#7C4E45"/>
<path d="M452.813 60.3822H451.312V61.8819H452.813V60.3822Z" fill="#A96C5C"/>
<path d="M460.334 61.8901H458.833V63.3898H460.334V61.8901Z" fill="#7C4E45"/>
<path d="M458.833 61.8901H457.332V63.3898H458.833V61.8901Z" fill="#060608"/>
<path d="M457.324 61.8901H455.823V63.3898H457.324V61.8901Z" fill="#A96C5C"/>
<path d="M455.823 61.8901H454.322V63.3898H455.823V61.8901Z" fill="#060608"/>
<path d="M454.322 61.8901H452.821V63.3898H454.322V61.8901Z" fill="#7C4E45"/>
<path d="M452.813 61.8901H451.312V63.3898H452.813V61.8901Z" fill="#A96C5C"/>
<path d="M458.833 63.3898H457.332V64.8896H458.833V63.3898Z" fill="#060608"/>
<path d="M457.324 63.3898H455.823V64.8896H457.324V63.3898Z" fill="#A96C5C"/>
<path d="M455.823 63.3898H454.322V64.8896H455.823V63.3898Z" fill="#A96C5C"/>
<path d="M454.322 63.3898H452.821V64.8896H454.322V63.3898Z" fill="#A96C5C"/>
<path d="M452.813 63.3898H451.312V64.8896H452.813V63.3898Z" fill="#A96C5C"/>
<path d="M458.833 64.8976H457.332V66.3974H458.833V64.8976Z" fill="#060608"/>
<path d="M457.324 64.8976H455.823V66.3974H457.324V64.8976Z" fill="#060608"/>
<path d="M455.823 64.8976H454.322V66.3974H455.823V64.8976Z" fill="#A96C5C"/>
<path d="M454.322 64.8976H452.821V66.3974H454.322V64.8976Z" fill="white"/>
<path d="M452.813 64.8976H451.312V66.3974H452.813V64.8976Z" fill="white"/>
<path d="M457.324 66.3974H455.823V67.8971H457.324V66.3974Z" fill="#060608"/>
<path d="M455.823 66.3974H454.322V67.8971H455.823V66.3974Z" fill="#A96C5C"/>
<path d="M454.322 66.3974H452.821V67.8971H454.322V66.3974Z" fill="#A96C5C"/>
<path d="M452.813 66.3974H451.312V67.8971H452.813V66.3974Z" fill="white"/>
<path d="M457.324 67.8972H455.823V69.3969H457.324V67.8972Z" fill="#060608"/>
<path d="M455.823 67.8972H454.322V69.3969H455.823V67.8972Z" fill="#060608"/>
<path d="M454.322 67.8972H452.821V69.3969H454.322V67.8972Z" fill="#A96C5C"/>
<path d="M452.813 67.8972H451.312V69.3969H452.813V67.8972Z" fill="#A96C5C"/>
<path d="M455.823 69.405H454.322V70.9048H455.823V69.405Z" fill="#060608"/>
<path d="M454.322 69.405H452.821V70.9048H454.322V69.405Z" fill="#060608"/>
<path d="M452.813 69.405H451.312V70.9048H452.813V69.405Z" fill="#060608"/>
<path d="M461.835 70.9048H460.334V72.4045H461.835V70.9048Z" fill="#F8EC00"/>
<path d="M460.334 70.9048H458.833V72.4045H460.334V70.9048Z" fill="#F8EC00"/>
<path d="M458.833 70.9048H457.332V72.4045H458.833V70.9048Z" fill="#F8EC00"/>
<path d="M457.324 70.9048H455.823V72.4045H457.324V70.9048Z" fill="#F15855"/>
<path d="M455.823 70.9048H454.322V72.4045H455.823V70.9048Z" fill="#F8EC00"/>
<path d="M454.322 70.9048H452.821V72.4045H454.322V70.9048Z" fill="#060608"/>
<path d="M452.813 70.9048H451.312V72.4045H452.813V70.9048Z" fill="#060608"/>
<path d="M463.344 72.4045H461.843V73.9042H463.344V72.4045Z" fill="#F8EC00"/>
<path d="M461.835 72.4045H460.334V73.9042H461.835V72.4045Z" fill="#F8EC00"/>
<path d="M460.334 72.4045H458.833V73.9042H460.334V72.4045Z" fill="#F8EC00"/>
<path d="M458.833 72.4045H457.332V73.9042H458.833V72.4045Z" fill="#F8EC00"/>
<path d="M457.324 72.4045H455.823V73.9042H457.324V72.4045Z" fill="#F15855"/>
<path d="M455.823 72.4045H454.322V73.9042H455.823V72.4045Z" fill="#F15855"/>
<path d="M454.322 72.4045H452.821V73.9042H454.322V72.4045Z" fill="#A96C5C"/>
<path d="M452.813 72.4045H451.312V73.9042H452.813V72.4045Z" fill="#060608"/>
<path d="M463.344 73.9124H461.843V75.4121H463.344V73.9124Z" fill="#F8EC00"/>
<path d="M461.835 73.9124H460.334V75.4121H461.835V73.9124Z" fill="#F8EC00"/>
<path d="M460.334 73.9124H458.833V75.4121H460.334V73.9124Z" fill="#F8EC00"/>
<path d="M458.833 73.9124H457.332V75.4121H458.833V73.9124Z" fill="#F8EC00"/>
<path d="M455.823 75.4121H457.324V73.9124H455.823V75.4121Z" fill="#FAA726"/>
<path d="M455.823 73.9124H454.322V75.4121H455.823V73.9124Z" fill="#F15855"/>
<path d="M454.322 73.9124H452.821V75.4121H454.322V73.9124Z" fill="#A96C5C"/>
<path d="M452.813 73.9124H451.312V75.4121H452.813V73.9124Z" fill="#A96C5C"/>
<path d="M463.344 75.4121H461.843V76.9119H463.344V75.4121Z" fill="#F8EC00"/>
<path d="M461.835 75.4121H460.334V76.9119H461.835V75.4121Z" fill="#F8EC00"/>
<path d="M460.334 75.4121H458.833V76.9119H460.334V75.4121Z" fill="#F8EC00"/>
<path d="M458.833 75.4121H457.332V76.9119H458.833V75.4121Z" fill="#F8EC00"/>
<path d="M457.324 75.4121H455.823V76.9119H457.324V75.4121Z" fill="#F8EC00"/>
<path d="M455.823 75.4121H454.322V76.9119H455.823V75.4121Z" fill="#BB264A"/>
<path d="M454.322 75.4121H452.821V76.9119H454.322V75.4121Z" fill="#F15855"/>
<path d="M452.813 75.4121H451.312V76.9119H452.813V75.4121Z" fill="#A96C5C"/>
<path d="M463.344 76.9119H461.843V78.4116H463.344V76.9119Z" fill="#F8EC00"/>
<path d="M461.835 76.9119H460.334V78.4116H461.835V76.9119Z" fill="#F8EC00"/>
<path d="M460.334 76.9119H458.833V78.4116H460.334V76.9119Z" fill="#FAA726"/>
<path d="M457.324 76.9119H455.823V78.4116H457.324V76.9119Z" fill="#F8EC00"/>
<path d="M455.823 76.9119H454.322V78.4116H455.823V76.9119Z" fill="#FAA726"/>
<path d="M454.322 76.9119H452.821V78.4116H454.322V76.9119Z" fill="#BB264A"/>
<path d="M452.813 76.9119H451.312V78.4116H452.813V76.9119Z" fill="#BB264A"/>
<path d="M432.319 68.035V80.1302H443.223" stroke="#5DFB25" stroke-width="1.5" stroke-miterlimit="10"/>
<path d="M432.319 55.2182V43.1148H443.223" stroke="#5DFB25" stroke-width="1.5" stroke-miterlimit="10"/>
<path d="M469.145 68.035V80.1302H458.241" stroke="#5DFB25" stroke-width="1.5" stroke-miterlimit="10"/>
<path d="M469.145 55.2182V43.1148H458.241" stroke="#5DFB25" stroke-width="1.5" stroke-miterlimit="10"/>
<path d="M546.432 235.066C576.628 235.066 601.107 232.25 601.107 228.776C601.107 225.301 576.628 222.485 546.432 222.485C516.235 222.485 491.757 225.301 491.757 228.776C491.757 232.25 516.235 235.066 546.432 235.066Z" stroke="#7FFF52" stroke-width="2" stroke-miterlimit="10"/>
<path d="M546.553 243.903C573.622 243.903 595.566 241.086 595.566 237.612C595.566 234.138 573.622 231.321 546.553 231.321C519.485 231.321 497.541 234.138 497.541 237.612C497.541 241.086 519.485 243.903 546.553 243.903Z" stroke="#7FFF52" stroke-width="2" stroke-miterlimit="10"/>
<path d="M546.805 254.271C565.226 254.271 580.159 251.455 580.159 247.98C580.159 244.506 565.226 241.69 546.805 241.69C528.384 241.69 513.451 244.506 513.451 247.98C513.451 251.455 528.384 254.271 546.805 254.271Z" stroke="#7FFF52" stroke-width="2" stroke-miterlimit="10"/>
<path d="M546.432 264.194C557.19 264.194 565.912 261.377 565.912 257.903C565.912 254.429 557.19 251.612 546.432 251.612C535.673 251.612 526.952 254.429 526.952 257.903C526.952 261.377 535.673 264.194 546.432 264.194Z" stroke="#7FFF52" stroke-width="2" stroke-miterlimit="10"/>
<path d="M546.432 273.468C550.478 273.468 553.758 270.652 553.758 267.177C553.758 263.703 550.478 260.886 546.432 260.886C542.386 260.886 539.105 263.703 539.105 267.177C539.105 270.652 542.386 273.468 546.432 273.468Z" stroke="#7FFF52" stroke-width="2" stroke-miterlimit="10"/>
<path d="M542.659 205.185C548.977 205.185 554.099 201.534 554.099 197.03C554.099 192.525 548.977 188.874 542.659 188.874C536.341 188.874 531.219 192.525 531.219 197.03C531.219 201.534 536.341 205.185 542.659 205.185Z" fill="#A157FF" stroke="white" stroke-width="1.5" stroke-miterlimit="10"/>
<path d="M646.931 141.401C644.772 140.355 643.288 137.161 643.637 134.291L653.007 57.861C653.356 54.9912 655.441 53.4996 657.575 54.5454C659.741 55.5911 661.226 58.7933 660.877 61.655L651.531 138.094C651.149 140.955 649.097 142.447 646.931 141.401Z" fill="#A157FF"/>
<path d="M660.601 148C658.435 146.954 656.95 143.752 657.307 140.89L666.654 64.4599C667.003 61.5901 669.088 60.0985 671.222 61.1442C673.38 62.19 674.864 65.3841 674.516 68.2539L665.177 144.684C664.82 147.554 662.743 149.046 660.601 148Z" fill="#A157FF"/>
<path d="M674.264 154.599C672.106 153.553 670.621 150.351 670.97 147.489L680.317 71.0507C680.666 68.189 682.751 66.6974 684.884 67.7431C687.051 68.7808 688.535 71.983 688.187 74.8528L678.84 151.283C678.491 154.145 676.43 155.637 674.264 154.599Z" fill="#A157FF"/>
<path d="M511.196 167.878C511.197 168.058 511.163 168.237 511.095 168.404C511.027 168.571 510.926 168.723 510.798 168.851L509.249 170.391C508.992 170.648 508.643 170.792 508.279 170.792C507.916 170.792 507.567 170.648 507.31 170.391C507.055 170.133 506.911 169.785 506.911 169.422C506.911 169.059 507.055 168.711 507.31 168.453L507.65 168.121C507.735 168.034 507.785 167.918 507.788 167.797C507.789 167.716 507.773 167.635 507.743 167.56C507.712 167.485 507.667 167.417 507.61 167.359C507.554 167.308 507.489 167.268 507.418 167.242C507.347 167.216 507.271 167.205 507.196 167.209C507.12 167.212 507.046 167.231 506.978 167.264C506.91 167.297 506.849 167.343 506.799 167.399L501.29 172.863C501.033 173.12 500.684 173.265 500.32 173.265C499.956 173.265 499.608 173.12 499.351 172.863C499.224 172.737 499.123 172.586 499.055 172.421C498.987 172.255 498.952 172.078 498.953 171.899C498.952 171.535 499.095 171.185 499.351 170.926L500.681 169.604C500.756 169.525 500.799 169.421 500.803 169.313C500.8 169.148 500.733 168.991 500.616 168.875C500.563 168.821 500.5 168.778 500.431 168.749C500.361 168.72 500.286 168.705 500.211 168.705C500.135 168.705 500.06 168.72 499.991 168.749C499.921 168.778 499.858 168.821 499.805 168.875L498.539 170.139C498.412 170.268 498.261 170.369 498.094 170.439C497.928 170.508 497.749 170.544 497.569 170.545C497.388 170.545 497.209 170.51 497.042 170.441C496.875 170.372 496.724 170.271 496.596 170.144C496.468 170.016 496.367 169.864 496.298 169.698C496.229 169.531 496.194 169.352 496.195 169.172C496.195 168.992 496.231 168.813 496.301 168.647C496.37 168.48 496.472 168.329 496.6 168.202L501.192 163.614C501.236 163.571 501.27 163.521 501.294 163.465C501.318 163.41 501.33 163.35 501.33 163.289C501.33 163.208 501.314 163.128 501.282 163.054C501.254 162.973 501.207 162.901 501.144 162.843C501.091 162.794 501.031 162.753 500.965 162.722C500.866 162.679 500.757 162.667 500.651 162.687C500.546 162.708 500.449 162.759 500.373 162.835L495.805 167.408C495.678 167.536 495.527 167.637 495.36 167.707C495.194 167.776 495.015 167.812 494.834 167.813C494.654 167.813 494.475 167.778 494.308 167.709C494.141 167.64 493.99 167.539 493.862 167.412C493.734 167.284 493.633 167.133 493.564 166.966C493.495 166.799 493.46 166.62 493.46 166.44C493.461 166.26 493.497 166.081 493.566 165.915C493.636 165.748 493.738 165.597 493.866 165.47L496.048 163.281C496.12 163.21 496.164 163.115 496.17 163.014C496.17 162.925 496.153 162.837 496.122 162.754C496.089 162.678 496.042 162.61 495.984 162.552C495.934 162.497 495.869 162.457 495.797 162.438C495.68 162.404 495.556 162.402 495.437 162.432C495.319 162.462 495.211 162.523 495.124 162.608L494.856 162.884C494.729 163.012 494.578 163.114 494.411 163.183C494.244 163.253 494.066 163.289 493.885 163.289C493.705 163.29 493.526 163.254 493.359 163.186C493.192 163.117 493.04 163.016 492.913 162.888C492.785 162.76 492.684 162.609 492.615 162.442C492.546 162.275 492.511 162.097 492.511 161.916C492.511 161.736 492.548 161.557 492.617 161.391C492.687 161.225 492.789 161.073 492.917 160.946L496.487 157.371C496.614 157.243 496.765 157.142 496.932 157.072C497.098 157.002 497.277 156.966 497.457 156.966C497.638 156.966 497.817 157.001 497.984 157.07C498.15 157.139 498.302 157.24 498.43 157.367C498.557 157.495 498.659 157.646 498.728 157.813C498.796 157.98 498.832 158.159 498.831 158.339C498.831 158.519 498.795 158.698 498.725 158.864C498.656 159.031 498.554 159.182 498.426 159.309L496.251 161.514C496.21 161.551 496.177 161.596 496.155 161.646C496.133 161.696 496.121 161.751 496.122 161.806C496.121 161.887 496.136 161.967 496.166 162.043C496.197 162.118 496.242 162.186 496.3 162.244C496.359 162.303 496.43 162.351 496.508 162.383C496.586 162.415 496.67 162.431 496.754 162.43C496.864 162.421 496.966 162.375 497.046 162.3L503.294 156.05C503.421 155.922 503.572 155.82 503.739 155.751C503.905 155.681 504.084 155.645 504.264 155.645C504.445 155.644 504.624 155.679 504.791 155.748C504.957 155.817 505.109 155.918 505.237 156.046C505.364 156.173 505.466 156.325 505.535 156.492C505.603 156.658 505.639 156.837 505.638 157.018C505.638 157.198 505.602 157.376 505.532 157.543C505.463 157.709 505.361 157.86 505.233 157.987L501.395 161.822C501.359 161.858 501.33 161.901 501.311 161.948C501.291 161.996 501.281 162.046 501.282 162.098C501.282 162.179 501.299 162.26 501.331 162.335C501.363 162.41 501.41 162.478 501.468 162.535C501.581 162.637 501.73 162.69 501.882 162.682C502.034 162.675 502.177 162.607 502.279 162.495L503.318 161.514C503.51 161.323 503.754 161.194 504.02 161.142C504.286 161.09 504.561 161.118 504.811 161.222C505.061 161.326 505.274 161.502 505.424 161.727C505.574 161.952 505.655 162.216 505.655 162.487C505.655 162.666 505.621 162.843 505.553 163.009C505.484 163.174 505.384 163.325 505.257 163.451L500.86 167.845C500.82 167.885 500.789 167.931 500.768 167.983C500.747 168.034 500.737 168.09 500.738 168.145C500.737 168.226 500.752 168.307 500.783 168.382C500.814 168.457 500.859 168.526 500.916 168.583H500.957C501.067 168.675 501.207 168.721 501.35 168.714C501.493 168.706 501.628 168.645 501.728 168.542L508.77 161.506C508.897 161.378 509.048 161.276 509.215 161.206C509.382 161.137 509.56 161.101 509.741 161.1C509.921 161.1 510.1 161.135 510.267 161.204C510.434 161.273 510.586 161.374 510.713 161.502C510.841 161.629 510.942 161.781 511.011 161.948C511.08 162.114 511.115 162.293 511.115 162.473C511.114 162.654 511.078 162.832 511.009 162.999C510.939 163.165 510.837 163.316 510.709 163.443L507.869 166.281C507.794 166.356 507.75 166.458 507.748 166.564C507.748 166.646 507.765 166.727 507.797 166.802C507.829 166.877 507.876 166.945 507.934 167.002C508.048 167.102 508.197 167.153 508.348 167.146C508.5 167.138 508.642 167.072 508.746 166.962L508.827 166.881C509.081 166.62 509.428 166.469 509.792 166.462C510.156 166.454 510.509 166.59 510.774 166.84C510.914 166.973 511.024 167.135 511.097 167.314C511.169 167.492 511.203 167.685 511.196 167.878Z" fill="#A157FF"/>
<path d="M507.042 160.849C507.705 160.849 508.243 160.312 508.243 159.649C508.243 158.987 507.705 158.45 507.042 158.45C506.379 158.45 505.841 158.987 505.841 159.649C505.841 160.312 506.379 160.849 507.042 160.849Z" fill="#A157FF" stroke="#A157FF" stroke-width="1.5" stroke-miterlimit="10"/>
<path d="M215.16 99.3919L220.32 116.554C221.366 120.048 219.776 123.623 216.766 124.523L201.911 128.99C198.893 129.898 195.599 127.79 194.552 124.296L189.392 107.126C188.654 104.694 193.814 100.916 200.937 98.7757C208.061 96.6356 214.413 96.9193 215.16 99.3919Z" fill="#A157FF" stroke="#A157FF" stroke-width="1.5" stroke-miterlimit="10"/>
<path d="M185.198 119.578C186.139 122.715 189.798 124.442 193.311 123.372L194.26 126.525C188.816 128.146 183.137 125.512 181.676 120.648C180.216 115.784 183.486 110.441 188.93 108.82L189.879 111.974C186.366 113.003 184.256 116.448 185.198 119.578Z" fill="#7FFF52" stroke="#A157FF" stroke-width="1.5" stroke-miterlimit="10"/>
<path d="M214.973 98.7676C214.973 98.8244 214.973 98.8811 214.973 98.946C215.176 100.908 209.984 104.069 203.087 106.137C196.191 108.204 190.106 108.431 189.214 106.68C189.184 106.623 189.159 106.563 189.141 106.501C188.5 104.378 193.749 100.916 200.872 98.7757C207.996 96.6356 214.332 96.6599 214.973 98.7676Z" fill="white" stroke="#A157FF" stroke-width="1.5" stroke-miterlimit="10"/>
<path d="M183.003 112.666L173.805 121.103C172.854 121.975 172.791 123.452 173.663 124.402C174.536 125.351 176.014 125.415 176.965 124.543L186.163 116.106C187.114 115.234 187.177 113.757 186.305 112.807C185.432 111.857 183.954 111.794 183.003 112.666Z" fill="white" stroke="#A157FF" stroke-width="1.5" stroke-miterlimit="10"/>
<path d="M167.375 122.965L169.284 113.071C169.342 112.767 169.519 112.499 169.776 112.325C170.033 112.151 170.348 112.087 170.652 112.145C171.565 112.321 172.37 112.852 172.891 113.621C173.412 114.391 173.606 115.335 173.43 116.247L171.964 123.849C171.905 124.153 171.728 124.421 171.471 124.595C171.215 124.768 170.9 124.833 170.595 124.774L168.301 124.333C167.997 124.274 167.728 124.097 167.555 123.841C167.381 123.584 167.316 123.269 167.375 122.965Z" fill="white" stroke="#A157FF" stroke-width="1.5" stroke-miterlimit="10"/>
<path d="M184.991 117.885L175.792 126.321C174.842 127.193 174.778 128.67 175.651 129.62C176.524 130.57 178.002 130.633 178.952 129.761L188.151 121.325C189.102 120.453 189.165 118.976 188.292 118.026C187.419 117.076 185.941 117.013 184.991 117.885Z" fill="white" stroke="#A157FF" stroke-width="1.5" stroke-miterlimit="10"/>
<path d="M216.449 156.19L206.33 163.499C205.284 164.254 205.049 165.714 205.805 166.759C206.561 167.804 208.022 168.039 209.067 167.283L219.187 159.974C220.233 159.219 220.468 157.76 219.712 156.715C218.956 155.67 217.495 155.435 216.449 156.19Z" fill="white" stroke="#A157FF" stroke-width="1.5" stroke-miterlimit="10"/>
<path d="M196.855 166.576L200.414 154.618C200.465 154.447 200.581 154.303 200.738 154.218C200.896 154.133 201.08 154.114 201.251 154.164C202.268 154.467 203.123 155.16 203.628 156.092C204.133 157.024 204.247 158.118 203.945 159.134L201.334 167.907C201.309 167.992 201.267 168.071 201.212 168.139C201.156 168.208 201.087 168.265 201.01 168.307C200.932 168.349 200.846 168.376 200.759 168.385C200.671 168.394 200.582 168.386 200.497 168.36L197.308 167.413C197.224 167.388 197.145 167.346 197.076 167.291C197.007 167.235 196.95 167.166 196.908 167.089C196.866 167.011 196.84 166.926 196.831 166.838C196.821 166.75 196.83 166.661 196.855 166.576Z" fill="white" stroke="#A157FF" stroke-width="1.5" stroke-miterlimit="10"/>
<path d="M222.006 162.815L211.892 170.176C210.847 170.937 210.617 172.4 211.378 173.445C212.14 174.489 213.604 174.719 214.65 173.959L224.763 166.598C225.809 165.837 226.039 164.373 225.277 163.329C224.516 162.284 223.052 162.054 222.006 162.815Z" fill="white" stroke="#A157FF" stroke-width="1.5" stroke-miterlimit="10"/>
<path d="M222.013 173.23L211.893 180.539C210.848 181.294 210.613 182.754 211.369 183.799C212.124 184.844 213.585 185.079 214.631 184.323L224.751 177.015C225.796 176.259 226.031 174.8 225.275 173.755C224.519 172.71 223.059 172.475 222.013 173.23Z" fill="white" stroke="#A157FF" stroke-width="1.5" stroke-miterlimit="10"/>
<path d="M186.557 123.997L177.359 132.434C176.408 133.306 176.345 134.782 177.217 135.732C178.09 136.682 179.568 136.746 180.519 135.874L189.717 127.437C190.668 126.565 190.731 125.088 189.859 124.138C188.986 123.188 187.508 123.125 186.557 123.997Z" fill="white" stroke="#A157FF" stroke-width="1.5" stroke-miterlimit="10"/>
<path d="M55.7994 155.418C68.4219 155.418 78.6544 145.193 78.6544 132.581C78.6544 119.969 68.4219 109.744 55.7994 109.744C43.1769 109.744 32.9444 119.969 32.9444 132.581C32.9444 145.193 43.1769 155.418 55.7994 155.418Z" stroke="#A157FF" stroke-width="1.5" stroke-miterlimit="10"/>
<path d="M63.2718 145.511C72.1841 145.511 79.409 138.292 79.409 129.387C79.409 120.482 72.1841 113.263 63.2718 113.263C54.3594 113.263 47.1345 120.482 47.1345 129.387C47.1345 138.292 54.3594 145.511 63.2718 145.511Z" fill="#A157FF" stroke="#A157FF" stroke-width="1.5" stroke-miterlimit="10"/>
<path d="M61.4706 147.051C70.7235 147.051 78.2244 139.556 78.2244 130.311C78.2244 121.065 70.7235 113.571 61.4706 113.571C52.2177 113.571 44.7167 121.065 44.7167 130.311C44.7167 139.556 52.2177 147.051 61.4706 147.051Z" stroke="#A157FF" stroke-width="1.5" stroke-miterlimit="10"/>
<path d="M137.557 224.746L47.1345 258.471L34.4697 206.644C32.0132 196.597 33.3308 185.999 38.1727 176.857C43.0146 167.716 51.0445 160.667 60.7404 157.047C70.4413 153.429 81.1337 153.494 90.7899 157.229C100.446 160.965 108.394 168.112 113.128 177.314L137.557 224.746Z" fill="white" stroke="#A157FF" stroke-width="1.5" stroke-miterlimit="10"/>
<path d="M126.982 158.465L87.6318 173.142C79.8489 176.045 75.8948 184.702 78.8 192.479C81.7053 200.256 90.3697 204.207 98.1526 201.304L137.503 186.627C145.286 183.724 149.24 175.066 146.334 167.29C143.429 159.513 134.765 155.562 126.982 158.465Z" fill="white" stroke="#A157FF" stroke-width="1.5" stroke-miterlimit="10"/>
<path d="M169.215 297.278L177.831 345.067L210.657 332.737L204.888 278.916L137.67 226.052L47.1345 258.471L108.552 405.454L141.167 391.729L112.56 281.405L169.215 297.278Z" fill="black" stroke="#A157FF" stroke-width="1.5" stroke-miterlimit="10"/>
<path d="M152.781 132.748L122.46 161.791C116.463 167.535 116.262 177.049 122.011 183.042C127.76 189.034 137.282 189.235 143.279 183.49L173.599 154.447C179.596 148.703 179.798 139.189 174.049 133.197C168.3 127.204 158.778 127.003 152.781 132.748Z" fill="white" stroke="#A157FF" stroke-width="1.5" stroke-miterlimit="10"/>
<path d="M174.959 144.384C181.635 144.384 187.047 138.976 187.047 132.305C187.047 125.634 181.635 120.226 174.959 120.226C168.282 120.226 162.87 125.634 162.87 132.305C162.87 138.976 168.282 144.384 174.959 144.384Z" fill="white" stroke="#A157FF" stroke-width="1.5" stroke-miterlimit="10"/>
<path d="M204.345 189.709C211.021 189.709 216.434 184.301 216.434 177.63C216.434 170.959 211.021 165.551 204.345 165.551C197.668 165.551 192.256 170.959 192.256 177.63C192.256 184.301 197.668 189.709 204.345 189.709Z" fill="white" stroke="#A157FF" stroke-width="1.5" stroke-miterlimit="10"/>
<path d="M212.807 119.205C212.803 119.343 212.771 119.479 212.712 119.605C212.654 119.73 212.57 119.842 212.466 119.934L211.225 121.077C211.017 121.268 210.742 121.368 210.461 121.355C210.18 121.343 209.914 121.22 209.724 121.013C209.629 120.911 209.556 120.791 209.509 120.66C209.461 120.529 209.441 120.39 209.448 120.251C209.453 120.111 209.485 119.974 209.544 119.847C209.602 119.721 209.686 119.607 209.789 119.513L210.057 119.27C210.094 119.239 210.123 119.2 210.144 119.157C210.165 119.114 210.177 119.066 210.178 119.018C210.182 118.956 210.174 118.894 210.153 118.835C210.132 118.777 210.099 118.723 210.057 118.678C209.975 118.601 209.868 118.559 209.756 118.559C209.645 118.559 209.538 118.601 209.456 118.678L204.994 122.78C204.785 122.968 204.511 123.067 204.23 123.055C203.949 123.042 203.685 122.92 203.493 122.715C203.305 122.507 203.206 122.232 203.218 121.952C203.23 121.671 203.352 121.407 203.558 121.215L204.629 120.234C204.692 120.175 204.73 120.094 204.734 120.007C204.734 119.879 204.688 119.756 204.605 119.659C204.523 119.582 204.416 119.54 204.304 119.54C204.193 119.54 204.085 119.582 204.004 119.659L202.982 120.599C202.882 120.706 202.76 120.791 202.626 120.849C202.491 120.906 202.346 120.936 202.199 120.935C202.053 120.934 201.908 120.902 201.774 120.843C201.64 120.783 201.52 120.697 201.421 120.588C201.322 120.48 201.247 120.353 201.2 120.214C201.153 120.075 201.135 119.928 201.148 119.782C201.16 119.637 201.203 119.495 201.272 119.366C201.342 119.237 201.438 119.124 201.554 119.035L205.254 115.638C205.289 115.606 205.318 115.568 205.338 115.524C205.357 115.481 205.367 115.434 205.367 115.387C205.379 115.328 205.379 115.267 205.367 115.208C205.343 115.15 205.31 115.095 205.27 115.046C205.231 115.005 205.185 114.973 205.133 114.951C205.081 114.929 205.026 114.917 204.97 114.917C204.913 114.917 204.858 114.929 204.806 114.951C204.755 114.973 204.708 115.005 204.669 115.046L200.986 118.427C200.777 118.615 200.503 118.713 200.222 118.701C199.941 118.689 199.677 118.567 199.485 118.362C199.296 118.154 199.197 117.88 199.209 117.6C199.212 117.46 199.244 117.322 199.303 117.195C199.362 117.069 199.446 116.955 199.55 116.862L201.311 115.241C201.369 115.185 201.406 115.11 201.416 115.03C201.428 114.965 201.428 114.9 201.416 114.835C201.398 114.774 201.364 114.718 201.319 114.673C201.3 114.627 201.27 114.587 201.232 114.556C201.194 114.525 201.148 114.504 201.1 114.495C201.011 114.464 200.916 114.459 200.824 114.479C200.732 114.499 200.648 114.544 200.58 114.608L200.361 114.811C200.153 114.999 199.878 115.098 199.598 115.086C199.317 115.073 199.052 114.952 198.86 114.746C198.671 114.538 198.572 114.264 198.584 113.984C198.588 113.844 198.62 113.707 198.678 113.58C198.737 113.453 198.821 113.339 198.925 113.246L201.805 110.604C201.959 110.464 202.151 110.373 202.356 110.341C202.562 110.309 202.772 110.338 202.961 110.424C203.15 110.51 203.31 110.65 203.42 110.826C203.531 111.002 203.587 111.207 203.582 111.414C203.569 111.695 203.447 111.96 203.241 112.152L201.497 113.773C201.434 113.834 201.394 113.914 201.384 114C201.379 114.062 201.388 114.125 201.409 114.183C201.43 114.242 201.463 114.295 201.505 114.341C201.549 114.39 201.603 114.429 201.663 114.455C201.723 114.482 201.788 114.495 201.854 114.495C201.896 114.496 201.938 114.489 201.977 114.474C202.016 114.458 202.052 114.435 202.081 114.406L207.12 109.785C207.327 109.595 207.602 109.495 207.884 109.507C208.165 109.519 208.43 109.642 208.621 109.85C208.715 109.952 208.789 110.072 208.836 110.203C208.883 110.334 208.904 110.473 208.896 110.612C208.892 110.751 208.859 110.888 208.801 111.015C208.742 111.142 208.659 111.255 208.556 111.349L205.456 114.187C205.4 114.24 205.366 114.312 205.359 114.389C205.357 114.515 205.404 114.637 205.489 114.73C205.573 114.807 205.683 114.85 205.797 114.85C205.911 114.85 206.022 114.807 206.105 114.73L206.917 113.976C207.071 113.836 207.262 113.745 207.468 113.713C207.673 113.681 207.883 113.71 208.072 113.796C208.262 113.883 208.421 114.022 208.532 114.198C208.642 114.374 208.698 114.579 208.694 114.787C208.677 115.068 208.552 115.333 208.345 115.524L204.807 118.767C204.774 118.795 204.748 118.83 204.73 118.869C204.712 118.908 204.702 118.951 204.702 118.994C204.698 119.057 204.706 119.121 204.727 119.181C204.748 119.241 204.781 119.296 204.824 119.343C204.906 119.417 205.013 119.459 205.124 119.459C205.235 119.459 205.342 119.417 205.424 119.343L211.103 114.138C211.311 113.948 211.586 113.848 211.867 113.86C212.149 113.872 212.414 113.996 212.604 114.203C212.699 114.305 212.772 114.425 212.82 114.556C212.867 114.687 212.888 114.826 212.88 114.965C212.875 115.104 212.843 115.242 212.784 115.368C212.726 115.495 212.642 115.609 212.539 115.703L210.251 117.802C210.19 117.856 210.152 117.932 210.146 118.013C210.143 118.142 210.189 118.266 210.276 118.362C210.357 118.44 210.466 118.484 210.58 118.484C210.693 118.484 210.802 118.44 210.884 118.362L210.949 118.305C211.151 118.108 211.422 117.998 211.704 117.998C211.986 117.998 212.257 118.108 212.458 118.305C212.584 118.416 212.682 118.556 212.743 118.712C212.803 118.869 212.825 119.038 212.807 119.205Z" fill="#7FFF52"/>
<path d="M209.87 113.627C210.381 113.627 210.795 113.214 210.795 112.703C210.795 112.193 210.381 111.779 209.87 111.779C209.359 111.779 208.945 112.193 208.945 112.703C208.945 113.214 209.359 113.627 209.87 113.627Z" fill="#A157FF" stroke="#A157FF" stroke-width="1.5" stroke-miterlimit="10"/>
<path d="M188.118 87.6695C189.338 88.0015 190.443 88.6617 191.313 89.578C192.182 90.4943 192.784 91.6316 193.051 92.8659C193.344 94.588 192.961 96.3567 191.98 97.8029" stroke="#5DFB25" stroke-width="1.5" stroke-miterlimit="10" stroke-linecap="round"/>
<path d="M193.189 77.9171C192.751 80.1384 192.556 82.9352 194.114 84.3133C195.988 85.9347 198.779 84.1998 200.41 85.9347C201.789 87.4263 201.294 90.288 200.791 93.174C200.606 94.2744 200.335 95.3586 199.98 96.4167" stroke="#5DFB25" stroke-width="1.5" stroke-miterlimit="10" stroke-linecap="round"/>
<path d="M206.049 82.9352C205.642 83.9922 205.468 85.1242 205.538 86.2544C205.608 87.3846 205.921 88.4865 206.454 89.4854C207.195 90.7373 208.29 91.7417 209.602 92.3714" stroke="#5DFB25" stroke-width="1.5" stroke-miterlimit="10" stroke-linecap="round"/>
<path d="M236.587 367.498L182.439 376.756L180.411 364.896L177.409 347.369L174.415 329.834L210.349 323.689L213.748 343.6C219.489 344.889 224.72 347.846 228.784 352.098C232.848 356.351 235.562 361.708 236.587 367.498Z" fill="#A157FF" stroke="#A157FF" stroke-width="1.5" stroke-miterlimit="10"/>
<path d="M184.873 380.996L187.145 377.996L186.333 376.659L183.599 377.153L182.926 378.134L183.38 380.639L184.873 380.996Z" stroke="#A157FF" stroke-width="1.5" stroke-miterlimit="10"/>
<path d="M190.13 380.047L192.41 377.04L191.599 375.71L188.865 376.205L188.191 377.178L188.646 379.691L190.13 380.047Z" stroke="#A157FF" stroke-width="1.5" stroke-miterlimit="10"/>
<path d="M195.42 379.091L197.692 376.083L196.881 374.754L194.147 375.248L193.465 376.221L193.927 378.734L195.42 379.091Z" stroke="#A157FF" stroke-width="1.5" stroke-miterlimit="10"/>
<path d="M200.686 378.134L202.966 375.135L202.154 373.805L199.42 374.292L198.747 375.273L199.201 377.786L200.686 378.134Z" stroke="#A157FF" stroke-width="1.5" stroke-miterlimit="10"/>
<path d="M205.878 377.153L208.142 374.17L207.331 372.897L204.613 373.392L203.972 374.324L204.426 376.813L205.878 377.153Z" stroke="#A157FF" stroke-width="1.5" stroke-miterlimit="10"/>
<path d="M211.014 376.181L213.269 373.205L212.458 371.933L209.748 372.419L209.099 373.351L209.554 375.848L211.014 376.181Z" stroke="#A157FF" stroke-width="1.5" stroke-miterlimit="10"/>
<path d="M216.15 375.256L218.405 372.273L217.594 371.008L214.892 371.479L214.243 372.411L214.697 374.9L216.15 375.256Z" stroke="#A157FF" stroke-width="1.5" stroke-miterlimit="10"/>
<path d="M221.277 374.332L223.541 371.349L222.73 370.076L220.012 370.571L219.371 371.495L219.825 373.992L221.277 374.332Z" stroke="#A157FF" stroke-width="1.5" stroke-miterlimit="10"/>
<path d="M226.413 373.4L228.668 370.417L227.857 369.152L225.147 369.638L224.498 370.571L224.953 373.059L226.413 373.4Z" stroke="#A157FF" stroke-width="1.5" stroke-miterlimit="10"/>
<path d="M232.36 372.419L234.632 369.411L233.82 368.082L231.086 368.576L230.405 369.549L230.867 372.062L232.36 372.419Z" stroke="#A157FF" stroke-width="1.5" stroke-miterlimit="10"/>
<path d="M209.417 317.097L174.102 323.135C172.481 323.412 171.392 324.95 171.669 326.57L171.82 327.449C172.097 329.068 173.636 330.156 175.257 329.879L210.571 323.841C212.192 323.564 213.282 322.027 213.004 320.407L212.854 319.528C212.576 317.908 211.037 316.82 209.417 317.097Z" fill="black" stroke="#A157FF" stroke-width="1.5" stroke-miterlimit="10"/>
<path d="M210.058 324.032L174.743 330.07C173.122 330.347 172.033 331.885 172.311 333.504L172.461 334.383C172.738 336.003 174.277 337.091 175.898 336.814L211.213 330.776C212.834 330.499 213.923 328.961 213.646 327.342L213.495 326.463C213.218 324.843 211.679 323.755 210.058 324.032Z" fill="black" stroke="#A157FF" stroke-width="1.5" stroke-miterlimit="10"/>
<path d="M170.504 412.626L117.793 431.396L113.661 419.836L107.586 402.767L101.504 385.698L136.479 373.245L143.404 392.659C149.388 392.95 155.152 395 159.973 398.552C164.794 402.105 168.458 407.001 170.504 412.626Z" fill="#A157FF" stroke="#A157FF" stroke-width="1.5" stroke-miterlimit="10"/>
<path d="M120.983 435.228L122.743 431.818L121.661 430.645L119.008 431.619L118.504 432.718L119.396 435.154L120.983 435.228Z" stroke="#A157FF" stroke-width="1.5" stroke-miterlimit="10"/>
<path d="M126.09 433.345L127.851 429.935L126.768 428.737L124.115 429.712L123.603 430.81L124.504 433.288L126.09 433.345Z" stroke="#A157FF" stroke-width="1.5" stroke-miterlimit="10"/>
<path d="M131.223 431.471L132.975 428.052L131.925 426.863L129.247 427.837L128.743 428.927L129.644 431.405L131.223 431.471Z" stroke="#A157FF" stroke-width="1.5" stroke-miterlimit="10"/>
<path d="M136.347 429.588L138.107 426.169L137.049 424.98L134.396 425.955L133.892 427.053L134.785 429.53L136.347 429.588Z" stroke="#A157FF" stroke-width="1.5" stroke-miterlimit="10"/>
<path d="M141.38 427.647L143.123 424.262L142.115 423.122L139.479 424.088L139 425.137L139.892 427.557L141.38 427.647Z" stroke="#A157FF" stroke-width="1.5" stroke-miterlimit="10"/>
<path d="M146.371 425.822L148.115 422.428L147.107 421.297L144.47 422.263L143.983 423.304L144.875 425.732L146.371 425.822Z" stroke="#A157FF" stroke-width="1.5" stroke-miterlimit="10"/>
<path d="M151.355 423.989L153.099 420.604L152.099 419.464L149.462 420.43L148.975 421.479L149.867 423.898L151.355 423.989Z" stroke="#A157FF" stroke-width="1.5" stroke-miterlimit="10"/>
<path d="M156.346 422.164L158.09 418.778L157.082 417.639L154.446 418.605L153.966 419.646L154.851 422.073L156.346 422.164Z" stroke="#A157FF" stroke-width="1.5" stroke-miterlimit="10"/>
<path d="M161.33 420.331L163.074 416.945L162.074 415.781L159.437 416.747L158.95 417.796L159.826 420.24L161.33 420.331Z" stroke="#A157FF" stroke-width="1.5" stroke-miterlimit="10"/>
<path d="M167.123 418.3L168.884 414.889L167.826 413.7L165.173 414.674L164.669 415.764L165.562 418.242L167.123 418.3Z" stroke="#A157FF" stroke-width="1.5" stroke-miterlimit="10"/>
<path d="M132.328 366.36L98.5783 378.375C97.0292 378.927 96.2209 380.629 96.7728 382.176L97.0723 383.016C97.6242 384.564 99.3274 385.372 100.876 384.821L134.626 372.806C136.176 372.254 136.984 370.552 136.432 369.005L136.133 368.165C135.581 366.617 133.877 365.809 132.328 366.36Z" fill="black" stroke="#A157FF" stroke-width="1.5" stroke-miterlimit="10"/>
<path d="M134.155 373.076L100.405 385.091C98.8561 385.642 98.0478 387.344 98.5997 388.892L98.8992 389.732C99.4511 391.28 101.154 392.088 102.703 391.536L136.453 379.521C138.002 378.97 138.811 377.268 138.259 375.72L137.959 374.88C137.408 373.332 135.704 372.525 134.155 373.076Z" fill="black" stroke="#A157FF" stroke-width="1.5" stroke-miterlimit="10"/>
<path d="M85.3985 236.128L137.03 216.024C137.691 215.767 138.397 215.642 139.106 215.657C139.816 215.672 140.515 215.826 141.165 216.111C141.815 216.397 142.402 216.807 142.893 217.319C143.384 217.83 143.769 218.434 144.027 219.095L144.964 221.497C145.484 222.831 145.453 224.317 144.876 225.628C144.3 226.939 143.226 227.968 141.891 228.488L90.2591 248.591L85.3985 236.128Z" fill="white" stroke="#A157FF" stroke-width="1.5" stroke-miterlimit="10"/>
<path d="M130 215.341L129.236 215.638C127.049 216.49 125.966 218.953 126.819 221.139L130.908 231.623C131.76 233.809 134.225 234.891 136.412 234.039L137.176 233.742C139.364 232.89 140.446 230.427 139.594 228.241L135.505 217.757C134.652 215.571 132.188 214.489 130 215.341Z" fill="#FDFDFD" stroke="#A157FF" stroke-width="1.5" stroke-miterlimit="10"/>
<path d="M112.181 222.28L111.417 222.577C109.229 223.429 108.147 225.892 108.999 228.078L113.088 238.562C113.941 240.748 116.405 241.829 118.593 240.978L119.357 240.68C121.544 239.828 122.627 237.366 121.774 235.18L117.685 224.696C116.833 222.51 114.368 221.428 112.181 222.28Z" fill="#FDFDFD" stroke="#A157FF" stroke-width="1.5" stroke-miterlimit="10"/>
<path d="M94.3537 229.222L93.5902 229.519C91.4025 230.371 90.3201 232.833 91.1726 235.019L95.2614 245.504C96.1139 247.69 98.5785 248.771 100.766 247.919L101.53 247.622C103.717 246.77 104.8 244.308 103.947 242.122L99.8585 231.637C99.006 229.451 96.5414 228.37 94.3537 229.222Z" fill="#FDFDFD" stroke="#A157FF" stroke-width="1.5" stroke-miterlimit="10"/>
<path d="M95.0279 246.762L41.851 267.468C41.17 267.733 40.445 267.865 39.7173 267.857C38.9896 267.85 38.2734 267.702 37.6097 267.422C36.9461 267.142 36.3478 266.736 35.8492 266.228C35.3506 265.719 34.9613 265.117 34.7037 264.456L33.7669 262.054C33.2466 260.72 33.2939 259.228 33.8984 257.906C34.5029 256.583 35.6151 255.54 36.9903 255.004L90.1673 234.299L95.0279 246.762Z" fill="white" stroke="#A157FF" stroke-width="1.5" stroke-miterlimit="10"/>
<path d="M48.7382 268.213L49.5017 267.915C51.6894 267.063 52.7718 264.601 51.9193 262.415L47.8305 251.931C46.978 249.745 44.5134 248.663 42.3257 249.515L41.5621 249.812C39.3744 250.664 38.292 253.127 39.1445 255.313L43.2334 265.797C44.0859 267.983 46.5505 269.064 48.7382 268.213Z" fill="#FDFDFD" stroke="#A157FF" stroke-width="1.5" stroke-miterlimit="10"/>
<path d="M66.5527 261.275L67.3163 260.978C69.504 260.126 70.5864 257.664 69.7339 255.478L65.645 244.994C64.7925 242.808 62.3279 241.726 60.1402 242.578L59.3767 242.875C57.189 243.727 56.1066 246.19 56.9591 248.376L61.0479 258.86C61.9004 261.046 64.365 262.127 66.5527 261.275Z" fill="#FDFDFD" stroke="#A157FF" stroke-width="1.5" stroke-miterlimit="10"/>
<path d="M84.3829 254.336L85.1465 254.038C87.3342 253.186 88.4166 250.724 87.5641 248.538L83.4752 238.054C82.6227 235.868 80.1581 234.786 77.9704 235.638L77.2069 235.935C75.0192 236.787 73.9368 239.25 74.7893 241.436L78.8781 251.92C79.7306 254.106 82.1952 255.187 84.3829 254.336Z" fill="#FDFDFD" stroke="#A157FF" stroke-width="1.5" stroke-miterlimit="10"/>
<path d="M47.5227 197.741C42.356 187.207 29.6235 182.853 19.0838 188.014C8.54412 193.176 4.18837 205.899 9.35499 216.432L18.9992 236.094C24.1658 246.627 36.8983 250.982 47.438 245.82C57.9777 240.659 62.3335 227.936 57.1669 217.402L47.5227 197.741Z" fill="white"/>
<mask id="mask0_303_781" style="mask-type:luminance" maskUnits="userSpaceOnUse" x="7" y="185" width="53" height="63">
<path d="M47.5227 197.741C42.356 187.207 29.6235 182.853 19.0838 188.014C8.54412 193.176 4.18837 205.899 9.35499 216.432L18.9992 236.094C24.1658 246.627 36.8983 250.982 47.438 245.82C57.9777 240.659 62.3335 227.936 57.1669 217.402L47.5227 197.741Z" fill="white"/>
</mask>
<g mask="url(#mask0_303_781)">
<path d="M40.4553 196.861C35.2887 186.327 22.5562 181.973 12.0165 187.134C1.4768 192.296 -2.87895 205.019 2.28767 215.552L11.9319 235.214C17.0985 245.747 29.831 250.102 40.3707 244.94C50.9104 239.779 55.2662 227.056 50.0995 216.522L40.4553 196.861Z" fill="white" stroke="#A157FF" stroke-width="1.5" stroke-miterlimit="10"/>
</g>
<path d="M47.5227 197.741C42.356 187.207 29.6235 182.853 19.0838 188.014C8.54412 193.176 4.18837 205.899 9.35499 216.432L18.9992 236.094C24.1658 246.627 36.8983 250.982 47.438 245.82C57.9777 240.659 62.3335 227.936 57.1669 217.402L47.5227 197.741Z" stroke="#A157FF" stroke-width="1.5" stroke-miterlimit="10"/>
<path d="M27.0385 198.543L13.2692 205.286C12.3881 205.717 12.0231 206.779 12.4539 207.658C12.8848 208.536 13.9484 208.898 14.8296 208.467L28.5988 201.724C29.48 201.292 29.845 200.23 29.4141 199.352C28.9832 198.473 27.9196 198.111 27.0385 198.543Z" fill="white" stroke="#A157FF" stroke-width="1.5" stroke-miterlimit="10"/>
<path d="M30.1229 204.845L16.3537 211.589C15.4726 212.02 15.1075 213.082 15.5384 213.96C15.9693 214.839 17.0329 215.201 17.9141 214.77L31.6833 208.027C32.5644 207.595 32.9295 206.533 32.4986 205.655C32.0677 204.776 31.0041 204.414 30.1229 204.845Z" fill="white" stroke="#A157FF" stroke-width="1.5" stroke-miterlimit="10"/>
<path d="M33.2065 211.145L19.4373 217.888C18.5562 218.319 18.1912 219.381 18.622 220.26C19.0529 221.138 20.1165 221.5 20.9977 221.069L34.7669 214.326C35.6481 213.894 36.0131 212.832 35.5822 211.954C35.1513 211.075 34.0877 210.713 33.2065 211.145Z" fill="white" stroke="#A157FF" stroke-width="1.5" stroke-miterlimit="10"/>
<defs>
<linearGradient id="paint0_linear_303_781" x1="494.328" y1="33.5327" x2="494.328" y2="81.3057" gradientUnits="userSpaceOnUse">
<stop stop-color="#7FFF52" stop-opacity="0"/>
<stop offset="1" stop-color="#7FFF52"/>
</linearGradient>
</defs>
</svg>
