<svg width="404" height="342" viewBox="0 0 404 342" fill="none" xmlns="http://www.w3.org/2000/svg">
<path d="M147.013 249.074L149.013 249.394C148.333 249.399 147.657 249.29 147.013 249.074Z" fill="white" stroke="#A157FF" stroke-width="1.8" stroke-miterlimit="10"/>
<path d="M286.093 225.114C285.088 225.646 283.97 225.931 282.833 225.944L144.953 226.234L149.723 186.674L151.013 176.224L152.473 164.114L153.223 157.874L153.943 151.974L155.403 139.784L156.893 127.434L158.443 114.364L159.513 105.464L160.893 94.034L161.073 92.574V92.274C161.267 90.8352 161.83 89.4709 162.706 88.313C163.582 87.1551 164.741 86.2427 166.073 85.664C166.943 85.2953 167.878 85.1016 168.823 85.094H169.113H184.643H198.133H211.033H223.663L286.453 84.954H306.703L290.553 218.954C290.553 219.204 290.473 219.454 290.423 219.694C290.373 219.934 290.363 219.954 290.323 220.094C290.283 220.234 290.253 220.334 290.213 220.464C290.162 220.627 290.102 220.787 290.033 220.944C290.033 221.064 289.933 221.194 289.883 221.314C289.833 221.434 289.763 221.564 289.693 221.674C289.639 221.794 289.579 221.91 289.513 222.024C289.378 222.264 289.228 222.494 289.063 222.714L288.913 222.924L288.753 223.124C288.6 223.32 288.437 223.507 288.263 223.684C288.093 223.864 287.913 224.035 287.723 224.194H287.653L287.423 224.394L376.283 248.974L284.123 226.644C284.74 226.085 285.398 225.573 286.093 225.114Z" fill="white" stroke="#A157FF" stroke-width="1.8" stroke-miterlimit="10"/>
<path d="M315.563 11.514L306.723 84.804L290.573 218.804C290.573 219.054 290.493 219.304 290.443 219.544C290.393 219.784 290.383 219.804 290.343 219.944C290.303 220.084 290.273 220.184 290.233 220.314C290.182 220.477 290.122 220.637 290.053 220.794C290.053 220.914 289.953 221.044 289.903 221.164C289.853 221.284 289.783 221.414 289.713 221.524C289.659 221.644 289.599 221.76 289.533 221.874C289.398 222.114 289.248 222.344 289.083 222.564L288.933 222.774L288.773 222.974C288.62 223.17 288.457 223.357 288.283 223.534C288.113 223.714 287.933 223.885 287.743 224.044H287.673L287.443 224.244C287.027 224.573 286.578 224.858 286.103 225.094C285.098 225.626 283.98 225.911 282.843 225.924L144.963 226.214L7.09296 226.504C6.20321 226.504 5.32418 226.31 4.5177 225.934C3.71121 225.558 2.99687 225.01 2.42493 224.329C1.85299 223.647 1.43733 222.849 1.20721 221.989C0.977093 221.13 0.938094 220.23 1.09296 219.354L26.013 12.134C26.2528 10.2181 27.1603 8.44805 28.5758 7.13491C29.9914 5.82177 31.8245 5.04956 33.753 4.95398L309.553 4.36398C310.89 4.3453 312.194 4.77992 313.253 5.59705C314.312 6.41418 315.062 7.56567 315.383 8.86398C315.61 9.72797 315.671 10.6272 315.563 11.514Z" fill="white" stroke="#A157FF" stroke-width="1.8" stroke-miterlimit="10"/>
<path d="M267.353 186.424L32.093 186.924C31.2032 186.924 30.3242 186.73 29.5177 186.354C28.7112 185.978 27.9969 185.43 27.4249 184.749C26.853 184.067 26.4373 183.269 26.2072 182.409C25.9771 181.55 25.9381 180.65 26.093 179.774L44.593 26.364C44.8287 24.4481 45.7336 22.6772 47.1479 21.3635C48.5622 20.0498 50.395 19.2779 52.323 19.184L287.583 18.684C288.473 18.6835 289.352 18.8781 290.158 19.2539C290.965 19.6297 291.679 20.1777 292.251 20.8592C292.823 21.5408 293.239 22.3394 293.469 23.1989C293.699 24.0583 293.738 24.9578 293.583 25.834L275.083 179.274C274.841 181.184 273.933 182.948 272.519 184.256C271.106 185.563 269.276 186.331 267.353 186.424Z" fill="#A157FF" stroke="#A157FF" stroke-width="1.8" stroke-miterlimit="10"/>
<path d="M402.363 91.714C402.363 91.714 402.363 91.714 402.363 91.764L384.283 241.764C384.044 243.673 383.143 245.438 381.735 246.751C380.328 248.063 378.504 248.839 376.583 248.944H376.523H376.313L284.153 226.614C284.767 226.097 285.419 225.626 286.103 225.204L287.673 224.154H287.743C287.935 223.997 288.116 223.827 288.283 223.644C288.457 223.467 288.62 223.28 288.773 223.084L288.933 222.884C288.983 222.814 289.043 222.744 289.083 222.674C289.248 222.454 289.398 222.224 289.533 221.984C289.603 221.873 289.663 221.756 289.713 221.634C289.783 221.524 289.843 221.394 289.903 221.274C289.963 221.154 290.013 221.024 290.053 220.904C290.122 220.747 290.182 220.587 290.233 220.424C290.233 220.294 290.313 220.174 290.343 220.054C290.373 219.934 290.413 219.784 290.443 219.654C290.473 219.524 290.543 219.164 290.573 218.914L306.723 84.914L315.383 8.86401L315.493 7.92401C315.493 7.73401 316.233 7.86401 316.343 8.01401L344.343 46.534H344.393L398.013 84.824L399.743 86.064C400.635 86.6945 401.347 87.548 401.807 88.5394C402.267 89.5308 402.458 90.6254 402.363 91.714Z" fill="white" stroke="#A157FF" stroke-width="1.8" stroke-linejoin="bevel"/>
<path d="M376.303 248.854V248.914L149.013 249.364L147.013 249.044L7.01294 226.494L144.883 226.204L282.763 225.914C283.9 225.901 285.018 225.616 286.023 225.084C285.339 225.506 284.687 225.977 284.073 226.494" fill="#A157FF"/>
<path d="M376.303 248.854V248.914L149.013 249.364L147.013 249.044L7.01294 226.494L144.883 226.204L282.763 225.914C283.9 225.901 285.018 225.616 286.023 225.084C285.339 225.506 284.687 225.977 284.073 226.494" stroke="#A157FF" stroke-width="1.8" stroke-linejoin="round"/>
<path d="M206.124 145.919C233.143 112.254 231.348 65.9433 202.115 42.4814C172.882 19.0196 127.281 27.2909 100.262 60.9558C73.2432 94.6207 75.0379 140.931 104.271 164.393C133.504 187.855 179.105 179.584 206.124 145.919Z" stroke="#7FFF52" stroke-width="1.8" stroke-miterlimit="10"/>
<path d="M197.303 138.839C219.821 110.782 218.327 72.1877 193.966 52.6356C169.604 33.0834 131.601 39.978 109.083 68.035C86.5646 96.092 88.0589 134.687 112.42 154.239C136.782 173.791 174.785 166.896 197.303 138.839Z" stroke="#7FFF52" stroke-width="1.8" stroke-miterlimit="10"/>
<path d="M188.483 131.76C206.497 109.316 205.3 78.4398 185.81 62.7974C166.32 47.1551 135.917 52.6695 117.903 75.1142C99.8894 97.5589 101.086 128.435 120.576 144.077C140.066 159.719 170.469 154.205 188.483 131.76Z" stroke="#7FFF52" stroke-width="1.8" stroke-miterlimit="10"/>
<path d="M179.662 124.681C193.172 107.849 192.273 84.692 177.654 72.9593C163.035 61.2267 140.233 65.3609 126.724 82.1934C113.214 99.0259 114.113 122.182 128.732 133.915C143.35 145.648 166.153 141.514 179.662 124.681Z" stroke="#7FFF52" stroke-width="1.8" stroke-miterlimit="10"/>
<path d="M170.834 117.596C179.839 106.375 179.241 90.9407 169.498 83.1212C159.755 75.3017 144.557 78.0586 135.552 89.2788C126.547 100.499 127.145 115.934 136.888 123.753C146.631 131.573 161.829 128.816 170.834 117.596Z" stroke="#7FFF52" stroke-width="1.8" stroke-miterlimit="10"/>
<path d="M162.013 110.516C166.518 104.904 166.22 97.185 161.349 93.2753C156.477 89.3656 148.877 90.7457 144.372 96.358C139.868 101.97 140.166 109.689 145.037 113.599C149.909 117.509 157.509 116.129 162.013 110.516Z" stroke="#7FFF52" stroke-width="1.8" stroke-miterlimit="10"/>
<path d="M153.193 103.424L143.123 177.724" stroke="#7FFF52" stroke-width="1.8" stroke-miterlimit="10"/>
<path d="M153.193 103.424L217.963 126.584" stroke="#7FFF52" stroke-width="1.8" stroke-miterlimit="10"/>
<path d="M153.193 103.424L203.293 43.434" stroke="#7FFF52" stroke-width="1.8" stroke-miterlimit="10"/>
<path d="M153.193 103.424L119.393 43.184" stroke="#7FFF52" stroke-width="1.8" stroke-miterlimit="10"/>
<path d="M153.193 103.424L82.203 126.184" stroke="#7FFF52" stroke-width="1.8" stroke-miterlimit="10"/>
<path d="M212.363 68.204L211.683 67.764L211.013 67.364C210.196 66.296 209.019 65.5599 207.701 65.2915C206.383 65.0232 205.013 65.2407 203.843 65.904C203.533 65.904 203.213 66.004 202.893 66.064C202.033 66.384 200.273 65.574 199.003 65.164C198.563 65.0625 198.114 65.0056 197.663 64.994C194.953 64.924 192.023 66.704 189.093 68.424C189.293 66.014 189.473 63.774 189.713 61.424L189.803 60.294L191.243 42.364C191.571 39.4453 192.964 36.7503 195.157 34.796C197.349 32.8416 200.186 31.7655 203.123 31.774H204.313C205.702 31.7328 207.085 31.9852 208.37 32.5147C209.655 33.0442 210.814 33.839 211.771 34.8469C212.728 35.8549 213.461 37.0535 213.924 38.3643C214.386 39.6751 214.566 41.0687 214.453 42.454C214.103 46.774 213.503 53.994 213.453 54.674C213.453 54.984 213.363 55.794 213.283 56.764C213.283 56.934 213.203 57.704 213.183 57.984C213.093 58.984 213.033 59.634 213.003 59.984C212.943 60.574 212.873 61.634 212.713 63.744C212.603 65.164 212.563 65.744 212.463 67.024C212.423 67.504 212.383 67.924 212.363 68.204Z" fill="white" stroke="#A157FF" stroke-width="1.8" stroke-miterlimit="10"/>
<path d="M199.399 48.5633C200.354 47.9756 200.691 46.7901 200.153 45.9152C199.614 45.0404 198.404 44.8075 197.449 45.3952C196.494 45.9828 196.157 47.1684 196.695 48.0432C197.234 48.918 198.444 49.1509 199.399 48.5633Z" fill="#DA69A8" stroke="#A157FF" stroke-width="1.8" stroke-miterlimit="10"/>
<path d="M207.189 48.5958C208.144 48.0082 208.481 46.8226 207.943 45.9478C207.404 45.0729 206.194 44.8401 205.239 45.4277C204.284 46.0153 203.947 47.2009 204.485 48.0757C205.024 48.9506 206.234 49.1834 207.189 48.5958Z" fill="#DA69A8" stroke="#A157FF" stroke-width="1.8" stroke-miterlimit="10"/>
<path d="M192.533 63.7239C193.446 63.0094 194.211 62.1227 194.783 61.1139C195.692 59.4991 196.024 57.6226 195.723 55.7939" fill="white"/>
<path d="M192.533 63.7239C193.446 63.0094 194.211 62.1227 194.783 61.1139C195.692 59.4991 196.024 57.6226 195.723 55.7939" stroke="#A157FF" stroke-width="1.8" stroke-miterlimit="10"/>
<path d="M202.693 61.7939C204.563 60.8856 206.145 59.4768 207.263 57.7239C207.866 56.7413 208.296 55.6622 208.533 54.5339" fill="white"/>
<path d="M202.693 61.7939C204.563 60.8856 206.145 59.4768 207.263 57.7239C207.866 56.7413 208.296 55.6622 208.533 54.5339" stroke="#A157FF" stroke-width="1.8" stroke-miterlimit="10"/>
<path d="M210.533 62.234C210.139 61.2849 209.962 60.2601 210.013 59.234C210.134 57.4368 210.836 55.7276 212.013 54.364" fill="white"/>
<path d="M210.533 62.234C210.139 61.2849 209.962 60.2601 210.013 59.234C210.134 57.4368 210.836 55.7276 212.013 54.364" stroke="#A157FF" stroke-width="1.8" stroke-miterlimit="10"/>
<path d="M179.153 57.6039L177.953 72.2739L191.623 72.3239" stroke="#7FFF52" stroke-width="1.8" stroke-miterlimit="10"/>
<path d="M180.423 42.0739L181.623 27.4039L195.293 27.4539" stroke="#7FFF52" stroke-width="1.8" stroke-miterlimit="10"/>
<path d="M225.323 57.774L224.123 72.444L210.453 72.394" stroke="#7FFF52" stroke-width="1.8" stroke-miterlimit="10"/>
<path d="M226.593 42.2439L227.793 27.5739L214.123 27.5239" stroke="#7FFF52" stroke-width="1.8" stroke-miterlimit="10"/>
<path d="M75.943 62.584L74.063 62.574L74.213 60.754L76.093 60.764L75.943 62.584Z" fill="#E63F31"/>
<path d="M77.833 62.594L75.943 62.584L76.093 60.764L77.983 60.774L77.833 62.594Z" fill="#E63F31"/>
<path d="M72.0229 64.394L70.1429 64.384L70.2929 62.564H72.173L72.0229 64.394Z" fill="#E63F31"/>
<path d="M73.9129 64.394H72.0229L72.173 62.564L74.063 62.574L73.9129 64.394Z" fill="#E63F31"/>
<path d="M75.793 64.404L73.913 64.394L74.063 62.574L75.943 62.584L75.793 64.404Z" fill="#E63F31"/>
<path d="M77.683 64.414L75.793 64.404L75.943 62.584L77.833 62.594L77.683 64.414Z" fill="#E63F31"/>
<path d="M69.9929 66.204L68.1029 66.194L68.2529 64.374L70.1429 64.384L69.9929 66.204Z" fill="#E63F31"/>
<path d="M71.8729 66.214L69.9929 66.204L70.1429 64.384L72.0229 64.394L71.8729 66.214Z" fill="#E63F31"/>
<path d="M73.7629 66.214H71.8729L72.0229 64.394H73.9129L73.7629 66.214Z" fill="#E63F31"/>
<path d="M75.6529 66.224L73.7629 66.214L73.9129 64.394L75.7929 64.404L75.6529 66.224Z" fill="#E63F31"/>
<path d="M77.533 66.2339L75.653 66.2239L75.793 64.4039L77.683 64.4139L77.533 66.2339Z" fill="#E63F31"/>
<path d="M67.953 68.024L66.073 68.014L66.223 66.194H68.103L67.953 68.024Z" fill="#E63F31"/>
<path d="M69.843 68.024H67.953L68.103 66.194L69.993 66.204L69.843 68.024Z" fill="#E63F31"/>
<path d="M71.723 68.034L69.843 68.024L69.993 66.204L71.873 66.214L71.723 68.034Z" fill="#E63F31"/>
<path d="M73.6129 68.044L71.7229 68.034L71.8729 66.214H73.7629L73.6129 68.044Z" fill="#E63F31"/>
<path d="M75.5029 68.044H73.6129L73.7629 66.214L75.6529 66.224L75.5029 68.044Z" fill="#BB264A"/>
<path d="M77.3829 68.0539L75.5029 68.0439L75.6529 66.2239L77.5329 66.2339L77.3829 68.0539Z" fill="#BB264A"/>
<path d="M65.923 69.834L64.033 69.824L64.183 68.004L66.073 68.014L65.923 69.834Z" fill="#E63F31"/>
<path d="M67.803 69.844L65.923 69.834L66.073 68.014L67.953 68.024L67.803 69.844Z" fill="#E63F31"/>
<path d="M69.693 69.844H67.803L67.953 68.024H69.843L69.693 69.844Z" fill="#E63F31"/>
<path d="M71.573 69.854L69.693 69.844L69.843 68.024L71.723 68.034L71.573 69.854Z" fill="#BB264A"/>
<path d="M73.463 69.8639L71.573 69.8539L71.723 68.0339L73.613 68.0439L73.463 69.8639Z" fill="#BB264A"/>
<path d="M75.353 69.8639H73.463L73.613 68.0439H75.503L75.353 69.8639Z" fill="#BB264A"/>
<path d="M77.2329 69.8739L75.3529 69.8639L75.5029 68.0439L77.3829 68.0539L77.2329 69.8739Z" fill="#7C4E45"/>
<path d="M65.7729 71.654L63.8829 71.644L64.0329 69.824L65.9229 69.834L65.7729 71.654Z" fill="#E63F31"/>
<path d="M67.6529 71.664L65.7729 71.654L65.923 69.834L67.8029 69.844L67.6529 71.664Z" fill="#BB264A"/>
<path d="M69.543 71.674L67.653 71.664L67.803 69.844H69.693L69.543 71.674Z" fill="#BB264A"/>
<path d="M71.433 71.674H69.543L69.693 69.844L71.573 69.854L71.433 71.674Z" fill="#BB264A"/>
<path d="M73.313 71.6839L71.433 71.6739L71.573 69.8539L73.463 69.8639L73.313 71.6839Z" fill="#7C4E45"/>
<path d="M75.203 71.694L73.313 71.684L73.463 69.864H75.353L75.203 71.694Z" fill="#7C4E45"/>
<path d="M77.083 71.694H75.203L75.353 69.864L77.233 69.874L77.083 71.694Z" fill="#A96C5C"/>
<path d="M63.7329 73.474L61.8529 73.464L62.0029 71.644H63.8829L63.7329 73.474Z" fill="#BB264A"/>
<path d="M65.6229 73.474H63.7329L63.8829 71.644L65.7729 71.654L65.6229 73.474Z" fill="#BB264A"/>
<path d="M67.5129 73.4839L65.6229 73.4739L65.7729 71.6539L67.6529 71.6639L67.5129 73.4839Z" fill="#BB264A"/>
<path d="M69.3929 73.4939L67.5129 73.4839L67.6529 71.6639L69.5429 71.6739L69.3929 73.4939Z" fill="#BB264A"/>
<path d="M71.2829 73.4939H69.3929L69.5429 71.674H71.4329L71.2829 73.4939Z" fill="#7C4E45"/>
<path d="M73.163 73.504L71.283 73.4939L71.433 71.674L73.313 71.684L73.163 73.504Z" fill="#A96C5C"/>
<path d="M75.053 73.514L73.163 73.504L73.313 71.684L75.203 71.694L75.053 73.514Z" fill="#A96C5C"/>
<path d="M76.933 73.514H75.053L75.203 71.694H77.083L76.933 73.514Z" fill="#E63F31"/>
<path d="M63.593 75.294L61.703 75.284L61.853 73.464L63.733 73.474L63.593 75.294Z" fill="#BB264A"/>
<path d="M65.473 75.2939H63.593L63.733 73.4739H65.623L65.473 75.2939Z" fill="#BB264A"/>
<path d="M67.3629 75.3039L65.4729 75.2939L65.6229 73.4739L67.5129 73.4839L67.3629 75.3039Z" fill="#060608"/>
<path d="M69.2429 75.3139L67.3629 75.3039L67.5129 73.4839L69.3929 73.4939L69.2429 75.3139Z" fill="#060608"/>
<path d="M71.1329 75.314H69.2429L69.3929 73.494H71.2829L71.1329 75.314Z" fill="#A96C5C"/>
<path d="M73.0129 75.324L71.1329 75.314L71.2829 73.494L73.1629 73.504L73.0129 75.324Z" fill="#060608"/>
<path d="M74.9029 75.334L73.0129 75.324L73.1629 73.504L75.0529 73.514L74.9029 75.334Z" fill="#060608"/>
<path d="M76.793 75.334H74.903L75.053 73.514H76.933L76.793 75.334Z" fill="#E63F31"/>
<path d="M65.323 77.1139H63.443L63.593 75.2939H65.473L65.323 77.1139Z" fill="#BB264A"/>
<path d="M67.213 77.1239L65.323 77.1139L65.473 75.2939L67.363 75.3039L67.213 77.1239Z" fill="#060608"/>
<path d="M69.093 77.1339L67.213 77.124L67.363 75.304L69.243 75.3139L69.093 77.1339Z" fill="#A96C5C"/>
<path d="M70.983 77.144L69.093 77.134L69.243 75.314H71.133L70.983 77.144Z" fill="#060608"/>
<path d="M72.8729 77.144H70.9829L71.1329 75.314L73.0129 75.324L72.8729 77.144Z" fill="#A96C5C"/>
<path d="M74.7529 77.154L72.8729 77.144L73.0129 75.324L74.9029 75.334L74.7529 77.154Z" fill="#A96C5C"/>
<path d="M76.6429 77.164L74.7529 77.154L74.9029 75.334H76.7929L76.6429 77.164Z" fill="#A96C5C"/>
<path d="M67.063 78.944H65.173L65.323 77.114L67.213 77.124L67.063 78.944Z" fill="#7C4E45"/>
<path d="M68.953 78.954L67.063 78.944L67.213 77.124L69.093 77.134L68.953 78.954Z" fill="#060608"/>
<path d="M70.833 78.964L68.953 78.954L69.093 77.134L70.983 77.144L70.833 78.964Z" fill="#A96C5C"/>
<path d="M72.723 78.964H70.833L70.983 77.144H72.873L72.723 78.964Z" fill="#060608"/>
<path d="M74.6029 78.974L72.7229 78.964L72.8729 77.144L74.7529 77.154L74.6029 78.974Z" fill="#7C4E45"/>
<path d="M76.4929 78.9839L74.6029 78.9739L74.7529 77.1539L76.6429 77.1639L76.4929 78.9839Z" fill="#A96C5C"/>
<path d="M66.9129 80.764H65.0229L65.173 78.944H67.063L66.9129 80.764Z" fill="#7C4E45"/>
<path d="M68.803 80.774L66.913 80.764L67.063 78.944L68.953 78.954L68.803 80.774Z" fill="#060608"/>
<path d="M70.683 80.784L68.803 80.774L68.953 78.954L70.833 78.964L70.683 80.784Z" fill="#A96C5C"/>
<path d="M72.573 80.784H70.683L70.833 78.964H72.723L72.573 80.784Z" fill="#060608"/>
<path d="M74.453 80.794L72.573 80.784L72.723 78.964L74.603 78.974L74.453 80.794Z" fill="#7C4E45"/>
<path d="M76.343 80.8039L74.453 80.7939L74.603 78.9739L76.493 78.9839L76.343 80.8039Z" fill="#A96C5C"/>
<path d="M68.6529 82.594H66.7629L66.9129 80.764L68.8029 80.774L68.6529 82.594Z" fill="#060608"/>
<path d="M70.533 82.604L68.653 82.594L68.803 80.774L70.683 80.784L70.533 82.604Z" fill="#A96C5C"/>
<path d="M72.423 82.6139L70.533 82.6039L70.683 80.7839H72.573L72.423 82.6139Z" fill="#A96C5C"/>
<path d="M74.303 82.6139H72.423L72.573 80.7839L74.453 80.7939L74.303 82.6139Z" fill="#A96C5C"/>
<path d="M76.193 82.6239L74.303 82.6139L74.453 80.7939L76.343 80.8039L76.193 82.6239Z" fill="#A96C5C"/>
<path d="M68.5029 84.414H66.6129L66.7629 82.594H68.6529L68.5029 84.414Z" fill="#060608"/>
<path d="M70.3829 84.424L68.5029 84.414L68.6529 82.594L70.5329 82.604L70.3829 84.424Z" fill="#060608"/>
<path d="M72.2729 84.4339L70.3829 84.4239L70.5329 82.6039L72.4229 82.6139L72.2729 84.4339Z" fill="#A96C5C"/>
<path d="M74.1529 84.444L72.2729 84.434L72.423 82.614H74.3029L74.1529 84.444Z" fill="white"/>
<path d="M76.043 84.444H74.153L74.303 82.614L76.193 82.624L76.043 84.444Z" fill="white"/>
<path d="M70.2329 86.2439H68.3529L68.5029 84.4139L70.3829 84.4239L70.2329 86.2439Z" fill="#060608"/>
<path d="M72.1229 86.254L70.2329 86.2439L70.3829 84.424L72.2729 84.434L72.1229 86.254Z" fill="#A96C5C"/>
<path d="M74.0129 86.264L72.1229 86.254L72.2729 84.434L74.1529 84.444L74.0129 86.264Z" fill="#A96C5C"/>
<path d="M75.8929 86.264H74.0129L74.1529 84.444H76.0429L75.8929 86.264Z" fill="white"/>
<path d="M70.093 88.064H68.203L68.353 86.244H70.233L70.093 88.064Z" fill="#060608"/>
<path d="M71.973 88.074L70.093 88.064L70.233 86.244L72.123 86.254L71.973 88.074Z" fill="#060608"/>
<path d="M73.8629 88.084L71.9729 88.074L72.1229 86.254L74.0129 86.264L73.8629 88.084Z" fill="#A96C5C"/>
<path d="M75.7429 88.084H73.8629L74.0129 86.264H75.8929L75.7429 88.084Z" fill="#A96C5C"/>
<path d="M71.823 89.894H69.943L70.093 88.064L71.973 88.074L71.823 89.894Z" fill="#060608"/>
<path d="M73.713 89.904L71.823 89.894L71.973 88.074L73.863 88.084L73.713 89.904Z" fill="#060608"/>
<path d="M75.593 89.914L73.713 89.904L73.863 88.084H75.743L75.593 89.914Z" fill="#060608"/>
<path d="M64.1329 91.694L62.2429 91.684L62.3929 89.864H64.2829L64.1329 91.694Z" fill="#F8EC00"/>
<path d="M66.0229 91.694H64.1329L64.2829 89.864L66.1729 89.874L66.0229 91.694Z" fill="#F8EC00"/>
<path d="M67.9029 91.704L66.0229 91.694L66.173 89.874L68.0529 89.884L67.9029 91.704Z" fill="#F8EC00"/>
<path d="M69.793 91.714L67.903 91.704L68.053 89.884L69.943 89.894L69.793 91.714Z" fill="#F15855"/>
<path d="M71.673 91.714H69.793L69.943 89.894H71.823L71.673 91.714Z" fill="#F8EC00"/>
<path d="M73.563 91.724L71.673 91.714L71.823 89.894L73.713 89.904L73.563 91.724Z" fill="#060608"/>
<path d="M75.443 91.7339L73.563 91.7239L73.713 89.9039L75.593 89.9139L75.443 91.7339Z" fill="#060608"/>
<path d="M62.103 93.504L60.213 93.4939L60.363 91.674L62.243 91.684L62.103 93.504Z" fill="#F8EC00"/>
<path d="M63.9829 93.514L62.1029 93.504L62.2429 91.684L64.1329 91.694L63.9829 93.514Z" fill="#F8EC00"/>
<path d="M65.8729 93.514H63.9829L64.1329 91.694H66.0229L65.8729 93.514Z" fill="#F8EC00"/>
<path d="M67.7529 93.524L65.8729 93.514L66.0229 91.694L67.9029 91.704L67.7529 93.524Z" fill="#F8EC00"/>
<path d="M69.6429 93.534L67.7529 93.524L67.9029 91.704L69.7929 91.714L69.6429 93.534Z" fill="#F15855"/>
<path d="M71.5229 93.534H69.6429L69.7929 91.714H71.673L71.5229 93.534Z" fill="#F15855"/>
<path d="M73.4129 93.544L71.5229 93.534L71.673 91.714L73.563 91.724L73.4129 93.544Z" fill="#A96C5C"/>
<path d="M75.293 93.5539L73.413 93.5439L73.563 91.7239L75.443 91.7339L75.293 93.5539Z" fill="#060608"/>
<path d="M61.953 95.324L60.063 95.314L60.213 93.494L62.103 93.504L61.953 95.324Z" fill="#F8EC00"/>
<path d="M63.833 95.334L61.953 95.324L62.103 93.504L63.983 93.514L63.833 95.334Z" fill="#F8EC00"/>
<path d="M65.723 95.334H63.833L63.983 93.514H65.873L65.723 95.334Z" fill="#F8EC00"/>
<path d="M67.6029 95.344L65.7229 95.334L65.8729 93.514L67.7529 93.524L67.6029 95.344Z" fill="#F8EC00"/>
<path d="M69.4929 95.354L67.6029 95.344L67.7529 93.524L69.6429 93.534L69.4929 95.354Z" fill="#FAA726"/>
<path d="M71.3729 95.3639L69.4929 95.3539L69.6429 93.5339H71.5229L71.3729 95.3639Z" fill="#F15855"/>
<path d="M73.2629 95.3639H71.3729L71.5229 93.5339L73.4129 93.5439L73.2629 95.3639Z" fill="#A96C5C"/>
<path d="M75.1529 95.3739L73.2629 95.3639L73.4129 93.5439L75.2929 93.5539L75.1529 95.3739Z" fill="#A96C5C"/>
<path d="M61.953 95.324L60.063 95.314L59.913 97.144H61.803L61.953 95.324Z" fill="#F8EC00"/>
<path d="M63.833 95.334L61.953 95.324L61.803 97.144L63.683 97.154L63.833 95.334Z" fill="#F8EC00"/>
<path d="M65.723 95.334H63.833L63.683 97.154L65.573 97.164L65.723 95.334Z" fill="#F8EC00"/>
<path d="M67.603 95.344L65.723 95.334L65.573 97.164H67.453L67.603 95.344Z" fill="#F8EC00"/>
<path d="M69.493 95.354L67.603 95.344L67.453 97.164L69.343 97.174L69.493 95.354Z" fill="#F8EC00"/>
<path d="M71.373 95.3639L69.493 95.3539L69.343 97.1739L71.233 97.1839L71.373 95.3639Z" fill="#BB264A"/>
<path d="M73.2629 95.364H71.3729L71.2329 97.184H73.1129L73.2629 95.364Z" fill="#F15855"/>
<path d="M75.1529 95.374L73.2629 95.364L73.1129 97.184L75.0029 97.194L75.1529 95.374Z" fill="#A96C5C"/>
<path d="M59.7629 98.964H61.6529V98.694L59.8029 98.304L59.7629 98.964Z" fill="#F8EC00"/>
<path d="M59.913 97.144L59.823 98.304L61.673 98.694L61.803 97.144H59.913Z" fill="#F8EC00"/>
<path d="M61.673 98.694V98.964H63.223L62.413 98.814L61.673 98.694Z" fill="#F8EC00"/>
<path d="M63.683 97.1539H61.803L61.673 98.7039L62.393 98.8339L63.203 98.9839H63.533L63.683 97.1539Z" fill="#F8EC00"/>
<path d="M65.573 97.1639L63.683 97.1539L63.533 98.9739L65.423 98.9839L65.573 97.1639Z" fill="#FAA726"/>
<path d="M69.343 97.1739L67.453 97.1639L67.313 98.9839L69.193 98.9939L69.343 97.1739Z" fill="#F8EC00"/>
<path d="M71.233 97.184L69.343 97.174L69.193 98.9939L71.083 99.004L71.233 97.184Z" fill="#FAA726"/>
<path d="M73.113 97.184H71.233L71.083 99.004H72.963L73.113 97.184Z" fill="#BB264A"/>
<path d="M75.003 97.194L73.113 97.184L72.963 99.004L74.853 99.014L75.003 97.194Z" fill="#BB264A"/>
<path d="M63.203 98.9739L63.533 99.0339V98.9739H63.203Z" fill="#FAA726"/>
<path d="M63.533 99.0339L63.203 98.9739H61.653L63.533 99.0339Z" fill="#FAA726"/>
<path d="M63.533 98.9739V99.0339L65.393 99.3839V98.9839L63.533 98.9739Z" fill="#FAA726"/>
<path d="M79.7229 62.594L81.6129 62.604L81.7629 60.784L79.8729 60.774L79.7229 62.594Z" fill="#E63F31"/>
<path d="M77.843 62.594H79.723L79.873 60.774H77.993L77.843 62.594Z" fill="#E63F31"/>
<path d="M83.343 64.434L85.233 64.444L85.383 62.614H83.493L83.343 64.434Z" fill="#E63F31"/>
<path d="M81.463 64.4239L83.343 64.4339L83.493 62.6139L81.613 62.6039L81.463 64.4239Z" fill="#E63F31"/>
<path d="M79.573 64.4139L81.463 64.4239L81.613 62.6039L79.723 62.5939L79.573 64.4139Z" fill="#E63F31"/>
<path d="M77.693 64.4139H79.573L79.723 62.5939H77.843L77.693 64.4139Z" fill="#E63F31"/>
<path d="M85.083 66.264H86.973L87.123 64.444H85.233L85.083 66.264Z" fill="#E63F31"/>
<path d="M83.203 66.254L85.083 66.264L85.233 64.444L83.343 64.434L83.203 66.254Z" fill="#E63F31"/>
<path d="M81.313 66.2439L83.203 66.2539L83.343 64.4339L81.463 64.424L81.313 66.2439Z" fill="#E63F31"/>
<path d="M79.423 66.2439H81.313L81.463 64.4239L79.573 64.4139L79.423 66.2439Z" fill="#E63F31"/>
<path d="M77.543 66.2339L79.423 66.2439L79.573 64.4139H77.693L77.543 66.2339Z" fill="#E63F31"/>
<path d="M86.823 68.084L88.703 68.094L88.853 66.274L86.973 66.264L86.823 68.084Z" fill="#E63F31"/>
<path d="M84.933 68.084H86.823L86.973 66.264H85.083L84.933 68.084Z" fill="#E63F31"/>
<path d="M83.053 68.074L84.933 68.084L85.083 66.264L83.203 66.254L83.053 68.074Z" fill="#E63F31"/>
<path d="M81.163 68.064L83.053 68.074L83.203 66.254L81.313 66.244L81.163 68.064Z" fill="#E63F31"/>
<path d="M79.283 68.064H81.163L81.313 66.244H79.423L79.283 68.064Z" fill="#BB264A"/>
<path d="M77.3929 68.054L79.2829 68.0639L79.423 66.2439L77.5429 66.2339L77.3929 68.054Z" fill="#BB264A"/>
<path d="M88.553 69.914L90.443 69.924L90.593 68.104L88.703 68.094L88.553 69.914Z" fill="#E63F31"/>
<path d="M86.673 69.914H88.553L88.703 68.094L86.823 68.084L86.673 69.914Z" fill="#E63F31"/>
<path d="M84.783 69.904L86.673 69.914L86.823 68.084H84.933L84.783 69.904Z" fill="#E63F31"/>
<path d="M82.903 69.894L84.783 69.904L84.933 68.084L83.053 68.074L82.903 69.894Z" fill="#BB264A"/>
<path d="M81.0129 69.894H82.9029L83.0529 68.074L81.1629 68.064L81.0129 69.894Z" fill="#BB264A"/>
<path d="M79.1329 69.884L81.0129 69.894L81.1629 68.064H79.2829L79.1329 69.884Z" fill="#BB264A"/>
<path d="M77.2429 69.874L79.1329 69.8839L79.2829 68.0639L77.3929 68.054L77.2429 69.874Z" fill="#7C4E45"/>
<path d="M88.403 71.7339L90.293 71.7439L90.443 69.9239L88.553 69.9139L88.403 71.7339Z" fill="#E63F31"/>
<path d="M86.5229 71.7339H88.4029L88.5529 69.9139H86.673L86.5229 71.7339Z" fill="#BB264A"/>
<path d="M84.6329 71.7239L86.5229 71.7339L86.6729 69.9139L84.7829 69.9039L84.6329 71.7239Z" fill="#BB264A"/>
<path d="M82.7529 71.714L84.6329 71.724L84.7829 69.904L82.9029 69.894L82.7529 71.714Z" fill="#BB264A"/>
<path d="M80.8629 71.714H82.7529L82.9029 69.894H81.0129L80.8629 71.714Z" fill="#7C4E45"/>
<path d="M78.9829 71.704L80.8629 71.714L81.0129 69.894L79.1329 69.884L78.9829 71.704Z" fill="#7C4E45"/>
<path d="M77.093 71.694L78.983 71.704L79.133 69.884L77.243 69.874L77.093 71.694Z" fill="#A96C5C"/>
<path d="M90.1429 73.564L92.0329 73.574L92.1829 71.754L90.2929 71.744L90.1429 73.564Z" fill="#BB264A"/>
<path d="M88.2629 73.5639H90.1429L90.2929 71.7439L88.4029 71.7339L88.2629 73.5639Z" fill="#BB264A"/>
<path d="M86.3729 73.5539L88.2629 73.5639L88.4029 71.7339H86.5229L86.3729 73.5539Z" fill="#BB264A"/>
<path d="M84.4829 73.5439L86.3729 73.5539L86.5229 71.7339L84.6329 71.7239L84.4829 73.5439Z" fill="#BB264A"/>
<path d="M82.6029 73.534L84.4829 73.544L84.6329 71.724L82.7529 71.714L82.6029 73.534Z" fill="#7C4E45"/>
<path d="M80.713 73.534H82.603L82.753 71.714H80.863L80.713 73.534Z" fill="#A96C5C"/>
<path d="M78.833 73.524L80.713 73.534L80.863 71.714L78.983 71.704L78.833 73.524Z" fill="#A96C5C"/>
<path d="M76.943 73.514L78.833 73.524L78.983 71.704L77.093 71.694L76.943 73.514Z" fill="#E63F31"/>
<path d="M89.9929 75.384L91.8829 75.394L92.0329 73.574L90.1429 73.564L89.9929 75.384Z" fill="#BB264A"/>
<path d="M88.1129 75.384H89.9929L90.1429 73.564H88.2629L88.1129 75.384Z" fill="#BB264A"/>
<path d="M86.2229 75.374L88.1129 75.3839L88.2629 73.5639L86.3729 73.554L86.2229 75.374Z" fill="#060608"/>
<path d="M84.343 75.3639L86.223 75.3739L86.373 73.5539L84.483 73.5439L84.343 75.3639Z" fill="#060608"/>
<path d="M82.453 75.3639H84.343L84.483 73.5439L82.603 73.5339L82.453 75.3639Z" fill="#A96C5C"/>
<path d="M80.573 75.3539L82.453 75.3639L82.603 73.5339H80.713L80.573 75.3539Z" fill="#060608"/>
<path d="M78.683 75.344L80.573 75.354L80.713 73.534L78.833 73.524L78.683 75.344Z" fill="#060608"/>
<path d="M76.793 75.334L78.683 75.344L78.833 73.524L76.943 73.514L76.793 75.334Z" fill="#E63F31"/>
<path d="M87.963 77.204H89.843L89.993 75.384H88.113L87.963 77.204Z" fill="#BB264A"/>
<path d="M86.073 77.194L87.963 77.204L88.113 75.384L86.223 75.374L86.073 77.194Z" fill="#060608"/>
<path d="M84.193 77.184L86.073 77.194L86.223 75.374L84.343 75.364L84.193 77.184Z" fill="#A96C5C"/>
<path d="M82.303 77.184H84.193L84.343 75.364H82.453L82.303 77.184Z" fill="#060608"/>
<path d="M80.423 77.1739L82.303 77.1839L82.453 75.3639L80.573 75.3539L80.423 77.1739Z" fill="#A96C5C"/>
<path d="M78.533 77.164L80.423 77.174L80.573 75.354L78.683 75.344L78.533 77.164Z" fill="#A96C5C"/>
<path d="M76.653 77.164H78.533L78.683 75.344L76.793 75.334L76.653 77.164Z" fill="#A96C5C"/>
<path d="M85.923 79.014L87.813 79.024L87.963 77.204L86.073 77.194L85.923 79.014Z" fill="#7C4E45"/>
<path d="M84.043 79.014H85.923L86.073 77.194L84.193 77.184L84.043 79.014Z" fill="#060608"/>
<path d="M82.153 79.004L84.043 79.014L84.193 77.184H82.303L82.153 79.004Z" fill="#A96C5C"/>
<path d="M80.2729 78.9939L82.1529 79.004L82.3029 77.184L80.423 77.174L80.2729 78.9939Z" fill="#060608"/>
<path d="M78.3829 78.9939H80.2729L80.4229 77.1739L78.5329 77.1639L78.3829 78.9939Z" fill="#7C4E45"/>
<path d="M76.5029 78.9839L78.3829 78.9939L78.5329 77.1639H76.6529L76.5029 78.9839Z" fill="#A96C5C"/>
<path d="M85.783 80.834L87.663 80.844L87.813 79.024L85.923 79.014L85.783 80.834Z" fill="#7C4E45"/>
<path d="M83.8929 80.834H85.7829L85.923 79.014H84.0429L83.8929 80.834Z" fill="#060608"/>
<path d="M82.0029 80.824L83.8929 80.834L84.0429 79.014L82.1529 79.004L82.0029 80.824Z" fill="#A96C5C"/>
<path d="M80.1229 80.814L82.0029 80.824L82.1529 79.004L80.2729 78.994L80.1229 80.814Z" fill="#060608"/>
<path d="M78.2329 80.814H80.1229L80.2729 78.994H78.3829L78.2329 80.814Z" fill="#7C4E45"/>
<path d="M76.3529 80.8039L78.2329 80.8139L78.3829 78.9939L76.5029 78.9839L76.3529 80.8039Z" fill="#A96C5C"/>
<path d="M83.7429 82.654L85.6329 82.664L85.7829 80.834H83.8929L83.7429 82.654Z" fill="#060608"/>
<path d="M81.8529 82.644L83.7429 82.654L83.8929 80.834L82.0029 80.824L81.8529 82.644Z" fill="#A96C5C"/>
<path d="M79.9729 82.634L81.8529 82.644L82.0029 80.824L80.1229 80.814L79.9729 82.634Z" fill="#A96C5C"/>
<path d="M78.083 82.634H79.973L80.123 80.814H78.233L78.083 82.634Z" fill="#A96C5C"/>
<path d="M76.203 82.624L78.083 82.6339L78.233 80.8139L76.353 80.804L76.203 82.624Z" fill="#A96C5C"/>
<path d="M83.593 84.4739L85.483 84.4839L85.633 82.6639L83.743 82.6539L83.593 84.4739Z" fill="#060608"/>
<path d="M81.703 84.464L83.593 84.474L83.743 82.654L81.853 82.644L81.703 84.464Z" fill="#060608"/>
<path d="M79.823 84.464H81.703L81.853 82.644L79.973 82.634L79.823 84.464Z" fill="#A96C5C"/>
<path d="M77.933 84.454L79.823 84.464L79.973 82.634H78.083L77.933 84.454Z" fill="white"/>
<path d="M76.053 84.444L77.933 84.454L78.083 82.634L76.203 82.624L76.053 84.444Z" fill="white"/>
<path d="M81.563 86.284L83.443 86.294L83.593 84.474L81.703 84.464L81.563 86.284Z" fill="#060608"/>
<path d="M79.673 86.284H81.563L81.703 84.464H79.823L79.673 86.284Z" fill="#A96C5C"/>
<path d="M77.793 86.274L79.673 86.284L79.823 84.464L77.933 84.454L77.793 86.274Z" fill="#A96C5C"/>
<path d="M75.903 86.264L77.793 86.274L77.933 84.454L76.053 84.444L75.903 86.264Z" fill="white"/>
<path d="M81.413 88.1139H83.293L83.443 86.2939L81.563 86.2839L81.413 88.1139Z" fill="#060608"/>
<path d="M79.5229 88.1039L81.4129 88.1139L81.563 86.2839H79.673L79.5229 88.1039Z" fill="#060608"/>
<path d="M77.6429 88.094L79.5229 88.104L79.673 86.284L77.7929 86.274L77.6429 88.094Z" fill="#A96C5C"/>
<path d="M75.7529 88.084L77.6429 88.094L77.7929 86.274L75.9029 86.264L75.7529 88.084Z" fill="#A96C5C"/>
<path d="M79.3729 89.9239L81.2629 89.9339L81.4129 88.1139L79.5229 88.1039L79.3729 89.9239Z" fill="#060608"/>
<path d="M77.4929 89.914L79.3729 89.924L79.5229 88.104L77.6429 88.094L77.4929 89.914Z" fill="#060608"/>
<path d="M75.6029 89.914H77.4929L77.6429 88.094L75.7529 88.084L75.6029 89.914Z" fill="#060608"/>
<path d="M86.7729 91.774L88.6529 91.784L88.8029 89.954H86.923L86.7729 91.774Z" fill="#F8EC00"/>
<path d="M84.8829 91.764L86.7729 91.774L86.9229 89.954L85.0329 89.944L84.8829 91.764Z" fill="#F8EC00"/>
<path d="M82.9929 91.754L84.8829 91.764L85.0329 89.944L83.1429 89.934L82.9929 91.754Z" fill="#F8EC00"/>
<path d="M81.1129 91.754H82.9929L83.1429 89.934H81.2629L81.1129 91.754Z" fill="#F15855"/>
<path d="M79.2229 91.7439L81.1129 91.754L81.2629 89.934L79.3729 89.924L79.2229 91.7439Z" fill="#F8EC00"/>
<path d="M77.343 91.7339L79.223 91.7439L79.373 89.9239L77.493 89.9139L77.343 91.7339Z" fill="#060608"/>
<path d="M75.453 91.7339H77.343L77.493 89.9139H75.603L75.453 91.7339Z" fill="#060608"/>
<path d="M88.5029 93.6039H90.3929L90.5429 91.7839H88.6529L88.5029 93.6039Z" fill="#F8EC00"/>
<path d="M86.6229 93.594L88.5029 93.604L88.6529 91.784L86.7729 91.774L86.6229 93.594Z" fill="#F8EC00"/>
<path d="M84.7329 93.584L86.6229 93.594L86.7729 91.774L84.8829 91.764L84.7329 93.584Z" fill="#F8EC00"/>
<path d="M82.8529 93.584H84.7329L84.8829 91.764L82.9929 91.754L82.8529 93.584Z" fill="#F8EC00"/>
<path d="M80.963 93.574L82.853 93.584L82.993 91.754H81.113L80.963 93.574Z" fill="#F15855"/>
<path d="M79.073 93.564L80.963 93.574L81.113 91.754L79.223 91.744L79.073 93.564Z" fill="#F15855"/>
<path d="M77.193 93.5539L79.073 93.5639L79.223 91.7439L77.343 91.7339L77.193 93.5539Z" fill="#A96C5C"/>
<path d="M75.303 93.5539H77.193L77.343 91.7339H75.453L75.303 93.5539Z" fill="#060608"/>
<path d="M88.3529 95.4239H90.2429L90.3929 93.6039H88.5029L88.3529 95.4239Z" fill="#F8EC00"/>
<path d="M86.4729 95.414L88.3529 95.424L88.5029 93.604L86.6229 93.594L86.4729 95.414Z" fill="#F8EC00"/>
<path d="M84.583 95.404L86.473 95.414L86.623 93.594L84.733 93.584L84.583 95.404Z" fill="#F8EC00"/>
<path d="M82.703 95.404H84.583L84.733 93.584H82.853L82.703 95.404Z" fill="#F8EC00"/>
<path d="M80.813 95.394L82.703 95.404L82.853 93.584L80.963 93.574L80.813 95.394Z" fill="#FAA726"/>
<path d="M78.933 95.384L80.813 95.394L80.963 93.574L79.073 93.564L78.933 95.384Z" fill="#F15855"/>
<path d="M77.043 95.3839H78.933L79.073 93.5639L77.193 93.554L77.043 95.3839Z" fill="#A96C5C"/>
<path d="M75.153 95.374L77.043 95.3839L77.193 93.554H75.303L75.153 95.374Z" fill="#A96C5C"/>
<path d="M90.243 95.424H88.353L88.203 97.2439L90.093 97.254L90.243 95.424Z" fill="#F8EC00"/>
<path d="M88.353 95.4239L86.473 95.4139L86.323 97.2339L88.203 97.2439L88.353 95.4239Z" fill="#F8EC00"/>
<path d="M86.473 95.4139L84.583 95.4039L84.433 97.2339H86.323L86.473 95.4139Z" fill="#F8EC00"/>
<path d="M84.583 95.4039H82.703L82.553 97.2239L84.433 97.2339L84.583 95.4039Z" fill="#F8EC00"/>
<path d="M82.703 95.404L80.813 95.394L80.663 97.214L82.553 97.224L82.703 95.404Z" fill="#F8EC00"/>
<path d="M80.813 95.394L78.933 95.384L78.783 97.204L80.663 97.214L80.813 95.394Z" fill="#BB264A"/>
<path d="M78.9329 95.384H77.0429L76.8929 97.204H78.7829L78.9329 95.384Z" fill="#F15855"/>
<path d="M77.0429 95.384L75.1529 95.374L75.0129 97.194L76.8929 97.204L77.0429 95.384Z" fill="#A96C5C"/>
<path d="M90.093 97.254L88.203 97.244L88.063 99.064L89.943 99.074L90.093 97.254Z" fill="#F8EC00"/>
<path d="M88.203 97.2439L86.323 97.2339L86.173 99.0539L88.063 99.0639L88.203 97.2439Z" fill="#F8EC00"/>
<path d="M86.323 97.2339H84.433L84.293 99.0539H86.173L86.323 97.2339Z" fill="#FAA726"/>
<path d="M82.5529 97.224L80.6629 97.214L80.5129 99.034L82.4029 99.044L82.5529 97.224Z" fill="#F8EC00"/>
<path d="M80.6629 97.214L78.7829 97.204L78.6329 99.034H80.5129L80.6629 97.214Z" fill="#FAA726"/>
<path d="M78.7829 97.204H76.8929L76.7429 99.024L78.6329 99.034L78.7829 97.204Z" fill="#BB264A"/>
<path d="M76.8929 97.204L75.0129 97.194L74.8629 99.014L76.7429 99.024L76.8929 97.204Z" fill="#BB264A"/>
<path d="M52.0729 86.344L50.8729 101.004L64.5429 101.054" stroke="#7FFF52" stroke-width="1.8" stroke-miterlimit="10"/>
<path d="M53.343 70.804L54.543 56.134L68.213 56.194" stroke="#7FFF52" stroke-width="1.8" stroke-miterlimit="10"/>
<path d="M98.2429 86.514L97.0429 101.174L83.3729 101.134" stroke="#7FFF52" stroke-width="1.8" stroke-miterlimit="10"/>
<path d="M99.513 70.974L100.713 56.314L87.043 56.254" stroke="#7FFF52" stroke-width="1.8" stroke-miterlimit="10"/>
<path d="M196.003 293.094C233.221 293.094 263.393 289.62 263.393 285.334C263.393 281.048 233.221 277.574 196.003 277.574C158.784 277.574 128.613 281.048 128.613 285.334C128.613 289.62 158.784 293.094 196.003 293.094Z" stroke="#7FFF52" stroke-width="1.8" stroke-miterlimit="10"/>
<path d="M196.163 303.994C229.526 303.994 256.573 300.52 256.573 296.234C256.573 291.948 229.526 288.474 196.163 288.474C162.799 288.474 135.753 291.948 135.753 296.234C135.753 300.52 162.799 303.994 196.163 303.994Z" stroke="#7FFF52" stroke-opacity="0.8" stroke-width="1.8" stroke-miterlimit="10"/>
<path d="M196.473 316.784C219.177 316.784 237.583 313.31 237.583 309.024C237.583 304.738 219.177 301.264 196.473 301.264C173.768 301.264 155.363 304.738 155.363 309.024C155.363 313.31 173.768 316.784 196.473 316.784Z" stroke="#7FFF52" stroke-opacity="0.6" stroke-width="1.8" stroke-miterlimit="10"/>
<path d="M196.003 329.024C209.263 329.024 220.013 325.55 220.013 321.264C220.013 316.978 209.263 313.504 196.003 313.504C182.743 313.504 171.993 316.978 171.993 321.264C171.993 325.55 182.743 329.024 196.003 329.024Z" stroke="#7FFF52" stroke-opacity="0.4" stroke-width="1.8" stroke-miterlimit="10"/>
<path d="M196.003 340.464C200.99 340.464 205.033 336.99 205.033 332.704C205.033 328.418 200.99 324.944 196.003 324.944C191.016 324.944 186.973 328.418 186.973 332.704C186.973 336.99 191.016 340.464 196.003 340.464Z" stroke="#7FFF52" stroke-opacity="0.2" stroke-width="1.8" stroke-miterlimit="10"/>
<path d="M191.363 256.234C199.15 256.234 205.463 251.73 205.463 246.174C205.463 240.618 199.15 236.114 191.363 236.114C183.576 236.114 177.263 240.618 177.263 246.174C177.263 251.73 183.576 256.234 191.363 256.234Z" fill="#A157FF" stroke="white" stroke-width="1.8" stroke-miterlimit="10"/>
<path d="M319.873 177.554C317.213 176.264 315.383 172.324 315.813 168.784L327.333 74.5039C327.763 70.9639 330.333 69.1239 332.963 70.4139C335.633 71.7039 337.463 75.6539 337.033 79.1839L325.513 173.474C325.083 177.004 322.543 178.844 319.873 177.554Z" fill="#A157FF"/>
<path d="M336.723 185.694C334.053 184.404 332.233 180.454 332.663 176.924L344.183 82.644C344.613 79.104 347.183 77.264 349.813 78.554C352.483 79.844 354.303 83.784 353.873 87.324L342.353 181.604C341.923 185.144 339.393 186.984 336.723 185.694Z" fill="#A157FF"/>
<path d="M353.573 193.834C350.903 192.544 349.073 188.594 349.503 185.064L361.013 90.774C361.443 87.244 364.013 85.404 366.653 86.694C369.313 87.974 371.143 91.924 370.713 95.464L359.193 189.744C358.773 193.274 356.233 195.114 353.573 193.834Z" fill="#A157FF"/>
<path d="M152.573 210.214C152.575 210.436 152.533 210.657 152.448 210.863C152.364 211.069 152.24 211.256 152.083 211.414L150.173 213.314C149.856 213.631 149.426 213.809 148.978 213.809C148.53 213.809 148.1 213.631 147.783 213.314C147.469 212.996 147.292 212.566 147.292 212.119C147.292 211.672 147.469 211.242 147.783 210.924L148.203 210.514C148.257 210.462 148.299 210.4 148.328 210.331C148.358 210.262 148.373 210.189 148.373 210.114C148.374 210.014 148.355 209.915 148.317 209.822C148.279 209.729 148.223 209.645 148.153 209.574C148.017 209.461 147.844 209.404 147.668 209.413C147.492 209.422 147.326 209.497 147.203 209.624L140.333 216.364C140.016 216.681 139.586 216.859 139.138 216.859C138.69 216.859 138.26 216.681 137.943 216.364C137.787 216.208 137.663 216.022 137.579 215.818C137.495 215.614 137.452 215.395 137.453 215.174C137.451 214.725 137.628 214.294 137.943 213.974L139.583 212.344C139.675 212.246 139.729 212.118 139.733 211.984C139.73 211.781 139.647 211.587 139.503 211.444C139.438 211.377 139.36 211.325 139.274 211.289C139.188 211.252 139.096 211.234 139.003 211.234C138.91 211.234 138.818 211.252 138.732 211.289C138.646 211.325 138.568 211.377 138.503 211.444L137.013 213.034C136.696 213.351 136.266 213.529 135.818 213.529C135.37 213.529 134.94 213.351 134.623 213.034C134.309 212.716 134.132 212.286 134.132 211.839C134.132 211.392 134.309 210.962 134.623 210.644L140.283 204.984C140.337 204.932 140.379 204.87 140.408 204.801C140.438 204.732 140.453 204.659 140.453 204.584C140.453 204.484 140.433 204.385 140.393 204.294C140.359 204.197 140.305 204.108 140.233 204.034C140.166 203.975 140.092 203.925 140.013 203.884C139.89 203.832 139.753 203.817 139.622 203.842C139.49 203.867 139.369 203.93 139.273 204.024L133.643 209.664C133.486 209.822 133.3 209.947 133.095 210.033C132.889 210.119 132.669 210.163 132.447 210.164C132.224 210.164 132.004 210.121 131.798 210.036C131.592 209.951 131.405 209.826 131.248 209.669C131.091 209.512 130.966 209.325 130.881 209.119C130.796 208.913 130.753 208.693 130.753 208.47C130.753 208.248 130.798 208.028 130.884 207.822C130.969 207.617 131.095 207.431 131.253 207.274L133.943 204.574C134.032 204.486 134.085 204.369 134.093 204.244C134.092 204.135 134.072 204.026 134.033 203.924C133.993 203.83 133.935 203.746 133.863 203.674C133.801 203.606 133.721 203.558 133.633 203.534C133.488 203.492 133.335 203.49 133.19 203.527C133.044 203.564 132.91 203.639 132.803 203.744L132.473 204.084C132.316 204.242 132.13 204.367 131.925 204.453C131.719 204.539 131.499 204.583 131.277 204.584C131.054 204.584 130.834 204.541 130.628 204.456C130.422 204.371 130.235 204.246 130.078 204.089C129.921 203.932 129.796 203.745 129.711 203.539C129.626 203.333 129.583 203.113 129.583 202.89C129.583 202.668 129.628 202.448 129.714 202.242C129.799 202.037 129.925 201.851 130.083 201.694L134.483 197.284C134.64 197.126 134.826 197 135.031 196.915C135.237 196.829 135.457 196.784 135.679 196.784C135.902 196.783 136.122 196.827 136.328 196.912C136.534 196.997 136.721 197.122 136.878 197.279C137.035 197.436 137.16 197.623 137.245 197.829C137.33 198.035 137.373 198.255 137.373 198.477C137.373 198.7 137.328 198.92 137.242 199.126C137.157 199.331 137.031 199.517 136.873 199.674L134.153 202.364C134.102 202.409 134.062 202.465 134.034 202.527C134.007 202.589 133.993 202.656 133.993 202.724C133.992 202.824 134.011 202.923 134.048 203.016C134.086 203.109 134.142 203.193 134.213 203.264C134.286 203.338 134.374 203.396 134.47 203.436C134.566 203.475 134.669 203.495 134.773 203.494C134.908 203.483 135.034 203.426 135.133 203.334L142.843 195.624C143.16 195.307 143.59 195.129 144.038 195.129C144.486 195.129 144.916 195.307 145.233 195.624C145.548 195.942 145.724 196.372 145.724 196.819C145.724 197.266 145.548 197.696 145.233 198.014L140.493 202.744C140.448 202.789 140.413 202.842 140.389 202.9C140.365 202.958 140.353 203.021 140.353 203.084C140.354 203.185 140.374 203.284 140.414 203.377C140.453 203.47 140.511 203.554 140.583 203.624C140.722 203.749 140.906 203.815 141.093 203.805C141.281 203.796 141.457 203.713 141.583 203.574L142.853 202.304C143.09 202.069 143.391 201.909 143.719 201.845C144.046 201.781 144.385 201.816 144.693 201.944C145.001 202.072 145.264 202.289 145.449 202.567C145.634 202.844 145.733 203.17 145.733 203.504C145.734 203.725 145.691 203.944 145.607 204.148C145.523 204.352 145.399 204.538 145.243 204.694L139.823 210.114C139.729 210.215 139.676 210.346 139.673 210.484C139.675 210.685 139.753 210.879 139.893 211.024H139.943C140.079 211.137 140.252 211.194 140.428 211.185C140.604 211.176 140.77 211.1 140.893 210.974L149.573 202.294C149.73 202.136 149.916 202.01 150.121 201.925C150.327 201.839 150.547 201.794 150.769 201.794C150.992 201.793 151.212 201.837 151.418 201.922C151.624 202.007 151.811 202.132 151.968 202.289C152.125 202.446 152.25 202.633 152.335 202.839C152.42 203.045 152.463 203.265 152.463 203.487C152.463 203.71 152.418 203.93 152.332 204.136C152.247 204.341 152.121 204.527 151.963 204.684L148.463 208.184C148.372 208.278 148.322 208.403 148.323 208.534C148.322 208.634 148.341 208.733 148.378 208.826C148.416 208.919 148.472 209.003 148.543 209.074C148.684 209.197 148.867 209.261 149.053 209.251C149.24 209.242 149.415 209.16 149.543 209.024L149.643 208.924C149.956 208.602 150.384 208.416 150.833 208.407C151.282 208.398 151.717 208.565 152.043 208.874C152.225 209.044 152.367 209.252 152.459 209.484C152.551 209.716 152.59 209.965 152.573 210.214Z" fill="#A157FF"/>
<path d="M147.453 201.544C148.27 201.544 148.933 200.881 148.933 200.064C148.933 199.247 148.27 198.584 147.453 198.584C146.636 198.584 145.973 199.247 145.973 200.064C145.973 200.881 146.636 201.544 147.453 201.544Z" fill="#A157FF" stroke="#A157FF" stroke-width="1.8" stroke-miterlimit="10"/>
</svg>
