<svg width="129" height="113" viewBox="0 0 129 113" fill="none" xmlns="http://www.w3.org/2000/svg">
<g clip-path="url(#clip0_16_12)">
<path d="M68.5209 82.4858C83.1717 82.4858 95.0486 70.5223 95.0486 55.7646C95.0486 41.0069 83.1717 29.0435 68.5209 29.0435C53.87 29.0435 41.9932 41.0069 41.9932 55.7646C41.9932 70.5223 53.87 82.4858 68.5209 82.4858Z" fill="#231F20" stroke="#231F20" stroke-width="4" stroke-miterlimit="10"/>
<path d="M76.4306 69.0374C97.2674 57.3984 110.616 41.528 106.246 33.5898C101.876 25.6517 81.4417 28.6518 60.605 40.2908C39.7682 51.9298 26.4194 67.8003 30.7895 75.7384C35.1597 83.6766 55.5939 80.6764 76.4306 69.0374Z" stroke="#7FFF52" stroke-width="4" stroke-miterlimit="10"/>
<path d="M108.406 8.37216L117.826 11.1828L110.395 17.6613L107.595 27.1497L101.173 19.6646L91.7438 16.844L99.1846 10.3755L101.975 0.877075L108.406 8.37216Z" fill="#231F20"/>
<path d="M14.9509 54.9474L23.401 57.479L16.732 63.2897L14.2187 71.8014L8.45998 65.0837L0 62.5521L6.67893 56.7414L9.18229 48.2297L14.9509 54.9474Z" fill="#7FFF52"/>
<path d="M28.2098 11.4819L32.4349 12.7477L29.1004 15.648L27.8437 19.9139L24.9644 16.5451L20.7294 15.2892L24.0738 12.3789L25.3206 8.12305L28.2098 11.4819Z" stroke="#7FFF52" stroke-width="8" stroke-miterlimit="10"/>
</g>
<path d="M120.55 94.3102L129 97.018L122.331 103.233L119.818 112.337L114.059 105.152L105.599 102.444L112.278 96.2291L114.781 87.1249L120.55 94.3102Z" fill="#7FFF52"/>
<defs>
<clipPath id="clip0_16_12">
<rect width="117.826" height="84.4792" fill="white"/>
</clipPath>
</defs>
</svg>
