<svg width="272" height="329" viewBox="0 0 272 329" fill="none" xmlns="http://www.w3.org/2000/svg">
<g clip-path="url(#clip0_15_990)">
<mask id="mask0_15_990" style="mask-type:luminance" maskUnits="userSpaceOnUse" x="18" y="-8" width="280" height="281">
<path d="M157.97 272.23C235.168 272.23 297.75 209.648 297.75 132.45C297.75 55.2517 235.168 -7.32996 157.97 -7.32996C80.7716 -7.32996 18.19 55.2517 18.19 132.45C18.19 209.648 80.7716 272.23 157.97 272.23Z" fill="white"/>
</mask>
<g mask="url(#mask0_15_990)">
<path d="M40.4 0.970093C49.34 31.9001 65.3 67.5001 95.54 77.5701C138.61 91.9101 172.89 41.9401 230.35 42.3401C262.17 42.5601 305.08 58.2501 355.97 123.53" stroke="black" stroke-width="7" stroke-miterlimit="10"/>
<path d="M28.91 60.7201C40.91 81.8101 60.83 108.41 92.48 118.93C136.95 133.72 168.16 104.68 217.33 105.93C249.77 106.74 294.82 120.85 348.33 180.99" stroke="black" stroke-width="7" stroke-miterlimit="10"/>
<path d="M21.33 109.11C33.33 130.2 53.25 156.8 84.91 167.32C129.38 182.11 160.59 153.07 209.76 154.32C242.19 155.14 287.25 169.25 340.76 229.39" stroke="black" stroke-width="7" stroke-miterlimit="10"/>
<path d="M13.7599 157.5C25.7599 178.59 45.6799 205.19 77.3299 215.72C121.8 230.5 153.02 201.46 202.19 202.72C234.62 203.54 279.68 217.65 333.19 277.79" stroke="black" stroke-width="7" stroke-miterlimit="10"/>
<path d="M3.03998 205.89C15.04 226.98 34.97 253.58 66.62 264.11C111.09 278.89 142.3 249.85 191.47 251.11C223.91 251.92 268.96 266.03 322.47 326.17" stroke="black" stroke-width="7" stroke-miterlimit="10"/>
</g>
</g>
<defs>
<clipPath id="clip0_15_990">
<rect width="358.73" height="328.47" fill="white"/>
</clipPath>
</defs>
</svg>
