<svg width="97" height="70" viewBox="0 0 97 70" fill="none" xmlns="http://www.w3.org/2000/svg">
<g clip-path="url(#clip0_101_305)">
<path d="M47.3368 55.1575C56.6574 55.1575 64.2133 47.7859 64.2133 38.6926C64.2133 29.5993 56.6574 22.2277 47.3368 22.2277C38.0161 22.2277 30.4602 29.5993 30.4602 38.6926C30.4602 47.7859 38.0161 55.1575 47.3368 55.1575Z" fill="#231F20" stroke="#231F20" stroke-width="4" stroke-miterlimit="10"/>
<path d="M52.2189 46.8784C65.2085 39.6226 73.5302 29.729 70.8059 24.7803C68.0815 19.8316 55.3428 21.7019 42.3531 28.9577C29.3635 36.2135 21.0418 46.1071 23.7661 51.0558C26.4905 56.0045 39.2292 54.1342 52.2189 46.8784Z" stroke="#7FFF52" stroke-width="2" stroke-miterlimit="10"/>
<path d="M82.5756 3.87637L86.4407 5.0213L83.3917 7.66031L82.2427 11.5254L79.6077 8.47637L75.7385 7.32739L78.7917 4.69244L79.9366 0.823242L82.5756 3.87637Z" fill="#231F20"/>
<path d="M6.31167 42.3312L9.87895 43.3922L7.06356 45.8275L6.00256 49.3948L3.57146 46.5794L0 45.5184L2.81957 43.0831L3.87639 39.5158L6.31167 42.3312Z" fill="#7FFF52"/>
<path d="M20.4447 7.99304L22.2276 8.52331L20.8205 9.73835L20.2902 11.5254L19.0751 10.1141L17.2881 9.58804L18.6994 8.36883L19.2255 6.58594L20.4447 7.99304Z" stroke="#7FFF52" stroke-width="8" stroke-miterlimit="10"/>
</g>
<defs>
<clipPath id="clip0_101_305">
<rect width="97" height="69.5472" fill="white"/>
</clipPath>
</defs>
</svg>
