<svg width="238" height="360" viewBox="0 0 238 360" fill="none" xmlns="http://www.w3.org/2000/svg">
<path d="M187.893 92.1517L151.887 105.581C144.768 108.237 141.151 116.157 143.808 123.271C146.466 130.384 154.392 133.999 161.512 131.343L197.517 117.913C204.637 115.258 208.254 107.338 205.596 100.224C202.939 93.1103 195.013 89.4961 187.893 92.1517Z" fill="white" stroke="#A157FF" stroke-width="1.8" stroke-miterlimit="10"/>
<path d="M152.282 104.256H110.077C101.729 104.256 94.9621 111.017 94.9621 119.358C94.9621 127.7 101.729 134.461 110.077 134.461H152.282C160.63 134.461 167.397 127.7 167.397 119.358C167.397 111.017 160.63 104.256 152.282 104.256Z" fill="white" stroke="#A157FF" stroke-width="1.8" stroke-miterlimit="10"/>
<path d="M215.16 22.4748L220.32 39.6368C221.366 43.1308 219.776 46.7059 216.766 47.6057L201.911 52.0725C198.893 52.9805 195.599 50.8727 194.552 47.3787L189.392 30.2086C188.654 27.7766 193.814 23.9989 200.937 21.8587C208.061 19.7185 214.413 20.0022 215.16 22.4748Z" fill="#A157FF" stroke="#A157FF" stroke-width="1.8" stroke-miterlimit="10"/>
<path d="M185.198 42.6606C186.139 45.7979 189.798 47.5247 193.311 46.4546L194.26 49.6081C188.816 51.2294 183.137 48.5947 181.676 43.7307C180.216 38.8666 183.486 33.5243 188.93 31.903L189.879 35.0565C186.366 36.086 184.256 39.5314 185.198 42.6606Z" fill="#7FFF52" stroke="#A157FF" stroke-width="1.8" stroke-miterlimit="10"/>
<path d="M214.973 21.8505C214.973 21.9073 214.973 21.964 214.973 22.0289C215.176 23.9907 209.984 27.1523 203.087 29.2196C196.191 31.2868 190.106 31.5138 189.214 29.7627C189.184 29.7057 189.159 29.6459 189.141 29.5844C188.5 27.4604 193.749 23.9988 200.872 21.8586C207.996 19.7185 214.332 19.7428 214.973 21.8505Z" fill="white" stroke="#A157FF" stroke-width="1.8" stroke-miterlimit="10"/>
<path d="M183.003 35.7488L173.805 44.1857C172.854 45.0577 172.791 46.5346 173.663 47.4845C174.536 48.4344 176.014 48.4976 176.965 47.6257L186.163 39.1888C187.114 38.3168 187.177 36.8399 186.305 35.89C185.432 34.94 183.954 34.8769 183.003 35.7488Z" fill="white" stroke="#A157FF" stroke-width="1.8" stroke-miterlimit="10"/>
<path d="M167.375 46.0482L169.284 36.1536C169.342 35.8496 169.519 35.5813 169.776 35.4078C170.033 35.2343 170.348 35.1697 170.652 35.2283C171.565 35.4041 172.37 35.935 172.891 36.7042C173.412 37.4734 173.606 38.4179 173.43 39.33L171.964 46.932C171.905 47.236 171.728 47.5043 171.471 47.6778C171.215 47.8513 170.9 47.9159 170.595 47.8573L168.301 47.4154C167.997 47.3568 167.728 47.1798 167.555 46.9234C167.381 46.667 167.316 46.3522 167.375 46.0482Z" fill="white" stroke="#A157FF" stroke-width="1.8" stroke-miterlimit="10"/>
<path d="M184.991 40.9676L175.792 49.4044C174.842 50.2764 174.778 51.7533 175.651 52.7033C176.524 53.6532 178.002 53.7164 178.952 52.8444L188.151 44.4075C189.102 43.5356 189.165 42.0586 188.292 41.1087C187.419 40.1588 185.941 40.0956 184.991 40.9676Z" fill="white" stroke="#A157FF" stroke-width="1.8" stroke-miterlimit="10"/>
<path d="M216.449 79.2731L206.33 86.5818C205.284 87.3371 205.049 88.7966 205.805 89.8417C206.561 90.8867 208.022 91.1215 209.067 90.3661L219.187 83.0574C220.233 82.3021 220.468 80.8426 219.712 79.7975C218.956 78.7525 217.495 78.5177 216.449 79.2731Z" fill="white" stroke="#A157FF" stroke-width="1.8" stroke-miterlimit="10"/>
<path d="M196.855 89.6592L200.414 77.7005C200.465 77.5294 200.581 77.3856 200.738 77.3006C200.896 77.2156 201.08 77.1964 201.251 77.2473C202.268 77.5494 203.123 78.2427 203.628 79.1748C204.133 80.1068 204.247 81.2013 203.945 82.2173L201.334 90.9901C201.309 91.0748 201.267 91.1537 201.212 91.2224C201.156 91.291 201.087 91.3479 201.01 91.39C200.932 91.4321 200.846 91.4585 200.759 91.4676C200.671 91.4768 200.582 91.4685 200.497 91.4433L197.308 90.496C197.224 90.4708 197.145 90.4292 197.076 90.3735C197.007 90.3178 196.95 90.2492 196.908 90.1715C196.866 90.0938 196.84 90.0085 196.831 89.9207C196.821 89.8328 196.83 89.7439 196.855 89.6592Z" fill="white" stroke="#A157FF" stroke-width="1.8" stroke-miterlimit="10"/>
<path d="M222.006 85.8981L211.892 93.2591C210.847 94.0199 210.617 95.4833 211.378 96.5277C212.14 97.5722 213.604 97.8021 214.65 97.0414L224.763 89.6804C225.809 88.9196 226.039 87.4562 225.277 86.4117C224.516 85.3673 223.052 85.1373 222.006 85.8981Z" fill="white" stroke="#A157FF" stroke-width="1.8" stroke-miterlimit="10"/>
<path d="M222.013 96.3132L211.893 103.622C210.848 104.377 210.613 105.837 211.369 106.882C212.124 107.927 213.585 108.162 214.631 107.406L224.751 100.098C225.796 99.3422 226.031 97.8827 225.275 96.8377C224.519 95.7927 223.059 95.5579 222.013 96.3132Z" fill="white" stroke="#A157FF" stroke-width="1.8" stroke-miterlimit="10"/>
<path d="M186.557 47.0796L177.359 55.5165C176.408 56.3885 176.345 57.8654 177.217 58.8153C178.09 59.7652 179.568 59.8284 180.519 58.9565L189.717 50.5196C190.668 49.6476 190.731 48.1707 189.859 47.2208C188.986 46.2709 187.508 46.2077 186.557 47.0796Z" fill="white" stroke="#A157FF" stroke-width="1.8" stroke-miterlimit="10"/>
<path d="M55.7994 78.5004C68.4219 78.5004 78.6544 68.2761 78.6544 55.6637C78.6544 43.0514 68.4219 32.827 55.7994 32.827C43.1769 32.827 32.9444 43.0514 32.9444 55.6637C32.9444 68.2761 43.1769 78.5004 55.7994 78.5004Z" stroke="#A157FF" stroke-width="1.8" stroke-miterlimit="10"/>
<path d="M63.2718 68.594C72.1841 68.594 79.409 61.3749 79.409 52.4697C79.409 43.5644 72.1841 36.3453 63.2718 36.3453C54.3594 36.3453 47.1345 43.5644 47.1345 52.4697C47.1345 61.3749 54.3594 68.594 63.2718 68.594Z" fill="#A157FF" stroke="#A157FF" stroke-width="1.8" stroke-miterlimit="10"/>
<path d="M61.4706 70.1343C70.7235 70.1343 78.2244 62.6394 78.2244 53.3939C78.2244 44.1484 70.7235 36.6534 61.4706 36.6534C52.2177 36.6534 44.7167 44.1484 44.7167 53.3939C44.7167 62.6394 52.2177 70.1343 61.4706 70.1343Z" stroke="#A157FF" stroke-width="1.8" stroke-miterlimit="10"/>
<path d="M137.557 147.829L47.1345 181.553L34.4697 129.727C32.0132 119.68 33.3308 109.082 38.1727 99.9404C43.0146 90.7992 51.0445 83.7504 60.7404 80.13C70.4413 76.5119 81.1337 76.5768 90.7899 80.3124C100.446 84.0481 108.394 91.1947 113.128 100.397L137.557 147.829Z" fill="white" stroke="#A157FF" stroke-width="1.8" stroke-miterlimit="10"/>
<path d="M126.982 81.5478L87.6318 96.225C79.8489 99.1279 75.8948 107.785 78.8 115.562C81.7053 123.339 90.3697 127.29 98.1526 124.387L137.503 109.71C145.286 106.807 149.24 98.1491 146.334 90.3725C143.429 82.5958 134.765 78.6449 126.982 81.5478Z" fill="white" stroke="#A157FF" stroke-width="1.8" stroke-miterlimit="10"/>
<path d="M169.215 220.36L177.831 268.15L210.657 255.819L204.888 201.999L137.67 149.135L47.1345 181.553L108.552 328.537L141.167 314.812L112.56 204.487L169.215 220.36Z" fill="black" stroke="#A157FF" stroke-width="1.8" stroke-miterlimit="10"/>
<path d="M152.781 55.8306L122.46 84.8736C116.463 90.6179 116.262 100.132 122.011 106.124C127.76 112.117 137.282 112.317 143.279 106.573L173.599 77.5302C179.596 71.7859 179.798 62.2716 174.049 56.2794C168.3 50.2872 158.778 50.0863 152.781 55.8306Z" fill="white" stroke="#A157FF" stroke-width="1.8" stroke-miterlimit="10"/>
<path d="M174.959 67.4672C181.635 67.4672 187.047 62.0592 187.047 55.3881C187.047 48.7171 181.635 43.3091 174.959 43.3091C168.282 43.3091 162.87 48.7171 162.87 55.3881C162.87 62.0592 168.282 67.4672 174.959 67.4672Z" fill="white" stroke="#A157FF" stroke-width="1.8" stroke-miterlimit="10"/>
<path d="M204.345 112.792C211.021 112.792 216.434 107.384 216.434 100.713C216.434 94.0419 211.021 88.6339 204.345 88.6339C197.668 88.6339 192.256 94.0419 192.256 100.713C192.256 107.384 197.668 112.792 204.345 112.792Z" fill="white" stroke="#A157FF" stroke-width="1.8" stroke-miterlimit="10"/>
<path d="M212.807 42.2876C212.803 42.4261 212.771 42.5622 212.712 42.6877C212.654 42.8132 212.57 42.9253 212.466 43.0172L211.225 44.1603C211.017 44.3504 210.742 44.4504 210.461 44.4383C210.18 44.4261 209.914 44.3028 209.724 44.0954C209.629 43.9934 209.556 43.8734 209.509 43.7424C209.461 43.6115 209.441 43.4724 209.448 43.3334C209.453 43.1939 209.485 43.0568 209.544 42.9301C209.602 42.8034 209.686 42.6897 209.789 42.5957L210.057 42.3525C210.094 42.3216 210.123 42.2832 210.144 42.2399C210.165 42.1966 210.177 42.1493 210.178 42.1012C210.182 42.0391 210.174 41.9769 210.153 41.9183C210.132 41.8597 210.099 41.8061 210.057 41.7607C209.975 41.6843 209.868 41.6418 209.756 41.6418C209.645 41.6418 209.538 41.6843 209.456 41.7607L204.994 45.8627C204.785 46.0509 204.511 46.1495 204.23 46.1374C203.949 46.1252 203.685 46.0033 203.493 45.7979C203.305 45.5894 203.206 45.3153 203.218 45.0347C203.23 44.7541 203.352 44.4896 203.558 44.2981L204.629 43.3172C204.692 43.2581 204.73 43.1767 204.734 43.0902C204.734 42.9622 204.688 42.8386 204.605 42.7416C204.523 42.6652 204.416 42.6227 204.304 42.6227C204.193 42.6227 204.085 42.6652 204.004 42.7416L202.982 43.682C202.882 43.7888 202.76 43.8738 202.626 43.9315C202.491 43.9893 202.346 44.0186 202.199 44.0176C202.053 44.0165 201.908 43.9853 201.774 43.9256C201.64 43.866 201.52 43.7794 201.421 43.6712C201.322 43.563 201.247 43.4355 201.2 43.2968C201.153 43.1581 201.135 43.0112 201.148 42.8653C201.16 42.7194 201.203 42.5776 201.272 42.4489C201.342 42.3202 201.438 42.2073 201.554 42.1174L205.254 38.7207C205.289 38.6893 205.318 38.6507 205.338 38.6073C205.357 38.564 205.367 38.5169 205.367 38.4694C205.379 38.4105 205.379 38.3499 205.367 38.291C205.343 38.2326 205.31 38.178 205.27 38.1289C205.231 38.0881 205.185 38.0557 205.133 38.0336C205.081 38.0114 205.026 38 204.97 38C204.913 38 204.858 38.0114 204.806 38.0336C204.755 38.0557 204.708 38.0881 204.669 38.1289L200.986 41.5094C200.777 41.6975 200.503 41.7962 200.222 41.784C199.941 41.7719 199.677 41.65 199.485 41.4445C199.296 41.2369 199.197 40.963 199.209 40.6825C199.212 40.5428 199.244 40.4052 199.303 40.2783C199.362 40.1514 199.446 40.0379 199.55 39.9448L201.311 38.3234C201.369 38.2675 201.406 38.193 201.416 38.1127C201.428 38.0483 201.428 37.9824 201.416 37.9181C201.398 37.8567 201.364 37.801 201.319 37.756C201.3 37.7101 201.27 37.6697 201.232 37.6386C201.194 37.6074 201.148 37.5864 201.1 37.5776C201.011 37.5471 200.916 37.5416 200.824 37.5616C200.732 37.5816 200.648 37.6264 200.58 37.6911L200.361 37.8938C200.153 38.0819 199.878 38.1806 199.598 38.1684C199.317 38.1563 199.052 38.0344 198.86 37.8289C198.671 37.6213 198.572 37.3473 198.584 37.0669C198.588 36.9272 198.62 36.7896 198.678 36.6627C198.737 36.5358 198.821 36.4223 198.925 36.3292L201.805 33.6864C201.959 33.5468 202.151 33.4554 202.356 33.4234C202.562 33.3915 202.772 33.4205 202.961 33.5068C203.15 33.5931 203.31 33.7329 203.42 33.9089C203.531 34.0849 203.587 34.2894 203.582 34.497C203.569 34.7779 203.447 35.0427 203.241 35.2348L201.497 36.8561C201.434 36.9166 201.394 36.9967 201.384 37.0831C201.379 37.1452 201.388 37.2074 201.409 37.266C201.43 37.3245 201.463 37.3782 201.505 37.4236C201.549 37.4726 201.603 37.5117 201.663 37.5382C201.723 37.5648 201.788 37.5782 201.854 37.5776C201.896 37.579 201.938 37.5718 201.977 37.5564C202.016 37.5411 202.052 37.518 202.081 37.4884L207.12 32.8676C207.327 32.6774 207.602 32.5775 207.884 32.5896C208.165 32.6018 208.43 32.7251 208.621 32.9324C208.715 33.0345 208.789 33.1545 208.836 33.2854C208.883 33.4164 208.904 33.5555 208.896 33.6945C208.892 33.8339 208.859 33.9711 208.801 34.0978C208.742 34.2245 208.659 34.3382 208.556 34.4322L205.456 37.2696C205.4 37.3229 205.366 37.395 205.359 37.4722C205.357 37.5981 205.404 37.7199 205.489 37.8127C205.573 37.8902 205.683 37.9332 205.797 37.9332C205.911 37.9332 206.022 37.8902 206.105 37.8127L206.917 37.0588C207.071 36.9192 207.262 36.8278 207.468 36.7958C207.673 36.7639 207.883 36.7929 208.072 36.8792C208.262 36.9655 208.421 37.1053 208.532 37.2813C208.642 37.4573 208.698 37.6618 208.694 37.8695C208.677 38.1511 208.552 38.4154 208.345 38.6072L204.807 41.8499C204.774 41.8779 204.748 41.9127 204.73 41.9518C204.712 41.991 204.702 42.0337 204.702 42.0769C204.698 42.1402 204.706 42.2037 204.727 42.2636C204.748 42.3235 204.781 42.3785 204.824 42.4254C204.906 42.5001 205.013 42.5414 205.124 42.5414C205.235 42.5414 205.342 42.5001 205.424 42.4254L211.103 37.2209C211.311 37.0308 211.586 36.9308 211.867 36.9429C212.149 36.9551 212.414 37.0784 212.604 37.2858C212.699 37.3878 212.772 37.5079 212.82 37.6388C212.867 37.7697 212.888 37.9088 212.88 38.0478C212.875 38.1873 212.843 38.3244 212.784 38.4511C212.726 38.5778 212.642 38.6915 212.539 38.7855L210.251 40.8852C210.19 40.9387 210.152 41.0145 210.146 41.0959C210.143 41.2244 210.189 41.3492 210.276 41.4445C210.357 41.5233 210.466 41.5673 210.58 41.5673C210.693 41.5673 210.802 41.5233 210.884 41.4445L210.949 41.3878C211.151 41.1907 211.422 41.0804 211.704 41.0804C211.986 41.0804 212.257 41.1907 212.458 41.3878C212.584 41.4987 212.682 41.6385 212.743 41.7951C212.803 41.9517 212.825 42.1207 212.807 42.2876Z" fill="#7FFF52"/>
<path d="M209.87 36.7102C210.381 36.7102 210.795 36.2964 210.795 35.786C210.795 35.2756 210.381 34.8618 209.87 34.8618C209.359 34.8618 208.945 35.2756 208.945 35.786C208.945 36.2964 209.359 36.7102 209.87 36.7102Z" fill="#A157FF" stroke="#A157FF" stroke-width="1.8" stroke-miterlimit="10"/>
<path d="M188.118 10.7524C189.338 11.0845 190.443 11.7446 191.313 12.6609C192.182 13.5772 192.784 14.7145 193.051 15.9489C193.344 17.6709 192.961 19.4396 191.98 20.8859" stroke="#5DFB25" stroke-width="1.8" stroke-miterlimit="10" stroke-linecap="round"/>
<path d="M193.189 1C192.751 3.22125 192.556 6.01808 194.114 7.39622C195.988 9.01757 198.779 7.28273 200.41 9.01757C201.789 10.5092 201.294 13.3709 200.791 16.2569C200.606 17.3573 200.335 18.4415 199.98 19.4996" stroke="#5DFB25" stroke-width="1.8" stroke-miterlimit="10" stroke-linecap="round"/>
<path d="M206.049 6.01807C205.642 7.0751 205.468 8.20711 205.538 9.3373C205.608 10.4675 205.921 11.5694 206.454 12.5683C207.195 13.8202 208.29 14.8245 209.602 15.4543" stroke="#5DFB25" stroke-width="1.8" stroke-miterlimit="10" stroke-linecap="round"/>
<path d="M236.587 290.581L182.439 299.839L180.411 287.979L177.409 270.452L174.415 252.917L210.349 246.772L213.748 266.682C219.489 267.972 224.72 270.929 228.784 275.181C232.848 279.434 235.562 284.791 236.587 290.581Z" fill="#A157FF" stroke="#A157FF" stroke-width="1.8" stroke-miterlimit="10"/>
<path d="M184.873 304.079L187.145 301.079L186.333 299.742L183.599 300.236L182.926 301.217L183.38 303.722L184.873 304.079Z" stroke="#A157FF" stroke-width="1.8" stroke-miterlimit="10"/>
<path d="M190.13 303.13L192.41 300.123L191.599 298.793L188.865 299.288L188.191 300.261L188.646 302.774L190.13 303.13Z" stroke="#A157FF" stroke-width="1.8" stroke-miterlimit="10"/>
<path d="M195.42 302.174L197.692 299.166L196.881 297.837L194.147 298.331L193.465 299.304L193.927 301.817L195.42 302.174Z" stroke="#A157FF" stroke-width="1.8" stroke-miterlimit="10"/>
<path d="M200.686 301.217L202.966 298.218L202.154 296.888L199.42 297.375L198.747 298.356L199.201 300.869L200.686 301.217Z" stroke="#A157FF" stroke-width="1.8" stroke-miterlimit="10"/>
<path d="M205.878 300.236L208.142 297.253L207.331 295.98L204.613 296.475L203.972 297.407L204.426 299.896L205.878 300.236Z" stroke="#A157FF" stroke-width="1.8" stroke-miterlimit="10"/>
<path d="M211.014 299.263L213.269 296.288L212.458 295.016L209.748 295.502L209.099 296.434L209.554 298.931L211.014 299.263Z" stroke="#A157FF" stroke-width="1.8" stroke-miterlimit="10"/>
<path d="M216.15 298.339L218.405 295.356L217.594 294.091L214.892 294.562L214.243 295.494L214.697 297.983L216.15 298.339Z" stroke="#A157FF" stroke-width="1.8" stroke-miterlimit="10"/>
<path d="M221.277 297.415L223.541 294.432L222.73 293.159L220.012 293.654L219.371 294.578L219.825 297.075L221.277 297.415Z" stroke="#A157FF" stroke-width="1.8" stroke-miterlimit="10"/>
<path d="M226.413 296.483L228.668 293.5L227.857 292.235L225.147 292.721L224.498 293.654L224.953 296.142L226.413 296.483Z" stroke="#A157FF" stroke-width="1.8" stroke-miterlimit="10"/>
<path d="M232.36 295.502L234.632 292.494L233.82 291.165L231.086 291.659L230.405 292.632L230.867 295.145L232.36 295.502Z" stroke="#A157FF" stroke-width="1.8" stroke-miterlimit="10"/>
<path d="M209.417 240.18L174.102 246.218C172.481 246.495 171.392 248.033 171.669 249.652L171.82 250.531C172.097 252.151 173.636 253.239 175.257 252.962L210.571 246.924C212.192 246.647 213.282 245.109 213.004 243.49L212.854 242.611C212.576 240.991 211.037 239.903 209.417 240.18Z" fill="black" stroke="#A157FF" stroke-width="1.8" stroke-miterlimit="10"/>
<path d="M210.058 247.115L174.743 253.153C173.122 253.43 172.033 254.968 172.311 256.587L172.461 257.466C172.738 259.086 174.277 260.174 175.898 259.897L211.213 253.859C212.834 253.582 213.923 252.044 213.646 250.425L213.495 249.546C213.218 247.926 211.679 246.838 210.058 247.115Z" fill="black" stroke="#A157FF" stroke-width="1.8" stroke-miterlimit="10"/>
<path d="M170.504 335.709L117.793 354.479L113.661 342.918L107.586 325.849L101.504 308.78L136.479 296.328L143.404 315.742C149.388 316.033 155.152 318.083 159.973 321.635C164.794 325.188 168.458 330.084 170.504 335.709Z" fill="#A157FF" stroke="#A157FF" stroke-width="1.8" stroke-miterlimit="10"/>
<path d="M120.983 358.311L122.743 354.901L121.661 353.728L119.008 354.702L118.504 355.801L119.396 358.237L120.983 358.311Z" stroke="#A157FF" stroke-width="1.8" stroke-miterlimit="10"/>
<path d="M126.09 356.428L127.851 353.018L126.768 351.82L124.115 352.795L123.603 353.893L124.504 356.37L126.09 356.428Z" stroke="#A157FF" stroke-width="1.8" stroke-miterlimit="10"/>
<path d="M131.223 354.554L132.975 351.135L131.925 349.946L129.247 350.92L128.743 352.01L129.644 354.488L131.223 354.554Z" stroke="#A157FF" stroke-width="1.8" stroke-miterlimit="10"/>
<path d="M136.347 352.671L138.107 349.252L137.049 348.063L134.396 349.037L133.892 350.136L134.785 352.613L136.347 352.671Z" stroke="#A157FF" stroke-width="1.8" stroke-miterlimit="10"/>
<path d="M141.38 350.73L143.123 347.345L142.115 346.205L139.479 347.171L139 348.22L139.892 350.639L141.38 350.73Z" stroke="#A157FF" stroke-width="1.8" stroke-miterlimit="10"/>
<path d="M146.371 348.905L148.115 345.511L147.107 344.38L144.47 345.346L143.983 346.387L144.875 348.814L146.371 348.905Z" stroke="#A157FF" stroke-width="1.8" stroke-miterlimit="10"/>
<path d="M151.355 347.072L153.099 343.686L152.099 342.547L149.462 343.513L148.975 344.562L149.867 346.981L151.355 347.072Z" stroke="#A157FF" stroke-width="1.8" stroke-miterlimit="10"/>
<path d="M156.346 345.247L158.09 341.861L157.082 340.722L154.446 341.688L153.966 342.728L154.851 345.156L156.346 345.247Z" stroke="#A157FF" stroke-width="1.8" stroke-miterlimit="10"/>
<path d="M161.33 343.414L163.074 340.028L162.074 338.864L159.437 339.83L158.95 340.879L159.826 343.323L161.33 343.414Z" stroke="#A157FF" stroke-width="1.8" stroke-miterlimit="10"/>
<path d="M167.123 341.382L168.884 337.972L167.826 336.783L165.173 337.757L164.669 338.847L165.562 341.325L167.123 341.382Z" stroke="#A157FF" stroke-width="1.8" stroke-miterlimit="10"/>
<path d="M132.328 289.443L98.5783 301.458C97.0292 302.01 96.2209 303.711 96.7728 305.259L97.0723 306.099C97.6242 307.647 99.3274 308.455 100.876 307.903L134.626 295.889C136.176 295.337 136.984 293.635 136.432 292.087L136.133 291.247C135.581 289.7 133.877 288.892 132.328 289.443Z" fill="black" stroke="#A157FF" stroke-width="1.8" stroke-miterlimit="10"/>
<path d="M134.155 296.159L100.405 308.174C98.8561 308.725 98.0478 310.427 98.5997 311.975L98.8992 312.815C99.4511 314.363 101.154 315.171 102.703 314.619L136.453 302.604C138.002 302.053 138.811 300.351 138.259 298.803L137.959 297.963C137.408 296.415 135.704 295.608 134.155 296.159Z" fill="black" stroke="#A157FF" stroke-width="1.8" stroke-miterlimit="10"/>
<path d="M96.5786 169.241L41.9887 190.497C41.2897 190.769 40.5468 190.909 39.8023 190.907C39.0579 190.906 38.3266 190.764 37.6501 190.489C36.9736 190.214 36.3653 189.813 35.8597 189.306C35.3542 188.8 34.9614 188.2 34.7037 187.539L33.7669 185.137C33.2466 183.803 33.3084 182.305 33.9388 180.973C34.5691 179.641 35.7164 178.583 37.1281 178.034L91.7179 156.778L96.5786 169.241Z" fill="white" stroke="#A157FF" stroke-width="1.8" stroke-miterlimit="10"/>
<path d="M81.421 160.76L136.677 139.245C137.384 138.969 138.136 138.827 138.888 138.825C139.64 138.823 140.379 138.962 141.061 139.235C141.744 139.507 142.357 139.907 142.866 140.412C143.375 140.917 143.769 141.517 144.027 142.177L144.964 144.579C145.484 145.914 145.415 147.414 144.773 148.751C144.13 150.088 142.966 151.152 141.537 151.708L86.2816 173.223L81.421 160.76Z" fill="white" stroke="#A157FF" stroke-width="1.8" stroke-miterlimit="10"/>
<path d="M130 138.424L129.236 138.721C127.049 139.573 125.966 142.036 126.819 144.222L130.908 154.706C131.76 156.892 134.225 157.974 136.412 157.122L137.176 156.824C139.364 155.973 140.446 153.51 139.594 151.324L135.505 140.84C134.652 138.654 132.188 137.572 130 138.424Z" fill="#FDFDFD" stroke="#A157FF" stroke-width="1.8" stroke-miterlimit="10"/>
<path d="M112.181 145.363L111.417 145.66C109.229 146.512 108.147 148.975 108.999 151.161L113.088 161.645C113.941 163.831 116.405 164.912 118.593 164.06L119.357 163.763C121.544 162.911 122.627 160.449 121.774 158.263L117.685 147.779C116.833 145.593 114.368 144.511 112.181 145.363Z" fill="#FDFDFD" stroke="#A157FF" stroke-width="1.8" stroke-miterlimit="10"/>
<path d="M94.3537 152.305L93.5902 152.602C91.4025 153.454 90.3201 155.916 91.1726 158.102L95.2614 168.587C96.1139 170.773 98.5785 171.854 100.766 171.002L101.53 170.705C103.717 169.853 104.8 167.391 103.947 165.205L99.8585 154.72C99.006 152.534 96.5414 151.453 94.3537 152.305Z" fill="#FDFDFD" stroke="#A157FF" stroke-width="1.8" stroke-miterlimit="10"/>
<path d="M48.7382 191.295L49.5017 190.998C51.6894 190.146 52.7718 187.684 51.9193 185.498L47.8305 175.013C46.978 172.827 44.5134 171.746 42.3257 172.598L41.5621 172.895C39.3744 173.747 38.292 176.209 39.1445 178.395L43.2334 188.88C44.0859 191.066 46.5505 192.147 48.7382 191.295Z" fill="#FDFDFD" stroke="#A157FF" stroke-width="1.8" stroke-miterlimit="10"/>
<path d="M66.5527 184.358L67.3163 184.061C69.504 183.209 70.5864 180.747 69.7339 178.561L65.645 168.076C64.7925 165.89 62.3279 164.809 60.1402 165.661L59.3767 165.958C57.189 166.81 56.1066 169.272 56.9591 171.458L61.0479 181.943C61.9004 184.129 64.365 185.21 66.5527 184.358Z" fill="#FDFDFD" stroke="#A157FF" stroke-width="1.8" stroke-miterlimit="10"/>
<path d="M84.3829 177.418L85.1465 177.121C87.3342 176.269 88.4166 173.807 87.5641 171.621L83.4752 161.136C82.6227 158.95 80.1581 157.869 77.9704 158.721L77.2069 159.018C75.0192 159.87 73.9368 162.333 74.7893 164.518L78.8781 175.003C79.7306 177.189 82.1952 178.27 84.3829 177.418Z" fill="#FDFDFD" stroke="#A157FF" stroke-width="1.8" stroke-miterlimit="10"/>
<path d="M47.5227 120.824C42.356 110.29 29.6235 105.936 19.0838 111.097C8.54412 116.259 4.18837 128.982 9.35499 139.515L18.9992 159.177C24.1658 169.71 36.8983 174.065 47.438 168.903C57.9777 163.742 62.3335 151.019 57.1669 140.485L47.5227 120.824Z" fill="white"/>
<mask id="mask0_426_1251" style="mask-type:luminance" maskUnits="userSpaceOnUse" x="7" y="108" width="53" height="64">
<path d="M47.5227 120.824C42.356 110.29 29.6235 105.936 19.0838 111.097C8.54412 116.259 4.18837 128.982 9.35499 139.515L18.9992 159.177C24.1658 169.71 36.8983 174.065 47.438 168.903C57.9777 163.742 62.3335 151.019 57.1669 140.485L47.5227 120.824Z" fill="white"/>
</mask>
<g mask="url(#mask0_426_1251)">
<path d="M40.4553 119.944C35.2887 109.41 22.5562 105.056 12.0165 110.217C1.4768 115.379 -2.87895 128.102 2.28767 138.635L11.9319 158.297C17.0985 168.83 29.831 173.185 40.3707 168.023C50.9104 162.862 55.2662 150.139 50.0995 139.605L40.4553 119.944Z" fill="white" stroke="#A157FF" stroke-width="1.8" stroke-miterlimit="10"/>
</g>
<path d="M47.5227 120.824C42.356 110.29 29.6235 105.936 19.0838 111.097C8.54412 116.259 4.18837 128.982 9.35499 139.515L18.9992 159.177C24.1658 169.71 36.8983 174.065 47.438 168.903C57.9777 163.742 62.3335 151.019 57.1669 140.485L47.5227 120.824Z" stroke="#A157FF" stroke-width="1.8" stroke-miterlimit="10"/>
<path d="M27.0385 121.626L13.2692 128.369C12.3881 128.8 12.0231 129.862 12.4539 130.741C12.8848 131.619 13.9484 131.981 14.8296 131.55L28.5988 124.807C29.48 124.375 29.845 123.313 29.4141 122.435C28.9832 121.556 27.9196 121.194 27.0385 121.626Z" fill="white" stroke="#A157FF" stroke-width="1.8" stroke-miterlimit="10"/>
<path d="M30.1229 127.928L16.3537 134.671C15.4726 135.103 15.1075 136.165 15.5384 137.043C15.9693 137.922 17.0329 138.284 17.9141 137.853L31.6833 131.11C32.5644 130.678 32.9295 129.616 32.4986 128.738C32.0677 127.859 31.0041 127.497 30.1229 127.928Z" fill="white" stroke="#A157FF" stroke-width="1.8" stroke-miterlimit="10"/>
<path d="M33.2065 134.228L19.4373 140.971C18.5562 141.402 18.1912 142.464 18.622 143.343C19.0529 144.221 20.1165 144.583 20.9977 144.152L34.7669 137.409C35.6481 136.977 36.0131 135.915 35.5822 135.037C35.1513 134.158 34.0877 133.796 33.2065 134.228Z" fill="white" stroke="#A157FF" stroke-width="1.8" stroke-miterlimit="10"/>
</svg>
