<svg width="13" height="18" viewBox="0 0 13 18" fill="none" xmlns="http://www.w3.org/2000/svg">
<path d="M2.16666 0.177002H8.12499V1.26033H2.16666C1.87935 1.26033 1.6038 1.37447 1.40063 1.57763C1.19747 1.7808 1.08333 2.05635 1.08333 2.34367V15.3436C1.08333 15.631 1.19747 15.9065 1.40063 16.1097C1.6038 16.3128 1.87935 16.427 2.16666 16.427H10.8333C11.1206 16.427 11.3962 16.3128 11.5993 16.1097C11.8025 15.9065 11.9166 15.631 11.9166 15.3436V5.05199H13V15.3436C13 15.9183 12.7717 16.4694 12.3654 16.8757C11.9591 17.282 11.408 17.5103 10.8333 17.5103H2.16666C1.59203 17.5103 1.04093 17.282 0.634601 16.8757C0.228273 16.4694 0 15.9183 0 15.3436V2.34367C0 1.76903 0.228273 1.21793 0.634601 0.811603C1.04093 0.405275 1.59203 0.177002 2.16666 0.177002Z" fill="#231F20"/>
<path d="M8.12507 3.427V0.177002L13.0001 5.05199H9.75007C9.31909 5.05199 8.90577 4.88079 8.60102 4.57604C8.29628 4.2713 8.12507 3.85797 8.12507 3.427ZM2.16675 7.21866C2.16675 7.075 2.22382 6.93722 2.3254 6.83564C2.42698 6.73406 2.56476 6.67699 2.70841 6.67699H10.2917C10.4354 6.67699 10.5732 6.73406 10.6748 6.83564C10.7763 6.93722 10.8334 7.075 10.8334 7.21866V14.802C10.8334 14.9456 10.7763 15.0834 10.6748 15.185C10.5732 15.2866 10.4354 15.3436 10.2917 15.3436H2.70841C2.56476 15.3436 2.42698 15.2866 2.3254 15.185C2.22382 15.0834 2.16675 14.9456 2.16675 14.802V7.21866Z" fill="#A157FF"/>
<path fill-rule="evenodd" clip-rule="evenodd" d="M2.16675 3.96867C2.16675 3.82501 2.22382 3.68723 2.3254 3.58565C2.42698 3.48407 2.56476 3.427 2.70841 3.427H5.41674C5.5604 3.427 5.69818 3.48407 5.79976 3.58565C5.90134 3.68723 5.95841 3.82501 5.95841 3.96867C5.95841 4.11233 5.90134 4.2501 5.79976 4.35168C5.69818 4.45327 5.5604 4.51033 5.41674 4.51033H2.70841C2.56476 4.51033 2.42698 4.45327 2.3254 4.35168C2.22382 4.2501 2.16675 4.11233 2.16675 3.96867Z" fill="#231F20"/>
</svg>
