<svg width="111" height="110" viewBox="0 0 111 110" fill="none" xmlns="http://www.w3.org/2000/svg">
<path d="M53.0634 10.6421C54.0128 2.73805 64.3333 0.359268 68.6468 7.05022L73.7544 14.973C75.8639 18.2452 79.7564 19.8991 83.5761 19.1462L92.8246 17.3233C100.635 15.7838 106.087 24.8641 101.056 31.0341L95.0996 38.34C92.6394 41.3574 92.2693 45.5705 94.1657 48.9706L98.7573 57.2032C102.635 64.1557 95.6838 72.1464 88.2613 69.2687L79.4723 65.8613C75.8423 64.454 71.7211 65.4039 69.0734 68.2581L62.6626 75.169C57.2486 81.0054 47.501 76.8637 47.9441 68.9152L48.4689 59.5033C48.6856 55.6162 46.5086 51.9902 42.9759 50.3541L34.4222 46.3927C27.1984 43.0472 28.1253 32.4968 35.8217 30.462L44.935 28.0526C48.6989 27.0576 51.4747 23.8667 51.9391 20.0013L53.0634 10.6421Z" fill="black" stroke="#7FFF52"/>
<path d="M58.9751 38.1237L59.7945 41.6785L58.7187 41.9265L57.4429 36.3916L58.3004 36.194L62.0023 39.1829L61.1632 35.5423L62.239 35.2944L63.513 40.8215L62.6165 41.0281L58.9751 38.1237ZM68.2902 38.727L68.5076 39.6702L64.6643 40.5561L63.3886 35.0212L67.1617 34.1515L67.3791 35.0948L64.6818 35.7165L64.9891 37.0495L67.32 36.5123L67.5212 37.3854L65.1903 37.9227L65.5227 39.3648L68.2902 38.727ZM69.9685 33.521L70.9663 33.291L72.02 34.9774L72.237 32.9981L73.227 32.7699L72.8563 35.5071L73.964 37.1072L74.5409 32.4507L75.7102 32.1812L74.772 38.2263L73.8443 38.4402L72.3344 36.3417L71.9032 38.8876L70.9756 39.1014L67.4937 34.075L68.6474 33.8091L71.2122 37.7415L71.4921 35.8216L69.9685 33.521ZM53.0794 47.6267L51.3098 48.0346L52.3682 52.6262L51.3002 52.8724L50.2418 48.2808L48.4722 48.6886L48.2548 47.7454L52.862 46.6835L53.0794 47.6267ZM54.8249 52.06L53.5491 46.5251L55.997 45.9609C56.2516 45.9022 56.4975 45.9003 56.7345 45.9551C56.9767 46.0087 57.1962 46.1059 57.3928 46.2467C57.5946 46.3862 57.7623 46.5556 57.8958 46.7547C58.0344 46.9526 58.1301 47.1659 58.1828 47.3946C58.2367 47.6284 58.2472 47.8641 58.2144 48.1015C58.1856 48.3326 58.1144 48.546 58.0008 48.7419C57.8872 48.9377 57.7392 49.1032 57.5569 49.2382L59.2996 51.0286L58.1146 51.3017L56.5488 49.7087L55.473 49.9566L55.9007 51.812L54.8249 52.06ZM55.2556 49.0134L56.6043 48.7025C56.7394 48.6714 56.8499 48.6049 56.9359 48.5029C57.0207 48.3958 57.0787 48.2675 57.1099 48.118C57.1411 47.9685 57.1376 47.8106 57.0992 47.6443C57.0585 47.4676 56.9868 47.3227 56.8841 47.2095C56.7802 47.0912 56.6621 47.0062 56.5298 46.9546C56.4027 46.9018 56.2741 46.8904 56.1442 46.9203L54.8423 47.2204L55.2556 49.0134ZM60.2381 44.9833L61.3295 44.7318L64.6399 49.7977L63.5329 50.0528L62.7003 48.7916L60.767 49.2372L60.5783 50.7338L59.4714 50.989L60.2381 44.9833ZM62.3311 48.0804L61.0407 45.9723L60.772 48.4397L62.3311 48.0804ZM65.5034 45.855L66.3227 49.4098L65.2469 49.6578L63.9712 44.1229L64.8287 43.9252L68.5306 46.9141L67.6915 43.2736L68.7673 43.0256L70.0412 48.5527L69.1447 48.7594L65.5034 45.855ZM73.5486 43.4424C73.5038 43.4144 73.4249 43.3806 73.3118 43.341C73.2039 43.3002 73.0732 43.2674 72.9197 43.2425C72.7714 43.2165 72.6119 43.2013 72.4412 43.1968C72.2693 43.1872 72.1002 43.2016 71.9339 43.2399C71.6428 43.307 71.4345 43.4124 71.309 43.5563C71.1886 43.699 71.1512 43.8691 71.1967 44.0666C71.2315 44.2173 71.3058 44.326 71.4197 44.3928C71.5336 44.4596 71.6913 44.5026 71.8928 44.5219C72.0942 44.5411 72.3437 44.5548 72.6411 44.5628C73.0252 44.5673 73.3648 44.604 73.6598 44.6728C73.9588 44.7353 74.2024 44.8543 74.3907 45.0298C74.5829 45.199 74.7179 45.4524 74.7958 45.7902C74.8641 46.0865 74.8682 46.3537 74.8082 46.592C74.747 46.825 74.6352 47.0286 74.4728 47.2029C74.3105 47.3771 74.1144 47.5236 73.8845 47.6423C73.6534 47.7557 73.4001 47.8442 73.1247 47.9077C72.8493 47.9712 72.5672 48.0061 72.2786 48.0124C71.99 48.0187 71.7064 47.9993 71.4277 47.954C71.1479 47.9036 70.8841 47.8275 70.6363 47.7259L70.898 46.6887C70.9556 46.7247 71.0531 46.7679 71.1906 46.8183C71.3269 46.8635 71.4898 46.9053 71.6793 46.9437C71.8675 46.9769 72.069 46.9962 72.2837 47.0014C72.4983 47.0067 72.7096 46.9854 72.9175 46.9374C73.2085 46.8704 73.418 46.7701 73.546 46.6366C73.6739 46.5031 73.7169 46.3454 73.675 46.1635C73.6367 45.9972 73.547 45.8811 73.4059 45.8151C73.2648 45.7491 73.0799 45.7068 72.8513 45.6884C72.6214 45.6648 72.3514 45.6449 72.0412 45.6288C71.6702 45.6103 71.354 45.5683 71.0926 45.5027C70.83 45.4318 70.6199 45.316 70.4625 45.1553C70.305 44.9946 70.194 44.7739 70.1293 44.4932C70.0418 44.1138 70.0571 43.7765 70.1751 43.4811C70.2971 43.1793 70.4965 42.9281 70.7731 42.7275C71.0486 42.5217 71.3734 42.3757 71.7476 42.2894C72.0075 42.2295 72.2583 42.2018 72.5002 42.2063C72.7472 42.2095 72.9829 42.2346 73.2071 42.2814C73.4314 42.3283 73.6366 42.3877 73.8229 42.4597L73.5486 43.4424ZM75.9735 47.1854L74.6978 41.6505L78.4163 40.7934L78.6337 41.7367L75.991 42.3458L76.3198 43.7724L78.5181 43.2657L78.7194 44.1388L76.521 44.6455L77.0493 46.9374L75.9735 47.1854ZM84.0757 44.3245L84.2931 45.2678L80.4499 46.1536L79.1741 40.6187L82.9472 39.7491L83.1646 40.6923L80.4673 41.314L80.7746 42.6471L83.1055 42.1098L83.3067 42.9829L80.9758 43.5202L81.3083 44.9624L84.0757 44.3245ZM85.1318 45.0745L83.8561 39.5396L86.3039 38.9754C86.5585 38.9167 86.8044 38.9148 87.0414 38.9696C87.2837 39.0232 87.5031 39.1204 87.6997 39.2612C87.9016 39.4007 88.0692 39.5701 88.2027 39.7692C88.3414 39.9671 88.437 40.1804 88.4897 40.4091C88.5436 40.6429 88.5542 40.8786 88.5213 41.116C88.4925 41.3471 88.4213 41.5605 88.3077 41.7564C88.1941 41.9522 88.0462 42.1177 87.8638 42.2527L89.6065 44.0431L88.4216 44.3162L86.8558 42.7232L85.78 42.9712L86.2076 44.8265L85.1318 45.0745ZM85.5625 42.0279L86.9112 41.717C87.0463 41.6859 87.1569 41.6194 87.2428 41.5174C87.3276 41.4103 87.3856 41.282 87.4168 41.1325C87.448 40.983 87.4445 40.8251 87.4062 40.6588C87.3654 40.4821 87.2937 40.3372 87.191 40.224C87.0871 40.1057 86.969 40.0207 86.8367 39.9691C86.7096 39.9163 86.5811 39.9049 86.4511 39.9348L85.1493 40.2349L85.5625 42.0279Z" fill="#7FFF52"/>
</svg>
