<svg width="114" height="114" viewBox="0 0 114 114" fill="none" xmlns="http://www.w3.org/2000/svg">
<path d="M53.0634 14.8191C54.0128 6.91506 64.3333 4.53627 68.6468 11.2272L73.7544 19.15C75.8639 22.4222 79.7564 24.0761 83.5761 23.3232L92.8246 21.5003C100.635 19.9609 106.087 29.0411 101.056 35.2111L95.0996 42.517C92.6394 45.5344 92.2693 49.7475 94.1657 53.1476L98.7573 61.3802C102.635 68.3327 95.6838 76.3234 88.2613 73.4457L79.4723 70.0383C75.8423 68.631 71.7211 69.5809 69.0734 72.4351L62.6626 79.346C57.2486 85.1824 47.501 81.0407 47.9441 73.0922L48.4689 63.6803C48.6856 59.7932 46.5086 56.1672 42.9759 54.5311L34.4222 50.5697C27.1984 47.2242 28.1253 36.6738 35.8217 34.639L44.935 32.2296C48.6989 31.2346 51.4747 28.0437 51.9391 24.1783L53.0634 14.8191Z" fill="#7FFF52" stroke="black"/>
<path d="M54.4941 42.0261L55.4716 46.2669L54.77 46.4287L53.4943 40.8938L54.0867 40.7572L58.4672 44.304L57.4718 39.9852L58.1734 39.8235L59.4474 45.3506L58.8081 45.4979L54.4941 42.0261ZM64.3827 43.5562L64.5264 44.1799L60.769 45.0459L59.4932 39.5111L63.1805 38.6612L63.3243 39.2848L60.3386 39.973L60.7518 41.766L63.3478 41.1676L63.4825 41.7523L60.8866 42.3507L61.3268 44.2606L64.3827 43.5562ZM66.2473 37.9872L66.9099 37.8344L68.0865 39.591L68.3832 37.4948L69.0459 37.3421L68.6422 39.9719L70.1198 42.0368L70.9018 36.8815L71.6658 36.7054L70.6263 42.7739L70.0182 42.9141L68.3171 40.5559L67.812 43.4226L67.204 43.5627L63.6207 38.5597L64.3769 38.3854L67.3445 42.6765L67.7613 40.175L66.2473 37.9872ZM73.6652 42.0735L72.3895 36.5386L73.0911 36.3769L74.2231 41.2881L77.3101 40.5766L77.4539 41.2002L73.6652 42.0735ZM76.2998 35.6373L78.6407 38.1353L79.6675 34.8611L80.4315 34.685L79.137 38.6859L79.6024 40.705L78.9008 40.8667L78.4318 38.8321L75.528 35.8152L76.2998 35.6373ZM60.4664 54.3516L59.4926 50.1264L58.4177 53.7977L57.9889 53.8965L55.4077 51.068L56.3815 55.2932L55.6799 55.4549L54.4042 49.92L55.1448 49.7493L57.9766 52.8813L59.1595 48.824L59.8923 48.6551L61.168 54.1899L60.4664 54.3516ZM62.4935 53.8844L61.2177 48.3496L61.9193 48.1878L63.1951 53.7227L62.4935 53.8844ZM64.2426 49.0152L65.2201 53.256L64.5185 53.4177L63.2428 47.8828L63.8352 47.7462L68.2158 51.293L67.2203 46.9742L67.9219 46.8125L69.1959 52.3396L68.5566 52.4869L64.2426 49.0152ZM73.3768 46.2038L71.4669 46.644L72.5989 51.5552L71.8973 51.7169L70.7653 46.8057L68.8554 47.2459L68.7116 46.6223L73.2331 45.5801L73.3768 46.2038ZM78.9197 49.4415L79.0635 50.0652L75.306 50.9313L74.0302 45.3964L77.7176 44.5465L77.8613 45.1701L74.8756 45.8583L75.2889 47.6513L77.8848 47.053L78.0196 47.6376L75.4236 48.236L75.8638 50.1459L78.9197 49.4415ZM80.026 49.8433L78.7502 44.3085L80.6679 43.8664C81.2604 43.7299 81.7829 43.7408 82.2354 43.8992C82.6918 44.0513 83.0673 44.315 83.3618 44.6904C83.6552 45.0607 83.8605 45.5005 83.9779 46.0098C84.1073 46.5711 84.1107 47.0847 83.9883 47.5508C83.8659 48.0169 83.6309 48.4104 83.2834 48.7313C82.936 49.0522 82.4894 49.2755 81.9437 49.4013L80.026 49.8433ZM83.2685 46.1733C83.1727 45.7575 83.0097 45.4065 82.7795 45.1202C82.5545 44.8327 82.2755 44.6316 81.9426 44.5168C81.6096 44.402 81.2327 44.3931 80.8117 44.4901L79.5956 44.7704L80.5838 49.058L81.7999 48.7777C82.2261 48.6794 82.5631 48.5032 82.8111 48.2491C83.0578 47.9897 83.2193 47.6815 83.2958 47.3246C83.371 46.9624 83.3619 46.5787 83.2685 46.1733Z" fill="black"/>
</svg>
