<svg width="111" height="110" viewBox="0 0 111 110" fill="none" xmlns="http://www.w3.org/2000/svg">
<path d="M68.2265 7.32114L73.3342 15.2439C75.5547 18.6883 79.652 20.4293 83.6728 19.6368L92.9213 17.8139C100.272 16.365 105.403 24.9111 100.669 30.7181L94.7121 38.0241C92.1224 41.2003 91.7328 45.6351 93.729 49.2141L98.3206 57.4467C101.97 63.9903 95.428 71.5109 88.442 68.8025L79.653 65.3951C75.832 63.9137 71.4939 64.9136 68.7068 67.9181L62.2961 74.829C57.2005 80.3221 48.0263 76.424 48.4434 68.943L48.9681 59.5312C49.1962 55.4394 46.9047 51.6226 43.186 49.9004L34.6323 45.939C27.8335 42.7903 28.7058 32.8605 35.9495 30.9454L45.0628 28.536C49.0248 27.4886 51.9467 24.1298 52.4355 20.0609L53.5598 10.7017C54.4534 3.26263 64.1668 1.02378 68.2265 7.32114Z" fill="black" stroke="#7FFF52" stroke-width="2"/>
<path d="M60.2459 38.96L60.8181 41.4426L59.431 41.7623L58.2669 36.7117L59.3481 36.4625L61.9674 38.5632L61.3755 35.9952L62.7626 35.6755L63.9267 40.7261L62.8241 40.9802L60.2459 38.96ZM68.1146 38.4873L68.3933 39.6966L64.7939 40.5262L63.6298 35.4756L67.1652 34.6608L67.4439 35.87L65.2956 36.3652L65.4596 37.0766L67.2949 36.6535L67.5539 37.7775L65.7186 38.2005L65.9023 38.9972L68.1146 38.4873ZM69.4606 34.1317L70.7339 33.8382L71.5553 35.2895L71.6657 33.6234L72.939 33.3299L72.6413 35.9382L73.2418 36.886L73.5366 33.1922L75.0446 32.8446L74.3023 38.3346L73.1002 38.6117L71.9439 36.9754L71.6277 38.9511L70.4255 39.2282L67.355 34.617L68.8559 34.2711L70.745 37.4615L70.8558 36.3497L69.4606 34.1317ZM54.6676 48.0509L53.2165 48.3853L54.1019 52.2266L52.7147 52.5463L51.8294 48.7051L50.3711 49.0412L50.0924 47.8319L54.3889 46.8416L54.6676 48.0509ZM56.0582 51.7757L54.8941 46.7251L57.2131 46.1906C57.4597 46.1338 57.6988 46.1311 57.9305 46.1826C58.1621 46.2341 58.3734 46.3277 58.5645 46.4634C58.7545 46.5944 58.9139 46.755 59.0426 46.9451C59.1761 47.1341 59.2674 47.3352 59.3166 47.5487C59.3614 47.7431 59.3761 47.937 59.3608 48.1303C59.3454 48.3236 59.3007 48.5087 59.2266 48.6856C59.1514 48.8578 59.0505 49.0159 58.9239 49.1599L60.4188 50.7706L58.8965 51.1215L57.6499 49.7757L57.0879 49.9052L57.4454 51.456L56.0582 51.7757ZM56.8092 48.6959L57.6842 48.4943C57.7411 48.4811 57.7907 48.4472 57.833 48.3925C57.8754 48.3378 57.9038 48.2663 57.9184 48.1781C57.9378 48.0887 57.9344 47.9871 57.9081 47.8733C57.8808 47.7547 57.837 47.6624 57.7769 47.5964C57.7204 47.5245 57.6564 47.4743 57.5849 47.4459C57.5181 47.4163 57.4563 47.4081 57.3994 47.4212L56.56 47.6147L56.8092 48.6959ZM60.861 45.3498L62.4117 44.9924L65.1835 49.6724L63.775 49.997L63.2412 49.0788L61.8968 49.3887L61.8259 50.4463L60.4103 50.7726L60.861 45.3498ZM62.8075 48.2048L61.9495 46.5298L61.8899 48.4163L62.8075 48.2048ZM66.418 46.7733L66.9902 49.256L65.6031 49.5757L64.439 44.5251L65.5202 44.2759L68.1395 46.3766L67.5476 43.8086L68.9347 43.4889L70.0988 48.5394L68.9962 48.7936L66.418 46.7733ZM73.2411 44.2343C73.2411 44.2343 73.1953 44.2199 73.1038 44.191C73.0122 44.1622 72.8935 44.1346 72.7476 44.1083C72.6006 44.0773 72.4434 44.0561 72.2759 44.0447C72.1085 44.0334 71.9489 44.0452 71.7972 44.0802C71.6786 44.1075 71.5858 44.1489 71.5186 44.2043C71.4515 44.2597 71.4283 44.3325 71.4491 44.4226C71.4688 44.508 71.5225 44.568 71.6104 44.6026C71.6983 44.6373 71.816 44.6602 71.9633 44.6711C72.1155 44.681 72.2958 44.6944 72.5045 44.7112C72.8393 44.7339 73.1348 44.7807 73.3908 44.8515C73.6469 44.9224 73.859 45.0408 74.0271 45.2068C74.1941 45.3681 74.3142 45.6076 74.3875 45.9253C74.4574 46.2288 74.4619 46.4975 74.4009 46.7313C74.3389 46.9603 74.2296 47.1578 74.073 47.3238C73.9165 47.4897 73.731 47.6273 73.5165 47.7367C73.3009 47.8414 73.0745 47.921 72.8374 47.9757C72.5955 48.0314 72.3363 48.0662 72.0598 48.08C71.787 48.0879 71.5174 48.0776 71.2512 48.0491C70.9838 48.0158 70.7345 47.9634 70.5032 47.8919L70.8204 46.5377C70.8204 46.5377 70.8744 46.5553 70.9823 46.5903C71.0903 46.6254 71.2307 46.6604 71.4036 46.6955C71.5765 46.7305 71.7644 46.7547 71.9672 46.7678C72.1747 46.7799 72.3757 46.7636 72.5702 46.7188C72.7219 46.6838 72.8219 46.6408 72.87 46.5897C72.9218 46.5328 72.9401 46.4712 72.9248 46.4048C72.9018 46.3052 72.8322 46.2413 72.7158 46.2132C72.5984 46.1804 72.4488 46.1599 72.2672 46.1518C72.0892 46.1379 71.8906 46.1213 71.6713 46.1019C71.3544 46.0701 71.0868 46.0144 70.8687 45.9348C70.6495 45.8505 70.4752 45.7333 70.3457 45.5834C70.2152 45.4287 70.1215 45.228 70.0646 44.9814C69.9783 44.6068 69.9939 44.2736 70.1114 43.9818C70.2289 43.69 70.4152 43.4473 70.6702 43.2537C70.9289 43.0542 71.2242 42.9162 71.5562 42.8397C71.8028 42.7829 72.047 42.759 72.2889 42.7682C72.5344 42.7716 72.7665 42.793 72.9854 42.8324C73.209 42.8708 73.4054 42.9104 73.5746 42.9513L73.2411 44.2343ZM75.3564 47.3276L74.1922 42.2771L77.6565 41.4786L77.9352 42.6879L75.8581 43.1666L76.0516 44.006L77.7446 43.6158L78.0036 44.7397L76.3106 45.1299L76.7435 47.0079L75.3564 47.3276ZM82.6853 44.3648L82.9641 45.5741L79.3646 46.4038L78.2005 41.3532L81.7359 40.5383L82.0147 41.7476L79.8664 42.2427L80.0304 42.9541L81.8656 42.5311L82.1247 43.655L80.2894 44.078L80.473 44.8747L82.6853 44.3648ZM83.6091 45.4254L82.445 40.3749L84.764 39.8403C85.0106 39.7835 85.2497 39.7808 85.4813 39.8323C85.7129 39.8838 85.9243 39.9774 86.1154 40.1132C86.3054 40.2442 86.4648 40.4047 86.5935 40.5948C86.727 40.7838 86.8183 40.985 86.8675 41.1984C86.9123 41.3928 86.927 41.5867 86.9116 41.78C86.8963 41.9734 86.8515 42.1585 86.7774 42.3354C86.7022 42.5075 86.6013 42.6656 86.4747 42.8097L87.9697 44.4204L86.4474 44.7712L85.2008 43.4254L84.6388 43.555L84.9962 45.1057L83.6091 45.4254ZM84.3601 42.3457L85.235 42.144C85.292 42.1309 85.3416 42.097 85.3839 42.0423C85.4262 41.9876 85.4547 41.9161 85.4693 41.8278C85.4887 41.7384 85.4852 41.6369 85.459 41.523C85.4317 41.4045 85.3879 41.3122 85.3277 41.2461C85.2712 41.1743 85.2072 41.1241 85.1357 41.0956C85.069 41.0661 85.0072 41.0578 84.9503 41.071L84.1109 41.2644L84.3601 42.3457Z" fill="#7FFF52"/>
</svg>
