<svg width="111" height="110" viewBox="0 0 111 110" fill="none" xmlns="http://www.w3.org/2000/svg">
<path d="M68.2265 7.32114L73.3342 15.2439C75.5547 18.6883 79.652 20.4293 83.6728 19.6368L92.9213 17.8139C100.272 16.365 105.403 24.9111 100.669 30.7181L94.7121 38.0241C92.1224 41.2003 91.7328 45.6351 93.729 49.2141L98.3206 57.4467C101.97 63.9903 95.428 71.5109 88.442 68.8025L79.653 65.3951C75.832 63.9137 71.4939 64.9136 68.7068 67.9181L62.2961 74.829C57.2005 80.3221 48.0263 76.424 48.4434 68.943L48.9681 59.5312C49.1962 55.4394 46.9047 51.6226 43.186 49.9004L34.6323 45.939C27.8335 42.7903 28.7058 32.8605 35.9495 30.9454L45.0628 28.536C49.0248 27.4886 51.9467 24.1298 52.4355 20.0609L53.5598 10.7017C54.4534 3.26263 64.1668 1.02378 68.2265 7.32114Z" fill="#7FFF52" stroke="black" stroke-width="2"/>
<path d="M56.537 39.2299L57.1092 41.7125L55.7221 42.0322L54.5579 36.9816L55.6392 36.7324L58.2584 38.8331L57.6665 36.2651L59.0537 35.9454L60.2178 40.996L59.1152 41.2501L56.537 39.2299ZM64.4056 38.7572L64.6844 39.9665L61.085 40.7961L59.9208 35.7455L63.4562 34.9307L63.735 36.1399L61.5867 36.6351L61.7507 37.3465L63.5859 36.9234L63.845 38.0474L62.0097 38.4704L62.1934 39.2671L64.4056 38.7572ZM65.7516 34.4016L67.0249 34.1081L67.8464 35.5594L67.9568 33.8933L69.2301 33.5998L68.9323 36.208L69.5329 37.1559L69.8276 33.4621L71.3357 33.1145L70.5934 38.6045L69.3912 38.8816L68.235 37.2453L67.9187 39.221L66.7166 39.4981L63.646 34.8869L65.147 34.541L67.036 37.7314L67.1468 36.6196L65.7516 34.4016ZM72.8458 38.0853L71.6817 33.0347L73.0688 32.715L73.9542 36.5563L76.2448 36.0284L76.5235 37.2377L72.8458 38.0853ZM76.1864 31.9965L77.5653 33.8511L78.0146 31.5751L79.5226 31.2275L78.5586 35.0081L78.9439 36.6798L77.5639 36.9978L77.1753 35.3119L74.6854 32.3424L76.1864 31.9965ZM60.5006 50.1668L59.8874 47.5063L59.4721 49.5723L58.7323 49.7428L57.4545 48.0671L58.0678 50.7275L56.6806 51.0472L55.5165 45.9967L57.0317 45.6474L58.6677 47.7725L59.2155 45.1441L60.7236 44.7965L61.8877 49.8471L60.5006 50.1668ZM62.7521 49.6478L61.588 44.5972L62.9751 44.2775L64.1392 49.3281L62.7521 49.6478ZM65.8247 46.3251L66.3969 48.8077L65.0098 49.1274L63.8457 44.0769L64.9269 43.8276L67.5462 45.9283L66.9543 43.3604L68.3414 43.0406L69.5055 48.0912L68.4029 48.3454L65.8247 46.3251ZM73.4211 43.1434L71.9699 43.4778L72.8553 47.3191L71.4682 47.6388L70.5828 43.7976L69.1245 44.1337L68.8458 42.9244L73.1423 41.9341L73.4211 43.1434ZM78.1324 44.8293L78.4111 46.0386L74.8117 46.8682L73.6476 41.8176L77.183 41.0027L77.4617 42.212L75.3134 42.7072L75.4774 43.4185L77.3127 42.9955L77.5717 44.1194L75.7364 44.5425L75.9201 45.3392L78.1324 44.8293ZM79.0562 45.8899L77.892 40.8393L79.834 40.3917C80.3936 40.2627 80.887 40.2689 81.3141 40.4101C81.7448 40.5456 82.0993 40.7835 82.3776 41.1239C82.6594 41.4585 82.8539 41.8581 82.9611 42.3229C83.0791 42.8351 83.0752 43.3054 82.9492 43.734C82.828 44.1615 82.5994 44.5238 82.2633 44.821C81.932 45.1171 81.5103 45.3242 80.9981 45.4423L79.0562 45.8899ZM81.5526 42.6475C81.4925 42.3867 81.395 42.1694 81.26 41.9958C81.124 41.8174 80.9581 41.6933 80.7622 41.6236C80.5664 41.5539 80.3499 41.5463 80.1128 41.601L79.5579 41.7289L80.1646 44.3609L80.7194 44.233C80.9613 44.1772 81.1521 44.0733 81.2918 43.9212C81.4363 43.7681 81.5306 43.5815 81.5748 43.3616C81.6179 43.1369 81.6105 42.8989 81.5526 42.6475Z" fill="black"/>
</svg>
