<svg width="114" height="114" viewBox="0 0 114 114" fill="none" xmlns="http://www.w3.org/2000/svg">
<path d="M53.0634 14.8191C54.0128 6.91506 64.3333 4.53627 68.6468 11.2272L73.7544 19.15C75.8639 22.4222 79.7564 24.0761 83.5761 23.3232L92.8246 21.5003C100.635 19.9609 106.087 29.0411 101.056 35.2111L95.0996 42.517C92.6394 45.5344 92.2693 49.7475 94.1657 53.1476L98.7573 61.3802C102.635 68.3327 95.6838 76.3234 88.2613 73.4457L79.4723 70.0383C75.8423 68.631 71.7211 69.5809 69.0734 72.4351L62.6626 79.346C57.2486 85.1824 47.501 81.0407 47.9441 73.0922L48.4689 63.6803C48.6856 59.7932 46.5086 56.1672 42.9759 54.5311L34.4222 50.5697C27.1984 47.2242 28.1253 36.6738 35.8217 34.639L44.935 32.2296C48.6989 31.2346 51.4747 28.0437 51.9391 24.1783L53.0634 14.8191Z" fill="black" stroke="#7FFF52"/>
<path d="M58.252 41.0926L59.2295 45.3334L58.5279 45.4951L57.2522 39.9602L57.8446 39.8236L62.2251 43.3704L61.2297 39.0516L61.9313 38.8899L63.2053 44.417L62.566 44.5643L58.252 41.0926ZM68.1406 42.6227L68.2843 43.2463L64.5269 44.1124L63.2511 38.5775L66.9384 37.7276L67.0822 38.3512L64.0965 39.0394L64.5097 40.8324L67.1057 40.2341L67.2404 40.8187L64.6445 41.4171L65.0847 43.327L68.1406 42.6227ZM70.0052 37.0536L70.6678 36.9009L71.8444 38.6575L72.1411 36.5613L72.8038 36.4085L72.4001 39.0384L73.8777 41.1033L74.6597 35.9479L75.4237 35.7718L74.3842 41.8403L73.7761 41.9805L72.075 39.6223L71.5699 42.489L70.9619 42.6292L67.3786 37.6261L68.1348 37.4518L71.1024 41.7429L71.5192 39.2414L70.0052 37.0536ZM52.6935 50.9037L50.7836 51.3439L51.9156 56.2551L51.214 56.4169L50.082 51.5056L48.1721 51.9458L48.0283 51.3222L52.5498 50.28L52.6935 50.9037ZM54.6227 55.6312L53.3469 50.0963L55.7168 49.5501C55.9611 49.4938 56.1965 49.4942 56.4232 49.5515C56.6486 49.6035 56.8565 49.6979 57.0467 49.8346C57.2357 49.9662 57.3964 50.129 57.5287 50.3229C57.6597 50.5116 57.7504 50.7151 57.8007 50.9334C57.8594 51.188 57.8658 51.4411 57.8197 51.6925C57.7789 51.9427 57.6887 52.1688 57.5491 52.3706C57.4147 52.5712 57.2378 52.7297 57.0183 52.846L58.8479 54.6573L58.0527 54.8406L56.3317 53.1438L54.8661 53.4816L55.3243 55.4695L54.6227 55.6312ZM54.7224 52.8579L56.3984 52.4716C56.5907 52.4273 56.745 52.337 56.8614 52.2007C56.9818 52.058 57.0605 51.8894 57.0978 51.6947C57.1402 51.4988 57.1381 51.2996 57.0913 51.0969C57.0434 50.889 56.9529 50.7101 56.8198 50.5601C56.6856 50.405 56.5311 50.2928 56.3564 50.2236C56.1818 50.1544 56.0035 50.1408 55.8216 50.1827L54.1923 50.5582L54.7224 52.8579ZM60.1543 48.5273L60.7467 48.3907L64.2832 53.4045L63.5348 53.577L62.5063 52.1065L60.1832 52.6419L59.9099 54.4125L59.1615 54.585L60.1543 48.5273ZM62.2246 51.5967L60.6374 49.2697L60.1977 52.0639L62.2246 51.5967ZM64.746 48.8317L65.7235 53.0725L65.0219 53.2342L63.7462 47.6994L64.3386 47.5628L68.7191 51.1096L67.7237 46.7908L68.4253 46.6291L69.6993 52.1562L69.06 52.3035L64.746 48.8317ZM73.2636 46.7289C73.1845 46.6705 73.0851 46.6196 72.9656 46.5759C72.8461 46.5323 72.7154 46.4995 72.5735 46.4775C72.4304 46.4503 72.2773 46.439 72.1142 46.4438C71.9551 46.4422 71.7924 46.4605 71.6261 46.4988C71.1999 46.5971 70.9041 46.7501 70.7385 46.9579C70.573 47.1657 70.5225 47.41 70.5872 47.6906C70.6327 47.8881 70.7207 48.032 70.8509 48.1224C70.9812 48.2128 71.1613 48.2698 71.3912 48.2935C71.6262 48.3159 71.919 48.3278 72.2696 48.3291C72.6734 48.3236 73.0293 48.3483 73.3375 48.4031C73.6457 48.4579 73.8985 48.5693 74.096 48.7373C74.2922 48.9 74.4286 49.1477 74.5053 49.4803C74.5664 49.7454 74.5677 49.9886 74.5093 50.2101C74.4549 50.4251 74.3517 50.6186 74.1998 50.7904C74.0466 50.9571 73.8551 51.0998 73.6252 51.2184C73.3941 51.3319 73.1356 51.4216 72.8498 51.4874C72.5692 51.5521 72.2871 51.587 72.0037 51.5922C71.7243 51.5909 71.4519 51.5606 71.1864 51.5014C70.921 51.4422 70.6646 51.3508 70.4172 51.2272L70.6159 50.5574C70.7194 50.6266 70.8463 50.6904 70.9966 50.7488C71.1509 50.8008 71.3195 50.844 71.5026 50.8785C71.6909 50.9117 71.8892 50.9289 72.0974 50.9302C72.3045 50.9263 72.512 50.9003 72.7199 50.8524C73.1148 50.7614 73.4053 50.6205 73.5912 50.4299C73.776 50.2341 73.8366 49.9984 73.7731 49.723C73.7252 49.5151 73.6245 49.3632 73.471 49.2672C73.3227 49.17 73.1195 49.1074 72.8612 49.0794C72.603 49.0513 72.2928 49.0352 71.9306 49.0311C71.5349 49.0238 71.1971 48.995 70.9173 48.9445C70.6363 48.8889 70.4098 48.7851 70.238 48.6331C70.0713 48.48 69.9545 48.2579 69.8874 47.9669C69.8059 47.6135 69.8228 47.2949 69.938 47.0111C70.0532 46.7273 70.2472 46.4883 70.5198 46.2941C70.7925 46.0999 71.1185 45.959 71.4979 45.8716C71.7474 45.8141 71.9847 45.7868 72.2097 45.7896C72.44 45.7913 72.6594 45.8173 72.8681 45.8678C73.0767 45.9182 73.274 45.9904 73.4599 46.0844L73.2636 46.7289ZM75.7713 50.7566L74.4956 45.2217L78.1517 44.379L78.2954 45.0027L75.3409 45.6837L75.7668 47.5312L78.2536 46.958L78.3883 47.5427L75.9015 48.1159L76.4729 50.5949L75.7713 50.7566ZM83.9299 48.2193L84.0737 48.843L80.3162 49.709L79.0405 44.1742L82.7278 43.3243L82.8715 43.9479L79.8858 44.6361L80.2991 46.4291L82.895 45.8307L83.0298 46.4154L80.4338 47.0138L80.8741 48.9237L83.9299 48.2193ZM85.0362 48.6211L83.7605 43.0862L86.1303 42.54C86.3746 42.4837 86.61 42.4842 86.8367 42.5414C87.0621 42.5934 87.27 42.6878 87.4602 42.8246C87.6493 42.9561 87.8099 43.1189 87.9422 43.3128C88.0732 43.5015 88.1639 43.705 88.2142 43.9233C88.2729 44.1779 88.2793 44.431 88.2332 44.6824C88.1924 44.9327 88.1022 45.1587 87.9626 45.3605C87.8283 45.5612 87.6513 45.7196 87.4318 45.8359L89.2614 47.6472L88.4663 47.8305L86.7452 46.1337L85.2796 46.4715L85.7378 48.4594L85.0362 48.6211ZM85.1359 45.8479L86.8119 45.4616C87.0042 45.4172 87.1585 45.3269 87.2749 45.1907C87.3953 45.048 87.4741 44.8793 87.5113 44.6846C87.5537 44.4888 87.5516 44.2895 87.5048 44.0868C87.4569 43.8789 87.3664 43.7 87.2334 43.5501C87.0991 43.3949 86.9446 43.2828 86.7699 43.2136C86.5953 43.1443 86.417 43.1307 86.2351 43.1726L84.6058 43.5482L85.1359 45.8479Z" fill="#7FFF52"/>
</svg>
