<svg width="111" height="110" viewBox="0 0 111 110" fill="none" xmlns="http://www.w3.org/2000/svg">
<path d="M53.0634 10.6421C54.0128 2.73805 64.3333 0.359268 68.6468 7.05022L73.7544 14.973C75.8639 18.2452 79.7564 19.8991 83.5761 19.1462L92.8246 17.3233C100.635 15.7838 106.087 24.8641 101.056 31.0341L95.0996 38.34C92.6394 41.3574 92.2693 45.5705 94.1657 48.9706L98.7573 57.2032C102.635 64.1557 95.6838 72.1464 88.2613 69.2687L79.4723 65.8613C75.8423 64.454 71.7211 65.4039 69.0734 68.2581L62.6626 75.169C57.2486 81.0054 47.501 76.8637 47.9441 68.9152L48.4689 59.5033C48.6856 55.6162 46.5086 51.9902 42.9759 50.3541L34.4222 46.3927C27.1984 43.0472 28.1253 32.4968 35.8217 30.462L44.935 28.0526C48.6989 27.0576 51.4747 23.8667 51.9391 20.0013L53.0634 10.6421Z" fill="#7FFF52" stroke="black"/>
<path d="M54.9293 38.4713L55.7486 42.0261L54.6728 42.2741L53.3971 36.7392L54.2546 36.5415L57.9565 39.5304L57.1174 35.8899L58.1932 35.6419L59.4671 41.169L58.5706 41.3756L54.9293 38.4713ZM64.2443 39.0745L64.4617 40.0178L60.6185 40.9036L59.3428 35.3687L63.1158 34.4991L63.3332 35.4424L60.636 36.0641L60.9432 37.3971L63.2741 36.8599L63.4753 37.733L61.1445 38.2702L61.4769 39.7124L64.2443 39.0745ZM65.9226 33.8686L66.9204 33.6386L67.9741 35.325L68.1911 33.3457L69.1812 33.1175L68.8105 35.8547L69.9182 37.4548L70.495 32.7982L71.6644 32.5287L70.7262 38.5739L69.7985 38.7877L68.2886 36.6892L67.8574 39.2351L66.9297 39.4489L63.4478 34.4226L64.6016 34.1566L67.1663 38.0891L67.4462 36.1691L65.9226 33.8686ZM73.5071 37.9329L72.2314 32.398L73.3072 32.1501L74.3655 36.7417L77.1875 36.0912L77.4049 37.0345L73.5071 37.9329ZM76.6006 31.391L78.5649 33.6802L79.3524 30.7567L80.514 30.489L79.3328 34.5541L79.7784 36.4874L78.7104 36.7336L78.2612 34.7847L75.4312 31.6605L76.6006 31.391ZM60.066 50.267L59.2287 46.6342L58.4333 49.6663L57.8331 49.8047L55.7908 47.4266L56.6281 51.0594L55.5523 51.3073L54.2766 45.7724L55.4303 45.5065L57.7933 48.2786L58.7201 44.7482L59.866 44.4841L61.1418 50.019L60.066 50.267ZM62.2973 49.7526L61.0216 44.2178L62.0974 43.9698L63.3731 49.5047L62.2973 49.7526ZM64.7844 45.4358L65.6037 48.9905L64.5279 49.2385L63.2522 43.7036L64.1097 43.506L67.8116 46.4949L66.9725 42.8543L68.0483 42.6064L69.3222 48.1335L68.4257 48.3401L64.7844 45.4358ZM73.5547 42.3224L71.7851 42.7302L72.8435 47.3218L71.7755 47.568L70.7171 42.9764L68.9475 43.3843L68.7301 42.441L73.3373 41.3791L73.5547 42.3224ZM78.926 44.9265L79.1434 45.8698L75.3002 46.7556L74.0244 41.2207L77.7975 40.3511L78.0149 41.2943L75.3176 41.916L75.6249 43.2491L77.9558 42.7118L78.157 43.5849L75.8261 44.1222L76.1585 45.5644L78.926 44.9265ZM79.9821 45.6765L78.7063 40.1416L80.7176 39.678C81.3205 39.539 81.8533 39.5476 82.3162 39.7036C82.7779 39.8544 83.1586 40.117 83.4583 40.4912C83.7568 40.8603 83.9648 41.2994 84.0821 41.8087C84.2115 42.37 84.2124 42.8843 84.0847 43.3516C83.9571 43.8189 83.7143 44.2141 83.3565 44.5375C83.0038 44.8596 82.5494 45.0847 81.9934 45.2129L79.9821 45.6765ZM82.9986 42.0585C82.9159 41.6999 82.7785 41.4005 82.5863 41.1602C82.3928 40.9147 82.1566 40.7447 81.8776 40.6503C81.5974 40.5507 81.2832 40.541 80.935 40.6213L79.9996 40.8369L80.8405 44.4852L81.7759 44.2696C82.1293 44.1881 82.4102 44.0413 82.6185 43.8291C82.8257 43.6117 82.9598 43.3509 83.0211 43.0467C83.0863 42.7361 83.0788 42.4067 82.9986 42.0585Z" fill="black"/>
</svg>
