<svg width="529" height="444" viewBox="0 0 529 444" fill="none" xmlns="http://www.w3.org/2000/svg">
<path d="M193.127 321.936L195.737 322.353C194.85 322.358 193.969 322.217 193.127 321.936Z" fill="white" stroke="#231F20" stroke-width="4" stroke-miterlimit="10"/>
<path d="M374.615 290.683C373.305 291.368 371.852 291.735 370.374 291.753L190.439 292.132L196.664 240.509L198.347 226.873L200.252 211.07L201.244 202.941L202.171 195.228L204.089 179.322L206.033 163.206L208.043 146.151L209.452 134.537L211.253 119.622L211.475 117.716V117.325C211.724 115.448 212.457 113.667 213.601 112.158C214.744 110.648 216.26 109.461 217.999 108.712C219.132 108.22 220.353 107.963 221.588 107.956H221.979H242.232H259.835H276.668H293.149L375.085 107.773H401.51L380.435 282.632C380.399 282.957 380.342 283.279 380.266 283.597C380.266 283.767 380.187 283.95 380.135 284.119C380.083 284.289 380.044 284.446 379.992 284.602C379.939 284.759 379.848 285.02 379.77 285.229C379.691 285.437 379.639 285.555 379.561 285.711L379.326 286.181C379.251 286.337 379.168 286.49 379.078 286.638C378.907 286.95 378.715 287.251 378.504 287.538L378.295 287.812L378.099 288.073C377.891 288.334 377.669 288.582 377.447 288.817C377.225 289.052 376.99 289.274 376.742 289.469H376.664L376.351 289.73L492.306 321.805L372.058 292.68C372.848 291.938 373.704 291.27 374.615 290.683Z" fill="white" stroke="#231F20" stroke-width="4" stroke-miterlimit="10"/>
<path d="M412.849 8.48187C412.429 6.78884 411.448 5.28758 410.068 4.22166C408.687 3.15574 406.986 2.58772 405.242 2.60975L45.3979 3.37965C42.8806 3.50183 40.4872 4.50864 38.6395 6.22265C36.7918 7.93667 35.6084 10.2479 35.2979 12.7489L2.688 283.167C2.48614 284.311 2.53711 285.485 2.83732 286.607C3.13754 287.729 3.67974 288.772 4.42584 289.663C5.17195 290.553 6.10389 291.269 7.15624 291.761C8.20859 292.253 9.35586 292.509 10.5175 292.51L190.439 292.118L370.361 291.74C371.843 291.721 373.3 291.355 374.615 290.67C375.234 290.355 375.82 289.979 376.364 289.548L376.664 289.287H376.755C376.99 289.078 377.225 288.856 377.447 288.621C377.669 288.386 377.891 288.138 378.099 287.877C378.308 287.617 378.243 287.708 378.295 287.617C378.372 287.531 378.442 287.439 378.504 287.342C378.719 287.056 378.915 286.755 379.091 286.442C379.182 286.297 379.261 286.144 379.326 285.985C379.42 285.837 379.499 285.68 379.561 285.516C379.639 285.359 379.704 285.189 379.77 285.033C379.835 284.876 379.926 284.615 380.005 284.406C380.083 284.198 380.096 284.08 380.148 283.924C380.2 283.767 380.239 283.571 380.279 283.402C380.318 283.232 380.409 282.762 380.448 282.436L401.523 107.577L413.058 11.9399C413.208 10.7844 413.137 9.61097 412.849 8.48187ZM59.478 31.3179C59.791 28.8178 60.9751 26.5081 62.8223 24.7945C64.6695 23.081 67.0615 22.0733 69.578 21.9486L376.56 21.2961C377.72 21.2979 378.866 21.5532 379.917 22.0443C380.968 22.5355 381.9 23.2505 382.645 24.1393C383.391 25.0282 383.934 26.0693 384.235 27.1899C384.536 28.3104 384.589 29.4833 384.389 30.6263L383.371 39.1474H58.5254L59.478 31.3179Z" fill="white" stroke="#231F20" stroke-width="2" stroke-miterlimit="10"/>
<path d="M385.887 30.3684L384.847 39H57L57.9614 31.1053C58.2773 28.5844 59.4724 26.2554 61.3366 24.5275C63.2009 22.7997 65.615 21.7837 68.1547 21.6579L377.972 21C379.14 21.0008 380.294 21.2561 381.353 21.7482C382.413 22.2403 383.352 22.9572 384.105 23.8491C384.859 24.741 385.409 25.7864 385.716 26.9123C386.024 28.0383 386.082 29.2177 385.887 30.3684Z" fill="#A157FF" stroke="#231F20" stroke-miterlimit="10"/>
<path d="M383.371 39.1475L375.111 107.59L360.261 230.774C359.954 233.274 358.773 235.585 356.927 237.3C355.082 239.014 352.69 240.021 350.174 240.144L43.1798 240.796C42.0194 240.794 40.8735 240.539 39.8222 240.048C38.771 239.557 37.8398 238.842 37.0939 237.953C36.348 237.064 35.8055 236.023 35.5043 234.902C35.2031 233.782 35.1505 232.609 35.3503 231.466L58.5256 39.1475H383.371Z" fill="#231F20" stroke="#231F20" stroke-width="4" stroke-miterlimit="10"/>
<path d="M526.338 116.594V116.659L502.745 312.397C502.434 314.889 501.257 317.192 499.42 318.904C497.584 320.617 495.204 321.63 492.697 321.766H492.606H492.345L372.097 292.64C372.885 291.954 373.732 291.339 374.628 290.801L376.69 289.417H376.768C377.016 289.214 377.251 288.996 377.473 288.765C377.695 288.53 377.917 288.282 378.125 288.021L378.321 287.76C378.398 287.674 378.468 287.583 378.53 287.486C378.741 287.199 378.933 286.898 379.104 286.586C379.199 286.441 379.282 286.288 379.352 286.129C379.446 285.981 379.525 285.823 379.587 285.659C379.665 285.503 379.73 285.333 379.796 285.176C379.861 285.02 379.952 284.759 380.018 284.55C380.083 284.341 380.122 284.224 380.161 284.067C380.2 283.911 380.252 283.715 380.292 283.545C380.368 283.227 380.425 282.905 380.461 282.58L401.536 107.721L412.849 8.48192L411.049 5.21963C411.049 4.97169 413.945 7.177 414.089 7.38579L450.692 57.6381L520.661 107.603L522.919 109.221C524.087 110.041 525.017 111.155 525.618 112.449C526.218 113.743 526.466 115.173 526.338 116.594Z" fill="white" stroke="#231F20" stroke-width="2" stroke-linejoin="bevel"/>
<path d="M492.345 321.649V321.727L195.738 322.314L193.128 321.897L10.4395 292.484L190.348 292.093L370.283 291.714C371.761 291.696 373.214 291.329 374.524 290.644C373.628 291.182 372.781 291.798 371.993 292.484" fill="#231F20"/>
<path d="M492.345 321.649V321.727L195.738 322.314L193.128 321.897L10.4395 292.484L190.348 292.093L370.283 291.714C371.761 291.696 373.214 291.329 374.524 290.644C373.628 291.182 372.781 291.798 371.993 292.484" stroke="#231F20" stroke-width="4" stroke-linejoin="round"/>
<path d="M257.069 379.378C305.636 379.378 345.007 374.845 345.007 369.252C345.007 363.66 305.636 359.126 257.069 359.126C208.502 359.126 169.13 363.66 169.13 369.252C169.13 374.845 208.502 379.378 257.069 379.378Z" stroke="#7FFF52" stroke-width="2" stroke-miterlimit="10"/>
<path d="M257.264 393.602C300.801 393.602 336.094 389.068 336.094 383.476C336.094 377.883 300.801 373.35 257.264 373.35C213.727 373.35 178.434 377.883 178.434 383.476C178.434 389.068 213.727 393.602 257.264 393.602Z" stroke="#7FFF52" stroke-width="2" stroke-miterlimit="10"/>
<path d="M257.669 410.292C287.296 410.292 311.314 405.758 311.314 400.166C311.314 394.573 287.296 390.04 257.669 390.04C228.041 390.04 204.023 394.573 204.023 400.166C204.023 405.758 228.041 410.292 257.669 410.292Z" stroke="#7FFF52" stroke-width="2" stroke-miterlimit="10"/>
<path d="M257.068 426.264C274.372 426.264 288.399 421.73 288.399 416.138C288.399 410.545 274.372 406.012 257.068 406.012C239.765 406.012 225.737 410.545 225.737 416.138C225.737 421.73 239.765 426.264 257.068 426.264Z" stroke="#7FFF52" stroke-width="2" stroke-miterlimit="10"/>
<path d="M257.069 441.192C263.576 441.192 268.852 436.659 268.852 431.066C268.852 425.474 263.576 420.94 257.069 420.94C250.561 420.94 245.285 425.474 245.285 431.066C245.285 436.659 250.561 441.192 257.069 441.192Z" stroke="#7FFF52" stroke-width="2" stroke-miterlimit="10"/>
<path d="M251.001 331.279C261.163 331.279 269.4 325.402 269.4 318.152C269.4 310.902 261.163 305.024 251.001 305.024C240.839 305.024 232.602 310.902 232.602 318.152C232.602 325.402 240.839 331.279 251.001 331.279Z" fill="#231F20" stroke="#7FFF52" stroke-width="2" stroke-miterlimit="10"/>
<path d="M418.708 228.608C415.224 226.938 412.836 221.784 413.41 217.164L428.43 94.1367C429.004 89.5304 432.345 87.1293 435.79 88.7996C439.261 90.483 441.649 95.6374 441.088 100.244L426.055 223.284C425.494 227.891 422.179 230.292 418.708 228.608Z" fill="#231F20" stroke="#A157FF" stroke-width="2" stroke-miterlimit="10"/>
<path d="M440.683 239.23C437.212 237.547 434.824 232.405 435.385 227.786L450.418 104.759C450.979 100.139 454.333 97.7381 457.765 99.4215C461.249 101.105 463.637 106.259 463.076 110.866L448.043 233.893C447.469 238.513 444.168 240.914 440.683 239.23Z" fill="#231F20" stroke="#A157FF" stroke-width="2" stroke-miterlimit="10"/>
<path d="M462.671 249.852C459.187 248.169 456.799 243.015 457.373 238.408L472.38 115.368C472.941 110.761 476.295 108.36 479.727 110.044C483.211 111.727 485.586 116.868 485.025 121.488L469.992 244.515C469.457 249.135 466.155 251.536 462.671 249.852Z" fill="#231F20" stroke="#A157FF" stroke-width="2" stroke-miterlimit="10"/>
<path d="M200.396 271.227C200.396 271.518 200.338 271.806 200.226 272.075C200.114 272.344 199.95 272.588 199.744 272.793L197.264 275.272C197.06 275.478 196.817 275.642 196.549 275.754C196.281 275.866 195.993 275.924 195.703 275.924C195.413 275.925 195.125 275.868 194.857 275.757C194.588 275.647 194.344 275.484 194.139 275.279C193.934 275.073 193.771 274.829 193.66 274.561C193.549 274.293 193.492 274.005 193.493 273.715C193.494 273.424 193.552 273.137 193.664 272.869C193.776 272.601 193.939 272.358 194.146 272.153L194.681 271.618C194.752 271.551 194.81 271.47 194.85 271.381C194.891 271.291 194.913 271.194 194.915 271.096C194.916 270.965 194.89 270.834 194.838 270.713C194.787 270.592 194.711 270.482 194.615 270.392C194.442 270.242 194.217 270.166 193.989 270.178C193.76 270.19 193.545 270.29 193.389 270.457L184.476 279.369C184.272 279.576 184.028 279.739 183.76 279.851C183.493 279.963 183.205 280.021 182.915 280.022C182.624 280.022 182.337 279.966 182.068 279.855C181.8 279.744 181.556 279.581 181.351 279.376C181.145 279.171 180.983 278.927 180.872 278.658C180.761 278.39 180.704 278.102 180.705 277.812C180.705 277.522 180.763 277.234 180.875 276.966C180.987 276.698 181.151 276.455 181.357 276.251L183.484 274.111C183.547 274.05 183.597 273.977 183.631 273.896C183.665 273.815 183.681 273.728 183.68 273.641C183.681 273.51 183.656 273.381 183.607 273.26C183.558 273.139 183.485 273.029 183.393 272.936C183.308 272.849 183.206 272.78 183.094 272.733C182.982 272.686 182.862 272.662 182.741 272.662C182.619 272.662 182.499 272.686 182.387 272.733C182.275 272.78 182.173 272.849 182.088 272.936L180.079 274.907C179.665 275.32 179.104 275.553 178.519 275.553C177.934 275.553 177.373 275.32 176.96 274.907C176.549 274.491 176.319 273.931 176.319 273.347C176.319 272.763 176.549 272.203 176.96 271.788L184.359 264.402C184.492 264.261 184.566 264.074 184.567 263.88C184.593 263.755 184.593 263.626 184.567 263.502C184.511 263.378 184.436 263.264 184.346 263.162C184.258 263.085 184.162 263.02 184.059 262.967C183.897 262.897 183.718 262.878 183.545 262.913C183.372 262.948 183.214 263.035 183.093 263.162L175.746 270.509C175.542 270.715 175.299 270.879 175.031 270.991C174.763 271.103 174.475 271.161 174.185 271.162C173.895 271.162 173.607 271.105 173.338 270.995C173.07 270.884 172.826 270.721 172.621 270.516C172.416 270.31 172.253 270.066 172.142 269.798C172.031 269.53 171.974 269.242 171.975 268.952C171.976 268.661 172.034 268.374 172.146 268.106C172.257 267.838 172.421 267.595 172.627 267.39L176.138 263.88C176.259 263.764 176.329 263.604 176.333 263.436C176.345 263.298 176.323 263.159 176.268 263.032C176.214 262.907 176.139 262.792 176.046 262.693C175.96 262.605 175.852 262.542 175.733 262.51C175.547 262.455 175.349 262.452 175.161 262.5C174.972 262.548 174.8 262.646 174.663 262.784L174.219 263.228C174.015 263.434 173.772 263.598 173.504 263.71C173.236 263.822 172.949 263.879 172.658 263.88C172.368 263.881 172.08 263.824 171.812 263.713C171.543 263.602 171.299 263.439 171.094 263.234C170.889 263.029 170.726 262.785 170.615 262.517C170.504 262.248 170.448 261.961 170.448 261.67C170.449 261.38 170.507 261.092 170.619 260.824C170.731 260.557 170.894 260.313 171.101 260.109L176.842 254.367C177.047 254.161 177.29 253.997 177.558 253.885C177.826 253.773 178.113 253.715 178.404 253.715C178.694 253.714 178.982 253.771 179.25 253.882C179.518 253.993 179.762 254.155 179.968 254.361C180.173 254.566 180.336 254.81 180.447 255.078C180.557 255.347 180.614 255.634 180.614 255.925C180.613 256.215 180.555 256.502 180.443 256.77C180.331 257.038 180.167 257.282 179.961 257.486L176.346 260.983C176.225 261.116 176.152 261.286 176.138 261.466C176.138 261.597 176.165 261.727 176.217 261.848C176.268 261.969 176.344 262.079 176.438 262.171C176.532 262.269 176.646 262.346 176.772 262.398C176.897 262.449 177.033 262.474 177.169 262.471C177.34 262.456 177.502 262.382 177.625 262.262L187.686 252.201C188.1 251.788 188.661 251.555 189.246 251.555C189.83 251.555 190.391 251.788 190.805 252.201C191.215 252.616 191.445 253.177 191.445 253.76C191.445 254.344 191.215 254.905 190.805 255.32L184.633 261.492C184.575 261.55 184.529 261.62 184.497 261.696C184.466 261.772 184.45 261.853 184.45 261.936C184.448 262.066 184.473 262.196 184.522 262.317C184.572 262.438 184.645 262.548 184.737 262.64C184.925 262.793 185.163 262.87 185.405 262.856C185.646 262.841 185.874 262.736 186.042 262.562L187.686 260.905C187.892 260.7 188.136 260.538 188.404 260.427C188.672 260.317 188.96 260.26 189.25 260.261C189.54 260.261 189.828 260.319 190.096 260.431C190.363 260.542 190.607 260.706 190.811 260.911C191.016 261.117 191.178 261.361 191.289 261.629C191.399 261.898 191.456 262.185 191.455 262.475C191.455 262.766 191.397 263.053 191.285 263.321C191.174 263.589 191.011 263.832 190.805 264.037L183.745 271.096C183.68 271.159 183.628 271.234 183.592 271.317C183.556 271.4 183.537 271.489 183.537 271.579C183.537 271.711 183.564 271.841 183.616 271.962C183.667 272.083 183.742 272.192 183.837 272.284C184.019 272.447 184.258 272.533 184.503 272.52C184.747 272.508 184.977 272.4 185.142 272.218L196.468 260.892C196.882 260.478 197.443 260.246 198.028 260.246C198.613 260.246 199.173 260.478 199.587 260.892C199.997 261.307 200.228 261.867 200.228 262.451C200.228 263.035 199.997 263.595 199.587 264.011L195.007 268.578C194.889 268.7 194.823 268.864 194.824 269.034C194.822 269.167 194.847 269.299 194.896 269.422C194.945 269.545 195.018 269.657 195.111 269.752H195.176C195.266 269.835 195.371 269.899 195.485 269.94C195.599 269.982 195.721 270 195.843 269.994C195.964 269.988 196.083 269.958 196.193 269.905C196.303 269.852 196.401 269.778 196.481 269.687L196.612 269.556C197.021 269.136 197.578 268.894 198.164 268.882C198.75 268.87 199.318 269.089 199.744 269.491C199.975 269.714 200.153 269.985 200.266 270.285C200.379 270.585 200.423 270.907 200.396 271.227Z" fill="#A157FF" stroke="#A157FF" stroke-width="0.25" stroke-miterlimit="10"/>
<path d="M193.715 259.913C194.782 259.913 195.646 259.049 195.646 257.982C195.646 256.915 194.782 256.051 193.715 256.051C192.648 256.051 191.784 256.915 191.784 257.982C191.784 259.049 192.648 259.913 193.715 259.913Z" fill="#A157FF" stroke="#A157FF" stroke-width="0.25" stroke-miterlimit="10"/>
<path d="M116.216 55.3415L115.459 67.0858H114.154L115.081 52.7317H116.138L124.333 64.7239L125.116 52.7708H126.421L125.494 67.1249H124.189L116.216 55.3415Z" fill="white"/>
<path d="M134.472 67.2292C133.564 67.2473 132.666 67.0364 131.862 66.6159C131.111 66.2184 130.46 65.6563 129.957 64.9717C129.431 64.265 129.038 63.4693 128.795 62.6229C128.537 61.7517 128.44 60.8408 128.508 59.9347C128.561 58.9897 128.782 58.0617 129.161 57.1944C129.533 56.3416 130.044 55.5566 130.674 54.8717C131.287 54.2053 132.017 53.6569 132.827 53.2536C133.64 52.8592 134.534 52.6582 135.437 52.6664C136.347 52.6441 137.247 52.86 138.047 53.2927C138.794 53.7127 139.443 54.2864 139.952 54.9761C141.002 56.4272 141.51 58.2002 141.388 59.9869C141.335 60.9319 141.114 61.86 140.735 62.7273C140.367 63.5795 139.86 64.3645 139.234 65.05C138.606 65.7239 137.853 66.2691 137.016 66.6551C136.222 67.0357 135.352 67.2319 134.472 67.2292ZM129.878 59.9347C129.826 60.6943 129.901 61.4574 130.1 62.1922C130.278 62.8885 130.588 63.544 131.013 64.1235C131.421 64.6643 131.942 65.1096 132.54 65.4284C133.156 65.7659 133.848 65.941 134.55 65.9374C135.3 65.9477 136.041 65.7681 136.703 65.4154C137.342 65.0913 137.913 64.6485 138.386 64.1105C138.871 63.5353 139.255 62.8824 139.522 62.1792C139.796 61.4827 139.959 60.7473 140.004 60C140.058 59.2447 139.983 58.4858 139.783 57.7555C139.594 57.0605 139.28 56.4059 138.856 55.8243C138.45 55.2869 137.934 54.842 137.342 54.5193C136.725 54.1864 136.034 54.0158 135.333 54.0235C134.593 54.0152 133.862 54.19 133.206 54.5324C132.564 54.8513 131.991 55.2949 131.522 55.8373C131.038 56.4151 130.65 57.0672 130.374 57.7686C130.098 58.4607 129.931 59.1914 129.878 59.9347Z" fill="white"/>
<path d="M150.457 55.4067L149.687 67.151H148.382L149.308 52.7969H150.431L158.625 64.7891L159.395 52.836H160.7L159.774 67.1901H158.469L150.457 55.4067Z" fill="white"/>
<path d="M168.713 67.2946C167.805 67.3127 166.908 67.1018 166.103 66.6813C165.351 66.2807 164.696 65.7193 164.185 65.0371C163.686 64.3082 163.323 63.4946 163.115 62.6361C162.859 61.7642 162.758 60.8546 162.815 59.9479C162.878 59.0031 163.103 58.0762 163.48 57.2076C163.844 56.3505 164.357 55.5643 164.994 54.8849C165.607 54.2185 166.336 53.6701 167.147 53.2668C167.96 52.8719 168.853 52.6709 169.757 52.6795C170.666 52.6573 171.566 52.8732 172.367 53.3059C173.119 53.718 173.77 54.2931 174.272 54.9892C175.319 56.4364 175.827 58.2046 175.707 59.9871C175.59 61.8715 174.83 63.6587 173.554 65.0501C172.956 65.7237 172.228 66.2696 171.414 66.6552C170.578 67.0816 169.651 67.3009 168.713 67.2946ZM164.119 60.0262C164.061 60.7859 164.136 61.55 164.341 62.2837C164.522 62.979 164.832 63.6341 165.255 64.215C165.655 64.7582 166.172 65.2042 166.768 65.5199C167.388 65.8578 168.085 66.0286 168.791 66.0158C169.541 66.0342 170.282 65.8589 170.944 65.5069C171.595 65.1672 172.172 64.7014 172.641 64.1367C173.116 63.5551 173.499 62.9037 173.776 62.2054C174.044 61.5071 174.207 60.7726 174.259 60.0262C174.312 59.2709 174.237 58.512 174.037 57.7818C173.849 57.0868 173.535 56.4322 173.11 55.8505C172.708 55.3097 172.191 54.8642 171.597 54.5456C170.998 54.212 170.325 54.0327 169.639 54.0236C168.901 54.016 168.171 54.1861 167.512 54.5195C166.869 54.8369 166.297 55.2807 165.829 55.8244C165.345 56.4022 164.957 57.0543 164.681 57.7557C164.363 58.4742 164.173 59.2426 164.119 60.0262Z" fill="white"/>
<path d="M187.738 54.115H182.871L182.023 67.1641H180.718L181.566 54.115H176.686L176.777 52.8101H187.869L187.738 54.115Z" fill="white"/>
<path d="M188.939 67.2293L189.865 52.8752H191.17L190.244 67.2293H188.939Z" fill="white"/>
<path d="M193.715 67.2423L194.641 52.8882H203.567L203.476 54.1931H195.855L195.516 59.478H201.949L201.871 60.6524H195.437L195.007 67.3075L193.715 67.2423Z" fill="white"/>
<path d="M205.055 67.2554L205.981 52.9014H207.286L206.36 67.2554H205.055Z" fill="white"/>
<path d="M209.4 60.0263C209.449 59.1283 209.652 58.2454 210 57.4164C210.33 56.5645 210.802 55.7747 211.396 55.0806C211.992 54.3911 212.72 53.8277 213.536 53.4234C214.413 53.008 215.372 52.7982 216.342 52.8101C217.432 52.7783 218.504 53.0886 219.409 53.6974C220.215 54.2531 220.834 55.0403 221.183 55.9549L220.074 56.6465C219.863 56.0665 219.514 55.5469 219.056 55.1328C218.653 54.7777 218.183 54.507 217.673 54.3368C217.19 54.1711 216.683 54.0873 216.172 54.0889C215.407 54.0763 214.65 54.251 213.967 54.5978C213.32 54.9433 212.748 55.4134 212.284 55.981C211.818 56.5577 211.448 57.2053 211.188 57.8992C210.934 58.5822 210.785 59.2991 210.744 60.0263C210.689 60.7953 210.768 61.5681 210.979 62.3099C211.17 63.0084 211.494 63.6639 211.931 64.2411C212.352 64.7753 212.875 65.2191 213.471 65.5461C214.084 65.8779 214.771 66.0485 215.468 66.0419C216.014 66.0369 216.556 65.9443 217.073 65.7679C217.639 65.5642 218.168 65.2688 218.639 64.8936C219.149 64.48 219.566 63.9644 219.865 63.3799L220.935 63.9932C220.611 64.7019 220.124 65.3236 219.513 65.807C218.898 66.2975 218.206 66.6813 217.464 66.9423C216.772 67.1836 216.044 67.3113 215.311 67.3207C214.422 67.3277 213.546 67.1076 212.766 66.6813C212.014 66.2524 211.361 65.67 210.848 64.9719C210.318 64.254 209.924 63.4445 209.687 62.5839C209.451 61.753 209.354 60.8888 209.4 60.0263Z" fill="white"/>
<path d="M228.008 52.9404H229.144L233.906 67.2945H232.471L231.062 62.8056H224.811L222.815 67.2945H221.366L228.008 52.9404ZM230.709 61.7095L228.465 54.5977L225.307 61.6964L230.709 61.7095Z" fill="white"/>
<path d="M245.116 54.2192H240.235L239.387 67.2684H238.082L238.93 54.2192H234.063L234.141 52.9143H245.233L245.116 54.2192Z" fill="white"/>
<path d="M246.303 67.3336L247.229 52.9795H248.534L247.608 67.3336H246.303Z" fill="white"/>
<path d="M256.585 67.4641C255.679 67.4756 254.783 67.265 253.976 66.8507C253.237 66.4573 252.592 65.9099 252.084 65.2457C251.558 64.539 251.165 63.7433 250.922 62.8969C250.684 62.0486 250.587 61.1668 250.635 60.287C250.695 59.3417 250.921 58.4143 251.301 57.5467C251.668 56.6904 252.175 55.9011 252.801 55.2109C253.402 54.5072 254.133 53.9266 254.954 53.5015C255.764 53.0966 256.659 52.8908 257.564 52.9012C258.475 52.8829 259.375 53.1034 260.174 53.5406C260.924 53.9562 261.574 54.5307 262.079 55.2239C263.127 56.6711 263.635 58.4393 263.515 60.2218C263.451 61.1666 263.226 62.0935 262.849 62.9621C262.469 63.8053 261.949 64.5776 261.309 65.2457C260.699 65.9119 259.969 66.4565 259.156 66.8507C258.357 67.2487 257.478 67.4585 256.585 67.4641ZM251.979 60.1696C251.934 60.9291 252.009 61.6909 252.201 62.4271C252.387 63.1163 252.697 63.7662 253.114 64.3453C253.527 64.882 254.047 65.3264 254.641 65.6502C255.263 65.9837 255.959 66.1543 256.664 66.1461C257.408 66.156 258.144 65.9812 258.804 65.6372C259.448 65.2883 260.02 64.8187 260.487 64.254C260.972 63.6835 261.355 63.0349 261.622 62.3357C261.901 61.6354 262.069 60.8956 262.118 60.1435C262.171 59.3882 262.096 58.6294 261.896 57.899C261.711 57.2071 261.397 56.5563 260.97 55.9808C260.565 55.4376 260.043 54.9918 259.443 54.6759C258.826 54.3453 258.134 54.1791 257.434 54.1931C256.698 54.1739 255.97 54.3447 255.32 54.6889C254.677 55.0127 254.101 55.4555 253.623 55.9938C252.668 57.1685 252.094 58.6074 251.979 60.1174V60.1696Z" fill="white"/>
<path d="M267.652 55.6286L266.895 67.3729H265.59L266.516 53.0188H267.639L275.833 65.011L276.616 53.0449H277.921L276.995 67.399H275.69L267.652 55.6286Z" fill="white"/>
<path d="M289.157 55.746C288.973 55.5086 288.758 55.2978 288.517 55.1197C288.259 54.9295 287.979 54.7717 287.682 54.6499C287.357 54.512 287.021 54.4028 286.677 54.3237C286.295 54.2455 285.906 54.2018 285.516 54.1932C284.569 54.1253 283.627 54.3781 282.841 54.9109C282.55 55.1467 282.313 55.4424 282.146 55.7779C281.98 56.1134 281.887 56.4808 281.875 56.8552C281.82 57.3136 281.931 57.7766 282.188 58.1601C282.504 58.526 282.915 58.797 283.376 58.9431C284.067 59.1948 284.773 59.4039 285.49 59.5694C286.338 59.7549 287.168 60.0169 287.969 60.3524C288.591 60.5955 289.13 61.0122 289.522 61.5529C289.903 62.1637 290.06 62.8879 289.966 63.6016C289.944 64.2043 289.783 64.7938 289.496 65.3241C289.227 65.814 288.847 66.2341 288.387 66.5507C287.901 66.8877 287.357 67.1312 286.782 67.2684C286.124 67.4305 285.449 67.5094 284.772 67.5033C284.095 67.5021 283.42 67.4188 282.762 67.2554C282.134 67.1117 281.528 66.8834 280.962 66.5768C280.398 66.2555 279.881 65.8606 279.422 65.4024L280.166 64.2541C280.413 64.539 280.693 64.7931 281.001 65.0109C281.344 65.26 281.711 65.4742 282.097 65.6503C282.513 65.8477 282.951 65.9966 283.402 66.094C283.892 66.1892 284.39 66.2372 284.889 66.2375C285.801 66.2988 286.71 66.0851 287.499 65.6242C287.812 65.4249 288.071 65.1516 288.253 64.8284C288.435 64.5052 288.535 64.1421 288.543 63.7712C288.606 63.266 288.47 62.7563 288.165 62.3489C287.815 61.9439 287.365 61.6379 286.86 61.4615C286.132 61.1883 285.387 60.9659 284.628 60.796C283.825 60.6025 283.039 60.3406 282.28 60.0131C281.707 59.7907 281.215 59.3993 280.87 58.8909C280.557 58.327 280.429 57.6786 280.505 57.0379C280.532 56.2297 280.8 55.4482 281.275 54.7934C281.743 54.1738 282.37 53.6915 283.089 53.3972C283.918 53.066 284.806 52.9062 285.699 52.9274C286.261 52.9227 286.822 52.9885 287.369 53.1231C287.862 53.2452 288.336 53.434 288.778 53.6842C289.213 53.9347 289.612 54.2418 289.966 54.5977L289.157 55.746Z" fill="white"/>
<path d="M244.019 163.61L241.409 204.872C240.848 213.458 233.776 220.4 225.607 220.387L152.44 220.257C144.258 220.257 138.086 213.262 138.647 204.676L141.257 163.401C141.303 162.721 141.564 162.072 142.001 161.549L183.158 113.175C190.309 104.785 202.562 104.811 208.617 113.175L243.523 161.809C243.891 162.335 244.067 162.971 244.019 163.61Z" fill="#A157FF"/>
<mask id="mask0_447_318" style="mask-type:luminance" maskUnits="userSpaceOnUse" x="138" y="106" width="107" height="115">
<path d="M244.019 163.61L241.409 204.872C240.848 213.458 233.776 220.4 225.607 220.387L152.44 220.257C144.258 220.257 138.086 213.262 138.647 204.676L141.257 163.401C141.303 162.721 141.564 162.072 142.001 161.549L183.158 113.175C190.309 104.785 202.562 104.811 208.617 113.175L243.523 161.809C243.891 162.335 244.067 162.971 244.019 163.61Z" fill="white"/>
</mask>
<g mask="url(#mask0_447_318)">
<path d="M104.393 138.621L42.8141 203.449C41.1294 205.218 40.0005 207.443 39.5672 209.847C39.1339 212.251 39.4152 214.729 40.3763 216.975C41.3374 219.221 42.9361 221.136 44.9745 222.482C47.0128 223.828 49.4013 224.547 51.8442 224.55L166.507 224.772C168.87 224.767 171.184 224.092 173.18 222.826C175.175 221.56 176.771 219.754 177.781 217.617C178.792 215.481 179.177 213.102 178.89 210.756C178.604 208.41 177.659 206.193 176.164 204.363L123.08 139.313C121.956 137.949 120.557 136.838 118.973 136.055C117.389 135.271 115.657 134.832 113.892 134.767C112.126 134.702 110.367 135.011 108.729 135.676C107.092 136.34 105.614 137.344 104.393 138.621Z" fill="#A157FF" stroke="#231F20" stroke-miterlimit="10"/>
<path d="M266.32 138.921L204.793 203.75C203.114 205.521 201.99 207.746 201.561 210.15C201.131 212.553 201.415 215.029 202.377 217.273C203.338 219.517 204.936 221.431 206.972 222.777C209.009 224.123 211.395 224.844 213.836 224.85L328.499 225.072C330.866 225.074 333.185 224.405 335.186 223.142C337.187 221.878 338.789 220.073 339.805 217.935C340.82 215.797 341.208 213.415 340.923 211.066C340.638 208.716 339.692 206.496 338.195 204.663L285.059 139.626C283.938 138.251 282.536 137.13 280.948 136.339C279.36 135.548 277.622 135.104 275.849 135.037C274.076 134.971 272.309 135.283 270.666 135.952C269.023 136.622 267.541 137.634 266.32 138.921Z" fill="#A157FF" stroke="#231F20" stroke-miterlimit="10"/>
<path d="M182.349 169.639L123.262 226.442C121.467 228.167 120.229 230.39 119.706 232.824C119.183 235.258 119.4 237.793 120.329 240.103C121.257 242.413 122.855 244.393 124.917 245.789C126.979 247.184 129.411 247.931 131.901 247.934L242.727 248.143C245.148 248.148 247.518 247.45 249.549 246.133C251.581 244.817 253.185 242.938 254.168 240.726C255.151 238.514 255.47 236.064 255.086 233.674C254.702 231.284 253.632 229.057 252.005 227.264L200.266 170.278C199.144 169.039 197.785 168.037 196.27 167.332C194.754 166.627 193.113 166.233 191.442 166.173C189.772 166.114 188.107 166.39 186.545 166.985C184.983 167.58 183.556 168.483 182.349 169.639Z" fill="#A157FF" stroke="#231F20" stroke-miterlimit="10"/>
</g>
<path d="M170.552 73.8975L176.163 84.8196L183.184 73.9888H185.233L176.986 86.6334L176.503 94.1237H174.611L175.093 86.5812L168.569 73.9627L170.552 73.8975Z" fill="white"/>
<path d="M199.718 92.349L199.652 94.0976H186.76L188.065 73.9497H200.709L200.553 75.6852H189.8L189.33 82.9536H198.713L198.595 84.6239H189.213L188.717 92.3099L199.718 92.349Z" fill="white"/>
<path d="M217.921 75.7505H211.135L209.948 94.1367H208.056L209.243 75.6852H202.418L202.523 73.9236H218.091L217.921 75.7505Z" fill="white"/>
<path d="M333.106 34.5842C335.679 34.5842 337.764 32.4985 337.764 29.9256C337.764 27.3528 335.679 25.2671 333.106 25.2671C330.533 25.2671 328.447 27.3528 328.447 29.9256C328.447 32.4985 330.533 34.5842 333.106 34.5842Z" fill="#5DFB25" stroke="#231F20" stroke-miterlimit="10"/>
<path d="M346.56 34.5842C349.133 34.5842 351.218 32.4985 351.218 29.9256C351.218 27.3528 349.133 25.2671 346.56 25.2671C343.987 25.2671 341.901 27.3528 341.901 29.9256C341.901 32.4985 343.987 34.5842 346.56 34.5842Z" fill="#5DFB25" stroke="#231F20" stroke-miterlimit="10"/>
<path d="M360 34.5842C362.573 34.5842 364.659 32.4985 364.659 29.9256C364.659 27.3528 362.573 25.2671 360 25.2671C357.428 25.2671 355.342 27.3528 355.342 29.9256C355.342 32.4985 357.428 34.5842 360 34.5842Z" fill="#5DFB25" stroke="#231F20" stroke-miterlimit="10"/>
</svg>
