<svg width="623" height="373" viewBox="0 0 623 373" fill="none" xmlns="http://www.w3.org/2000/svg">
<g clip-path="url(#clip0_381_596)">
<path d="M41.8761 82.7788L23.8905 60.6645L-10.0735 88.4757L-23.7244 71.6822L10.2396 43.871L-7.73989 21.7567L93.6443 -10.4409L41.8761 82.7788Z" fill="#231F20" stroke="#0E151B" stroke-miterlimit="10"/>
<path d="M55.3214 90.0229L37.3419 67.9087L3.37788 95.7199L-10.2791 78.9264L23.6849 51.1151L5.70543 29.0009L107.096 -3.19678L55.3214 90.0229Z" fill="#A157FF" stroke="#0E151B" stroke-miterlimit="10"/>
</g>
<g clip-path="url(#clip1_381_596)">
<path d="M126.909 374.563L113.756 358.332L88.9163 378.744L78.9329 366.418L103.772 346.006L90.623 329.776L164.77 306.145L126.909 374.563Z" fill="#231F20" stroke="#0E151B" stroke-miterlimit="10"/>
<path d="M136.742 379.88L123.593 363.649L98.7539 384.061L88.766 371.735L113.605 351.323L100.456 335.093L174.607 311.461L136.742 379.88Z" fill="#A157FF" stroke="#0E151B" stroke-miterlimit="10"/>
</g>
<path d="M13.7584 260.603L4.22878 248.836L-13.7671 263.635L-21 254.699L-3.00415 239.9L-12.5306 228.133L41.1879 211L13.7584 260.603Z" fill="#231F20" stroke="#0E151B" stroke-miterlimit="10"/>
<path d="M20.8825 264.458L11.356 252.69L-6.63984 267.489L-13.876 258.553L4.11987 243.754L-5.40659 231.987L48.3151 214.854L20.8825 264.458Z" fill="#A157FF" stroke="#0E151B" stroke-miterlimit="10"/>
<path d="M300.758 335.603L291.229 323.836L273.233 338.635L266 329.699L283.996 314.9L274.469 303.133L328.188 286L300.758 335.603Z" fill="#231F20" stroke="#0E151B" stroke-miterlimit="10"/>
<path d="M307.882 339.458L298.356 327.69L280.36 342.489L273.124 333.553L291.12 318.754L281.593 306.987L335.315 289.854L307.882 339.458Z" fill="#A157FF" stroke="#0E151B" stroke-miterlimit="10"/>
<path d="M78.7584 165.603L69.2288 153.836L51.2329 168.635L44 159.699L61.9958 144.9L52.4694 133.133L106.188 116L78.7584 165.603Z" fill="#231F20" stroke="#0E151B" stroke-miterlimit="10"/>
<path d="M85.8825 169.458L76.356 157.69L58.3602 172.489L51.124 163.553L69.1199 148.754L59.5934 136.987L113.315 119.854L85.8825 169.458Z" fill="#A157FF" stroke="#0E151B" stroke-miterlimit="10"/>
<g clip-path="url(#clip2_381_596)">
<path d="M346.375 95.6486L328.255 73.3315L294.038 101.398L280.285 84.4503L314.503 56.3839L296.389 34.0668L398.53 1.57373L346.375 95.6486Z" fill="#231F20" stroke="#0E151B" stroke-miterlimit="10"/>
<path d="M359.921 102.959L341.807 80.642L307.59 108.708L293.831 91.7608L328.048 63.6945L309.935 41.3773L412.081 8.88428L359.921 102.959Z" fill="#A157FF" stroke="#0E151B" stroke-miterlimit="10"/>
</g>
<path d="M571.355 367.3L550.282 341.331L510.488 373.99L494.495 354.269L534.288 321.61L513.223 295.641L632.009 257.831L571.355 367.3Z" fill="#231F20" stroke="#0E151B" stroke-miterlimit="10"/>
<path d="M587.108 375.807L566.042 349.838L526.249 382.497L510.248 362.776L550.041 330.117L528.976 304.148L647.769 266.338L587.108 375.807Z" fill="#A157FF" stroke="#0E151B" stroke-miterlimit="10"/>
<g clip-path="url(#clip3_381_596)">
<path d="M591.889 128.214L575.783 108.331L545.367 133.336L533.142 118.237L563.558 93.2327L547.457 73.3502L638.249 44.4019L591.889 128.214Z" fill="#231F20" stroke="#0E151B" stroke-miterlimit="10"/>
<path d="M603.93 134.727L587.829 114.845L557.413 139.849L545.183 124.751L575.599 99.7459L559.497 79.8634L650.295 50.915L603.93 134.727Z" fill="#A157FF" stroke="#0E151B" stroke-miterlimit="10"/>
</g>
<defs>
<clipPath id="clip0_381_596">
<rect width="134" height="109" fill="white" transform="translate(-25 -12)"/>
</clipPath>
<clipPath id="clip1_381_596">
<rect width="98" height="80" fill="white" transform="translate(78 305)"/>
</clipPath>
<clipPath id="clip2_381_596">
<rect width="135" height="110" fill="white" transform="translate(279)"/>
</clipPath>
<clipPath id="clip3_381_596">
<rect width="120" height="98" fill="white" transform="translate(532 43)"/>
</clipPath>
</defs>
</svg>
