<svg width="172" height="78" viewBox="0 0 172 78" fill="none" xmlns="http://www.w3.org/2000/svg">
<g clip-path="url(#clip0_353_44)">
<rect width="172" height="78" rx="10" fill="#EBEBEB"/>
<path d="M9.968 12.616V19H8.036V9.06H9.576L14.714 15.612V9.074H16.646V19H15.036L9.968 12.616ZM21.8107 19.14C21.2227 19.14 20.6907 19.042 20.2147 18.846C19.7387 18.6407 19.3327 18.3653 18.9967 18.02C18.6607 17.6653 18.3994 17.264 18.2127 16.816C18.0354 16.3587 17.9467 15.878 17.9467 15.374C17.9467 14.674 18.1007 14.0347 18.4087 13.456C18.726 12.8773 19.174 12.4153 19.7527 12.07C20.3407 11.7153 21.0314 11.538 21.8247 11.538C22.6274 11.538 23.3134 11.7153 23.8827 12.07C24.452 12.4153 24.886 12.8773 25.1847 13.456C25.4927 14.0253 25.6467 14.6413 25.6467 15.304C25.6467 15.416 25.642 15.5327 25.6327 15.654C25.6234 15.766 25.614 15.8593 25.6047 15.934H19.9347C19.972 16.3073 20.0794 16.634 20.2567 16.914C20.4434 17.194 20.6767 17.4087 20.9567 17.558C21.246 17.698 21.554 17.768 21.8807 17.768C22.254 17.768 22.604 17.6793 22.9307 17.502C23.2667 17.3153 23.4954 17.0727 23.6167 16.774L25.2267 17.222C25.0494 17.5953 24.7927 17.9267 24.4567 18.216C24.13 18.5053 23.7427 18.734 23.2947 18.902C22.8467 19.0607 22.352 19.14 21.8107 19.14ZM19.8927 14.744H23.7287C23.6914 14.3707 23.584 14.0487 23.4067 13.778C23.2387 13.498 23.0147 13.2833 22.7347 13.134C22.4547 12.9753 22.142 12.896 21.7967 12.896C21.4607 12.896 21.1527 12.9753 20.8727 13.134C20.602 13.2833 20.378 13.498 20.2007 13.778C20.0327 14.0487 19.93 14.3707 19.8927 14.744ZM35.6845 11.664H37.4625L34.3965 19H32.8285L31.5965 15.85L30.3925 19H28.8105L25.7585 11.664H27.5225L29.7065 17.208L30.5605 14.814L29.2865 11.678H30.8405L31.5965 13.918L32.3665 11.678H33.9205L32.6465 14.814L33.5145 17.208L35.6845 11.664ZM38.3146 8.78H40.1906V16.648C40.1906 16.984 40.2466 17.2127 40.3586 17.334C40.4706 17.446 40.6246 17.502 40.8206 17.502C40.9699 17.502 41.1239 17.4833 41.2826 17.446C41.4413 17.4087 41.5813 17.362 41.7026 17.306L41.9546 18.734C41.7026 18.8553 41.4086 18.9487 41.0726 19.014C40.7366 19.0793 40.4333 19.112 40.1626 19.112C39.5746 19.112 39.1173 18.958 38.7906 18.65C38.4733 18.3327 38.3146 17.8847 38.3146 17.306V8.78ZM42.5705 20.428C42.7385 20.4653 42.8925 20.498 43.0325 20.526C43.1818 20.554 43.3078 20.568 43.4105 20.568C43.5878 20.568 43.7325 20.5213 43.8445 20.428C43.9658 20.344 44.0825 20.1853 44.1945 19.952C44.3065 19.728 44.4232 19.4107 44.5445 19L41.6465 11.664H43.5925L45.5665 17.082L47.3025 11.664H49.0945L46.0145 20.456C45.9025 20.7827 45.7298 21.0767 45.4965 21.338C45.2725 21.6087 44.9878 21.8187 44.6425 21.968C44.3065 22.1267 43.9285 22.206 43.5085 22.206C43.3592 22.206 43.2098 22.192 43.0605 22.164C42.9112 22.1453 42.7478 22.108 42.5705 22.052V20.428ZM15.47 26.754H12.292V35H10.374V26.754H7.196V25.06H15.47V26.754ZM20.1927 29.288C19.6234 29.288 19.1147 29.4 18.6667 29.624C18.2187 29.8387 17.8967 30.1513 17.7007 30.562V35H15.8247V27.664H17.5467V29.232C17.808 28.728 18.1394 28.3313 18.5407 28.042C18.942 27.7527 19.3667 27.594 19.8147 27.566C19.9174 27.566 19.9967 27.566 20.0527 27.566C20.1087 27.566 20.1554 27.5707 20.1927 27.58V29.288ZM20.6938 32.83C20.6938 32.354 20.8244 31.9387 21.0858 31.584C21.3564 31.22 21.7298 30.94 22.2058 30.744C22.6818 30.548 23.2278 30.45 23.8438 30.45C24.1518 30.45 24.4644 30.4733 24.7818 30.52C25.0991 30.5667 25.3744 30.6413 25.6078 30.744V30.352C25.6078 29.8853 25.4678 29.526 25.1878 29.274C24.9171 29.022 24.5111 28.896 23.9698 28.896C23.5684 28.896 23.1858 28.966 22.8218 29.106C22.4578 29.246 22.0751 29.4513 21.6738 29.722L21.0718 28.49C21.5571 28.1727 22.0518 27.9347 22.5558 27.776C23.0691 27.6173 23.6058 27.538 24.1658 27.538C25.2111 27.538 26.0231 27.7993 26.6018 28.322C27.1898 28.8447 27.4838 29.5913 27.4838 30.562V32.9C27.4838 33.096 27.5164 33.236 27.5818 33.32C27.6564 33.404 27.7731 33.4553 27.9318 33.474V35C27.7638 35.028 27.6098 35.0513 27.4698 35.07C27.3391 35.0887 27.2271 35.098 27.1338 35.098C26.7604 35.098 26.4758 35.014 26.2798 34.846C26.0931 34.678 25.9764 34.4727 25.9298 34.23L25.8878 33.852C25.5704 34.2627 25.1738 34.58 24.6978 34.804C24.2218 35.028 23.7364 35.14 23.2418 35.14C22.7564 35.14 22.3178 35.042 21.9258 34.846C21.5431 34.6407 21.2398 34.3653 21.0158 34.02C20.8011 33.6653 20.6938 33.2687 20.6938 32.83ZM25.2578 33.208C25.3604 33.096 25.4444 32.984 25.5098 32.872C25.5751 32.76 25.6078 32.6573 25.6078 32.564V31.822C25.3838 31.7287 25.1411 31.6587 24.8798 31.612C24.6184 31.556 24.3711 31.528 24.1378 31.528C23.6524 31.528 23.2511 31.6353 22.9338 31.85C22.6258 32.0553 22.4718 32.3307 22.4718 32.676C22.4718 32.8627 22.5231 33.04 22.6258 33.208C22.7284 33.376 22.8778 33.5113 23.0738 33.614C23.2698 33.7167 23.5031 33.768 23.7738 33.768C24.0538 33.768 24.3291 33.7167 24.5998 33.614C24.8704 33.502 25.0898 33.3667 25.2578 33.208ZM36.0548 35H34.1788V30.884C34.1788 30.296 34.0761 29.8667 33.8708 29.596C33.6655 29.3253 33.3808 29.19 33.0168 29.19C32.7648 29.19 32.5081 29.2553 32.2468 29.386C31.9948 29.5167 31.7661 29.6987 31.5608 29.932C31.3555 30.156 31.2061 30.4173 31.1128 30.716V35H29.2368V27.664H30.9308V29.022C31.1175 28.7047 31.3555 28.4387 31.6448 28.224C31.9341 28 32.2655 27.832 32.6388 27.72C33.0215 27.5987 33.4228 27.538 33.8428 27.538C34.3001 27.538 34.6735 27.622 34.9628 27.79C35.2615 27.9487 35.4855 28.168 35.6348 28.448C35.7935 28.7187 35.9008 29.0267 35.9568 29.372C36.0221 29.7173 36.0548 30.0673 36.0548 30.422V35ZM40.388 35.14C39.7627 35.14 39.1654 35.0373 38.596 34.832C38.0267 34.6267 37.5367 34.3233 37.126 33.922L37.798 32.704C38.2367 33.0587 38.666 33.32 39.086 33.488C39.5154 33.656 39.926 33.74 40.318 33.74C40.682 33.74 40.9714 33.6747 41.186 33.544C41.41 33.4133 41.522 33.2173 41.522 32.956C41.522 32.7787 41.4614 32.6433 41.34 32.55C41.2187 32.4473 41.0414 32.3587 40.808 32.284C40.584 32.2093 40.3087 32.1253 39.982 32.032C39.4407 31.8547 38.988 31.682 38.624 31.514C38.26 31.346 37.9847 31.136 37.798 30.884C37.6207 30.6227 37.532 30.2913 37.532 29.89C37.532 29.4047 37.6534 28.9893 37.896 28.644C38.148 28.2893 38.4934 28.014 38.932 27.818C39.38 27.622 39.9027 27.524 40.5 27.524C41.0227 27.524 41.5174 27.608 41.984 27.776C42.4507 27.9347 42.8754 28.196 43.258 28.56L42.502 29.75C42.1287 29.4607 41.774 29.2507 41.438 29.12C41.102 28.98 40.7614 28.91 40.416 28.91C40.22 28.91 40.0334 28.9333 39.856 28.98C39.688 29.0267 39.548 29.106 39.436 29.218C39.3334 29.3207 39.282 29.47 39.282 29.666C39.282 29.8433 39.3287 29.9833 39.422 30.086C39.5247 30.1793 39.674 30.2633 39.87 30.338C40.0754 30.4127 40.3227 30.4967 40.612 30.59C41.2 30.758 41.6947 30.9307 42.096 31.108C42.5067 31.2853 42.8147 31.5047 43.02 31.766C43.2254 32.018 43.328 32.368 43.328 32.816C43.328 33.544 43.062 34.1133 42.53 34.524C41.998 34.9347 41.284 35.14 40.388 35.14ZM45.011 35V29.484H44.045V28.056H45.011V27.608C45.011 27.0013 45.109 26.4787 45.305 26.04C45.5103 25.592 45.795 25.2467 46.159 25.004C46.5323 24.7613 46.9663 24.64 47.461 24.64C47.7597 24.64 48.0583 24.6773 48.357 24.752C48.665 24.8267 48.9683 24.934 49.267 25.074L48.889 26.488C48.749 26.4133 48.5857 26.3527 48.399 26.306C48.2123 26.25 48.035 26.222 47.867 26.222C47.5497 26.222 47.307 26.334 47.139 26.558C46.971 26.782 46.887 27.1087 46.887 27.538V28.056H48.679V29.484H46.887V35H45.011ZM53.0509 35.14C52.4629 35.14 51.9309 35.042 51.4549 34.846C50.9789 34.6407 50.5729 34.3653 50.2369 34.02C49.9009 33.6653 49.6396 33.264 49.4529 32.816C49.2756 32.3587 49.1869 31.878 49.1869 31.374C49.1869 30.674 49.3409 30.0347 49.6489 29.456C49.9663 28.8773 50.4143 28.4153 50.9929 28.07C51.5809 27.7153 52.2716 27.538 53.0649 27.538C53.8676 27.538 54.5536 27.7153 55.1229 28.07C55.6923 28.4153 56.1263 28.8773 56.4249 29.456C56.7329 30.0253 56.8869 30.6413 56.8869 31.304C56.8869 31.416 56.8823 31.5327 56.8729 31.654C56.8636 31.766 56.8543 31.8593 56.8449 31.934H51.1749C51.2123 32.3073 51.3196 32.634 51.4969 32.914C51.6836 33.194 51.9169 33.4087 52.1969 33.558C52.4863 33.698 52.7943 33.768 53.1209 33.768C53.4943 33.768 53.8443 33.6793 54.1709 33.502C54.5069 33.3153 54.7356 33.0727 54.8569 32.774L56.4669 33.222C56.2896 33.5953 56.0329 33.9267 55.6969 34.216C55.3703 34.5053 54.9829 34.734 54.5349 34.902C54.0869 35.0607 53.5923 35.14 53.0509 35.14ZM51.1329 30.744H54.9689C54.9316 30.3707 54.8243 30.0487 54.6469 29.778C54.4789 29.498 54.2549 29.2833 53.9749 29.134C53.6949 28.9753 53.3823 28.896 53.0369 28.896C52.7009 28.896 52.3929 28.9753 52.1129 29.134C51.8423 29.2833 51.6183 29.498 51.4409 29.778C51.2729 30.0487 51.1703 30.3707 51.1329 30.744ZM62.3978 29.288C61.8284 29.288 61.3198 29.4 60.8718 29.624C60.4238 29.8387 60.1018 30.1513 59.9058 30.562V35H58.0298V27.664H59.7518V29.232C60.0131 28.728 60.3444 28.3313 60.7458 28.042C61.1471 27.7527 61.5718 27.594 62.0198 27.566C62.1224 27.566 62.2018 27.566 62.2578 27.566C62.3138 27.566 62.3604 27.5707 62.3978 27.58V29.288ZM67.8118 29.288C67.2425 29.288 66.7338 29.4 66.2858 29.624C65.8378 29.8387 65.5158 30.1513 65.3198 30.562V35H63.4438V27.664H65.1658V29.232C65.4272 28.728 65.7585 28.3313 66.1598 28.042C66.5612 27.7527 66.9858 27.594 67.4338 27.566C67.5365 27.566 67.6158 27.566 67.6718 27.566C67.7278 27.566 67.7745 27.5707 67.8118 27.58V29.288ZM72.1642 35.14C71.5762 35.14 71.0442 35.042 70.5682 34.846C70.0922 34.6407 69.6862 34.3653 69.3502 34.02C69.0142 33.6653 68.7529 33.264 68.5662 32.816C68.3889 32.3587 68.3002 31.878 68.3002 31.374C68.3002 30.674 68.4542 30.0347 68.7622 29.456C69.0795 28.8773 69.5275 28.4153 70.1062 28.07C70.6942 27.7153 71.3849 27.538 72.1782 27.538C72.9809 27.538 73.6669 27.7153 74.2362 28.07C74.8055 28.4153 75.2395 28.8773 75.5382 29.456C75.8462 30.0253 76.0002 30.6413 76.0002 31.304C76.0002 31.416 75.9955 31.5327 75.9862 31.654C75.9769 31.766 75.9675 31.8593 75.9582 31.934L70.2882 31.934C70.3255 32.3073 70.4329 32.634 70.6102 32.914C70.7969 33.194 71.0302 33.4087 71.3102 33.558C71.5995 33.698 71.9075 33.768 72.2342 33.768C72.6075 33.768 72.9575 33.6793 73.2842 33.502C73.6202 33.3153 73.8489 33.0727 73.9702 32.774L75.5802 33.222C75.4029 33.5953 75.1462 33.9267 74.8102 34.216C74.4835 34.5053 74.0962 34.734 73.6482 34.902C73.2002 35.0607 72.7055 35.14 72.1642 35.14ZM70.2462 30.744L74.0822 30.744C74.0449 30.3707 73.9375 30.0487 73.7602 29.778C73.5922 29.498 73.3682 29.2833 73.0882 29.134C72.8082 28.9753 72.4955 28.896 72.1502 28.896C71.8142 28.896 71.5062 28.9753 71.2262 29.134C70.9555 29.2833 70.7315 29.498 70.5542 29.778C70.3862 30.0487 70.2835 30.3707 70.2462 30.744ZM76.6951 31.332C76.6951 30.6227 76.8351 29.9833 77.1151 29.414C77.3951 28.8353 77.7824 28.378 78.2771 28.042C78.7717 27.706 79.3364 27.538 79.9711 27.538C80.5124 27.538 80.9977 27.6733 81.4271 27.944C81.8657 28.2053 82.2064 28.5413 82.4491 28.952V24.78H84.3251V32.9C84.3251 33.096 84.3577 33.236 84.4231 33.32C84.4884 33.404 84.6004 33.4553 84.7591 33.474V35C84.4324 35.0653 84.1664 35.098 83.9611 35.098C83.6251 35.098 83.3451 35.014 83.1211 34.846C82.9064 34.678 82.7851 34.4587 82.7571 34.188L82.7291 33.726C82.4584 34.1833 82.0897 34.5333 81.6231 34.776C81.1657 35.0187 80.6851 35.14 80.1811 35.14C79.6771 35.14 79.2104 35.042 78.7811 34.846C78.3611 34.65 77.9924 34.3793 77.6751 34.034C77.3671 33.6887 77.1244 33.2873 76.9471 32.83C76.7791 32.3633 76.6951 31.864 76.6951 31.332ZM82.4491 32.312V30.562C82.3557 30.2913 82.2064 30.0487 82.0011 29.834C81.7957 29.6193 81.5671 29.4513 81.3151 29.33C81.0631 29.1993 80.8111 29.134 80.5591 29.134C80.2697 29.134 80.0084 29.1947 79.7751 29.316C79.5417 29.4373 79.3364 29.6007 79.1591 29.806C78.9911 30.0113 78.8604 30.2493 78.7671 30.52C78.6831 30.7907 78.6411 31.0753 78.6411 31.374C78.6411 31.6727 78.6877 31.9573 78.7811 32.228C78.8837 32.4893 79.0284 32.718 79.2151 32.914C79.4017 33.11 79.6164 33.264 79.8591 33.376C80.1111 33.488 80.3817 33.544 80.6711 33.544C80.8484 33.544 81.0257 33.516 81.2031 33.46C81.3897 33.3947 81.5624 33.3107 81.7211 33.208C81.8891 33.096 82.0337 32.9653 82.1551 32.816C82.2857 32.6573 82.3837 32.4893 82.4491 32.312Z" fill="black"/>
<path d="M99.648 47.4503C92.1591 44.7498 92.1591 34.1588 99.648 31.4583L111.999 27.0044C115.662 25.6837 118.147 22.2622 118.272 18.371L118.691 5.24794C118.945 -2.70885 129.018 -5.98167 133.9 0.306123L141.953 10.6765C144.341 13.7515 148.363 15.0584 152.102 13.9742L164.712 10.3176C172.358 8.1005 178.583 16.6688 174.112 23.2554L166.738 34.1185C164.551 37.3396 164.551 41.5689 166.738 44.79L174.112 55.6532C178.583 62.2397 172.358 70.8081 164.712 68.591L152.102 64.9344C148.363 63.8501 144.341 65.157 141.953 68.2321L133.9 78.6024C129.018 84.8902 118.945 81.6174 118.691 73.6606L118.272 60.5376C118.147 56.6464 115.662 53.2248 111.999 51.9042L99.648 47.4503Z" fill="black" stroke="black"/>
<path d="M96.7543 47.0089C89.2655 44.3084 89.2655 33.7174 96.7543 31.0169L109.105 26.563C112.768 25.2423 115.254 21.8208 115.378 17.9296L115.797 4.80654C116.051 -3.15026 126.124 -6.42308 131.007 -0.135283L139.059 10.2351C141.447 13.3101 145.469 14.617 149.208 13.5328L161.819 9.87617C169.465 7.6591 175.69 16.2274 171.219 22.814L163.844 33.6771C161.657 36.8982 161.657 41.1275 163.844 44.3486L171.219 55.2118C175.69 61.7983 169.465 70.3667 161.819 68.1496L149.208 64.493C145.469 63.4087 141.447 64.7156 139.059 67.7907L131.007 78.161C126.124 84.4488 116.051 81.176 115.797 73.2192L115.378 60.0962C115.254 56.205 112.768 52.7834 109.106 51.4628L96.7543 47.0089Z" fill="#231F20" stroke="#7FFF52"/>
</g>
<rect x="0.5" y="0.5" width="171" height="77" rx="9.5" stroke="black"/>
<defs>
<clipPath id="clip0_353_44">
<rect width="172" height="78" rx="10" fill="white"/>
</clipPath>
</defs>
</svg>
