<svg width="172" height="78" viewBox="0 0 172 78" fill="none" xmlns="http://www.w3.org/2000/svg">
<g clip-path="url(#clip0_128_424)">
<rect width="172" height="78" rx="10" fill="#EBEBEB"/>
<path d="M9.968 12.616V19H8.036V9.06H9.576L14.714 15.612V9.074H16.646V19H15.036L9.968 12.616ZM21.8107 19.14C21.2227 19.14 20.6907 19.042 20.2147 18.846C19.7387 18.6407 19.3327 18.3653 18.9967 18.02C18.6607 17.6653 18.3994 17.264 18.2127 16.816C18.0354 16.3587 17.9467 15.878 17.9467 15.374C17.9467 14.674 18.1007 14.0347 18.4087 13.456C18.726 12.8773 19.174 12.4153 19.7527 12.07C20.3407 11.7153 21.0314 11.538 21.8247 11.538C22.6274 11.538 23.3134 11.7153 23.8827 12.07C24.452 12.4153 24.886 12.8773 25.1847 13.456C25.4927 14.0253 25.6467 14.6413 25.6467 15.304C25.6467 15.416 25.642 15.5327 25.6327 15.654C25.6234 15.766 25.614 15.8593 25.6047 15.934H19.9347C19.972 16.3073 20.0794 16.634 20.2567 16.914C20.4434 17.194 20.6767 17.4087 20.9567 17.558C21.246 17.698 21.554 17.768 21.8807 17.768C22.254 17.768 22.604 17.6793 22.9307 17.502C23.2667 17.3153 23.4954 17.0727 23.6167 16.774L25.2267 17.222C25.0494 17.5953 24.7927 17.9267 24.4567 18.216C24.13 18.5053 23.7427 18.734 23.2947 18.902C22.8467 19.0607 22.352 19.14 21.8107 19.14ZM19.8927 14.744H23.7287C23.6914 14.3707 23.584 14.0487 23.4067 13.778C23.2387 13.498 23.0147 13.2833 22.7347 13.134C22.4547 12.9753 22.142 12.896 21.7967 12.896C21.4607 12.896 21.1527 12.9753 20.8727 13.134C20.602 13.2833 20.378 13.498 20.2007 13.778C20.0327 14.0487 19.93 14.3707 19.8927 14.744ZM35.6845 11.664H37.4625L34.3965 19H32.8285L31.5965 15.85L30.3925 19H28.8105L25.7585 11.664H27.5225L29.7065 17.208L30.5605 14.814L29.2865 11.678H30.8405L31.5965 13.918L32.3665 11.678H33.9205L32.6465 14.814L33.5145 17.208L35.6845 11.664ZM38.3146 8.78H40.1906V16.648C40.1906 16.984 40.2466 17.2127 40.3586 17.334C40.4706 17.446 40.6246 17.502 40.8206 17.502C40.9699 17.502 41.1239 17.4833 41.2826 17.446C41.4413 17.4087 41.5813 17.362 41.7026 17.306L41.9546 18.734C41.7026 18.8553 41.4086 18.9487 41.0726 19.014C40.7366 19.0793 40.4333 19.112 40.1626 19.112C39.5746 19.112 39.1173 18.958 38.7906 18.65C38.4733 18.3327 38.3146 17.8847 38.3146 17.306V8.78ZM42.5705 20.428C42.7385 20.4653 42.8925 20.498 43.0325 20.526C43.1818 20.554 43.3078 20.568 43.4105 20.568C43.5878 20.568 43.7325 20.5213 43.8445 20.428C43.9658 20.344 44.0825 20.1853 44.1945 19.952C44.3065 19.728 44.4232 19.4107 44.5445 19L41.6465 11.664H43.5925L45.5665 17.082L47.3025 11.664H49.0945L46.0145 20.456C45.9025 20.7827 45.7298 21.0767 45.4965 21.338C45.2725 21.6087 44.9878 21.8187 44.6425 21.968C44.3065 22.1267 43.9285 22.206 43.5085 22.206C43.3592 22.206 43.2098 22.192 43.0605 22.164C42.9112 22.1453 42.7478 22.108 42.5705 22.052V20.428ZM16.142 35V28.476L13.594 33.334H12.516L9.968 28.476V35H8.036V25.06H10.108L13.048 30.716L16.016 25.06H18.074V35H16.142ZM19.9673 35V27.664H21.8433V35H19.9673ZM19.9673 26.642V24.78H21.8433V26.642H19.9673ZM30.3536 35H28.4776V30.884C28.4776 30.296 28.375 29.8667 28.1696 29.596C27.9643 29.3253 27.6796 29.19 27.3156 29.19C27.0636 29.19 26.807 29.2553 26.5456 29.386C26.2936 29.5167 26.065 29.6987 25.8596 29.932C25.6543 30.156 25.505 30.4173 25.4116 30.716V35H23.5356V27.664H25.2296V29.022C25.4163 28.7047 25.6543 28.4387 25.9436 28.224C26.233 28 26.5643 27.832 26.9376 27.72C27.3203 27.5987 27.7216 27.538 28.1416 27.538C28.599 27.538 28.9723 27.622 29.2616 27.79C29.5603 27.9487 29.7843 28.168 29.9336 28.448C30.0923 28.7187 30.1996 29.0267 30.2556 29.372C30.321 29.7173 30.3536 30.0673 30.3536 30.422V35ZM36.3398 34.622C36.1812 34.6873 35.9898 34.762 35.7658 34.846C35.5418 34.93 35.2992 34.9953 35.0378 35.042C34.7858 35.098 34.5292 35.126 34.2678 35.126C33.9225 35.126 33.6052 35.0653 33.3158 34.944C33.0265 34.8227 32.7932 34.6313 32.6158 34.37C32.4478 34.0993 32.3638 33.7493 32.3638 33.32V29.106H31.3978V27.664H32.3638V25.284H34.2398V27.664H35.7798V29.106H34.2398V32.69C34.2492 32.942 34.3192 33.124 34.4498 33.236C34.5805 33.348 34.7438 33.404 34.9398 33.404C35.1358 33.404 35.3272 33.3713 35.5138 33.306C35.7005 33.2407 35.8498 33.1847 35.9618 33.138L36.3398 34.622ZM40.6369 35.14C40.0489 35.14 39.5169 35.042 39.0409 34.846C38.5649 34.6407 38.1589 34.3653 37.8229 34.02C37.4869 33.6653 37.2255 33.264 37.0389 32.816C36.8615 32.3587 36.7729 31.878 36.7729 31.374C36.7729 30.674 36.9269 30.0347 37.2349 29.456C37.5522 28.8773 38.0002 28.4153 38.5789 28.07C39.1669 27.7153 39.8575 27.538 40.6509 27.538C41.4535 27.538 42.1395 27.7153 42.7089 28.07C43.2782 28.4153 43.7122 28.8773 44.0109 29.456C44.3189 30.0253 44.4729 30.6413 44.4729 31.304C44.4729 31.416 44.4682 31.5327 44.4589 31.654C44.4495 31.766 44.4402 31.8593 44.4309 31.934H38.7609C38.7982 32.3073 38.9055 32.634 39.0829 32.914C39.2695 33.194 39.5029 33.4087 39.7829 33.558C40.0722 33.698 40.3802 33.768 40.7069 33.768C41.0802 33.768 41.4302 33.6793 41.7569 33.502C42.0929 33.3153 42.3215 33.0727 42.4429 32.774L44.0529 33.222C43.8755 33.5953 43.6189 33.9267 43.2829 34.216C42.9562 34.5053 42.5689 34.734 42.1209 34.902C41.6729 35.0607 41.1782 35.14 40.6369 35.14ZM38.7189 30.744H42.5549C42.5175 30.3707 42.4102 30.0487 42.2329 29.778C42.0649 29.498 41.8409 29.2833 41.5609 29.134C41.2809 28.9753 40.9682 28.896 40.6229 28.896C40.2869 28.896 39.9789 28.9753 39.6989 29.134C39.4282 29.2833 39.2042 29.498 39.0269 29.778C38.8589 30.0487 38.7562 30.3707 38.7189 30.744ZM45.1677 31.332C45.1677 30.6227 45.3077 29.9833 45.5877 29.414C45.8677 28.8353 46.2551 28.378 46.7497 28.042C47.2444 27.706 47.8091 27.538 48.4437 27.538C48.9851 27.538 49.4704 27.6733 49.8997 27.944C50.3384 28.2053 50.6791 28.5413 50.9217 28.952V24.78H52.7977V32.9C52.7977 33.096 52.8304 33.236 52.8957 33.32C52.9611 33.404 53.0731 33.4553 53.2317 33.474V35C52.9051 35.0653 52.6391 35.098 52.4337 35.098C52.0977 35.098 51.8177 35.014 51.5937 34.846C51.3791 34.678 51.2577 34.4587 51.2297 34.188L51.2017 33.726C50.9311 34.1833 50.5624 34.5333 50.0957 34.776C49.6384 35.0187 49.1577 35.14 48.6537 35.14C48.1497 35.14 47.6831 35.042 47.2537 34.846C46.8337 34.65 46.4651 34.3793 46.1477 34.034C45.8397 33.6887 45.5971 33.2873 45.4197 32.83C45.2517 32.3633 45.1677 31.864 45.1677 31.332ZM50.9217 32.312V30.562C50.8284 30.2913 50.6791 30.0487 50.4737 29.834C50.2684 29.6193 50.0397 29.4513 49.7877 29.33C49.5357 29.1993 49.2837 29.134 49.0317 29.134C48.7424 29.134 48.4811 29.1947 48.2477 29.316C48.0144 29.4373 47.8091 29.6007 47.6317 29.806C47.4637 30.0113 47.3331 30.2493 47.2397 30.52C47.1557 30.7907 47.1137 31.0753 47.1137 31.374C47.1137 31.6727 47.1604 31.9573 47.2537 32.228C47.3564 32.4893 47.5011 32.718 47.6877 32.914C47.8744 33.11 48.0891 33.264 48.3317 33.376C48.5837 33.488 48.8544 33.544 49.1437 33.544C49.3211 33.544 49.4984 33.516 49.6757 33.46C49.8624 33.3947 50.0351 33.3107 50.1937 33.208C50.3617 33.096 50.5064 32.9653 50.6277 32.816C50.7584 32.6573 50.8564 32.4893 50.9217 32.312Z" fill="black"/>
<path d="M99.648 47.4503C92.1591 44.7498 92.1591 34.1588 99.648 31.4583L111.999 27.0044C115.662 25.6837 118.147 22.2622 118.272 18.371L118.691 5.24794C118.945 -2.70885 129.018 -5.98167 133.9 0.306123L141.953 10.6765C144.341 13.7515 148.363 15.0584 152.102 13.9742L164.712 10.3176C172.358 8.1005 178.583 16.6688 174.112 23.2554L166.738 34.1185C164.551 37.3396 164.551 41.5689 166.738 44.79L174.112 55.6532C178.583 62.2397 172.358 70.8081 164.712 68.591L152.102 64.9344C148.363 63.8501 144.341 65.157 141.953 68.2321L133.9 78.6024C129.018 84.8902 118.945 81.6174 118.691 73.6606L118.272 60.5376C118.147 56.6464 115.662 53.2248 111.999 51.9042L99.648 47.4503Z" fill="black" stroke="black"/>
<path d="M96.7543 47.0089C89.2655 44.3084 89.2655 33.7174 96.7543 31.0169L109.105 26.563C112.768 25.2423 115.254 21.8208 115.378 17.9296L115.797 4.80654C116.051 -3.15026 126.124 -6.42308 131.007 -0.135283L139.059 10.2351C141.447 13.3101 145.469 14.617 149.208 13.5328L161.819 9.87617C169.465 7.6591 175.69 16.2274 171.219 22.814L163.844 33.6771C161.657 36.8982 161.657 41.1275 163.844 44.3486L171.219 55.2118C175.69 61.7983 169.465 70.3667 161.819 68.1496L149.208 64.493C145.469 63.4087 141.447 64.7156 139.059 67.7907L131.007 78.161C126.124 84.4488 116.051 81.176 115.797 73.2192L115.378 60.0962C115.254 56.205 112.768 52.7834 109.106 51.4628L96.7543 47.0089Z" fill="#7FFF52" stroke="black"/>
</g>
<rect x="0.5" y="0.5" width="171" height="77" rx="9.5" stroke="black"/>
<defs>
<clipPath id="clip0_128_424">
<rect width="172" height="78" rx="10" fill="white"/>
</clipPath>
</defs>
</svg>
