<svg width="159" height="61" viewBox="0 0 159 61" fill="none" xmlns="http://www.w3.org/2000/svg">
<rect width="64" height="61" rx="18" fill="#060608"/>
<path d="M58 40.0002C58.001 40.5 57.903 40.9951 57.7116 41.457C57.5202 41.9189 57.2392 42.3384 56.8848 42.6913L52.591 46.9794C51.8761 47.6931 50.9065 48.094 49.8957 48.0939C48.8848 48.0937 47.9153 47.6926 47.2006 46.9786C46.4859 46.2647 46.0845 45.2964 46.0846 44.2869C46.0848 43.2774 46.4865 42.3093 47.2014 41.5955L48.1379 40.6603C48.3802 40.4255 48.5208 40.1053 48.5294 39.7682C48.5299 39.5417 48.4854 39.3173 48.3985 39.108C48.3116 38.8987 48.1841 38.7087 48.0232 38.549C47.9934 38.5193 47.9622 38.4895 47.9309 38.4628C47.6262 38.2114 47.2379 38.0837 46.8433 38.1049C46.4486 38.1261 46.0764 38.2947 45.8004 38.5773L30.3998 53.9437C29.68 54.6316 28.7192 55.0106 27.723 54.9998C26.7268 54.9889 25.7745 54.5889 25.0699 53.8855C24.3654 53.1821 23.9646 52.2312 23.9534 51.2363C23.9423 50.2415 24.3216 49.2818 25.0102 48.5628L28.6936 44.8844C28.8017 44.7764 28.8875 44.6482 28.946 44.5072C29.0045 44.3661 29.0346 44.2149 29.0345 44.0622C29.0346 43.8355 28.9899 43.611 28.903 43.4016C28.8162 43.1921 28.6888 43.0018 28.5283 42.8415C28.5015 42.8147 28.4762 42.7909 28.4479 42.7672C28.147 42.5066 27.7581 42.3699 27.3601 42.3848C26.9621 42.3997 26.5846 42.5651 26.304 42.8474L22.7918 46.3549C22.4378 46.7083 22.0176 46.9886 21.5552 47.1798C21.0927 47.3711 20.597 47.4695 20.0965 47.4694C19.596 47.4693 19.1003 47.3708 18.6379 47.1794C18.1755 46.9881 17.7554 46.7077 17.4015 46.3541C17.0476 46.0006 16.7669 45.581 16.5754 45.1191C16.3839 44.6573 16.2854 44.1623 16.2855 43.6624C16.2855 43.1626 16.3842 42.6676 16.5758 42.2058C16.7674 41.744 17.0482 41.3245 17.4022 40.9711L30.172 28.2185C30.4128 27.9784 30.5483 27.6527 30.5487 27.313C30.5487 26.9834 30.4542 26.6606 30.2764 26.3829C30.0986 26.1052 29.8449 25.8841 29.5452 25.7459C29.2681 25.6255 28.9609 25.5922 28.6644 25.6503C28.3679 25.7085 28.0961 25.8554 27.8852 26.0715L15.1839 38.7497C14.8319 39.1117 14.4114 39.4001 13.9467 39.5983C13.4821 39.7964 12.9827 39.9004 12.4775 39.9041C11.9723 39.9078 11.4714 39.8111 11.004 39.6198C10.5365 39.4284 10.1118 39.1461 9.75457 38.7893C9.39733 38.4326 9.11468 38.0085 8.92305 37.5416C8.73142 37.0748 8.63464 36.5746 8.63833 36.0701C8.64202 35.5656 8.74611 35.0668 8.94456 34.6028C9.143 34.1388 9.43183 33.7189 9.79425 33.3674L15.8657 27.3011C16.069 27.1019 16.1888 26.8329 16.2007 26.5487C16.2098 26.3062 16.1671 26.0644 16.0757 25.8395C15.9882 25.6264 15.8591 25.4329 15.696 25.2701C15.552 25.1164 15.3687 25.0049 15.166 24.9474C14.8417 24.8509 14.4972 24.8444 14.1696 24.9288C13.8419 25.0131 13.5435 25.1851 13.3064 25.4262L12.5456 26.186C12.1936 26.5479 11.7731 26.8363 11.3085 27.0345C10.8439 27.2327 10.3445 27.3366 9.83929 27.3403C9.33409 27.344 8.8332 27.2474 8.36574 27.056C7.89828 26.8646 7.47358 26.5823 7.11634 26.2256C6.7591 25.8688 6.47645 25.4447 6.28482 24.9779C6.09319 24.511 5.99641 24.0108 6.0001 23.5063C6.00379 23.0018 6.10789 22.503 6.30633 22.0391C6.50477 21.5751 6.7936 21.1551 7.15602 20.8036L17.0866 10.8849C17.4406 10.5314 17.8608 10.251 18.3233 10.0597C18.7858 9.86838 19.2815 9.76991 19.7821 9.76991C20.2827 9.76991 20.7785 9.86838 21.241 10.0597C21.7035 10.251 22.1237 10.5314 22.4777 10.8849C22.8317 11.2384 23.1125 11.6581 23.304 12.12C23.4956 12.5819 23.5942 13.0769 23.5942 13.5769C23.5942 14.0768 23.4956 14.5718 23.304 15.0337C23.1125 15.4956 22.8317 15.9153 22.4777 16.2688L16.4613 22.283C16.2388 22.5025 16.1093 22.799 16.0995 23.1112V23.1469C16.0994 23.3768 16.1454 23.6044 16.2347 23.8163C16.324 24.0282 16.4548 24.2202 16.6195 24.3809C16.7841 24.5415 16.9793 24.6677 17.1935 24.752C17.4077 24.8363 17.6366 24.877 17.8667 24.8716C18.169 24.8592 18.4549 24.7309 18.6648 24.5133L36.0395 7.15446C36.3915 6.79253 36.812 6.50409 37.2766 6.30592C37.7413 6.10774 38.2407 6.00379 38.7459 6.0001C39.2511 5.99641 39.752 6.09307 40.2194 6.28444C40.6869 6.47581 41.1116 6.75808 41.4688 7.11484C41.8261 7.4716 42.1087 7.89572 42.3003 8.36255C42.492 8.82938 42.5888 9.3296 42.5851 9.83412C42.5814 10.3386 42.4773 10.8374 42.2788 11.3014C42.0804 11.7654 41.7916 12.1853 41.4291 12.5368L30.7542 23.1959C30.5524 23.3975 30.4389 23.6707 30.4385 23.9557C30.4382 24.1825 30.4827 24.407 30.5696 24.6165C30.6565 24.826 30.784 25.0163 30.9447 25.1764C30.976 25.2076 31.0087 25.2388 31.043 25.2671C31.3578 25.5243 31.7578 25.6541 32.1639 25.631C32.5699 25.6079 32.9525 25.4334 33.2361 25.1422L36.0887 22.2934C36.8044 21.5803 37.7744 21.1803 38.7855 21.1814C39.7965 21.1825 40.7657 21.5846 41.4798 22.2994C42.1939 23.0141 42.5944 23.9829 42.5933 24.9925C42.5922 26.0022 42.1895 26.9701 41.4738 27.6832L29.2653 39.8753C29.044 40.0973 28.9193 40.3976 28.9184 40.7109C28.9181 40.9376 28.9627 41.1621 29.0496 41.3716C29.1365 41.5811 29.2639 41.7714 29.4246 41.9316C29.4559 41.9628 29.4872 41.991 29.5199 42.0193C29.8288 42.2724 30.2216 42.4005 30.6206 42.3782C31.0195 42.3559 31.3956 42.1848 31.6743 41.8988L51.2555 22.3499C51.9704 21.6362 52.9399 21.2353 53.9508 21.2354C54.9617 21.2356 55.9311 21.6367 56.6458 22.3507C57.3606 23.0646 57.762 24.0328 57.7619 25.0424C57.7617 26.0519 57.36 27.02 56.6451 27.7338L48.7542 35.6214C48.5449 35.8304 48.4271 36.1138 48.4267 36.4094C48.4264 36.6362 48.4709 36.8608 48.5578 37.0703C48.6446 37.2797 48.7721 37.47 48.9329 37.6301C48.9642 37.6614 48.9969 37.6911 49.0297 37.7193C49.3416 37.975 49.7382 38.1044 50.1411 38.0818C50.5439 38.0592 50.9236 37.8864 51.2049 37.5974L51.4386 37.364C52.92 35.8846 55.3379 35.8028 56.8446 37.2569C57.2125 37.6127 57.5045 38.0392 57.7031 38.5106C57.9016 38.982 58.0026 39.4887 58 40.0002Z" fill="#A157FF" stroke="#A157FF" stroke-miterlimit="10"/>
<path d="M49.7858 18.0069C52.0527 18.0069 53.8904 16.1506 53.8904 13.8607C53.8904 11.5709 52.0527 9.7146 49.7858 9.7146C47.5189 9.7146 45.6812 11.5709 45.6812 13.8607C45.6812 16.1506 47.5189 18.0069 49.7858 18.0069Z" fill="#A157FF" stroke="#A157FF" stroke-miterlimit="10"/>
<g clip-path="url(#clip0_48_946)">
<path d="M82.4925 36.9702C81.1678 36.9881 79.8567 36.6978 78.6592 36.1215C77.5036 35.5616 76.478 34.7584 75.6506 33.765C74.7993 32.7545 74.1342 31.5959 73.6873 30.3451C73.2308 29.0648 72.9982 27.7131 73.0002 26.3511C72.9927 24.9334 73.2251 23.5249 73.6873 22.1874C74.1222 20.9189 74.7882 19.7451 75.6506 18.7276C76.4846 17.742 77.5065 16.9387 78.6543 16.3661C79.8646 15.7796 81.1913 15.4841 82.5317 15.5024C84.109 15.4653 85.6616 15.9049 86.9932 16.7655C87.543 17.1298 88.0603 17.5425 88.5393 17.9987C88.678 18.1314 88.8517 18.2202 89.0392 18.2543C89.2267 18.2883 89.4199 18.2661 89.5952 18.1905C89.7705 18.1148 89.9204 17.9889 90.0266 17.8281C90.1328 17.6672 90.1907 17.4785 90.1933 17.2847V15.8219H93.2609V36.3811C93.3201 38.1525 92.8327 39.8983 91.867 41.3736C90.9182 42.7418 89.6103 43.8109 88.0926 44.459C86.4286 45.1731 84.637 45.5284 82.8311 45.5024C80.5407 45.5024 78.6527 45.0897 77.1672 44.2643C75.7066 43.4489 74.4529 42.2985 73.5057 40.9043L75.5131 39.102C76.2893 40.3018 77.3787 41.2578 78.6592 41.8629C79.9656 42.4803 81.3907 42.7941 82.8311 42.7815C84.0093 42.7897 85.1773 42.5589 86.2668 42.1025C87.2986 41.6738 88.1867 40.9508 88.8239 40.0206C89.499 38.9872 89.842 37.7661 89.8056 36.5259V32.8264C89.0465 34.1036 87.9675 35.1529 86.6791 35.8669C85.3997 36.5939 83.958 36.9739 82.4925 36.9702ZM83.6606 34.0895C84.385 34.0819 85.1019 33.9398 85.776 33.6702C86.4185 33.4098 87.0242 33.064 87.5773 32.6417C88.1412 32.2228 88.6379 31.7175 89.0497 31.1439C89.5539 30.4238 89.825 29.5617 89.8252 28.6776V24.5139C89.8355 23.6719 89.6145 22.8437 89.1871 22.1225C88.9125 21.6762 88.5917 21.2611 88.2301 20.8843C87.5721 20.1661 86.7859 19.5816 85.9134 19.1619C85.0783 18.7553 84.1644 18.5438 83.2385 18.5429C82.2602 18.528 81.2936 18.7614 80.4262 19.2218C79.6072 19.6714 78.8912 20.2924 78.3255 21.0441C77.1593 22.5883 76.5231 24.4788 76.5144 26.426C76.5099 27.4315 76.6965 28.4283 77.0641 29.3616C77.4203 30.2635 77.9267 31.0961 78.5611 31.8229C79.1975 32.5567 79.9833 33.1409 80.8638 33.5349C81.7444 33.9289 82.6988 34.1233 83.6606 34.1045V34.0895Z" fill="#A157FF"/>
<path d="M97.2415 30.5848C97.2152 29.3415 97.6104 28.1269 98.3605 27.1449C99.1728 26.1279 100.239 25.3519 101.448 24.8983C102.906 24.3424 104.455 24.0731 106.012 24.1045C106.985 24.1094 107.955 24.1828 108.918 24.3241C109.409 24.3891 109.841 24.4739 110.263 24.5738C110.425 24.6126 110.593 24.614 110.756 24.5779C110.918 24.5418 111.071 24.4691 111.202 24.3652C111.333 24.2613 111.44 24.1288 111.515 23.9774C111.589 23.826 111.629 23.6596 111.632 23.4904C111.671 22.8 111.564 22.1093 111.321 21.4637C111.077 20.8182 110.701 20.2327 110.219 19.746C109.276 18.8374 107.938 18.3831 106.204 18.3831C105.092 18.376 103.989 18.5844 102.955 18.9971C101.801 19.4752 100.699 20.0725 99.6661 20.7795L98.4096 18.2832C99.6478 17.4016 100.999 16.6961 102.424 16.1864C103.769 15.7218 105.181 15.4906 106.601 15.5024C109.222 15.5024 111.298 16.2363 112.815 17.7041C114.332 19.1719 115.092 21.1988 115.092 23.8299V32.5967C115.067 32.9272 115.157 33.2562 115.347 33.5253C115.459 33.6359 115.591 33.7229 115.736 33.7811C115.881 33.8394 116.036 33.8679 116.192 33.8648V36.5858L115.308 36.7056C115.063 36.7305 114.862 36.7455 114.705 36.7455C114.369 36.7717 114.033 36.7247 113.717 36.6076C113.401 36.4905 113.114 36.306 112.874 36.0665C112.496 35.6745 112.253 35.1682 112.182 34.6237L112.108 33.3057C111.185 34.4993 109.979 35.4354 108.604 36.0266C107.255 36.6398 105.796 36.9612 104.319 36.9702C103.05 36.9925 101.795 36.6994 100.662 36.1165C99.6369 35.5952 98.7675 34.8039 98.1446 33.8249C97.5415 32.8565 97.2278 31.731 97.2415 30.5848ZM110.611 32.0476C110.907 31.7059 111.158 31.3266 111.357 30.9193C111.517 30.6188 111.611 30.2866 111.632 29.9457V29.756C111.632 29.0194 111.38 28.3057 110.919 27.738C110.457 27.1702 109.816 26.7839 109.104 26.6457H109.075C108.208 26.4763 107.327 26.3894 106.444 26.3861C104.952 26.3195 103.471 26.6848 102.174 27.4395C101.674 27.7248 101.259 28.142 100.972 28.6472C100.685 29.1524 100.537 29.7269 100.545 30.3102C100.55 30.9875 100.733 31.6511 101.075 32.2323C101.456 32.8662 101.999 33.3837 102.645 33.73C103.44 34.1488 104.327 34.3534 105.222 34.3242C106.28 34.3267 107.326 34.1039 108.295 33.6701C109.172 33.3033 109.961 32.7501 110.611 32.0476Z" fill="#A157FF"/>
<path d="M119.024 34.3041L129.969 20.8243C130.148 20.6051 130.262 20.3383 130.298 20.0553C130.333 19.7723 130.289 19.4849 130.169 19.2269C130.049 18.9689 129.86 18.751 129.623 18.5988C129.385 18.4466 129.11 18.3665 128.83 18.368H119.377V15.8218H135.839V18.1034L124.957 31.5831C124.779 31.8024 124.667 32.0687 124.632 32.3509C124.597 32.6331 124.642 32.9195 124.762 33.1766C124.881 33.4337 125.07 33.6509 125.306 33.8028C125.543 33.9547 125.817 34.0351 126.096 34.0345H135.873V36.5956H119.024V34.3041Z" fill="#A157FF"/>
<path d="M148.718 36.9702C147.264 36.9895 145.823 36.6986 144.487 36.1165C143.245 35.5656 142.122 34.7697 141.184 33.775C140.256 32.7792 139.521 31.6137 139.019 30.3401C138.506 29.0265 138.246 27.6248 138.254 26.2113C138.232 24.3356 138.694 22.4869 139.593 20.8494C140.5 19.1972 141.831 17.8269 143.444 16.885C145.058 15.9432 146.892 15.4652 148.752 15.5024C150.656 15.4602 152.531 15.9805 154.151 17.0001C155.655 17.9593 156.888 19.2995 157.729 20.8893C158.578 22.4812 159.017 24.2656 159.005 26.0765C159.005 26.3411 159.005 26.5758 159.005 26.8504C158.997 27.0444 158.977 27.2378 158.946 27.4295H141.915C141.999 28.6969 142.383 29.925 143.034 31.0091C143.656 32.0248 144.516 32.8673 145.537 33.4604C146.541 34.0495 147.681 34.3562 148.84 34.3491C150.088 34.3516 151.315 34.0211 152.399 33.3905C152.765 33.1787 153.11 32.9312 153.429 32.6516C154.008 32.1493 154.7 31.8003 155.443 31.6356C156.186 31.471 156.958 31.4959 157.69 31.7081C157.228 32.7439 156.56 33.6705 155.726 34.429C154.815 35.2483 153.762 35.8867 152.62 36.3112C151.368 36.767 150.047 36.9902 148.718 36.9702ZM144.791 24.9881H154.98C155.083 24.9876 155.185 24.9641 155.278 24.9195C155.371 24.8749 155.453 24.8101 155.519 24.7298C155.585 24.6495 155.633 24.5554 155.659 24.4543C155.686 24.3532 155.69 24.2475 155.672 24.1444C155.512 23.1771 155.159 22.2531 154.637 21.4285C154.016 20.4193 153.157 19.5837 152.139 18.9971C151.102 18.4157 149.936 18.1165 148.752 18.1284C147.584 18.1192 146.434 18.4185 145.414 18.9971C144.392 19.5715 143.531 20.4014 142.911 21.4085V21.4435C142.692 21.7908 142.569 22.1918 142.554 22.6043C142.54 23.0168 142.635 23.4257 142.829 23.7881C143.023 24.1505 143.31 24.4532 143.658 24.6643C144.007 24.8754 144.405 24.9873 144.811 24.9881H144.791Z" fill="#A157FF"/>
</g>
<defs>
<clipPath id="clip0_48_946">
<rect width="86" height="30" fill="white" transform="translate(73 15.5)"/>
</clipPath>
</defs>
</svg>
