<svg width="34" height="35" viewBox="0 0 34 35" fill="none" xmlns="http://www.w3.org/2000/svg">
<g clip-path="url(#clip0_136_124)">
<path d="M3.75284 31.8726C3.22914 31.8791 2.71079 31.7727 2.23737 31.5614C1.78048 31.3561 1.37504 31.0616 1.04789 30.6973C0.711334 30.3268 0.4484 29.902 0.271728 29.4434C0.0912294 28.9739 -0.000712641 28.4783 6.92304e-05 27.9789C-0.00288943 27.4591 0.0890045 26.9426 0.271728 26.4522C0.443647 25.9871 0.706967 25.5567 1.04789 25.1836C1.37764 24.8222 1.78162 24.5277 2.23543 24.3177C2.71391 24.1027 3.2384 23.9943 3.76836 24.001C4.39192 23.9874 5.00575 24.1486 5.5322 24.4642C5.74956 24.5978 5.95408 24.7491 6.14343 24.9163C6.19828 24.965 6.26696 24.9976 6.34108 25.01C6.41521 25.0225 6.49158 25.0144 6.5609 24.9867C6.63021 24.9589 6.68948 24.9127 6.73146 24.8538C6.77344 24.7948 6.79634 24.7256 6.79735 24.6546V24.1182H8.01011V31.6566C8.03354 32.3061 7.84083 32.9462 7.45903 33.4871C7.08394 33.9888 6.56686 34.3808 5.96685 34.6184C5.30898 34.8803 4.60068 35.0106 3.88673 35.001C2.9812 35.001 2.23478 34.8497 1.64748 34.5471C1.07004 34.2481 0.574406 33.8263 0.199932 33.3151L0.993563 32.6542C1.30041 33.0941 1.73112 33.4447 2.23737 33.6665C2.75384 33.8929 3.31726 34.008 3.88673 34.0034C4.35253 34.0064 4.81429 33.9217 5.24502 33.7544C5.65295 33.5972 6.00403 33.3321 6.25598 32.9911C6.52287 32.6121 6.65847 32.1644 6.64406 31.7096V30.3532C6.34395 30.8215 5.9174 31.2062 5.40801 31.468C4.90222 31.7346 4.33222 31.8739 3.75284 31.8726ZM4.21466 30.8163C4.50103 30.8135 4.78445 30.7614 5.05098 30.6625C5.30498 30.5671 5.54444 30.4403 5.76311 30.2854C5.98604 30.1318 6.18241 29.9466 6.34523 29.7363C6.54456 29.4722 6.65173 29.1561 6.65182 28.832V27.3052C6.65589 26.9965 6.56853 26.6928 6.39957 26.4284C6.29099 26.2648 6.16414 26.1126 6.02119 25.9744C5.76106 25.7111 5.45025 25.4967 5.10531 25.3429C4.77515 25.1938 4.41382 25.1162 4.04778 25.1159C3.66099 25.1104 3.27887 25.196 2.93592 25.3648C2.61213 25.5297 2.32907 25.7574 2.10542 26.033C1.64439 26.5992 1.39287 27.2924 1.38941 28.0064C1.38762 28.375 1.46142 28.7405 1.60673 29.0827C1.74754 29.4134 1.94775 29.7187 2.19856 29.9852C2.45017 30.2543 2.76082 30.4685 3.10896 30.613C3.4571 30.7574 3.8344 30.8287 4.21466 30.8218V30.8163Z" fill="#A157FF"/>
<path d="M9.58374 29.5311C9.57337 29.0752 9.72959 28.6299 10.0262 28.2698C10.3473 27.8969 10.7689 27.6124 11.2467 27.4461C11.8233 27.2422 12.4356 27.1435 13.0513 27.155C13.4357 27.1568 13.8195 27.1837 14.2 27.2355C14.394 27.2593 14.5648 27.2905 14.7317 27.3271C14.7957 27.3413 14.8623 27.3418 14.9266 27.3286C14.9908 27.3153 15.0511 27.2887 15.1031 27.2506C15.155 27.2125 15.1972 27.1639 15.2266 27.1084C15.256 27.0529 15.2719 26.9919 15.273 26.9298C15.2883 26.6767 15.2463 26.4234 15.15 26.1867C15.0536 25.95 14.9051 25.7354 14.7142 25.5569C14.3416 25.2237 13.8126 25.0571 13.1269 25.0571C12.6875 25.0545 12.2515 25.131 11.8424 25.2823C11.3865 25.4576 10.9508 25.6766 10.5423 25.9358L10.0456 25.0205C10.5351 24.6973 11.0691 24.4386 11.6328 24.2517C12.1645 24.0814 12.7227 23.9966 13.2841 24.0009C14.3203 24.0009 15.1411 24.27 15.7407 24.8082C16.3403 25.3464 16.641 26.0896 16.641 27.0543V30.2688C16.631 30.39 16.6667 30.5106 16.7419 30.6093C16.7861 30.6499 16.8383 30.6817 16.8956 30.7031C16.9529 30.7245 17.0141 30.7349 17.0757 30.7338V31.7315L16.7264 31.7754C16.6294 31.7845 16.5498 31.79 16.4877 31.79C16.3553 31.7996 16.2221 31.7824 16.0973 31.7395C15.9725 31.6965 15.8588 31.6289 15.764 31.5411C15.6145 31.3973 15.5184 31.2117 15.4904 31.012L15.4613 30.5288C15.0962 30.9664 14.6196 31.3097 14.0758 31.5264C13.5427 31.7513 12.9658 31.8691 12.3818 31.8724C11.8801 31.8806 11.3839 31.7731 10.9362 31.5594C10.5308 31.3683 10.187 31.0781 9.94077 30.7191C9.70237 30.3641 9.57834 29.9514 9.58374 29.5311ZM14.8694 30.0675C14.9863 29.9422 15.0854 29.8031 15.1644 29.6537C15.2275 29.5436 15.2646 29.4218 15.273 29.2968V29.2272C15.2732 28.9571 15.1734 28.6954 14.991 28.4873C14.8086 28.2791 14.5549 28.1375 14.2737 28.0868H14.2621C13.9193 28.0247 13.5711 27.9928 13.222 27.9916C12.6319 27.9672 12.0466 28.1011 11.5339 28.3778C11.3361 28.4825 11.1719 28.6354 11.0585 28.8207C10.9452 29.0059 10.8868 29.2165 10.8896 29.4304C10.8917 29.6788 10.964 29.9221 11.0992 30.1352C11.25 30.3676 11.4645 30.5574 11.7201 30.6844C12.0344 30.8379 12.3851 30.9129 12.7389 30.9022C13.1571 30.9031 13.5708 30.8214 13.9536 30.6624C14.3003 30.5279 14.6126 30.3251 14.8694 30.0675Z" fill="#A157FF"/>
<path d="M18.1953 30.8949L22.5224 25.9523C22.5934 25.8719 22.6386 25.7741 22.6526 25.6703C22.6666 25.5666 22.649 25.4612 22.6017 25.3666C22.5544 25.272 22.4794 25.1921 22.3857 25.1363C22.2919 25.0805 22.1831 25.0511 22.0723 25.0516H18.335V24.118H24.8432V24.9546L20.5413 29.8972C20.4709 29.9776 20.4263 30.0753 20.4125 30.1787C20.3988 30.2822 20.4166 30.3872 20.4638 30.4815C20.5111 30.5757 20.5858 30.6554 20.6792 30.7111C20.7726 30.7668 20.8809 30.7963 20.9915 30.796H24.8568V31.7351H18.1953V30.8949Z" fill="#A157FF"/>
<path d="M29.9349 31.8724C29.3603 31.8795 28.7905 31.7728 28.2622 31.5594C27.7711 31.3574 27.3272 31.0656 26.9563 30.7008C26.5894 30.3357 26.2991 29.9084 26.1006 29.4414C25.8977 28.9597 25.7949 28.4458 25.7979 27.9275C25.7893 27.2397 25.972 26.5619 26.3276 25.9614C26.686 25.3556 27.2123 24.8532 27.8501 24.5078C28.4879 24.1625 29.2132 23.9873 29.9484 24.0009C30.7012 23.9854 31.4427 24.1762 32.0829 24.55C32.6774 24.9017 33.1649 25.3931 33.4975 25.9761C33.833 26.5598 34.0066 27.2141 34.002 27.8781C34.002 27.9751 34.002 28.0611 34.002 28.1618C33.9986 28.2329 33.9909 28.3039 33.9787 28.3741H27.2454C27.2787 28.8389 27.4305 29.2892 27.6879 29.6867C27.9336 30.0591 28.2737 30.368 28.6775 30.5855C29.0744 30.8015 29.5251 30.9139 29.9834 30.9113C30.4768 30.9123 30.9619 30.7911 31.3902 30.5599C31.535 30.4822 31.6714 30.3914 31.7977 30.2889C32.0264 30.1047 32.2999 29.9768 32.5938 29.9164C32.8876 29.856 33.1927 29.8652 33.482 29.943C33.2995 30.3228 33.0351 30.6625 32.7058 30.9406C32.3456 31.241 31.929 31.4751 31.4775 31.6308C30.9828 31.7979 30.4603 31.8797 29.9349 31.8724ZM28.3825 27.479H32.4108C32.4515 27.4788 32.4916 27.4702 32.5284 27.4538C32.5652 27.4375 32.5978 27.4137 32.6238 27.3843C32.6499 27.3548 32.6688 27.3203 32.6793 27.2833C32.6897 27.2462 32.6915 27.2074 32.6844 27.1696C32.6208 26.8149 32.4816 26.4761 32.275 26.1738C32.0295 25.8038 31.69 25.4973 31.2873 25.2823C30.8776 25.0691 30.4164 24.9594 29.9484 24.9638C29.4868 24.9604 29.0321 25.0701 28.629 25.2823C28.2248 25.4929 27.8842 25.7972 27.6394 26.1665V26.1793C27.5527 26.3066 27.5039 26.4537 27.4982 26.6049C27.4925 26.7562 27.53 26.9061 27.6067 27.039C27.6835 27.1719 27.7968 27.2828 27.9346 27.3602C28.0725 27.4377 28.2299 27.4787 28.3903 27.479H28.3825Z" fill="#A157FF"/>
</g>
<path d="M27.027 13.1837C27.0274 13.3776 26.9897 13.5695 26.9159 13.7486C26.8422 13.9277 26.734 14.0904 26.5975 14.2272L24.9438 15.89C24.6685 16.1667 24.2951 16.3222 23.9058 16.3221C23.5164 16.3221 23.1431 16.1665 22.8678 15.8897C22.5926 15.6128 22.4379 15.2374 22.438 14.8459C22.4381 14.4545 22.5928 14.0791 22.8681 13.8023L23.2288 13.4397C23.3221 13.3487 23.3762 13.2245 23.3796 13.0938C23.3798 13.006 23.3626 12.9189 23.3292 12.8378C23.2957 12.7567 23.2466 12.683 23.1846 12.621C23.1732 12.6095 23.1611 12.598 23.1491 12.5876C23.0317 12.4902 22.8822 12.4406 22.7302 12.4488C22.5782 12.4571 22.4348 12.5224 22.3285 12.632L16.3972 18.5904C16.12 18.8571 15.75 19.0041 15.3663 18.9999C14.9826 18.9957 14.6158 18.8406 14.3445 18.5679C14.0732 18.2951 13.9188 17.9264 13.9145 17.5406C13.9102 17.1549 14.0563 16.7828 14.3215 16.504L15.7401 15.0776C15.7817 15.0358 15.8148 14.9861 15.8373 14.9314C15.8598 14.8766 15.8714 14.818 15.8714 14.7588C15.8714 14.6709 15.8542 14.5839 15.8208 14.5026C15.7873 14.4214 15.7383 14.3476 15.6765 14.2855C15.6661 14.2751 15.6564 14.2659 15.6455 14.2567C15.5296 14.1556 15.3798 14.1026 15.2265 14.1084C15.0732 14.1142 14.9278 14.1783 14.8198 14.2878L13.4671 15.6478C13.3308 15.7849 13.169 15.8935 12.9908 15.9677C12.8127 16.0418 12.6218 16.08 12.4291 16.08C12.2363 16.0799 12.0454 16.0417 11.8673 15.9675C11.6892 15.8933 11.5274 15.7846 11.3911 15.6475C11.2548 15.5105 11.1467 15.3477 11.073 15.1686C10.9992 14.9896 10.9613 14.7976 10.9613 14.6038C10.9613 14.41 10.9993 14.2181 11.0731 14.039C11.1469 13.8599 11.2551 13.6972 11.3914 13.5602L16.3095 8.61532C16.4022 8.52225 16.4544 8.39596 16.4546 8.26422C16.4546 8.1364 16.4182 8.01125 16.3497 7.90357C16.2812 7.79589 16.1835 7.71017 16.0681 7.65656C15.9614 7.60988 15.843 7.59696 15.7288 7.61951C15.6146 7.64206 15.51 7.69902 15.4287 7.78282L10.537 12.6989C10.4015 12.8392 10.2395 12.9511 10.0606 13.0279C9.88163 13.1047 9.68929 13.1451 9.49472 13.1465C9.30015 13.1479 9.10724 13.1104 8.9272 13.0362C8.74717 12.962 8.5836 12.8526 8.44602 12.7142C8.30843 12.5759 8.19957 12.4114 8.12577 12.2304C8.05197 12.0494 8.01469 11.8555 8.01611 11.6598C8.01753 11.4642 8.05762 11.2708 8.13405 11.0909C8.21048 10.911 8.32172 10.7481 8.4613 10.6118L10.7996 8.25961C10.8779 8.18237 10.9241 8.07807 10.9287 7.96788C10.9321 7.87382 10.9157 7.78009 10.8805 7.69288C10.8468 7.61026 10.7971 7.5352 10.7343 7.47207C10.6788 7.41249 10.6082 7.36924 10.5301 7.34696C10.4053 7.30952 10.2726 7.30702 10.1464 7.33973C10.0202 7.37244 9.90527 7.43912 9.81396 7.5326L9.52095 7.82721C9.38539 7.96755 9.22343 8.0794 9.0445 8.15624C8.86556 8.23308 8.67321 8.27339 8.47864 8.27482C8.28407 8.27625 8.09116 8.23877 7.91113 8.16457C7.73109 8.09036 7.56753 7.98091 7.42994 7.84257C7.29236 7.70424 7.1835 7.53978 7.10969 7.35877C7.03589 7.17775 6.99862 6.98379 7.00004 6.78816C7.00146 6.59253 7.04155 6.39914 7.11798 6.21923C7.1944 6.03932 7.30564 5.87648 7.44522 5.74018L11.2698 1.89416C11.4062 1.75708 11.568 1.64835 11.7461 1.57417C11.9243 1.49998 12.1152 1.4618 12.308 1.4618C12.5008 1.4618 12.6917 1.49998 12.8698 1.57417C13.048 1.64835 13.2098 1.75708 13.3461 1.89416C13.4825 2.03123 13.5906 2.19396 13.6644 2.37306C13.7382 2.55216 13.7762 2.74411 13.7762 2.93796C13.7762 3.13182 13.7382 3.32377 13.6644 3.50287C13.5906 3.68196 13.4825 3.84469 13.3461 3.98177L11.029 6.31382C10.9433 6.39894 10.8934 6.5139 10.8897 6.63495V6.64879C10.8896 6.73794 10.9073 6.82619 10.9417 6.90836C10.9761 6.99053 11.0265 7.06496 11.0899 7.12727C11.1533 7.18958 11.2285 7.23851 11.311 7.27119C11.3935 7.30387 11.4817 7.31963 11.5703 7.31756C11.6867 7.31277 11.7968 7.263 11.8776 7.17862L18.5693 0.44765C18.7048 0.307308 18.8668 0.195464 19.0457 0.118621C19.2247 0.0417775 19.417 0.00146914 19.6116 3.94171e-05C19.8062 -0.00139031 19.9991 0.0360871 20.1791 0.110292C20.3591 0.184498 20.5227 0.29395 20.6603 0.432285C20.7979 0.570619 20.9067 0.735076 20.9805 0.916091C21.0543 1.09711 21.0916 1.29107 21.0902 1.4867C21.0888 1.68233 21.0487 1.87572 20.9723 2.05563C20.8958 2.23554 20.7846 2.39838 20.645 2.53468L16.5337 6.66781C16.456 6.74596 16.4123 6.85191 16.4121 6.96242C16.412 7.05034 16.4292 7.13742 16.4626 7.21865C16.4961 7.29988 16.5452 7.37366 16.6071 7.43575C16.6191 7.44785 16.6317 7.45996 16.6449 7.47092C16.7662 7.57063 16.9202 7.62098 17.0766 7.61201C17.233 7.60305 17.3804 7.53542 17.4896 7.42249L18.5882 6.31786C18.8638 6.04133 19.2374 5.88622 19.6268 5.88665C20.0162 5.88709 20.3895 6.04303 20.6645 6.32017C20.9395 6.59731 21.0938 6.97294 21.0934 7.36445C21.0929 7.75595 20.9378 8.13125 20.6622 8.40777L15.9603 13.1353C15.8751 13.2214 15.827 13.3378 15.8267 13.4593C15.8266 13.5472 15.8438 13.6343 15.8772 13.7155C15.9107 13.7968 15.9598 13.8705 16.0216 13.9326C16.0337 13.9447 16.0457 13.9557 16.0583 13.9667C16.1773 14.0648 16.3286 14.1145 16.4822 14.1058C16.6359 14.0972 16.7807 14.0309 16.8881 13.92L24.4295 6.33977C24.7048 6.06301 25.0782 5.90756 25.4675 5.90761C25.8569 5.90767 26.2302 6.06322 26.5055 6.34006C26.7808 6.61689 26.9354 6.99233 26.9353 7.38378C26.9353 7.77522 26.7805 8.15062 26.5052 8.42738L23.4662 11.4859C23.3855 11.5669 23.3402 11.6768 23.34 11.7914C23.3399 11.8793 23.357 11.9664 23.3905 12.0477C23.424 12.1289 23.4731 12.2027 23.535 12.2647C23.547 12.2769 23.5596 12.2884 23.5722 12.2993C23.6924 12.3985 23.8451 12.4486 24.0003 12.4399C24.1554 12.4311 24.3017 12.3641 24.41 12.2521L24.5 12.1615C25.0705 11.5879 26.0018 11.5562 26.582 12.12C26.7237 12.258 26.8362 12.4234 26.9127 12.6062C26.9891 12.789 27.028 12.9854 27.027 13.1837Z" fill="#A157FF"/>
<path d="M23.5405 5C24.3914 5 25.0811 4.32843 25.0811 3.5C25.0811 2.67157 24.3914 2 23.5405 2C22.6897 2 22 2.67157 22 3.5C22 4.32843 22.6897 5 23.5405 5Z" fill="#A157FF"/>
<defs>
<clipPath id="clip0_136_124">
<rect width="34" height="11" fill="white" transform="translate(0 24)"/>
</clipPath>
</defs>
</svg>
