<svg width="25" height="25" viewBox="0 0 25 25" fill="none" xmlns="http://www.w3.org/2000/svg">
<g clip-path="url(#clip0_136_101)">
<path d="M4.69732e-06 3.90625C4.69732e-06 3.28465 0.246935 2.68851 0.686473 2.24897C1.12601 1.80943 1.72215 1.5625 2.34375 1.5625H19.5313C20.1529 1.5625 20.749 1.80943 21.1885 2.24897C21.6281 2.68851 21.875 3.28465 21.875 3.90625V20.3563C21.875 20.825 21.7969 21.3781 21.5031 21.875H22.6563C22.8635 21.875 23.0622 21.7927 23.2087 21.6462C23.3552 21.4997 23.4375 21.301 23.4375 21.0938V7.03125C23.4375 6.82405 23.5198 6.62534 23.6663 6.47882C23.8128 6.33231 24.0116 6.25 24.2188 6.25C24.426 6.25 24.6247 6.33231 24.7712 6.47882C24.9177 6.62534 25 6.82405 25 7.03125V21.0938C25 21.7154 24.7531 22.3115 24.3135 22.751C23.874 23.1906 23.2779 23.4375 22.6563 23.4375H2.33907C2.0315 23.4375 1.72696 23.3768 1.44286 23.259C1.15877 23.1412 0.900704 22.9684 0.683441 22.7507C0.466177 22.5331 0.293981 22.2746 0.176708 21.9903C0.0594351 21.706 -0.000611665 21.4013 4.69732e-06 21.0938V3.90625ZM18.75 21.875C19.3281 21.875 19.7719 21.5453 20.0828 21.1859C20.2266 21.0203 20.3125 20.75 20.3125 20.3563V3.90625C20.3125 3.69905 20.2302 3.50034 20.0837 3.35382C19.9372 3.20731 19.7385 3.125 19.5313 3.125H2.34375C2.13655 3.125 1.93784 3.20731 1.79133 3.35382C1.64481 3.50034 1.5625 3.69905 1.5625 3.90625V21.0938C1.5625 21.5281 1.91094 21.875 2.33907 21.875H18.75Z" fill="white"/>
<path d="M3.125 4.6875H18.75V7.8125H3.125V4.6875ZM3.125 9.375H9.375V14.0625H3.125V9.375ZM3.125 15.625H9.375V17.1875H3.125V15.625ZM3.125 18.75H9.375V20.3125H3.125V18.75ZM10.9375 9.375H14.0625V10.9375H10.9375V9.375ZM15.625 9.375H18.75V10.9375H15.625V9.375ZM10.9375 12.5H14.0625V14.0625H10.9375V12.5ZM15.625 12.5H18.75V14.0625H15.625V12.5ZM10.9375 15.625H14.0625V17.1875H10.9375V15.625ZM15.625 15.625H18.75V17.1875H15.625V15.625ZM10.9375 18.75H14.0625V20.3125H10.9375V18.75ZM15.625 18.75H18.75V20.3125H15.625V18.75Z" fill="#7FFF52"/>
</g>
<defs>
<clipPath id="clip0_136_101">
<rect width="25" height="25" fill="white"/>
</clipPath>
</defs>
</svg>
