<svg width="25" height="27" viewBox="0 0 25 27" fill="none" xmlns="http://www.w3.org/2000/svg">
<path d="M12.5 27C13.4472 27 14.3556 26.6444 15.0254 26.0115C15.6952 25.3786 16.0714 24.5202 16.0714 23.6252H8.92857C8.92857 24.5202 9.30485 25.3786 9.97462 26.0115C10.6444 26.6444 11.5528 27 12.5 27ZM12.5 3.23792L11.0768 3.5096C9.46243 3.82042 8.0113 4.64877 6.96902 5.85446C5.92674 7.06014 5.35732 8.5691 5.35714 10.1259C5.35714 11.1856 5.11786 13.8332 4.5375 16.4402C4.25179 17.7344 3.86607 19.0827 3.35357 20.2504H21.6464C21.1339 19.0827 20.75 17.7361 20.4625 16.4402C19.8821 13.8332 19.6429 11.1856 19.6429 10.1259C19.6423 8.56939 19.0727 7.06083 18.0304 5.85549C16.9882 4.65015 15.5373 3.82205 13.9232 3.51128L12.5 3.23792ZM23.6071 20.2504C24.0054 21.0046 24.4661 21.602 25 21.9378H0C0.533929 21.602 0.994643 21.0046 1.39286 20.2504C3 17.213 3.57143 11.6108 3.57143 10.1259C3.57143 6.0424 6.64286 2.63383 10.7232 1.85594C10.6983 1.62131 10.7257 1.38435 10.8036 1.16034C10.8816 0.936334 11.0083 0.73025 11.1758 0.555382C11.3432 0.380513 11.5475 0.240742 11.7756 0.145082C12.0037 0.0494233 12.2505 0 12.5 0C12.7495 0 12.9963 0.0494233 13.2244 0.145082C13.4525 0.240742 13.6568 0.380513 13.8242 0.555382C13.9917 0.73025 14.1184 0.936334 14.1964 1.16034C14.2743 1.38435 14.3017 1.62131 14.2768 1.85594C16.2951 2.24387 18.1096 3.27903 19.4129 4.78612C20.7162 6.29321 21.4283 8.17962 21.4286 10.1259C21.4286 11.6108 22 17.213 23.6071 20.2504Z" fill="white"/>
<path d="M11 16.5009C11 16.1034 11.158 15.7221 11.4393 15.4409C11.7206 15.1598 12.1022 15.0019 12.5 15.0019C12.8978 15.0019 13.2794 15.1598 13.5607 15.4409C13.842 15.7221 14 16.1034 14 16.5009C14 16.8985 13.842 17.2798 13.5607 17.5609C13.2794 17.8421 12.8978 18 12.5 18C12.1022 18 11.7206 17.8421 11.4393 17.5609C11.158 17.2798 11 16.8985 11 16.5009ZM11.1485 7.49906C11.1285 7.30994 11.1486 7.11874 11.2073 6.93786C11.266 6.75697 11.3622 6.59045 11.4895 6.4491C11.6168 6.30775 11.7724 6.19472 11.9462 6.11735C12.12 6.03998 12.3082 6 12.4985 6C12.6888 6 12.877 6.03998 13.0508 6.11735C13.2246 6.19472 13.3802 6.30775 13.5075 6.4491C13.6348 6.59045 13.731 6.75697 13.7897 6.93786C13.8484 7.11874 13.8685 7.30994 13.8485 7.49906L13.3235 12.7563C13.3022 12.9601 13.2061 13.1488 13.0537 13.286C12.9013 13.4231 12.7036 13.499 12.4985 13.499C12.2934 13.499 12.0957 13.4231 11.9433 13.286C11.7909 13.1488 11.6948 12.9601 11.6735 12.7563L11.1485 7.49906Z" fill="#7FFF52"/>
</svg>
