<svg width="27" height="27" viewBox="0 0 27 27" fill="none" xmlns="http://www.w3.org/2000/svg">
<path fill-rule="evenodd" clip-rule="evenodd" d="M16.875 5.90625C16.875 5.68247 16.7861 5.46786 16.6279 5.30963C16.4696 5.15139 16.255 5.0625 16.0312 5.0625H2.53125C2.30747 5.0625 2.09286 5.15139 1.93463 5.30963C1.77639 5.46786 1.6875 5.68247 1.6875 5.90625V21.0938C1.6875 21.3175 1.77639 21.5321 1.93463 21.6904C2.09286 21.8486 2.30747 21.9375 2.53125 21.9375H16.0312C16.255 21.9375 16.4696 21.8486 16.6279 21.6904C16.7861 21.5321 16.875 21.3175 16.875 21.0938V17.7188C16.875 17.495 16.9639 17.2804 17.1221 17.1221C17.2804 16.9639 17.495 16.875 17.7188 16.875C17.9425 16.875 18.1571 16.9639 18.3154 17.1221C18.4736 17.2804 18.5625 17.495 18.5625 17.7188V21.0938C18.5625 21.7651 18.2958 22.4089 17.8211 22.8836C17.3464 23.3583 16.7026 23.625 16.0312 23.625H2.53125C1.85992 23.625 1.21609 23.3583 0.741386 22.8836C0.266684 22.4089 0 21.7651 0 21.0938L0 5.90625C0 5.23492 0.266684 4.59109 0.741386 4.11639C1.21609 3.64168 1.85992 3.375 2.53125 3.375H16.0312C16.7026 3.375 17.3464 3.64168 17.8211 4.11639C18.2958 4.59109 18.5625 5.23492 18.5625 5.90625V9.28125C18.5625 9.50503 18.4736 9.71964 18.3154 9.87787C18.1571 10.0361 17.9425 10.125 17.7188 10.125C17.495 10.125 17.2804 10.0361 17.1221 9.87787C16.9639 9.71964 16.875 9.50503 16.875 9.28125V5.90625Z" fill="white"/>
<path fill-rule="evenodd" clip-rule="evenodd" d="M6.99642 14.0973C6.91784 14.019 6.8555 13.9259 6.81297 13.8233C6.77043 13.7208 6.74854 13.611 6.74854 13.5C6.74854 13.389 6.77043 13.2791 6.81297 13.1766C6.8555 13.0741 6.91784 12.981 6.99642 12.9026L12.0589 7.84009C12.2174 7.68166 12.4322 7.59265 12.6563 7.59265C12.8804 7.59265 13.0952 7.68166 13.2537 7.84009C13.4121 7.99853 13.5011 8.21341 13.5011 8.43747C13.5011 8.66153 13.4121 8.87641 13.2537 9.03484L9.63061 12.6562H24.4688C24.6926 12.6562 24.9072 12.7451 25.0654 12.9033C25.2236 13.0616 25.3125 13.2762 25.3125 13.5C25.3125 13.7237 25.2236 13.9384 25.0654 14.0966C24.9072 14.2548 24.6926 14.3437 24.4688 14.3437H9.63061L13.2537 17.9651C13.3321 18.0435 13.3943 18.1367 13.4368 18.2392C13.4793 18.3417 13.5011 18.4515 13.5011 18.5625C13.5011 18.6734 13.4793 18.7833 13.4368 18.8858C13.3943 18.9883 13.3321 19.0814 13.2537 19.1598C13.1752 19.2383 13.0821 19.3005 12.9796 19.343C12.8771 19.3854 12.7672 19.4073 12.6563 19.4073C12.5454 19.4073 12.4355 19.3854 12.333 19.343C12.2305 19.3005 12.1374 19.2383 12.0589 19.1598L6.99642 14.0973Z" fill="#7FFF52"/>
</svg>
